<?xml version="1.0" encoding="utf-8"?>
<!-- Generator: Adobe Illustrator 22.1.0, SVG Export Plug-In . SVG Version: 6.00 Build 0)  -->
<svg version="1.1" id="レイヤー_1" xmlns="http://www.w3.org/2000/svg" xmlns:xlink="http://www.w3.org/1999/xlink" x="0px"
	 y="0px" width="355.8px" height="361.2px" viewBox="0 0 355.8 361.2" style="enable-background:new 0 0 355.8 361.2;"
	 xml:space="preserve">
<style type="text/css">
	.st0{fill:#FFFFFF;}
	.st1{opacity:0.7;fill:url(#SVGID_1_);enable-background:new    ;}
	.st2{opacity:0.47;fill:url(#SVGID_2_);enable-background:new    ;}
	.st3{opacity:0.47;fill:url(#SVGID_3_);enable-background:new    ;}
	.st4{opacity:0.47;fill:url(#SVGID_4_);enable-background:new    ;}
	.st5{fill:#231815;}
	.st6{fill:#80A0B0;}
</style>
<title>blocckchainmedia</title>
<rect x="33.2" y="31.3" class="st0" width="295" height="295"/>
<linearGradient id="SVGID_1_" gradientUnits="userSpaceOnUse" x1="65.344" y1="206.1706" x2="154.184" y2="206.1706" gradientTransform="matrix(1.01 0 0 -1 0.38 361.2756)">
	<stop  offset="0" style="stop-color:#44B3E0"/>
	<stop  offset="0.5" style="stop-color:#2096D5"/>
	<stop  offset="1" style="stop-color:#1384C7"/>
</linearGradient>
<polygon class="st1" points="133.2,116.5 88.5,116.5 66.1,155.1 88.5,193.8 133.2,193.8 155.6,155.1 "/>
<radialGradient id="SVGID_2_" cx="88.1746" cy="234.7743" r="38.95" gradientTransform="matrix(0.94 -0.54 -0.52 -0.91 149.8633 417.6808)" gradientUnits="userSpaceOnUse">
	<stop  offset="0" style="stop-color:#FFFFFF"/>
	<stop  offset="9.000000e-02" style="stop-color:#D7ECF6"/>
	<stop  offset="0.21" style="stop-color:#A7D5EC"/>
	<stop  offset="0.34" style="stop-color:#7CC2E3"/>
	<stop  offset="0.46" style="stop-color:#5AB2DB"/>
	<stop  offset="0.59" style="stop-color:#3FA5D5"/>
	<stop  offset="0.72" style="stop-color:#2C9CD1"/>
	<stop  offset="0.86" style="stop-color:#2197CF"/>
	<stop  offset="1" style="stop-color:#1D95CE"/>
</radialGradient>
<polygon class="st2" points="110.8,111.3 72.2,133.5 72.2,178 110.8,200.3 149.3,178 149.3,133.6 "/>
<radialGradient id="SVGID_3_" cx="111.2144" cy="215.1948" r="36.1795" gradientTransform="matrix(0.99 0 0 -0.99 0.18 357.9629)" gradientUnits="userSpaceOnUse">
	<stop  offset="0" style="stop-color:#FFFFFF"/>
	<stop  offset="9.000000e-02" style="stop-color:#D7ECF6"/>
	<stop  offset="0.21" style="stop-color:#A7D5EC"/>
	<stop  offset="0.34" style="stop-color:#7CC2E3"/>
	<stop  offset="0.46" style="stop-color:#5AB2DB"/>
	<stop  offset="0.59" style="stop-color:#3FA5D5"/>
	<stop  offset="0.72" style="stop-color:#2C9CD1"/>
	<stop  offset="0.86" style="stop-color:#2197CF"/>
	<stop  offset="1" style="stop-color:#1D95CE"/>
</radialGradient>
<polygon class="st3" points="110.8,111.8 72.3,178.1 149.3,178.1 "/>
<radialGradient id="SVGID_4_" cx="546.9012" cy="412.3156" r="36.18" gradientTransform="matrix(-0.98 0 0 1 650.52 -246.2656)" gradientUnits="userSpaceOnUse">
	<stop  offset="0" style="stop-color:#FFFFFF"/>
	<stop  offset="9.000000e-02" style="stop-color:#D7ECF6"/>
	<stop  offset="0.21" style="stop-color:#A7D5EC"/>
	<stop  offset="0.34" style="stop-color:#7CC2E3"/>
	<stop  offset="0.46" style="stop-color:#5AB2DB"/>
	<stop  offset="0.59" style="stop-color:#3FA5D5"/>
	<stop  offset="0.72" style="stop-color:#2C9CD1"/>
	<stop  offset="0.86" style="stop-color:#2197CF"/>
	<stop  offset="1" style="stop-color:#1D95CE"/>
</radialGradient>
<polygon class="st4" points="110.7,200.3 148.8,133.6 72.7,133.6 "/>
<path class="st0" d="M149.8,178.3h-78l0.3-0.4l38.8-67L149.8,178.3z M72.8,177.7h76l-38-65.6L72.8,177.7z"/>
<path class="st0" d="M110.8,200.6l-38.6-67.3h77.2L110.8,200.6z M73.2,133.8l37.5,65.5l37.6-65.5H73.2z"/>
<path class="st0" d="M133.2,193.9H88.4v-0.1L66,155.1l0,0l22.4-38.7h44.8v0.1l22.4,38.7v0.1L133.2,193.9z M88.5,193.7h44.6
	l22.3-38.6l-22.3-38.6H88.5l-22.3,38.6L88.5,193.7z"/>
<path class="st0" d="M110.8,185.9L110.8,185.9l-24.9-14.4v-28.7H86l24.8-14.3h0.1l24.8,14.3v28.7h-0.1L110.8,185.9z M86.1,171.4
	l24.7,14.2l24.7-14.2v-28.5l-24.7-14.2l-24.7,14.2V171.4z"/>
<rect x="96.5" y="171.3" transform="matrix(2.094442e-03 -1 1 2.094442e-03 -60.7843 281.9069)" class="st0" width="28.7" height="0.2"/>
<rect x="98.4" y="135.7" transform="matrix(0.4965 -0.868 0.868 0.4965 -80.6074 160.9972)" class="st0" width="0.2" height="28.6"/>
<rect x="108.9" y="150" transform="matrix(0.8665 -0.4992 0.4992 0.8665 -58.5082 81.5114)" class="st0" width="28.5" height="0.2"/>
<path class="st5" d="M170,144.3c0.4,0.1,0.7,0.3,1.1,0.5c0.3,0.2,0.6,0.5,0.8,0.9c0.2,0.4,0.4,0.8,0.5,1.2c0.1,0.5,0.2,1.1,0.2,1.6
	v0.9c0,3-1.5,4.5-4.5,4.5H158v-18.5h9.6c3,0,4.5,1.5,4.5,4.5v0.3c0,0.9-0.1,1.8-0.5,2.6C171.3,143.5,170.7,144,170,144.3z
	 M160.6,138v5.3h7.1c0.5,0,1-0.2,1.4-0.5c0.3-0.4,0.5-1,0.4-1.5V140c0.1-0.6-0.1-1.1-0.5-1.6c-0.4-0.4-1-0.5-1.5-0.5L160.6,138z
	 M160.6,145.9v5.5h7.4c0.5,0.1,1.1-0.1,1.5-0.5c0.3-0.4,0.5-1,0.5-1.5v-1.4c0.1-0.6-0.1-1.1-0.5-1.5c-0.4-0.4-1-0.5-1.5-0.5
	L160.6,145.9z"/>
<path class="st5" d="M178.9,134.9V154h-2.5v-19.1H178.9z"/>
<path class="st5" d="M195,151.4c0,0.3-0.1,0.7-0.2,1c-0.1,0.3-0.3,0.6-0.5,0.8c-0.2,0.2-0.5,0.4-0.8,0.5c-0.3,0.1-0.7,0.2-1,0.2
	h-6.8c-0.3,0-0.7-0.1-1-0.2c-0.6-0.3-1.1-0.7-1.4-1.4c-0.1-0.3-0.2-0.7-0.2-1v-8.7c0-0.3,0.1-0.7,0.2-1c0.3-0.6,0.7-1.1,1.4-1.4
	c0.3-0.1,0.7-0.2,1-0.2h6.8c0.3,0,0.7,0.1,1,0.2c0.3,0.1,0.6,0.3,0.8,0.5c0.2,0.2,0.4,0.5,0.5,0.8c0.1,0.3,0.2,0.7,0.2,1V151.4z
	 M185.6,142.8v8.7h6.8v-8.7H185.6z"/>
<path class="st5" d="M201.8,142.8v8.7h6.6v-2.3h2.6v2.3c0,0.3-0.1,0.7-0.2,1c-0.1,0.3-0.3,0.6-0.6,0.8c-0.2,0.2-0.5,0.4-0.8,0.5
	c-0.3,0.1-0.7,0.2-1,0.2h-6.6c-0.3,0-0.7-0.1-1-0.2c-0.6-0.3-1.1-0.7-1.4-1.4c-0.1-0.3-0.2-0.7-0.2-1v-8.7c0-0.3,0.1-0.7,0.2-1
	c0.3-0.6,0.7-1.1,1.4-1.4c0.3-0.1,0.7-0.2,1-0.2h6.6c0.3,0,0.7,0.1,1,0.2c0.3,0.1,0.6,0.3,0.8,0.5c0.2,0.2,0.4,0.5,0.6,0.8
	c0.1,0.3,0.2,0.7,0.2,1v2.3h-2.6v-2.3L201.8,142.8z"/>
<path class="st5" d="M224.2,154l-6.6-5.9v5.9h-2.5v-19.1h2.5v10.7l6-5.4h3.6l-7.4,6.6l7.9,7.1L224.2,154z"/>
<path class="st5" d="M232.1,142.8v8.7h6.6v-2.3h2.5v2.3c0,0.3-0.1,0.7-0.2,1c-0.3,0.6-0.7,1.1-1.4,1.4c-0.3,0.1-0.7,0.2-1,0.2h-6.6
	c-0.7,0-1.3-0.3-1.8-0.7c-0.2-0.2-0.4-0.5-0.6-0.8c-0.1-0.3-0.2-0.7-0.2-1v-8.7c0-0.3,0.1-0.7,0.2-1c0.1-0.3,0.3-0.6,0.6-0.8
	c0.5-0.5,1.1-0.7,1.8-0.7h6.6c0.3,0,0.7,0.1,1,0.2c0.6,0.3,1.1,0.7,1.4,1.4c0.1,0.3,0.2,0.7,0.2,1v2.3h-2.5v-2.3H232.1z"/>
<path class="st5" d="M257.7,154h-2.6v-11.2H248V154h-2.5v-19.1h2.5v7.7c0-0.3,0.1-0.6,0.2-0.9c0.4-0.9,1.3-1.5,2.3-1.5h4.6
	c0.3,0,0.7,0.1,1,0.2c0.3,0.1,0.6,0.3,0.8,0.5c0.2,0.2,0.4,0.5,0.5,0.8c0.1,0.3,0.2,0.7,0.2,1L257.7,154z"/>
<path class="st5" d="M261.9,148c0-0.3,0.1-0.7,0.2-1c0.1-0.3,0.3-0.6,0.5-0.8c0.5-0.5,1.1-0.8,1.8-0.8h6.6v-2.7h-8.3v-2.5h8.3
	c0.3,0,0.7,0.1,1,0.2c0.6,0.3,1.1,0.7,1.4,1.4c0.1,0.3,0.2,0.7,0.2,1V154H271v-2.3c0,0.3-0.1,0.6-0.3,0.9c-0.1,0.3-0.3,0.5-0.6,0.8
	c-0.2,0.2-0.5,0.4-0.8,0.5c-0.3,0.1-0.6,0.2-0.9,0.2h-4c-0.7,0-1.3-0.3-1.8-0.7c-0.2-0.2-0.4-0.5-0.5-0.8c-0.1-0.3-0.2-0.7-0.2-1
	L261.9,148z M264.4,151.5h6.6V148h-6.6L264.4,151.5z"/>
<path class="st5" d="M277.8,134.9h2.8v2.6h-2.8V134.9z M280.4,140.2V154h-2.5v-13.8H280.4z"/>
<path class="st5" d="M297,154h-2.5v-11.2h-7.1V154h-2.5v-13.8h2.5v2.4c0-0.3,0.1-0.6,0.2-0.9c0.1-0.3,0.3-0.6,0.5-0.8
	c0.2-0.2,0.5-0.4,0.8-0.5c0.3-0.1,0.7-0.2,1-0.2h4.5c0.3,0,0.7,0.1,1,0.2c0.3,0.1,0.6,0.3,0.8,0.5c0.2,0.2,0.4,0.5,0.5,0.8
	c0.1,0.3,0.2,0.7,0.2,1L297,154z"/>
<path class="st5" d="M199.4,174.8l-6.9-13.6v13.6h-2.6v-18.5h2.9l7.1,13.9l7.1-13.9h2.9v18.5h-2.6v-13.6l-6.9,13.6H199.4z"/>
<path class="st5" d="M225.8,169.2h-9.1v3h9.1v2.6h-9.1c-0.3,0-0.7-0.1-1-0.2c-0.3-0.1-0.6-0.3-0.8-0.6c-0.2-0.2-0.4-0.5-0.5-0.8
	c-0.1-0.3-0.2-0.7-0.2-1v-8.7c0-0.3,0.1-0.7,0.2-1c0.4-0.9,1.3-1.5,2.3-1.6h6.6c0.3,0,0.7,0.1,1,0.2c0.3,0.1,0.6,0.3,0.8,0.5
	c0.2,0.2,0.4,0.5,0.6,0.8c0.1,0.3,0.2,0.7,0.2,1L225.8,169.2z M216.7,163.6v3.1h6.6v-3.1H216.7z"/>
<path class="st5" d="M230.1,163.6c0-0.3,0.1-0.7,0.2-1c0.1-0.3,0.3-0.6,0.5-0.8c0.2-0.2,0.5-0.4,0.8-0.5c0.3-0.1,0.7-0.2,1-0.2h7.1
	v-5.3h2.5v19.1h-2.6v-2.3c0,0.3-0.1,0.6-0.3,0.9c-0.1,0.3-0.3,0.5-0.6,0.7c-0.2,0.2-0.5,0.4-0.8,0.5c-0.3,0.1-0.6,0.2-0.9,0.2h-4.6
	c-0.3,0-0.7-0.1-1-0.2c-0.6-0.3-1.1-0.7-1.4-1.4c-0.1-0.3-0.2-0.7-0.2-1L230.1,163.6z M232.6,172.3h7.1v-8.7h-7.1V172.3z"/>
<path class="st5" d="M246.5,155.8h2.8v2.6h-2.8V155.8z M249.1,161.1v13.8h-2.5v-13.8H249.1z"/>
<path class="st5" d="M253.5,168.8c0-0.3,0.1-0.7,0.2-1c0.1-0.3,0.3-0.6,0.5-0.8c0.2-0.2,0.5-0.4,0.8-0.5c0.3-0.1,0.7-0.2,1-0.2h6.6
	v-2.7h-8.3V161h8.3c0.3,0,0.7,0.1,1,0.2c0.3,0.1,0.6,0.3,0.8,0.5c0.2,0.2,0.4,0.5,0.5,0.8c0.1,0.3,0.2,0.7,0.2,1v11.2h-2.5v-2.3
	c0,0.3-0.1,0.6-0.3,0.9c-0.1,0.3-0.3,0.5-0.6,0.7c-0.2,0.2-0.5,0.4-0.8,0.5c-0.3,0.1-0.6,0.2-0.9,0.2h-4c-0.3,0-0.7-0.1-1-0.2
	c-0.3-0.1-0.6-0.3-0.8-0.6c-0.2-0.2-0.4-0.5-0.5-0.8c-0.1-0.3-0.2-0.7-0.2-1L253.5,168.8z M256.1,172.3h6.6v-3.5h-6.6V172.3z"/>
<rect x="33.2" y="270.2" class="st6" width="295" height="56"/>
<g>
	<path class="st0" d="M90.5,290.9c4.2,0,5.9,1.6,5.9,4.3c0,2.1-1.5,3.5-3.8,3.9v0.2c2.8,0.4,4.4,1.9,4.4,4.3c0,3.1-2.2,4.9-6.1,4.9
		h-6.2v-17.6H90.5z M86.7,298.4h3.2c2.9,0,4.4-1.2,4.4-3s-1-2.8-4-2.8h-3.6L86.7,298.4z M86.7,306.8h3.9c2.9,0,4.2-1.2,4.2-3.4
		S93.1,300,90,300h-3.4L86.7,306.8z"/>
	<path class="st0" d="M102.5,308.5h-1.9v-17.9h1.9V308.5z"/>
	<path class="st0" d="M116.7,302.4c0,4-2.2,6.4-5.3,6.4s-5.2-2.4-5.2-6.4s2.2-6.4,5.3-6.4S116.7,298.4,116.7,302.4z M108.1,302.4
		c0,3.2,1.2,4.9,3.3,4.9s3.3-1.7,3.3-4.9s-1.2-4.9-3.2-4.9S108.1,299.3,108.1,302.4L108.1,302.4z"/>
	<path class="st0" d="M127.5,300.1c-0.4-1.8-1.4-2.6-2.7-2.6c-2,0-3.3,1.7-3.3,4.9s1.3,4.9,3.3,4.9c1.6,0,2.5-0.9,2.9-2.7l1.8,0.6
		c-0.5,2.2-2.5,3.7-4.7,3.6c-3.2,0-5.3-2.4-5.3-6.4s2.1-6.4,5.3-6.4c2.2-0.1,4.2,1.4,4.7,3.6L127.5,300.1z"/>
	<path class="st0" d="M138,300.9l4.5,7.6h-2.2l-3.6-6.3l-2.2,2.3v4h-1.9v-17.9h1.9v11.8l5.4-6.1h2.3L138,300.9z"/>
	<path class="st0" d="M152.7,300.1c-0.4-1.8-1.4-2.6-2.7-2.6c-2,0-3.3,1.7-3.3,4.9s1.3,4.9,3.3,4.9c1.6,0,2.5-0.9,2.9-2.7l1.8,0.6
		c-0.5,2.2-2.5,3.7-4.7,3.6c-3.2,0-5.3-2.4-5.3-6.4s2.1-6.4,5.3-6.4c2.2-0.1,4.2,1.4,4.7,3.6L152.7,300.1z"/>
	<path class="st0" d="M159.8,298.4c1-1.4,2.5-2.3,4.2-2.5c1.8-0.1,3.3,1.3,3.4,3.1c0,0.2,0,0.3,0,0.5v9h-2v-8.3
		c0-1.8-0.7-2.5-2.1-2.5c-1.1,0-2.5,0.9-3.6,2.4v8.4h-1.9v-18h1.9L159.8,298.4z"/>
	<path class="st0" d="M171.4,299.2c0.7-2.1,2.4-3.2,4.9-3.2c2.9,0,4.4,1.3,4.4,4.1v4.5c0,1.3,0.1,2.7,0.2,4h-1.8
		c-0.1-0.6-0.2-1.3-0.3-1.9c-0.9,1.4-2.5,2.3-4.2,2.2c-1.9,0.2-3.6-1.2-3.7-3c0-0.2,0-0.4,0-0.5c0-2.1,1.2-3.5,4-4
		c1.3-0.2,2.5-0.3,3.8-0.4v-0.6c0-2-0.7-2.7-2.6-2.7c-1.4-0.1-2.7,0.9-3,2.3L171.4,299.2z M178.8,302.2c-1.1,0-2.3,0.2-3.4,0.4
		c-1.8,0.4-2.6,1.2-2.6,2.6c-0.1,1.2,0.8,2.1,2,2.2c0.1,0,0.3,0,0.4,0c1.6-0.1,2.9-1,3.6-2.4V302.2z"/>
	<path class="st0" d="M187.1,293.9h-2.4v-2.4h2.4V293.9z M186.9,308.5h-2v-12.2h2V308.5z"/>
	<path class="st0" d="M193.2,298.5c1-1.4,2.5-2.4,4.3-2.5c1.8-0.1,3.3,1.2,3.4,3c0,0.2,0,0.3,0,0.5v9h-2v-8.3c0-1.8-0.7-2.5-2.1-2.5
		c-1.1,0-2.5,0.9-3.6,2.4v8.4h-1.9v-12.2h1.9L193.2,298.5z"/>
	<path class="st0" d="M229.3,308.5h-2v-10.4c0-2,0-3.7,0-5.6h-0.4c-0.5,1.9-0.9,3.4-1.6,5.4l-3.3,10.5h-2.6l-3.2-10.5
		c-0.6-1.9-1-3.5-1.6-5.5h-0.4c0,1.9,0,3.6,0,5.6v10.3h-1.9v-17.6h3.5l3.2,10.4c0.5,1.8,1,3.6,1.6,5.4h0.4c0.6-1.9,1.1-3.5,1.6-5.3
		l3.2-10.4h3.4L229.3,308.5z"/>
	<path class="st0" d="M235.1,302.6c0,3,1.4,4.7,3.6,4.7c1.5,0.1,2.9-1,3.1-2.5l1.8,0.6c-0.6,2.1-2.7,3.5-4.9,3.4
		c-3.3,0-5.5-2.4-5.5-6.4s2.2-6.4,5.3-6.4s5.2,2.3,5.2,6.2v0.4L235.1,302.6z M241.8,301.3c-0.2-2.5-1.4-3.8-3.2-3.8
		s-3.2,1.5-3.4,3.8H241.8z"/>
	<path class="st0" d="M256.7,308.5h-1.9v-1.8c-0.7,1.3-2.1,2.1-3.6,2.1c-2.7,0-4.8-2.4-4.8-6.4s2.1-6.4,4.7-6.4
		c1.5,0,2.8,0.8,3.6,2.1v-7.5h1.9V308.5z M254.8,299.9c-0.8-1.6-1.9-2.3-3.1-2.3c-1.8,0-3.2,1.6-3.2,4.8s1.5,4.8,3.3,4.8
		c1.2,0,2.2-0.7,3-2.3L254.8,299.9z"/>
	<path class="st0" d="M263.3,293.9h-2.4v-2.4h2.4V293.9z M263,308.5h-2v-12.2h2V308.5z"/>
	<path class="st0" d="M267.1,299.2c0.7-2.1,2.4-3.2,4.9-3.2c2.9,0,4.4,1.3,4.4,4.1v4.5c0,1.3,0.1,2.7,0.2,4h-1.8
		c-0.1-0.6-0.2-1.3-0.3-1.9c-0.9,1.4-2.5,2.3-4.2,2.2c-1.9,0.2-3.6-1.2-3.7-3c0-0.2,0-0.4,0-0.5c0-2.1,1.2-3.5,4-4
		c1.3-0.2,2.5-0.3,3.8-0.4v-0.6c0-2-0.7-2.7-2.6-2.7c-1.4-0.1-2.7,0.9-3,2.3L267.1,299.2z M274.5,302.2c-1.1,0-2.3,0.2-3.4,0.4
		c-1.8,0.4-2.6,1.2-2.6,2.6c-0.1,1.2,0.8,2.1,2,2.2c0.1,0,0.3,0,0.4,0c1.6-0.1,2.9-1,3.6-2.4L274.5,302.2z"/>
</g>
</svg>
