<svg id="レイヤー_1" data-name="レイヤー 1" xmlns="http://www.w3.org/2000/svg" xmlns:xlink="http://www.w3.org/1999/xlink" viewBox="0 0 355.84 361.25"><defs><linearGradient id="名称未設定グラデーション_175" x1="108.45" y1="149.17" x2="259.08" y2="149.17" gradientUnits="userSpaceOnUse"><stop offset="0" stop-color="#bc276a"/><stop offset="1" stop-color="#743a8a"/></linearGradient><linearGradient id="名称未設定グラデーション_175-2" x1="108.45" y1="149.17" x2="259.08" y2="149.17" xlink:href="#名称未設定グラデーション_175"/></defs><title>coinchoice</title><rect x="31.31" y="36.91" width="294.95" height="294.95" style="fill:#fff"/><path d="M210.15,149.17a50.62,50.62,0,0,0-6.22-24.36,24.73,24.73,0,0,0-17.42,12.6,29.65,29.65,0,1,1-27.21-17.89c.58,0,1.14,0,1.71.08a56.12,56.12,0,0,1,17.44-17.53,50.85,50.85,0,1,0-19.15,98h0A50.9,50.9,0,0,0,210.15,149.17Z" style="fill:url(#名称未設定グラデーション_175)"/><path d="M259.08,149.17h0a50.85,50.85,0,1,0-95.47,24.36A24.81,24.81,0,0,0,181.05,161a29.64,29.64,0,1,1,27.18,17.83c-.57,0-1.14,0-1.7-.09a56.08,56.08,0,0,1-17.46,17.53A50.49,50.49,0,0,0,208.23,200h0A50.91,50.91,0,0,0,259.08,149.17Z" style="fill:url(#名称未設定グラデーション_175-2)"/><polygon points="194.37 227.75 194.37 227.75 194.36 227.75 194.37 227.75" style="fill:#c298ba"/><polygon points="194.37 227.75 194.37 227.75 194.36 227.75 194.37 227.75" style="fill:#c298ba"/><path d="M144.62,232.64a5.74,5.74,0,1,1,5.73-5.74A5.74,5.74,0,0,1,144.62,232.64Zm0-8.85a3.12,3.12,0,1,0,3.11,3.11A3.12,3.12,0,0,0,144.62,223.79Z" style="fill:#717071"/><path d="M210,232.64a5.74,5.74,0,1,1,5.74-5.74A5.74,5.74,0,0,1,210,232.64Zm0-8.85a3.12,3.12,0,1,0,3.12,3.11A3.12,3.12,0,0,0,210,223.79Z" style="fill:#717071"/><path d="M129.72,232.64a8.07,8.07,0,1,1,7.36-11.43l-2.6,1.19a5.22,5.22,0,1,0,0,4.33l2.6,1.19A8.13,8.13,0,0,1,129.72,232.64Z" style="fill:#717071"/><path d="M184.44,232.64a8.07,8.07,0,1,1,7.36-11.43l-2.6,1.19a5.22,5.22,0,1,0,0,4.33l2.6,1.19A8.13,8.13,0,0,1,184.44,232.64Z" style="fill:#717071"/><path d="M228,232.68a5.74,5.74,0,1,1,5.23-8.12l-2.38,1.09a3.12,3.12,0,1,0,0,2.59l2.38,1.09A5.76,5.76,0,0,1,228,232.68Z" style="fill:#717071"/><path d="M240.13,232.68a5.74,5.74,0,1,1,5.23-8.12l.55,1.21-7.86,3.5a3.14,3.14,0,0,0,4.93-1l2.38,1.09A5.79,5.79,0,0,1,240.13,232.68Zm0-8.85a3.13,3.13,0,0,0-3.13,3l5.16-2.31A3.17,3.17,0,0,0,240.13,223.83Z" style="fill:#717071"/><path d="M155.34,219.35a1.69,1.69,0,1,1-1.68-1.68A1.69,1.69,0,0,1,155.34,219.35Z" style="fill:#717071"/><rect x="152.35" y="222.07" width="2.62" height="10.47" style="fill:#717071"/><path d="M220.77,219.35a1.69,1.69,0,1,1-1.69-1.68A1.69,1.69,0,0,1,220.77,219.35Z" style="fill:#717071"/><rect x="217.78" y="222.07" width="2.62" height="10.47" style="fill:#717071"/><path d="M166.63,232.54H164v-6.13c0-.83-.8-1.43-1.9-1.43-.89,0-1.91.76-1.91,1.43h-2.62c0-2.32,2.39-4,4.53-4a4.21,4.21,0,0,1,4.52,4Z" style="fill:#717071"/><rect x="157.58" y="222.07" width="2.62" height="10.47" style="fill:#717071"/><path d="M202.79,232.54h-2.62v-6.13c0-.83-.8-1.43-1.9-1.43-.89,0-1.91.76-1.91,1.43h-2.61c0-2.32,2.38-4,4.52-4,2.58,0,4.52,1.74,4.52,4Z" style="fill:#717071"/><rect x="193.75" y="217.31" width="2.62" height="15.23" style="fill:#717071"/><rect x="31.31" y="275.82" width="294.95" height="56.04" style="fill:#80a0b0"/><path d="M125.69,301.75c-.6-2.59-2.08-3.88-4.28-3.88-3,0-5.19,2.56-5.19,7.42s2.22,7.42,5.19,7.42c2.34,0,3.85-1.18,4.47-3.95l2,.67c-1,3.49-3.26,5-6.48,5-4.24,0-7.38-3.33-7.38-9.12s3.16-9.16,7.38-9.16a6.19,6.19,0,0,1,6.36,5.05Z" style="fill:#fff"/><path d="M140.81,308c0,3.95-2.15,6.44-5.26,6.44s-5.24-2.44-5.24-6.37,2.15-6.44,5.26-6.44S140.81,304,140.81,308Zm-8.52,0c0,3.16,1.22,4.91,3.26,4.91s3.27-1.72,3.27-4.91-1.22-4.88-3.25-4.88S132.29,304.86,132.29,308Z" style="fill:#fff"/><path d="M146.62,299.52h-2.39v-2.37h2.39Zm-.21,14.58h-2V301.87h2Z" style="fill:#fff"/><path d="M152.68,304.09A5.65,5.65,0,0,1,157,301.6a3.21,3.21,0,0,1,3.4,3.5v9h-2v-8.31c0-1.74-.74-2.49-2.06-2.49-1.15,0-2.46.86-3.56,2.42v8.38h-1.94V301.87h1.87Z" style="fill:#fff"/><path d="M182.46,301.75c-.6-2.59-2.08-3.88-4.28-3.88-3,0-5.19,2.56-5.19,7.42s2.22,7.42,5.19,7.42c2.34,0,3.85-1.18,4.47-3.95l2,.67c-1,3.49-3.26,5-6.48,5-4.24,0-7.38-3.33-7.38-9.12s3.16-9.16,7.38-9.16a6.19,6.19,0,0,1,6.36,5.05Z" style="fill:#fff"/><path d="M189.78,304.05a5.57,5.57,0,0,1,4.21-2.47,3.24,3.24,0,0,1,3.4,3.52v9h-2v-8.31c0-1.74-.74-2.49-2.05-2.49-1.15,0-2.47.89-3.57,2.42v8.38h-1.94v-18h1.94Z" style="fill:#fff"/><path d="M211.46,308c0,3.95-2.16,6.44-5.27,6.44S201,312,201,308s2.16-6.44,5.27-6.44S211.46,304,211.46,308Zm-8.52,0c0,3.16,1.22,4.91,3.25,4.91s3.28-1.72,3.28-4.91-1.22-4.88-3.25-4.88S202.94,304.86,202.94,308Z" style="fill:#fff"/><path d="M217.27,299.52h-2.39v-2.37h2.39Zm-.22,14.58h-2V301.87h2Z" style="fill:#fff"/><path d="M228.7,305.72c-.35-1.77-1.36-2.61-2.72-2.61-2,0-3.31,1.72-3.31,4.86s1.27,4.9,3.31,4.9c1.6,0,2.51-.88,2.87-2.68l1.84.58a4.58,4.58,0,0,1-4.74,3.61c-3.23,0-5.26-2.39-5.26-6.36s2.1-6.44,5.26-6.44a4.51,4.51,0,0,1,4.67,3.64Z" style="fill:#fff"/><path d="M235,308.26c0,3,1.42,4.66,3.59,4.66a2.92,2.92,0,0,0,3.11-2.49l1.8.6a4.73,4.73,0,0,1-4.93,3.35c-3.3,0-5.46-2.39-5.46-6.36s2.25-6.44,5.29-6.44,5.17,2.32,5.17,6.25v.43Zm6.68-1.39c-.19-2.47-1.39-3.81-3.25-3.81s-3.21,1.49-3.38,3.81Z" style="fill:#fff"/></svg>