<svg id="レイヤー_1" data-name="レイヤー 1" xmlns="http://www.w3.org/2000/svg" viewBox="0 0 355.84 361.25"><title>cryptoyimes</title><rect x="33.32" y="27.33" width="294.95" height="294.95" style="fill:#fff"/><rect x="33.32" y="266.24" width="294.95" height="56.04" style="fill:#82a4b5"/><path d="M120.61,292.17c-.6-2.59-2.08-3.88-4.28-3.88-3,0-5.2,2.56-5.2,7.42s2.23,7.42,5.2,7.42c2.34,0,3.85-1.17,4.47-3.95l2,.67c-1,3.49-3.26,5-6.49,5-4.23,0-7.37-3.32-7.37-9.12s3.16-9.16,7.37-9.16a6.2,6.2,0,0,1,6.37,5.05Z" style="fill:#fff"/><path d="M131.68,293.92c-1.5,0-3,1.19-3.75,3.59v7H126V292.29h1.87v3.11c.9-2.35,2.36-3.38,4-3.38Z" style="fill:#fff"/><path d="M139.08,305.09c-1,2.75-2.35,3.76-4.53,3.76a7.49,7.49,0,0,1-1.17-.1l-.12-1.6a6.67,6.67,0,0,0,1.27.14c1.32,0,2.2-.69,2.78-2.44l.19-.57-4.24-12h2l2.16,6.94c.31,1,.55,1.94.83,3h.24c.29-1,.55-2,.86-3l2.11-6.89h2Z" style="fill:#fff"/><path d="M148.3,294.2a4.31,4.31,0,0,1,3.61-2.18c2.71,0,4.72,2.28,4.72,6.35s-2.16,6.43-4.84,6.43a3.65,3.65,0,0,1-3.42-2.13v6.18h-1.94V292.29h1.87Zm.07,6.75c.82,1.56,1.8,2.27,3,2.27,1.82,0,3.25-1.62,3.25-4.81s-1.34-4.81-3.11-4.81c-1.22,0-2.34.75-3.16,2.35Z" style="fill:#fff"/><path d="M162.76,292.29h2.92v1.51h-2.92v7.53c0,1.37.6,2,1.7,2a7.2,7.2,0,0,0,1.53-.14l-.09,1.5a12.12,12.12,0,0,1-1.9.12c-2,0-3.15-1-3.15-3.11v-7.9h-2v-1.51h2v-3.81l1.91-.43Z" style="fill:#fff"/><path d="M178.41,298.39c0,3.95-2.16,6.44-5.27,6.44s-5.24-2.44-5.24-6.37,2.16-6.44,5.27-6.44S178.41,294.44,178.41,298.39Zm-8.52,0c0,3.16,1.22,4.91,3.25,4.91s3.28-1.72,3.28-4.91-1.22-4.88-3.25-4.88-3.28,1.77-3.28,4.9Z" style="fill:#fff"/><path d="M200.7,288.65h-5.53v15.87h-2.11V288.65h-5.47v-1.77H200.7Z" style="fill:#fff"/><path d="M206,289.94h-2.39v-2.37H206Zm-.21,14.58h-2V292.29h2Z" style="fill:#fff"/><path d="M212.07,294.51c1.12-1.57,2.39-2.49,4-2.49a2.92,2.92,0,0,1,3.07,2.47A5.09,5.09,0,0,1,223.2,292a3.15,3.15,0,0,1,3.29,3,3.85,3.85,0,0,1,0,.48v9h-2v-8.31c0-1.72-.74-2.49-2-2.49a4.19,4.19,0,0,0-3.25,2.42v8.38H217.3v-8.31c0-1.77-.72-2.49-1.91-2.49a4.23,4.23,0,0,0-3.3,2.42v8.38H210.2V292.29h1.86Z" style="fill:#fff"/><path d="M231.92,298.68c0,3,1.42,4.66,3.59,4.66a2.93,2.93,0,0,0,3.11-2.49l1.8.6a4.74,4.74,0,0,1-4.93,3.35c-3.3,0-5.46-2.39-5.46-6.36S232.3,292,235.3,292s5.17,2.32,5.17,6.25v.43Zm6.67-1.39c-.19-2.46-1.39-3.81-3.25-3.81s-3.21,1.49-3.38,3.81Z" style="fill:#fff"/><path d="M250.46,295.54a2.6,2.6,0,0,0-2.65-2.1c-1.58,0-2.49.71-2.49,1.74s.53,1.66,2.51,2.13l1,.24c2.8.67,3.83,1.61,3.83,3.62s-1.53,3.63-4.71,3.63c-2.39,0-4.12-.95-4.86-3l1.89-.67a3,3,0,0,0,3,2.2c2,0,2.77-.94,2.77-2,0-1.29-.45-1.7-2.68-2.28l-1-.21c-2.75-.7-3.59-1.65-3.59-3.54s1.44-3.33,4.33-3.33a4.35,4.35,0,0,1,4.49,3Z" style="fill:#fff"/><path d="M128.3,147.07a2,2,0,0,1,.15.84l-.17,4.05a.75.75,0,0,1-.73.77.5.5,0,0,1-.21,0,40.56,40.56,0,0,0-6.85-1c-4.24,0-7.34,1.27-9.33,3.79a11.29,11.29,0,0,0-2.24,8.92,9.87,9.87,0,0,0,3.33,6.37,10.05,10.05,0,0,0,6.86,2.38,19.13,19.13,0,0,0,9.77-3.14c.36-.21.72-.31.9-.1a1.06,1.06,0,0,1,.19.45v5.29a1.44,1.44,0,0,1-.85,1.28s-6.16,2.25-9.78,2.25a17.22,17.22,0,0,1-11.62-4.14,16.87,16.87,0,0,1-5.72-10.8q-1.17-8.16,3.8-13.37t14-5.2a34.54,34.54,0,0,1,7.9,1A.93.93,0,0,1,128.3,147.07Z"/><path d="M138,166.31a3.45,3.45,0,0,1,.89-1.55,2.5,2.5,0,0,1,1.93-1.14c.82,0,2.06-.23,4,4.17l1.25-8.31c-.63-1.09-3-1.17-4.37-1.07s-2.49,1.1-3.78,3.13v-1.78a1,1,0,0,0-.92-1h-3.41a.94.94,0,0,0-.92,1v16.6a1,1,0,0,0,.92,1h3.46a1,1,0,0,0,.92-1Z"/><path d="M158.56,158.8a.65.65,0,0,1,.68.6.56.56,0,0,1-.06.31L152,181.89a1.39,1.39,0,0,1-1.21.91h-3.7a.65.65,0,0,1-.68-.6.56.56,0,0,1,.06-.31l1.83-5.48a2.73,2.73,0,0,0-.12-1.76l-7.2-15c-.22-.48,0-.86.51-.86h3.44a1.59,1.59,0,0,1,1.31.86l4.2,9.06c.22.48.52.45.67-.05l2.65-9a1.32,1.32,0,0,1,1.19-.91Z"/><path d="M167.23,155.24a1,1,0,0,1,.92,1v1.66a.78.78,0,0,0,.73.83h.18a18,18,0,0,1,2.32-.18,8.62,8.62,0,0,1,5.93,2.21,9.39,9.39,0,0,1,2.95,5.83,9.5,9.5,0,0,1-2.15,7.86,9.26,9.26,0,0,1-7.41,3.23,11.52,11.52,0,0,1-2.55-.35v4.56a1,1,0,0,1-.92,1h-3.37a.94.94,0,0,1-.92-1V166.63c0-.52-.29-.65-.65-.28a14.94,14.94,0,0,0-1.79,2.32c-.36.67-.69,1-1,1s-.32-.12-.35-.36a7.43,7.43,0,0,1,.76-3,12.4,12.4,0,0,1,3-4.26V156.2a1,1,0,0,1,.92-1Zm.92,7.57v9A1.34,1.34,0,0,0,169,173a3.25,3.25,0,0,0,.88.09,4.51,4.51,0,0,0,4-1.9,6.46,6.46,0,0,0,.88-4.6c-.38-2.74-1.93-4.1-4.64-4.1a8.94,8.94,0,0,0-2,.29Z"/><path d="M188.68,154.9a.91.91,0,0,1,.89.91s0,.06,0,.09l-.1,2a.87.87,0,0,0,.75,1h2.12a.9.9,0,0,1,.9.9s0,.07,0,.1l-.07,2.15a1,1,0,0,1-1,1h-2a1,1,0,0,0-1,1l-.13,4.07V170l.06.47c.22,1.63.86,2.44,1.91,2.44a4.67,4.67,0,0,0,2.23-.75c.14-.07.39-.16.52-.08a.69.69,0,0,1,.24.46l.44,3.16a1.29,1.29,0,0,1-.73,1.3,11.81,11.81,0,0,1-3.51.82,5.84,5.84,0,0,1-4.28-1.7,7.42,7.42,0,0,1-2.09-4.4,8.9,8.9,0,0,1-.07-1.63l.22-6.07a.89.89,0,0,0-.79-1h-1.83a.92.92,0,0,1-.9-.94V159.9a1,1,0,0,1,1-1h1.74a1,1,0,0,0,.94-1l0-2a1,1,0,0,1,.94-1Z"/><path d="M204.19,158.5a9.87,9.87,0,0,1,6.66,2.41,9.74,9.74,0,0,1,3.32,6.28,9.14,9.14,0,0,1-1.88,7.42,8.27,8.27,0,0,1-6.73,3,9.9,9.9,0,0,1-6.71-2.58,10,10,0,0,1-3.45-6.31,8.71,8.71,0,0,1,2-7.21A8.5,8.5,0,0,1,204.19,158.5Zm.79,14.66a3.23,3.23,0,0,0,3-1.91,6.86,6.86,0,0,0,.69-4.22,5,5,0,0,0-1.37-2.94,3.78,3.78,0,0,0-2.73-1.12,3.15,3.15,0,0,0-3,2,7.11,7.11,0,0,0-.64,4.11,4.74,4.74,0,0,0,1.48,3,3.78,3.78,0,0,0,2.64,1.08Z"/><path d="M239.31,145.69a.55.55,0,0,1,.53.54v4.41a.54.54,0,0,1-.52.55h-6.74a.55.55,0,0,0-.53.54v26.1a.53.53,0,0,1-.52.54h-5.61a.53.53,0,0,1-.52-.54h0v-26.1a.55.55,0,0,0-.53-.54h-8a.54.54,0,0,1-.52-.55v-4.41a.55.55,0,0,1,.53-.54Z"/><path d="M247,158.8a.94.94,0,0,1,.92,1v16.6a1,1,0,0,1-.92,1h-3.43a1,1,0,0,1-.92-1v-16.6a1,1,0,0,1,.92-1Z"/><path d="M242.49,153.67a2.45,2.45,0,0,1,.52-2,2.24,2.24,0,0,1,1.81-.84,3,3,0,0,1,2.06.84,3.2,3.2,0,0,1,1.07,2,2.53,2.53,0,0,1-.52,2,2.22,2.22,0,0,1-1.83.83,2.94,2.94,0,0,1-2-.83A3.22,3.22,0,0,1,242.49,153.67Z"/><path d="M254.62,158.8a.94.94,0,0,1,.92,1v1.5a5.58,5.58,0,0,0,.73-.55s2.69-2.17,4.53-2.17a4.86,4.86,0,0,1,4.95,3.38q2.89-3.37,6-3.38a5.48,5.48,0,0,1,4,1.58,7.08,7.08,0,0,1,2,4.26,12.14,12.14,0,0,1,.12,1.47v10.51a1,1,0,0,1-.93,1h-3.4a1,1,0,0,1-.92-1V165.75s0-.1-.06-.56c-.23-1.72-.86-2.58-1.87-2.58-1.25,0-2.56,1-3.91,2.9v10.85a1,1,0,0,1-.92,1h-3.41a1,1,0,0,1-.92-1v-8.64a13.72,13.72,0,0,0-.09-1.92l-.09-.73c-.22-1.64-.89-2.46-2-2.46s-2.37,1-3.78,2.88v10.87a1,1,0,0,1-.92,1h-3.44a1,1,0,0,1-.92-1v-16.6a.94.94,0,0,1,.88-1h0Z"/><path d="M296.47,168.64a1.61,1.61,0,0,1-.67.19H286a.74.74,0,0,0-.76.72.78.78,0,0,0,0,.22,5.83,5.83,0,0,0,1.23,2.52,4.49,4.49,0,0,0,3.27,1.29,14.18,14.18,0,0,0,5.07-1.35.91.91,0,0,1,1,0,.53.53,0,0,1,.19.71l-.16,2.37a1.49,1.49,0,0,1-.94,1.23,23.17,23.17,0,0,1-5.09,1,9.73,9.73,0,0,1-6.75-2.44,10.26,10.26,0,0,1-3.28-6.53,9,9,0,0,1,1.83-7.19,7.81,7.81,0,0,1,6.38-3,8.32,8.32,0,0,1,5.8,2.14,8.9,8.9,0,0,1,2.82,5.63,11.73,11.73,0,0,1,.1,1.78A.71.71,0,0,1,296.47,168.64Zm-11-3.08a1.12,1.12,0,0,0,.44.09h4.55c.51,0,.92-.2.92-.45V165a3.13,3.13,0,0,0-1-2,2.78,2.78,0,0,0-2-.74c-1.54,0-2.48.85-3,2.74-.05.21-.13.46.06.58Z"/><path d="M309.79,160.27a2.46,2.46,0,0,1,.12.76l.1,2.53c0,.53-.35.8-.82.59a20.31,20.31,0,0,0-2.15-.76,10.27,10.27,0,0,0-2.33-.42c-.77,0-1.1.27-1,.81s.88,1.35,2.42,2.44a14.31,14.31,0,0,1,3.51,3.12,5.69,5.69,0,0,1,1,2.5,4.6,4.6,0,0,1-1.3,4.12,6.15,6.15,0,0,1-4.55,1.63,13.39,13.39,0,0,1-5.43-1.24,1.3,1.3,0,0,1-.72-.52,3.53,3.53,0,0,1-.13-1.07l.08-2a.67.67,0,0,1,.62-.72.79.79,0,0,1,.3.05,23.46,23.46,0,0,0,4.13,1c1.15,0,1.69-.33,1.59-1s-1-1.46-2.65-2.67a16.35,16.35,0,0,1-3.36-2.9,4.46,4.46,0,0,1-1-2.07,4.86,4.86,0,0,1,1.28-4.3,6.07,6.07,0,0,1,4.54-1.67A11.43,11.43,0,0,1,309,159.7,1.68,1.68,0,0,1,309.79,160.27Z"/><path d="M86.05,155a1.89,1.89,0,0,1,1.83,1.92v21.83a1.89,1.89,0,0,1-1.83,1.92H79.17a1.88,1.88,0,0,1-1.84-1.92V156.93A1.89,1.89,0,0,1,79.17,155Z"/><path d="M68.84,163.28a1.77,1.77,0,0,0,1.13.2H76.3a1,1,0,0,0,.7-.39,2,2,0,0,0,.32-1.08V150.65c0-3.59-6.43-5-11.67-5-10.28,0-14.48,5.07-14.74,18.59s10,16.87,20.69,16.85H86.31a2.33,2.33,0,0,0,1.23-.37c.42-.31.4-1.21.4-1.21V172.4a2.57,2.57,0,0,0-.32-1.24,1.55,1.55,0,0,0-1.27-.57l-22.1,1.68s-2-.11-2.6-.74c-1.23-1.22-2.29-7.47-2.34-10.63-.06-3.31.27-3.93,5.12-3.9,5.09,0,4.41,1.18,4.41,2.56C68.84,160.43,68.47,163,68.84,163.28Z" style="fill:#fed600"/><path d="M94.92,154.77a1.88,1.88,0,0,1-1.84,1.92H72.14a1.88,1.88,0,0,1-1.84-1.92v-7.16a1.88,1.88,0,0,1,1.84-1.92H93.08a1.88,1.88,0,0,1,1.84,1.92Z"/></svg>