<svg id="レイヤー_1" data-name="レイヤー 1" xmlns="http://www.w3.org/2000/svg" viewBox="0 0 355.84 361.25"><title>lcnem</title><rect x="17.38" y="17.31" width="323.57" height="323.57" style="fill:#fff"/><rect x="17.38" y="279.4" width="323.57" height="61.48" style="fill:#80a0b0"/><path d="M106.77,319.45h9.58v1.94H104.49V302.05h2.28Z" style="fill:#fff"/><path d="M131.81,307.85c-.66-2.84-2.29-4.25-4.7-4.25-3.28,0-5.7,2.81-5.7,8.13s2.44,8.14,5.7,8.14c2.57,0,4.23-1.29,4.91-4.33l2.18.73c-1.1,3.84-3.57,5.49-7.12,5.49-4.64,0-8.08-3.65-8.08-10s3.46-10.05,8.08-10.05a6.8,6.8,0,0,1,7,5.53Z" style="fill:#fff"/><path d="M152.2,321.39h-2.91l-6.07-11.7c-1.07-2.1-1.75-3.6-2.75-5.65h-.4c0,2.18.11,4.07.11,6.22v11.13h-2.13V302.05h3.55l5.54,10.84c1.12,2.18,1.81,3.86,2.73,5.8h.42c-.08-2.08-.21-4.07-.21-6.35V302.05h2.12Z" style="fill:#fff"/><path d="M169.89,304H160v6.2h7.49v1.91H160v7.41h10.08v1.91H157.71V302.05h12.18Z" style="fill:#fff"/><path d="M192.54,321.39h-2.18V310c0-2.21,0-4,0-6.12H190c-.55,2-1,3.78-1.71,6l-3.65,11.52H181.7l-3.57-11.5c-.66-2.07-1.13-3.85-1.76-6h-.44c0,2.1,0,3.94,0,6.14v11.34h-2V302.05h3.83l3.47,11.39c.57,1.92,1.15,3.91,1.76,5.9h.44c.68-2,1.18-3.8,1.81-5.85l3.52-11.44h3.78Z" style="fill:#fff"/><path d="M200.12,321.39l-1.52,3.55h-1.18l1.36-3.55h-1.52v-2.78h2.86Z" style="fill:#fff"/><path d="M214.61,321.39h-2.29V302.05h2.29Z" style="fill:#fff"/><path d="M234.27,321.39h-2.92l-6.06-11.7c-1.08-2.1-1.76-3.6-2.76-5.65h-.39c0,2.18.11,4.07.11,6.22v11.13h-2.13V302.05h3.54l5.54,10.84c1.13,2.18,1.81,3.86,2.73,5.8h.42c-.08-2.08-.21-4.07-.21-6.35V302.05h2.13Z" style="fill:#fff"/><path d="M251.46,307.85c-.66-2.84-2.29-4.25-4.7-4.25-3.28,0-5.7,2.81-5.7,8.13s2.44,8.14,5.7,8.14c2.57,0,4.23-1.29,4.91-4.33l2.18.73c-1.11,3.84-3.57,5.49-7.12,5.49-4.64,0-8.08-3.65-8.08-10s3.46-10.05,8.08-10.05a6.8,6.8,0,0,1,7,5.53Z" style="fill:#fff"/><path d="M217.53,228.47a77.31,77.31,0,0,1-63.05,0,72.45,72.45,0,0,1-6.69-3.41,77.38,77.38,0,0,1-22.19-19,74.69,74.69,0,0,1-4.41-6.15A77.16,77.16,0,0,1,144.24,93.21a76.18,76.18,0,0,1,15-7.49c1.81,0,3.6.17,5.38.37,1.32.15,2.63.34,3.92.57A62.38,62.38,0,0,1,182.79,91c1,.42,1.91.87,2.85,1.34-1.89,0-3.75.1-5.59.26a65.71,65.71,0,0,0-47.39,103.8,65.9,65.9,0,0,0,13.62,14c1.67,1.27,3.41,2.46,5.2,3.57a65.63,65.63,0,0,0,33.25,9.78h2.56a79.78,79.78,0,0,0,27.28,4.77C215.56,228.52,216.55,228.5,217.53,228.47Z" style="fill:#0c6bb0"/><path d="M263.13,158.06a76.74,76.74,0,0,1-12.3,41.81,62.61,62.61,0,0,1-25.09,10.53,65.72,65.72,0,0,0-1.39-105.7,80.57,80.57,0,0,0-16.92-18.61c-1.06-.84-2.13-1.65-3.22-2.44l-1.16-.83c.86.19,1.71.4,2.56.63a73.26,73.26,0,0,1,7.2,2.27A77.12,77.12,0,0,1,263.13,158.06Z" style="fill:#0c6bb0"/><path d="M234.57,148.54a77,77,0,0,1-31.07,61.87,62,62,0,0,1-14.28-4.36A65.71,65.71,0,0,0,197.17,96.2q-2.5-1.9-5.21-3.58c-.9-.55-1.81-1.09-2.74-1.6h0c-1.06-.59-2.12-1.14-3.21-1.67a65.67,65.67,0,0,0-14.28-5c-1.3-.28-2.6-.53-3.92-.74-.47-.08-.94-.14-1.4-.2a63.91,63.91,0,0,0-7.69-.6h-1.28a65.7,65.7,0,0,0-38.34,119,80.07,80.07,0,0,0,21.3,21.88A77.14,77.14,0,1,1,182.08,75.43c1.33.45,2.63.93,3.93,1.45,1,.39,2,.81,3,1.25q3.43,1.55,6.69,3.4,2.37,1.35,4.62,2.86c1.1.73,2.17,1.49,3.22,2.27a77.48,77.48,0,0,1,14.34,13.92,74.63,74.63,0,0,1,4.42,6.14A76.79,76.79,0,0,1,234.57,148.54Z" style="fill:#2b2f89"/><path d="M291.7,148.54a77.14,77.14,0,0,1-60.08,75.23q-3.65.82-7.39,1.29A77.57,77.57,0,0,1,195,223.15q-2.55-.66-5-1.5c-.72-.25-1.44-.5-2.16-.77s-1.18-.44-1.76-.68a76.93,76.93,0,0,1-14.28-7.52c-1.09-.73-2.16-1.49-3.22-2.27a77.17,77.17,0,0,1-18.76-103.69,62.58,62.58,0,0,1,25.1-10.52,65.72,65.72,0,0,0,7.94,109.85c1.06.59,2.13,1.15,3.22,1.67a65.07,65.07,0,0,0,14.27,5c1.3.29,2.61.53,3.93.74a65.69,65.69,0,0,0,10,.82h.36q3,0,6-.27A65.24,65.24,0,0,0,246.41,206a63.22,63.22,0,0,0,6.51-4.13,65.7,65.7,0,0,0-38.35-119h-1.28a79.35,79.35,0,0,0-16.71-4.08c-2.16-1.21-4.37-2.33-6.65-3.34A77.19,77.19,0,0,1,291.7,148.54Z" style="fill:#32a2d3"/></svg>