<svg id="レイヤー_2" data-name="レイヤー 2" xmlns="http://www.w3.org/2000/svg" xmlns:xlink="http://www.w3.org/1999/xlink" viewBox="0 0 1500 996.57"><defs><style>.cls-1{fill:url(#linear-gradient);}.cls-2{fill:#fff;}</style><linearGradient id="linear-gradient" x1="33.3" y1="-43.94" x2="1510.86" y2="1073.87" gradientUnits="userSpaceOnUse"><stop offset="0.02" stop-color="aqua"/><stop offset="0.03" stop-color="#00f8fa"/><stop offset="0.14" stop-color="#00c1d5"/><stop offset="0.25" stop-color="#0093b6"/><stop offset="0.35" stop-color="#006f9e"/><stop offset="0.45" stop-color="#00558c"/><stop offset="0.53" stop-color="#004582"/><stop offset="0.6" stop-color="#00407e"/><stop offset="0.63" stop-color="#003b77"/><stop offset="0.79" stop-color="#001e4e"/><stop offset="0.92" stop-color="#000d35"/><stop offset="1" stop-color="#00062c"/></linearGradient></defs><title>BCJ_web_PC 4_OL</title><rect class="cls-1" x="0.1" y="-0.06" width="1499.85" height="996.68"/><path class="cls-2" d="M731.49,131.35H718.35a4.41,4.41,0,0,1,.52-2.24,7.87,7.87,0,0,1,1.43-1.88,16.63,16.63,0,0,1,2-1.66l2.19-1.57c.75-.51,1.47-1,2.18-1.57a15.66,15.66,0,0,0,1.89-1.68,7.86,7.86,0,0,0,1.34-1.87,4.67,4.67,0,0,0,.5-2.13,4.58,4.58,0,0,0-.42-2,4.11,4.11,0,0,0-1.13-1.47,5.14,5.14,0,0,0-1.71-.89,7.42,7.42,0,0,0-2.16-.3,6.77,6.77,0,0,0-2.61.46,4.61,4.61,0,0,0-1.78,1.28,5,5,0,0,0-1,2,9.19,9.19,0,0,0-.32,2.48h-.57a7.4,7.4,0,0,1,1.59-5A6,6,0,0,1,725,111.5a8.09,8.09,0,0,1,2.35.33,5.32,5.32,0,0,1,1.89,1,4.79,4.79,0,0,1,1.28,1.63,5.3,5.3,0,0,1,.47,2.3,5.18,5.18,0,0,1-.86,2.92,11.82,11.82,0,0,1-2.16,2.47,27.09,27.09,0,0,1-2.83,2.17c-1,.67-2,1.35-2.85,2a15.59,15.59,0,0,0-2.28,2.1,4,4,0,0,0-1.06,2.33h12.56Z"/><path class="cls-2" d="M751.15,125.24a10.22,10.22,0,0,1-1.22,3.24,6.87,6.87,0,0,1-2.27,2.31,6.56,6.56,0,0,1-3.52.87,6.63,6.63,0,0,1-3.52-.87,7,7,0,0,1-2.28-2.31,10.22,10.22,0,0,1-1.22-3.24,18.63,18.63,0,0,1,0-7.29,10.22,10.22,0,0,1,1.22-3.24,7,7,0,0,1,2.28-2.32,6.55,6.55,0,0,1,3.52-.89,6.47,6.47,0,0,1,3.52.89,6.9,6.9,0,0,1,2.27,2.32,10.22,10.22,0,0,1,1.22,3.24,18.63,18.63,0,0,1,0,7.29Zm-.53-7a10.08,10.08,0,0,0-1.09-3.07,6.51,6.51,0,0,0-2.08-2.25,6.68,6.68,0,0,0-6.63,0,6.51,6.51,0,0,0-2.08,2.25,10.08,10.08,0,0,0-1.09,3.07,18,18,0,0,0,0,6.65,10.08,10.08,0,0,0,1.09,3.07,6.51,6.51,0,0,0,2.08,2.25,6.68,6.68,0,0,0,6.63,0,6.51,6.51,0,0,0,2.08-2.25,10.08,10.08,0,0,0,1.09-3.07,18,18,0,0,0,0-6.65Z"/><path class="cls-2" d="M764,112.59a8.36,8.36,0,0,1-2.31,2.14,10.82,10.82,0,0,1-2.88,1.3v-.57a11.3,11.3,0,0,0,1.58-.63,10.53,10.53,0,0,0,1.29-.78,10.28,10.28,0,0,0,1.16-1c.37-.37.76-.78,1.16-1.24h.63v19.51h-.57V112.59Z"/><path class="cls-2" d="M788.66,122.27A5,5,0,0,1,790,125.9a5.58,5.58,0,0,1-.57,2.61,5.2,5.2,0,0,1-1.53,1.79,6.42,6.42,0,0,1-2.26,1,11.37,11.37,0,0,1-5.44,0,6.51,6.51,0,0,1-2.26-1,5.2,5.2,0,0,1-1.53-1.79,5.58,5.58,0,0,1-.57-2.61,5,5,0,0,1,1.33-3.63,5.62,5.62,0,0,1,3.66-1.62v-.06a4.93,4.93,0,0,1-1.57-.47,5.07,5.07,0,0,1-1.27-.89,3.91,3.91,0,0,1-1.18-2.8,5,5,0,0,1,.47-2.25,4.22,4.22,0,0,1,1.31-1.53,5.44,5.44,0,0,1,1.95-.88,10.62,10.62,0,0,1,4.76,0,5.44,5.44,0,0,1,2,.88,4.22,4.22,0,0,1,1.31,1.53,5,5,0,0,1,.47,2.25,3.91,3.91,0,0,1-1.18,2.8,5.07,5.07,0,0,1-1.27.89,4.93,4.93,0,0,1-1.57.47v.06A5.62,5.62,0,0,1,788.66,122.27Zm.22,1.28a4.32,4.32,0,0,0-1.45-1.52,6,6,0,0,0-2.08-.82,12,12,0,0,0-4.88,0,6.08,6.08,0,0,0-2.08.82,4.21,4.21,0,0,0-1.44,1.52,4.57,4.57,0,0,0-.55,2.35,5.05,5.05,0,0,0,.53,2.39,4.56,4.56,0,0,0,1.43,1.62,6.23,6.23,0,0,0,2.08.92,10.66,10.66,0,0,0,4.94,0,6.23,6.23,0,0,0,2.08-.92,4.56,4.56,0,0,0,1.43-1.62,5.05,5.05,0,0,0,.53-2.39A4.67,4.67,0,0,0,788.88,123.55Zm-.91-9.21a3.63,3.63,0,0,0-1.25-1.33,5,5,0,0,0-1.76-.72,9.66,9.66,0,0,0-4.1,0,5,5,0,0,0-1.76.72,3.63,3.63,0,0,0-1.25,1.33,4.12,4.12,0,0,0-.47,2.09,3.16,3.16,0,0,0,.5,1.8,4,4,0,0,0,1.29,1.23,6.13,6.13,0,0,0,1.78.7,8.51,8.51,0,0,0,3.93,0,6.18,6.18,0,0,0,1.77-.7,4,4,0,0,0,1.29-1.23,3.17,3.17,0,0,0,.51-1.8A4.12,4.12,0,0,0,788,114.34Z"/><path class="cls-2" d="M798,131.35v-2.81h.58v2.81Z"/><path class="cls-2" d="M814.23,112.59a8.36,8.36,0,0,1-2.31,2.14A10.82,10.82,0,0,1,809,116v-.57a10.68,10.68,0,0,0,1.57-.63,9.94,9.94,0,0,0,1.3-.78,10.28,10.28,0,0,0,1.16-1c.37-.37.76-.78,1.16-1.24h.63v19.51h-.57V112.59Z"/><path class="cls-2" d="M840.11,125.24a10,10,0,0,1-1.22,3.24,6.93,6.93,0,0,1-2.26,2.31,7.56,7.56,0,0,1-7,0,6.81,6.81,0,0,1-2.28-2.31,10,10,0,0,1-1.22-3.24,18.63,18.63,0,0,1,0-7.29,10,10,0,0,1,1.22-3.24,6.84,6.84,0,0,1,2.28-2.32,7.41,7.41,0,0,1,7,0,7,7,0,0,1,2.26,2.32,10,10,0,0,1,1.22,3.24,18.63,18.63,0,0,1,0,7.29Zm-.53-7a9.83,9.83,0,0,0-1.09-3.07,6.41,6.41,0,0,0-2.08-2.25,6.67,6.67,0,0,0-6.62,0,6.41,6.41,0,0,0-2.08,2.25,9.83,9.83,0,0,0-1.09,3.07,17.43,17.43,0,0,0,0,6.65,9.83,9.83,0,0,0,1.09,3.07,6.41,6.41,0,0,0,2.08,2.25,6.67,6.67,0,0,0,6.62,0,6.41,6.41,0,0,0,2.08-2.25,9.83,9.83,0,0,0,1.09-3.07,17.43,17.43,0,0,0,0-6.65Z"/><path class="cls-2" d="M848.21,131.35v-2.81h.58v2.81Z"/><path class="cls-2" d="M870.64,131.35H857.51a4.41,4.41,0,0,1,.51-2.24,7.92,7.92,0,0,1,1.44-1.88,15.77,15.77,0,0,1,2-1.66l2.19-1.57c.75-.51,1.48-1,2.18-1.57a16.59,16.59,0,0,0,1.9-1.68,8.11,8.11,0,0,0,1.33-1.87,4.67,4.67,0,0,0,.5-2.13,4.73,4.73,0,0,0-.41-2,4.25,4.25,0,0,0-1.14-1.47,5.09,5.09,0,0,0-1.7-.89,7.44,7.44,0,0,0-2.17-.3,6.84,6.84,0,0,0-2.61.46,4.61,4.61,0,0,0-1.78,1.28,5,5,0,0,0-1,2,9.19,9.19,0,0,0-.32,2.48h-.57a7.4,7.4,0,0,1,1.59-5,6,6,0,0,1,4.69-1.76,8,8,0,0,1,2.35.33,5.46,5.46,0,0,1,1.9,1,4.76,4.76,0,0,1,1.27,1.63,5.51,5.51,0,0,1-.39,5.22,11.82,11.82,0,0,1-2.16,2.47,26.08,26.08,0,0,1-2.83,2.17c-1,.67-2,1.35-2.85,2a15.59,15.59,0,0,0-2.28,2.1,4,4,0,0,0-1.06,2.33h12.56Z"/><path class="cls-2" d="M883.81,112.59a8.65,8.65,0,0,1-2.31,2.14,10.74,10.74,0,0,1-2.89,1.3v-.57a10.82,10.82,0,0,0,1.58-.63,9.21,9.21,0,0,0,1.29-.78,9.47,9.47,0,0,0,1.16-1c.38-.37.76-.78,1.17-1.24h.63v19.51h-.58V112.59Z"/><path class="cls-2" d="M920.76,114a4.87,4.87,0,0,0-1.41-1.75,5.32,5.32,0,0,0-2.08-1,11.14,11.14,0,0,0-2.58-.29,12.44,12.44,0,0,0-2.21.22,6.41,6.41,0,0,0-2.07.76,4.55,4.55,0,0,0-1.54,1.45,4,4,0,0,0-.6,2.28,3.58,3.58,0,0,0,.62,2.21,4.57,4.57,0,0,0,1.6,1.34,9,9,0,0,0,2.25.81l2.58.6,2.71.72a8.59,8.59,0,0,1,2.23.91,4.36,4.36,0,0,1,1.5,1.52,5,5,0,0,1,.56,2.56,4.7,4.7,0,0,1-.63,2.49,5.31,5.31,0,0,1-1.66,1.71,7.22,7.22,0,0,1-2.33,1,11.5,11.5,0,0,1-2.61.31,12.13,12.13,0,0,1-3.22-.41,6.65,6.65,0,0,1-2.55-1.27,5.83,5.83,0,0,1-1.67-2.25,8.18,8.18,0,0,1-.56-3.33h.58a8,8,0,0,0,.54,3.11,5.25,5.25,0,0,0,1.54,2.08,6.1,6.1,0,0,0,2.35,1.16,11.67,11.67,0,0,0,3,.36,10.77,10.77,0,0,0,2.4-.27,6.8,6.8,0,0,0,2.14-.88,4.72,4.72,0,0,0,1.53-1.55,4.2,4.2,0,0,0,.59-2.26,4,4,0,0,0-.68-2.45,4.74,4.74,0,0,0-1.72-1.44,9.46,9.46,0,0,0-2.32-.8c-.85-.18-1.67-.37-2.45-.56s-1.65-.39-2.47-.6a8.79,8.79,0,0,1-2.22-.88,4.46,4.46,0,0,1-1.59-1.49,4.4,4.4,0,0,1-.6-2.42A4.56,4.56,0,0,1,910,111.5a7.16,7.16,0,0,1,2.25-.86,12.37,12.37,0,0,1,2.48-.26,11.14,11.14,0,0,1,2.8.33,6.19,6.19,0,0,1,2.24,1.06,5.22,5.22,0,0,1,1.53,1.92,7.7,7.7,0,0,1,.66,2.91h-.57A6.6,6.6,0,0,0,920.76,114Z"/><path class="cls-2" d="M943.66,110.87v12.85q0,4.13-1.92,6.11a8.9,8.9,0,0,1-11.19,0q-1.92-2-1.92-6.11V110.87h.58v12.85a8.26,8.26,0,0,0,1.69,5.62c1.13,1.28,2.87,1.92,5.25,1.92s4.12-.64,5.24-1.92a8.26,8.26,0,0,0,1.7-5.62V110.87Z"/><path class="cls-2" d="M951.06,110.87l14,19.76h.06V110.87h.58v20.48h-.87l-14-19.76h-.06v19.76h-.57V110.87Z"/><path class="cls-2" d="M991.27,110.38h.57l-9.38,21.43h-.54Z"/><path class="cls-2" d="M1008,131.35V110.87h8.38a7.08,7.08,0,0,1,4.7,1.28,5.08,5.08,0,0,1,1.55,4,4.86,4.86,0,0,1-1.09,3.42,5.77,5.77,0,0,1-3.3,1.85v.06a6.07,6.07,0,0,1,2.1.62,3.28,3.28,0,0,1,1.23,1.16,4.39,4.39,0,0,1,.57,1.69,14.67,14.67,0,0,1,.15,2.21q0,.44,0,1.08c0,.43,0,.85.08,1.27s.09.81.15,1.15a1.91,1.91,0,0,0,.22.72h-.63a3.91,3.91,0,0,1-.23-.85c-.05-.35-.1-.73-.12-1.13s-.05-.81-.06-1.22,0-.78,0-1.11a12.66,12.66,0,0,0-.18-2.25,3.58,3.58,0,0,0-.76-1.66,3.64,3.64,0,0,0-1.64-1,9.09,9.09,0,0,0-2.84-.36h-7.71v9.61Zm8.24-10.19a8.32,8.32,0,0,0,2.19-.28,5.18,5.18,0,0,0,1.85-.92,4.81,4.81,0,0,0,1.29-1.59,5,5,0,0,0,.49-2.31,4.55,4.55,0,0,0-1.32-3.4,6,6,0,0,0-4.22-1.22h-7.94v9.72Z"/><path class="cls-2" d="M1028.69,121.06a7.63,7.63,0,0,1,1.28-2.45,6.51,6.51,0,0,1,2.08-1.7,6.59,6.59,0,0,1,5.71,0,6.62,6.62,0,0,1,2.08,1.7,7.42,7.42,0,0,1,1.27,2.45,10.1,10.1,0,0,1,0,5.83,7.42,7.42,0,0,1-1.27,2.45,6.33,6.33,0,0,1-2.08,1.69,6.25,6.25,0,0,1-2.87.63,6.15,6.15,0,0,1-2.84-.63,6.23,6.23,0,0,1-2.08-1.69,7.63,7.63,0,0,1-1.28-2.45,10.1,10.1,0,0,1,0-5.83Zm.53,5.61a6.84,6.84,0,0,0,1.17,2.28,5.51,5.51,0,0,0,4.53,2.17,5.55,5.55,0,0,0,2.59-.59,5.74,5.74,0,0,0,1.91-1.58,6.82,6.82,0,0,0,1.16-2.28,9.4,9.4,0,0,0,0-5.36,6.82,6.82,0,0,0-1.16-2.28,5.89,5.89,0,0,0-1.91-1.59,5.44,5.44,0,0,0-2.59-.61,5.55,5.55,0,0,0-2.63.61,5.86,5.86,0,0,0-1.9,1.59,6.84,6.84,0,0,0-1.17,2.28,9.64,9.64,0,0,0,0,5.36Z"/><path class="cls-2" d="M1047.36,136.39V116.6h.58v4.13h.06a6.36,6.36,0,0,1,.83-1.79,6.24,6.24,0,0,1,1.29-1.42,5.49,5.49,0,0,1,1.7-.93,6.39,6.39,0,0,1,2.08-.33,5.64,5.64,0,0,1,4.61,2.18,7.3,7.3,0,0,1,1.24,2.44,11,11,0,0,1,0,6,7.8,7.8,0,0,1-1.21,2.47,5.89,5.89,0,0,1-2,1.68,5.75,5.75,0,0,1-2.7.61,6,6,0,0,1-3.87-1.22,5.88,5.88,0,0,1-2-3.22h-.06v9.17Zm9.14-5.92a5.48,5.48,0,0,0,1.76-1.66,7.37,7.37,0,0,0,1-2.3,10.16,10.16,0,0,0,.33-2.56,9.91,9.91,0,0,0-.36-2.71,7.3,7.3,0,0,0-1.06-2.27,5,5,0,0,0-1.78-1.56,5.26,5.26,0,0,0-2.51-.58,5.47,5.47,0,0,0-4.4,2.13,7,7,0,0,0-1.16,2.26,9.06,9.06,0,0,0-.4,2.73,7.8,7.8,0,0,0,1.63,5.32,5.52,5.52,0,0,0,4.33,1.85A5,5,0,0,0,1056.5,130.47Z"/><path class="cls-2" d="M1066.21,136.39V116.6h.57v4.13h.06a6.65,6.65,0,0,1,.83-1.79,6.24,6.24,0,0,1,1.29-1.42,5.65,5.65,0,0,1,1.71-.93,6.34,6.34,0,0,1,2.08-.33,5.64,5.64,0,0,1,4.6,2.18,7.5,7.5,0,0,1,1.25,2.44A10.69,10.69,0,0,1,1079,124a10.26,10.26,0,0,1-.42,3,8,8,0,0,1-1.2,2.47,5.92,5.92,0,0,1-2,1.68,5.7,5.7,0,0,1-2.69.61,6,6,0,0,1-3.88-1.22,5.88,5.88,0,0,1-2-3.22h-.06v9.17Zm9.13-5.92a5.38,5.38,0,0,0,1.76-1.66,7.37,7.37,0,0,0,1-2.3,10.16,10.16,0,0,0,.33-2.56,9.91,9.91,0,0,0-.36-2.71A7.3,7.3,0,0,0,1077,119a5,5,0,0,0-1.78-1.56,5.24,5.24,0,0,0-2.5-.58,5.51,5.51,0,0,0-2.53.58,5.65,5.65,0,0,0-1.88,1.55,7.21,7.21,0,0,0-1.16,2.26,9.06,9.06,0,0,0-.4,2.73,7.8,7.8,0,0,0,1.63,5.32,5.52,5.52,0,0,0,4.34,1.85A5,5,0,0,0,1075.34,130.47Z"/><path class="cls-2" d="M1084.7,121.06a7.63,7.63,0,0,1,1.28-2.45,6.51,6.51,0,0,1,2.08-1.7,6.59,6.59,0,0,1,5.71,0,6.62,6.62,0,0,1,2.08,1.7,7.42,7.42,0,0,1,1.27,2.45,10.1,10.1,0,0,1,0,5.83,7.42,7.42,0,0,1-1.27,2.45,6.33,6.33,0,0,1-2.08,1.69,6.25,6.25,0,0,1-2.87.63,6.15,6.15,0,0,1-2.84-.63,6.23,6.23,0,0,1-2.08-1.69,7.63,7.63,0,0,1-1.28-2.45,10.1,10.1,0,0,1,0-5.83Zm.53,5.61a6.84,6.84,0,0,0,1.17,2.28,5.51,5.51,0,0,0,4.53,2.17,5.55,5.55,0,0,0,2.59-.59,5.74,5.74,0,0,0,1.91-1.58,6.82,6.82,0,0,0,1.16-2.28,9.4,9.4,0,0,0,0-5.36,6.82,6.82,0,0,0-1.16-2.28,5.89,5.89,0,0,0-1.91-1.59,5.44,5.44,0,0,0-2.59-.61,5.55,5.55,0,0,0-2.63.61,5.86,5.86,0,0,0-1.9,1.59,6.84,6.84,0,0,0-1.17,2.28,9.64,9.64,0,0,0,0,5.36Z"/><path class="cls-2" d="M1104,116.6v3.65h.06a5,5,0,0,1,1.76-2.84,4.9,4.9,0,0,1,1.56-.85,6.14,6.14,0,0,1,2-.3,6.44,6.44,0,0,1,2.11.34,4.5,4.5,0,0,1,2.75,2.69,6.19,6.19,0,0,1,.39,2.28v9.78H1114v-9.7a5.69,5.69,0,0,0-.38-2.19,4.11,4.11,0,0,0-1-1.49,4,4,0,0,0-1.49-.86,5.83,5.83,0,0,0-1.79-.28,5,5,0,0,0-2.32.51,4.92,4.92,0,0,0-1.68,1.34,6,6,0,0,0-1,2A7.9,7.9,0,0,0,1104,123v8.35h-.58V116.6Z"/><path class="cls-2" d="M1132.31,126.41a4.53,4.53,0,0,1-.81,1.75,6.11,6.11,0,0,1-1.38,1.31,6.28,6.28,0,0,1-1.72.8,6.73,6.73,0,0,1-1.88.27,6,6,0,0,1-2.7-.57,5.49,5.49,0,0,1-1.9-1.53,6.8,6.8,0,0,1-1.15-2.26,9.21,9.21,0,0,1-.39-2.69,9.72,9.72,0,0,1,.4-2.8,6.7,6.7,0,0,1,1.21-2.29,5.81,5.81,0,0,1,2-1.57,6.27,6.27,0,0,1,2.74-.57,5.79,5.79,0,0,1,2,.33,6,6,0,0,1,1.65.9,5.62,5.62,0,0,1,1.23,1.35,5.42,5.42,0,0,1,.73,1.69h.06V116.6h.57v14.26a5.66,5.66,0,0,1-1.6,4.46,6.65,6.65,0,0,1-4.53,1.42,8.63,8.63,0,0,1-2.13-.26,5,5,0,0,1-1.77-.82,4.09,4.09,0,0,1-1.24-1.43,4.9,4.9,0,0,1-.49-2.14h.58a4.26,4.26,0,0,0,.44,1.87,3.75,3.75,0,0,0,1.11,1.26,4.8,4.8,0,0,0,1.59.71,7.28,7.28,0,0,0,1.88.23,6.07,6.07,0,0,0,4.14-1.27,5.1,5.1,0,0,0,1.45-4v-4.45ZM1132,121a6.8,6.8,0,0,0-1.06-2.14,5.4,5.4,0,0,0-1.76-1.49,5.2,5.2,0,0,0-2.44-.56,5.66,5.66,0,0,0-2.51.53,5.35,5.35,0,0,0-1.81,1.45,6.41,6.41,0,0,0-1.09,2.13,8.83,8.83,0,0,0-.35,2.55,8.64,8.64,0,0,0,.35,2.55,6.07,6.07,0,0,0,1.07,2,5,5,0,0,0,1.73,1.38,5.44,5.44,0,0,0,2.38.5,5.7,5.7,0,0,0,2.52-.52,5.18,5.18,0,0,0,1.83-1.39A6.1,6.1,0,0,0,1132,126a8,8,0,0,0,.39-2.51A8.58,8.58,0,0,0,1132,121Z"/><path class="cls-2" d="M1139.48,113.77v-2.9h.58v2.9Zm0,17.58V116.6h.58v14.75Z"/><path class="cls-2" d="M1149.35,131.35a6.71,6.71,0,0,1-.27,2.09,2.58,2.58,0,0,1-1,1.29v-.57a2.25,2.25,0,0,0,.53-1,8.33,8.33,0,0,0,.15-1.79v-2.81h.58Z"/><path class="cls-2" d="M1167.44,110.87h15.29v.57h-7.37v19.91h-.57V111.44h-7.35Z"/><path class="cls-2" d="M1186.92,121.06a7.44,7.44,0,0,1,1.28-2.45,6.47,6.47,0,0,1,2.07-1.7,6.13,6.13,0,0,1,2.87-.65,6,6,0,0,1,2.84.65,6.51,6.51,0,0,1,2.08,1.7,7.44,7.44,0,0,1,1.28,2.45,10.1,10.1,0,0,1,0,5.83,7.44,7.44,0,0,1-1.28,2.45,6.3,6.3,0,0,1-9.86,0,7.44,7.44,0,0,1-1.28-2.45,10.1,10.1,0,0,1,0-5.83Zm.53,5.61a6.82,6.82,0,0,0,1.16,2.28,5.74,5.74,0,0,0,1.91,1.58,6.07,6.07,0,0,0,5.22,0,5.71,5.71,0,0,0,1.9-1.58,6.84,6.84,0,0,0,1.17-2.28,9.64,9.64,0,0,0,0-5.36,6.84,6.84,0,0,0-1.17-2.28,5.86,5.86,0,0,0-1.9-1.59,5.89,5.89,0,0,0-5.22,0,5.89,5.89,0,0,0-1.91,1.59,6.82,6.82,0,0,0-1.16,2.28,9.4,9.4,0,0,0,0,5.36Z"/><path class="cls-2" d="M1206.16,131.35h-.57V110.87h.57v14.2l10.18-8.47h.84l-6.77,5.63,7.25,9.12h-.77l-6.91-8.72-3.82,3.15Z"/><path class="cls-2" d="M1232.2,116.6l-6.79,17.73a3.52,3.52,0,0,1-.69,1.16,2.76,2.76,0,0,1-.89.62,3.71,3.71,0,0,1-1.08.24c-.39,0-.8,0-1.24,0v-.57c.49,0,.92,0,1.27,0a2.7,2.7,0,0,0,.92-.23,2,2,0,0,0,.69-.58,4,4,0,0,0,.56-1l1.06-2.73-6.14-14.6h.6l5.85,14,5.28-14Z"/><path class="cls-2" d="M1236.53,121.06a7.63,7.63,0,0,1,1.28-2.45,6.51,6.51,0,0,1,2.08-1.7,6.59,6.59,0,0,1,5.71,0,6.62,6.62,0,0,1,2.08,1.7,7.42,7.42,0,0,1,1.27,2.45,10.1,10.1,0,0,1,0,5.83,7.42,7.42,0,0,1-1.27,2.45,6.33,6.33,0,0,1-2.08,1.69,6.25,6.25,0,0,1-2.87.63,6.15,6.15,0,0,1-2.84-.63,6.23,6.23,0,0,1-2.08-1.69,7.63,7.63,0,0,1-1.28-2.45,10.1,10.1,0,0,1,0-5.83Zm.53,5.61a6.84,6.84,0,0,0,1.17,2.28,5.51,5.51,0,0,0,4.53,2.17,5.55,5.55,0,0,0,2.59-.59,5.74,5.74,0,0,0,1.91-1.58,6.82,6.82,0,0,0,1.16-2.28,9.4,9.4,0,0,0,0-5.36,6.82,6.82,0,0,0-1.16-2.28,5.89,5.89,0,0,0-1.91-1.59,5.44,5.44,0,0,0-2.59-.61,5.55,5.55,0,0,0-2.63.61,5.86,5.86,0,0,0-1.9,1.59,6.84,6.84,0,0,0-1.17,2.28,9.64,9.64,0,0,0,0,5.36Z"/><path class="cls-2" d="M262.85,121.05h8.37v1h-8.37v.52c0,7-4.91,9.47-9.55,10.73l-.53-1c7.74-1.8,9-6.1,9-9.7v-.52H251.29v-1h10.44V115.9a58.52,58.52,0,0,1-9.06.91l-.18-1a48.59,48.59,0,0,0,16-2.72l.68,1a63,63,0,0,1-6.29,1.64Z"/><path class="cls-2" d="M300.62,117.56v1.06h-6.08c-.77,8.84-4,13.31-11.44,14.64l-.51-1c8-1.15,10.2-6.74,10.74-13.59h-7.79A12.17,12.17,0,0,1,281,124.3l-.87-.8c1.19-.72,4.58-2.78,5.94-10.62l1.19.17a27.26,27.26,0,0,1-1.31,4.51Z"/><path class="cls-2" d="M314.77,125.26a21.58,21.58,0,0,0-1.94-5.66l1-.33a24.77,24.77,0,0,1,2,5.66Zm.12,7.3c4.4-.87,10.95-3.25,12.26-13.78l1.1.16c-1.55,9.87-6.46,13-13,14.53Zm5.19-8.31a27.71,27.71,0,0,0-1.52-5.66l1-.21a26.93,26.93,0,0,1,1.59,5.62Z"/><path class="cls-2" d="M347.17,112.88v6.58a60.69,60.69,0,0,1,12.12,5.35l-.56,1.1a59,59,0,0,0-11.56-5.38v13H346V112.88Z"/><path class="cls-2" d="M373.32,121.89v6.71c0,2.18,1.24,4.05,6,4.05h10.52l-.32.91H380c-5.12,0-6.48-1.35-7.37-3.39a20.44,20.44,0,0,1-3.69,3.91l-.61-.84a17.29,17.29,0,0,0,4-4.14v-6.27H368.5v-.94Zm.63-4.51a29.87,29.87,0,0,0-4.49-3.72l.68-.75a35.52,35.52,0,0,1,4.56,3.79Zm4.19,2h11.6v.91H385v10.74h-1V120.32h-5.92v.92c0,5.28-1.05,7.41-2.27,9l-.91-.8c1.94-2.24,2.2-5.14,2.2-8.32v-6.76a35.85,35.85,0,0,0,11.11-1.88l.32.92a40.17,40.17,0,0,1-10.45,1.82Z"/><path class="cls-2" d="M416.87,113.91V133.8h-1.05v-1.13H401.36v1.13h-1V113.91Zm-15.51,8.78h14.46v-7.84H401.36Zm0,9h14.46v-8.1H401.36Z"/><path class="cls-2" d="M448.19,115.18a23.6,23.6,0,0,1-3.93,3.81,23.3,23.3,0,0,0,4.54,2.62l-.49,1.08a25.82,25.82,0,0,1-10.13-8.4,22.26,22.26,0,0,1-10.34,8.23l-.49-.93a22.06,22.06,0,0,0,5.29-2.86,22,22,0,0,0-3.7-2.73l.7-.61a15.93,15.93,0,0,1,3.72,2.76,15.46,15.46,0,0,0,3.82-4.12H430v-.84h8.54a14.87,14.87,0,0,0,2.22,2.76,20.23,20.23,0,0,0,3.35-3.16l.95.47a26.83,26.83,0,0,1-3.6,3.39,21.1,21.1,0,0,0,2,1.73,18.66,18.66,0,0,0,3.81-3.69Zm-6.85,6.9v3.55h6.78v.89h-6.83V132c0,.63.1.65.77.65h3.79c1.29,0,1.52,0,1.73-3.34l1.13.47c-.28,3.41-.8,3.79-2.62,3.79H441.6c-1.29,0-1.29-.59-1.29-1.59v-5.41h-4.54c-.42,3.77-2.5,6-7.81,7.42l-.47-1c5.31-1.26,6.71-3.25,7.28-6.46h-6.69v-.89h6.69v-3.55h-3.4v-.84H444.8v.84Zm-1,0h-4.54v3.55h4.54Z"/><path class="cls-2" d="M467,114.83v-2.16h1v2.16h10.06v.89H468.07v2.83h8.78v.88H458.27v-.88H467v-2.83H457v-.89Zm-10,18.17c6.38-.91,6.85-4.77,6.87-9H465c0,6.22-2,8.82-7.32,10.06Zm20.51-11.09v3.75h-1V122.8h-18v2.86h-1v-3.75ZM471,133.75c-1.12,0-1.59-.21-1.59-1.54V124h1.05v8c0,.75,0,.84.82.84h3.53c1.81,0,2,0,2.25-3.37l1,.35a9.77,9.77,0,0,1-.8,3.23c-.42.63-1,.68-2.85.68Z"/><path class="cls-2" d="M398.24,507.25H384v45.88h-2V505.26h16.25Z"/><path class="cls-2" d="M461.49,527.79v2.4H415.1v-2.4Z"/><path class="cls-2" d="M525.91,550l-.61,2h-14c-11.75,0-17.37-2.19-22.78-10.88a25.91,25.91,0,0,1-8.94,12.06l-1.33-1.89c2.71-2,9.2-7.2,10.88-22.12l2.25.15a52.57,52.57,0,0,1-1.89,9c2.55,5.67,6.69,9.76,12.06,10.68V523.75H483.26V508.07h38.47v15.68H503.79V534h20.28V536H503.79v13.39a57,57,0,0,0,7.46.61Zm-6.43-40H485.56v11.91h33.92Z"/><path class="cls-2" d="M554.89,515.63a39.74,39.74,0,0,1-5.83,9.25l-2-1.13a40,40,0,0,0,8.79-16.6l2,.46a40.18,40.18,0,0,1-2.15,6.08h10.37v-7.36h2.25v7.36h19.06v1.94H568.32v11.6h21.81v1.94H573.58v19.05c0,1.49,0,1.64,1.74,1.64h9.09c1.18,0,1.64,0,2.1-1,.76-1.79,1.12-6.23,1.22-7.26l2.25.77c-1,9.5-2.71,9.5-5.36,9.5h-8.33c-3.32,0-4.95,0-4.95-3.57V529.17h-9.25c-.82,10.37-2.71,19.41-17.06,23.6l-.92-2.3c13.89-3.22,15.27-12.87,15.63-21.3H544v-1.94h22.12v-11.6Z"/><path class="cls-2" d="M630.65,548.79a32.85,32.85,0,0,0,12.77-3.32c5.21-2.81,8.64-8.94,8.64-15.69,0-6.33-3.68-19-19.52-18.49-.82,10.52-2.3,22.17-7.35,29.83-1,1.49-3.89,5.62-8.28,5.62-6.64,0-8.58-9-8.58-14,0-12.27,8.17-23.61,24.52-23.61,21,0,21.81,18,21.81,20.8A19.8,19.8,0,0,1,644,547.71,37.2,37.2,0,0,1,631.42,551Zm-19.87-16.3c0,3.63,1.28,11.9,6.23,11.9,1.13,0,3.17-.15,6.13-4.54,5.26-7.82,6.49-21.31,7-28.51C619.46,512.16,610.78,519.51,610.78,532.49Z"/><path class="cls-2" d="M694.62,514.61v-8.12H697v8.12h18.59v2H697v9.3h22v2H697.68c3.27,6.29,11,13.74,21.66,18.65L718,548.48A52.53,52.53,0,0,1,697,530v22.63h-2.35V529.78c-2.76,5.26-10.68,14.26-21,18.7L672,546.59c10.32-4,18.54-12.36,21.81-18.7H672.55v-2h22.07v-9.3h-18.8v-2Z"/><path class="cls-2" d="M759,512.31v-5.93h2.25v5.93h20.38v2H761.29v14.77h22.12V531H762.62c4.6,6.08,12.06,13.33,21.66,17l-1.53,2.2c-11.14-5.37-18.7-13.75-21.46-18.29v20.94H759V532c-5.51,8.48-15.83,15.84-21.1,18.08l-1.43-1.83c9.91-4.5,18.7-13.44,21.2-17.27H736.92v-1.94H759V514.3H739.17v-2Zm-10.93,14.76a54.13,54.13,0,0,0-4-9.85l2.09-.92a61.24,61.24,0,0,1,3.88,9.86Zm22.07-.66a35.81,35.81,0,0,0,4-10l2.14.56A39.84,39.84,0,0,1,772,527.23Z"/><path class="cls-2" d="M820,506.44a52.73,52.73,0,0,1-1.58,6.54h23.81v2.24H817.7c-2.46,7-3.12,8-4.45,10.12,3.07-2.2,6-4.34,10.52-4.34,6.44,0,7.26,5.77,7.46,7.25,2.3-1,12.47-5,14.56-5.87l1,2.4c-10,3.52-15,5.62-15.32,5.77.1,1.07.15,2.86.15,4.55a61.24,61.24,0,0,1-.3,6.28h-2.41a78.44,78.44,0,0,0,.26-9.86c-3.12,1.38-13.28,5.93-13.28,12.16a4.8,4.8,0,0,0,3,4.19c1.59.66,3.37,1.17,10.07,1.17a117.59,117.59,0,0,0,14.76-.87l.31,2.4a123.74,123.74,0,0,1-13.69.77c-6,0-16.61-.31-16.61-7.56s8.43-11.24,15.28-14.51c-.26-3.11-1.28-6.23-5.78-6.23-6.59,0-11.75,6.23-12.51,7.3-4.34,6.13-4.86,6.8-6.9,8.54l-1.79-1.64c2.25-1.94,6.34-5.62,10.63-15.27a64.52,64.52,0,0,0,2.55-6.75h-12V513h12.67a38.77,38.77,0,0,0,1.38-6.75Z"/><path class="cls-2" d="M872.87,515.63a38.64,38.64,0,0,1-5.51,8.38l-1.64-1.43a43.63,43.63,0,0,0,8.64-16.35l2.14.67a39.66,39.66,0,0,1-2.65,6.79h15.78v1.94H881v12.62h9.6v2h-9.71a34.92,34.92,0,0,1-.4,3.88A33.75,33.75,0,0,0,891,547.46l-1.53,1.74c-4.19-3.12-7.92-8.49-9.71-12.16-1.79,6.74-5.36,12.16-12.72,15.88l-1.43-1.83c3-1.43,11.85-5.68,13.08-20.85h-13v-2H878.8V515.63Zm37.86-6.49v43.68h-2.2V549.4H894.59v3.42h-2.25V509.14Zm-2.2,2H894.59v36.32h13.94Z"/><path class="cls-2" d="M964.17,508.12l0,2.2a91.73,91.73,0,0,0-7.46,6.49c-3,2.86-5.82,5.26-9.45,8.43a28.48,28.48,0,0,1,12.06-2.71c13,0,14.1,9.91,14.1,13.43,0,6.44-3.63,15.69-19.62,15.69-2.61,0-14.25,0-14.25-8.74,0-4.95,4.9-7.61,9.29-7.61a10.45,10.45,0,0,1,10.78,10.11,6.42,6.42,0,0,1-1.22,3.84C970.81,547.1,970.81,538,970.81,536c0-6.74-3.88-11.34-12.31-11.34a25.74,25.74,0,0,0-15.22,5.06c-1.89,1.43-6.44,6.28-10.17,10.27l-1.84-2c1.18-1.08,2.56-2.4,14.71-14.41,2.2-2.15,12.42-11.29,14.36-13.28l-24.93.25v-2.4Zm-7.2,37a7.77,7.77,0,0,0-8.12-7.56c-3.73,0-6.9,2.25-6.9,5.67,0,6.28,9.45,6.28,11.7,6.28a18.74,18.74,0,0,0,1.89-.1A7.13,7.13,0,0,0,957,545.11Z"/><path class="cls-2" d="M1014.29,508.73V549h-2.81V511.24h-7.35v-2.51Z"/><path class="cls-2" d="M1087.76,509.09v43.43h-2.3v-2.46h-31.57v2.46h-2.2V509.09Zm-33.87,19.16h31.57V511.14h-31.57Zm0,19.72h31.57V530.29h-31.57Z"/><path class="cls-2" d="M1109.78,551.9H1124V506h2V553.9h-16.25Z"/><path class="cls-2" d="M524,443.42c-.83,10.68-4.94,21.14-21.68,23.48l-.61-1.64c11.2-1.19,19.34-6.83,20.53-20.4H498.6v-1.44Zm-2.79-1.06a21.84,21.84,0,0,0-2.76-3.95l1.29-.7a14.46,14.46,0,0,1,2.79,3.88Zm4.36.29a18.23,18.23,0,0,0-2.85-4.24l1.31-.73a14.75,14.75,0,0,1,2.89,4.2Z"/><path class="cls-2" d="M564.44,442.07v22.65H539.55V442.07Zm-1.51,1.41H541v19.79h21.9Z"/><path class="cls-2" d="M585,456.09a30.68,30.68,0,0,0-2.66-7.76l1.34-.45a33.79,33.79,0,0,1,2.76,7.76Zm.16,10c6-1.18,15-4.45,16.81-18.89l1.5.23c-2.11,13.53-8.85,17.83-17.77,19.92Zm7.12-11.38a38.19,38.19,0,0,0-2.09-7.76l1.38-.29a35.73,35.73,0,0,1,2.18,7.7Z"/><path class="cls-2" d="M644.93,443.84a31,31,0,0,1-7.57,15.52c-4,4.39-8.76,6.32-14.79,7.76l-.7-1.47c4.81-1,10.16-2.67,14.53-7.54a28.12,28.12,0,0,0,6.54-12.86h-13.7a29.91,29.91,0,0,1-8,8l-1-1.22A27.64,27.64,0,0,0,630.81,439l1.83.26a24.76,24.76,0,0,1-2.43,4.62Z"/><path class="cls-2" d="M675.39,450.31h11.48v1.45H675.39v.7c0,9.59-6.74,13-13.09,14.73l-.74-1.42c10.62-2.47,12.29-8.37,12.29-13.31v-.7H659.54v-1.45h14.31v-7.05a82.12,82.12,0,0,1-12.41,1.25l-.26-1.41a66.8,66.8,0,0,0,21.91-3.72l.93,1.38a86.59,86.59,0,0,1-8.63,2.24Z"/><path class="cls-2" d="M723.39,447.81v1.25h-9.07v15h10.61v1.25H702.58V464h10.29v-15h-8.75v-1.25Z"/><path class="cls-2" d="M768.26,452.59v1.61H739.77v-1.61Z"/><path class="cls-2" d="M792,447.88a42.91,42.91,0,0,0-10.2-4.69l.9-1.38a44.48,44.48,0,0,1,10.17,4.59Zm-9.75,16.61c17.19-1.15,23.1-14.5,24.8-20.14l1.44.54c-6.54,18.61-19.6,20.56-25.79,21.17Z"/><path class="cls-2" d="M834.34,465.45a20.46,20.46,0,0,0,8-2.08,11.14,11.14,0,0,0,5.42-9.85c0-4-2.31-12-12.25-11.61-.52,6.61-1.45,13.92-4.62,18.73-.61.93-2.44,3.53-5.2,3.53-4.17,0-5.39-5.68-5.39-8.79,0-7.7,5.14-14.82,15.4-14.82,13.21,0,13.7,11.33,13.7,13.06a12.43,12.43,0,0,1-6.71,11.16,23.51,23.51,0,0,1-7.89,2.05Zm-12.48-10.23c0,2.28.81,7.47,3.92,7.47.7,0,2-.09,3.85-2.85,3.3-4.91,4.07-13.37,4.36-17.9C827.32,442.46,821.86,447.07,821.86,455.22Z"/><path class="cls-2" d="M867.91,452.33a9.07,9.07,0,0,0-3.17,6.48,5.47,5.47,0,0,0,2,4.21c1.82,1.41,3.78,1.82,8.43,1.82,6.16,0,9.59-.22,12.61-.41l0,1.6c-1.32.06-5.07.26-11.58.26-5.77,0-8-.42-9.94-1.73a6.93,6.93,0,0,1-3-5.68c0-3.15,1.76-5.55,3.4-7.48Zm17.64-9.07c-4.36.51-9.59,3.33-10.9,4l-1-1.19a36.76,36.76,0,0,1,7.08-2.95c-1,0-1.7,0-7.21.07-.32,0-5.94.16-8.37.19v-1.61c3.43,0,18.21.07,20.36,0Z"/><path class="cls-2" d="M909.82,439.44a21.12,21.12,0,0,0-.16,2.7c0,2.66-.06,3.33-.06,6.41,4-4.52,8-7.09,11.48-7.09,4.46,0,4.46,4,4.46,5,0,1.09-.19,4.08-.42,7s-.41,5.84-.41,6.83c0,2.47.25,4.17,5.74,4.07l-.32,1.38c-6.32.26-7-2.34-7-5.8,0-1.09.22-3.95.45-6.8s.41-5.65.41-6.61c0-1.44,0-3.75-3.08-3.75-3.56,0-8.18,3.56-11.38,7.57,0,2.34-.13,12.6-.16,14.69,0,.8,0,1.34,0,2h-1.57c.09-1.86.09-4.85.09-6.8q.06-3.18.1-7.51a31.27,31.27,0,0,1-5.52,8.44L901.29,460c3.15-2.69,5.33-6.6,6.83-10.71,0-.35,0-2.44,0-3l-6.13.19v-1.48h6.16c0-3.3,0-3.65,0-5.61Z"/><path class="cls-2" d="M951.19,439.44c-.45,3.18-.74,4.62-1,6.13h4c3.4,0,7.28,0,7.28,7.47,0,.32,0,6.86-1.73,10.65-1.26,2.73-3.21,3.11-5.2,3.11a36.47,36.47,0,0,1-5.52-.54l.07-1.54a40.81,40.81,0,0,0,5.45.57c2.28,0,3.34-.64,4.2-3.24a31.94,31.94,0,0,0,1.12-8.75c0-6.48-2.14-6.51-7.89-6.42l-2.08,0a85,85,0,0,1-6.13,20l-1.41-.61a82.73,82.73,0,0,0,6-19.38l-5.84.07v-1.41h6.09c0-.13.42-2.41.87-6.22Zm17.45,16.84c-.77-7.86-3.18-10.87-5.17-12.93l1.16-.83c1.35,1.32,4.78,4.59,5.64,13.41Z"/><path class="cls-2" d="M988.67,443.93c-.93,2.41-1.21,3.34-1.18,10.94,3.62-3.75,9.62-5,13.24-5,5.26,0,8.5,2.92,8.5,7.31,0,9.46-11.48,9.46-15.71,9.46a55.82,55.82,0,0,1-6.64-.38l-.19-1.38a68.92,68.92,0,0,0,7.12.41c4.94,0,13.82-.41,13.82-8.17,0-5.39-5.55-5.87-7.06-5.87-5.58,0-11.19,2.43-12.89,5.39,0,.22,0,.28-.06.51H986c0-1-.06-2.7-.06-4.49,0-6.13.58-7.51,1.31-9.27Zm14.85-1c-3-1.16-5.93-1.86-12.47-2.25l.32-1.47c2.92.16,8.43.57,12.76,2.15Z"/><path class="cls-2" d="M275.6,175.82a22.35,22.35,0,0,1,6.45.9,15.12,15.12,0,0,1,5.26,2.76,12.92,12.92,0,0,1,3.53,4.56,14.9,14.9,0,0,1,1.27,6.41,13.69,13.69,0,0,1-3.53,9.2,12.82,12.82,0,0,1-8.87,4.19V204a16.2,16.2,0,0,1,5.46,1.11,14,14,0,0,1,4.52,2.88,13.62,13.62,0,0,1,3.08,4.52,15.06,15.06,0,0,1,1.15,6,15.85,15.85,0,0,1-1.44,6.94,13.69,13.69,0,0,1-4,5,17.86,17.86,0,0,1-6.12,3,27.87,27.87,0,0,1-7.77,1H250.37V175.82Zm0,27.28a20,20,0,0,0,5.63-.78,14.09,14.09,0,0,0,4.72-2.38,12,12,0,0,0,3.29-4,11.82,11.82,0,0,0,1.23-5.5,13.4,13.4,0,0,0-1.15-5.8,11.29,11.29,0,0,0-3.16-4,13.7,13.7,0,0,0-4.73-2.39,21,21,0,0,0-5.83-.78H252V203.1Zm-.25,29.74a24.63,24.63,0,0,0,6.7-.86,15.17,15.17,0,0,0,5.34-2.63,12.64,12.64,0,0,0,3.57-4.44,14,14,0,0,0,1.32-6.28,13.34,13.34,0,0,0-1.44-6.49,12.39,12.39,0,0,0-3.78-4.27,15.82,15.82,0,0,0-5.34-2.39,25.63,25.63,0,0,0-6.12-.74H252v28.1Z"/><path class="cls-2" d="M319.31,175.82v58.67h-1.64V175.82Z"/><path class="cls-2" d="M343.79,205a21.15,21.15,0,0,1,3.66-7,18.41,18.41,0,0,1,6-4.89,19,19,0,0,1,16.35,0,18.52,18.52,0,0,1,6,4.89,21.13,21.13,0,0,1,3.65,7,28.89,28.89,0,0,1,0,16.68,21.27,21.27,0,0,1-3.65,7,18.12,18.12,0,0,1-6,4.84,17.78,17.78,0,0,1-8.22,1.81,17.51,17.51,0,0,1-8.13-1.81,18,18,0,0,1-6-4.84,21.29,21.29,0,0,1-3.66-7,28.89,28.89,0,0,1,0-16.68Zm1.52,16.06a19.63,19.63,0,0,0,3.33,6.54,16.41,16.41,0,0,0,5.47,4.51,17.38,17.38,0,0,0,14.95,0,16.47,16.47,0,0,0,5.46-4.51,19.63,19.63,0,0,0,3.33-6.54,26.69,26.69,0,0,0,1.11-7.72,26.39,26.39,0,0,0-1.11-7.64,19.58,19.58,0,0,0-3.33-6.53,17,17,0,0,0-5.46-4.56,17,17,0,0,0-14.95,0,16.92,16.92,0,0,0-5.47,4.56,19.58,19.58,0,0,0-3.33,6.53,26.39,26.39,0,0,0-1.11,7.64A26.69,26.69,0,0,0,345.31,221.09Z"/><path class="cls-2" d="M436.15,226.48a15.09,15.09,0,0,1-3.66,4.8,16.05,16.05,0,0,1-5.26,3,19.62,19.62,0,0,1-6.61,1.07,18.24,18.24,0,0,1-8-1.68,17.45,17.45,0,0,1-5.88-4.56,19.94,19.94,0,0,1-3.61-6.7,26.54,26.54,0,0,1-1.24-8.18,31.4,31.4,0,0,1,1.2-8.75,21.65,21.65,0,0,1,3.61-7.31,17.72,17.72,0,0,1,6.16-5.05,19.18,19.18,0,0,1,8.75-1.89,17.81,17.81,0,0,1,5.67.9,15.28,15.28,0,0,1,4.85,2.63,14.55,14.55,0,0,1,3.58,4.31,16.34,16.34,0,0,1,1.84,6H435.9a15.37,15.37,0,0,0-1.81-5.38,13.28,13.28,0,0,0-3.2-3.78,12.88,12.88,0,0,0-4.27-2.26,16.94,16.94,0,0,0-5-.74,17.42,17.42,0,0,0-8.5,1.93,16,16,0,0,0-5.59,5,21.44,21.44,0,0,0-3,6.91,31.15,31.15,0,0,0-.94,7.51,24.56,24.56,0,0,0,1.11,7.4,19.38,19.38,0,0,0,3.24,6.24,15.67,15.67,0,0,0,5.34,4.32,16.31,16.31,0,0,0,7.4,1.6,17.6,17.6,0,0,0,5.83-1,14.53,14.53,0,0,0,8.22-7.06,14.62,14.62,0,0,0,1.56-5.71h1.64A18.15,18.15,0,0,1,436.15,226.48Z"/><path class="cls-2" d="M463,234.49h-1.65V175.82H463v40.67l29.16-24.24h2.39l-19.39,16.11L496,234.49h-2.21l-19.81-25-10.92,9Z"/><path class="cls-2" d="M561.37,221.3a25.69,25.69,0,0,1-5.3,7.68,23.26,23.26,0,0,1-7.69,5,26.24,26.24,0,0,1-10,1.81,25.18,25.18,0,0,1-10.72-2.26,24.8,24.8,0,0,1-8.38-6.24,29.22,29.22,0,0,1-5.47-9.53,36.08,36.08,0,0,1-2-12.12,41.25,41.25,0,0,1,1.52-10.89,30.83,30.83,0,0,1,4.81-10.07,25.59,25.59,0,0,1,8.54-7.39,26.19,26.19,0,0,1,12.74-2.88,25.1,25.1,0,0,1,10.19,1.93,24,24,0,0,1,7.27,4.85,21,21,0,0,1,4.39,6.21,16,16,0,0,1,1.57,6H561.2a15.7,15.7,0,0,0-1.89-6.28,19.43,19.43,0,0,0-4.48-5.55,22.7,22.7,0,0,0-6.73-4A26.38,26.38,0,0,0,527.23,179a24.81,24.81,0,0,0-8,7.32,30,30,0,0,0-4.4,9.57,38.83,38.83,0,0,0-1.36,9.78,35.22,35.22,0,0,0,1.65,10.76,27.34,27.34,0,0,0,4.85,9.12,24.23,24.23,0,0,0,7.84,6.33,22.8,22.8,0,0,0,10.56,2.38,24.6,24.6,0,0,0,9.45-1.73,21.88,21.88,0,0,0,7.23-4.76,24.18,24.18,0,0,0,4.93-7.23,32.62,32.62,0,0,0,2.55-9h1.64A35.16,35.16,0,0,1,561.37,221.3Z"/><path class="cls-2" d="M588.65,175.82v26.87h.16a14.9,14.9,0,0,1,1.85-4.52,14.67,14.67,0,0,1,3.2-3.62,14.52,14.52,0,0,1,4.48-2.42,17.76,17.76,0,0,1,5.67-.86,18,18,0,0,1,6,1,13.25,13.25,0,0,1,4.76,2.92,13.08,13.08,0,0,1,3.13,4.77,17.8,17.8,0,0,1,1.11,6.53v28H617.4V206.71a16.49,16.49,0,0,0-1.06-6.28,11.79,11.79,0,0,0-2.92-4.27,11.43,11.43,0,0,0-4.27-2.47,16.7,16.7,0,0,0-5.14-.78,14.63,14.63,0,0,0-6.65,1.44,14.14,14.14,0,0,0-4.81,3.86,16.93,16.93,0,0,0-2.92,5.63,22.7,22.7,0,0,0-1,6.74v23.91H587V175.82Z"/><path class="cls-2" d="M645.67,199.77a12.78,12.78,0,0,1,3.08-4.48,14.15,14.15,0,0,1,4.93-2.95,19.73,19.73,0,0,1,6.86-1.07,23.85,23.85,0,0,1,5.3.57,11.53,11.53,0,0,1,4.4,2,10.48,10.48,0,0,1,3,3.73,13.79,13.79,0,0,1,1.23,5.76v26.86A2.72,2.72,0,0,0,675,232a2.4,2.4,0,0,0,1.32.78,6.23,6.23,0,0,0,1.76.17c.63,0,1.22-.07,1.77-.13v1.65h-2.47a5.72,5.72,0,0,1-3.16-.87c-.9-.57-1.36-1.65-1.36-3.24v-5.51h-.16a13.34,13.34,0,0,1-2.09,3.95,15.43,15.43,0,0,1-3.62,3.37,18.83,18.83,0,0,1-5,2.34,20.68,20.68,0,0,1-6.08.86q-6.41,0-10.27-2.83t-3.86-8.51a13.45,13.45,0,0,1,1.27-6.33,10.06,10.06,0,0,1,3.33-3.73,13,13,0,0,1,4.68-1.89,37.92,37.92,0,0,1,5.26-.7l7.48-.45a22.67,22.67,0,0,0,5.13-.83,5.57,5.57,0,0,0,3-1.89,6,6,0,0,0,.94-3.65,26.14,26.14,0,0,0-.32-4,8.67,8.67,0,0,0-1.61-3.78A9.21,9.21,0,0,0,667.2,194a16.54,16.54,0,0,0-6.66-1.11q-6.66,0-10.35,3.25t-4.11,9.16h-1.64A16.75,16.75,0,0,1,645.67,199.77Zm27,9.9a5.13,5.13,0,0,1-2.55,1.77,20.17,20.17,0,0,1-3.94.94,40.73,40.73,0,0,1-4.81.41c-1.72.06-3.41.14-5,.25a39.5,39.5,0,0,0-4.81.62,11.46,11.46,0,0,0-4.15,1.64,8.46,8.46,0,0,0-2.87,3.29,12.05,12.05,0,0,0-1.07,5.46,10.58,10.58,0,0,0,.62,3.58,7.62,7.62,0,0,0,2.09,3.12A11.63,11.63,0,0,0,650,233a17,17,0,0,0,5.79.86,18.2,18.2,0,0,0,7.32-1.4,16.66,16.66,0,0,0,5.38-3.65,15.16,15.16,0,0,0,3.29-5.22,17.16,17.16,0,0,0,1.1-6.08v-7.81Z"/><path class="cls-2" d="M700.47,184.12v-8.3h1.64v8.3Zm0,50.37V192.25h1.64v42.24Z"/><path class="cls-2" d="M729.23,192.25v10.44h.16a15.16,15.16,0,0,1,1.85-4.52,14.28,14.28,0,0,1,7.68-6,17.76,17.76,0,0,1,5.67-.86,18,18,0,0,1,6,1,12.87,12.87,0,0,1,7.89,7.69,17.8,17.8,0,0,1,1.11,6.53v28H758V206.71a16.48,16.48,0,0,0-1.07-6.28,11.67,11.67,0,0,0-2.92-4.27,11.43,11.43,0,0,0-4.27-2.47,16.7,16.7,0,0,0-5.14-.78,14.63,14.63,0,0,0-6.65,1.44,14.24,14.24,0,0,0-4.81,3.86,16.93,16.93,0,0,0-2.92,5.63,23,23,0,0,0-1,6.74v23.91h-1.64V192.25Z"/><path class="cls-2" d="M813.78,175.82V219.2a24.4,24.4,0,0,1-.87,6.74,13.71,13.71,0,0,1-2.75,5.26,12.1,12.1,0,0,1-5,3.41,21,21,0,0,1-7.52,1.19,19.28,19.28,0,0,1-7.15-1.19,12.54,12.54,0,0,1-4.84-3.33,13.2,13.2,0,0,1-2.76-5.05,22.56,22.56,0,0,1-.86-6.37v-3.53h1.64v3.53q0,7.23,3.54,10.81t10.43,3.57a21.14,21.14,0,0,0,6.21-.82,10.57,10.57,0,0,0,4.51-2.71,11.89,11.89,0,0,0,2.8-5,27,27,0,0,0,.94-7.72V175.82Z"/><path class="cls-2" d="M840.73,199.77a12.65,12.65,0,0,1,3.08-4.48,14.15,14.15,0,0,1,4.93-2.95,19.73,19.73,0,0,1,6.86-1.07,23.85,23.85,0,0,1,5.3.57,11.42,11.42,0,0,1,4.39,2,10.37,10.37,0,0,1,3,3.73,13.63,13.63,0,0,1,1.24,5.76v26.86a2.72,2.72,0,0,0,.49,1.81,2.4,2.4,0,0,0,1.31.78,6.34,6.34,0,0,0,1.77.17c.63,0,1.22-.07,1.77-.13v1.65h-2.47a5.72,5.72,0,0,1-3.16-.87c-.9-.57-1.36-1.65-1.36-3.24v-5.51h-.16a13.15,13.15,0,0,1-2.1,3.95,15.38,15.38,0,0,1-3.61,3.37,18.83,18.83,0,0,1-5,2.34,20.73,20.73,0,0,1-6.08.86q-6.42,0-10.27-2.83t-3.87-8.51a13.45,13.45,0,0,1,1.28-6.33,10.06,10.06,0,0,1,3.33-3.73,12.88,12.88,0,0,1,4.68-1.89,37.72,37.72,0,0,1,5.26-.7l7.48-.45a22.67,22.67,0,0,0,5.13-.83,5.57,5.57,0,0,0,3-1.89,6,6,0,0,0,.94-3.65,25,25,0,0,0-.33-4,8.54,8.54,0,0,0-1.6-3.78,9.17,9.17,0,0,0-3.74-2.83,16.45,16.45,0,0,0-6.65-1.11q-6.66,0-10.35,3.25t-4.11,9.16h-1.65A16.76,16.76,0,0,1,840.73,199.77Zm27,9.9a5.13,5.13,0,0,1-2.55,1.77,20.17,20.17,0,0,1-3.94.94,40.73,40.73,0,0,1-4.81.41c-1.72.06-3.41.14-5.05.25a39.24,39.24,0,0,0-4.81.62,11.46,11.46,0,0,0-4.15,1.64,8.46,8.46,0,0,0-2.87,3.29,11.92,11.92,0,0,0-1.07,5.46,10.82,10.82,0,0,0,.61,3.58,7.74,7.74,0,0,0,2.1,3.12A11.63,11.63,0,0,0,845,233a17,17,0,0,0,5.79.86,18.2,18.2,0,0,0,7.32-1.4,16.66,16.66,0,0,0,5.38-3.65,15.14,15.14,0,0,0,3.28-5.22,17.17,17.17,0,0,0,1.11-6.08v-7.81Z"/><path class="cls-2" d="M897.17,192.25v10.44h.17a15.35,15.35,0,0,1,1.81-4.52,14.86,14.86,0,0,1,3-3.62,13.93,13.93,0,0,1,4-2.42,12.58,12.58,0,0,1,4.64-.86,12.09,12.09,0,0,1,8.26,2.5,12.77,12.77,0,0,1,4.4,7.36h.16a13.05,13.05,0,0,1,4.85-7.15,13.82,13.82,0,0,1,8.54-2.71,15.54,15.54,0,0,1,6.41,1.15,10.64,10.64,0,0,1,4.11,3.16,12.38,12.38,0,0,1,2.22,4.85,27.7,27.7,0,0,1,.66,6.28v27.78h-1.65V206.71a28,28,0,0,0-.53-5.66,11,11,0,0,0-1.89-4.36,8.76,8.76,0,0,0-3.62-2.79,14.27,14.27,0,0,0-5.71-1,12.34,12.34,0,0,0-9.69,4.44,14.44,14.44,0,0,0-2.63,4.72,17.53,17.53,0,0,0-.91,5.63v26.79h-1.64V207.37a33.23,33.23,0,0,0-.45-5.59,12.67,12.67,0,0,0-1.68-4.6,8.81,8.81,0,0,0-3.46-3.12,12.4,12.4,0,0,0-5.75-1.15,11.33,11.33,0,0,0-5.67,1.44,13.58,13.58,0,0,0-4.31,3.86,18.17,18.17,0,0,0-2.71,5.63,23.71,23.71,0,0,0-1,6.74v23.91h-1.64V192.25Z"/><path class="cls-2" d="M1052.79,234.49h-37.63a12.64,12.64,0,0,1,1.48-6.41,22.71,22.71,0,0,1,4.11-5.38,47.9,47.9,0,0,1,5.71-4.77l6.29-4.48c2.13-1.48,4.21-3,6.24-4.52a44.11,44.11,0,0,0,5.42-4.8,22.27,22.27,0,0,0,3.82-5.34,14.19,14.19,0,0,0,.25-11.92,12,12,0,0,0-3.24-4.19,14.22,14.22,0,0,0-4.89-2.55,21.43,21.43,0,0,0-6.21-.86,19.12,19.12,0,0,0-7.47,1.32,13.17,13.17,0,0,0-5.1,3.65,14.69,14.69,0,0,0-2.87,5.59,26.1,26.1,0,0,0-.91,7.11h-1.64q.08-9.21,4.56-14.26t13.43-5.05a23.17,23.17,0,0,1,6.74.94,15.49,15.49,0,0,1,5.42,2.84,13.63,13.63,0,0,1,3.66,4.68,15.92,15.92,0,0,1-1.11,15,34.5,34.5,0,0,1-6.2,7.06,77.54,77.54,0,0,1-8.1,6.2q-4.35,2.92-8.17,5.84a44,44,0,0,0-6.53,6,11.5,11.5,0,0,0-3,6.69h36Z"/><path class="cls-2" d="M1115.69,217a28.73,28.73,0,0,1-3.49,9.28,19.45,19.45,0,0,1-6.49,6.61,21.52,21.52,0,0,1-20.17,0,19.3,19.3,0,0,1-6.53-6.61,28.74,28.74,0,0,1-3.5-9.28,53.89,53.89,0,0,1,0-20.87,28.71,28.71,0,0,1,3.5-9.29,19.6,19.6,0,0,1,6.53-6.65,21.22,21.22,0,0,1,20.17,0,19.75,19.75,0,0,1,6.49,6.65,28.7,28.7,0,0,1,3.49,9.29,53.37,53.37,0,0,1,0,20.87Zm-1.52-20a28.33,28.33,0,0,0-3.12-8.79,18.62,18.62,0,0,0-6-6.45,19.2,19.2,0,0,0-19,0,18.59,18.59,0,0,0-5.95,6.45A28.61,28.61,0,0,0,1077,197a50.91,50.91,0,0,0,0,19.06,28.61,28.61,0,0,0,3.13,8.79,18.59,18.59,0,0,0,5.95,6.45,19.2,19.2,0,0,0,19,0,18.62,18.62,0,0,0,6-6.45,28.33,28.33,0,0,0,3.12-8.79,50.36,50.36,0,0,0,0-19.06Z"/><path class="cls-2" d="M1159.2,180.75a23.51,23.51,0,0,1-6.62,6.12,30.29,30.29,0,0,1-8.25,3.74V189a33,33,0,0,0,4.52-1.81,28.19,28.19,0,0,0,3.69-2.22,28.63,28.63,0,0,0,3.33-2.79q1.61-1.56,3.33-3.54H1161v55.88h-1.65V180.75Z"/><path class="cls-2" d="M1236.31,208.48a14.39,14.39,0,0,1,3.82,10.4,15.9,15.9,0,0,1-1.64,7.47,14.82,14.82,0,0,1-4.4,5.14,18.56,18.56,0,0,1-6.45,3,32.87,32.87,0,0,1-15.61,0,18.73,18.73,0,0,1-6.45-3,14.79,14.79,0,0,1-4.39-5.14,15.78,15.78,0,0,1-1.65-7.47,14.43,14.43,0,0,1,3.82-10.4q3.83-4,10.48-4.64v-.17a14.55,14.55,0,0,1-4.48-1.35,13.78,13.78,0,0,1-3.65-2.55,11,11,0,0,1-3.37-8,14.16,14.16,0,0,1,1.35-6.45,12.18,12.18,0,0,1,3.74-4.4,15.77,15.77,0,0,1,5.59-2.5,30.21,30.21,0,0,1,13.64,0,15.8,15.8,0,0,1,5.58,2.5,12.08,12.08,0,0,1,3.74,4.4,14,14,0,0,1,1.36,6.45,10.79,10.79,0,0,1-.91,4.44,11.16,11.16,0,0,1-2.46,3.57,14,14,0,0,1-3.66,2.55,14.49,14.49,0,0,1-4.47,1.35v.17Q1232.49,204.5,1236.31,208.48Zm.62,3.66a12.48,12.48,0,0,0-4.15-4.36,17.94,17.94,0,0,0-6-2.34,35.2,35.2,0,0,0-14,0,17.89,17.89,0,0,0-5.95,2.34,12.39,12.39,0,0,0-4.15,4.36,13.34,13.34,0,0,0-1.56,6.74,14.28,14.28,0,0,0,1.52,6.86,13.19,13.19,0,0,0,4.1,4.64,17.72,17.72,0,0,0,6,2.63,30.85,30.85,0,0,0,14.13,0,17.72,17.72,0,0,0,6-2.63,13.22,13.22,0,0,0,4.11-4.64,14.39,14.39,0,0,0,1.52-6.86A13.34,13.34,0,0,0,1236.93,212.14Zm-2.59-26.38a10.86,10.86,0,0,0-3.58-3.82,15,15,0,0,0-5-2.05,28.15,28.15,0,0,0-11.75,0,15,15,0,0,0-5,2.05,10.83,10.83,0,0,0-3.57,3.82,11.94,11.94,0,0,0-1.36,6,9.11,9.11,0,0,0,1.44,5.14,11.42,11.42,0,0,0,3.69,3.53,17.75,17.75,0,0,0,5.1,2,24.34,24.34,0,0,0,11.26,0,17.69,17.69,0,0,0,5.09-2,11.36,11.36,0,0,0,3.7-3.53,9.19,9.19,0,0,0,1.44-5.14A12.05,12.05,0,0,0,1234.34,185.76Z"/></svg>