<svg xmlns="http://www.w3.org/2000/svg" xmlns:xlink="http://www.w3.org/1999/xlink" viewBox="0 0 1499.85158 996.67969"><defs><style>.cls-1{fill:url(#名称未設定グラデーション);}.cls-2{fill:#fff;}</style><linearGradient id="名称未設定グラデーション" x1="33.197" y1="1040.56078" x2="1510.76204" y2="-77.24936" gradientTransform="matrix(1, 0, 0, -1, 0, 996.67969)" gradientUnits="userSpaceOnUse"><stop offset="0.01866" stop-color="aqua"/><stop offset="0.03159" stop-color="#00f8fa"/><stop offset="0.14205" stop-color="#00c1d5"/><stop offset="0.24953" stop-color="#0093b6"/><stop offset="0.35155" stop-color="#006f9e"/><stop offset="0.44677" stop-color="#00558c"/><stop offset="0.53254" stop-color="#004582"/><stop offset="0.60075" stop-color="#00407e"/><stop offset="0.6274" stop-color="#003b77"/><stop offset="0.79149" stop-color="#001e4e"/><stop offset="0.92133" stop-color="#000d35"/><stop offset="1" stop-color="#00062c"/></linearGradient></defs><title>アセット 2</title><g id="レイヤー_2" data-name="レイヤー 2"><g id="レイヤー_2-2" data-name="レイヤー 2"><rect class="cls-1" width="1499.85158" height="996.67969"/><path class="cls-2" d="M398.13533,507.313H383.8824v45.87549h-1.99268v-47.868h16.24561Z"/><path class="cls-2" d="M461.38582,527.84961v2.40112H414.99965v-2.40112Z"/><path class="cls-2" d="M525.8116,550.02124l-.61328,1.99231H511.2007c-11.75,0-17.36908-2.19666-22.78461-10.88135a25.88,25.88,0,0,1-8.94,12.0564l-1.32813-1.89026c2.70752-1.99243,9.19532-7.20313,10.88129-22.12036l2.24762.1532a52.19031,52.19031,0,0,1-1.89007,9.04236c2.55462,5.67053,6.69232,9.75744,12.05657,10.677v-25.2367H483.15425V508.13043h38.46832v15.68341H503.691V534.0824h20.28119v1.941H503.691V549.4082a55.97407,55.97407,0,0,0,7.4585.613Zm-6.437-39.94971H485.4532v11.9032h33.92139Z"/><path class="cls-2" d="M554.78279,515.6911a39.61783,39.61783,0,0,1-5.82379,9.24664l-1.99268-1.1239a39.92729,39.92729,0,0,0,8.78717-16.60309l1.99213.45978a39.97362,39.97362,0,0,1-2.14551,6.07923h10.37061v-7.35639h2.24762v7.35639h19.05517v1.9414H568.21834v11.59656h21.814V529.229H573.48055v19.05518c0,1.48145.05078,1.63464,1.73681,1.63464h9.09332c1.17481,0,1.63483,0,2.09473-1.02173.76611-1.788,1.12347-6.23242,1.22607-7.25415l2.2475.76636c-.9707,9.50208-2.70752,9.50208-5.36419,9.50208h-8.32673c-3.3208,0-4.9555,0-4.9555-3.57605V529.229H561.986c-.81739,10.37061-2.70752,19.41285-17.063,23.60193l-.91937-2.29895c13.8955-3.21838,15.2749-12.87378,15.63232-21.303H543.85023v-1.94128h22.12061V515.6911Z"/><path class="cls-2" d="M630.54939,548.84619a32.64791,32.64791,0,0,0,12.77143-3.32056c5.21093-2.80981,8.63379-8.94018,8.63379-15.68359,0-6.33472-3.67817-19.05517-19.51514-18.49329-.81738,10.52381-2.29877,22.17151-7.35651,29.83448-.9707,1.48156-3.88232,5.6195-8.27582,5.6195-6.64111,0-8.58258-9.04223-8.58258-13.99768,0-12.26068,8.17389-23.60192,24.52155-23.60192,21.04785,0,21.814,18.03344,21.814,20.79223a19.80914,19.80914,0,0,1-10.67724,17.77808,37.48776,37.48776,0,0,1-12.56732,3.26953Zm-19.87262-16.29675c0,3.6272,1.27729,11.9032,6.23242,11.9032,1.124,0,3.16749-.1532,6.13038-4.54676,5.2622-7.81616,6.48828-21.303,6.94769-28.5061C619.3614,512.21729,610.67677,519.57367,610.67677,532.54944Z"/><path class="cls-2" d="M694.51521,514.66937v-8.1228h2.3501v8.1228h18.59522v1.99231H696.86531v9.29779h22.018v1.99243H697.58064c3.26947,6.28357,10.9834,13.74219,21.66071,18.64649l-1.32868,1.94128a52.59494,52.59494,0,0,1-21.0473-18.44226v22.63135h-2.3501V529.842c-2.75879,5.262-10.6773,14.25317-21.04742,18.69775l-1.584-1.89025c10.31939-3.98462,18.54449-12.3628,21.814-18.69751H672.44582v-1.99244h22.06939V516.6618h-18.7998v-1.99231Z"/><path class="cls-2" d="M758.941,512.37048V506.4444h2.2475v5.92608h20.38379v1.99231H761.18849v14.764H783.3091v1.94129H762.51662c4.5982,6.07934,12.05664,13.33349,21.66125,17.01171l-1.53271,2.19678c-11.13721-5.364-18.69782-13.74219-21.45661-18.28894v20.94544h-2.24749V532.08984c-5.51758,8.48035-15.837,15.8368-21.0987,18.0846l-1.4306-1.83911c9.91058-4.49561,18.69769-13.43567,21.20062-17.26721H736.82045v-1.94129h22.12061v-14.764H739.06844v-1.99231Zm-10.93267,14.764a53.77932,53.77932,0,0,0-3.98481-9.85968l2.09473-.91962a61.94154,61.94154,0,0,1,3.88232,9.85962Zm22.06939-.66418a35.4845,35.4845,0,0,0,4.03559-9.9618l2.146.56189a39.84391,39.84391,0,0,1-4.39349,10.21729Z"/><path class="cls-2" d="M819.89211,506.49561a54.31708,54.31708,0,0,1-1.5835,6.539h23.80615v2.24792H817.59328c-2.45215,7.04981-3.11621,8.02045-4.44483,10.11493,3.06543-2.19665,5.97754-4.34222,10.52393-4.34222,6.437,0,7.25439,5.77264,7.45849,7.25421,2.29883-.97058,12.46534-5.00635,14.55957-5.87476l1.02186,2.401c-9.96192,3.525-15.01954,5.61951-15.32557,5.77283.10205,1.07275.15284,2.86084.15284,4.54663a59.913,59.913,0,0,1-.30616,6.28369h-2.40124a78.5731,78.5731,0,0,0,.25525-9.85974c-3.11621,1.37915-13.28223,5.926-13.28223,12.15845a4.7921,4.7921,0,0,0,3.01416,4.18909c1.5835.66418,3.37158,1.17492,10.06384,1.17492a118.67778,118.67778,0,0,0,14.76416-.86841l.30616,2.40125a125.19065,125.19065,0,0,1-13.691.76623c-6.02832,0-16.603-.30651-16.603-7.56079,0-7.20324,8.4292-11.239,15.2749-14.50854-.25586-3.11646-1.27734-6.23255-5.773-6.23255-6.59045,0-11.75,6.23255-12.51623,7.30542-4.34217,6.13038-4.85352,6.79456-6.89685,8.53138l-1.7876-1.63477c2.24756-1.94116,6.33435-5.61951,10.626-15.27472a64.887,64.887,0,0,0,2.55419-6.74341H803.13576v-2.24792h12.66943a38.25411,38.25411,0,0,0,1.3794-6.74341Z"/><path class="cls-2" d="M872.772,515.6911a38.89055,38.89055,0,0,1-5.51709,8.37824l-1.63465-1.43042a43.55792,43.55792,0,0,0,8.63331-16.34772l2.146.66412a39.41929,39.41929,0,0,1-2.65686,6.79437h15.78565v1.94141h-8.68457v12.61835h9.60449v1.99231h-9.70655a34.28987,34.28987,0,0,1-.40869,3.88257,33.86081,33.86081,0,0,0,10.57483,13.33361L889.375,549.255c-4.18885-3.11621-7.91785-8.48034-9.70606-12.15856-1.78809,6.7434-5.36426,12.15856-12.7207,15.88781l-1.43067-1.83911c3.01416-1.43042,11.85254-5.67053,13.07813-20.84326H865.569v-1.99231h13.1294V515.69128Zm37.855-6.488v43.67895h-2.19629v-3.42285H894.4839v3.42285h-2.248v-43.679Zm-2.19629,1.99237H894.4839v36.32244h13.94678Z"/><path class="cls-2" d="M964.06935,508.1814l-.05127,2.19677a93.12526,93.12526,0,0,0-7.45849,6.48792c-3.01416,2.86078-5.82422,5.26178-9.45118,8.42932a28.53938,28.53938,0,0,1,12.05664-2.70764c12.97559,0,14.09961,9.91077,14.09961,13.43567,0,6.437-3.627,15.68359-19.61718,15.68359-2.60547,0-14.25293,0-14.25293-8.73584,0-4.95532,4.90429-7.61181,9.29785-7.61181A10.45212,10.45212,0,0,1,959.47121,545.474v.00049a6.39461,6.39461,0,0,1-1.226,3.83142c12.46534-2.14551,12.46534-11.239,12.46534-13.28247,0-6.74341-3.88282-11.34094-12.312-11.34094a25.70908,25.70908,0,0,0-15.22375,5.05737c-1.89014,1.43054-6.437,6.28357-10.166,10.26855l-1.83923-1.99243c1.17529-1.07275,2.5542-2.40124,14.71289-14.40637,2.19666-2.14569,12.41394-11.29022,14.35535-13.28247l-24.93006.25549v-2.40112Zm-7.20312,36.98645a7.77319,7.77319,0,0,0-7.97522-7.56592c-.04932.00122-.09851.003-.14783.00525-3.72949,0-6.89649,2.2478-6.89649,5.67065,0,6.28357,9.45069,6.28357,11.69874,6.28357a18.27507,18.27507,0,0,0,1.89025-.10217,7.0997,7.0997,0,0,0,1.43067-4.29138Z"/><path class="cls-2" d="M1014.19057,508.79437v40.25605H1011.381V511.29749h-7.35645v-2.50318Z"/><path class="cls-2" d="M1087.65627,509.1521v43.42334h-2.29883v-2.45215h-31.57129v2.45215h-2.19678V509.15216Zm-33.87012,19.15735h31.57129V511.19556h-31.57129Zm0,19.71936h31.57129v-17.6759h-31.57129Z"/><path class="cls-2" d="M1109.68019,551.9624h14.25293V506.08691h1.99268v47.86792h-16.24561Z"/><path class="cls-2" d="M523.87019,443.478c-.834,10.68072-4.93951,21.13672-21.68219,23.47821l-.60931-1.63593c11.19379-1.18671,19.34082-6.83172,20.52728-20.39892H498.49959v-1.44342Zm-2.79058-1.05848a22.06629,22.06629,0,0,0-2.75831-3.945l1.28321-.70569a14.39391,14.39391,0,0,1,2.7901,3.881Zm4.3623.2887a18.20256,18.20256,0,0,0-2.85449-4.2337l1.315-.73767a14.8452,14.8452,0,0,1,2.88672,4.20172Z"/><path class="cls-2" d="M564.33791,442.13086v22.64429h-24.8891V442.13086Zm-1.50733,1.41132H540.92439v19.78967h21.90619Z"/><path class="cls-2" d="M584.856,456.14722a30.43982,30.43982,0,0,0-2.66211-7.762l1.34723-.44891a33.75761,33.75761,0,0,1,2.7583,7.7619Zm.16059,10.00708c6.02978-1.18683,15.01031-4.45832,16.8067-18.8916l1.50732.2246c-2.1167,13.5351-8.852,17.833-17.769,19.91779ZM592.1368,454.768a38.45406,38.45406,0,0,0-2.08448-7.76191l1.37891-.28857a36.49212,36.49212,0,0,1,2.18109,7.69781Z"/><path class="cls-2" d="M644.82478,443.895A30.88806,30.88806,0,0,1,637.255,459.4187c-3.977,4.39411-8.7558,6.3186-14.78613,7.7619l-.70563-1.47528c4.8111-.96228,10.16748-2.66217,14.52978-7.53747a28.02082,28.02082,0,0,0,6.543-12.8617h-13.6958a29.87456,29.87456,0,0,1-8.05029,8.01862l-.9942-1.21881A27.6272,27.6272,0,0,0,630.712,439.01984l1.82806.25647a24.17053,24.17053,0,0,1-2.4375,4.61871Z"/><path class="cls-2" d="M675.28523,450.3739h11.48291v1.4433H675.28523v.70563c0,9.59021-6.73541,12.99-13.08587,14.7221l-.7378-1.41137c10.6167-2.46961,12.28461-8.37122,12.28461-13.31073v-.70563H659.44106v-1.4433h14.30511v-7.05627a81.10889,81.10889,0,0,1-12.41309,1.25091l-.25628-1.41131a66.643,66.643,0,0,0,21.90667-3.72058l.92969,1.37927a85.23961,85.23961,0,0,1-8.62793,2.24512Z"/><path class="cls-2" d="M723.2906,447.87207V449.123h-9.07672V464.1015h10.61621v1.25092H702.47462V464.1015h10.2959V449.123h-8.75628v-1.25092Z"/><path class="cls-2" d="M768.15291,452.65112v1.60382h-28.482v-1.60382Z"/><path class="cls-2" d="M791.91017,447.93628a42.84672,42.84672,0,0,0-10.19922-4.68292l.89795-1.37921a43.90267,43.90267,0,0,1,10.16748,4.58667Zm-9.75049,16.6142c17.1919-1.15448,23.09326-14.49732,24.79346-20.14228l1.44336.54523c-6.54346,18.60291-19.59766,20.55939-25.7876,21.16882Z"/><path class="cls-2" d="M834.23781,465.51282a20.499,20.499,0,0,0,8.01855-2.08478,11.12739,11.12739,0,0,0,5.42041-9.84668c0-3.97717-2.30908-11.96362-12.252-11.6109-.51306,6.6073-1.44336,13.92023-4.61865,18.7312-.60938.93018-2.4375,3.5282-5.1958,3.5282-4.16993,0-5.38868-5.67713-5.38868-8.78821,0-7.69769,5.132-14.81818,15.39551-14.81818,13.21436,0,13.6958,11.32209,13.6958,13.05408a12.43651,12.43651,0,0,1-6.70361,11.16168,23.53277,23.53277,0,0,1-7.89014,2.05268Zm-12.47644-10.23163c0,2.27728.80176,7.4732,3.91308,7.4732.70545,0,1.98865-.09619,3.84864-2.85449,3.30371-4.90741,4.07373-13.37488,4.3623-17.8974-6.67151.51319-12.12414,5.1319-12.12414,13.27869Z"/><path class="cls-2" d="M867.81007,452.39447a9.07432,9.07432,0,0,0-3.17529,6.479,5.44776,5.44776,0,0,0,1.98877,4.20173c1.82813,1.41119,3.78455,1.82818,8.43506,1.82818,6.1582,0,9.59045-.22449,12.60547-.417l.03174,1.6037c-1.315.06421-5.06726.25659-11.57862.25659-5.77343,0-7.9541-.41687-9.94275-1.732a6.92249,6.92249,0,0,1-3.04687-5.67713c0-3.14319,1.76367-5.54871,3.3999-7.47333Zm17.64063-9.0769c-4.36182.51318-9.58984,3.33569-10.90527,4.04132l-.96192-1.18671a35.98111,35.98111,0,0,1,7.08838-2.95081c-1.05859.032-1.7002.032-7.2168.06409-.3208,0-5.93359.1604-8.37109.19251v-1.60382c3.43164,0,18.21777.06427,20.3667,0Z"/><path class="cls-2" d="M909.72121,439.50085a18.68516,18.68516,0,0,0-.16016,2.69422c-.03235,2.66217-.064,3.33569-.064,6.41479,3.97705-4.5224,8.01806-7.08831,11.48242-7.08831,4.458,0,4.458,4.04119,4.458,4.97137,0,1.09058-.19227,4.07349-.417,7.02417-.19226,2.91882-.41687,5.83752-.41687,6.83179,0,2.46972.25684,4.16961,5.74121,4.07342l-.32031,1.37921c-6.319.2566-6.96045-2.34137-6.96045-5.80542,0-1.09057.22461-3.94513.44922-6.79968.19238-2.82251.417-5.645.417-6.6073,0-1.44317,0-3.75262-3.0791-3.75262-3.56006,0-8.17871,3.56018-11.38623,7.56952,0,2.3413-.12842,12.605-.16064,14.68982,0,.80188,0,1.34722.03235,2.02063h-1.57178c.09619-1.86023.09619-4.84308.09619-6.7995q.04835-3.17552.09619-7.50538a31.2348,31.2348,0,0,1-5.5166,8.43543l-1.251-1.1546c3.14344-2.69422,5.32471-6.60718,6.832-10.71271,0-.35278.03235-2.43762.03235-2.98291l-6.12646.19238v-1.47534h6.1582c.03223-3.30359.03223-3.65649.03223-5.613Z"/><path class="cls-2" d="M951.08742,439.50085c-.44922,3.1753-.7378,4.61872-.99414,6.1261h4.041c3.3999,0,7.28076,0,7.28076,7.47333,0,.32068,0,6.86383-1.732,10.64862-1.25086,2.72632-3.20752,3.111-5.1958,3.111a35.32538,35.32538,0,0,1-5.5166-.5451l.064-1.53961a39.83456,39.83456,0,0,0,5.45264.57727c2.27734,0,3.33545-.64148,4.20166-3.23938a32.17747,32.17747,0,0,0,1.12256-8.75623c0-6.479-2.149-6.51111-7.89026-6.41479l-2.08484.0321a85.26114,85.26114,0,0,1-6.126,19.98212l-1.41113-.6095a82.55053,82.55053,0,0,0,5.96533-19.37262l-5.8374.06409V445.627h6.09424c.03235-.12829.417-2.40551.86621-6.22241Zm17.44824,16.83881c-.77-7.85809-3.17529-10.87311-5.16406-12.92578l1.15478-.83392c1.34717,1.31512,4.77881,4.5866,5.645,13.40692Z"/><path class="cls-2" d="M988.57179,443.99121c-.93017,2.40552-1.21875,3.33569-1.18652,10.9372,3.62451-3.75263,9.62207-4.9715,13.24658-4.9715,5.26026,0,8.49951,2.91882,8.49951,7.31293,0,9.46191-11.48242,9.46191-15.71631,9.46191a55.48113,55.48113,0,0,1-6.63916-.385l-.19238-1.37921a67.22,67.22,0,0,0,7.12024.417c4.93945,0,13.82422-.417,13.82422-8.17877,0-5.38849-5.54895-5.86951-7.05664-5.86951-5.58045,0-11.19385,2.4375-12.89356,5.38843-.03234.22449-.03234.28857-.064.51318h-1.604c-.03174-.96228-.064-2.69439-.064-4.49047,0-6.1261.57715-7.50531,1.31494-9.26929Zm14.85059-.99438c-3.01514-1.15448-5.93408-1.86023-12.477-2.24512l.3208-1.4754c2.91894.16027,8.43555.57727,12.76562,2.149Z"/><path class="cls-2" d="M275.49519,175.88a22.26908,22.26908,0,0,1,6.4502.90381,15.09312,15.09312,0,0,1,5.25873,2.75263,12.89688,12.89688,0,0,1,3.53277,4.56012,14.95442,14.95442,0,0,1,1.27393,6.409,13.47955,13.47955,0,0,1-.94531,5.01209,13.63545,13.63545,0,0,1-2.58789,4.19043,12.87417,12.87417,0,0,1-8.874,4.19043v.16431a15.94762,15.94762,0,0,1,5.46381,1.10931,13.86007,13.86007,0,0,1,4.5191,2.87567A13.67388,13.67388,0,0,1,292.668,212.567a15.14166,15.14166,0,0,1,1.15039,6.03918,15.89853,15.89853,0,0,1-1.438,6.943,13.654,13.654,0,0,1-3.98529,4.97089,17.994,17.994,0,0,1-6.1211,2.999,27.9893,27.9893,0,0,1-7.76471,1.0271h-24.2388V175.88013Zm0,27.27894a19.93443,19.93443,0,0,0,5.62842-.78058,13.97063,13.97063,0,0,0,4.72461-2.38269,11.94729,11.94729,0,0,0,3.28662-3.98511,11.81131,11.81131,0,0,0,1.23242-5.505,13.41352,13.41352,0,0,0-1.15039-5.79278,11.21846,11.21846,0,0,0-3.16308-4.02612,13.50626,13.50626,0,0,0-4.72461-2.38282,21.02628,21.02628,0,0,0-5.83393-.78051h-23.5816v25.63549Zm-.24658,29.74389a24.76592,24.76592,0,0,0,6.69678-.86279,15.2223,15.2223,0,0,0,5.34082-2.62927,12.62442,12.62442,0,0,0,3.57422-4.43683,14.08754,14.08754,0,0,0,1.31439-6.28571,13.39188,13.39188,0,0,0-1.43793-6.49109,12.41217,12.41217,0,0,0-3.77929-4.27258,15.78678,15.78678,0,0,0-5.34089-2.38281,25.48611,25.48611,0,0,0-6.12152-.7395h-23.5816v28.10058Z"/><path class="cls-2" d="M319.20711,175.88v58.66608h-1.64362V175.88Z"/><path class="cls-2" d="M343.69142,205.08984a21.18975,21.18975,0,0,1,3.65631-7.02508,18.47793,18.47793,0,0,1,5.957-4.88892,17.47157,17.47157,0,0,1,8.21631-1.84869,17.29461,17.29461,0,0,1,8.13483,1.84869,18.50844,18.50844,0,0,1,5.957,4.88892,21.2156,21.2156,0,0,1,3.65631,7.02508,28.83469,28.83469,0,0,1,0,16.67963,21.18878,21.18878,0,0,1-3.65631,7.02509,18.01513,18.01513,0,0,1-5.957,4.84777A17.81625,17.81625,0,0,1,361.439,235.45a17.62047,17.62047,0,0,1-8.13428-1.80762,17.98546,17.98546,0,0,1-5.957-4.84777,21.16363,21.16363,0,0,1-3.65631-7.02509,28.83469,28.83469,0,0,1,0-16.67963Zm1.52008,16.06342a19.63243,19.63243,0,0,0,3.32758,6.5321,16.48516,16.48516,0,0,0,5.46393,4.51911,16.08842,16.08842,0,0,0,7.518,1.68438,15.90787,15.90787,0,0,0,7.4361-1.68438,16.49722,16.49722,0,0,0,5.46429-4.51911,19.64407,19.64407,0,0,0,3.3277-6.5321,26.74238,26.74238,0,0,0,1.10883-7.72369,26.45856,26.45856,0,0,0-1.10883-7.6413,19.64411,19.64411,0,0,0-3.3277-6.53211,16.96478,16.96478,0,0,0-5.46429-4.56018,15.59932,15.59932,0,0,0-7.4361-1.72552,15.77552,15.77552,0,0,0-7.518,1.72552,16.953,16.953,0,0,0-5.46393,4.56018,19.63079,19.63079,0,0,0-3.32758,6.53211,26.43719,26.43719,0,0,0-1.10937,7.6413,26.721,26.721,0,0,0,1.10937,7.72363Z"/><path class="cls-2" d="M436.045,226.535a15.25379,15.25379,0,0,1-3.65631,4.8067,16.14447,16.14447,0,0,1-5.25879,3.0401,19.62058,19.62058,0,0,1-6.6142,1.06812,18.2323,18.2323,0,0,1-8.01129-1.68433,17.22491,17.22491,0,0,1-5.87451-4.56018,19.97038,19.97038,0,0,1-3.61518-6.69647,26.46864,26.46864,0,0,1-1.23242-8.17547,31.53741,31.53741,0,0,1,1.19141-8.75068,21.73686,21.73686,0,0,1,3.61517-7.31268,17.68843,17.68843,0,0,1,6.16211-5.0531,19.16391,19.16391,0,0,1,8.751-1.88977,17.81984,17.81984,0,0,1,5.66888.90381,15.40751,15.40751,0,0,1,4.84821,2.62927,14.56006,14.56006,0,0,1,3.57422,4.31372,16.22091,16.22091,0,0,1,1.84857,5.95691h-1.64349a15.4211,15.4211,0,0,0-1.80762-5.38177,13.53508,13.53508,0,0,0-3.2041-3.77948,12.82517,12.82517,0,0,0-4.273-2.25971,16.822,16.822,0,0,0-5.01172-.73938,17.35563,17.35563,0,0,0-8.5044,1.93079,15.966,15.966,0,0,0-5.5874,5.01208,21.21468,21.21468,0,0,0-3.04,6.902,31.21433,31.21433,0,0,0-.94488,7.51813,24.527,24.527,0,0,0,1.10937,7.39489,19.31989,19.31989,0,0,0,3.24561,6.24463,15.54445,15.54445,0,0,0,5.34027,4.31372,16.32905,16.32905,0,0,0,7.39508,1.60218,17.6034,17.6034,0,0,0,5.83392-.94483,14.38,14.38,0,0,0,9.77741-12.77679h1.64349A18.0908,18.0908,0,0,1,436.045,226.535Z"/><path class="cls-2" d="M462.9131,234.54608h-1.64349V175.88h1.64349v40.67188l29.16852-24.23877h2.38281l-19.39111,16.10437,20.78808,26.1286h-2.21881L473.8409,209.56787l-10.9278,9.03821Z"/><path class="cls-2" d="M561.26424,221.35852a25.77654,25.77654,0,0,1-5.29981,7.6825,23.32405,23.32405,0,0,1-7.68262,5.01208,26.38361,26.38361,0,0,1-10.02392,1.80768,25.246,25.246,0,0,1-10.72272-2.25958,24.87421,24.87421,0,0,1-8.38092-6.24451,29.0267,29.0267,0,0,1-5.46429-9.53131,35.94013,35.94013,0,0,1-1.97168-12.11939,41.04847,41.04847,0,0,1,1.52-10.8869,30.77809,30.77809,0,0,1,4.8067-10.06518,25.52089,25.52089,0,0,1,8.54541-7.3949,26.20184,26.20184,0,0,1,12.73529-2.87592,24.97293,24.97293,0,0,1,10.18848,1.93091,23.81339,23.81339,0,0,1,7.272,4.84778,21.02488,21.02488,0,0,1,4.39551,6.20349,15.98647,15.98647,0,0,1,1.56152,5.99811h-1.64362a15.85129,15.85129,0,0,0-1.88958-6.28571,19.51252,19.51252,0,0,0-4.478-5.54608,22.76347,22.76347,0,0,0-6.73779-3.98511,26.34367,26.34367,0,0,0-20.87012,1.39679,24.86232,24.86232,0,0,0-8.0108,7.31281,30.10816,30.10816,0,0,0-4.396,9.5722,38.65392,38.65392,0,0,0-1.3559,9.77771,35.31782,35.31782,0,0,0,1.6435,10.76368,27.488,27.488,0,0,0,4.84771,9.12042,24.241,24.241,0,0,0,7.84668,6.32678,22.77891,22.77891,0,0,0,10.5586,2.38281,24.6189,24.6189,0,0,0,9.44873-1.72552,21.8717,21.8717,0,0,0,7.23053-4.76563,24.16324,24.16324,0,0,0,4.93011-7.23059,32.527,32.527,0,0,0,2.54743-9.03821h1.64312A34.92654,34.92654,0,0,1,561.26424,221.35852Z"/><path class="cls-2" d="M588.543,175.88v26.868h.16413a14.93446,14.93446,0,0,1,1.84857-4.519,14.27327,14.27327,0,0,1,7.68262-6.03918,17.5856,17.5856,0,0,1,5.66949-.86267,17.79661,17.79661,0,0,1,6.039.986,12.88469,12.88469,0,0,1,7.88819,7.6825,17.84415,17.84415,0,0,1,1.10888,6.5321v28.01837H617.3008V206.77423a16.49185,16.49185,0,0,0-1.0683-6.2857,11.73509,11.73509,0,0,0-2.91651-4.27259,11.53566,11.53566,0,0,0-4.273-2.4649,16.66627,16.66627,0,0,0-5.13519-.78058,14.70186,14.70186,0,0,0-6.65527,1.43793,14.13892,14.13892,0,0,0-4.8067,3.86169,16.90546,16.90546,0,0,0-2.917,5.62842,22.78834,22.78834,0,0,0-.98577,6.73761V234.5462h-1.6435V175.88013Z"/><path class="cls-2" d="M645.56551,199.83118a12.71616,12.71616,0,0,1,3.08105-4.47809,14.27116,14.27116,0,0,1,4.93018-2.95789,19.95889,19.95889,0,0,1,6.86078-1.06811,23.69319,23.69319,0,0,1,5.29937.57507,11.381,11.381,0,0,1,4.396,2.01312,10.54067,10.54067,0,0,1,3.04,3.73853,13.55312,13.55312,0,0,1,1.23242,5.75159v26.8681a2.74041,2.74041,0,0,0,.49322,1.80768,2.45446,2.45446,0,0,0,1.31488.78051,6.10318,6.10318,0,0,0,1.76612.16443q.94408-.04056,1.7666-.12329v1.64331h-2.46478a5.7619,5.7619,0,0,1-3.16309-.86279q-1.35645-.86243-1.356-3.24548v-5.50513h-.16449a13.11928,13.11928,0,0,1-2.09521,3.944,15.27006,15.27006,0,0,1-3.6153,3.36877,18.5149,18.5149,0,0,1-4.9707,2.3418,20.52816,20.52816,0,0,1-6.08051.86261q-6.40869,0-10.2705-2.83472-3.8628-2.83475-3.86182-8.50409a13.4404,13.4404,0,0,1,1.27344-6.32672,10.04392,10.04392,0,0,1,3.32763-3.73852,13.17006,13.17006,0,0,1,4.6836-1.8899,38.61,38.61,0,0,1,5.25879-.69842q4.35415-.24647,7.47711-.4519a23.09674,23.09674,0,0,0,5.13519-.8216,5.5646,5.5646,0,0,0,2.958-1.88977,6.06393,6.06393,0,0,0,.94482-3.65637,25.08044,25.08044,0,0,0-.32861-3.94391,8.58741,8.58741,0,0,0-1.602-3.77972,9.21739,9.21739,0,0,0-3.73877-2.83472,16.48612,16.48612,0,0,0-6.65527-1.10919q-6.65543.00009-10.353,3.24548-3.69717,3.24683-4.1084,9.1615h-1.64306A16.86022,16.86022,0,0,1,645.56551,199.83118Zm27.03222,9.901a5.126,5.126,0,0,1-2.54687,1.7666,20.78706,20.78706,0,0,1-3.94379.94482,41.69241,41.69241,0,0,1-4.8067.41089q-2.58839.08268-5.05322.2464a39.37468,39.37468,0,0,0-4.80664.61621,11.38286,11.38286,0,0,0-4.14942,1.64337,8.41332,8.41332,0,0,0-2.876,3.28662,12.04506,12.04506,0,0,0-1.06788,5.464,10.77158,10.77158,0,0,0,.61622,3.57422,7.58278,7.58278,0,0,0,2.09521,3.12232,11.42451,11.42451,0,0,0,3.82031,2.2185,16.8848,16.8848,0,0,0,5.793.86267,18.124,18.124,0,0,0,7.3125-1.39679,16.52882,16.52882,0,0,0,5.3819-3.65631,15.06663,15.06663,0,0,0,3.28662-5.21759,17.17357,17.17357,0,0,0,1.10931-6.08032v-7.8056Z"/><path class="cls-2" d="M700.36873,184.17871V175.88h1.64349v8.29871Zm0,50.36743v-42.233h1.64349v42.233Z"/><path class="cls-2" d="M729.126,192.31311V202.748h.16413a14.93421,14.93421,0,0,1,1.84857-4.519,14.27322,14.27322,0,0,1,7.68261-6.03918,17.58571,17.58571,0,0,1,5.6695-.86267,17.79661,17.79661,0,0,1,6.039.986,12.88465,12.88465,0,0,1,7.88818,7.6825,17.84416,17.84416,0,0,1,1.10889,6.5321v28.01837h-1.64313V206.77423a16.49147,16.49147,0,0,0-1.0683-6.2857,11.73519,11.73519,0,0,0-2.9165-4.27259,11.5334,11.5334,0,0,0-4.273-2.4649,16.66631,16.66631,0,0,0-5.13519-.78058,14.70188,14.70188,0,0,0-6.65528,1.43793,14.139,14.139,0,0,0-4.8067,3.86169,16.90422,16.90422,0,0,0-2.91687,5.62842,22.78683,22.78683,0,0,0-.9859,6.73761V234.5462H727.4825v-42.233Z"/><path class="cls-2" d="M813.674,175.88v43.38331a24.63669,24.63669,0,0,1-.8628,6.73767,13.80605,13.80605,0,0,1-2.75244,5.25848,12.12219,12.12219,0,0,1-4.97119,3.40991,20.93463,20.93463,0,0,1-7.51794,1.19141,19.16066,19.16066,0,0,1-7.14856-1.19141,12.63662,12.63662,0,0,1-4.84766-3.3277,13.1188,13.1188,0,0,1-2.75244-5.05328,22.36965,22.36965,0,0,1-.86279-6.3678v-3.533h1.64306v3.533q0,7.2312,3.5332,10.80481,3.53175,3.57441,10.43506,3.57428a21.13714,21.13714,0,0,0,6.20362-.82171,10.52765,10.52765,0,0,0,4.519-2.71149,11.98219,11.98219,0,0,0,2.79346-5.01209,27.03892,27.03892,0,0,0,.94531-7.72351V175.88Z"/><path class="cls-2" d="M835.85841,234.54608H834.0508L857.7964,175.88h2.13672l23.17053,58.66608h-1.80774l-7.72363-19.30878h-29.9082Zm23.08838-57.02283h-.16394L844.3213,213.59393h28.59375Z"/><path class="cls-2" d="M958.28517,175.88v58.66608h-1.64355v-56.612h-.16394l-24.89649,56.612h-1.80762l-24.896-56.612H904.713v56.612h-1.643V175.88h2.71143l24.814,56.52979H930.76L955.574,175.88Z"/><path class="cls-2" d="M1060.58058,234.54608h-37.63183a12.57842,12.57842,0,0,1,1.479-6.40887,22.838,22.838,0,0,1,4.1084-5.38178,47.42889,47.42889,0,0,1,5.71045-4.76568q3.16187-2.25879,6.28564-4.478,3.20435-2.21823,6.24463-4.519a44.54767,44.54767,0,0,0,5.42285-4.8067,22.59526,22.59526,0,0,0,3.8208-5.34083,14.1819,14.1819,0,0,0,.24659-11.91387,12.02143,12.02143,0,0,0-3.24561-4.1905,14.09229,14.09229,0,0,0-4.88916-2.54711,21.228,21.228,0,0,0-6.20325-.8628,19.2258,19.2258,0,0,0-7.47705,1.3147,13.23661,13.23661,0,0,0-5.09436,3.65637,14.6327,14.6327,0,0,0-2.87585,5.5871,26.40165,26.40165,0,0,0-.90381,7.1073h-1.64356q.0813-9.20115,4.56055-14.25562,4.47729-5.053,13.434-5.05322a23.19053,23.19053,0,0,1,6.73731.94489,15.53514,15.53514,0,0,1,5.42285,2.83477,13.75051,13.75051,0,0,1,3.65673,4.68329,15.94912,15.94912,0,0,1-1.10925,14.9541,34.58967,34.58967,0,0,1-6.20373,7.06629,77.805,77.805,0,0,1-8.09314,6.20349q-4.35571,2.9177-8.1753,5.83368a45.1863,45.1863,0,0,0-6.53222,5.99811,11.5951,11.5951,0,0,0-3.04016,6.69647h35.98828Z"/><path class="cls-2" d="M1123.47865,217.04492a28.79465,28.79465,0,0,1-3.49218,9.28473,19.48134,19.48134,0,0,1-6.49122,6.61438,21.54934,21.54934,0,0,1-20.17138,0,19.34018,19.34018,0,0,1-6.53235-6.61438,28.75935,28.75935,0,0,1-3.49207-9.28473,53.53478,53.53478,0,0,1,0-20.87012,28.772,28.772,0,0,1,3.49207-9.28472,19.72235,19.72235,0,0,1,6.53235-6.6554,21.24165,21.24165,0,0,1,20.17138,0,19.87083,19.87083,0,0,1,6.49122,6.6554,28.80782,28.80782,0,0,1,3.49218,9.28472A53.53938,53.53938,0,0,1,1123.47865,217.04492Zm-1.52014-19.96618a28.441,28.441,0,0,0-3.12256-8.79169,18.693,18.693,0,0,0-5.95715-6.45,19.22115,19.22115,0,0,0-18.97986,0,18.68354,18.68354,0,0,0-5.95715,6.45,28.405,28.405,0,0,0-3.12256,8.79169,50.70776,50.70776,0,0,0,0,19.06237,28.391,28.391,0,0,0,3.12256,8.79163,18.6718,18.6718,0,0,0,5.95715,6.45007,19.22175,19.22175,0,0,0,18.97986,0,18.6809,18.6809,0,0,0,5.95715-6.45007,28.43254,28.43254,0,0,0,3.12256-8.79163A50.70776,50.70776,0,0,0,1121.95851,197.07874Z"/><path class="cls-2" d="M1166.98488,180.80988a23.72209,23.72209,0,0,1-6.61426,6.12139,30.33018,30.33018,0,0,1-8.25732,3.73853v-1.64331a32.29411,32.29411,0,0,0,4.519-1.80762,27.545,27.545,0,0,0,3.69714-2.21863,28.46674,28.46674,0,0,0,3.32776-2.7937q1.60254-1.55959,3.32764-3.533h1.80762V234.546h-1.64295V180.80981Z"/><path class="cls-2" d="M1244.09767,208.54083a14.39574,14.39574,0,0,1,3.82031,10.39392,15.85528,15.85528,0,0,1-1.64343,7.477,14.79294,14.79294,0,0,1-4.39563,5.13538,18.57827,18.57827,0,0,1-6.45007,2.95788,32.713,32.713,0,0,1-15.61145,0,18.57125,18.57125,0,0,1-6.4502-2.95788,14.77251,14.77251,0,0,1-4.39551-5.13538,15.84164,15.84164,0,0,1-1.64355-7.477,14.39166,14.39166,0,0,1,3.82129-10.39392q3.82031-3.98446,10.47546-4.64239v-.16431a14.59591,14.59591,0,0,1-4.47754-1.35577,13.9992,13.9992,0,0,1-3.65625-2.54712,11.244,11.244,0,0,1-2.46594-3.5741,10.88923,10.88923,0,0,1-.90332-4.43707,14.12172,14.12172,0,0,1,1.35547-6.44989,12.12107,12.12107,0,0,1,3.73828-4.39588,15.80083,15.80083,0,0,1,5.58789-2.5061,30.18573,30.18573,0,0,1,13.63965,0,15.8133,15.8133,0,0,1,5.58691,2.5061,12.1212,12.1212,0,0,1,3.73829,4.39588,14.1086,14.1086,0,0,1,1.35546,6.44989,10.88684,10.88684,0,0,1-.90344,4.43707,11.2879,11.2879,0,0,1-2.46484,3.5741,14.04909,14.04909,0,0,1-3.65625,2.54712,14.61736,14.61736,0,0,1-4.47852,1.35577v.16431Q1240.27736,204.55717,1244.09767,208.54083Zm.61621,3.65631a12.41177,12.41177,0,0,0-4.14941-4.35467,17.73981,17.73981,0,0,0-5.957-2.3418,35.26773,35.26773,0,0,0-13.96778,0,17.71406,17.71406,0,0,0-5.957,2.3418,12.39589,12.39589,0,0,0-4.14953,4.35467,13.31811,13.31811,0,0,0-1.56153,6.73761,14.32931,14.32931,0,0,0,1.52051,6.86078,13.15529,13.15529,0,0,0,4.10742,4.64228,17.53162,17.53162,0,0,0,5.95716,2.62927,30.796,30.796,0,0,0,14.13281,0,17.54146,17.54146,0,0,0,5.957-2.62927,13.16586,13.16586,0,0,0,4.1084-4.64228,14.35133,14.35133,0,0,0,1.51965-6.86078,13.33774,13.33774,0,0,0-1.56067-6.73767ZM1242.125,185.822a10.88577,10.88577,0,0,0-3.57422-3.82068,15.10916,15.10916,0,0,0-5.05274-2.0542,28.31527,28.31527,0,0,0-11.75,0,15.109,15.109,0,0,0-5.05273,2.0542,10.88762,10.88762,0,0,0-3.57434,3.82068,11.99635,11.99635,0,0,0-1.35535,5.998,9.09905,9.09905,0,0,0,1.4375,5.13537,11.3844,11.3844,0,0,0,3.69714,3.53308,17.51089,17.51089,0,0,0,5.09485,2.01313,24.42656,24.42656,0,0,0,11.25684,0,17.51436,17.51436,0,0,0,5.09375-2.01313,11.40434,11.40434,0,0,0,3.69726-3.53308,9.10681,9.10681,0,0,0,1.43848-5.13537A11.997,11.997,0,0,0,1242.125,185.822Z"/></g></g></svg>