<?xml version="1.0" encoding="utf-8"?>
<!-- Generator: Adobe Illustrator 22.1.0, SVG Export Plug-In . SVG Version: 6.00 Build 0)  -->
<svg version="1.1" id="レイヤー_2_1_" xmlns="http://www.w3.org/2000/svg" xmlns:xlink="http://www.w3.org/1999/xlink" x="0px"
	 y="0px" viewBox="0 0 1500 996.6" style="enable-background:new 0 0 1500 996.6;" xml:space="preserve">
<style type="text/css">
	.st0{fill:url(#SVGID_1_);}
	.st1{fill:#FFFFFF;}
</style>
<title>BCJ_web_PC 4_OL</title>
<linearGradient id="SVGID_1_" gradientUnits="userSpaceOnUse" x1="33.2976" y1="1039.9417" x2="1510.8574" y2="-77.8682" gradientTransform="matrix(1 0 0 -1 0 996)">
	<stop  offset="2.000000e-02" style="stop-color:#00FFFF"/>
	<stop  offset="3.000000e-02" style="stop-color:#00F8FA"/>
	<stop  offset="0.14" style="stop-color:#00C1D5"/>
	<stop  offset="0.25" style="stop-color:#0093B6"/>
	<stop  offset="0.35" style="stop-color:#006F9E"/>
	<stop  offset="0.45" style="stop-color:#00558C"/>
	<stop  offset="0.53" style="stop-color:#004582"/>
	<stop  offset="0.6" style="stop-color:#00407E"/>
	<stop  offset="0.63" style="stop-color:#003B77"/>
	<stop  offset="0.79" style="stop-color:#001E4E"/>
	<stop  offset="0.92" style="stop-color:#000D35"/>
	<stop  offset="1" style="stop-color:#00062C"/>
</linearGradient>
<rect x="0.1" y="-0.1" class="st0" width="1499.8" height="996.7"/>
<path class="st1" d="M731.5,131.4h-13.1c0-0.8,0.2-1.6,0.5-2.2c0.4-0.7,0.9-1.3,1.4-1.9c0.6-0.6,1.3-1.2,2-1.7l2.2-1.6
	c0.8-0.5,1.5-1,2.2-1.6c0.7-0.5,1.3-1.1,1.9-1.7c0.5-0.6,1-1.2,1.3-1.9c0.3-0.7,0.5-1.4,0.5-2.1c0-0.7-0.1-1.4-0.4-2
	c-0.3-0.6-0.6-1.1-1.1-1.5c-0.5-0.4-1.1-0.7-1.7-0.9c-0.7-0.2-1.4-0.3-2.2-0.3c-0.9,0-1.8,0.1-2.6,0.5c-0.7,0.3-1.3,0.7-1.8,1.3
	c-0.5,0.6-0.8,1.3-1,2c-0.2,0.8-0.3,1.6-0.3,2.5h-0.6c-0.1-1.8,0.5-3.6,1.6-5c1.2-1.3,3-1.9,4.7-1.8c0.8,0,1.6,0.1,2.3,0.3
	c0.7,0.2,1.3,0.5,1.9,1c0.5,0.4,1,1,1.3,1.6c0.3,0.7,0.5,1.5,0.5,2.3c0,1-0.3,2.1-0.9,2.9c-0.6,0.9-1.3,1.8-2.2,2.5
	c-0.9,0.8-1.8,1.5-2.8,2.2c-1,0.7-2,1.3-2.8,2c-0.8,0.6-1.6,1.3-2.3,2.1c-0.6,0.6-1,1.5-1.1,2.3h12.6L731.5,131.4z"/>
<path class="st1" d="M751.2,125.2c-0.2,1.1-0.6,2.2-1.2,3.2c-0.6,0.9-1.3,1.7-2.3,2.3c-1.1,0.6-2.3,0.9-3.5,0.9
	c-1.2,0-2.5-0.3-3.5-0.9c-0.9-0.6-1.7-1.4-2.3-2.3c-0.6-1-1-2.1-1.2-3.2c-0.5-2.4-0.5-4.9,0-7.3c0.2-1.1,0.6-2.2,1.2-3.2
	c0.6-0.9,1.3-1.7,2.3-2.3c1.1-0.6,2.3-0.9,3.5-0.9c1.2,0,2.5,0.3,3.5,0.9c0.9,0.6,1.7,1.4,2.3,2.3c0.6,1,1,2.1,1.2,3.2
	C751.6,120.4,751.6,122.8,751.2,125.2z M750.6,118.2c-0.2-1.1-0.6-2.1-1.1-3.1c-0.5-0.9-1.2-1.7-2.1-2.3c-2.1-1.2-4.6-1.2-6.6,0
	c-0.9,0.6-1.6,1.3-2.1,2.3c-0.5,1-0.9,2-1.1,3.1c-0.4,2.2-0.4,4.5,0,6.7c0.2,1.1,0.6,2.1,1.1,3.1c0.5,0.9,1.2,1.7,2.1,2.2
	c2.1,1.2,4.6,1.2,6.6,0c0.9-0.6,1.6-1.3,2.1-2.3c0.5-1,0.9-2,1.1-3.1C751,122.7,751,120.4,750.6,118.2z"/>
<path class="st1" d="M764,112.6c-0.6,0.9-1.4,1.6-2.3,2.1c-0.9,0.6-1.9,1-2.9,1.3v-0.6c0.5-0.2,1.1-0.4,1.6-0.6
	c0.4-0.2,0.9-0.5,1.3-0.8c0.4-0.3,0.8-0.6,1.2-1c0.4-0.4,0.8-0.8,1.2-1.2h0.6v19.5h-0.6L764,112.6L764,112.6z"/>
<path class="st1" d="M788.7,122.3c0.9,1,1.4,2.3,1.3,3.6c0,0.9-0.2,1.8-0.6,2.6c-0.4,0.7-0.9,1.3-1.5,1.8c-0.7,0.5-1.4,0.8-2.3,1
	c-1.8,0.4-3.7,0.4-5.4,0c-0.8-0.2-1.6-0.5-2.3-1c-0.6-0.5-1.2-1.1-1.5-1.8c-0.4-0.8-0.6-1.7-0.6-2.6c-0.1-1.3,0.4-2.6,1.3-3.6
	c1-1,2.3-1.5,3.7-1.6v-0.1c-0.5-0.1-1.1-0.2-1.6-0.5c-0.5-0.2-0.9-0.5-1.3-0.9c-0.8-0.7-1.2-1.7-1.2-2.8c0-0.8,0.1-1.5,0.5-2.3
	c0.3-0.6,0.8-1.1,1.3-1.5c0.6-0.4,1.2-0.7,2-0.9c1.6-0.4,3.2-0.4,4.8,0c0.7,0.2,1.4,0.5,2,0.9c0.6,0.4,1,0.9,1.3,1.5
	c0.3,0.7,0.5,1.5,0.5,2.3c0,1.1-0.4,2.1-1.2,2.8c-0.4,0.4-0.8,0.7-1.3,0.9c-0.5,0.2-1,0.4-1.6,0.5v0.1
	C786.4,120.7,787.7,121.3,788.7,122.3z M788.9,123.5c-0.4-0.6-0.8-1.1-1.5-1.5c-0.6-0.4-1.3-0.7-2.1-0.8c-1.6-0.3-3.3-0.3-4.9,0
	c-0.7,0.1-1.4,0.4-2.1,0.8c-0.6,0.4-1.1,0.9-1.4,1.5c-0.4,0.7-0.6,1.5-0.5,2.3c0,0.8,0.2,1.6,0.5,2.4c0.3,0.6,0.8,1.2,1.4,1.6
	c0.6,0.4,1.3,0.7,2.1,0.9c1.6,0.4,3.3,0.4,4.9,0c0.7-0.2,1.4-0.5,2.1-0.9c0.6-0.4,1.1-1,1.4-1.6c0.4-0.7,0.6-1.6,0.5-2.4
	C789.4,125.1,789.3,124.3,788.9,123.5L788.9,123.5z M788,114.3c-0.3-0.5-0.7-1-1.3-1.3c-0.5-0.4-1.1-0.6-1.8-0.7
	c-1.4-0.3-2.7-0.3-4.1,0c-0.6,0.1-1.2,0.4-1.8,0.7c-0.5,0.3-1,0.8-1.3,1.3c-0.3,0.6-0.5,1.4-0.5,2.1c0,0.6,0.2,1.3,0.5,1.8
	c0.3,0.5,0.8,0.9,1.3,1.2c0.6,0.3,1.2,0.6,1.8,0.7c1.3,0.3,2.6,0.3,3.9,0c0.6-0.1,1.2-0.4,1.8-0.7c0.5-0.3,1-0.7,1.3-1.2
	c0.3-0.5,0.5-1.2,0.5-1.8C788.5,115.7,788.3,115,788,114.3L788,114.3z"/>
<path class="st1" d="M798,131.4v-2.8h0.6v2.8H798z"/>
<path class="st1" d="M814.2,112.6c-0.6,0.9-1.4,1.6-2.3,2.1c-0.9,0.6-1.9,1-2.9,1.3v-0.6c0.5-0.2,1.1-0.4,1.6-0.6
	c0.5-0.2,0.9-0.5,1.3-0.8c0.4-0.3,0.8-0.6,1.2-1c0.4-0.4,0.8-0.8,1.2-1.2h0.6v19.5h-0.6L814.2,112.6L814.2,112.6z"/>
<path class="st1" d="M840.1,125.2c-0.2,1.1-0.6,2.2-1.2,3.2c-0.6,0.9-1.3,1.7-2.3,2.3c-2.2,1.1-4.8,1.1-7,0
	c-0.9-0.6-1.7-1.4-2.3-2.3c-0.6-1-1-2.1-1.2-3.2c-0.5-2.4-0.5-4.9,0-7.3c0.2-1.1,0.6-2.2,1.2-3.2c0.6-0.9,1.3-1.7,2.3-2.3
	c2.2-1.2,4.8-1.2,7,0c0.9,0.6,1.7,1.4,2.3,2.3c0.6,1,1,2.1,1.2,3.2C840.6,120.4,840.6,122.8,840.1,125.2z M839.6,118.2
	c-0.2-1.1-0.6-2.1-1.1-3.1c-0.5-0.9-1.2-1.7-2.1-2.3c-2.1-1.2-4.6-1.2-6.6,0c-0.9,0.6-1.6,1.3-2.1,2.3c-0.5,1-0.9,2-1.1,3.1
	c-0.4,2.2-0.4,4.5,0,6.7c0.2,1.1,0.6,2.1,1.1,3.1c0.5,0.9,1.2,1.7,2.1,2.2c2.1,1.2,4.6,1.2,6.6,0c0.9-0.6,1.6-1.3,2.1-2.3
	c0.5-1,0.9-2,1.1-3.1C840,122.7,840,120.4,839.6,118.2z"/>
<path class="st1" d="M848.2,131.4v-2.8h0.6v2.8H848.2z"/>
<path class="st1" d="M870.6,131.4h-13.1c0-0.8,0.1-1.6,0.5-2.2c0.4-0.7,0.9-1.3,1.4-1.9c0.6-0.6,1.3-1.2,2-1.7l2.2-1.6
	c0.8-0.5,1.5-1,2.2-1.6c0.7-0.5,1.3-1.1,1.9-1.7c0.5-0.6,1-1.2,1.3-1.9c0.3-0.7,0.5-1.4,0.5-2.1c0-0.7-0.1-1.4-0.4-2
	c-0.3-0.6-0.7-1.1-1.1-1.5c-0.5-0.4-1.1-0.7-1.7-0.9c-0.7-0.2-1.4-0.3-2.2-0.3c-0.9,0-1.8,0.1-2.6,0.5c-0.7,0.3-1.3,0.7-1.8,1.3
	c-0.5,0.6-0.8,1.3-1,2c-0.2,0.8-0.3,1.6-0.3,2.5h-0.6c-0.1-1.8,0.5-3.6,1.6-5c1.2-1.2,2.9-1.9,4.7-1.8c0.8,0,1.6,0.1,2.3,0.3
	c0.7,0.2,1.3,0.5,1.9,1c0.5,0.4,1,1,1.3,1.6c0.8,1.7,0.6,3.7-0.4,5.2c-0.6,0.9-1.3,1.8-2.2,2.5c-0.9,0.8-1.8,1.5-2.8,2.2
	c-1,0.7-2,1.3-2.8,2c-0.8,0.6-1.6,1.3-2.3,2.1c-0.6,0.6-1,1.5-1.1,2.3h12.6L870.6,131.4z"/>
<path class="st1" d="M883.8,112.6c-0.6,0.8-1.4,1.6-2.3,2.1c-0.9,0.6-1.9,1-2.9,1.3v-0.6c0.5-0.2,1.1-0.4,1.6-0.6
	c0.5-0.2,0.9-0.5,1.3-0.8c0.4-0.3,0.8-0.6,1.2-1c0.4-0.4,0.8-0.8,1.2-1.2h0.6v19.5h-0.6L883.8,112.6L883.8,112.6z"/>
<path class="st1" d="M920.8,114c-0.3-0.7-0.8-1.3-1.4-1.8c-0.6-0.5-1.3-0.8-2.1-1c-0.8-0.2-1.7-0.3-2.6-0.3c-0.7,0-1.5,0.1-2.2,0.2
	c-0.7,0.1-1.4,0.4-2.1,0.8c-0.6,0.4-1.1,0.9-1.5,1.4c-0.4,0.7-0.6,1.5-0.6,2.3c0,0.8,0.2,1.6,0.6,2.2c0.4,0.6,1,1,1.6,1.3
	c0.7,0.4,1.5,0.6,2.3,0.8l2.6,0.6l2.7,0.7c0.8,0.2,1.5,0.5,2.2,0.9c0.6,0.4,1.1,0.9,1.5,1.5c0.4,0.8,0.6,1.7,0.6,2.6
	c0,0.9-0.2,1.7-0.6,2.5c-0.4,0.7-1,1.3-1.7,1.7c-0.7,0.5-1.5,0.8-2.3,1c-0.9,0.2-1.7,0.3-2.6,0.3c-1.1,0-2.2-0.1-3.2-0.4
	c-0.9-0.2-1.8-0.7-2.5-1.3c-0.7-0.6-1.3-1.4-1.7-2.3c-0.4-1.1-0.6-2.2-0.6-3.3h0.6c0,1.1,0.2,2.1,0.5,3.1c0.3,0.8,0.9,1.5,1.5,2.1
	c0.7,0.6,1.5,0.9,2.3,1.2c1,0.2,2,0.4,3,0.4c0.8,0,1.6-0.1,2.4-0.3c0.8-0.2,1.5-0.5,2.1-0.9c0.6-0.4,1.1-0.9,1.5-1.6
	c0.4-0.7,0.6-1.5,0.6-2.3c0-0.9-0.2-1.7-0.7-2.4c-0.4-0.6-1-1.1-1.7-1.4c-0.7-0.4-1.5-0.6-2.3-0.8c-0.8-0.2-1.7-0.4-2.5-0.6
	s-1.7-0.4-2.5-0.6c-0.8-0.2-1.5-0.5-2.2-0.9c-0.6-0.4-1.2-0.9-1.6-1.5c-0.4-0.7-0.6-1.6-0.6-2.4c-0.1-1.7,0.8-3.3,2.3-4.2
	c0.7-0.4,1.5-0.7,2.3-0.9c0.8-0.2,1.6-0.3,2.5-0.3c0.9,0,1.9,0.1,2.8,0.3c0.8,0.2,1.6,0.6,2.2,1.1c0.7,0.5,1.2,1.2,1.5,1.9
	c0.4,0.9,0.6,1.9,0.7,2.9h-0.6C921.4,115.7,921.1,114.8,920.8,114z"/>
<path class="st1" d="M943.7,110.9v12.8c0,2.8-0.6,4.8-1.9,6.1c-3.3,2.6-7.9,2.6-11.2,0c-1.3-1.3-1.9-3.4-1.9-6.1v-12.8h0.6v12.8
	c-0.1,2,0.5,4,1.7,5.6c1.1,1.3,2.9,1.9,5.3,1.9s4.1-0.6,5.2-1.9c1.2-1.6,1.8-3.6,1.7-5.6v-12.8H943.7z"/>
<path class="st1" d="M951.1,110.9l14,19.8h0.1v-19.8h0.6v20.5h-0.9l-14-19.8h-0.1v19.8h-0.6v-20.5H951.1z"/>
<path class="st1" d="M991.3,110.4h0.6l-9.4,21.4h-0.5L991.3,110.4z"/>
<path class="st1" d="M1008,131.4v-20.5h8.4c1.7-0.1,3.3,0.3,4.7,1.3c1.1,1,1.6,2.5,1.5,4c0.1,1.2-0.3,2.5-1.1,3.4
	c-0.9,1-2,1.6-3.3,1.8v0.1c0.7,0.1,1.4,0.3,2.1,0.6c0.5,0.3,0.9,0.7,1.2,1.2c0.3,0.5,0.5,1.1,0.6,1.7c0.1,0.7,0.2,1.5,0.2,2.2
	c0,0.3,0,0.7,0,1.1c0,0.4,0,0.9,0.1,1.3s0.1,0.8,0.2,1.1c0,0.3,0.1,0.5,0.2,0.7h-0.6c-0.1-0.3-0.2-0.6-0.2-0.9
	c0-0.4-0.1-0.7-0.1-1.1s0-0.8-0.1-1.2s0-0.8,0-1.1c0-0.8-0.1-1.5-0.2-2.3c-0.1-0.6-0.4-1.2-0.8-1.7c-0.4-0.5-1-0.8-1.6-1
	c-0.9-0.3-1.9-0.4-2.8-0.4h-7.7v9.6L1008,131.4z M1016.2,121.2c0.7,0,1.5-0.1,2.2-0.3c0.7-0.2,1.3-0.5,1.8-0.9c0.5-0.4,1-1,1.3-1.6
	c0.3-0.7,0.5-1.5,0.5-2.3c0.1-1.3-0.4-2.5-1.3-3.4c-1.2-0.9-2.7-1.4-4.2-1.2h-7.9v9.7L1016.2,121.2z"/>
<path class="st1" d="M1028.7,121.1c0.3-0.9,0.7-1.7,1.3-2.4c0.6-0.7,1.3-1.3,2.1-1.7c1.8-0.9,3.9-0.9,5.7,0c0.8,0.4,1.5,1,2.1,1.7
	c0.6,0.7,1,1.6,1.3,2.4c0.6,1.9,0.6,3.9,0,5.8c-0.3,0.9-0.7,1.7-1.3,2.4c-0.6,0.7-1.3,1.3-2.1,1.7c-0.9,0.4-1.9,0.7-2.9,0.6
	c-1,0-2-0.2-2.8-0.6c-0.8-0.4-1.5-1-2.1-1.7c-0.6-0.7-1-1.6-1.3-2.4C1028.1,125,1028.1,123,1028.7,121.1z M1029.2,126.7
	c0.2,0.8,0.6,1.6,1.2,2.3c1.1,1.4,2.8,2.2,4.5,2.2c0.9,0,1.8-0.2,2.6-0.6c0.7-0.4,1.4-0.9,1.9-1.6c0.5-0.7,0.9-1.5,1.2-2.3
	c0.5-1.7,0.5-3.6,0-5.4c-0.2-0.8-0.6-1.6-1.2-2.3c-0.5-0.7-1.2-1.2-1.9-1.6c-0.8-0.4-1.7-0.6-2.6-0.6c-0.9,0-1.8,0.2-2.6,0.6
	c-0.7,0.4-1.4,0.9-1.9,1.6c-0.5,0.7-0.9,1.5-1.2,2.3C1028.7,123.1,1028.7,124.9,1029.2,126.7z"/>
<path class="st1" d="M1047.4,136.4v-19.8h0.6v4.1h0.1c0.2-0.6,0.5-1.2,0.8-1.8c0.4-0.5,0.8-1,1.3-1.4c0.5-0.4,1.1-0.7,1.7-0.9
	c0.7-0.2,1.4-0.3,2.1-0.3c1.8,0,3.5,0.8,4.6,2.2c0.6,0.7,1,1.6,1.2,2.4c0.6,2,0.6,4,0,6c-0.3,0.9-0.7,1.7-1.2,2.5
	c-0.5,0.7-1.2,1.3-2,1.7c-0.8,0.4-1.8,0.6-2.7,0.6c-1.4,0.1-2.8-0.4-3.9-1.2c-1-0.8-1.7-2-2-3.2h-0.1v9.2L1047.4,136.4z
	 M1056.5,130.5c0.7-0.4,1.3-1,1.8-1.7c0.5-0.7,0.8-1.5,1-2.3c0.2-0.8,0.3-1.7,0.3-2.6c0-0.9-0.1-1.8-0.4-2.7
	c-0.2-0.8-0.6-1.6-1.1-2.3c-0.5-0.7-1.1-1.2-1.8-1.6c-0.8-0.4-1.6-0.6-2.5-0.6c-1.7,0-3.3,0.8-4.4,2.1c-0.5,0.7-0.9,1.4-1.2,2.3
	c-0.3,0.9-0.4,1.8-0.4,2.7c-0.1,1.9,0.5,3.8,1.6,5.3c1.1,1.2,2.7,1.9,4.3,1.9C1054.8,131.1,1055.7,130.9,1056.5,130.5z"/>
<path class="st1" d="M1066.2,136.4v-19.8h0.6v4.1h0.1c0.2-0.6,0.5-1.2,0.8-1.8c0.4-0.5,0.8-1,1.3-1.4c0.5-0.4,1.1-0.7,1.7-0.9
	c0.7-0.2,1.4-0.3,2.1-0.3c1.8,0,3.5,0.8,4.6,2.2c0.6,0.7,1,1.6,1.3,2.4c0.3,1,0.4,2.1,0.4,3.1c0,1-0.1,2-0.4,3
	c-0.3,0.9-0.7,1.7-1.2,2.5c-0.5,0.7-1.2,1.3-2,1.7c-0.8,0.4-1.8,0.6-2.7,0.6c-1.4,0.1-2.8-0.4-3.9-1.2c-1-0.8-1.7-2-2-3.2h-0.1v9.2
	L1066.2,136.4z M1075.3,130.5c0.7-0.4,1.3-1,1.8-1.7c0.5-0.7,0.8-1.5,1-2.3c0.2-0.8,0.3-1.7,0.3-2.6c0-0.9-0.1-1.8-0.4-2.7
	c-0.2-0.8-0.6-1.6-1.1-2.2c-0.5-0.7-1.1-1.2-1.8-1.6c-0.8-0.4-1.6-0.6-2.5-0.6c-0.9,0-1.7,0.2-2.5,0.6c-0.7,0.4-1.4,0.9-1.9,1.6
	c-0.5,0.7-0.9,1.4-1.2,2.3c-0.3,0.9-0.4,1.8-0.4,2.7c-0.1,1.9,0.5,3.8,1.6,5.3c1.1,1.2,2.7,1.9,4.3,1.9
	C1073.6,131.2,1074.5,130.9,1075.3,130.5z"/>
<path class="st1" d="M1084.7,121.1c0.3-0.9,0.7-1.7,1.3-2.4c0.6-0.7,1.3-1.3,2.1-1.7c1.8-0.9,3.9-0.9,5.7,0c0.8,0.4,1.5,1,2.1,1.7
	c0.6,0.7,1,1.6,1.3,2.4c0.6,1.9,0.6,3.9,0,5.8c-0.3,0.9-0.7,1.7-1.3,2.4c-0.6,0.7-1.3,1.3-2.1,1.7c-0.9,0.4-1.9,0.7-2.9,0.6
	c-1,0-2-0.2-2.8-0.6c-0.8-0.4-1.5-1-2.1-1.7c-0.6-0.7-1-1.6-1.3-2.4C1084.1,125,1084.1,123,1084.7,121.1z M1085.2,126.7
	c0.2,0.8,0.6,1.6,1.2,2.3c1.1,1.4,2.8,2.2,4.5,2.2c0.9,0,1.8-0.2,2.6-0.6c0.7-0.4,1.4-0.9,1.9-1.6c0.5-0.7,0.9-1.5,1.2-2.3
	c0.5-1.7,0.5-3.6,0-5.4c-0.2-0.8-0.6-1.6-1.2-2.3c-0.5-0.7-1.2-1.2-1.9-1.6c-0.8-0.4-1.7-0.6-2.6-0.6c-0.9,0-1.8,0.2-2.6,0.6
	c-0.7,0.4-1.4,0.9-1.9,1.6c-0.5,0.7-0.9,1.5-1.2,2.3C1084.7,123.1,1084.7,124.9,1085.2,126.7z"/>
<path class="st1" d="M1104,116.6v3.7h0.1c0.2-1.1,0.9-2.1,1.8-2.8c0.5-0.4,1-0.7,1.6-0.8c0.6-0.2,1.3-0.3,2-0.3
	c0.7,0,1.4,0.1,2.1,0.3c1.3,0.4,2.3,1.4,2.8,2.7c0.3,0.7,0.4,1.5,0.4,2.3v9.8h-0.6v-9.7c0-0.7-0.1-1.5-0.4-2.2
	c-0.2-0.6-0.6-1.1-1-1.5c-0.4-0.4-0.9-0.7-1.5-0.9c-0.6-0.2-1.2-0.3-1.8-0.3c-0.8,0-1.6,0.2-2.3,0.5c-0.7,0.3-1.2,0.8-1.7,1.3
	c-0.5,0.6-0.8,1.3-1,2c-0.2,0.8-0.3,1.5-0.3,2.3v8.4h-0.6v-14.8H1104z"/>
<path class="st1" d="M1132.3,126.4c-0.1,0.6-0.4,1.2-0.8,1.8c-0.4,0.5-0.9,0.9-1.4,1.3c-0.5,0.4-1.1,0.6-1.7,0.8
	c-0.6,0.2-1.2,0.3-1.9,0.3c-0.9,0-1.9-0.2-2.7-0.6c-0.7-0.4-1.4-0.9-1.9-1.5c-0.5-0.7-0.9-1.4-1.2-2.3c-0.3-0.9-0.4-1.8-0.4-2.7
	c0-0.9,0.1-1.9,0.4-2.8c0.3-0.8,0.7-1.6,1.2-2.3c0.5-0.7,1.2-1.2,2-1.6c0.9-0.4,1.8-0.6,2.7-0.6c0.7,0,1.4,0.1,2,0.3
	c0.6,0.2,1.2,0.5,1.7,0.9c0.5,0.4,0.9,0.8,1.2,1.3c0.3,0.5,0.6,1.1,0.7,1.7h0.1v-3.9h0.6v14.3c0.1,1.6-0.4,3.3-1.6,4.5
	c-1.3,1-2.9,1.5-4.5,1.4c-0.7,0-1.4-0.1-2.1-0.3c-0.6-0.2-1.2-0.4-1.8-0.8c-0.5-0.4-0.9-0.9-1.2-1.4c-0.3-0.7-0.5-1.4-0.5-2.1h0.6
	c0,0.6,0.2,1.3,0.4,1.9c0.3,0.5,0.6,0.9,1.1,1.3c0.5,0.3,1,0.6,1.6,0.7c0.6,0.2,1.2,0.2,1.9,0.2c1.5,0.1,3-0.4,4.1-1.3
	c1-1.1,1.6-2.5,1.4-4L1132.3,126.4L1132.3,126.4z M1132,121c-0.2-0.8-0.6-1.5-1.1-2.1c-0.5-0.6-1.1-1.1-1.8-1.5
	c-0.8-0.4-1.6-0.6-2.4-0.6c-0.9,0-1.7,0.2-2.5,0.5c-0.7,0.3-1.3,0.8-1.8,1.4c-0.5,0.6-0.9,1.4-1.1,2.1c-0.2,0.8-0.4,1.7-0.3,2.6
	c0,0.9,0.1,1.7,0.3,2.6c0.2,0.7,0.6,1.4,1.1,2c0.5,0.6,1.1,1.1,1.7,1.4c0.7,0.3,1.6,0.5,2.4,0.5c0.9,0,1.7-0.2,2.5-0.5
	c0.7-0.3,1.3-0.8,1.8-1.4c0.5-0.6,0.9-1.3,1.1-2c0.3-0.8,0.4-1.7,0.4-2.5C1132.4,122.6,1132.3,121.8,1132,121z"/>
<path class="st1" d="M1139.5,113.8v-2.9h0.6v2.9H1139.5z M1139.5,131.3v-14.7h0.6v14.8L1139.5,131.3z"/>
<path class="st1" d="M1149.3,131.4c0,0.7-0.1,1.4-0.3,2.1c-0.2,0.5-0.5,1-1,1.3v-0.6c0.3-0.3,0.4-0.6,0.5-1c0.1-0.6,0.2-1.2,0.2-1.8
	v-2.8h0.6L1149.3,131.4z"/>
<path class="st1" d="M1167.4,110.9h15.3v0.6h-7.4v19.9h-0.6v-19.9h-7.3L1167.4,110.9z"/>
<path class="st1" d="M1186.9,121.1c0.3-0.9,0.7-1.7,1.3-2.4c0.6-0.7,1.3-1.3,2.1-1.7c0.9-0.4,1.9-0.7,2.9-0.7c1,0,2,0.2,2.8,0.7
	c0.8,0.4,1.5,1,2.1,1.7c0.6,0.7,1,1.6,1.3,2.4c0.6,1.9,0.6,3.9,0,5.8c-0.3,0.9-0.7,1.7-1.3,2.4c-2.2,2.7-6.1,3.2-8.9,1
	c-0.4-0.3-0.7-0.6-1-1c-0.6-0.7-1-1.6-1.3-2.4C1186.3,125,1186.3,123,1186.9,121.1L1186.9,121.1z M1187.5,126.7
	c0.2,0.8,0.6,1.6,1.2,2.3c0.5,0.7,1.2,1.2,1.9,1.6c1.7,0.8,3.6,0.8,5.2,0c0.7-0.4,1.4-0.9,1.9-1.6c0.5-0.7,0.9-1.5,1.2-2.3
	c0.5-1.8,0.5-3.6,0-5.4c-0.2-0.8-0.6-1.6-1.2-2.3c-0.5-0.7-1.2-1.2-1.9-1.6c-1.6-0.8-3.6-0.8-5.2,0c-0.7,0.4-1.4,0.9-1.9,1.6
	c-0.5,0.7-0.9,1.5-1.2,2.3C1186.9,123.1,1186.9,124.9,1187.5,126.7z"/>
<path class="st1" d="M1206.2,131.4h-0.6v-20.5h0.6v14.2l10.2-8.5h0.8l-6.8,5.6l7.3,9.1h-0.8l-6.9-8.7l-3.8,3.2V131.4z"/>
<path class="st1" d="M1232.2,116.6l-6.8,17.7c-0.2,0.4-0.4,0.8-0.7,1.2c-0.3,0.3-0.6,0.5-0.9,0.6c-0.3,0.1-0.7,0.2-1.1,0.2
	c-0.4,0-0.8,0-1.2,0v-0.6c0.5,0,0.9,0,1.3,0c0.3,0,0.6-0.1,0.9-0.2c0.3-0.1,0.5-0.3,0.7-0.6c0.2-0.3,0.4-0.6,0.6-1l1.1-2.7
	l-6.1-14.6h0.6l5.8,14l5.3-14L1232.2,116.6z"/>
<path class="st1" d="M1236.5,121.1c0.3-0.9,0.7-1.7,1.3-2.4c0.6-0.7,1.3-1.3,2.1-1.7c1.8-0.9,3.9-0.9,5.7,0c0.8,0.4,1.5,1,2.1,1.7
	c0.6,0.7,1,1.6,1.3,2.4c0.6,1.9,0.6,3.9,0,5.8c-0.3,0.9-0.7,1.7-1.3,2.4c-0.6,0.7-1.3,1.3-2.1,1.7c-0.9,0.4-1.9,0.7-2.9,0.6
	c-1,0-2-0.2-2.8-0.6c-0.8-0.4-1.5-1-2.1-1.7c-0.6-0.7-1-1.6-1.3-2.4C1236,125,1236,123,1236.5,121.1z M1237.1,126.7
	c0.2,0.8,0.6,1.6,1.2,2.3c1.1,1.4,2.8,2.2,4.5,2.2c0.9,0,1.8-0.2,2.6-0.6c0.7-0.4,1.4-0.9,1.9-1.6c0.5-0.7,0.9-1.5,1.2-2.3
	c0.5-1.7,0.5-3.6,0-5.4c-0.2-0.8-0.6-1.6-1.2-2.3c-0.5-0.7-1.2-1.2-1.9-1.6c-0.8-0.4-1.7-0.6-2.6-0.6c-0.9,0-1.8,0.2-2.6,0.6
	c-0.7,0.4-1.4,0.9-1.9,1.6c-0.5,0.7-0.9,1.5-1.2,2.3C1236.6,123.1,1236.6,124.9,1237.1,126.7z"/>
<path class="st1" d="M398.2,507.3H384v45.9h-2v-47.9h16.3L398.2,507.3z"/>
<path class="st1" d="M461.5,527.8v2.4h-46.4v-2.4H461.5z"/>
<path class="st1" d="M525.9,550l-0.6,2h-14c-11.8,0-17.4-2.2-22.8-10.9c-1.7,4.8-4.8,9-8.9,12.1l-1.3-1.9c2.7-2,9.2-7.2,10.9-22.1
	l2.3,0.2c-0.4,3-1,6.1-1.9,9c2.5,5.7,6.7,9.8,12.1,10.7v-25.3h-18.3v-15.7h38.5v15.7h-17.9V534h20.3v2h-20.3v13.4
	c2.5,0.4,5,0.6,7.5,0.6H525.9z M519.5,510h-33.9v11.9h33.9V510z"/>
<path class="st1" d="M554.9,515.6c-1.5,3.3-3.5,6.5-5.8,9.3l-2-1.1c4.2-4.8,7.2-10.4,8.8-16.6l2,0.5c-0.6,2.1-1.3,4.1-2.2,6.1h10.4
	v-7.4h2.3v7.4h19.1v1.9h-19.1v11.6h21.8v1.9h-16.5v19c0,1.5,0,1.6,1.7,1.6h9.1c1.2,0,1.6,0,2.1-1c0.8-1.8,1.1-6.2,1.2-7.3l2.3,0.8
	c-1,9.5-2.7,9.5-5.4,9.5h-8.3c-3.3,0-5,0-5-3.6v-19.1h-9.3c-0.8,10.4-2.7,19.4-17.1,23.6l-0.9-2.3c13.9-3.2,15.3-12.9,15.6-21.3H544
	v-1.9h22.1v-11.6H554.9z"/>
<path class="st1" d="M630.7,548.8c4.4-0.2,8.8-1.4,12.8-3.3c5.2-2.8,8.6-8.9,8.6-15.7c0-6.3-3.7-19-19.5-18.5
	c-0.8,10.5-2.3,22.2-7.3,29.8c-1,1.5-3.9,5.6-8.3,5.6c-6.6,0-8.6-9-8.6-14c0-12.3,8.2-23.6,24.5-23.6c21,0,21.8,18,21.8,20.8
	c0.1,7.5-4,14.3-10.7,17.8c-4,1.8-8.2,2.9-12.6,3.3L630.7,548.8z M610.8,532.5c0,3.6,1.3,11.9,6.2,11.9c1.1,0,3.2-0.2,6.1-4.5
	c5.3-7.8,6.5-21.3,7-28.5C619.5,512.2,610.8,519.5,610.8,532.5z"/>
<path class="st1" d="M694.6,514.6v-8.1h2.4v8.1h18.6v2H697v9.3h22v2h-21.3c3.3,6.3,11,13.7,21.7,18.7l-1.3,1.9
	c-8.5-4.1-15.8-10.5-21-18.5v22.6h-2.3v-22.8c-2.8,5.3-10.7,14.3-21,18.7l-1.7-1.9c10.3-4,18.5-12.4,21.8-18.7h-21.3v-2h22.1v-9.3
	h-18.8v-2L694.6,514.6z"/>
<path class="st1" d="M759,512.3v-5.9h2.3v5.9h20.4v2h-20.3v14.8h22.1v1.9h-20.8c4.6,6.1,12.1,13.3,21.7,17l-1.5,2.2
	c-11.1-5.4-18.7-13.8-21.5-18.3v20.9H759V532c-5.5,8.5-15.8,15.8-21.1,18.1l-1.4-1.8c9.9-4.5,18.7-13.4,21.2-17.3h-20.8V529H759
	v-14.7h-19.8v-2L759,512.3z M748.1,527.1c-1-3.4-2.3-6.7-4-9.8l2.1-0.9c1.6,3.2,2.9,6.5,3.9,9.9L748.1,527.1z M770.1,526.4
	c1.8-3.1,3.2-6.5,4-10l2.1,0.6c-0.9,3.6-2.4,7.1-4.3,10.3L770.1,526.4z"/>
<path class="st1" d="M820,506.4c-0.4,2.2-0.9,4.4-1.6,6.5h23.8v2.2h-24.5c-2.5,7-3.1,8-4.5,10.1c3.1-2.2,6-4.3,10.5-4.3
	c6.4,0,7.3,5.8,7.5,7.3c2.3-1,12.5-5,14.6-5.9l1,2.4c-10,3.5-15,5.6-15.3,5.8c0.1,1.1,0.2,2.9,0.2,4.5c0,2.1-0.1,4.2-0.3,6.3h-2.4
	c0.3-3.3,0.4-6.6,0.3-9.9c-3.1,1.4-13.3,5.9-13.3,12.2c0.1,1.9,1.3,3.5,3,4.2c1.6,0.7,3.4,1.2,10.1,1.2c4.9,0,9.9-0.3,14.8-0.9
	l0.3,2.4c-4.5,0.5-9.1,0.8-13.7,0.8c-6,0-16.6-0.3-16.6-7.6s8.4-11.2,15.3-14.5c-0.3-3.1-1.3-6.2-5.8-6.2c-6.6,0-11.8,6.2-12.5,7.3
	c-4.3,6.1-4.9,6.8-6.9,8.5l-1.8-1.6c2.3-1.9,6.3-5.6,10.6-15.3c1-2.2,1.8-4.5,2.5-6.8h-12V513h12.7c0.7-2.2,1.1-4.5,1.4-6.8
	L820,506.4z"/>
<path class="st1" d="M872.9,515.6c-1.5,3-3.3,5.8-5.5,8.4l-1.6-1.4c4-4.8,7-10.3,8.6-16.4l2.1,0.7c-0.7,2.3-1.6,4.6-2.7,6.8h15.8
	v1.9H881v12.6h9.6v2h-9.7c-0.1,1.3-0.2,2.6-0.4,3.9c2.3,5.3,5.9,9.9,10.5,13.3l-1.5,1.7c-4.2-3.1-7.9-8.5-9.7-12.2
	c-1.8,6.7-5.4,12.2-12.7,15.9l-1.4-1.8c3-1.4,11.8-5.7,13.1-20.8h-13v-2h13.1v-12.6H872.9z M910.7,509.1v43.7h-2.2v-3.4h-13.9v3.4
	h-2.3v-43.7H910.7z M908.5,511.1h-13.9v36.3h13.9L908.5,511.1z"/>
<path class="st1" d="M964.2,508.1v2.2c-2.6,2-5.1,4.2-7.5,6.5c-3,2.9-5.8,5.3-9.5,8.4c3.8-1.8,7.9-2.7,12.1-2.7
	c13,0,14.1,9.9,14.1,13.4c0,6.4-3.6,15.7-19.6,15.7c-2.6,0-14.3,0-14.3-8.7c0-5,4.9-7.6,9.3-7.6c5.8-0.2,10.6,4.3,10.8,10.1
	c0,0,0,0,0,0c0,1.4-0.4,2.7-1.2,3.8c12.4-2.2,12.4-11.3,12.4-13.3c0-6.7-3.9-11.3-12.3-11.3c-5.5,0-10.8,1.8-15.2,5.1
	c-1.9,1.4-6.4,6.3-10.2,10.3l-1.8-2c1.2-1.1,2.6-2.4,14.7-14.4c2.2-2.2,12.4-11.3,14.4-13.3l-24.9,0.3v-2.4L964.2,508.1z M957,545.1
	c-0.1-4.3-3.7-7.7-8-7.6c-0.1,0-0.1,0-0.2,0c-3.7,0-6.9,2.3-6.9,5.7c0,6.3,9.5,6.3,11.7,6.3c0.6,0,1.3,0,1.9-0.1
	C956.5,548.2,957,546.7,957,545.1L957,545.1z"/>
<path class="st1" d="M1014.3,508.7V549h-2.8v-37.8h-7.3v-2.5L1014.3,508.7z"/>
<path class="st1" d="M1087.8,509.1v43.4h-2.3v-2.5h-31.6v2.5h-2.2v-43.4H1087.8z M1053.9,528.3h31.6v-17.1h-31.6V528.3z M1053.9,548
	h31.6v-17.7h-31.6V548z"/>
<path class="st1" d="M1109.8,551.9h14.2V506h2v47.9h-16.3L1109.8,551.9z"/>
<path class="st1" d="M524,443.4c-0.8,10.7-4.9,21.1-21.7,23.5l-0.6-1.6c11.2-1.2,19.3-6.8,20.5-20.4h-23.6v-1.4H524z M521.2,442.4
	c-0.8-1.4-1.7-2.7-2.8-4l1.3-0.7c1.1,1.1,2.1,2.4,2.8,3.9L521.2,442.4z M525.6,442.7c-0.7-1.5-1.7-3-2.8-4.2l1.3-0.7
	c1.2,1.2,2.2,2.6,2.9,4.2L525.6,442.7z"/>
<path class="st1" d="M564.4,442.1v22.6h-24.9v-22.6H564.4z M562.9,443.5H541v19.8h21.9L562.9,443.5z"/>
<path class="st1" d="M585,456.1c-0.5-2.7-1.4-5.3-2.7-7.8l1.3-0.5c1.2,2.5,2.2,5.1,2.8,7.8L585,456.1z M585.2,466.1
	c6-1.2,15-4.5,16.8-18.9l1.5,0.2c-2.1,13.5-8.8,17.8-17.8,19.9L585.2,466.1z M592.3,454.7c-0.4-2.7-1.1-5.3-2.1-7.8l1.4-0.3
	c1,2.5,1.7,5.1,2.2,7.7L592.3,454.7z"/>
<path class="st1" d="M644.9,443.8c-1,5.8-3.6,11.2-7.6,15.5c-4,4.4-8.8,6.3-14.8,7.8l-0.7-1.5c4.8-1,10.2-2.7,14.5-7.5
	c3.3-3.6,5.5-8.1,6.5-12.9h-13.7c-2.1,3.2-4.8,5.9-8,8l-1-1.2c4.8-3.1,8.5-7.7,10.6-13l1.8,0.3c-0.6,1.6-1.5,3.2-2.4,4.6
	L644.9,443.8z"/>
<path class="st1" d="M675.4,450.3h11.5v1.5h-11.5v0.7c0,9.6-6.7,13-13.1,14.7l-0.7-1.4c10.6-2.5,12.3-8.4,12.3-13.3v-0.7h-14.3v-1.5
	h14.3v-7c-4.1,0.7-8.2,1.1-12.4,1.3l-0.3-1.4c7.5,0,14.9-1.3,21.9-3.7l0.9,1.4c-2.8,0.9-5.7,1.6-8.6,2.2L675.4,450.3z"/>
<path class="st1" d="M723.4,447.8v1.3h-9.1v15h10.6v1.3h-22.3V464h10.3v-15h-8.8v-1.3L723.4,447.8z"/>
<path class="st1" d="M768.3,452.6v1.6h-28.5v-1.6H768.3z"/>
<path class="st1" d="M792,447.9c-3.2-2-6.6-3.6-10.2-4.7l0.9-1.4c3.6,1.1,7,2.6,10.2,4.6L792,447.9z M782.3,464.5
	c17.2-1.1,23.1-14.5,24.8-20.1l1.4,0.5c-6.5,18.6-19.6,20.6-25.8,21.2L782.3,464.5z"/>
<path class="st1" d="M834.3,465.5c2.8-0.1,5.5-0.8,8-2.1c3.5-2.1,5.5-5.8,5.4-9.9c0-4-2.3-12-12.3-11.6c-0.5,6.6-1.5,13.9-4.6,18.7
	c-0.6,0.9-2.4,3.5-5.2,3.5c-4.2,0-5.4-5.7-5.4-8.8c0-7.7,5.1-14.8,15.4-14.8c13.2,0,13.7,11.3,13.7,13.1c0,4.7-2.5,9-6.7,11.2
	c-2.5,1.1-5.2,1.8-7.9,2L834.3,465.5z M821.9,455.2c0,2.3,0.8,7.5,3.9,7.5c0.7,0,2-0.1,3.8-2.9c3.3-4.9,4.1-13.4,4.4-17.9
	C827.3,442.5,821.9,447.1,821.9,455.2L821.9,455.2z"/>
<path class="st1" d="M867.9,452.3c-1.9,1.6-3.1,4-3.2,6.5c0,1.6,0.7,3.2,2,4.2c1.8,1.4,3.8,1.8,8.4,1.8c6.2,0,9.6-0.2,12.6-0.4v1.6
	c-1.3,0.1-5.1,0.3-11.6,0.3c-5.8,0-8-0.4-9.9-1.7c-1.9-1.3-3-3.4-3-5.7c0-3.1,1.8-5.5,3.4-7.5L867.9,452.3z M885.5,443.3
	c-4.4,0.5-9.6,3.3-10.9,4l-1-1.2c2.3-1.2,4.6-2.2,7.1-3c-1,0-1.7,0-7.2,0.1c-0.3,0-5.9,0.2-8.4,0.2v-1.6c3.4,0,18.2,0.1,20.4,0
	L885.5,443.3z"/>
<path class="st1" d="M909.8,439.4c-0.1,0.9-0.2,1.8-0.2,2.7c0,2.7-0.1,3.3-0.1,6.4c4-4.5,8-7.1,11.5-7.1c4.5,0,4.5,4,4.5,5
	c0,1.1-0.2,4.1-0.4,7s-0.4,5.8-0.4,6.8c0,2.5,0.3,4.2,5.7,4.1l-0.3,1.4c-6.3,0.3-7-2.3-7-5.8c0-1.1,0.2-4,0.5-6.8s0.4-5.6,0.4-6.6
	c0-1.4,0-3.8-3.1-3.8c-3.6,0-8.2,3.6-11.4,7.6c0,2.3-0.1,12.6-0.2,14.7c0,0.8,0,1.3,0,2h-1.6c0.1-1.9,0.1-4.9,0.1-6.8
	c0-2.1,0.1-4.6,0.1-7.5c-1.4,3.1-3.2,5.9-5.5,8.4l-1.2-1.2c3.2-2.7,5.3-6.6,6.8-10.7c0-0.4,0-2.4,0-3l-6.1,0.2V445h6.2
	c0-3.3,0-3.6,0-5.6L909.8,439.4z"/>
<path class="st1" d="M951.2,439.4c-0.5,3.2-0.7,4.6-1,6.1h4c3.4,0,7.3,0,7.3,7.5c0,0.3,0,6.9-1.7,10.6c-1.3,2.7-3.2,3.1-5.2,3.1
	c-1.9,0-3.7-0.2-5.5-0.5l0.1-1.5c1.8,0.3,3.6,0.5,5.5,0.6c2.3,0,3.3-0.6,4.2-3.2c0.8-2.9,1.2-5.8,1.1-8.8c0-6.5-2.1-6.5-7.9-6.4
	h-2.1c-1.2,6.9-3.3,13.6-6.1,20l-1.4-0.6c2.8-6.2,4.8-12.7,6-19.4l-5.8,0.1v-1.4h6.1c0-0.1,0.4-2.4,0.9-6.2L951.2,439.4z
	 M968.6,456.3c-0.8-7.9-3.2-10.9-5.2-12.9l1.2-0.8c1.3,1.3,4.8,4.6,5.6,13.4L968.6,456.3z"/>
<path class="st1" d="M988.7,443.9c-0.9,2.4-1.2,3.3-1.2,10.9c3.6-3.8,9.6-5,13.2-5c5.3,0,8.5,2.9,8.5,7.3c0,9.5-11.5,9.5-15.7,9.5
	c-2.2,0-4.4-0.1-6.6-0.4l-0.2-1.4c2.4,0.3,4.7,0.4,7.1,0.4c4.9,0,13.8-0.4,13.8-8.2c0-5.4-5.5-5.9-7.1-5.9c-5.6,0-11.2,2.4-12.9,5.4
	c0,0.2,0,0.3-0.1,0.5H986c0-1-0.1-2.7-0.1-4.5c0-6.1,0.6-7.5,1.3-9.3L988.7,443.9z M1003.5,442.9c-3-1.2-5.9-1.9-12.5-2.3l0.3-1.5
	c2.9,0.2,8.4,0.6,12.8,2.1L1003.5,442.9z"/>
<path class="st1" d="M275.6,175.8c2.2,0,4.4,0.3,6.5,0.9c1.9,0.6,3.7,1.5,5.3,2.8c1.5,1.2,2.7,2.8,3.5,4.6c0.9,2,1.3,4.2,1.3,6.4
	c0,3.4-1.3,6.7-3.5,9.2c-2.3,2.5-5.5,4-8.9,4.2v0.2c1.9,0.1,3.7,0.4,5.5,1.1c1.7,0.7,3.2,1.6,4.5,2.9c1.3,1.3,2.4,2.8,3.1,4.5
	c0.8,1.9,1.2,3.9,1.1,6c0.1,2.4-0.4,4.8-1.4,6.9c-0.9,2-2.3,3.7-4,5c-1.8,1.4-3.9,2.4-6.1,3c-2.5,0.7-5.1,1-7.8,1h-24.2v-58.6H275.6
	z M275.6,203.1c1.9,0,3.8-0.3,5.6-0.8c1.7-0.5,3.3-1.3,4.7-2.4c1.4-1.1,2.5-2.4,3.3-4c0.8-1.7,1.3-3.6,1.2-5.5c0.1-2-0.3-4-1.1-5.8
	c-0.7-1.6-1.8-2.9-3.2-4c-1.4-1.1-3-1.9-4.7-2.4c-1.9-0.5-3.9-0.8-5.8-0.8H252v25.6H275.6z M275.4,232.8c2.3,0,4.5-0.3,6.7-0.9
	c1.9-0.5,3.8-1.4,5.3-2.6c1.5-1.2,2.7-2.7,3.6-4.4c0.9-2,1.4-4.1,1.3-6.3c0.1-2.3-0.4-4.5-1.4-6.5c-0.9-1.7-2.2-3.2-3.8-4.3
	c-1.6-1.1-3.4-1.9-5.3-2.4c-2-0.5-4.1-0.7-6.1-0.7H252v28.1L275.4,232.8z"/>
<path class="st1" d="M319.3,175.8v58.7h-1.6v-58.7H319.3z"/>
<path class="st1" d="M343.8,205c0.8-2.5,2-4.9,3.7-7c1.6-2,3.7-3.7,6-4.9c5.2-2.5,11.2-2.5,16.4,0c2.3,1.2,4.4,2.9,6,4.9
	c1.6,2.1,2.9,4.5,3.6,7c1.6,5.4,1.6,11.2,0,16.7c-0.8,2.5-2,4.9-3.6,7c-1.6,2-3.7,3.7-6,4.8c-2.6,1.3-5.4,1.9-8.2,1.8
	c-2.8,0.1-5.6-0.6-8.1-1.8c-2.3-1.2-4.4-2.8-6-4.8c-1.6-2.1-2.9-4.5-3.7-7C342.2,216.2,342.2,210.4,343.8,205z M345.3,221.1
	c0.7,2.4,1.8,4.6,3.3,6.5c1.5,1.9,3.3,3.4,5.5,4.5c4.7,2.3,10.2,2.3,15,0c2.1-1.1,4-2.6,5.5-4.5c1.5-2,2.6-4.2,3.3-6.5
	c0.7-2.5,1.1-5.1,1.1-7.7c0-2.6-0.4-5.2-1.1-7.6c-0.7-2.4-1.8-4.6-3.3-6.5c-1.5-1.9-3.3-3.4-5.5-4.6c-4.7-2.3-10.2-2.3-15,0
	c-2.1,1.1-4,2.7-5.5,4.6c-1.5,1.9-2.6,4.2-3.3,6.5c-0.7,2.5-1.1,5.1-1.1,7.6C344.2,216,344.6,218.6,345.3,221.1L345.3,221.1z"/>
<path class="st1" d="M436.1,226.5c-0.9,1.8-2.1,3.5-3.7,4.8c-1.5,1.3-3.3,2.3-5.3,3c-2.1,0.7-4.4,1.1-6.6,1.1
	c-2.8,0.1-5.5-0.5-8-1.7c-2.3-1.1-4.3-2.6-5.9-4.6c-1.6-2-2.8-4.3-3.6-6.7c-0.8-2.6-1.3-5.4-1.2-8.2c0-3,0.4-5.9,1.2-8.8
	c0.7-2.6,2-5.1,3.6-7.3c1.6-2.1,3.8-3.9,6.2-5.1c2.7-1.3,5.7-2,8.8-1.9c1.9,0,3.8,0.3,5.7,0.9c1.8,0.6,3.4,1.5,4.9,2.6
	c1.5,1.2,2.7,2.7,3.6,4.3c1,1.9,1.6,3.9,1.8,6h-1.7c-0.3-1.9-0.9-3.7-1.8-5.4c-0.8-1.4-1.9-2.7-3.2-3.8c-1.3-1-2.7-1.8-4.3-2.3
	c-1.6-0.5-3.3-0.7-5-0.7c-3-0.1-5.9,0.6-8.5,1.9c-2.2,1.2-4.1,2.9-5.6,5c-1.4,2.1-2.4,4.4-3,6.9c-0.6,2.5-0.9,5-0.9,7.5
	c0,2.5,0.4,5,1.1,7.4c0.7,2.3,1.8,4.4,3.2,6.2c1.4,1.8,3.3,3.3,5.3,4.3c2.3,1.1,4.8,1.7,7.4,1.6c2,0,4-0.3,5.8-1
	c3.5-1.2,6.5-3.7,8.2-7.1c0.9-1.8,1.4-3.7,1.6-5.7h1.6C437.7,222.3,437.1,224.5,436.1,226.5z"/>
<path class="st1" d="M463,234.5h-1.6v-58.7h1.6v40.7l29.2-24.2h2.4l-19.4,16.1l20.8,26.1h-2.2l-19.8-25l-10.9,9L463,234.5z"/>
<path class="st1" d="M561.4,221.3c-1.3,2.9-3.1,5.5-5.3,7.7c-2.2,2.2-4.8,3.9-7.7,5c-3.2,1.2-6.6,1.9-10,1.8
	c-3.7,0-7.4-0.7-10.7-2.3c-3.2-1.5-6.1-3.6-8.4-6.2c-2.4-2.8-4.3-6-5.5-9.5c-1.4-3.9-2-8-2-12.1c0-3.7,0.5-7.3,1.5-10.9
	c1-3.6,2.6-7,4.8-10.1c2.3-3.1,5.2-5.6,8.5-7.4c3.9-2,8.3-3,12.7-2.9c3.5-0.1,7,0.6,10.2,1.9c2.7,1.2,5.2,2.8,7.3,4.9
	c1.8,1.8,3.3,3.9,4.4,6.2c0.9,1.9,1.4,3.9,1.6,6h-1.6c-0.2-2.2-0.8-4.3-1.9-6.3c-1.1-2.1-2.7-4-4.5-5.6c-2-1.7-4.3-3.1-6.7-4
	c-6.9-2.4-14.4-1.9-20.9,1.4c-3.2,1.8-5.9,4.3-8,7.3c-2,2.9-3.5,6.1-4.4,9.6c-0.9,3.2-1.3,6.5-1.4,9.8c0,3.7,0.5,7.3,1.7,10.8
	c1,3.3,2.7,6.4,4.8,9.1c2.1,2.6,4.8,4.8,7.8,6.3c3.3,1.6,6.9,2.4,10.6,2.4c3.2,0.1,6.4-0.5,9.5-1.7c2.7-1.1,5.2-2.7,7.2-4.8
	c2.1-2.1,3.7-4.5,4.9-7.2c1.3-2.9,2.1-5.9,2.5-9h1.6C563.7,214.9,562.8,218.2,561.4,221.3z"/>
<path class="st1" d="M588.7,175.8v26.9h0.2c0.4-1.6,1-3.1,1.8-4.5c0.9-1.4,1.9-2.6,3.2-3.6c1.3-1.1,2.9-1.9,4.5-2.4
	c1.8-0.6,3.7-0.9,5.7-0.9c2,0,4.1,0.3,6,1c1.8,0.6,3.4,1.6,4.8,2.9c1.4,1.3,2.5,3,3.1,4.8c0.8,2.1,1.2,4.3,1.1,6.5v28h-1.6v-27.8
	c0.1-2.1-0.3-4.3-1.1-6.3c-0.6-1.6-1.6-3.1-2.9-4.3c-1.2-1.1-2.7-2-4.3-2.5c-1.7-0.5-3.4-0.8-5.1-0.8c-2.3,0-4.6,0.4-6.7,1.4
	c-1.9,0.9-3.5,2.2-4.8,3.9c-1.3,1.7-2.3,3.6-2.9,5.6c-0.7,2.2-1,4.5-1,6.7v23.9H587v-58.7H588.7z"/>
<path class="st1" d="M645.7,199.8c0.7-1.7,1.7-3.2,3.1-4.5c1.4-1.3,3.1-2.3,4.9-2.9c2.2-0.8,4.5-1.1,6.9-1.1c1.8,0,3.6,0.2,5.3,0.6
	c1.6,0.3,3.1,1,4.4,2c1.3,1,2.3,2.3,3,3.7c0.8,1.8,1.2,3.8,1.2,5.8v26.9c0,0.6,0.1,1.3,0.5,1.8c0.3,0.4,0.8,0.7,1.3,0.8
	c0.6,0.1,1.2,0.2,1.8,0.2c0.6,0,1.2-0.1,1.8-0.1v1.6h-2.5c-1.1,0-2.2-0.3-3.2-0.9c-0.9-0.6-1.4-1.6-1.4-3.2v-5.5h-0.2
	c-0.5,1.4-1.2,2.8-2.1,3.9c-1,1.3-2.2,2.4-3.6,3.4c-1.5,1-3.2,1.8-5,2.3c-2,0.6-4,0.9-6.1,0.9c-4.3,0-7.7-0.9-10.3-2.8
	s-3.9-4.7-3.9-8.5c-0.1-2.2,0.3-4.4,1.3-6.3c0.8-1.5,1.9-2.8,3.3-3.7c1.4-0.9,3-1.6,4.7-1.9c1.7-0.4,3.5-0.6,5.3-0.7l7.5-0.4
	c1.7-0.1,3.5-0.4,5.1-0.8c1.2-0.3,2.2-1,3-1.9c0.7-1.1,1-2.4,0.9-3.6c0-1.3-0.1-2.7-0.3-4c-0.2-1.4-0.8-2.7-1.6-3.8
	c-1-1.2-2.3-2.2-3.7-2.8c-2.1-0.8-4.4-1.2-6.7-1.1c-4.4,0-7.9,1.1-10.3,3.3c-2.5,2.2-3.8,5.2-4.1,9.2h-1.6
	C644.5,203.4,644.9,201.5,645.7,199.8z M672.7,209.7c-0.6,0.8-1.5,1.5-2.5,1.8c-1.3,0.4-2.6,0.8-3.9,0.9c-1.6,0.2-3.2,0.4-4.8,0.4
	c-1.7,0.1-3.4,0.1-5,0.3c-1.6,0.1-3.2,0.3-4.8,0.6c-1.5,0.3-2.9,0.8-4.2,1.6c-1.2,0.8-2.2,2-2.9,3.3c-0.8,1.7-1.1,3.6-1.1,5.5
	c0,1.2,0.2,2.4,0.6,3.6c0.4,1.2,1.1,2.3,2.1,3.1c1.1,1,2.4,1.8,3.8,2.3c1.9,0.6,3.8,0.9,5.8,0.9c2.5,0,5-0.4,7.3-1.4
	c2-0.9,3.8-2.1,5.4-3.6c1.4-1.5,2.6-3.3,3.3-5.2c0.7-1.9,1.1-4,1.1-6.1v-7.8L672.7,209.7z"/>
<path class="st1" d="M700.5,184.1v-8.3h1.6v8.3H700.5z M700.5,234.5v-42.2h1.6v42.2L700.5,234.5z"/>
<path class="st1" d="M729.2,192.3v10.4h0.2c0.4-1.6,1-3.1,1.8-4.5c1.8-2.8,4.5-5,7.7-6c1.8-0.6,3.7-0.9,5.7-0.9c2,0,4.1,0.3,6,1
	c3.6,1.3,6.5,4.1,7.9,7.7c0.8,2.1,1.2,4.3,1.1,6.5v28H758v-27.8c0.1-2.1-0.3-4.3-1.1-6.3c-0.6-1.6-1.6-3.1-2.9-4.3
	c-1.2-1.1-2.7-2-4.3-2.5c-1.7-0.5-3.4-0.8-5.1-0.8c-2.3,0-4.6,0.4-6.7,1.4c-1.9,0.9-3.5,2.2-4.8,3.9c-1.3,1.7-2.3,3.6-2.9,5.6
	c-0.7,2.2-1,4.5-1,6.7v23.9h-1.6v-42.2H729.2z"/>
<path class="st1" d="M813.8,175.8v43.4c0,2.3-0.3,4.5-0.9,6.7c-0.5,1.9-1.5,3.7-2.8,5.3c-1.4,1.5-3.1,2.7-5,3.4
	c-2.4,0.9-5,1.3-7.5,1.2c-2.4,0.1-4.9-0.3-7.2-1.2c-1.9-0.7-3.5-1.9-4.8-3.3c-1.3-1.5-2.2-3.2-2.8-5.1c-0.6-2.1-0.9-4.2-0.9-6.4
	v-3.5h1.6v3.5c0,4.8,1.2,8.4,3.5,10.8c2.4,2.4,5.8,3.6,10.4,3.6c2.1,0,4.2-0.2,6.2-0.8c1.7-0.5,3.3-1.4,4.5-2.7
	c1.3-1.4,2.3-3.1,2.8-5c0.7-2.5,1-5.1,0.9-7.7v-42.2H813.8z"/>
<path class="st1" d="M840.7,199.8c0.7-1.7,1.7-3.2,3.1-4.5c1.4-1.3,3.1-2.3,4.9-2.9c2.2-0.8,4.5-1.1,6.9-1.1c1.8,0,3.6,0.2,5.3,0.6
	c1.6,0.3,3.1,1,4.4,2c1.3,1,2.3,2.3,3,3.7c0.8,1.8,1.3,3.8,1.2,5.8v26.9c-0.1,0.6,0.1,1.3,0.5,1.8c0.3,0.4,0.8,0.7,1.3,0.8
	c0.6,0.1,1.2,0.2,1.8,0.2c0.6,0,1.2-0.1,1.8-0.1v1.6h-2.5c-1.1,0-2.2-0.3-3.2-0.9c-0.9-0.6-1.4-1.6-1.4-3.2v-5.5h-0.2
	c-0.5,1.4-1.2,2.8-2.1,3.9c-1,1.3-2.2,2.4-3.6,3.4c-1.5,1-3.2,1.8-5,2.3c-2,0.6-4,0.9-6.1,0.9c-4.3,0-7.7-0.9-10.3-2.8
	c-2.6-1.9-3.9-4.7-3.9-8.5c-0.1-2.2,0.3-4.4,1.3-6.3c0.8-1.5,1.9-2.8,3.3-3.7c1.4-0.9,3-1.6,4.7-1.9c1.7-0.4,3.5-0.6,5.3-0.7
	l7.5-0.4c1.7-0.1,3.5-0.4,5.1-0.8c1.2-0.3,2.2-1,3-1.9c0.7-1.1,1-2.4,0.9-3.6c0-1.3-0.1-2.7-0.3-4c-0.2-1.4-0.8-2.7-1.6-3.8
	c-1-1.3-2.3-2.2-3.7-2.8c-2.1-0.8-4.4-1.2-6.7-1.1c-4.4,0-7.9,1.1-10.3,3.3c-2.5,2.2-3.8,5.2-4.1,9.2h-1.7
	C839.6,203.4,840,201.5,840.7,199.8z M867.7,209.7c-0.6,0.8-1.5,1.5-2.5,1.8c-1.3,0.4-2.6,0.8-3.9,0.9c-1.6,0.2-3.2,0.4-4.8,0.4
	c-1.7,0.1-3.4,0.1-5,0.3c-1.6,0.1-3.2,0.3-4.8,0.6c-1.5,0.3-2.9,0.8-4.2,1.6c-1.2,0.8-2.2,2-2.9,3.3c-0.8,1.7-1.1,3.6-1.1,5.5
	c0,1.2,0.2,2.4,0.6,3.6c0.4,1.2,1.2,2.3,2.1,3.1c1.1,1,2.4,1.8,3.8,2.3c1.9,0.6,3.8,0.9,5.8,0.9c2.5,0,5-0.4,7.3-1.4
	c2-0.9,3.8-2.1,5.4-3.6c1.4-1.5,2.6-3.3,3.3-5.2c0.7-1.9,1.1-4,1.1-6.1v-7.8L867.7,209.7z"/>
<path class="st1" d="M897.2,192.3v10.4h0.2c0.4-1.6,1-3.1,1.8-4.5c0.8-1.4,1.8-2.6,3-3.6c1.2-1,2.5-1.8,4-2.4
	c1.5-0.6,3.1-0.9,4.6-0.9c3-0.2,5.9,0.7,8.3,2.5c2.3,1.9,3.8,4.5,4.4,7.4h0.2c0.8-2.9,2.5-5.4,4.8-7.1c2.5-1.8,5.5-2.8,8.5-2.7
	c2.2-0.1,4.4,0.3,6.4,1.1c1.6,0.7,3,1.8,4.1,3.2c1.1,1.4,1.8,3.1,2.2,4.9c0.5,2.1,0.7,4.2,0.7,6.3v27.8h-1.7v-27.8
	c0-1.9-0.2-3.8-0.5-5.7c-0.3-1.6-0.9-3.1-1.9-4.4c-0.9-1.2-2.2-2.2-3.6-2.8c-1.8-0.7-3.8-1.1-5.7-1c-3.7-0.1-7.3,1.6-9.7,4.4
	c-1.2,1.4-2.1,3-2.6,4.7c-0.6,1.8-0.9,3.7-0.9,5.6v26.8h-1.6v-27.1c0-1.9-0.1-3.7-0.5-5.6c-0.3-1.6-0.8-3.2-1.7-4.6
	c-0.9-1.3-2-2.4-3.5-3.1c-1.8-0.8-3.8-1.2-5.8-1.1c-2,0-3.9,0.5-5.7,1.4c-1.7,1-3.2,2.3-4.3,3.9c-1.2,1.7-2.1,3.6-2.7,5.6
	c-0.7,2.2-1,4.5-1,6.7v23.9h-1.6v-42.2H897.2z"/>
<path class="st1" d="M1052.8,234.5h-37.6c-0.1-2.2,0.4-4.4,1.5-6.4c1.1-2,2.5-3.8,4.1-5.4c1.8-1.7,3.7-3.3,5.7-4.8l6.3-4.5
	c2.1-1.5,4.2-3,6.2-4.5c1.9-1.4,3.7-3.1,5.4-4.8c1.5-1.6,2.8-3.4,3.8-5.3c1.8-3.7,1.9-8.1,0.3-11.9c-0.8-1.6-1.9-3.1-3.2-4.2
	c-1.4-1.2-3.1-2-4.9-2.6c-2-0.6-4.1-0.9-6.2-0.9c-2.6-0.1-5.1,0.4-7.5,1.3c-2,0.8-3.7,2-5.1,3.6c-1.3,1.6-2.3,3.5-2.9,5.6
	c-0.6,2.3-0.9,4.7-0.9,7.1h-1.6c0.1-6.1,1.6-10.9,4.6-14.3c3-3.4,7.5-5,13.4-5.1c2.3,0,4.6,0.3,6.7,0.9c2,0.6,3.8,1.5,5.4,2.8
	c1.5,1.3,2.8,2.9,3.7,4.7c2.2,4.9,1.7,10.5-1.1,15c-1.7,2.6-3.8,5-6.2,7.1c-2.6,2.2-5.3,4.3-8.1,6.2c-2.9,1.9-5.6,3.9-8.2,5.8
	c-2.4,1.8-4.6,3.8-6.5,6c-1.7,1.8-2.8,4.2-3,6.7h36L1052.8,234.5z"/>
<path class="st1" d="M1115.7,217c-0.6,3.3-1.8,6.4-3.5,9.3c-1.6,2.7-3.8,5-6.5,6.6c-6.3,3.3-13.9,3.3-20.2,0
	c-2.7-1.6-4.9-3.9-6.5-6.6c-1.7-2.9-2.9-6-3.5-9.3c-1.4-6.9-1.4-14,0-20.9c0.6-3.3,1.8-6.4,3.5-9.3c1.6-2.7,3.9-5,6.5-6.6
	c6.3-3.4,13.9-3.4,20.2,0c2.7,1.7,4.9,3.9,6.5,6.6c1.7,2.9,2.9,6,3.5,9.3C1117.1,203,1117.1,210.1,1115.7,217z M1114.2,197
	c-0.5-3.1-1.6-6.1-3.1-8.8c-1.5-2.6-3.5-4.8-6-6.4c-5.9-3.4-13.1-3.4-19,0c-2.5,1.6-4.5,3.9-5.9,6.4c-1.5,2.7-2.6,5.7-3.1,8.8
	c-1.2,6.3-1.2,12.8,0,19.1c0.6,3.1,1.6,6.1,3.1,8.8c1.4,2.6,3.5,4.8,5.9,6.4c5.9,3.4,13.1,3.4,19,0c2.5-1.6,4.5-3.9,6-6.4
	c1.5-2.7,2.6-5.7,3.1-8.8C1115.4,209.8,1115.4,203.3,1114.2,197L1114.2,197z"/>
<path class="st1" d="M1159.2,180.8c-1.8,2.4-4,4.5-6.6,6.1c-2.5,1.7-5.3,2.9-8.3,3.7V189c1.5-0.5,3.1-1.1,4.5-1.8
	c1.3-0.6,2.5-1.4,3.7-2.2c1.2-0.8,2.3-1.8,3.3-2.8c1.1-1,2.2-2.2,3.3-3.5h1.8v55.9h-1.7v-53.8H1159.2z"/>
<path class="st1" d="M1236.3,208.5c2.6,2.8,4,6.6,3.8,10.4c0.1,2.6-0.5,5.2-1.6,7.5c-1.1,2-2.6,3.8-4.4,5.1c-1.9,1.4-4.1,2.4-6.4,3
	c-5.1,1.3-10.5,1.3-15.6,0c-2.3-0.6-4.5-1.6-6.4-3c-1.8-1.4-3.3-3.1-4.4-5.1c-1.2-2.3-1.7-4.9-1.7-7.5c-0.2-3.8,1.2-7.6,3.8-10.4
	c2.6-2.7,6-4.2,10.5-4.6v-0.2c-1.6-0.2-3.1-0.7-4.5-1.4c-1.3-0.6-2.6-1.5-3.7-2.6c-2.2-2.1-3.4-5-3.4-8c-0.1-2.2,0.4-4.4,1.3-6.4
	c0.9-1.7,2.2-3.3,3.7-4.4c1.7-1.2,3.6-2,5.6-2.5c4.5-1,9.2-1,13.6,0c2,0.5,3.9,1.3,5.6,2.5c1.6,1.1,2.9,2.7,3.7,4.4
	c1,2,1.4,4.2,1.4,6.4c0,1.5-0.3,3-0.9,4.4c-0.6,1.3-1.4,2.6-2.5,3.6c-1.1,1-2.3,1.9-3.7,2.6c-1.4,0.7-2.9,1.1-4.5,1.4v0.2
	C1230.3,204.3,1233.8,205.8,1236.3,208.5z M1236.9,212.1c-1-1.8-2.4-3.3-4.2-4.4c-1.8-1.1-3.9-1.9-6-2.3c-4.6-0.9-9.4-0.9-14,0
	c-2.1,0.4-4.1,1.2-5.9,2.3c-1.7,1.1-3.1,2.6-4.2,4.4c-1.1,2.1-1.6,4.4-1.6,6.7c-0.1,2.4,0.4,4.7,1.5,6.9c1,1.9,2.4,3.4,4.1,4.6
	c1.8,1.2,3.9,2.1,6,2.6c4.6,1.1,9.5,1.1,14.1,0c2.1-0.5,4.2-1.4,6-2.6c1.7-1.2,3.1-2.8,4.1-4.6c1.1-2.1,1.6-4.5,1.5-6.9
	C1238.6,216.5,1238,214.2,1236.9,212.1z M1234.3,185.8c-0.9-1.5-2.1-2.9-3.6-3.8c-1.5-1-3.2-1.7-5-2.1c-3.9-0.8-7.9-0.8-11.8,0
	c-1.8,0.4-3.5,1.1-5,2.1c-1.5,1-2.7,2.3-3.6,3.8c-1,1.8-1.4,3.9-1.4,6c0,1.8,0.5,3.6,1.4,5.1c0.9,1.4,2.2,2.6,3.7,3.5
	c1.6,0.9,3.3,1.6,5.1,2c3.7,0.9,7.6,0.9,11.3,0c1.8-0.4,3.5-1.1,5.1-2c1.5-0.9,2.8-2.1,3.7-3.5c1-1.5,1.5-3.3,1.4-5.1
	C1235.8,189.7,1235.3,187.6,1234.3,185.8L1234.3,185.8z"/>
</svg>
