<svg xmlns="http://www.w3.org/2000/svg" xmlns:xlink="http://www.w3.org/1999/xlink" viewBox="0 0 1500 1000"><defs><linearGradient id="linear-gradient" x1="33.3" y1="-42.51" x2="1510.86" y2="1075.3" gradientUnits="userSpaceOnUse"><stop offset="0.02" stop-color="aqua"/><stop offset="0.03" stop-color="#00f8fa"/><stop offset="0.14" stop-color="#00c1d5"/><stop offset="0.25" stop-color="#0093b6"/><stop offset="0.35" stop-color="#006f9e"/><stop offset="0.45" stop-color="#00558c"/><stop offset="0.53" stop-color="#004582"/><stop offset="0.6" stop-color="#00407e"/><stop offset="0.63" stop-color="#003b77"/><stop offset="0.79" stop-color="#001e4e"/><stop offset="0.92" stop-color="#000d35"/><stop offset="1" stop-color="#00062c"/></linearGradient></defs><title>BCJ2019_TOP_OL</title><g id="レイヤー_2" data-name="レイヤー 2"><rect x="0.1" y="1.37" width="1499.85" height="996.68" style="fill:url(#linear-gradient)"/><path d="M898.38,132.78H885.25a4.43,4.43,0,0,1,.51-2.24,7.62,7.62,0,0,1,1.44-1.87,15.82,15.82,0,0,1,2-1.67l2.19-1.56c.75-.52,1.48-1,2.18-1.58a14.88,14.88,0,0,0,1.9-1.68,7.77,7.77,0,0,0,1.33-1.86,4.71,4.71,0,0,0,.5-2.14,4.76,4.76,0,0,0-.41-2,4.22,4.22,0,0,0-1.14-1.46,4.83,4.83,0,0,0-1.7-.89,7.44,7.44,0,0,0-2.17-.3,6.66,6.66,0,0,0-2.61.46,4.66,4.66,0,0,0-1.78,1.27,5.16,5.16,0,0,0-1,2,9.3,9.3,0,0,0-.32,2.48h-.57a7.35,7.35,0,0,1,1.59-5,5.93,5.93,0,0,1,4.69-1.77,8,8,0,0,1,2.35.33,5.46,5.46,0,0,1,1.9,1,4.8,4.8,0,0,1,1.27,1.64,5.12,5.12,0,0,1,.48,2.29,5.22,5.22,0,0,1-.87,2.93,11.78,11.78,0,0,1-2.16,2.46,26.08,26.08,0,0,1-2.83,2.17q-1.51,1-2.85,2a15,15,0,0,0-2.28,2.09,4.09,4.09,0,0,0-1.06,2.34h12.56Z" style="fill:#fff"/><path d="M918,126.67a9.82,9.82,0,0,1-1.22,3.24,6.75,6.75,0,0,1-2.26,2.31,6.75,6.75,0,0,1-9.32-2.31,9.82,9.82,0,0,1-1.22-3.24,18.58,18.58,0,0,1,0-7.28,9.82,9.82,0,0,1,1.22-3.24,6.87,6.87,0,0,1,2.28-2.33,7.41,7.41,0,0,1,7,0,7,7,0,0,1,2.26,2.33,9.82,9.82,0,0,1,1.22,3.24,18.58,18.58,0,0,1,0,7.28Zm-.53-7a9.83,9.83,0,0,0-1.09-3.07,6.69,6.69,0,0,0-2.08-2.25,6.73,6.73,0,0,0-6.62,0,6.59,6.59,0,0,0-2.08,2.25,9.83,9.83,0,0,0-1.09,3.07,17.49,17.49,0,0,0,0,6.66,9.77,9.77,0,0,0,1.09,3.06,6.53,6.53,0,0,0,2.08,2.26,6.73,6.73,0,0,0,6.62,0,6.63,6.63,0,0,0,2.08-2.26,9.77,9.77,0,0,0,1.09-3.06,17.49,17.49,0,0,0,0-6.66Z" style="fill:#fff"/><path d="M930.93,114a8.07,8.07,0,0,1-2.31,2.14,10.58,10.58,0,0,1-2.88,1.31v-.58a11.3,11.3,0,0,0,1.58-.63,10.22,10.22,0,0,0,1.29-.77,9.57,9.57,0,0,0,1.16-1c.37-.36.76-.77,1.16-1.23h.63v19.5H931V114Z" style="fill:#fff"/><path d="M944.77,130.36a5.13,5.13,0,0,0,1.39,1.33,4.93,4.93,0,0,0,1.62.67,7.06,7.06,0,0,0,1.57.19,6,6,0,0,0,2.53-.5,5.69,5.69,0,0,0,1.84-1.36,7.41,7.41,0,0,0,1.23-2,13.14,13.14,0,0,0,.75-2.35,17.65,17.65,0,0,0,.36-2.48c.05-.84.07-1.63.05-2.37h-.05a6,6,0,0,1-.81,1.92,6.36,6.36,0,0,1-1.42,1.56,6.52,6.52,0,0,1-1.9,1.05,6.79,6.79,0,0,1-4.72-.11,7,7,0,0,1-2.17-1.38,6.92,6.92,0,0,1-1.52-2.14,6.49,6.49,0,0,1-.57-2.74,6.63,6.63,0,0,1,.54-2.69,6.88,6.88,0,0,1,1.48-2.14,6.71,6.71,0,0,1,2.15-1.4,6.62,6.62,0,0,1,2.57-.51,6.38,6.38,0,0,1,1.88.28,7.16,7.16,0,0,1,1.59.7,7.42,7.42,0,0,1,1.28,1,7.17,7.17,0,0,1,.93,1.12,7.09,7.09,0,0,1,1.09,2.94,26.21,26.21,0,0,1,.23,3.54,20.53,20.53,0,0,1-.35,3.72,11,11,0,0,1-1.19,3.41,7.27,7.27,0,0,1-2.26,2.51,6.18,6.18,0,0,1-3.57,1,6.78,6.78,0,0,1-2.31-.38,5.67,5.67,0,0,1-1.82-1,5.48,5.48,0,0,1-1.27-1.56,5.89,5.89,0,0,1-.63-1.94h.58A5.75,5.75,0,0,0,944.77,130.36Zm10.6-13.1a6.58,6.58,0,0,0-1.32-2A6.37,6.37,0,0,0,952.1,114a6.17,6.17,0,0,0-4.82,0,6.25,6.25,0,0,0-1.95,1.31,6.58,6.58,0,0,0-1.32,2,6.17,6.17,0,0,0,0,4.82,6.33,6.33,0,0,0,1.32,2,6.11,6.11,0,0,0,1.95,1.32,6.17,6.17,0,0,0,4.82,0,6.22,6.22,0,0,0,1.95-1.32,6.33,6.33,0,0,0,1.32-2,6.17,6.17,0,0,0,0-4.82Z" style="fill:#fff"/><path d="M964.92,132.78V130h.57v2.81Z" style="fill:#fff"/><path d="M981.12,114a8.07,8.07,0,0,1-2.31,2.14,10.58,10.58,0,0,1-2.88,1.31v-.58a11.3,11.3,0,0,0,1.58-.63,10.22,10.22,0,0,0,1.29-.77,9.57,9.57,0,0,0,1.16-1c.37-.36.76-.77,1.16-1.23h.63v19.5h-.57V114Z" style="fill:#fff"/><path d="M1000.51,114a8.07,8.07,0,0,1-2.31,2.14,10.86,10.86,0,0,1-2.88,1.31v-.58a11.3,11.3,0,0,0,1.58-.63,10.22,10.22,0,0,0,1.29-.77,10.4,10.4,0,0,0,1.16-1c.37-.36.76-.77,1.16-1.23h.63v19.5h-.57V114Z" style="fill:#fff"/><path d="M1015.11,132.78V130h.57v2.81Z" style="fill:#fff"/><path d="M1031.31,114a8.07,8.07,0,0,1-2.31,2.14,10.58,10.58,0,0,1-2.88,1.31v-.58a11.3,11.3,0,0,0,1.58-.63,10.22,10.22,0,0,0,1.29-.77,9.57,9.57,0,0,0,1.16-1c.37-.36.76-.77,1.16-1.23h.63v19.5h-.57V114Z" style="fill:#fff"/><path d="M1044,113.28h12.45v.77a45.32,45.32,0,0,0-3.62,4.07,26.88,26.88,0,0,0-2.78,4.38,23.15,23.15,0,0,0-1.78,4.82,22.59,22.59,0,0,0-.63,5.46H1047a22.44,22.44,0,0,1,.59-5.45,23.27,23.27,0,0,1,1.77-4.92,28.14,28.14,0,0,1,2.79-4.46,41.43,41.43,0,0,1,3.6-4.1H1044Z" style="fill:#fff"/><path d="M1087.65,115.39a4.87,4.87,0,0,0-1.4-1.75,5.45,5.45,0,0,0-2.08-1,11.2,11.2,0,0,0-2.58-.29,12.22,12.22,0,0,0-2.21.21,6.62,6.62,0,0,0-2.08.76,4.71,4.71,0,0,0-1.53,1.45,4,4,0,0,0-.61,2.28,3.62,3.62,0,0,0,.62,2.21,4.69,4.69,0,0,0,1.6,1.35,9.38,9.38,0,0,0,2.26.8l2.58.6,2.71.72a8.66,8.66,0,0,1,2.22.92,4.39,4.39,0,0,1,1.51,1.52,5,5,0,0,1,.56,2.55,4.71,4.71,0,0,1-.64,2.5,5.38,5.38,0,0,1-1.66,1.7,7.19,7.19,0,0,1-2.32,1,11.49,11.49,0,0,1-2.61.3,12.21,12.21,0,0,1-3.23-.4,6.81,6.81,0,0,1-2.55-1.28,5.66,5.66,0,0,1-1.66-2.25A8,8,0,0,1,1074,126h.57a7.85,7.85,0,0,0,.55,3.12,5.2,5.2,0,0,0,1.53,2.07,6.11,6.11,0,0,0,2.35,1.17,11.76,11.76,0,0,0,3,.35,10.75,10.75,0,0,0,2.39-.27,6.69,6.69,0,0,0,2.14-.87,4.82,4.82,0,0,0,1.53-1.55,4.15,4.15,0,0,0,.59-2.27,4,4,0,0,0-.67-2.45,4.8,4.8,0,0,0-1.72-1.43,9.55,9.55,0,0,0-2.33-.81c-.85-.18-1.66-.36-2.45-.56s-1.64-.39-2.46-.6a9.09,9.09,0,0,1-2.23-.87,4.55,4.55,0,0,1-1.59-1.49,4.42,4.42,0,0,1-.6-2.43,4.76,4.76,0,0,1,.63-2.54,5,5,0,0,1,1.64-1.62,7.21,7.21,0,0,1,2.25-.86,12.28,12.28,0,0,1,2.48-.25,11.12,11.12,0,0,1,2.79.33,6.19,6.19,0,0,1,2.24,1.06,5.06,5.06,0,0,1,1.53,1.92,7.26,7.26,0,0,1,.66,2.91h-.57A6.4,6.4,0,0,0,1087.65,115.39Z" style="fill:#fff"/><path d="M1110.55,112.3v12.85q0,4.13-1.92,6.11a8.88,8.88,0,0,1-11.18,0q-1.92-2-1.92-6.11V112.3h.57v12.85a8.24,8.24,0,0,0,1.69,5.62q1.7,1.92,5.25,1.92t5.25-1.92a8.24,8.24,0,0,0,1.69-5.62V112.3Z" style="fill:#fff"/><path d="M1118,112.3l14,19.76h0V112.3h.58v20.48h-.86l-14-19.76h0v19.76h-.58V112.3Z" style="fill:#fff"/><path d="M1158.16,111.82h.57l-9.37,21.42h-.55Z" style="fill:#fff"/><path d="M1172.93,112.3h15.29v.58h-7.37v19.9h-.58v-19.9h-7.34Z" style="fill:#fff"/><path d="M1192.4,122.5a7.43,7.43,0,0,1,1.28-2.45,6.41,6.41,0,0,1,2.08-1.71,6.59,6.59,0,0,1,5.71,0,6.51,6.51,0,0,1,2.08,1.71,7.23,7.23,0,0,1,1.27,2.45,10.06,10.06,0,0,1,0,5.82,7.23,7.23,0,0,1-1.27,2.45,6.33,6.33,0,0,1-2.08,1.69,6.13,6.13,0,0,1-2.87.64,6,6,0,0,1-2.84-.64,6.23,6.23,0,0,1-2.08-1.69,7.43,7.43,0,0,1-1.28-2.45,10.06,10.06,0,0,1,0-5.82Zm.53,5.61a6.84,6.84,0,0,0,1.17,2.28,5.54,5.54,0,0,0,4.53,2.16,5.55,5.55,0,0,0,2.59-.59,5.71,5.71,0,0,0,1.91-1.57,6.82,6.82,0,0,0,1.16-2.28,9.28,9.28,0,0,0,.39-2.7,9.18,9.18,0,0,0-.39-2.67,6.82,6.82,0,0,0-1.16-2.28,5.89,5.89,0,0,0-1.91-1.59,5.44,5.44,0,0,0-2.59-.6,5.55,5.55,0,0,0-2.63.6,5.86,5.86,0,0,0-1.9,1.59,6.84,6.84,0,0,0-1.17,2.28,9.52,9.52,0,0,0-.38,2.67A9.63,9.63,0,0,0,1192.93,128.11Z" style="fill:#fff"/><path d="M1211.65,132.78h-.58V112.3h.58v14.2l10.18-8.46h.83l-6.77,5.62,7.26,9.12h-.77l-6.92-8.72-3.81,3.16Z" style="fill:#fff"/><path d="M1237.69,118l-6.8,17.72a3.27,3.27,0,0,1-.69,1.16,2.43,2.43,0,0,1-.89.62,3.57,3.57,0,0,1-1.07.25c-.39,0-.81,0-1.25,0v-.58c.5,0,.92,0,1.28,0a2.54,2.54,0,0,0,.92-.23,1.91,1.91,0,0,0,.68-.57,4.23,4.23,0,0,0,.56-1l1.06-2.72-6.13-14.6h.6l5.85,14,5.28-14Z" style="fill:#fff"/><path d="M1242,122.5a7.41,7.41,0,0,1,1.27-2.45,6.45,6.45,0,0,1,2.09-1.71,6.57,6.57,0,0,1,5.7,0,6.41,6.41,0,0,1,2.08,1.71,7.43,7.43,0,0,1,1.28,2.45,10.06,10.06,0,0,1,0,5.82,7.43,7.43,0,0,1-1.28,2.45,6.23,6.23,0,0,1-2.08,1.69,6.1,6.1,0,0,1-2.87.64,6,6,0,0,1-2.83-.64,6.26,6.26,0,0,1-2.09-1.69,7.41,7.41,0,0,1-1.27-2.45,10.06,10.06,0,0,1,0-5.82Zm.53,5.61a7,7,0,0,0,1.16,2.28,5.71,5.71,0,0,0,1.91,1.57,6.07,6.07,0,0,0,5.22,0,5.81,5.81,0,0,0,1.91-1.57,7,7,0,0,0,1.16-2.28,9.27,9.27,0,0,0,.38-2.7,9.17,9.17,0,0,0-.38-2.67,7,7,0,0,0-1.16-2.28,6,6,0,0,0-1.91-1.59,6,6,0,0,0-5.22,0,5.89,5.89,0,0,0-1.91,1.59,7,7,0,0,0-1.16,2.28,9.18,9.18,0,0,0-.39,2.67A9.28,9.28,0,0,0,1242.55,128.11Z" style="fill:#fff"/><path d="M251.78,125.13v-1h9.78V119a47.89,47.89,0,0,1-7.2.45v-1a46.7,46.7,0,0,0,7-.44,47.82,47.82,0,0,0,6.65-1.61l.32,1a51.81,51.81,0,0,1-5.63,1.45v5.31h8v1h-8.07a10.65,10.65,0,0,1-1.91,6.08,9.68,9.68,0,0,1-5.29,3.06l-.31-1a8.74,8.74,0,0,0,4.73-2.73,9.59,9.59,0,0,0,1.66-5.41Z" style="fill:#fff"/><path d="M300.69,119.4v1h-6.85c0,3.83-.67,6.77-2,8.79a12.56,12.56,0,0,1-6.62,4.73l-.38-1q4.38-1.62,6.09-4.36t1.75-8.2h-7.58a18.59,18.59,0,0,1-3.46,5.54l-.85-.63a16.48,16.48,0,0,0,4.33-9.87l1.08.07a21.4,21.4,0,0,1-.75,3.84Z" style="fill:#fff"/><path d="M313.23,121.52l1-.28q.74,2.13,1.57,5.52l-1,.26Q314,123.89,313.23,121.52Zm14.13-.84q-.71,6.22-3.19,9.17t-8.06,4.23l-.24-.93c3.45-.81,5.94-2.14,7.49-4s2.53-4.69,3-8.56Zm-9.31-.11,1-.29c.69,2.27,1.22,4.22,1.6,5.88l-1,.23C319.27,124.8,318.73,122.86,318.05,120.57Z" style="fill:#fff"/><path d="M345.51,116h1.14v6.74a68.49,68.49,0,0,1,10.93,4l-.42,1a65.9,65.9,0,0,0-10.51-3.91v10.55h-1.14Z" style="fill:#fff"/><path d="M369,123.68h4.47v7.08a5,5,0,0,0,2.68,2.38,17.63,17.63,0,0,0,5.65.64h7.34l-.05,1h-7.34a19.54,19.54,0,0,1-5.78-.64,5.44,5.44,0,0,1-3-2.26,17.64,17.64,0,0,1-3.65,3.3l-.54-.91a16.7,16.7,0,0,0,3.56-3.21v-6.36H369Zm5-4-.75.68c-1.2-1.39-2.45-2.71-3.74-4l.77-.68Q372.23,117.72,374,119.7Zm4,1.38h10.71v1H385v10.22h-1.12V122.06h-6a27.61,27.61,0,0,1-.83,5.43,13.21,13.21,0,0,1-1.79,3.86l-.91-.59a14.21,14.21,0,0,0,2-5.11,50.11,50.11,0,0,0,.6-9.11,39.21,39.21,0,0,0,10.66-1.33l.28,1a41.15,41.15,0,0,1-9.89,1.36C378,118.84,378,120,378,121.08Z" style="fill:#fff"/><path d="M400.83,115.86H416.4v19.28h-1.12v-1.55H402v1.55h-1.12ZM402,124h13.33v-7.11H402Zm0,1v7.6h13.33V125Z" style="fill:#fff"/><path d="M430.32,116.61v-1h8.3a13.69,13.69,0,0,0,2.27,3.44,24.38,24.38,0,0,0,2.9-3.32l.87.56a26.72,26.72,0,0,1-3.06,3.51,18.36,18.36,0,0,0,2.26,2,27.8,27.8,0,0,0,3.19-3.61l.86.56a24.6,24.6,0,0,1-3.2,3.65,28.32,28.32,0,0,0,3.88,2.27l-.47,1a27.35,27.35,0,0,1-6-3.93,18.11,18.11,0,0,1-4-4.77,18,18,0,0,1-4,4.77,27.12,27.12,0,0,1-6,3.93l-.47-1a25.17,25.17,0,0,0,5.38-3.37c-1.46-1.27-2.68-2.29-3.64-3l.7-.75c1.32,1,2.58,2.09,3.76,3.12a15.38,15.38,0,0,0,3.35-4Zm4,7.81H432.1v-1H444v1h-2.62V128h6.41v1h-6.41v4.18c0,.39.1.63.29.7a7.55,7.55,0,0,0,1.84.12h1a4,4,0,0,0,.69-.07l.52-.1a1,1,0,0,0,.34-.3,1,1,0,0,0,.25-.41c0-.1.05-.32.11-.66a5.67,5.67,0,0,0,.11-.88q0-.36.06-1.2l1.07.09c0,.84-.08,1.46-.1,1.86a5,5,0,0,1-.24,1.22,2.34,2.34,0,0,1-.38.81,1.82,1.82,0,0,1-.75.39,3.93,3.93,0,0,1-1.1.2h-1.66a8.34,8.34,0,0,1-2.6-.24c-.36-.17-.53-.58-.53-1.23V129h-5.1a7.68,7.68,0,0,1-2.09,3.95,10,10,0,0,1-4.35,2.36l-.37-1a9.62,9.62,0,0,0,3.79-2A6.49,6.49,0,0,0,434,129h-5.69v-1h5.87a15.41,15.41,0,0,0,.12-1.87Zm1,3.56h4.94v-3.56h-4.85v1.76A15.4,15.4,0,0,1,435.35,128Z" style="fill:#fff"/><path d="M477.52,117.92h-9.4v2.74h7.81v1H459.18v-1H467v-2.74h-9.41v-1H467V115h1.12v1.92h9.4Zm-13.12,8.14,1.1.07a8.79,8.79,0,0,1-1.84,5.74,10.4,10.4,0,0,1-5.53,3.13l-.42-1a9.64,9.64,0,0,0,5-2.8A8.17,8.17,0,0,0,464.4,126.06Zm11.2-1.45H459.51v3.65h-1.07v-4.61h18.24v4.4H475.6Zm-6.19,1.48h1.12v6.4a5.45,5.45,0,0,0,0,.71c0,.12.14.24.36.35a1.94,1.94,0,0,0,.84.18c.35,0,.91,0,1.69,0h.94a5,5,0,0,0,.69-.07,3.44,3.44,0,0,0,.52-.12,1,1,0,0,0,.33-.3,1.27,1.27,0,0,0,.25-.44c0-.11.06-.35.11-.71a7.38,7.38,0,0,0,.1-.94c0-.26,0-.69,0-1.28l1.1.07c0,.65,0,1.16-.07,1.53a7.94,7.94,0,0,1-.13,1.15c-.07.39-.13.68-.18.86a1.62,1.62,0,0,1-.34.56,1.28,1.28,0,0,1-.48.38,7.48,7.48,0,0,1-1.69.28h-1.27a9.6,9.6,0,0,1-3.31-.33c-.43-.22-.64-.81-.64-1.78Z" style="fill:#fff"/><path d="M383.45,547h-2.4V508.43H399.8v2.14H383.45Z" style="fill:#fff"/><path d="M419.93,532.19v-2.41h44.35v2.41Z" style="fill:#fff"/><path d="M528.29,550.73l-.1,2.2h-3.11q-14.16,0-21.33-2.56a21.66,21.66,0,0,1-11.37-9.24,59,59,0,0,1-6.13,12.57l-2.05-1a60.08,60.08,0,0,0,8.53-21.56l2.25.46a63,63,0,0,1-1.73,6.9,21.91,21.91,0,0,0,5.16,6.44,21.47,21.47,0,0,0,7.4,3.83V527.13H489.52V511.19h33.92v15.94H508.32v8.07H525v2.15h-16.7v12a81,81,0,0,0,16.86,1.38ZM492,525.08h29V513.33H492Z" style="fill:#fff"/><path d="M551,525.9a41.34,41.34,0,0,0,7.61-15.68l2.25.61a45.32,45.32,0,0,1-1.79,5.62h11.09V509.4h2.5v7.05h16.5v2.15h-16.5v10.52h19.88v2.2H577.7v16.24a7.83,7.83,0,0,0,.08,1.43,3.1,3.1,0,0,0,.33.9,1.28,1.28,0,0,0,1,.59l1.89.18c.74.05,1.8.07,3.2.07h2a7.47,7.47,0,0,0,1.48-.18,5,5,0,0,0,1.18-.35,3.1,3.1,0,0,0,.76-.8,3,3,0,0,0,.59-1.2c.09-.39.21-1,.38-1.89a23.68,23.68,0,0,0,.36-2.53c.07-.81.16-1.95.26-3.42l2.25.2c-.11,1.64-.2,2.94-.29,3.91s-.22,1.95-.4,2.94-.36,1.73-.51,2.22a4.94,4.94,0,0,1-.8,1.49,3.29,3.29,0,0,1-1.07,1,7.85,7.85,0,0,1-1.56.51,9.17,9.17,0,0,1-2,.28c-.64,0-1.53,0-2.65,0q-5.93,0-7.44-.82c-1-.54-1.5-1.94-1.5-4.19v-16.6h-7.46a25.19,25.19,0,0,1-5.44,14.25,24.73,24.73,0,0,1-13,7.87l-.86-2.15a23,23,0,0,0,11.85-7.15,22.24,22.24,0,0,0,5-12.82H549.14v-2.2h21.05V518.6h-12a42.1,42.1,0,0,1-5.16,8.58Z" style="fill:#fff"/><path d="M639.47,548.89a15.6,15.6,0,0,0,10-5.64A17.12,17.12,0,0,0,653.31,532a13.43,13.43,0,0,0-4.49-10.47q-4.5-4-11.65-4h-.51q-1.95,15-5.49,22.81t-8.2,7.8q-3.08,0-5.68-3.89a16.23,16.23,0,0,1-2.6-9.24,18.09,18.09,0,0,1,6.23-14.23q6.24-5.49,16.25-5.5,8.22,0,13.41,4.68A15.51,15.51,0,0,1,655.77,532a19.32,19.32,0,0,1-4.37,12.7A17.77,17.77,0,0,1,640,551.09Zm-5.32-31.21a20.09,20.09,0,0,0-12.39,5.54,15.92,15.92,0,0,0-4.67,11.72,14,14,0,0,0,2,7.64q2,3.09,4,3.09a3.46,3.46,0,0,0,1.84-.61,9.2,9.2,0,0,0,2.24-2.45,25.21,25.21,0,0,0,2.48-4.8,58.62,58.62,0,0,0,2.43-8.18Q633.24,524.42,634.15,517.68Z" style="fill:#fff"/><path d="M680.6,515.73h17.78v-6.38h2.45v6.38h17.78v2.15H700.83v10.27h20v2.2H702.1q6.49,9.85,20.19,18.44l-1.23,2q-13.63-8.69-20.23-18.64v22h-2.45V532.13q-6.64,10.07-20.24,18.7l-1.22-2q13.68-8.58,20.18-18.44H678.4v-2.2h20V517.88H680.6Z" style="fill:#fff"/><path d="M783.85,516.81H765.2v14.4h20.54v2.15H767q6.5,8.83,19.67,16.6l-1.17,2.1q-13.69-8.17-20.29-17.63v19.78h-2.45V534.38q-6.69,9.61-20.28,17.68l-1.18-2.1q13.19-7.76,19.67-16.6H742.21v-2.15h20.54v-14.4H744.1v-2.2h18.65v-5.26h2.45v5.26h18.65Zm-36.17,2.3,2.09-1.13a127.42,127.42,0,0,1,6.64,10.94L754.27,530Q750.79,523.66,747.68,519.11Zm24,9.76a57.71,57.71,0,0,0,6.13-10.79l2.2.92a60.1,60.1,0,0,1-6.29,11Z" style="fill:#fff"/><path d="M832.85,531.16a75.45,75.45,0,0,1,13.48-3.52l.31,2.2a72.79,72.79,0,0,0-13.44,3.62,72.56,72.56,0,0,1,.51,9.66h-2.45c0-3.17-.12-6.06-.36-8.69a33.39,33.39,0,0,0-8.43,5.14q-3.06,2.73-3.06,5,0,5.46,12.92,5.47a63.56,63.56,0,0,0,11.5-1.08l.26,2.25a63.13,63.13,0,0,1-11.76,1q-15.52,0-15.53-7.51,0-3,3.66-6.43a34.24,34.24,0,0,1,10.14-6.19,9.53,9.53,0,0,0-1.64-4.49,3.54,3.54,0,0,0-2.81-1.23q-2.55,0-6.77,3.07a42.39,42.39,0,0,0-8.35,8.38l-1.94-1.28a78.9,78.9,0,0,0,10.32-16.91q-5.52.15-11.6.15v-2.15q5.82,0,12.47-.25,1.43-3.89,2.45-7.66l2.45.56a71.76,71.76,0,0,1-2.25,7q10.13-.46,19.57-1.54l.16,2.15q-10.57,1.17-20.59,1.64a68.39,68.39,0,0,1-4.5,8.68l0,0q5.31-4,8.84-4a5.36,5.36,0,0,1,4.09,1.61A10.94,10.94,0,0,1,832.85,531.16Z" style="fill:#fff"/><path d="M870.65,530.35V528.1h11V516.25h-5a53,53,0,0,1-4.09,10l-2-.87a62,62,0,0,0,5.72-16.66l2.2.36q-.47,2.5-1.18,5.06h15.43v2.15H884V528.1h9.55v2.25h-9.65c0,.58-.12,1.41-.26,2.5q5.52,8.39,9.81,15.79l-2,1.27Q888.28,544.3,883,536a31.84,31.84,0,0,1-4.22,9.91,23.63,23.63,0,0,1-6.77,7L870.6,551a23.37,23.37,0,0,0,7.51-8.59,30.32,30.32,0,0,0,3.43-12Zm43.58-17.43V553h-2.4v-3.37H897.68V553h-2.35V512.92Zm-16.55,34.59h14.15V515.12H897.68Z" style="fill:#fff"/><path d="M943.71,514.25q12.31,0,25.45-1.22l.51,2.5q-8.64,7-19.16,14.66l0,.1a34.47,34.47,0,0,1,10.37-1.73q7.1,0,10.27,3.14a10.6,10.6,0,0,1,3.17,7.84,10.74,10.74,0,0,1-5,9.2q-4.95,3.46-13.38,3.47c-3.68,0-6.54-.62-8.56-1.86a5.83,5.83,0,0,1-3-5.24,5.23,5.23,0,0,1,2.45-4.26,10.67,10.67,0,0,1,6.49-1.82,9.76,9.76,0,0,1,6.1,1.71,5.62,5.62,0,0,1,2.23,4.73,12.38,12.38,0,0,1-.87,4.24,15.14,15.14,0,0,0,8.17-3.5,8.62,8.62,0,0,0,2.92-6.62q0-9-12-9a26.74,26.74,0,0,0-9.17,1.74,65.52,65.52,0,0,0-11.47,5.87l-1.33-2a302.44,302.44,0,0,0,28.3-20.79l0-.1q-12.77,1.21-22.48,1.22ZM958.33,550a11,11,0,0,0,1-4.35,4.05,4.05,0,0,0-1.56-3.37,7,7,0,0,0-4.42-1.22,8.49,8.49,0,0,0-4.8,1.2,3.39,3.39,0,0,0-1.79,2.83q0,5,9.35,5C957.12,550.07,957.85,550.05,958.33,550Z" style="fill:#fff"/><path d="M1012.18,550.42V516.3h-.11l-10.47,9.91-1.18-2,11.76-11.09h2.55v37.29Z" style="fill:#fff"/><path d="M1048.91,511.65h34v42.1h-2.45v-3.38h-29.12v3.38h-2.45Zm2.45,17.78h29.12V513.9h-29.12Zm0,2.19v16.61h29.12V531.62Z" style="fill:#fff"/><path d="M1124.57,517.11h2.4v38.53h-18.75v-2.15h16.35Z" style="fill:#fff"/><path d="M518.68,440.88l1.15-.64q1.21,1.86,2.82,4.78l-.86.45v1q-1,16.86-19,20.75l-.35-1.41q17-3.76,17.83-19.34H499.63V445h21.51C520.42,443.68,519.59,442.31,518.68,440.88Zm4.1-.61,1.19-.64c1.06,1.71,2,3.36,2.88,4.94l-1.18.61Q524.13,442.36,522.78,440.27Z" style="fill:#fff"/><path d="M540.8,445h22.38v22.06h-1.54v-2.22h-19.3v2.22H540.8Zm20.84,18.43v-17h-19.3v17Z" style="fill:#fff"/><path d="M582.84,450.44l1.35-.39q1,2.93,2.15,7.57L585,458C584.29,455.11,583.57,452.6,582.84,450.44Zm19.37-1.16q-1,8.54-4.38,12.57t-11.05,5.81l-.32-1.29q7.1-1.67,10.27-5.45t4.07-11.73Zm-12.76-.16,1.37-.38c.95,3.1,1.67,5.78,2.19,8.05l-1.38.32C591.11,454.93,590.39,452.27,589.45,449.12Z" style="fill:#fff"/><path d="M642.74,447.46Q641.3,465.25,623,467.27l-.26-1.41q17.12-1.75,18.47-18.4H628.63a22.74,22.74,0,0,1-6.25,9.29l-1-1a21.41,21.41,0,0,0,6.9-13.53l1.5.13a20.81,20.81,0,0,1-.7,3.72h13.69Z" style="fill:#fff"/><path d="M660.22,455.38V454h13.4v-7a65.94,65.94,0,0,1-9.88.61v-1.38a64.14,64.14,0,0,0,9.62-.61,62.14,62.14,0,0,0,9.11-2.21l.45,1.35a71.08,71.08,0,0,1-7.73,2V454h11v1.42H675.13q-.33,5.44-2.62,8.33t-7.26,4.2l-.42-1.38q4.5-1.21,6.48-3.73t2.28-7.42Z" style="fill:#fff"/><path d="M705,450.08h17.25v1.35h-7.85v13.21h9.33V466h-20.2v-1.35h9.33V451.43H705Z" style="fill:#fff"/><path d="M741.44,456.24V454.7h25.14v1.54Z" style="fill:#fff"/><path d="M783.8,445.56l.8-1.25a92,92,0,0,1,8.44,5.81l-.9,1.21A97,97,0,0,0,783.8,445.56Zm.26,19.85a25.17,25.17,0,0,0,14.35-5.56,21.2,21.2,0,0,0,7.13-12.65l1.44.35A22.4,22.4,0,0,1,799.43,461q-6,5.08-15.21,5.89Z" style="fill:#fff"/><path d="M837.48,466.05a9.73,9.73,0,0,0,6.28-3.54,10.72,10.72,0,0,0,2.41-7,8.43,8.43,0,0,0-2.82-6.57,10.53,10.53,0,0,0-7.31-2.54h-.32q-1.23,9.43-3.45,14.32c-1.49,3.26-3.2,4.89-5.15,4.89-1.28,0-2.47-.81-3.56-2.43a10.19,10.19,0,0,1-1.63-5.81,11.35,11.35,0,0,1,3.91-8.93A14.86,14.86,0,0,1,836,445a12.06,12.06,0,0,1,8.41,2.94,9.73,9.73,0,0,1,3.26,7.58,12.15,12.15,0,0,1-2.74,8,11.15,11.15,0,0,1-7.14,4Zm-3.34-19.59a12.55,12.55,0,0,0-7.77,3.48,10,10,0,0,0-2.94,7.36,8.77,8.77,0,0,0,1.24,4.79c.82,1.3,1.65,1.94,2.48,1.94a2.15,2.15,0,0,0,1.16-.38,5.9,5.9,0,0,0,1.41-1.54,16,16,0,0,0,1.55-3A34.85,34.85,0,0,0,832.8,454Q833.57,450.69,834.14,446.46Z" style="fill:#fff"/><path d="M885.84,464.48l.28,1.45a42.93,42.93,0,0,1-9.62,1.34c-4.1,0-7.15-.54-9.13-1.63s-3-2.48-3-4.17q0-3.12,5.58-7.79l1.06,1c-3.36,2.87-5,5.1-5,6.7,0,1.37.92,2.45,2.77,3.23a20.5,20.5,0,0,0,7.74,1.17A40.73,40.73,0,0,0,885.84,464.48ZM867,446.33l.13-1.44a63.71,63.71,0,0,0,10,.77c2.31,0,4.42-.1,6.35-.29l.1,1.44c-2.06.2-4.21.29-6.45.29A63.08,63.08,0,0,1,867,446.33Z" style="fill:#fff"/><path d="M909.5,454.25c0-.51,0-1.33,0-2.45s0-2,0-2.61a47,47,0,0,1-7.38.57l0-1.41a47.5,47.5,0,0,0,7.38-.57v-5.55h1.47q0,4.32.07,10.61a55.39,55.39,0,0,1,6.49-5.43,7.25,7.25,0,0,1,3.57-1.49,2.1,2.1,0,0,1,2,1.12,9,9,0,0,1,.59,3.91c0,1.84,0,3.57-.16,5.2s-.16,3.13-.16,4.45a18.56,18.56,0,0,0,.23,3.34,2.89,2.89,0,0,0,.54,1.44,1.33,1.33,0,0,0,.9.29,4.69,4.69,0,0,0,2.23-1,12.94,12.94,0,0,0,2.68-2.42l1.09,1a14.23,14.23,0,0,1-3.24,2.85,5.85,5.85,0,0,1-2.92,1,2.46,2.46,0,0,1-2.34-1.41,11,11,0,0,1-.74-4.72c0-1.35.06-2.84.16-4.49s.16-3.28.16-5.16a11.17,11.17,0,0,0-.29-3.27,1.05,1.05,0,0,0-1-.77c-1.27,0-4.51,2.49-9.75,7.47q.12,10.46.22,13.5l-1.47,0q-.13-4.77-.23-12.12-4.23,4.14-7,7.06l-1.09-1Q904.78,458.81,909.5,454.25Z" style="fill:#fff"/><path d="M950.32,448.45a61,61,0,0,0,1.06-7.15l1.51.13q-.36,3.65-1,6.92c1.56-.1,2.75-.16,3.56-.16s1.51,0,2,.08a4.71,4.71,0,0,1,1.41.36,2.61,2.61,0,0,1,1,.65,3.37,3.37,0,0,1,.54,1.17,8.22,8.22,0,0,1,.29,1.73c0,.64.06,1.46.06,2.49a21.1,21.1,0,0,1-1.84,9.51c-1.23,2.42-2.64,3.64-4.22,3.64q-1.92,0-4.74-2.57l.8-1.22c1.62,1.52,2.94,2.28,3.94,2.28s2.12-1.07,3.08-3.22a21.51,21.51,0,0,0,1.44-8.64c0-.82,0-1.46,0-1.94a5.53,5.53,0,0,0-.21-1.34,2.41,2.41,0,0,0-.38-.86,1.72,1.72,0,0,0-.69-.45,3.15,3.15,0,0,0-1-.22c-.35,0-.84,0-1.46,0-.83,0-2.11.06-3.82.16A69.57,69.57,0,0,1,944.84,468l-1.35-.61A68.17,68.17,0,0,0,950,449.86c-2,.17-4.21.4-6.54.67l-.1-1.38Q948,448.64,950.32,448.45Zm12-2,1.35-.64a81.23,81.23,0,0,1,6.93,15.3l-1.42.48A79.49,79.49,0,0,0,962.28,446.49Z" style="fill:#fff"/><path d="M999.09,453.52a9.09,9.09,0,0,1,5.86,1.63,5.79,5.79,0,0,1,2,4.75,6.69,6.69,0,0,1-3.06,5.78q-3.06,2.15-8.42,2.14a37,37,0,0,1-6.89-.64l.22-1.45a34.22,34.22,0,0,0,6.7.64c3.12,0,5.55-.57,7.28-1.73a5.41,5.41,0,0,0,2.6-4.74c0-3.3-2.13-4.94-6.38-4.94q-5.81,0-11.22,4.62l-1.61-.42q1.41-5.94,2.15-11.19l1.47.13c-.44,3.16-1,6.36-1.82,9.58l.06,0a18.81,18.81,0,0,1,5.29-3.1A16,16,0,0,1,999.09,453.52Zm-8.94-9.11.41-1.32a45.24,45.24,0,0,0,13.22,2.73l0,1.38A45.59,45.59,0,0,1,990.15,444.41Z" style="fill:#fff"/><path d="M275.6,177.25a22.34,22.34,0,0,1,6.45.91,15.1,15.1,0,0,1,5.26,2.75,12.92,12.92,0,0,1,3.53,4.56,15,15,0,0,1,1.27,6.41,13.69,13.69,0,0,1-3.53,9.2,12.82,12.82,0,0,1-8.87,4.19v.17a15.73,15.73,0,0,1,5.46,1.11,13.78,13.78,0,0,1,4.52,2.87,13.62,13.62,0,0,1,3.08,4.52,15.1,15.1,0,0,1,1.15,6,15.85,15.85,0,0,1-1.44,6.94,13.69,13.69,0,0,1-4,5,17.86,17.86,0,0,1-6.12,3,27.87,27.87,0,0,1-7.77,1H250.37V177.25Zm0,27.28a20,20,0,0,0,5.63-.78,13.91,13.91,0,0,0,4.72-2.38,12,12,0,0,0,3.29-4,11.79,11.79,0,0,0,1.23-5.5,13.32,13.32,0,0,0-1.15-5.79,11.24,11.24,0,0,0-3.16-4,13.51,13.51,0,0,0-4.73-2.38,21,21,0,0,0-5.83-.78H252v25.63Zm-.25,29.75a24.63,24.63,0,0,0,6.7-.87,15.32,15.32,0,0,0,5.34-2.62,12.64,12.64,0,0,0,3.57-4.44,14,14,0,0,0,1.32-6.29,13.39,13.39,0,0,0-1.44-6.49,12.48,12.48,0,0,0-3.78-4.27,15.61,15.61,0,0,0-5.34-2.38,25.13,25.13,0,0,0-6.12-.74H252v28.1Z" style="fill:#fff"/><path d="M319.31,177.25v58.67h-1.64V177.25Z" style="fill:#fff"/><path d="M343.79,206.46a21.34,21.34,0,0,1,3.66-7,18.41,18.41,0,0,1,6-4.89,19,19,0,0,1,16.35,0,18.52,18.52,0,0,1,6,4.89,21.32,21.32,0,0,1,3.65,7,28.89,28.89,0,0,1,0,16.68,21.27,21.27,0,0,1-3.65,7,18.15,18.15,0,0,1-6,4.85,17.9,17.9,0,0,1-8.22,1.8,17.64,17.64,0,0,1-8.13-1.8,18,18,0,0,1-6-4.85,21.29,21.29,0,0,1-3.66-7,28.89,28.89,0,0,1,0-16.68Zm1.52,16.07a19.67,19.67,0,0,0,3.33,6.53,16.44,16.44,0,0,0,5.47,4.52,17.47,17.47,0,0,0,14.95,0,16.5,16.5,0,0,0,5.46-4.52,19.67,19.67,0,0,0,3.33-6.53A26.76,26.76,0,0,0,379,214.8a26.44,26.44,0,0,0-1.11-7.64,19.67,19.67,0,0,0-3.33-6.53,17,17,0,0,0-5.46-4.56,17,17,0,0,0-14.95,0,16.92,16.92,0,0,0-5.47,4.56,19.67,19.67,0,0,0-3.33,6.53,26.44,26.44,0,0,0-1.11,7.64A26.76,26.76,0,0,0,345.31,222.53Z" style="fill:#fff"/><path d="M436.15,227.91a15.24,15.24,0,0,1-3.66,4.81,16.41,16.41,0,0,1-5.26,3,19.63,19.63,0,0,1-6.61,1.06,18.21,18.21,0,0,1-8-1.68,17.2,17.2,0,0,1-5.88-4.56,19.94,19.94,0,0,1-3.61-6.7,26.47,26.47,0,0,1-1.24-8.17,31.3,31.3,0,0,1,1.2-8.75,21.61,21.61,0,0,1,3.61-7.32,17.83,17.83,0,0,1,6.16-5,19.18,19.18,0,0,1,8.75-1.89,17.54,17.54,0,0,1,5.67.91,15.26,15.26,0,0,1,4.85,2.62,14.47,14.47,0,0,1,3.58,4.32,16.22,16.22,0,0,1,1.84,6H435.9a15.36,15.36,0,0,0-1.81-5.39,13.56,13.56,0,0,0-3.2-3.78,13.07,13.07,0,0,0-4.27-2.26,16.94,16.94,0,0,0-5-.74,17.31,17.31,0,0,0-8.5,1.94,15.85,15.85,0,0,0-5.59,5,21.29,21.29,0,0,0-3,6.9,31.23,31.23,0,0,0-.94,7.52,24.49,24.49,0,0,0,1.11,7.39,19.43,19.43,0,0,0,3.24,6.25,15.65,15.65,0,0,0,5.34,4.31,16.31,16.31,0,0,0,7.4,1.6,17.6,17.6,0,0,0,5.83-.94,14.5,14.5,0,0,0,8.22-7.07,14.58,14.58,0,0,0,1.56-5.71h1.64A18.1,18.1,0,0,1,436.15,227.91Z" style="fill:#fff"/><path d="M463,235.92h-1.65V177.25H463v40.68l29.16-24.24h2.39l-19.39,16.1L496,235.92h-2.21l-19.81-25L463,220Z" style="fill:#fff"/><path d="M561.37,222.73a25.87,25.87,0,0,1-5.3,7.69,23.58,23.58,0,0,1-7.69,5,26.43,26.43,0,0,1-10,1.81A25.33,25.33,0,0,1,527.64,235a24.83,24.83,0,0,1-8.38-6.25,29,29,0,0,1-5.47-9.53,36.08,36.08,0,0,1-2-12.12,41.25,41.25,0,0,1,1.52-10.89,30.78,30.78,0,0,1,4.81-10.06,25.62,25.62,0,0,1,8.54-7.4,26.3,26.3,0,0,1,12.74-2.87,24.94,24.94,0,0,1,10.19,1.93,23.83,23.83,0,0,1,7.27,4.85,20.88,20.88,0,0,1,4.39,6.2,16,16,0,0,1,1.57,6H561.2a15.74,15.74,0,0,0-1.89-6.29,19.39,19.39,0,0,0-4.48-5.54,22.72,22.72,0,0,0-6.73-4,26.33,26.33,0,0,0-20.87,1.4,24.68,24.68,0,0,0-8,7.31,30,30,0,0,0-4.4,9.57,38.83,38.83,0,0,0-1.36,9.78,35.17,35.17,0,0,0,1.65,10.76A27.25,27.25,0,0,0,520,227a24.23,24.23,0,0,0,7.84,6.33,22.8,22.8,0,0,0,10.56,2.38,24.6,24.6,0,0,0,9.45-1.72,21.9,21.9,0,0,0,7.23-4.77A23.93,23.93,0,0,0,560,222a32.43,32.43,0,0,0,2.55-9h1.64A35,35,0,0,1,561.37,222.73Z" style="fill:#fff"/><path d="M588.65,177.25v26.87h.16a14.9,14.9,0,0,1,1.85-4.52,14.3,14.3,0,0,1,7.68-6,19,19,0,0,1,11.71.13,13.23,13.23,0,0,1,4.76,2.91,13.08,13.08,0,0,1,3.13,4.77,17.84,17.84,0,0,1,1.11,6.53v28H617.4V208.15a16.35,16.35,0,0,0-1.07-6.29,11.73,11.73,0,0,0-2.91-4.27,11.54,11.54,0,0,0-4.27-2.46,16.7,16.7,0,0,0-5.14-.79,14.84,14.84,0,0,0-6.66,1.44,14.2,14.2,0,0,0-4.8,3.86,17,17,0,0,0-2.92,5.63,22.75,22.75,0,0,0-1,6.74v23.91H587V177.25Z" style="fill:#fff"/><path d="M645.67,201.21a12.69,12.69,0,0,1,3.08-4.48,14.17,14.17,0,0,1,4.93-3,20,20,0,0,1,6.86-1.07,23.27,23.27,0,0,1,5.3.58,11.37,11.37,0,0,1,4.4,2,10.6,10.6,0,0,1,3,3.74,13.71,13.71,0,0,1,1.23,5.75v26.87a2.76,2.76,0,0,0,.49,1.81,2.52,2.52,0,0,0,1.32.78,6.24,6.24,0,0,0,1.76.16q.95,0,1.77-.12v1.64h-2.47a5.8,5.8,0,0,1-3.16-.86,3.57,3.57,0,0,1-1.36-3.25v-5.5h-.16a13.1,13.1,0,0,1-2.1,3.94,15.18,15.18,0,0,1-3.61,3.37,18.23,18.23,0,0,1-5,2.34,20.35,20.35,0,0,1-6.08.86q-6.41,0-10.27-2.83t-3.86-8.5a13.45,13.45,0,0,1,1.27-6.33,10,10,0,0,1,3.33-3.74,13.32,13.32,0,0,1,4.68-1.89,37.92,37.92,0,0,1,5.26-.7q4.35-.24,7.48-.45a23.31,23.31,0,0,0,5.13-.82,5.57,5.57,0,0,0,3-1.89,6.07,6.07,0,0,0,.94-3.66,26,26,0,0,0-.32-3.94,8.58,8.58,0,0,0-1.61-3.78,9.22,9.22,0,0,0-3.73-2.84,16.54,16.54,0,0,0-6.66-1.11q-6.66,0-10.35,3.25t-4.11,9.16h-1.64A16.64,16.64,0,0,1,645.67,201.21Zm27,9.9a5.18,5.18,0,0,1-2.55,1.76,20.89,20.89,0,0,1-3.94.95,43,43,0,0,1-4.81.41c-1.72.05-3.41.14-5,.25a39.5,39.5,0,0,0-4.81.61,11.46,11.46,0,0,0-4.15,1.64,8.46,8.46,0,0,0-2.87,3.29,12.1,12.1,0,0,0-1.07,5.47,10.57,10.57,0,0,0,.62,3.57,7.49,7.49,0,0,0,2.09,3.12A11.29,11.29,0,0,0,650,234.4a16.75,16.75,0,0,0,5.79.86,18.2,18.2,0,0,0,7.32-1.39,16.52,16.52,0,0,0,5.38-3.66,15.16,15.16,0,0,0,3.29-5.22,17.16,17.16,0,0,0,1.1-6.08v-7.8Z" style="fill:#fff"/><path d="M700.47,185.55v-8.3h1.64v8.3Zm0,50.37V193.69h1.64v42.23Z" style="fill:#fff"/><path d="M729.23,193.69v10.43h.16a15.16,15.16,0,0,1,1.85-4.52,14.29,14.29,0,0,1,3.21-3.61,14.49,14.49,0,0,1,4.47-2.43,19,19,0,0,1,11.71.13,12.82,12.82,0,0,1,7.89,7.68,17.84,17.84,0,0,1,1.11,6.53v28H758V208.15a16.54,16.54,0,0,0-1.07-6.29,11.75,11.75,0,0,0-2.92-4.27,11.54,11.54,0,0,0-4.27-2.46,16.7,16.7,0,0,0-5.14-.79,14.76,14.76,0,0,0-6.65,1.44,14.24,14.24,0,0,0-4.81,3.86,17,17,0,0,0-2.92,5.63,23.08,23.08,0,0,0-1,6.74v23.91h-1.65V193.69Z" style="fill:#fff"/><path d="M813.78,177.25v43.39a24.51,24.51,0,0,1-.87,6.74,13.67,13.67,0,0,1-2.75,5.25,12.1,12.1,0,0,1-5,3.41,20.77,20.77,0,0,1-7.52,1.2,19.07,19.07,0,0,1-7.15-1.2,12.63,12.63,0,0,1-4.84-3.32,13.24,13.24,0,0,1-2.76-5.06,22.51,22.51,0,0,1-.86-6.37v-3.53h1.64v3.53q0,7.25,3.54,10.81t10.43,3.57a21.14,21.14,0,0,0,6.21-.82,10.47,10.47,0,0,0,4.51-2.71,11.92,11.92,0,0,0,2.8-5,27,27,0,0,0,.94-7.72V177.25Z" style="fill:#fff"/><path d="M840.73,201.21a12.56,12.56,0,0,1,3.08-4.48,14.17,14.17,0,0,1,4.93-3,20,20,0,0,1,6.86-1.07,23.27,23.27,0,0,1,5.3.58,11.26,11.26,0,0,1,4.39,2,10.49,10.49,0,0,1,3,3.74,13.55,13.55,0,0,1,1.24,5.75v26.87a2.76,2.76,0,0,0,.49,1.81,2.52,2.52,0,0,0,1.32.78,6.24,6.24,0,0,0,1.76.16q.95,0,1.77-.12v1.64h-2.47a5.8,5.8,0,0,1-3.16-.86,3.57,3.57,0,0,1-1.36-3.25v-5.5h-.16a13.1,13.1,0,0,1-2.1,3.94,15.18,15.18,0,0,1-3.61,3.37,18.23,18.23,0,0,1-5,2.34,20.4,20.4,0,0,1-6.08.86q-6.42,0-10.27-2.83t-3.86-8.5a13.45,13.45,0,0,1,1.27-6.33,10,10,0,0,1,3.33-3.74,13.24,13.24,0,0,1,4.68-1.89,37.72,37.72,0,0,1,5.26-.7q4.35-.24,7.47-.45a23.31,23.31,0,0,0,5.14-.82,5.57,5.57,0,0,0,3-1.89,6.07,6.07,0,0,0,.94-3.66,24.83,24.83,0,0,0-.33-3.94,8.44,8.44,0,0,0-1.6-3.78,9.19,9.19,0,0,0-3.74-2.84,16.45,16.45,0,0,0-6.65-1.11q-6.66,0-10.35,3.25t-4.11,9.16h-1.65A16.65,16.65,0,0,1,840.73,201.21Zm27,9.9a5.18,5.18,0,0,1-2.55,1.76,20.89,20.89,0,0,1-3.94.95,43,43,0,0,1-4.81.41c-1.72.05-3.41.14-5.05.25a39.25,39.25,0,0,0-4.81.61,11.46,11.46,0,0,0-4.15,1.64,8.46,8.46,0,0,0-2.87,3.29,12,12,0,0,0-1.07,5.47,10.8,10.8,0,0,0,.61,3.57,7.61,7.61,0,0,0,2.1,3.12A11.29,11.29,0,0,0,845,234.4a16.75,16.75,0,0,0,5.79.86,18.2,18.2,0,0,0,7.32-1.39,16.52,16.52,0,0,0,5.38-3.66,15.14,15.14,0,0,0,3.28-5.22,17.17,17.17,0,0,0,1.11-6.08v-7.8Z" style="fill:#fff"/><path d="M897.17,193.69v10.43h.17a15.6,15.6,0,0,1,1.8-4.52,14.89,14.89,0,0,1,3.05-3.61,14,14,0,0,1,4-2.43,12.58,12.58,0,0,1,4.64-.86,12.1,12.1,0,0,1,8.26,2.51,12.74,12.74,0,0,1,4.4,7.35h.16a13.05,13.05,0,0,1,4.85-7.15A13.89,13.89,0,0,1,937,192.7a15.71,15.71,0,0,1,6.41,1.15,10.57,10.57,0,0,1,4.11,3.17,12.33,12.33,0,0,1,2.22,4.84,27.79,27.79,0,0,1,.66,6.29v27.77h-1.65V208.15a28.18,28.18,0,0,0-.53-5.67,11,11,0,0,0-1.89-4.36,8.85,8.85,0,0,0-3.62-2.79,14.27,14.27,0,0,0-5.71-1,12.42,12.42,0,0,0-9.69,4.44,14.48,14.48,0,0,0-2.63,4.73,17.47,17.47,0,0,0-.91,5.62v26.79h-1.64V208.81a33.05,33.05,0,0,0-.45-5.59,12.61,12.61,0,0,0-1.68-4.6,8.66,8.66,0,0,0-3.46-3.12,12.4,12.4,0,0,0-5.75-1.16,11.43,11.43,0,0,0-5.67,1.44,13.69,13.69,0,0,0-4.31,3.86,18.28,18.28,0,0,0-2.71,5.63,23.76,23.76,0,0,0-1,6.74v23.91h-1.64V193.69Z" style="fill:#fff"/><path d="M1052.79,235.92h-37.63a12.66,12.66,0,0,1,1.48-6.41,22.71,22.71,0,0,1,4.11-5.38,47.9,47.9,0,0,1,5.71-4.77l6.29-4.47q3.2-2.22,6.24-4.52a45,45,0,0,0,5.42-4.81,22.27,22.27,0,0,0,3.82-5.34,14.17,14.17,0,0,0,.25-11.91,12,12,0,0,0-3.24-4.19,13.88,13.88,0,0,0-4.89-2.55,21.09,21.09,0,0,0-6.21-.86,19.12,19.12,0,0,0-7.47,1.31,13.29,13.29,0,0,0-5.1,3.66,14.65,14.65,0,0,0-2.87,5.58,26.21,26.21,0,0,0-.91,7.11h-1.64q.08-9.19,4.56-14.25t13.43-5.06a23.16,23.16,0,0,1,6.74.95,15.47,15.47,0,0,1,5.42,2.83,13.57,13.57,0,0,1,3.66,4.69,15.9,15.9,0,0,1-1.11,14.95,34.55,34.55,0,0,1-6.2,7.07,77.54,77.54,0,0,1-8.1,6.2q-4.35,2.91-8.17,5.83a45.15,45.15,0,0,0-6.53,6,11.53,11.53,0,0,0-3,6.7h36Z" style="fill:#fff"/><path d="M1115.69,218.42a28.64,28.64,0,0,1-3.49,9.28,19.48,19.48,0,0,1-6.49,6.62,21.59,21.59,0,0,1-20.17,0,19.33,19.33,0,0,1-6.53-6.62,28.65,28.65,0,0,1-3.5-9.28,53.89,53.89,0,0,1,0-20.87,28.8,28.8,0,0,1,3.5-9.29,19.77,19.77,0,0,1,6.53-6.65,21.22,21.22,0,0,1,20.17,0,19.94,19.94,0,0,1,6.49,6.65,28.78,28.78,0,0,1,3.49,9.29,53.37,53.37,0,0,1,0,20.87Zm-1.52-20a28.33,28.33,0,0,0-3.12-8.79,18.71,18.71,0,0,0-6-6.45,19.26,19.26,0,0,0-19,0,18.59,18.59,0,0,0-5.95,6.45,28.35,28.35,0,0,0-3.13,8.79,51,51,0,0,0,0,19.07,28.35,28.35,0,0,0,3.13,8.79,18.59,18.59,0,0,0,5.95,6.45,19.26,19.26,0,0,0,19,0,18.71,18.71,0,0,0,6-6.45,28.33,28.33,0,0,0,3.12-8.79,50.41,50.41,0,0,0,0-19.07Z" style="fill:#fff"/><path d="M1159.2,182.18a23.69,23.69,0,0,1-6.62,6.13,30.25,30.25,0,0,1-8.25,3.73V190.4a33,33,0,0,0,4.52-1.81,27.08,27.08,0,0,0,3.69-2.21,29.77,29.77,0,0,0,3.33-2.8q1.61-1.56,3.33-3.53H1161v55.87h-1.65V182.18Z" style="fill:#fff"/><path d="M1205.42,229a14.5,14.5,0,0,0,4,3.82,14.71,14.71,0,0,0,4.64,1.93,20.69,20.69,0,0,0,4.48.53,17.14,17.14,0,0,0,7.27-1.43,15.77,15.77,0,0,0,5.26-3.91,20.73,20.73,0,0,0,3.54-5.67,38.82,38.82,0,0,0,2.13-6.73,49.33,49.33,0,0,0,1-7.11c.16-2.38.22-4.64.16-6.78h-.16a16.87,16.87,0,0,1-2.3,5.5,18.64,18.64,0,0,1-9.53,7.48,19.29,19.29,0,0,1-6.41,1.07,18.84,18.84,0,0,1-7.11-1.4,19.38,19.38,0,0,1-10.56-10.06,18.67,18.67,0,0,1-1.64-7.85,18.89,18.89,0,0,1,1.56-7.72,19.15,19.15,0,0,1,4.23-6.12,19.39,19.39,0,0,1,6.16-4,19.12,19.12,0,0,1,7.36-1.44,18,18,0,0,1,5.38.78,20.54,20.54,0,0,1,4.56,2,19.48,19.48,0,0,1,9.45,14.42,73.41,73.41,0,0,1,.66,10.14,58.62,58.62,0,0,1-1,10.64,32,32,0,0,1-3.41,9.78,20.78,20.78,0,0,1-6.49,7.19,17.67,17.67,0,0,1-10.23,2.79,19.63,19.63,0,0,1-6.61-1.06,16.66,16.66,0,0,1-5.22-3,15.43,15.43,0,0,1-3.62-4.48,16.23,16.23,0,0,1-1.8-5.55h1.64A16.37,16.37,0,0,0,1205.42,229Zm30.36-37.51a17.79,17.79,0,0,0-9.37-9.37,17.82,17.82,0,0,0-13.8,0,17.79,17.79,0,0,0-9.37,9.37,17.7,17.7,0,0,0,0,13.8,17.79,17.79,0,0,0,9.37,9.37,17.7,17.7,0,0,0,13.8,0,17.79,17.79,0,0,0,9.37-9.37,17.82,17.82,0,0,0,0-13.8Z" style="fill:#fff"/></g></svg>