<?xml version="1.0" encoding="utf-8"?>
<!-- Generator: Adobe Illustrator 22.1.0, SVG Export Plug-In . SVG Version: 6.00 Build 0)  -->
<svg version="1.1" id="レイヤー_1" xmlns="http://www.w3.org/2000/svg" xmlns:xlink="http://www.w3.org/1999/xlink" x="0px"
	 y="0px" viewBox="0 0 1500 996.6" style="enable-background:new 0 0 1500 996.6;" xml:space="preserve">
<style type="text/css">
	.st0{fill:url(#SVGID_1_);}
	.st1{fill:#FFFFFF;}
</style>
<title>BCJ_web_PC 4_EN_OL</title>
<g id="レイヤー_2_1_">
	
		<linearGradient id="SVGID_1_" gradientUnits="userSpaceOnUse" x1="33.1976" y1="1039.8817" x2="1510.7576" y2="-77.9284" gradientTransform="matrix(1 0 0 -1 0 996)">
		<stop  offset="2.000000e-02" style="stop-color:#00FFFF"/>
		<stop  offset="3.000000e-02" style="stop-color:#00F8FA"/>
		<stop  offset="0.14" style="stop-color:#00C1D5"/>
		<stop  offset="0.25" style="stop-color:#0093B6"/>
		<stop  offset="0.35" style="stop-color:#006F9E"/>
		<stop  offset="0.45" style="stop-color:#00558C"/>
		<stop  offset="0.53" style="stop-color:#004582"/>
		<stop  offset="0.6" style="stop-color:#00407E"/>
		<stop  offset="0.63" style="stop-color:#003B77"/>
		<stop  offset="0.79" style="stop-color:#001E4E"/>
		<stop  offset="0.92" style="stop-color:#000D35"/>
		<stop  offset="1" style="stop-color:#00062C"/>
	</linearGradient>
	<rect class="st0" width="1499.8" height="996.7"/>
	<path class="st1" d="M727.4,131.4h-13.1c0-0.8,0.1-1.6,0.5-2.2c0.4-0.7,0.9-1.3,1.4-1.9c0.6-0.6,1.3-1.2,2-1.7l2.2-1.6
		c0.7-0.5,1.5-1,2.2-1.6c0.7-0.5,1.3-1.1,1.9-1.7c0.5-0.6,1-1.2,1.3-1.9c0.6-1.3,0.7-2.8,0.1-4.2c-0.3-0.6-0.7-1.1-1.1-1.5
		c-0.5-0.4-1.1-0.7-1.7-0.9c-0.7-0.2-1.4-0.3-2.2-0.3c-0.9,0-1.8,0.1-2.6,0.5c-0.7,0.3-1.3,0.7-1.8,1.3c-0.5,0.6-0.8,1.2-1,1.9
		c-0.2,0.8-0.3,1.6-0.3,2.5h-0.6c-0.1-1.8,0.5-3.6,1.6-5c1.2-1.2,2.9-1.9,4.7-1.8c0.8,0,1.6,0.1,2.3,0.3c0.7,0.2,1.3,0.5,1.9,1
		c0.5,0.4,1,1,1.3,1.6c0.7,1.7,0.6,3.7-0.4,5.2c-0.6,0.9-1.3,1.8-2.2,2.5c-0.9,0.8-1.8,1.5-2.8,2.2c-1,0.7-2,1.3-2.8,2
		c-0.8,0.6-1.6,1.3-2.3,2.1c-0.6,0.6-1,1.5-1.1,2.3h12.6L727.4,131.4z"/>
	<path class="st1" d="M747,125.3c-0.2,1.1-0.6,2.2-1.2,3.2c-0.6,0.9-1.3,1.7-2.3,2.3c-2.2,1.1-4.8,1.1-7,0c-0.9-0.6-1.7-1.4-2.3-2.3
		c-0.6-1-1-2.1-1.2-3.2c-0.5-2.4-0.5-4.9,0-7.3c0.2-1.1,0.6-2.2,1.2-3.2c0.6-0.9,1.3-1.7,2.3-2.3c2.2-1.2,4.8-1.2,7,0
		c0.9,0.6,1.7,1.4,2.3,2.3c0.6,1,1,2.1,1.2,3.2C747.5,120.4,747.5,122.9,747,125.3L747,125.3z M746.5,118.3
		c-0.2-1.1-0.6-2.1-1.1-3.1c-0.5-0.9-1.2-1.7-2.1-2.3c-2.1-1.2-4.6-1.2-6.6,0c-0.9,0.6-1.6,1.3-2.1,2.3c-0.5,1-0.9,2-1.1,3.1
		c-0.4,2.2-0.4,4.5,0,6.7c0.2,1.1,0.6,2.1,1.1,3.1c0.5,0.9,1.2,1.7,2.1,2.3c2.1,1.2,4.6,1.2,6.6,0c0.9-0.6,1.6-1.3,2.1-2.3
		c0.5-1,0.9-2,1.1-3.1C746.9,122.8,746.9,120.5,746.5,118.3z"/>
	<path class="st1" d="M759.9,112.7c-0.6,0.8-1.4,1.6-2.3,2.1c-0.9,0.6-1.9,1-2.9,1.3v-0.6c0.5-0.2,1.1-0.4,1.6-0.6
		c0.5-0.2,0.9-0.5,1.3-0.8c0.4-0.3,0.8-0.6,1.2-1c0.4-0.4,0.8-0.8,1.2-1.2h0.6v19.5H760L759.9,112.7L759.9,112.7z"/>
	<path class="st1" d="M784.6,122.3c0.9,1,1.4,2.3,1.3,3.6c0,0.9-0.2,1.8-0.6,2.6c-0.4,0.7-0.9,1.3-1.5,1.8c-0.7,0.5-1.4,0.8-2.3,1
		c-1.8,0.4-3.7,0.4-5.5,0c-0.8-0.2-1.6-0.5-2.3-1c-0.6-0.5-1.2-1.1-1.5-1.8c-0.4-0.8-0.6-1.7-0.6-2.6c-0.1-1.3,0.4-2.6,1.3-3.6
		c1-1,2.3-1.5,3.7-1.6v-0.1c-0.5-0.1-1.1-0.2-1.6-0.5c-0.5-0.2-0.9-0.5-1.3-0.9c-0.4-0.4-0.7-0.8-0.9-1.3c-0.2-0.5-0.3-1-0.3-1.6
		c0-0.8,0.1-1.5,0.5-2.3c0.3-0.6,0.8-1.1,1.3-1.5c0.6-0.4,1.2-0.7,2-0.9c1.6-0.4,3.2-0.4,4.8,0c0.7,0.2,1.4,0.5,2,0.9
		c0.6,0.4,1,0.9,1.3,1.5c0.3,0.7,0.5,1.5,0.5,2.3c0,0.5-0.1,1.1-0.3,1.6c-0.2,0.5-0.5,0.9-0.9,1.3c-0.4,0.4-0.8,0.7-1.3,0.9
		c-0.5,0.2-1,0.4-1.6,0.5v0.1C782.3,120.8,783.6,121.3,784.6,122.3z M784.8,123.6c-0.4-0.6-0.8-1.1-1.5-1.5
		c-0.6-0.4-1.3-0.7-2.1-0.8c-1.6-0.3-3.3-0.3-4.9,0c-0.7,0.1-1.4,0.4-2.1,0.8c-0.6,0.4-1.1,0.9-1.5,1.5c-0.4,0.7-0.6,1.5-0.5,2.4
		c0,0.8,0.2,1.7,0.5,2.4c0.3,0.6,0.8,1.2,1.4,1.6c0.6,0.4,1.3,0.7,2.1,0.9c1.6,0.4,3.3,0.4,4.9,0c0.7-0.2,1.5-0.5,2.1-0.9
		c0.6-0.4,1.1-1,1.4-1.6c0.4-0.7,0.6-1.6,0.5-2.4C785.3,125.1,785.2,124.3,784.8,123.6z M783.9,114.4c-0.3-0.5-0.7-1-1.3-1.3
		c-0.5-0.4-1.1-0.6-1.8-0.7c-1.4-0.3-2.7-0.3-4.1,0c-0.6,0.1-1.2,0.4-1.8,0.7c-0.5,0.3-0.9,0.8-1.2,1.3c-0.3,0.6-0.5,1.4-0.5,2.1
		c0,0.6,0.2,1.3,0.5,1.8c0.3,0.5,0.8,0.9,1.3,1.2c0.5,0.3,1.1,0.6,1.8,0.7c1.3,0.3,2.6,0.3,3.9,0c0.6-0.1,1.2-0.4,1.8-0.7
		c0.5-0.3,1-0.7,1.3-1.2c0.3-0.5,0.5-1.2,0.5-1.8C784.4,115.8,784.2,115,783.9,114.4z"/>
	<path class="st1" d="M793.9,131.4v-2.8h0.6v2.8H793.9z"/>
	<path class="st1" d="M810.1,112.7c-0.6,0.8-1.4,1.6-2.3,2.1c-0.9,0.6-1.9,1-2.9,1.3v-0.6c0.5-0.2,1.1-0.4,1.6-0.6
		c0.5-0.2,0.9-0.5,1.3-0.8c0.4-0.3,0.8-0.6,1.2-1c0.4-0.4,0.8-0.8,1.2-1.2h0.6v19.5h-0.6L810.1,112.7L810.1,112.7z"/>
	<path class="st1" d="M836,125.3c-0.2,1.1-0.6,2.2-1.2,3.2c-0.6,0.9-1.3,1.7-2.3,2.3c-1.1,0.6-2.3,0.9-3.5,0.9
		c-1.2,0-2.5-0.3-3.5-0.9c-0.9-0.6-1.7-1.4-2.3-2.3c-0.6-1-1-2.1-1.2-3.2c-0.5-2.4-0.5-4.9,0-7.3c0.2-1.1,0.6-2.2,1.2-3.2
		c0.6-0.9,1.3-1.7,2.3-2.3c1.1-0.6,2.3-0.9,3.5-0.9c1.2,0,2.5,0.3,3.5,0.9c0.9,0.6,1.7,1.4,2.3,2.3c0.6,1,1,2.1,1.2,3.2
		C836.5,120.4,836.5,122.9,836,125.3L836,125.3z M835.5,118.3c-0.2-1.1-0.6-2.1-1.1-3.1c-0.5-0.9-1.2-1.7-2.1-2.3
		c-2.1-1.2-4.6-1.2-6.6,0c-0.9,0.6-1.6,1.3-2.1,2.3c-0.5,1-0.9,2-1.1,3.1c-0.4,2.2-0.4,4.5,0,6.7c0.2,1.1,0.6,2.1,1.1,3.1
		c0.5,0.9,1.2,1.7,2.1,2.3c2.1,1.2,4.6,1.2,6.6,0c0.9-0.6,1.6-1.3,2.1-2.3c0.5-1,0.9-2,1.1-3.1C835.9,122.8,835.9,120.5,835.5,118.3
		z"/>
	<path class="st1" d="M844.1,131.4v-2.8h0.6v2.8H844.1z"/>
	<path class="st1" d="M866.5,131.4h-13.1c0-0.8,0.2-1.6,0.5-2.2c0.4-0.7,0.9-1.3,1.4-1.9c0.6-0.6,1.3-1.2,2-1.7l2.2-1.6
		c0.8-0.5,1.5-1,2.2-1.6c0.7-0.5,1.3-1.1,1.9-1.7c0.5-0.6,1-1.2,1.3-1.9c0.3-0.7,0.5-1.4,0.5-2.1c0-0.7-0.1-1.4-0.4-2
		c-0.3-0.6-0.6-1.1-1.1-1.5c-0.5-0.4-1.1-0.7-1.7-0.9c-0.7-0.2-1.4-0.3-2.2-0.3c-0.9,0-1.8,0.1-2.6,0.5c-0.7,0.3-1.3,0.7-1.8,1.3
		c-0.5,0.6-0.8,1.2-1,1.9c-0.2,0.8-0.3,1.6-0.3,2.5h-0.6c-0.1-1.8,0.5-3.6,1.6-5c1.2-1.2,2.9-1.9,4.7-1.8c0.8,0,1.6,0.1,2.3,0.3
		c0.7,0.2,1.3,0.5,1.9,1c0.5,0.4,1,1,1.3,1.6c0.3,0.7,0.5,1.5,0.5,2.3c0,1-0.3,2.1-0.9,2.9c-0.6,0.9-1.3,1.7-2.2,2.5
		c-0.9,0.8-1.8,1.5-2.8,2.2c-1,0.7-2,1.3-2.8,2c-0.8,0.6-1.6,1.3-2.3,2.1c-0.6,0.6-1,1.5-1.1,2.3h12.6V131.4z"/>
	<path class="st1" d="M879.7,112.7c-0.6,0.9-1.4,1.6-2.3,2.1c-0.9,0.6-1.9,1-2.9,1.3v-0.6c0.5-0.2,1.1-0.4,1.6-0.6
		c0.5-0.2,0.9-0.5,1.3-0.8c0.4-0.3,0.8-0.6,1.2-1c0.4-0.4,0.8-0.8,1.2-1.2h0.6v19.5h-0.6L879.7,112.7L879.7,112.7z"/>
	<path class="st1" d="M916.7,114c-0.3-0.7-0.8-1.3-1.4-1.8c-0.6-0.5-1.3-0.8-2.1-1c-0.8-0.2-1.7-0.3-2.6-0.3c-0.7,0-1.5,0.1-2.2,0.2
		c-0.7,0.1-1.4,0.4-2.1,0.8c-0.6,0.4-1.1,0.9-1.5,1.4c-0.4,0.7-0.6,1.5-0.6,2.3c0,0.8,0.2,1.6,0.6,2.2c0.4,0.6,1,1,1.6,1.3
		c0.7,0.4,1.5,0.6,2.3,0.8l2.6,0.6l2.7,0.7c0.8,0.2,1.5,0.5,2.2,0.9c0.6,0.4,1.1,0.9,1.5,1.5c0.4,0.8,0.6,1.7,0.6,2.6
		c0,0.9-0.2,1.7-0.6,2.5c-0.4,0.7-1,1.3-1.7,1.7c-0.7,0.5-1.5,0.8-2.3,1c-0.9,0.2-1.7,0.3-2.6,0.3c-1.1,0-2.2-0.1-3.2-0.4
		c-0.9-0.2-1.8-0.7-2.6-1.3c-0.7-0.6-1.3-1.4-1.7-2.3c-0.4-1.1-0.6-2.2-0.6-3.3h0.6c0,1.1,0.2,2.1,0.5,3.1c0.3,0.8,0.9,1.5,1.5,2.1
		c0.7,0.6,1.5,1,2.4,1.2c1,0.3,2,0.4,3,0.4c0.8,0,1.6-0.1,2.4-0.3c0.8-0.2,1.5-0.5,2.1-0.9c0.6-0.4,1.2-0.9,1.5-1.6
		c0.4-0.7,0.6-1.5,0.6-2.3c0-0.9-0.2-1.7-0.7-2.4c-0.5-0.6-1-1.1-1.7-1.4c-0.7-0.4-1.5-0.6-2.3-0.8c-0.8-0.2-1.7-0.4-2.5-0.6
		s-1.7-0.4-2.5-0.6c-0.8-0.2-1.5-0.5-2.2-0.9c-0.6-0.4-1.2-0.9-1.6-1.5c-0.4-0.7-0.6-1.6-0.6-2.4c0-0.9,0.2-1.8,0.6-2.5
		c0.4-0.7,1-1.2,1.6-1.6c0.7-0.4,1.5-0.7,2.3-0.9c0.8-0.2,1.6-0.3,2.5-0.3c0.9,0,1.9,0.1,2.8,0.3c0.8,0.2,1.6,0.6,2.2,1.1
		c0.7,0.5,1.2,1.2,1.5,1.9c0.4,0.9,0.6,1.9,0.7,2.9h-0.6C917.3,115.8,917,114.8,916.7,114z"/>
	<path class="st1" d="M939.6,110.9v12.8c0,2.8-0.6,4.8-1.9,6.1c-3.3,2.6-7.9,2.6-11.2,0c-1.3-1.3-1.9-3.4-1.9-6.1v-12.8h0.6v12.8
		c-0.1,2,0.5,4,1.7,5.6c1.1,1.3,2.9,1.9,5.3,1.9s4.1-0.6,5.3-1.9c1.2-1.6,1.8-3.6,1.7-5.6v-12.8H939.6z"/>
	<path class="st1" d="M947,110.9l14,19.8l0,0v-19.8h0.6v20.5h-0.9l-14-19.8h-0.1v19.8h-0.6v-20.5H947z"/>
	<path class="st1" d="M987.2,110.4h0.6l-9.4,21.4h-0.5L987.2,110.4z"/>
	<path class="st1" d="M1003.9,131.4v-20.5h8.4c1.7-0.1,3.3,0.3,4.7,1.3c1.1,1,1.6,2.5,1.5,4c0.1,1.2-0.3,2.5-1.1,3.4
		c-0.9,1-2,1.6-3.3,1.8v0.1c0.7,0.1,1.4,0.3,2.1,0.6c0.5,0.3,0.9,0.7,1.2,1.2c0.3,0.5,0.5,1.1,0.6,1.7c0.1,0.7,0.1,1.5,0.1,2.2
		c0,0.3,0,0.7,0,1.1c0,0.4,0,0.9,0.1,1.3s0.1,0.8,0.1,1.1c0,0.3,0.1,0.5,0.2,0.7h-0.6c-0.1-0.3-0.2-0.6-0.2-0.9
		c-0.1-0.4-0.1-0.7-0.1-1.1s0-0.8,0-1.2s0-0.8,0-1.1c0-0.8-0.1-1.5-0.2-2.3c-0.1-0.6-0.4-1.2-0.8-1.7c-0.4-0.5-1-0.8-1.6-1
		c-0.9-0.3-1.9-0.4-2.8-0.4h-7.7v9.6L1003.9,131.4z M1012.2,121.2c0.7,0,1.5-0.1,2.2-0.3c0.7-0.2,1.3-0.5,1.8-0.9
		c0.5-0.4,1-1,1.3-1.6c0.3-0.7,0.5-1.5,0.5-2.3c0.1-1.3-0.4-2.5-1.3-3.4c-1.2-0.9-2.7-1.4-4.2-1.2h-7.9v9.7L1012.2,121.2z"/>
	<path class="st1" d="M1024.6,121.1c0.3-0.9,0.7-1.7,1.3-2.4c0.6-0.7,1.3-1.3,2.1-1.7c1.8-0.9,3.9-0.9,5.7,0c0.8,0.4,1.5,1,2.1,1.7
		c0.6,0.7,1,1.6,1.3,2.4c0.6,1.9,0.6,3.9,0,5.8c-0.3,0.9-0.7,1.7-1.3,2.4c-2.2,2.7-6.1,3.2-8.9,1c-0.4-0.3-0.7-0.6-1-1
		c-0.6-0.7-1-1.6-1.3-2.4C1024.1,125.1,1024.1,123.1,1024.6,121.1L1024.6,121.1z M1025.1,126.7c0.2,0.8,0.6,1.6,1.2,2.3
		c0.5,0.7,1.2,1.2,1.9,1.6c1.7,0.8,3.6,0.8,5.2,0c0.7-0.4,1.4-0.9,1.9-1.6c0.5-0.7,0.9-1.5,1.2-2.3c0.5-1.7,0.5-3.6,0-5.4
		c-0.2-0.8-0.6-1.6-1.2-2.3c-0.5-0.7-1.2-1.2-1.9-1.6c-1.6-0.8-3.6-0.8-5.2,0c-0.7,0.4-1.4,0.9-1.9,1.6c-0.5,0.7-0.9,1.5-1.2,2.3
		C1024.6,123.1,1024.6,125,1025.1,126.7z"/>
	<path class="st1" d="M1043.3,136.4v-19.8h0.6v4.1h0.1c0.2-0.6,0.5-1.2,0.8-1.8c0.4-0.5,0.8-1,1.3-1.4c0.5-0.4,1.1-0.7,1.7-0.9
		c0.7-0.2,1.4-0.3,2.1-0.3c0.9,0,1.8,0.2,2.6,0.6c0.8,0.4,1.5,0.9,2,1.6c0.6,0.7,1,1.6,1.3,2.4c0.3,1,0.4,2,0.4,3.1
		c0,1-0.1,2-0.4,2.9c-0.3,0.9-0.7,1.7-1.2,2.5c-0.5,0.7-1.2,1.3-2,1.7c-0.8,0.4-1.8,0.6-2.7,0.6c-2.8,0.2-5.3-1.7-5.9-4.4h-0.1v9.2
		L1043.3,136.4z M1052.4,130.5c0.7-0.4,1.3-1,1.8-1.7c0.5-0.7,0.8-1.5,1-2.3c0.2-0.8,0.3-1.7,0.3-2.6c0-0.9-0.1-1.8-0.4-2.7
		c-0.2-0.8-0.6-1.6-1.1-2.3c-0.5-0.7-1.1-1.2-1.8-1.6c-0.8-0.4-1.6-0.6-2.5-0.6c-1.7,0-3.3,0.8-4.4,2.1c-0.5,0.7-0.9,1.4-1.2,2.3
		c-0.3,0.9-0.4,1.8-0.4,2.7c-0.1,1.9,0.5,3.8,1.6,5.3c1.1,1.2,2.7,1.9,4.3,1.9C1050.7,131.2,1051.6,131,1052.4,130.5z"/>
	<path class="st1" d="M1062.1,136.4v-19.8h0.6v4.1l0,0c0.2-0.6,0.5-1.2,0.8-1.8c0.4-0.5,0.8-1,1.3-1.4c0.5-0.4,1.1-0.7,1.7-0.9
		c0.7-0.2,1.4-0.3,2.1-0.3c1.8,0,3.5,0.8,4.6,2.2c0.6,0.7,1,1.6,1.2,2.4c0.3,1,0.4,2,0.4,3.1c0,1-0.1,2-0.4,2.9
		c-0.3,0.9-0.7,1.7-1.2,2.5c-0.5,0.7-1.2,1.3-2,1.7c-0.8,0.4-1.8,0.6-2.7,0.6c-2.8,0.2-5.3-1.7-5.9-4.4l0,0v9.2L1062.1,136.4z
		 M1071.2,130.5c0.7-0.4,1.3-1,1.8-1.7c0.5-0.7,0.8-1.5,1-2.3c0.2-0.8,0.3-1.7,0.3-2.6c0-0.9-0.1-1.8-0.4-2.7
		c-0.2-0.8-0.6-1.6-1.1-2.3c-0.5-0.7-1.1-1.2-1.8-1.6c-0.8-0.4-1.6-0.6-2.5-0.6c-0.9,0-1.7,0.2-2.5,0.6c-0.7,0.4-1.4,0.9-1.9,1.6
		c-0.5,0.7-0.9,1.4-1.2,2.3c-0.3,0.9-0.4,1.8-0.4,2.7c-0.1,1.9,0.5,3.8,1.6,5.3c1.1,1.2,2.7,1.9,4.3,1.9
		C1069.5,131.2,1070.4,131,1071.2,130.5z"/>
	<path class="st1" d="M1080.6,121.1c0.3-0.9,0.7-1.7,1.3-2.4c0.6-0.7,1.3-1.3,2.1-1.7c1.8-0.9,3.9-0.9,5.7,0c0.8,0.4,1.5,1,2.1,1.7
		c0.6,0.7,1,1.6,1.3,2.4c0.6,1.9,0.6,3.9,0,5.8c-0.3,0.9-0.7,1.7-1.3,2.4c-2.2,2.7-6.1,3.2-8.9,1c-0.4-0.3-0.7-0.6-1-1
		c-0.6-0.7-1-1.6-1.3-2.4C1080.1,125.1,1080.1,123.1,1080.6,121.1L1080.6,121.1z M1081.1,126.7c0.2,0.8,0.6,1.6,1.2,2.3
		c0.5,0.7,1.2,1.2,1.9,1.6c0.8,0.4,1.7,0.6,2.6,0.6c0.9,0,1.8-0.2,2.6-0.6c0.7-0.4,1.4-0.9,1.9-1.6c0.5-0.7,0.9-1.5,1.2-2.3
		c0.5-1.7,0.5-3.6,0-5.4c-0.2-0.8-0.6-1.6-1.2-2.3c-0.5-0.7-1.2-1.2-1.9-1.6c-0.8-0.4-1.7-0.6-2.6-0.6c-0.9,0-1.8,0.2-2.6,0.6
		c-0.7,0.4-1.4,0.9-1.9,1.6c-0.5,0.7-0.9,1.5-1.2,2.3C1080.6,123.1,1080.6,125,1081.1,126.7z"/>
	<path class="st1" d="M1099.8,116.7v3.7h0.1c0.1-0.6,0.3-1.1,0.7-1.6c0.3-0.5,0.7-0.9,1.1-1.3c0.5-0.4,1-0.7,1.6-0.8
		c0.6-0.2,1.3-0.3,2-0.3c0.7,0,1.4,0.1,2.1,0.3c1.3,0.4,2.3,1.4,2.8,2.7c0.3,0.7,0.4,1.5,0.4,2.3v9.8h-0.6v-9.7
		c0-0.7-0.1-1.5-0.4-2.2c-0.2-0.6-0.6-1.1-1-1.5c-0.4-0.4-0.9-0.7-1.5-0.9c-0.6-0.2-1.2-0.3-1.8-0.3c-0.8,0-1.6,0.2-2.3,0.5
		c-0.7,0.3-1.2,0.8-1.7,1.3c-0.5,0.6-0.8,1.3-1,2c-0.2,0.8-0.3,1.6-0.3,2.3v8.3h-0.6v-14.8H1099.8z"/>
	<path class="st1" d="M1128.2,126.5c-0.1,0.6-0.4,1.2-0.8,1.8c-0.4,0.5-0.8,1-1.4,1.3c-0.5,0.4-1.1,0.6-1.7,0.8
		c-0.6,0.2-1.2,0.3-1.9,0.3c-0.9,0-1.9-0.2-2.7-0.6c-0.7-0.4-1.4-0.9-1.9-1.5c-0.5-0.7-0.9-1.4-1.1-2.3c-0.3-0.9-0.4-1.8-0.4-2.7
		c0-0.9,0.1-1.9,0.4-2.8c0.3-0.8,0.7-1.6,1.2-2.3c0.5-0.7,1.2-1.2,2-1.6c0.9-0.4,1.8-0.6,2.7-0.6c0.7,0,1.4,0.1,2,0.3
		c0.6,0.2,1.2,0.5,1.7,0.9c0.5,0.4,0.9,0.8,1.2,1.3c0.3,0.5,0.6,1.1,0.7,1.7h0.1v-3.9h0.6v14.3c0.1,1.7-0.4,3.3-1.6,4.5
		c-1.3,1-2.9,1.5-4.5,1.4c-0.7,0-1.4-0.1-2.1-0.3c-0.6-0.2-1.2-0.4-1.8-0.8c-0.5-0.4-0.9-0.9-1.2-1.4c-0.3-0.7-0.5-1.4-0.5-2.1h0.6
		c0,0.6,0.1,1.3,0.4,1.9c0.3,0.5,0.6,0.9,1.1,1.3c0.5,0.3,1,0.6,1.6,0.7c0.6,0.2,1.2,0.2,1.9,0.2c1.5,0.1,3-0.4,4.2-1.3
		c1-1.1,1.6-2.5,1.4-4L1128.2,126.5L1128.2,126.5z M1127.9,121.1c-0.2-0.8-0.6-1.5-1.1-2.1c-0.5-0.6-1.1-1.1-1.8-1.5
		c-0.8-0.4-1.6-0.6-2.4-0.6c-0.9,0-1.7,0.2-2.5,0.5c-0.7,0.3-1.3,0.8-1.8,1.4c-0.5,0.6-0.9,1.4-1.1,2.1c-0.2,0.8-0.4,1.7-0.4,2.6
		c0,0.9,0.1,1.7,0.4,2.6c0.2,0.7,0.6,1.4,1.1,2.1c0.5,0.6,1.1,1.1,1.7,1.4c0.7,0.3,1.6,0.5,2.4,0.5c0.9,0,1.7-0.2,2.5-0.5
		c0.7-0.3,1.3-0.8,1.8-1.4c0.5-0.6,0.9-1.3,1.1-2.1c0.3-0.8,0.4-1.7,0.4-2.5C1128.2,122.7,1128.1,121.9,1127.9,121.1z"/>
	<path class="st1" d="M1135.4,113.8v-2.9h0.6v2.9H1135.4z M1135.4,131.4v-14.8h0.6v14.8H1135.4z"/>
	<path class="st1" d="M1145.3,131.4c0,0.7-0.1,1.4-0.3,2.1c-0.2,0.5-0.5,1-1,1.3v-0.6c0.3-0.3,0.4-0.6,0.5-1
		c0.1-0.6,0.2-1.2,0.2-1.8v-2.8h0.6L1145.3,131.4z"/>
	<path class="st1" d="M1163.3,110.9h15.3v0.6h-7.4v19.9h-0.6v-19.9h-7.3L1163.3,110.9z"/>
	<path class="st1" d="M1182.8,121.1c0.3-0.9,0.7-1.7,1.3-2.4c0.6-0.7,1.3-1.3,2.1-1.7c0.9-0.4,1.9-0.7,2.9-0.7c1,0,2,0.2,2.8,0.7
		c0.8,0.4,1.5,1,2.1,1.7c0.6,0.7,1,1.6,1.3,2.4c0.6,1.9,0.6,3.9,0,5.8c-0.3,0.9-0.7,1.7-1.3,2.5c-0.6,0.7-1.3,1.3-2.1,1.7
		c-0.9,0.4-1.9,0.7-2.9,0.6c-1,0-2-0.2-2.8-0.6c-0.8-0.4-1.5-1-2.1-1.7c-0.6-0.7-1-1.6-1.3-2.4C1182.2,125,1182.2,123,1182.8,121.1z
		 M1183.3,126.7c0.2,0.8,0.6,1.6,1.2,2.3c1.1,1.4,2.8,2.2,4.5,2.2c0.9,0,1.8-0.2,2.6-0.6c0.7-0.4,1.4-0.9,1.9-1.6
		c0.5-0.7,0.9-1.5,1.2-2.3c0.5-1.7,0.5-3.6,0-5.4c-0.2-0.8-0.6-1.6-1.2-2.3c-0.5-0.7-1.2-1.2-1.9-1.6c-1.6-0.8-3.6-0.8-5.2,0
		c-0.7,0.4-1.4,0.9-1.9,1.6c-0.5,0.7-0.9,1.5-1.2,2.3C1182.8,123.1,1182.8,125,1183.3,126.7z"/>
	<path class="st1" d="M1202.1,131.4h-0.6v-20.5h0.6v14.2l10.2-8.5h0.8l-6.8,5.6l7.3,9.1h-0.8l-6.9-8.7l-3.8,3.2L1202.1,131.4z"/>
	<path class="st1" d="M1228.1,116.7l-6.8,17.7c-0.2,0.4-0.4,0.8-0.7,1.2c-0.3,0.3-0.6,0.5-0.9,0.6c-0.3,0.1-0.7,0.2-1.1,0.2
		c-0.4,0-0.8,0-1.3,0v-0.6c0.5,0,0.9,0,1.3,0c0.3,0,0.6-0.1,0.9-0.2c0.3-0.1,0.5-0.3,0.7-0.6c0.2-0.3,0.4-0.6,0.6-1l1.1-2.7
		l-6.1-14.6h0.6l5.8,14l5.3-14L1228.1,116.7z"/>
	<path class="st1" d="M1232.4,121.1c0.3-0.9,0.7-1.7,1.3-2.4c0.6-0.7,1.3-1.3,2.1-1.7c0.9-0.4,1.9-0.7,2.9-0.7c1,0,2,0.2,2.8,0.7
		c0.8,0.4,1.5,1,2.1,1.7c0.6,0.7,1,1.6,1.3,2.4c0.6,1.9,0.6,3.9,0,5.8c-0.3,0.9-0.7,1.7-1.3,2.5c-2.2,2.7-6.1,3.2-8.9,1
		c-0.4-0.3-0.7-0.6-1-1c-0.6-0.7-1-1.6-1.3-2.4C1231.9,125,1231.9,123,1232.4,121.1L1232.4,121.1z M1233,126.7
		c0.2,0.8,0.6,1.6,1.2,2.3c0.5,0.7,1.2,1.2,1.9,1.6c0.8,0.4,1.7,0.6,2.6,0.6c0.9,0,1.8-0.2,2.6-0.6c0.7-0.4,1.4-0.9,1.9-1.6
		c0.5-0.7,0.9-1.5,1.2-2.3c0.5-1.7,0.5-3.6,0-5.4c-0.2-0.8-0.6-1.6-1.2-2.3c-0.5-0.7-1.2-1.2-1.9-1.6c-0.8-0.4-1.7-0.6-2.6-0.6
		c-0.9,0-1.8,0.2-2.6,0.6c-0.7,0.4-1.4,0.9-1.9,1.6c-0.5,0.7-0.9,1.5-1.2,2.3C1232.5,123.1,1232.5,125,1233,126.7z"/>
	<path class="st1" d="M381,531.9c-0.3,0.2-0.6,0.4-0.8,0.7c-0.2,0.3-0.3,0.7-0.5,1.1c-0.1,0.4-0.2,0.8-0.2,1.2c0,0.4,0,0.8,0,1h0.9
		v4.4h-2.2v-4.4c0-0.6,0-1.1,0.1-1.7c0.1-0.5,0.2-1.1,0.5-1.6c0.2-0.5,0.5-0.9,0.9-1.3c0.4-0.4,0.8-0.7,1.3-0.9L381,531.9z
		 M386.4,531.9c-0.3,0.2-0.6,0.4-0.8,0.7c-0.2,0.3-0.3,0.7-0.5,1.1c-0.1,0.4-0.2,0.8-0.2,1.2c0,0.4,0,0.8,0,1h0.9v4.4h-2.2v-4.4
		c0-0.6,0-1.1,0.1-1.7c0.1-0.5,0.2-1.1,0.5-1.6c0.2-0.5,0.5-0.9,0.9-1.3c0.4-0.4,0.8-0.7,1.3-0.9V531.9z"/>
	<path class="st1" d="M394.5,532.1v-1.6h23.6v1.6h-10.9v29.2h-1.9v-29.2H394.5z"/>
	<path class="st1" d="M427.5,530.4v13.4h0.1c0.3-0.8,0.7-1.6,1.2-2.2c1.1-1.3,2.5-2.3,4.2-2.7c0.8-0.2,1.7-0.3,2.5-0.3
		c1.1,0,2.2,0.1,3.3,0.5c0.8,0.3,1.6,0.7,2.2,1.3c0.6,0.5,1,1.1,1.4,1.8c0.3,0.6,0.6,1.3,0.7,2c0.1,0.6,0.2,1.3,0.3,1.9
		c0,0.6,0,1.2,0,1.6v13.7h-1.6v-14c0-0.7-0.1-1.4-0.1-2.1c-0.1-0.8-0.3-1.7-0.8-2.4c-0.5-0.8-1.1-1.5-1.9-2
		c-1.1-0.6-2.3-0.9-3.5-0.8c-1.2,0-2.3,0.2-3.4,0.7c-1,0.4-1.8,1.1-2.5,1.9c-0.7,0.9-1.3,1.9-1.6,2.9c-0.4,1.2-0.6,2.5-0.5,3.7v12
		h-1.6v-30.8H427.5z"/>
	<path class="st1" d="M454.9,550.4v0.3c0,1.3,0.2,2.5,0.5,3.7c0.3,1.1,0.8,2.2,1.5,3.1c0.7,0.9,1.6,1.6,2.6,2.1
		c1.1,0.5,2.3,0.8,3.6,0.8c1.9,0.1,3.8-0.5,5.3-1.8c1.4-1.3,2.3-3,2.7-4.8h1.6c-0.3,2.3-1.5,4.4-3.2,6c-1.8,1.4-4.1,2.2-6.5,2.1
		c-1.5,0-2.9-0.3-4.3-0.9c-1.2-0.6-2.2-1.4-3.1-2.4c-0.8-1.1-1.5-2.3-1.8-3.6c-0.8-2.9-0.8-6.1,0-9c0.4-1.4,1-2.6,1.9-3.8
		c2.9-3.4,7.6-4.5,11.7-2.7c1.2,0.5,2.2,1.4,3,2.3c0.8,1,1.5,2.2,1.8,3.5c0.4,1.4,0.6,2.8,0.6,4.2c0,0.2,0,0.3,0,0.5s0,0.3,0,0.5
		L454.9,550.4z M471.2,548.9c-0.1-1.2-0.3-2.3-0.6-3.4c-0.3-1-0.8-2-1.5-2.8c-0.7-0.8-1.5-1.5-2.5-2c-1-0.5-2.2-0.8-3.3-0.7
		c-1.2,0-2.4,0.2-3.5,0.8c-1,0.5-1.8,1.2-2.5,2c-0.7,0.8-1.3,1.8-1.6,2.9c-0.4,1.1-0.6,2.2-0.7,3.4L471.2,548.9z"/>
	<path class="st1" d="M501.1,530.4h10.1c2.4-0.1,4.7,0.4,6.9,1.3c1.7,0.8,3.2,2,4.4,3.5c1.1,1.5,1.9,3.1,2.3,4.9
		c0.4,1.9,0.7,3.8,0.7,5.7c0,2.1-0.3,4.1-0.8,6.1c-0.5,1.8-1.4,3.5-2.6,4.9c-1.2,1.4-2.8,2.5-4.5,3.3c-2,0.8-4.2,1.2-6.4,1.2h-10
		L501.1,530.4z M511.2,559.6c1.5,0,2.9-0.2,4.3-0.7c1.5-0.5,2.8-1.2,3.9-2.2c1.3-1.2,2.2-2.6,2.9-4.2c0.8-2.1,1.2-4.4,1.1-6.7
		c0-1.8-0.2-3.6-0.6-5.4c-0.3-1.3-0.9-2.6-1.6-3.8c-0.6-1-1.4-1.8-2.3-2.4c-0.8-0.6-1.8-1-2.7-1.4c-0.9-0.3-1.8-0.5-2.8-0.6
		c-0.8-0.1-1.7-0.1-2.5-0.2H503v27.5L511.2,559.6z"/>
	<path class="st1" d="M550.3,556.8L550.3,556.8c-0.4,0.7-0.7,1.3-1.2,1.9c-0.5,0.6-1.1,1.1-1.8,1.6c-0.7,0.5-1.6,0.8-2.4,1.1
		c-1,0.3-1.9,0.4-2.9,0.4c-1.9,0.1-3.9-0.4-5.5-1.5c-1.4-1.2-2.1-2.9-1.9-4.7c-0.1-2.1,0.9-4.1,2.7-5.1c0.8-0.5,1.7-0.8,2.6-1
		c0.9-0.2,1.9-0.3,2.8-0.4l2.5-0.2c0.9,0,1.9-0.2,2.8-0.4c0.6-0.1,1.1-0.4,1.5-0.8c0.4-0.3,0.6-0.8,0.7-1.3c0.1-0.6,0.1-1.3,0.1-1.9
		c0-0.6-0.1-1.2-0.3-1.7c-0.2-0.5-0.6-1-1.1-1.4c-0.6-0.5-1.2-0.8-1.9-1c-0.9-0.2-1.9-0.4-2.8-0.3c-1.7-0.1-3.4,0.4-4.8,1.5
		c-1.3,1.1-2,2.7-2,4.5h-1.6c0-2.1,0.8-4.1,2.3-5.5c1.8-1.3,4-2,6.2-1.8c2.7,0,4.6,0.5,5.8,1.6c1.2,1,1.9,2.5,1.8,4.1v12.9
		c0,0.3,0,0.6,0,1c0,0.3,0.1,0.6,0.2,0.9c0.1,0.2,0.2,0.5,0.4,0.6c0.3,0.2,0.6,0.2,0.9,0.2c0.4,0,0.8-0.1,1.2-0.1v1.4
		c-0.4,0.1-0.9,0.2-1.3,0.2c-0.5,0-1.1-0.1-1.6-0.3c-0.4-0.1-0.7-0.4-0.9-0.7c-0.2-0.3-0.3-0.6-0.4-1c-0.1-0.4-0.1-0.8-0.1-1.3
		L550.3,556.8z M550.3,548.6c-0.5,0.5-1.1,0.9-1.8,1c-0.9,0.2-1.8,0.3-2.7,0.4l-2.8,0.3c-0.8,0.1-1.6,0.2-2.4,0.4
		c-0.8,0.1-1.5,0.4-2.2,0.8c-0.6,0.4-1.2,0.9-1.6,1.5c-0.4,0.8-0.6,1.6-0.6,2.5c-0.1,1.4,0.5,2.8,1.6,3.6c1.3,0.9,2.8,1.3,4.3,1.2
		c1.5,0.1,3.1-0.3,4.4-1c1-0.6,1.8-1.4,2.5-2.3c0.5-0.8,0.9-1.6,1.1-2.5c0.1-0.5,0.2-1.1,0.2-1.7V548.6z"/>
	<path class="st1" d="M560.5,539.1h1.9l8.2,20.2l7.6-20.2h1.8l-9.5,24.5c-0.5,1.1-0.9,2-1.3,2.8c-0.3,0.7-0.7,1.3-1.3,1.8
		c-0.6,0.5-1.3,0.7-2,0.8c-1,0.1-2.1,0.2-3.1,0.2v-1.4c0.9,0,1.8-0.1,2.8-0.3c0.7-0.2,1.4-0.6,1.9-1.2c0.4-0.5,0.8-1.1,1-1.7
		c0.3-0.8,0.8-2,1.3-3.5L560.5,539.1z"/>
	<path class="st1" d="M611.9,559.3h0.1l6-20.3h2.2l6.1,20.3h0.1l6.2-20.3h1.8l-7.1,22.2h-2l-6.1-20.1h-0.1l-6.1,20.1h-2.1l-7-22.2
		h1.8L611.9,559.3z"/>
	<path class="st1" d="M644.4,530.4v13.4h0.1c0.3-0.8,0.7-1.6,1.2-2.2c0.5-0.6,1.1-1.2,1.8-1.7c0.7-0.5,1.5-0.8,2.3-1
		c0.8-0.2,1.7-0.3,2.5-0.3c1.1,0,2.2,0.1,3.3,0.5c0.8,0.3,1.6,0.7,2.2,1.3c0.6,0.5,1,1.1,1.4,1.8c0.3,0.6,0.6,1.3,0.7,2
		c0.1,0.6,0.2,1.3,0.3,1.9c0,0.6,0,1.2,0,1.6v13.7h-1.6v-14c0-0.7-0.1-1.4-0.1-2.1c-0.1-0.8-0.3-1.7-0.8-2.4c-0.5-0.8-1.1-1.5-1.9-2
		c-1.1-0.6-2.3-0.9-3.5-0.8c-1.2,0-2.3,0.2-3.4,0.7c-1,0.5-1.8,1.1-2.5,1.9c-0.7,0.9-1.2,1.9-1.6,2.9c-0.4,1.2-0.6,2.5-0.5,3.7v12
		h-1.6v-30.9H644.4z"/>
	<path class="st1" d="M671.8,550.4v0.3c0,1.3,0.2,2.5,0.5,3.7c0.3,1.1,0.8,2.2,1.5,3.1c0.7,0.9,1.5,1.6,2.5,2.1
		c1.1,0.5,2.3,0.8,3.6,0.8c1.9,0.1,3.8-0.5,5.3-1.8c1.4-1.3,2.3-3,2.7-4.8h1.6c-0.3,2.3-1.4,4.4-3.2,6c-1.8,1.4-4.1,2.2-6.5,2.1
		c-1.5,0-2.9-0.3-4.3-0.9c-1.2-0.6-2.2-1.4-3.1-2.4c-0.8-1.1-1.5-2.3-1.8-3.6c-0.4-1.5-0.6-3-0.6-4.5c0-1.5,0.2-3,0.6-4.5
		c0.4-1.4,1-2.6,1.9-3.8c2.9-3.4,7.6-4.5,11.7-2.7c1.2,0.5,2.2,1.4,3,2.3c0.8,1,1.4,2.2,1.8,3.5c0.4,1.4,0.6,2.8,0.6,4.2
		c0,0.2,0,0.3,0,0.5c0,0.1,0,0.3,0,0.5L671.8,550.4z M688.1,548.9c-0.1-1.2-0.3-2.3-0.6-3.4c-0.3-1-0.8-2-1.5-2.8
		c-0.7-0.8-1.5-1.5-2.5-2c-1-0.5-2.2-0.8-3.3-0.7c-1.2,0-2.4,0.2-3.5,0.8c-1,0.5-1.8,1.2-2.5,2c-0.7,0.8-1.2,1.8-1.6,2.9
		c-0.4,1.1-0.6,2.2-0.7,3.4L688.1,548.9z"/>
	<path class="st1" d="M701.2,544h0.1c0.2-0.7,0.6-1.4,1.1-2c0.6-0.6,1.2-1.2,1.9-1.6c0.8-0.5,1.6-0.8,2.5-1c0.9-0.2,1.9-0.4,2.9-0.3
		v1.6c-1-0.1-2,0-3,0.3c-1.2,0.3-2.3,1-3.2,1.9c-0.4,0.4-0.8,0.8-1.1,1.3c-0.3,0.4-0.6,0.9-0.8,1.3c-0.2,0.5-0.4,1.1-0.5,1.6
		c-0.1,0.7-0.2,1.4-0.2,2.2v12.1h-1.6v-22.3h1.6L701.2,544z"/>
	<path class="st1" d="M718.2,550.4v0.3c0,1.3,0.2,2.5,0.5,3.7c0.3,1.1,0.8,2.2,1.5,3.1c0.7,0.9,1.5,1.6,2.5,2.1
		c1.1,0.5,2.3,0.8,3.6,0.8c1.9,0.1,3.8-0.5,5.3-1.8c1.4-1.3,2.3-3,2.7-4.8h1.7c-0.3,2.3-1.4,4.4-3.2,6c-1.8,1.4-4.1,2.2-6.4,2.1
		c-1.5,0-2.9-0.3-4.3-0.9c-1.2-0.6-2.2-1.4-3.1-2.4c-0.8-1.1-1.5-2.3-1.8-3.6c-0.8-2.9-0.8-6.1,0-9c0.4-1.4,1-2.6,1.9-3.8
		c0.8-1.1,1.9-2,3.1-2.6c1.4-0.7,2.9-1,4.4-1c1.4,0,2.8,0.3,4.1,0.9c1.2,0.5,2.2,1.4,3,2.3c0.8,1,1.4,2.2,1.8,3.5
		c0.4,1.4,0.6,2.8,0.6,4.2c0,0.2,0,0.3,0,0.5c0,0.1,0,0.3,0,0.5L718.2,550.4z M734.5,548.9c-0.1-1.2-0.3-2.3-0.6-3.4
		c-0.3-1-0.8-2-1.5-2.8c-0.7-0.8-1.5-1.5-2.5-2c-1-0.5-2.2-0.8-3.3-0.7c-1.2,0-2.4,0.2-3.5,0.8c-1,0.5-1.8,1.2-2.5,2
		c-0.7,0.8-1.2,1.8-1.6,2.9c-0.4,1.1-0.6,2.2-0.7,3.4L734.5,548.9z"/>
	<path class="st1" d="M761.4,539.1h1.9l8.2,20.2l7.6-20.2h1.9l-9.5,24.5c-0.5,1.1-0.9,2-1.3,2.8c-0.3,0.7-0.8,1.3-1.3,1.8
		c-0.6,0.5-1.3,0.7-2,0.8c-1,0.1-2.1,0.2-3.1,0.2v-1.4c0.9,0,1.9-0.1,2.8-0.3c0.7-0.2,1.3-0.6,1.8-1.2c0.4-0.5,0.8-1.1,1-1.7
		c0.3-0.8,0.8-2,1.3-3.5L761.4,539.1z"/>
	<path class="st1" d="M788.2,550.1c0-1.5,0.2-3,0.7-4.5c0.4-1.3,1.1-2.6,2-3.7c0.9-1.1,2-1.9,3.2-2.5c2.8-1.2,5.9-1.2,8.7,0
		c1.2,0.6,2.3,1.5,3.2,2.5c0.9,1.1,1.6,2.3,2,3.7c0.5,1.4,0.7,2.9,0.7,4.5c0,1.5-0.2,3-0.7,4.5c-0.4,1.3-1.1,2.6-2,3.7
		c-0.9,1.1-2,1.9-3.2,2.5c-2.8,1.2-5.9,1.2-8.7,0c-1.2-0.6-2.3-1.4-3.2-2.5c-0.9-1.1-1.6-2.3-2-3.7
		C788.4,553.2,788.2,551.7,788.2,550.1z M789.8,550.1c0,1.3,0.2,2.6,0.6,3.8c0.3,1.2,0.9,2.3,1.6,3.3c0.7,0.9,1.6,1.7,2.7,2.3
		c2.3,1.1,5,1.1,7.3,0c1-0.5,2-1.3,2.7-2.3c0.7-1,1.3-2.1,1.6-3.3c0.7-2.5,0.7-5.1,0-7.6c-0.3-1.2-0.9-2.3-1.6-3.3
		c-0.7-0.9-1.6-1.7-2.7-2.3c-2.3-1.1-5-1.1-7.3,0c-1.1,0.5-2,1.3-2.7,2.3c-0.7,1-1.3,2.1-1.6,3.3C790,547.6,789.8,548.8,789.8,550.1
		z"/>
	<path class="st1" d="M836,561.2h-1.6v-4.8h-0.1c-0.3,0.8-0.7,1.6-1.3,2.2c-0.5,0.6-1.2,1.2-1.9,1.7c-0.7,0.5-1.5,0.8-2.3,1
		c-0.8,0.2-1.7,0.3-2.5,0.3c-1.1,0-2.2-0.1-3.3-0.5c-0.8-0.3-1.6-0.7-2.2-1.3c-0.6-0.5-1-1.1-1.3-1.8c-0.3-0.6-0.6-1.3-0.7-2
		c-0.1-0.6-0.2-1.3-0.3-1.9c0-0.6,0-1.2,0-1.6v-13.6h1.6v14c0,0.7,0,1.4,0.1,2.1c0.1,0.8,0.3,1.6,0.8,2.4c0.4,0.8,1.1,1.5,1.9,2
		c1.1,0.6,2.3,0.9,3.5,0.8c1.2,0,2.3-0.2,3.3-0.7c1-0.4,1.8-1.1,2.5-1.9c0.7-0.9,1.2-1.9,1.6-2.9c0.4-1.2,0.6-2.5,0.5-3.7v-12h1.7
		V561.2z"/>
	<path class="st1" d="M883.1,539.1v21c0,1.2-0.1,2.4-0.4,3.6c-0.3,1.1-0.8,2.2-1.5,3.1c-0.8,0.9-1.8,1.7-2.9,2.1
		c-1.5,0.6-3.1,0.9-4.7,0.8c-1.1,0-2.2-0.1-3.3-0.4c-1-0.2-1.9-0.6-2.7-1.2c-0.8-0.5-1.4-1.3-1.9-2.1c-0.5-1-0.8-2.1-0.8-3.3h1.6
		c0.1,0.9,0.3,1.7,0.7,2.5c0.4,0.7,0.9,1.3,1.6,1.7c0.7,0.5,1.4,0.8,2.2,1c0.8,0.2,1.7,0.3,2.6,0.3c1.3,0,2.6-0.2,3.8-0.7
		c0.9-0.4,1.8-1,2.4-1.8c0.6-0.7,1-1.6,1.3-2.5c0.2-0.9,0.4-1.9,0.4-2.8v-5.1h-0.1c-0.7,1.5-1.8,2.8-3.2,3.8
		c-1.5,0.9-3.1,1.4-4.8,1.3c-1.5,0-2.9-0.3-4.2-0.8c-1.2-0.5-2.2-1.3-3-2.3c-0.8-1-1.4-2.2-1.8-3.5c-0.4-1.4-0.6-2.9-0.6-4.3
		c0-1.4,0.2-2.8,0.6-4.2c0.4-1.3,1-2.4,1.8-3.5c0.8-1,1.8-1.8,3-2.4c2.9-1.3,6.3-1.2,9,0.5c1.5,0.9,2.6,2.2,3.2,3.8h0.1v-4.6
		L883.1,539.1z M873.4,540c-1.2,0-2.4,0.2-3.5,0.8c-1,0.5-1.8,1.3-2.5,2.2c-0.7,0.9-1.2,1.9-1.5,3c-0.3,1.1-0.5,2.3-0.5,3.5
		c0,1.2,0.2,2.5,0.5,3.7c0.3,1.1,0.8,2.1,1.5,3c0.7,0.9,1.5,1.6,2.5,2c1.1,0.5,2.2,0.8,3.4,0.8c1.2,0,2.4-0.2,3.5-0.8
		c1-0.5,1.9-1.2,2.5-2.1c0.7-0.9,1.2-1.9,1.5-3c0.7-2.3,0.7-4.8,0-7.2c-0.3-1.1-0.8-2.1-1.5-3c-0.7-0.9-1.5-1.6-2.5-2.1
		C875.9,540.2,874.7,540,873.4,540L873.4,540z"/>
	<path class="st1" d="M894.6,550.4v0.3c0,1.3,0.2,2.5,0.5,3.7c0.3,1.1,0.8,2.2,1.5,3.1c0.7,0.9,1.5,1.6,2.5,2.1
		c1.1,0.5,2.3,0.8,3.6,0.8c1.9,0.1,3.8-0.5,5.3-1.8c1.4-1.3,2.3-3,2.7-4.8h1.6c-0.3,2.3-1.5,4.4-3.2,6c-1.8,1.4-4.1,2.2-6.5,2.1
		c-1.5,0-2.9-0.3-4.3-0.9c-1.2-0.6-2.2-1.4-3.1-2.4c-0.8-1.1-1.5-2.3-1.8-3.6c-0.4-1.5-0.6-3-0.6-4.5c0-1.5,0.2-3,0.6-4.5
		c0.4-1.4,1-2.6,1.9-3.8c0.8-1.1,1.9-2,3.1-2.6c1.4-0.7,2.9-1,4.4-1c1.4,0,2.8,0.3,4.1,0.9c1.2,0.6,2.2,1.4,3,2.3
		c0.8,1,1.4,2.2,1.8,3.5c0.4,1.4,0.6,2.8,0.6,4.2c0,0.2,0,0.3,0,0.5c0,0.2,0,0.3,0,0.5L894.6,550.4z M910.9,548.9
		c-0.1-1.2-0.3-2.3-0.6-3.4c-0.3-1-0.8-2-1.5-2.8c-0.7-0.8-1.5-1.5-2.5-2c-1-0.5-2.2-0.7-3.3-0.7c-1.2,0-2.4,0.2-3.5,0.8
		c-1,0.5-1.8,1.2-2.5,2c-0.7,0.8-1.3,1.8-1.6,2.9c-0.4,1.1-0.6,2.2-0.7,3.4L910.9,548.9z"/>
	<path class="st1" d="M930.6,540.5h-4.8V556c0,0.7,0.1,1.4,0.3,2.1c0.2,0.5,0.5,0.9,0.9,1.2c0.5,0.3,1,0.5,1.5,0.5c0.7,0,1.3,0,2,0
		v1.4c-0.8,0.1-1.6,0.1-2.4,0c-0.7-0.1-1.5-0.3-2.1-0.6c-0.6-0.4-1.1-1-1.4-1.6c-0.4-0.9-0.6-2-0.5-3v-15.5H920v-1.4h4.1v-6.9h1.6
		v6.9h4.8L930.6,540.5z"/>
	<path class="st1" d="M965.8,540.5H961V556c0,0.7,0.1,1.4,0.3,2.1c0.2,0.5,0.5,0.9,0.9,1.2c0.5,0.3,1,0.5,1.5,0.5c0.7,0,1.3,0,2,0
		v1.4c-0.8,0.1-1.6,0.1-2.4,0c-0.7-0.1-1.5-0.3-2.1-0.6c-0.6-0.4-1.1-1-1.4-1.6c-0.4-0.9-0.6-2-0.5-3v-15.5h-4.1v-1.4h4.1v-6.9h1.7
		v6.9h4.8V540.5z"/>
	<path class="st1" d="M973.8,550.1c0-1.5,0.2-3,0.7-4.5c0.4-1.3,1.1-2.6,2-3.7c0.9-1.1,2-1.9,3.2-2.5c2.8-1.2,5.9-1.2,8.7,0
		c1.2,0.6,2.3,1.5,3.2,2.5c0.9,1.1,1.6,2.3,2,3.7c0.5,1.4,0.7,2.9,0.7,4.5c0,1.5-0.2,3-0.7,4.5c-0.4,1.3-1.1,2.6-2,3.7
		c-0.9,1.1-2,1.9-3.2,2.5c-2.8,1.2-5.9,1.2-8.7,0c-1.2-0.6-2.3-1.4-3.2-2.5c-0.9-1.1-1.6-2.3-2-3.7
		C974.1,553.2,973.8,551.7,973.8,550.1z M975.5,550.1c0,1.3,0.2,2.6,0.6,3.8c0.3,1.2,0.9,2.3,1.6,3.3c0.7,0.9,1.6,1.7,2.7,2.3
		c2.3,1.1,5,1.1,7.3,0c1-0.5,2-1.3,2.7-2.3c0.7-1,1.3-2.1,1.6-3.2c0.7-2.5,0.7-5.1,0-7.6c-0.3-1.2-0.9-2.3-1.6-3.3
		c-0.7-0.9-1.6-1.7-2.7-2.3c-2.3-1.1-5-1.1-7.3,0c-1,0.5-2,1.3-2.7,2.3c-0.7,1-1.3,2.1-1.6,3.3C975.7,547.6,975.5,548.9,975.5,550.1
		z"/>
	<path class="st1" d="M1030.3,540.5h-4.8V556c0,0.7,0.1,1.4,0.3,2.1c0.2,0.5,0.5,0.9,0.9,1.2c0.5,0.3,1,0.5,1.5,0.5c0.7,0,1.3,0,2,0
		v1.4c-0.8,0.1-1.6,0.1-2.4,0c-0.7-0.1-1.5-0.3-2.1-0.6c-0.6-0.4-1.1-0.9-1.4-1.6c-0.4-0.9-0.6-2-0.5-3v-15.5h-4.1v-1.4h4.1v-6.9
		h1.6v6.9h4.8L1030.3,540.5z"/>
	<path class="st1" d="M1054,556.8L1054,556.8c-0.4,0.7-0.7,1.3-1.2,1.9c-0.5,0.6-1.1,1.1-1.8,1.6c-0.7,0.5-1.5,0.8-2.4,1.1
		c-1,0.3-1.9,0.4-2.9,0.4c-1.9,0.1-3.9-0.4-5.5-1.5c-1.4-1.2-2.1-2.9-1.9-4.7c-0.1-2.1,0.9-4.1,2.7-5.1c0.8-0.5,1.7-0.8,2.6-1
		c0.9-0.2,1.8-0.3,2.8-0.4l2.5-0.2c0.9,0,1.9-0.2,2.8-0.4c0.6-0.1,1.1-0.4,1.5-0.8c0.4-0.3,0.6-0.8,0.7-1.3c0.1-0.6,0.1-1.3,0.1-1.9
		c0-0.6-0.1-1.2-0.3-1.7c-0.2-0.5-0.6-1-1.1-1.4c-0.6-0.5-1.2-0.8-1.9-1c-0.9-0.2-1.9-0.4-2.8-0.3c-1.7-0.1-3.4,0.4-4.8,1.5
		c-1.3,1.1-2,2.7-2,4.5h-1.6c0-2.1,0.8-4.1,2.3-5.5c1.8-1.3,4-2,6.2-1.8c2.7,0,4.6,0.5,5.8,1.6c1.2,1,1.9,2.5,1.8,4.1v12.9
		c0,0.3,0,0.6,0,1c0,0.3,0.1,0.6,0.2,0.9c0.1,0.2,0.2,0.5,0.4,0.6c0.3,0.2,0.6,0.2,0.9,0.2c0.4,0,0.8-0.1,1.2-0.1v1.4
		c-0.4,0.1-0.9,0.2-1.3,0.2c-0.5,0-1.1-0.1-1.6-0.3c-0.4-0.1-0.7-0.4-0.9-0.7c-0.2-0.3-0.3-0.6-0.4-1c-0.1-0.4-0.1-0.9-0.1-1.3
		V556.8z M1054,548.6c-0.5,0.5-1.1,0.9-1.8,1c-0.9,0.2-1.8,0.3-2.7,0.4l-2.8,0.3c-0.8,0.1-1.6,0.2-2.4,0.4c-0.8,0.1-1.5,0.4-2.2,0.8
		c-0.6,0.4-1.2,0.9-1.6,1.5c-0.4,0.8-0.6,1.6-0.6,2.5c-0.1,1.4,0.5,2.8,1.6,3.6c1.3,0.9,2.8,1.3,4.3,1.2c1.5,0.1,3.1-0.3,4.4-1
		c1-0.6,1.8-1.4,2.5-2.3c0.5-0.8,0.9-1.6,1.1-2.5c0.1-0.5,0.2-1.1,0.2-1.7V548.6z"/>
	<path class="st1" d="M1067,530.4h1.6v20.4l13.7-11.8h2.4l-9.7,8.3l10.4,13.9h-2.2l-9.4-12.6l-5.1,4.3v8.4h-1.6V530.4z"/>
	<path class="st1" d="M1093.5,550.4v0.3c0,1.3,0.2,2.5,0.5,3.7c0.3,1.1,0.8,2.2,1.5,3.1c0.7,0.9,1.6,1.6,2.6,2.1
		c1.1,0.5,2.3,0.8,3.6,0.8c1.9,0.1,3.8-0.5,5.3-1.8c1.4-1.3,2.3-3,2.7-4.8h1.6c-0.3,2.3-1.5,4.4-3.2,6c-1.8,1.4-4.1,2.2-6.4,2.1
		c-1.5,0-2.9-0.3-4.3-0.9c-1.2-0.6-2.2-1.4-3.1-2.4c-0.8-1.1-1.5-2.3-1.8-3.6c-0.8-2.9-0.8-6.1,0-9c0.4-1.4,1-2.6,1.9-3.8
		c2.9-3.4,7.6-4.5,11.7-2.7c1.2,0.5,2.2,1.4,3,2.3c0.8,1,1.5,2.2,1.8,3.5c0.4,1.4,0.6,2.8,0.6,4.2c0,0.2,0,0.3,0,0.5
		c0,0.1,0,0.3,0,0.5L1093.5,550.4z M1109.8,548.9c-0.1-1.2-0.3-2.3-0.6-3.4c-0.3-1-0.8-2-1.5-2.8c-0.7-0.8-1.5-1.5-2.5-2
		c-1-0.5-2.2-0.8-3.3-0.7c-1.2,0-2.4,0.2-3.5,0.8c-1,0.5-1.8,1.2-2.6,2c-0.7,0.8-1.3,1.8-1.6,2.9c-0.4,1.1-0.6,2.2-0.7,3.4
		L1109.8,548.9z"/>
	<path class="st1" d="M421.1,624.7H421c-0.3,0.7-0.6,1.3-1.1,1.9c-0.5,0.6-1.1,1.1-1.8,1.6c-0.7,0.5-1.5,0.8-2.4,1.1
		c-1,0.3-1.9,0.4-2.9,0.4c-1.9,0.1-3.9-0.4-5.5-1.5c-1.4-1.2-2.1-2.9-1.9-4.7c0-1.1,0.2-2.2,0.8-3.2c0.5-0.8,1.2-1.5,2-1.9
		c0.8-0.5,1.7-0.8,2.6-1c0.9-0.2,1.8-0.3,2.8-0.4l2.5-0.2c0.9,0,1.9-0.2,2.8-0.4c0.6-0.1,1.1-0.4,1.5-0.8c0.4-0.3,0.6-0.8,0.6-1.3
		c0.1-0.6,0.1-1.3,0.1-1.9c0-0.6-0.1-1.2-0.4-1.7c-0.2-0.5-0.6-1-1.1-1.4c-0.6-0.5-1.2-0.8-1.9-1c-0.9-0.2-1.9-0.4-2.9-0.3
		c-1.7-0.1-3.4,0.4-4.8,1.5c-1.3,1.1-2,2.7-2,4.4h-1.6c0-2.1,0.8-4.1,2.4-5.5c1.8-1.3,4-2,6.2-1.8c2.7,0,4.6,0.5,5.8,1.6
		c1.2,1,1.9,2.5,1.8,4.1V625c0,0.3,0,0.6,0,1c0,0.3,0.1,0.6,0.1,0.9c0.1,0.2,0.2,0.5,0.4,0.6c0.3,0.2,0.6,0.3,0.9,0.2
		c0.4,0,0.8-0.1,1.2-0.1v1.4c-0.4,0.1-0.9,0.2-1.3,0.2c-0.5,0-1.1-0.1-1.6-0.3c-0.4-0.1-0.7-0.4-0.9-0.7c-0.2-0.3-0.3-0.6-0.4-1
		c-0.1-0.4-0.1-0.8-0.1-1.3L421.1,624.7z M421.1,616.5c-0.5,0.5-1.1,0.9-1.8,1c-0.9,0.2-1.8,0.3-2.7,0.4l-2.8,0.3
		c-0.8,0.1-1.6,0.2-2.4,0.4c-0.8,0.1-1.5,0.4-2.2,0.8c-0.6,0.4-1.2,0.9-1.6,1.5c-0.4,0.8-0.6,1.6-0.6,2.5c-0.1,1.4,0.5,2.8,1.5,3.6
		c1.3,0.9,2.8,1.3,4.3,1.2c1.5,0.1,3.1-0.3,4.4-1c1-0.6,1.8-1.4,2.5-2.3c0.5-0.8,0.9-1.6,1.1-2.5c0.1-0.5,0.2-1.1,0.2-1.7
		L421.1,616.5z"/>
	<path class="st1" d="M452.8,621.7c0,1,0.3,1.9,0.7,2.7c0.8,1.6,2.2,2.8,3.8,3.3c0.9,0.3,1.9,0.4,2.8,0.4c0.8,0,1.5-0.1,2.3-0.2
		c0.8-0.1,1.6-0.4,2.3-0.7c0.7-0.3,1.3-0.8,1.8-1.4c0.5-0.7,0.7-1.5,0.7-2.3c0.1-1.1-0.3-2.1-1.1-2.8c-0.8-0.7-1.8-1.2-2.8-1.5
		c-1.2-0.4-2.4-0.6-3.7-0.8c-1.3-0.2-2.5-0.5-3.7-1c-1.1-0.4-2-1-2.8-1.8c-0.8-1-1.2-2.2-1.1-3.5c0-1,0.2-1.9,0.7-2.7
		c0.5-0.7,1.1-1.3,1.9-1.8c0.8-0.4,1.7-0.8,2.6-0.9c0.9-0.2,1.9-0.3,2.8-0.3c1.1,0,2.2,0.1,3.2,0.4c0.9,0.2,1.8,0.7,2.6,1.3
		c0.7,0.6,1.3,1.3,1.7,2.2c0.4,1,0.7,2.1,0.6,3.2h-1.6c0-0.9-0.1-1.8-0.5-2.6c-0.3-0.7-0.8-1.3-1.4-1.8c-0.6-0.5-1.3-0.8-2.1-1
		c-0.8-0.2-1.7-0.3-2.6-0.3c-0.8,0-1.5,0.1-2.3,0.2c-0.7,0.1-1.4,0.4-2,0.7c-0.6,0.3-1.1,0.8-1.5,1.3c-0.8,1.3-0.8,2.9,0.1,4.1
		c0.5,0.6,1,1,1.7,1.3c0.8,0.3,1.6,0.6,2.4,0.8l2.7,0.7c1.1,0.2,2.1,0.4,3.1,0.7c0.9,0.2,1.7,0.6,2.5,1.1c0.7,0.5,1.3,1.1,1.7,1.8
		c0.4,0.9,0.6,1.9,0.6,2.8c0.1,1.1-0.2,2.1-0.8,3c-0.5,0.8-1.2,1.4-2.1,1.9c-0.9,0.5-1.8,0.8-2.8,1c-1,0.2-2,0.3-3,0.3
		c-1.2,0-2.4-0.2-3.5-0.5c-1-0.3-2-0.8-2.8-1.5c-0.8-0.7-1.5-1.5-1.9-2.5c-0.5-1.1-0.7-2.2-0.7-3.4L452.8,621.7z"/>
	<path class="st1" d="M478.8,606.9h1.6v4.7h0.1c0.3-0.8,0.7-1.6,1.2-2.2c0.5-0.6,1.2-1.2,1.9-1.7c0.7-0.4,1.5-0.8,2.3-1
		c0.8-0.2,1.7-0.3,2.5-0.3c1.1,0,2.2,0.1,3.3,0.5c0.8,0.3,1.6,0.7,2.2,1.3c0.6,0.5,1,1.1,1.4,1.7c0.3,0.6,0.6,1.3,0.7,2
		c0.1,0.6,0.2,1.3,0.3,1.9c0,0.6,0,1.2,0,1.6v13.7h-1.6v-14c0-0.5,0-1.2-0.1-2.1c-0.1-0.8-0.3-1.7-0.8-2.4c-0.4-0.8-1.1-1.5-1.9-2
		c-1.1-0.6-2.3-0.9-3.5-0.8c-1.2,0-2.3,0.2-3.4,0.7c-1,0.4-1.8,1.1-2.5,1.9c-0.7,0.9-1.3,1.9-1.6,2.9c-0.4,1.2-0.5,2.5-0.5,3.7v12
		h-1.6V606.9z"/>
	<path class="st1" d="M507.8,618.2v0.3c0,1.3,0.2,2.5,0.5,3.7c0.3,1.1,0.8,2.2,1.5,3.1c0.7,0.9,1.6,1.6,2.6,2.1
		c1.1,0.5,2.3,0.8,3.6,0.8c1.9,0.1,3.8-0.5,5.3-1.8c1.4-1.3,2.3-3,2.7-4.8h1.6c-0.3,2.3-1.5,4.4-3.2,6c-1.8,1.5-4.1,2.2-6.5,2.1
		c-1.5,0-2.9-0.3-4.3-0.9c-1.2-0.6-2.2-1.4-3.1-2.4c-0.8-1.1-1.5-2.3-1.8-3.6c-0.4-1.5-0.6-3-0.6-4.5c0-1.5,0.2-3,0.6-4.5
		c0.4-1.4,1-2.6,1.9-3.8c0.8-1.1,1.9-2,3.1-2.6c1.4-0.7,2.9-1,4.4-1c1.4,0,2.8,0.3,4.1,0.9c1.2,0.5,2.2,1.4,3,2.3
		c0.8,1,1.4,2.2,1.8,3.5c0.4,1.4,0.6,2.8,0.6,4.2c0,0.2,0,0.3,0,0.5c0,0.2,0,0.3,0,0.5L507.8,618.2z M524.1,616.8
		c0-1.2-0.2-2.3-0.6-3.4c-0.3-1-0.8-2-1.5-2.8c-0.7-0.8-1.5-1.5-2.5-2c-1-0.5-2.2-0.8-3.3-0.7c-1.2,0-2.4,0.2-3.5,0.8
		c-1,0.5-1.8,1.2-2.5,2c-0.7,0.8-1.3,1.8-1.6,2.9c-0.4,1.1-0.6,2.2-0.7,3.4L524.1,616.8z"/>
	<path class="st1" d="M550.3,624.7L550.3,624.7c-0.4,0.7-0.7,1.3-1.2,1.9c-0.5,0.6-1.1,1.1-1.8,1.6c-0.7,0.5-1.5,0.8-2.4,1.1
		c-1,0.3-1.9,0.4-2.9,0.4c-1.9,0.1-3.9-0.4-5.5-1.5c-1.4-1.2-2.1-2.9-1.9-4.7c0-1.1,0.2-2.2,0.8-3.2c0.5-0.8,1.2-1.5,2-1.9
		c0.8-0.5,1.7-0.8,2.6-1c0.9-0.2,1.8-0.3,2.8-0.4l2.5-0.2c0.9-0.1,1.9-0.2,2.8-0.4c0.6-0.1,1.1-0.4,1.5-0.8c0.3-0.3,0.6-0.8,0.6-1.3
		c0.1-0.6,0.1-1.3,0.1-1.9c0-0.6-0.1-1.2-0.3-1.7c-0.2-0.5-0.6-1-1.1-1.4c-0.6-0.5-1.2-0.8-1.9-1c-0.9-0.2-1.9-0.4-2.8-0.3
		c-1.7-0.1-3.4,0.4-4.8,1.5c-1.3,1.1-2,2.7-2,4.4h-1.6c0-2.1,0.8-4.1,2.3-5.5c1.8-1.3,4-2,6.2-1.8c2.7,0,4.6,0.5,5.8,1.6
		c1.2,1,1.9,2.5,1.8,4.1V625c0,0.3,0,0.6,0,1c0,0.3,0.1,0.6,0.2,0.9c0.1,0.2,0.2,0.5,0.4,0.6c0.3,0.2,0.6,0.3,0.9,0.2
		c0.4,0,0.8-0.1,1.2-0.1v1.4c-0.4,0.1-0.9,0.2-1.3,0.2c-0.5,0-1.1-0.1-1.6-0.3c-0.3-0.1-0.7-0.4-0.9-0.7c-0.2-0.3-0.3-0.6-0.4-1
		c-0.1-0.4-0.1-0.8-0.1-1.3L550.3,624.7z M550.3,616.5c-0.5,0.5-1.1,0.9-1.8,1c-0.9,0.2-1.8,0.3-2.7,0.4l-2.8,0.3
		c-0.8,0.1-1.6,0.2-2.4,0.4c-0.8,0.1-1.5,0.4-2.2,0.8c-0.6,0.4-1.2,0.9-1.6,1.5c-0.4,0.8-0.6,1.6-0.6,2.5c-0.1,1.4,0.5,2.8,1.5,3.6
		c1.3,0.9,2.8,1.3,4.3,1.2c1.5,0.1,3.1-0.3,4.4-1c1-0.6,1.8-1.4,2.5-2.3c0.5-0.8,0.9-1.6,1.1-2.5c0.1-0.5,0.2-1.1,0.2-1.7V616.5z"/>
	<path class="st1" d="M563.3,598.3h1.7v20.4l13.7-11.8h2.3l-9.7,8.3l10.4,13.9h-2.3l-9.4-12.6l-5,4.3v8.4h-1.6L563.3,598.3z"/>
	<path class="st1" d="M609.2,612h0.1c0.2-0.6,0.5-1.2,0.9-1.8c0.4-0.7,1-1.3,1.6-1.8c1.6-1.3,3.6-2,5.6-2c1.5,0,3,0.3,4.4,1
		c1.2,0.6,2.3,1.5,3.1,2.5c0.8,1.1,1.5,2.4,1.8,3.7c0.4,1.4,0.6,2.9,0.6,4.5c0,1.6-0.2,3.1-0.6,4.7c-0.4,1.3-1,2.6-1.8,3.7
		c-0.8,1-1.9,1.8-3.1,2.4c-1.4,0.6-2.9,0.9-4.4,0.9c-1.7,0-3.4-0.4-4.9-1.2c-1.5-0.9-2.6-2.3-3.2-3.9h-0.1V637h-1.6v-30.1h1.6
		L609.2,612z M617.4,628.2c1.3,0,2.6-0.2,3.7-0.8c1-0.5,1.9-1.3,2.6-2.2c0.7-1,1.2-2.1,1.5-3.2c0.3-1.3,0.5-2.6,0.5-3.9
		c0-1.3-0.2-2.5-0.5-3.7c-0.3-1.2-0.8-2.3-1.5-3.3c-2.4-3.1-6.6-4.1-10.2-2.3c-1,0.6-1.9,1.3-2.5,2.3c-0.7,1-1.1,2.1-1.4,3.3
		c-0.3,1.3-0.4,2.5-0.4,3.8c0,1.3,0.1,2.6,0.4,3.8c0.2,1.2,0.7,2.3,1.3,3.2c0.6,0.9,1.5,1.7,2.5,2.2
		C614.7,627.9,616,628.2,617.4,628.2L617.4,628.2z"/>
	<path class="st1" d="M637.9,618.2v0.3c0,1.3,0.2,2.5,0.5,3.7c0.3,1.1,0.8,2.2,1.5,3.1c0.7,0.9,1.6,1.6,2.5,2.1
		c1.1,0.5,2.3,0.8,3.6,0.8c1.9,0.1,3.8-0.5,5.3-1.8c1.4-1.3,2.3-3,2.7-4.8h1.6c-0.3,2.3-1.4,4.4-3.2,6c-1.8,1.4-4.1,2.2-6.4,2.1
		c-1.5,0-2.9-0.3-4.3-0.9c-1.2-0.6-2.2-1.4-3.1-2.4c-0.8-1.1-1.5-2.3-1.8-3.6c-0.4-1.5-0.6-3-0.6-4.5c0-1.5,0.2-3,0.6-4.5
		c0.4-1.4,1-2.6,1.9-3.8c0.8-1.1,1.9-2,3.1-2.6c1.4-0.7,2.9-1,4.4-1c1.4,0,2.8,0.3,4.1,0.9c1.2,0.5,2.2,1.3,3,2.3
		c0.8,1,1.4,2.2,1.8,3.5c0.4,1.4,0.6,2.8,0.6,4.2c0,0.1,0,0.3,0,0.5c0,0.1,0,0.3,0,0.5L637.9,618.2z M654.2,616.8
		c-0.1-1.2-0.3-2.3-0.6-3.4c-0.3-1-0.8-2-1.5-2.8c-0.7-0.8-1.5-1.5-2.5-2c-1-0.5-2.2-0.8-3.3-0.7c-1.2,0-2.4,0.2-3.5,0.8
		c-1,0.5-1.8,1.2-2.5,2c-0.7,0.9-1.2,1.8-1.6,2.9c-0.4,1.1-0.6,2.2-0.7,3.4L654.2,616.8z"/>
	<path class="st1" d="M666.3,618.2v0.3c0,1.3,0.2,2.5,0.5,3.7c0.3,1.1,0.8,2.2,1.5,3.1c0.7,0.9,1.5,1.6,2.5,2.1
		c1.1,0.5,2.3,0.8,3.6,0.8c1.9,0.1,3.8-0.5,5.3-1.8c1.4-1.3,2.3-3,2.7-4.8h1.6c-0.3,2.3-1.5,4.4-3.2,6c-1.8,1.4-4.1,2.2-6.5,2.1
		c-1.5,0-2.9-0.3-4.3-0.9c-1.2-0.6-2.2-1.4-3.1-2.4c-0.8-1.1-1.5-2.3-1.8-3.6c-0.4-1.5-0.6-3-0.6-4.5c0-1.5,0.2-3,0.6-4.5
		c0.4-1.4,1-2.6,1.9-3.8c0.8-1.1,1.9-2,3.1-2.6c1.4-0.7,2.9-1,4.4-1c1.4,0,2.8,0.3,4.1,0.9c1.2,0.5,2.2,1.4,3,2.3
		c0.8,1,1.4,2.2,1.8,3.5c0.4,1.4,0.6,2.8,0.6,4.2c0,0.2,0,0.3,0,0.5c0,0.2,0,0.3,0,0.5L666.3,618.2z M682.6,616.8
		c-0.1-1.2-0.3-2.3-0.6-3.4c-0.3-1-0.8-2-1.5-2.8c-0.7-0.8-1.5-1.5-2.5-2c-1-0.5-2.2-0.8-3.3-0.7c-1.2,0-2.4,0.2-3.5,0.8
		c-1,0.5-1.8,1.2-2.5,2c-0.7,0.8-1.3,1.8-1.6,2.9c-0.4,1.1-0.6,2.2-0.7,3.4L682.6,616.8z"/>
	<path class="st1" d="M694.2,598.3h1.6v20.4l13.7-11.8h2.4l-9.7,8.3l10.4,13.9h-2.2l-9.5-12.6l-5,4.3v8.4h-1.6L694.2,598.3z"/>
	<path class="st1" d="M738.5,602.8v-4.4h1.6v4.4H738.5z M738.5,629.1v-22.2h1.6v22.2L738.5,629.1z"/>
	<path class="st1" d="M751.4,606.9h1.6v4.7h0.1c0.3-0.8,0.7-1.6,1.2-2.2c0.5-0.6,1.2-1.2,1.8-1.7c0.7-0.4,1.5-0.8,2.3-1
		c0.8-0.2,1.7-0.3,2.5-0.3c1.1,0,2.2,0.1,3.3,0.5c0.8,0.3,1.6,0.7,2.2,1.3c0.6,0.5,1,1.1,1.4,1.7c0.3,0.6,0.6,1.3,0.7,2
		c0.1,0.6,0.2,1.3,0.3,1.9c0,0.6,0,1.2,0,1.6v13.7h-1.6v-14c0-0.5,0-1.2-0.1-2.1c-0.1-0.8-0.3-1.7-0.8-2.4c-0.4-0.8-1.1-1.5-1.9-2
		c-1.1-0.6-2.3-0.9-3.5-0.8c-1.2,0-2.3,0.2-3.4,0.7c-1,0.4-1.8,1.1-2.5,1.9c-0.7,0.9-1.3,1.9-1.6,2.9c-0.4,1.2-0.5,2.5-0.5,3.7v12
		h-1.6L751.4,606.9z"/>
	<path class="st1" d="M788,608.3h-4.8v15.5c0,0.7,0.1,1.4,0.3,2.1c0.2,0.5,0.5,0.9,0.9,1.2c0.5,0.3,1,0.5,1.5,0.5c0.7,0,1.3,0,2,0
		v1.4c-0.8,0.1-1.6,0.1-2.4,0c-0.7-0.1-1.5-0.3-2.1-0.6c-0.6-0.4-1.1-1-1.4-1.6c-0.4-0.9-0.6-2-0.5-3v-15.4h-4.1v-1.4h4.1V600h1.6
		v6.9h4.9V608.3z"/>
	<path class="st1" d="M796,618c0-1.5,0.2-3,0.7-4.5c0.4-1.3,1.1-2.6,2-3.7c0.9-1.1,2-1.9,3.2-2.5c2.8-1.2,5.9-1.2,8.7,0
		c1.2,0.6,2.3,1.5,3.2,2.5c0.9,1.1,1.6,2.3,2,3.7c0.5,1.4,0.7,2.9,0.7,4.5c0,1.5-0.2,3-0.7,4.5c-0.4,1.3-1.1,2.6-2,3.7
		c-0.9,1.1-2,1.9-3.2,2.5c-2.8,1.2-5.9,1.2-8.7,0c-1.2-0.6-2.3-1.4-3.2-2.5c-0.9-1.1-1.6-2.3-2-3.7C796.2,621,796,619.5,796,618z
		 M797.6,618c0,1.3,0.2,2.6,0.6,3.8c0.3,1.2,0.9,2.3,1.6,3.3c0.7,0.9,1.6,1.7,2.7,2.3c2.3,1.1,5,1.1,7.3,0c1-0.5,2-1.3,2.7-2.3
		c0.7-1,1.3-2.1,1.6-3.3c0.7-2.5,0.7-5.1,0-7.6c-0.3-1.2-0.9-2.3-1.6-3.3c-0.7-0.9-1.6-1.7-2.7-2.3c-2.3-1.1-5-1.1-7.3,0
		c-1,0.5-2,1.3-2.7,2.3c-0.7,1-1.3,2.1-1.6,3.3C797.8,615.4,797.6,616.7,797.6,618L797.6,618z"/>
	<path class="st1" d="M852.4,608.3h-4.8v15.5c0,0.7,0.1,1.4,0.3,2.1c0.2,0.5,0.5,0.9,0.9,1.2c0.5,0.3,1,0.5,1.5,0.5c0.7,0,1.3,0,2,0
		v1.4c-0.8,0.1-1.6,0.1-2.4,0c-0.7-0.1-1.5-0.3-2.1-0.6c-0.6-0.4-1.1-0.9-1.5-1.6c-0.4-0.9-0.6-2-0.5-3v-15.4h-4.1v-1.4h4.1V600h1.6
		v6.9h4.8L852.4,608.3z"/>
	<path class="st1" d="M863.1,598.3v13.4h0.1c0.3-0.8,0.7-1.6,1.2-2.2c0.5-0.6,1.2-1.2,1.8-1.7c0.7-0.5,1.5-0.8,2.3-1
		c0.8-0.2,1.7-0.3,2.5-0.3c1.1,0,2.2,0.1,3.3,0.5c0.8,0.3,1.6,0.7,2.2,1.3c0.6,0.5,1,1.1,1.4,1.7c0.3,0.6,0.6,1.3,0.7,2
		c0.1,0.6,0.2,1.3,0.3,1.9c0,0.6,0,1.2,0,1.6v13.7h-1.6v-14c0-0.7-0.1-1.4-0.1-2.1c-0.1-0.8-0.3-1.7-0.8-2.4c-0.5-0.8-1.1-1.5-1.9-2
		c-1.1-0.6-2.3-0.9-3.5-0.8c-1.2,0-2.3,0.2-3.4,0.7c-1,0.5-1.8,1.1-2.5,1.9c-0.7,0.9-1.2,1.9-1.6,2.9c-0.4,1.2-0.6,2.5-0.5,3.7v12
		h-1.6v-30.8H863.1z"/>
	<path class="st1" d="M890.4,618.2v0.3c0,1.3,0.2,2.5,0.5,3.7c0.3,1.1,0.8,2.2,1.5,3.1c0.7,0.9,1.6,1.6,2.5,2.1
		c1.1,0.5,2.3,0.8,3.6,0.8c1.9,0.1,3.8-0.5,5.3-1.8c1.4-1.3,2.3-3,2.7-4.8h1.6c-0.3,2.3-1.4,4.4-3.2,6c-1.8,1.4-4.1,2.2-6.5,2.1
		c-1.5,0-2.9-0.3-4.3-0.9c-1.2-0.6-2.2-1.4-3.1-2.4c-0.8-1.1-1.5-2.3-1.8-3.6c-0.8-2.9-0.8-6.1,0-9c0.4-1.3,1-2.6,1.9-3.7
		c0.8-1.1,1.9-2,3.1-2.6c1.4-0.7,2.9-1,4.4-1c1.4,0,2.8,0.3,4.1,0.9c1.2,0.5,2.2,1.3,3,2.3c0.8,1,1.4,2.2,1.8,3.5
		c0.4,1.4,0.6,2.8,0.6,4.2c0,0.1,0,0.3,0,0.5c0,0.1,0,0.3,0,0.5H890.4z M906.7,616.8c-0.1-1.2-0.3-2.3-0.6-3.4c-0.3-1-0.8-2-1.5-2.8
		c-0.7-0.8-1.5-1.5-2.5-2c-1-0.5-2.2-0.8-3.3-0.7c-1.2,0-2.4,0.2-3.5,0.8c-1,0.5-1.9,1.2-2.6,2c-0.7,0.8-1.2,1.8-1.6,2.9
		c-0.4,1.1-0.6,2.2-0.7,3.4L906.7,616.8z"/>
	<path class="st1" d="M933.9,608.3v-1.4h4v-4.6c0-0.7,0.1-1.4,0.4-2c0.2-0.5,0.6-1,1.1-1.4c0.5-0.4,1-0.6,1.5-0.8
		c0.6-0.2,1.2-0.3,1.9-0.3c0.7,0,1.3,0.1,1.9,0.2v1.4c-0.6-0.1-1.3-0.2-1.9-0.2c-0.8,0-1.6,0.2-2.3,0.6c-0.7,0.6-1.1,1.5-0.9,2.5
		v4.4h4.6v1.4h-4.6v20.7h-1.6v-20.7H933.9z"/>
	<path class="st1" d="M970.3,629.1h-1.6v-4.7h-0.1c-0.3,0.8-0.7,1.6-1.2,2.2c-1.1,1.3-2.5,2.2-4.2,2.7c-0.8,0.2-1.7,0.3-2.5,0.3
		c-1.1,0-2.2-0.1-3.3-0.5c-0.8-0.3-1.6-0.7-2.2-1.3c-0.6-0.5-1-1.1-1.4-1.8c-0.3-0.6-0.6-1.3-0.7-2c-0.1-0.6-0.2-1.3-0.3-1.9
		c0-0.6,0-1.2,0-1.6v-13.7h1.6v14c0,0.7,0,1.4,0.1,2.1c0.1,0.8,0.3,1.6,0.8,2.4c0.5,0.8,1.1,1.5,1.9,2c1.1,0.6,2.3,0.9,3.5,0.8
		c1.2,0,2.3-0.2,3.3-0.7c1-0.4,1.8-1.1,2.5-1.9c0.7-0.9,1.2-1.9,1.6-2.9c0.4-1.2,0.6-2.5,0.5-3.7v-12h1.6L970.3,629.1z"/>
	<path class="st1" d="M989.3,608.3h-4.8v15.5c0,0.7,0.1,1.4,0.3,2.1c0.2,0.5,0.5,0.9,0.9,1.2c0.4,0.3,1,0.5,1.5,0.5c0.7,0,1.4,0,2,0
		v1.4c-0.8,0.1-1.6,0.1-2.4,0c-0.7-0.1-1.5-0.3-2.1-0.6c-0.6-0.4-1.1-1-1.4-1.6c-0.4-0.9-0.6-2-0.5-3v-15.4h-4.1v-1.4h4.1V600h1.6
		v6.9h4.8V608.3z"/>
	<path class="st1" d="M1015.9,629.1h-1.6v-4.7h-0.1c-0.3,0.8-0.7,1.6-1.2,2.2c-0.5,0.6-1.2,1.2-1.9,1.7c-0.7,0.5-1.5,0.8-2.3,1
		c-0.8,0.2-1.7,0.3-2.5,0.3c-1.1,0-2.2-0.1-3.3-0.5c-0.8-0.3-1.6-0.7-2.2-1.3c-0.6-0.5-1-1.1-1.4-1.8c-0.3-0.6-0.6-1.3-0.7-2
		c-0.1-0.6-0.2-1.3-0.3-1.9c0-0.6,0-1.2,0-1.6v-13.6h1.6v14c0,0.7,0,1.4,0.1,2.1c0.1,0.8,0.3,1.6,0.8,2.4c0.4,0.8,1.1,1.5,1.9,2
		c1.1,0.6,2.3,0.9,3.5,0.8c1.2,0,2.3-0.2,3.3-0.7c1-0.4,1.8-1.1,2.5-1.9c0.7-0.9,1.2-1.9,1.6-2.9c0.4-1.2,0.6-2.5,0.5-3.7v-12h1.6
		L1015.9,629.1z"/>
	<path class="st1" d="M1028.4,611.8h0.1c0.2-0.7,0.6-1.4,1.1-2c0.6-0.6,1.2-1.2,1.9-1.6c0.8-0.5,1.7-0.8,2.6-1
		c0.9-0.3,1.9-0.4,2.9-0.3v1.6c-1-0.1-2,0-3,0.3c-1.2,0.3-2.3,1-3.2,1.9c-0.4,0.4-0.7,0.8-1,1.3c-0.3,0.4-0.6,0.9-0.8,1.3
		c-0.2,0.5-0.4,1.1-0.5,1.6c-0.1,0.7-0.2,1.4-0.2,2.2v12.1h-1.6v-22.2h1.6L1028.4,611.8z"/>
	<path class="st1" d="M1045.4,618.2v0.3c0,1.3,0.2,2.5,0.5,3.7c0.3,1.1,0.8,2.2,1.5,3.1c0.7,0.9,1.6,1.6,2.6,2.1
		c1.1,0.5,2.3,0.8,3.6,0.8c1.9,0.1,3.8-0.5,5.3-1.8c1.4-1.3,2.3-3,2.7-4.8h1.6c-0.3,2.3-1.5,4.4-3.2,6c-1.8,1.4-4.1,2.2-6.4,2.1
		c-1.5,0-2.9-0.3-4.3-0.9c-1.2-0.6-2.2-1.4-3.1-2.4c-0.8-1.1-1.5-2.3-1.8-3.6c-0.8-2.9-0.8-6.1,0-9c0.4-1.4,1-2.6,1.9-3.8
		c0.8-1.1,1.9-2,3.1-2.6c1.4-0.7,2.9-1,4.4-1c1.4,0,2.8,0.3,4.1,0.9c1.2,0.5,2.2,1.3,3,2.3c0.8,1,1.5,2.2,1.8,3.5
		c0.4,1.4,0.6,2.8,0.6,4.2c0,0.1,0,0.3,0,0.5c0,0.1,0,0.3,0,0.5L1045.4,618.2z M1061.7,616.8c-0.1-1.2-0.3-2.3-0.6-3.4
		c-0.3-1-0.8-2-1.5-2.8c-0.7-0.8-1.5-1.5-2.5-2c-1-0.5-2.2-0.8-3.3-0.7c-1.2,0-2.4,0.2-3.5,0.8c-1,0.5-1.8,1.2-2.6,2
		c-0.7,0.8-1.3,1.8-1.6,2.9c-0.4,1.1-0.6,2.2-0.7,3.4L1061.7,616.8z"/>
	<path class="st1" d="M1076.2,602.8c0,0.6,0,1.1-0.1,1.7c-0.1,0.5-0.2,1.1-0.5,1.6c-0.2,0.5-0.5,0.9-0.9,1.3
		c-0.4,0.4-0.8,0.7-1.3,0.9v-1.4c0.3-0.2,0.6-0.4,0.8-0.7c0.2-0.3,0.3-0.7,0.4-1.1c0.1-0.4,0.2-0.8,0.2-1.2c0-0.4,0-0.7,0-1h-0.9
		v-4.4h2.2L1076.2,602.8z M1081.6,602.8c0,0.6,0,1.1-0.1,1.7c-0.1,0.5-0.2,1.1-0.5,1.5c-0.2,0.5-0.5,0.9-0.9,1.3
		c-0.4,0.4-0.8,0.7-1.3,0.9v-1.4c0.3-0.1,0.6-0.4,0.8-0.7c0.2-0.3,0.3-0.7,0.4-1c0.1-0.4,0.2-0.8,0.2-1.2c0-0.4,0-0.7,0-1h-0.9v-4.4
		h2.2L1081.6,602.8z"/>
	<path class="st1" d="M491,448.7h19.4v0.7h-9.4v25.3h-0.7v-25.3H491V448.7z"/>
	<path class="st1" d="M519.1,448.7v11.9h0.1c0.3-1.4,1.1-2.7,2.2-3.6c0.6-0.5,1.3-0.8,2-1.1c0.8-0.3,1.7-0.4,2.5-0.4
		c0.9,0,1.8,0.1,2.7,0.4c0.8,0.3,1.5,0.7,2.1,1.3c0.6,0.6,1.1,1.3,1.4,2.1c0.3,0.9,0.5,1.9,0.5,2.9v12.4h-0.7v-12.3
		c0-1-0.1-1.9-0.5-2.8c-0.3-0.7-0.7-1.4-1.3-1.9c-0.5-0.5-1.2-0.9-1.9-1.1c-0.7-0.2-1.5-0.4-2.3-0.4c-1,0-2,0.2-2.9,0.7
		c-0.8,0.4-1.6,1-2.1,1.7c-0.6,0.7-1,1.6-1.3,2.5c-0.3,1-0.4,2-0.4,3v10.6h-0.7v-26L519.1,448.7z"/>
	<path class="st1" d="M543.3,469.1c0.3,1,0.7,2,1.3,2.8c0.6,0.8,1.4,1.5,2.3,1.9c2.7,1.2,5.9,0.8,8.3-0.9c1.4-1.2,2.3-2.8,2.4-4.6
		h0.7c-0.2,2-1.1,3.8-2.6,5.1c-1.5,1.2-3.4,1.9-5.4,1.8c-1.3,0.1-2.6-0.2-3.7-0.7c-1-0.5-1.9-1.2-2.5-2.1c-0.7-0.9-1.2-2-1.5-3.1
		c-0.3-1.3-0.5-2.6-0.5-3.9c0-1.4,0.2-2.8,0.7-4.2c0.4-1.1,1-2.2,1.8-3.1c1.4-1.6,3.5-2.6,5.7-2.6c1.3,0,2.6,0.3,3.8,0.8
		c1,0.5,1.9,1.3,2.6,2.2c0.7,1,1.2,2,1.5,3.2c0.3,1.2,0.4,2.5,0.4,3.7h-15.7C542.8,466.7,543,467.9,543.3,469.1z M557.3,461.5
		c-0.3-1-0.8-1.9-1.4-2.7c-0.6-0.8-1.4-1.4-2.3-1.8c-1.9-0.9-4.1-0.9-6.1-0.1c-0.9,0.4-1.7,1-2.3,1.7c-0.7,0.8-1.2,1.7-1.6,2.7
		c-0.4,1.1-0.7,2.3-0.7,3.5h14.9C557.8,463.7,557.6,462.6,557.3,461.5L557.3,461.5z"/>
	<path class="st1" d="M599.2,460.8v0.7h-13.9v13.2h-0.7v-26h16v0.7h-15.3v11.4L599.2,460.8z"/>
	<path class="st1" d="M622.2,474.8v-4.6h-0.1c-0.3,1.4-1.1,2.7-2.2,3.6c-1.3,1-2.9,1.5-4.5,1.4c-0.9,0-1.8-0.1-2.7-0.4
		c-0.8-0.3-1.5-0.7-2.1-1.3c-0.6-0.6-1.1-1.3-1.4-2.1c-0.3-0.9-0.5-1.9-0.5-2.9V456h0.7v12.3c0,1,0.1,1.9,0.5,2.8
		c0.3,0.7,0.7,1.4,1.3,1.9c0.5,0.5,1.2,0.9,1.9,1.1c0.7,0.2,1.5,0.3,2.3,0.3c1,0,2.1-0.2,3-0.6c0.8-0.4,1.6-1,2.1-1.7
		c0.6-0.7,1-1.6,1.3-2.5c0.3-1,0.4-2,0.4-3V456h0.7v18.7L622.2,474.8z"/>
	<path class="st1" d="M635.5,471.1c0,0.6,0.1,1.1,0.2,1.6c0.1,0.3,0.3,0.6,0.6,0.9c0.2,0.2,0.5,0.3,0.8,0.3c0.3,0,0.6,0.1,0.9,0.1h1
		c0.2,0,0.4,0,0.6-0.1v0.7l-0.6,0.1c-0.2,0-0.6,0-1.2,0c-0.8,0-1.6-0.2-2.2-0.8c-0.7-0.7-1-1.7-0.9-2.8v-14.5h-3.4V456h3.4v-5.9h0.7
		v5.9h4.2v0.7h-4.2L635.5,471.1z"/>
	<path class="st1" d="M662.4,474.8v-4.6h-0.1c-0.3,1.4-1.1,2.7-2.3,3.6c-1.3,1-2.9,1.5-4.5,1.4c-0.9,0-1.8-0.1-2.7-0.4
		c-0.8-0.3-1.5-0.7-2.1-1.3c-0.6-0.6-1.1-1.3-1.4-2.1c-0.3-0.9-0.5-1.9-0.5-2.9V456h0.7v12.3c0,1,0.1,1.9,0.5,2.8
		c0.3,0.7,0.7,1.4,1.3,1.9c0.5,0.5,1.2,0.9,1.9,1.1c0.7,0.2,1.5,0.3,2.3,0.3c1,0,2.1-0.2,3-0.6c0.8-0.4,1.6-1,2.1-1.7
		c0.6-0.7,1-1.6,1.3-2.5c0.3-1,0.4-2,0.4-3V456h0.7v18.7L662.4,474.8z"/>
	<path class="st1" d="M673.7,474.8V456h0.7v4.6h0.1c0.2-0.7,0.4-1.4,0.8-2c0.4-0.6,0.9-1.2,1.5-1.6c0.7-0.5,1.4-0.8,2.2-1
		c0.9-0.3,1.9-0.4,2.9-0.4v0.7c-1.1-0.1-2.3,0.1-3.3,0.5c-0.9,0.4-1.7,1-2.3,1.8c-0.6,0.8-1.1,1.6-1.3,2.6c-0.3,1-0.4,2-0.4,3v10.6
		L673.7,474.8z"/>
	<path class="st1" d="M689.8,469.1c0.2,1,0.7,2,1.3,2.8c0.6,0.8,1.4,1.5,2.3,1.9c2.7,1.2,5.9,0.8,8.3-0.9c1.4-1.2,2.2-2.8,2.4-4.6
		h0.7c-0.2,2-1.1,3.8-2.6,5.1c-1.5,1.2-3.4,1.9-5.4,1.8c-1.3,0.1-2.6-0.2-3.7-0.7c-1-0.5-1.9-1.2-2.5-2.1c-0.7-0.9-1.2-2-1.5-3.1
		c-0.3-1.3-0.5-2.6-0.5-3.9c0-1.4,0.2-2.8,0.7-4.2c0.4-1.1,1-2.2,1.8-3.1c0.7-0.8,1.6-1.5,2.6-1.9c1-0.4,2-0.7,3.1-0.7
		c1.3,0,2.6,0.3,3.8,0.8c1,0.5,1.9,1.3,2.6,2.2c0.7,1,1.2,2,1.5,3.2c0.3,1.2,0.4,2.5,0.4,3.7h-15.7
		C689.3,466.7,689.5,467.9,689.8,469.1z M703.8,461.5c-0.3-1-0.8-1.9-1.4-2.7c-0.6-0.8-1.4-1.4-2.3-1.8c-1.9-0.9-4.1-0.9-6.1-0.1
		c-0.9,0.4-1.7,1-2.3,1.7c-0.7,0.8-1.3,1.7-1.6,2.7c-0.4,1.1-0.7,2.3-0.7,3.5h14.9C704.2,463.7,704.1,462.6,703.8,461.5L703.8,461.5
		z"/>
	<path class="st1" d="M730.7,461.7c0.3-1.1,0.9-2.2,1.6-3.1c0.7-0.9,1.6-1.6,2.6-2.2c2.3-1.1,5-1.1,7.3,0c1,0.5,1.9,1.3,2.7,2.2
		c0.7,0.9,1.3,2,1.6,3.1c0.7,2.4,0.7,5,0,7.4c-0.3,1.1-0.9,2.2-1.6,3.1c-0.7,0.9-1.6,1.6-2.7,2.1c-3.4,1.7-7.5,0.8-9.9-2.1
		c-0.7-0.9-1.3-2-1.6-3.1C730,466.7,730,464.1,730.7,461.7z M731.4,468.8c0.3,1,0.8,2,1.5,2.9c0.7,0.8,1.5,1.5,2.4,2
		c2.1,1,4.5,1,6.6,0c0.9-0.5,1.8-1.2,2.4-2c0.7-0.9,1.2-1.8,1.5-2.9c0.7-2.2,0.7-4.6,0-6.8c-0.3-1.1-0.8-2-1.5-2.9
		c-0.7-0.8-1.5-1.5-2.4-2c-2.1-1-4.5-1-6.6,0c-0.9,0.5-1.8,1.2-2.4,2c-0.7,0.9-1.2,1.9-1.5,2.9C730.7,464.2,730.7,466.6,731.4,468.8
		z"/>
	<path class="st1" d="M754.6,456h3.2v-4.2c0-0.6,0.1-1.2,0.3-1.8c0.2-0.4,0.5-0.7,0.9-0.9c0.4-0.2,0.8-0.3,1.2-0.4
		c0.4,0,0.8-0.1,1.2-0.1c0.3,0,0.6,0,0.9,0l0.7,0.1v0.7l-0.9-0.1c-0.3,0-0.5,0-0.8,0c-0.8-0.1-1.6,0.1-2.3,0.6
		c-0.4,0.6-0.6,1.3-0.5,2v3.9h4v0.7h-4v18h-0.7v-18h-3.2L754.6,456z"/>
	<path class="st1" d="M798.2,448.7c1,0,1.9,0.1,2.9,0.4c0.8,0.2,1.6,0.7,2.3,1.2c0.7,0.5,1.2,1.2,1.6,2c0.4,0.9,0.6,1.9,0.6,2.9
		c0,1.5-0.6,3-1.6,4.1c-0.5,0.5-1.1,1-1.7,1.3c-0.7,0.3-1.4,0.5-2.2,0.6v0.1c0.8,0,1.7,0.2,2.4,0.5c0.7,0.3,1.4,0.7,2,1.3
		c0.6,0.6,1.1,1.2,1.4,2c0.4,0.8,0.5,1.8,0.5,2.7c0,1.1-0.2,2.1-0.6,3.1c-0.4,0.9-1,1.6-1.8,2.2c-0.8,0.6-1.7,1.1-2.7,1.3
		c-1.1,0.3-2.3,0.5-3.5,0.5H787v-26L798.2,448.7z M798.2,460.8c0.8,0,1.7-0.1,2.5-0.3c0.8-0.2,1.5-0.6,2.1-1.1
		c0.6-0.5,1.1-1.1,1.5-1.8c0.4-0.8,0.6-1.6,0.5-2.4c0-0.9-0.2-1.8-0.5-2.6c-0.3-0.7-0.8-1.3-1.4-1.8c-0.6-0.5-1.3-0.8-2.1-1
		c-0.8-0.2-1.7-0.4-2.6-0.4h-10.5v11.4H798.2z M798.1,474c1,0,2-0.1,3-0.4c0.9-0.2,1.7-0.6,2.4-1.2c0.7-0.5,1.2-1.2,1.6-2
		c0.4-0.9,0.6-1.8,0.6-2.8c0-1-0.2-2-0.6-2.9c-0.4-0.8-1-1.4-1.7-1.9c-0.7-0.5-1.5-0.9-2.4-1.1c-0.9-0.2-1.8-0.3-2.7-0.3h-10.5V474
		L798.1,474z"/>
	<path class="st1" d="M816.9,448.7v26h-0.7v-26H816.9z"/>
	<path class="st1" d="M827,461.7c0.3-1.1,0.9-2.2,1.6-3.1c0.7-0.9,1.6-1.6,2.6-2.2c1.1-0.6,2.4-0.8,3.7-0.8c1.2,0,2.5,0.3,3.6,0.8
		c1,0.5,1.9,1.3,2.7,2.2c0.7,0.9,1.3,2,1.6,3.1c0.7,2.4,0.7,5,0,7.4c-0.3,1.1-0.9,2.2-1.6,3.1c-0.7,0.9-1.6,1.6-2.7,2.1
		c-2.3,1.1-5,1.1-7.3,0c-1-0.5-1.9-1.2-2.6-2.1c-0.7-0.9-1.3-2-1.6-3.1C826.3,466.7,826.3,464.1,827,461.7z M827.7,468.8
		c0.3,1.1,0.8,2,1.5,2.9c0.7,0.8,1.5,1.5,2.4,2c1,0.5,2.2,0.8,3.3,0.7c1.1,0,2.3-0.2,3.3-0.7c0.9-0.5,1.8-1.2,2.4-2
		c0.7-0.9,1.2-1.8,1.5-2.9c0.7-2.2,0.7-4.6,0-6.8c-0.3-1.1-0.8-2-1.5-2.9c-0.7-0.8-1.5-1.5-2.4-2c-1-0.5-2.1-0.8-3.3-0.8
		c-1.2,0-2.3,0.2-3.3,0.8c-0.9,0.5-1.8,1.2-2.4,2c-0.7,0.9-1.2,1.8-1.5,2.9C827,464.2,827,466.6,827.7,468.8z"/>
	<path class="st1" d="M867.3,471.2c-0.8,1.7-2.3,2.9-4,3.5c-0.9,0.3-1.9,0.5-2.9,0.5c-1.2,0-2.4-0.2-3.6-0.8c-1-0.5-1.9-1.2-2.6-2
		c-0.7-0.9-1.3-1.9-1.6-3c-0.4-1.2-0.5-2.4-0.5-3.6c0-1.3,0.2-2.6,0.5-3.9c0.3-1.2,0.9-2.3,1.6-3.3c0.7-0.9,1.7-1.7,2.7-2.2
		c1.2-0.6,2.5-0.9,3.9-0.8c0.9,0,1.7,0.1,2.5,0.4c0.8,0.3,1.5,0.7,2.2,1.2c0.6,0.5,1.2,1.2,1.6,1.9c0.4,0.8,0.7,1.7,0.8,2.6h-0.7
		c-0.1-0.8-0.4-1.6-0.8-2.4c-0.4-0.6-0.9-1.2-1.4-1.7c-0.6-0.5-1.2-0.8-1.9-1c-0.7-0.2-1.5-0.3-2.2-0.3c-1.3,0-2.6,0.3-3.8,0.9
		c-1,0.5-1.8,1.3-2.5,2.2c-0.6,0.9-1.1,2-1.3,3.1c-0.3,1.1-0.4,2.2-0.4,3.3c0,1.1,0.2,2.2,0.5,3.3c0.3,1,0.8,1.9,1.4,2.8
		c0.6,0.8,1.4,1.5,2.4,1.9c1,0.5,2.1,0.7,3.3,0.7c0.9,0,1.8-0.1,2.6-0.4c0.8-0.3,1.5-0.7,2.1-1.2c1.3-1.1,2.1-2.7,2.2-4.4h0.7
		C867.9,469.4,867.7,470.3,867.3,471.2z"/>
	<path class="st1" d="M878.5,474.8h-0.7v-26h0.7v18l12.9-10.8h1.1l-8.6,7.1l9.2,11.6h-1l-8.8-11.1l-4.8,4L878.5,474.8z"/>
	<path class="st1" d="M914.8,471.2c-0.4,0.8-0.9,1.5-1.6,2.1c-0.7,0.6-1.5,1.1-2.3,1.4c-0.9,0.3-1.9,0.5-2.9,0.5
		c-1.2,0-2.4-0.2-3.5-0.8c-1-0.5-1.9-1.2-2.6-2c-0.7-0.9-1.3-1.9-1.6-3c-0.4-1.2-0.6-2.4-0.5-3.6c0-1.3,0.2-2.6,0.5-3.9
		c0.3-1.2,0.9-2.3,1.6-3.3c0.7-0.9,1.7-1.7,2.7-2.2c1.2-0.6,2.5-0.9,3.9-0.8c0.9,0,1.7,0.1,2.5,0.4c0.8,0.3,1.5,0.7,2.2,1.2
		c0.6,0.5,1.2,1.2,1.6,1.9c0.4,0.8,0.7,1.7,0.8,2.6h-0.7c-0.1-0.8-0.4-1.6-0.8-2.4c-0.4-0.6-0.8-1.2-1.4-1.7c-0.6-0.5-1.2-0.8-1.9-1
		c-0.7-0.2-1.5-0.3-2.2-0.3c-1.3,0-2.6,0.3-3.8,0.9c-1,0.5-1.8,1.3-2.5,2.2c-0.6,0.9-1.1,2-1.3,3.1c-0.3,1.1-0.4,2.2-0.4,3.3
		c0,1.1,0.2,2.2,0.5,3.3c0.3,1,0.8,1.9,1.4,2.8c0.6,0.8,1.4,1.5,2.4,1.9c1,0.5,2.1,0.7,3.3,0.7c0.9,0,1.8-0.1,2.6-0.4
		c0.8-0.3,1.5-0.7,2.1-1.2c0.6-0.5,1.1-1.2,1.5-1.9c0.4-0.8,0.6-1.6,0.7-2.5h0.7C915.5,469.4,915.2,470.3,914.8,471.2z"/>
	<path class="st1" d="M926,448.7v11.9h0.1c0.2-0.7,0.4-1.4,0.8-2c0.4-0.6,0.9-1.1,1.4-1.6c0.6-0.5,1.3-0.8,2-1.1
		c0.8-0.3,1.7-0.4,2.5-0.4c0.9,0,1.8,0.1,2.7,0.4c1.6,0.6,2.9,1.8,3.5,3.4c0.3,0.9,0.5,1.9,0.5,2.9v12.4h-0.7v-12.3
		c0-1-0.1-1.9-0.5-2.8c-0.5-1.4-1.7-2.5-3.2-3c-0.7-0.2-1.5-0.4-2.3-0.4c-1,0-2.1,0.2-3,0.6c-0.8,0.4-1.6,1-2.1,1.7
		c-0.6,0.7-1,1.6-1.3,2.5c-0.3,1-0.4,2-0.4,3v10.6h-0.7v-26L926,448.7z"/>
	<path class="st1" d="M950.5,459.4c0.3-0.8,0.8-1.4,1.4-2c0.6-0.6,1.4-1,2.2-1.3c1-0.3,2-0.5,3-0.5c0.8,0,1.6,0.1,2.3,0.3
		c0.7,0.1,1.4,0.5,2,0.9c0.6,0.4,1,1,1.3,1.7c0.4,0.8,0.6,1.7,0.5,2.5v11.9c0,0.3,0.1,0.6,0.2,0.8c0.2,0.2,0.4,0.3,0.6,0.4
		c0.3,0.1,0.5,0.1,0.8,0.1h0.8v0.7h-1.1c-0.5,0-1-0.1-1.4-0.4c-0.4-0.3-0.7-0.9-0.6-1.4v-2.5h-0.1c-0.2,0.6-0.5,1.2-0.9,1.8
		c-0.4,0.6-1,1.1-1.6,1.5c-0.7,0.4-1.4,0.8-2.2,1c-0.9,0.3-1.8,0.4-2.7,0.4c-1.6,0.1-3.2-0.4-4.5-1.3c-1.2-0.9-1.8-2.3-1.7-3.8
		c0-1,0.2-1.9,0.6-2.8c0.3-0.7,0.9-1.2,1.5-1.7c0.6-0.4,1.3-0.7,2.1-0.8c0.8-0.2,1.6-0.3,2.3-0.3l3.3-0.2c0.8,0,1.5-0.2,2.3-0.4
		c0.5-0.1,1-0.4,1.3-0.8c0.3-0.5,0.5-1,0.4-1.6c0-0.6-0.1-1.2-0.1-1.8c-0.1-0.6-0.3-1.2-0.7-1.7c-0.4-0.6-1-1-1.7-1.3
		c-1-0.4-2-0.5-3-0.5c-1.7-0.1-3.3,0.4-4.6,1.4c-1.1,1.1-1.8,2.5-1.8,4.1H950C950,461,950.2,460.1,950.5,459.4z M962.5,463.8
		c-0.3,0.4-0.7,0.6-1.1,0.8c-0.6,0.2-1.2,0.3-1.8,0.4c-0.7,0.1-1.4,0.2-2.1,0.2c-0.8,0-1.5,0.1-2.2,0.1c-0.7,0-1.4,0.1-2.1,0.3
		c-0.7,0.1-1.3,0.4-1.8,0.7c-0.5,0.4-1,0.9-1.3,1.5c-0.3,0.8-0.5,1.6-0.5,2.4c0,0.5,0.1,1.1,0.3,1.6c0.2,0.5,0.5,1,0.9,1.4
		c0.5,0.4,1.1,0.8,1.7,1c0.8,0.3,1.7,0.4,2.6,0.4c1.1,0,2.2-0.2,3.3-0.6c0.9-0.4,1.7-0.9,2.4-1.6c0.6-0.7,1.1-1.4,1.5-2.3
		c0.3-0.9,0.5-1.8,0.5-2.7L962.5,463.8L962.5,463.8z"/>
	<path class="st1" d="M974.1,452.4v-3.7h0.7v3.7H974.1z M974.1,474.8V456h0.7v18.7L974.1,474.8z"/>
	<path class="st1" d="M986.2,456v4.6h0.1c0.2-0.7,0.4-1.4,0.8-2c0.4-0.6,0.9-1.1,1.4-1.6c0.6-0.5,1.3-0.8,2-1.1
		c0.8-0.3,1.7-0.4,2.5-0.4c0.9,0,1.8,0.1,2.7,0.4c1.6,0.5,2.9,1.8,3.5,3.4c0.3,0.9,0.5,1.9,0.5,2.9v12.4h-0.7v-12.3
		c0-1-0.1-1.9-0.5-2.8c-0.5-1.4-1.7-2.5-3.2-3c-0.7-0.2-1.5-0.4-2.3-0.4c-1,0-2.1,0.2-3,0.6c-0.8,0.4-1.6,1-2.1,1.7
		c-0.6,0.7-1,1.6-1.3,2.5c-0.3,1-0.4,2-0.4,3v10.6h-0.7V456H986.2z"/>
	<path class="st1" d="M275.5,175.9c2.2,0,4.4,0.3,6.5,0.9c1.9,0.6,3.7,1.5,5.3,2.8c1.5,1.2,2.7,2.8,3.5,4.6c0.9,2,1.3,4.2,1.3,6.4
		c0,3.4-1.3,6.7-3.5,9.2c-2.3,2.5-5.5,4-8.9,4.2v0.2c1.9,0.1,3.7,0.4,5.5,1.1c1.7,0.7,3.2,1.6,4.5,2.9c1.3,1.3,2.4,2.8,3.1,4.5
		c0.8,1.9,1.2,3.9,1.1,6c0.1,2.4-0.4,4.8-1.4,6.9c-0.9,2-2.3,3.7-4,5c-1.8,1.4-3.9,2.4-6.1,3c-2.5,0.7-5.1,1-7.8,1h-24.2v-58.6
		H275.5z M275.5,203.2c1.9,0,3.8-0.3,5.6-0.8c1.7-0.5,3.3-1.3,4.7-2.4c1.4-1.1,2.5-2.4,3.3-4c0.9-1.7,1.3-3.6,1.2-5.5
		c0-2-0.3-4-1.1-5.8c-0.7-1.6-1.8-2.9-3.2-4c-1.4-1.1-3-1.9-4.7-2.4c-1.9-0.5-3.9-0.8-5.8-0.8h-23.6v25.6L275.5,203.2z M275.3,232.9
		c2.3,0,4.6-0.3,6.8-0.9c1.9-0.5,3.8-1.4,5.3-2.6c1.5-1.2,2.7-2.7,3.6-4.4c0.9-2,1.4-4.1,1.3-6.3c0.1-2.2-0.4-4.5-1.4-6.5
		c-0.9-1.7-2.2-3.2-3.8-4.3c-1.6-1.1-3.4-1.9-5.3-2.4c-2-0.5-4.1-0.7-6.1-0.7h-23.6v28.1L275.3,232.9z"/>
	<path class="st1" d="M319.2,175.9v58.7h-1.6v-58.7H319.2z"/>
	<path class="st1" d="M343.7,205.1c0.8-2.5,2-4.9,3.7-7c1.6-2,3.6-3.7,6-4.9c2.5-1.3,5.4-1.9,8.2-1.9c2.8-0.1,5.6,0.6,8.1,1.9
		c2.3,1.2,4.3,2.9,6,4.9c1.6,2.1,2.9,4.5,3.7,7c1.6,5.4,1.6,11.2,0,16.7c-0.8,2.5-2,4.9-3.7,7c-3.4,4.3-8.7,6.8-14.2,6.7
		c-2.8,0.1-5.6-0.6-8.1-1.8c-2.3-1.2-4.3-2.8-6-4.9c-1.7-2.1-2.9-4.5-3.7-7C342.1,216.3,342.1,210.5,343.7,205.1z M345.2,221.1
		c0.7,2.4,1.8,4.6,3.3,6.5c1.5,1.9,3.3,3.4,5.5,4.5c2.3,1.2,4.9,1.7,7.5,1.7c2.6,0.1,5.2-0.5,7.5-1.7c2.1-1.1,4-2.6,5.5-4.5
		c1.5-2,2.6-4.2,3.3-6.5c0.7-2.5,1.1-5.1,1.1-7.7c0-2.6-0.4-5.2-1.1-7.6c-0.7-2.4-1.8-4.6-3.3-6.5c-1.5-1.9-3.3-3.4-5.5-4.6
		c-2.3-1.2-4.9-1.8-7.4-1.7c-2.6-0.1-5.2,0.5-7.6,1.7c-2.1,1.1-4,2.7-5.5,4.6c-1.5,1.9-2.6,4.2-3.3,6.5c-0.7,2.5-1.1,5.1-1.1,7.6
		C344.1,216,344.5,218.6,345.2,221.1z"/>
	<path class="st1" d="M436,226.5c-0.9,1.8-2.1,3.5-3.7,4.8c-1.5,1.3-3.3,2.3-5.3,3c-2.1,0.7-4.4,1.1-6.6,1.1c-2.8,0.1-5.5-0.5-8-1.7
		c-2.3-1.1-4.3-2.6-5.9-4.6c-1.6-2-2.9-4.3-3.6-6.7c-0.8-2.6-1.3-5.4-1.2-8.2c0-3,0.4-5.9,1.2-8.8c0.7-2.6,2-5.1,3.6-7.3
		c1.6-2.1,3.7-3.9,6.2-5.1c2.7-1.3,5.7-2,8.8-1.9c1.9,0,3.8,0.3,5.7,0.9c1.8,0.6,3.4,1.5,4.9,2.6c1.5,1.2,2.7,2.7,3.6,4.3
		c1,1.9,1.6,3.9,1.9,6h-1.7c-0.3-1.9-0.9-3.7-1.8-5.4c-0.8-1.4-1.9-2.7-3.2-3.8c-1.3-1-2.7-1.8-4.3-2.3c-1.6-0.5-3.3-0.7-5-0.7
		c-3-0.1-5.9,0.6-8.5,1.9c-2.2,1.2-4.1,2.9-5.6,5c-1.4,2.1-2.4,4.4-3,6.9c-0.6,2.5-0.9,5-0.9,7.5c0,2.5,0.4,5,1.1,7.4
		c0.7,2.3,1.8,4.4,3.3,6.2c1.4,1.8,3.3,3.3,5.3,4.3c2.3,1.1,4.8,1.6,7.4,1.6c2,0,4-0.3,5.8-0.9c3.5-1.2,6.5-3.7,8.2-7.1
		c0.9-1.8,1.4-3.7,1.6-5.7h1.6C437.6,222.4,437,224.5,436,226.5z"/>
	<path class="st1" d="M462.9,234.6h-1.6v-58.7h1.6v40.7l29.2-24.2h2.4l-19.4,16.1l20.8,26.1h-2.2l-19.8-25l-10.9,9L462.9,234.6z"/>
	<path class="st1" d="M561.3,221.4c-1.3,2.8-3.1,5.4-5.3,7.6c-2.2,2.2-4.8,3.9-7.7,5c-3.2,1.2-6.6,1.9-10,1.8
		c-7.3,0.1-14.3-3-19.1-8.5c-2.4-2.8-4.3-6-5.5-9.5c-1.4-3.9-2-8-2-12.1c0-3.7,0.5-7.3,1.5-10.9c1-3.6,2.6-7,4.8-10.1
		c2.3-3.1,5.2-5.6,8.5-7.4c3.9-2,8.3-3,12.7-2.9c3.5-0.1,7,0.6,10.2,1.9c2.7,1.2,5.2,2.8,7.3,4.9c1.8,1.8,3.3,3.9,4.4,6.2
		c0.9,1.9,1.4,3.9,1.6,6h-1.7c-0.2-2.2-0.8-4.3-1.9-6.3c-1.1-2.1-2.7-4-4.5-5.6c-2-1.7-4.3-3.1-6.7-4c-2.8-1-5.7-1.6-8.7-1.5
		c-4.3-0.1-8.5,0.9-12.2,2.9c-3.2,1.8-5.9,4.3-8,7.3c-2,2.9-3.5,6.1-4.4,9.6c-0.9,3.2-1.3,6.5-1.4,9.8c0,3.7,0.5,7.3,1.6,10.8
		c1,3.3,2.7,6.4,4.8,9.1c2.1,2.6,4.8,4.8,7.8,6.3c3.3,1.6,6.9,2.4,10.6,2.4c3.2,0,6.4-0.5,9.5-1.7c2.7-1.1,5.2-2.7,7.2-4.8
		c2.1-2.1,3.7-4.5,4.9-7.2c1.3-2.9,2.1-5.9,2.5-9h1.7C563.6,215,562.7,218.3,561.3,221.4z"/>
	<path class="st1" d="M588.5,175.9v26.9h0.2c0.4-1.6,1-3.1,1.8-4.5c0.9-1.4,1.9-2.6,3.2-3.6c1.3-1.1,2.9-1.9,4.5-2.4
		c1.8-0.6,3.7-0.9,5.7-0.9c2,0,4.1,0.3,6,1c3.6,1.3,6.5,4.1,7.9,7.7c0.8,2.1,1.1,4.3,1.1,6.5v28h-1.6v-27.8c0.1-2.1-0.3-4.3-1.1-6.3
		c-0.6-1.6-1.6-3.1-2.9-4.3c-1.2-1.1-2.7-2-4.3-2.5c-1.7-0.5-3.4-0.8-5.1-0.8c-2.3,0-4.6,0.4-6.7,1.4c-1.9,0.9-3.5,2.2-4.8,3.9
		c-1.3,1.7-2.3,3.6-2.9,5.6c-0.7,2.2-1,4.5-1,6.7v23.9h-1.6v-58.7H588.5z"/>
	<path class="st1" d="M645.6,199.8c0.7-1.7,1.7-3.2,3.1-4.5c1.4-1.3,3.1-2.3,4.9-2.9c2.2-0.8,4.5-1.1,6.9-1.1c1.8,0,3.6,0.2,5.3,0.6
		c1.6,0.3,3.1,1,4.4,2c1.3,1,2.3,2.3,3,3.7c0.8,1.8,1.3,3.8,1.2,5.8v26.9c-0.1,0.6,0.1,1.3,0.5,1.8c0.3,0.4,0.8,0.7,1.3,0.8
		c0.6,0.1,1.2,0.2,1.8,0.2c0.6,0,1.2-0.1,1.8-0.1v1.6h-2.5c-1.1,0-2.2-0.3-3.2-0.9c-0.9-0.6-1.4-1.6-1.4-3.2v-5.5h-0.2
		c-0.5,1.4-1.2,2.8-2.1,3.9c-1,1.3-2.2,2.4-3.6,3.4c-1.5,1-3.2,1.8-5,2.3c-2,0.6-4,0.9-6.1,0.9c-4.3,0-7.7-0.9-10.3-2.8
		c-2.6-1.9-3.9-4.7-3.9-8.5c-0.1-2.2,0.3-4.4,1.3-6.3c0.8-1.5,1.9-2.8,3.3-3.7c1.4-0.9,3-1.6,4.7-1.9c1.7-0.4,3.5-0.6,5.3-0.7
		l7.5-0.4c1.7-0.1,3.5-0.4,5.1-0.8c1.2-0.3,2.2-1,3-1.9c0.7-1.1,1-2.4,0.9-3.6c0-1.3-0.1-2.6-0.3-3.9c-0.2-1.4-0.8-2.7-1.6-3.8
		c-1-1.3-2.3-2.2-3.7-2.8c-2.1-0.8-4.4-1.2-6.7-1.1c-4.4,0-7.9,1.1-10.4,3.3s-3.8,5.2-4.1,9.2h-1.7
		C644.4,203.5,644.9,201.6,645.6,199.8z M672.6,209.7c-0.6,0.8-1.5,1.5-2.5,1.8c-1.3,0.4-2.6,0.8-3.9,0.9c-1.6,0.2-3.2,0.4-4.8,0.4
		c-1.7,0.1-3.4,0.1-5,0.3c-1.6,0.1-3.2,0.3-4.8,0.6c-1.5,0.3-2.9,0.8-4.2,1.6c-1.2,0.8-2.2,2-2.9,3.3c-0.8,1.7-1.1,3.6-1.1,5.5
		c0,1.2,0.2,2.4,0.6,3.6c0.4,1.2,1.2,2.3,2.1,3.1c1.1,1,2.4,1.7,3.8,2.2c1.9,0.6,3.8,0.9,5.8,0.9c2.5,0,5-0.4,7.3-1.4
		c2-0.9,3.9-2.1,5.4-3.6c1.4-1.5,2.6-3.3,3.3-5.2c0.7-1.9,1.1-4,1.1-6.1v-7.8L672.6,209.7z"/>
	<path class="st1" d="M700.4,184.2v-8.3h1.6v8.3H700.4z M700.4,234.5v-42.2h1.6v42.2L700.4,234.5z"/>
	<path class="st1" d="M729.1,192.3v10.4h0.2c0.4-1.6,1-3.1,1.8-4.5c1.8-2.8,4.5-5,7.7-6c1.8-0.6,3.7-0.9,5.7-0.9c2,0,4.1,0.3,6,1
		c1.8,0.6,3.4,1.6,4.8,2.9c1.4,1.3,2.4,3,3.1,4.8c0.8,2.1,1.2,4.3,1.1,6.5v28h-1.7v-27.8c0.1-2.1-0.3-4.3-1.1-6.3
		c-0.6-1.6-1.6-3.1-2.9-4.3c-1.2-1.1-2.7-2-4.3-2.5c-1.7-0.5-3.4-0.8-5.1-0.8c-2.3,0-4.6,0.4-6.7,1.4c-1.9,0.9-3.5,2.2-4.8,3.9
		c-1.3,1.7-2.3,3.6-2.9,5.6c-0.7,2.2-1,4.5-1,6.7v23.9h-1.7v-42.2H729.1z"/>
	<path class="st1" d="M813.7,175.9v43.4c0,2.3-0.3,4.5-0.9,6.7c-0.5,1.9-1.5,3.7-2.8,5.3c-1.4,1.5-3.1,2.7-5,3.4
		c-2.4,0.9-5,1.3-7.5,1.2c-2.4,0.1-4.9-0.3-7.2-1.2c-1.9-0.7-3.5-1.9-4.8-3.3c-1.3-1.5-2.2-3.2-2.8-5.1c-0.6-2.1-0.9-4.2-0.9-6.4
		v-3.5h1.6v3.5c0,4.8,1.2,8.4,3.5,10.8c2.4,2.4,5.8,3.6,10.4,3.6c2.1,0,4.2-0.2,6.2-0.8c1.7-0.5,3.3-1.4,4.5-2.7
		c1.3-1.4,2.3-3.1,2.8-5c0.7-2.5,1-5.1,0.9-7.8v-42.1H813.7z"/>
	<path class="st1" d="M840.6,199.8c0.7-1.7,1.8-3.2,3.1-4.5c1.4-1.3,3.1-2.3,4.9-2.9c2.2-0.8,4.5-1.1,6.9-1.1c1.8,0,3.6,0.2,5.3,0.6
		c1.6,0.3,3.1,1,4.4,2c1.3,1,2.3,2.3,3,3.7c0.8,1.8,1.3,3.8,1.2,5.8v26.9c-0.1,0.6,0.1,1.3,0.5,1.8c0.3,0.4,0.8,0.7,1.3,0.8
		c0.6,0.1,1.2,0.2,1.8,0.2c0.6,0,1.2-0.1,1.8-0.1v1.6h-2.5c-1.1,0-2.2-0.3-3.2-0.9c-0.9-0.6-1.4-1.6-1.4-3.2v-5.5h-0.2
		c-0.5,1.4-1.2,2.8-2.1,3.9c-1,1.3-2.2,2.4-3.6,3.4c-1.5,1-3.2,1.8-5,2.3c-2,0.6-4,0.9-6.1,0.9c-4.3,0-7.7-0.9-10.3-2.8
		c-2.6-1.9-3.9-4.7-3.9-8.5c-0.1-2.2,0.3-4.4,1.3-6.3c0.8-1.5,1.9-2.8,3.3-3.7c1.4-0.9,3-1.6,4.7-1.9c1.7-0.4,3.5-0.6,5.3-0.7
		l7.5-0.4c1.7-0.1,3.5-0.4,5.1-0.8c1.2-0.3,2.2-1,3-1.9c0.7-1.1,1-2.4,0.9-3.6c0-1.3-0.1-2.6-0.3-3.9c-0.2-1.4-0.8-2.7-1.6-3.8
		c-1-1.2-2.3-2.2-3.7-2.8c-2.1-0.8-4.4-1.2-6.6-1.1c-4.4,0-7.9,1.1-10.4,3.3s-3.8,5.2-4.1,9.1h-1.6
		C839.5,203.5,839.9,201.6,840.6,199.8z M867.6,209.7c-0.6,0.8-1.5,1.5-2.5,1.8c-1.3,0.4-2.6,0.8-3.9,0.9c-1.6,0.2-3.2,0.4-4.8,0.4
		c-1.7,0.1-3.4,0.1-5,0.3c-1.6,0.1-3.2,0.3-4.8,0.6c-1.5,0.3-2.9,0.8-4.2,1.6c-1.2,0.8-2.2,2-2.9,3.3c-0.8,1.7-1.1,3.6-1.1,5.5
		c0,1.2,0.2,2.4,0.6,3.6c0.4,1.2,1.2,2.3,2.1,3.1c1.1,1,2.4,1.7,3.8,2.2c1.9,0.6,3.8,0.9,5.8,0.9c2.5,0,5-0.4,7.3-1.4
		c2-0.8,3.8-2.1,5.4-3.6c1.4-1.5,2.6-3.3,3.3-5.2c0.7-1.9,1.1-4,1.1-6.1v-7.8L867.6,209.7z"/>
	<path class="st1" d="M897.1,192.3v10.4h0.2c0.4-1.6,1-3.1,1.8-4.5c0.8-1.4,1.8-2.6,3-3.6c1.2-1,2.5-1.8,4-2.4
		c1.5-0.6,3.1-0.9,4.6-0.9c3-0.2,5.9,0.7,8.3,2.5c2.3,1.9,3.8,4.5,4.4,7.4h0.2c0.8-2.9,2.5-5.4,4.8-7.1c2.5-1.8,5.5-2.8,8.5-2.7
		c2.2-0.1,4.4,0.3,6.4,1.1c1.6,0.7,3,1.8,4.1,3.2c1.1,1.4,1.8,3.1,2.2,4.9c0.5,2.1,0.7,4.2,0.7,6.3v27.8h-1.6v-27.8
		c0-1.9-0.2-3.8-0.5-5.7c-0.3-1.6-1-3.1-1.9-4.4c-0.9-1.2-2.2-2.2-3.6-2.8c-1.8-0.7-3.8-1.1-5.7-1c-3.7-0.1-7.3,1.6-9.7,4.4
		c-1.2,1.4-2.1,3-2.6,4.7c-0.6,1.8-0.9,3.7-0.9,5.6v26.8H922v-27.1c0-1.9-0.1-3.7-0.5-5.6c-0.3-1.6-0.8-3.2-1.7-4.6
		c-0.8-1.3-2-2.4-3.5-3.1c-1.8-0.8-3.8-1.2-5.8-1.1c-2,0-3.9,0.5-5.7,1.4c-1.7,1-3.2,2.3-4.3,3.9c-1.2,1.7-2.1,3.6-2.7,5.6
		c-0.6,2.2-1,4.5-1,6.7v23.9h-1.6v-42.2H897.1z"/>
	<path class="st1" d="M1052.7,234.6h-37.6c-0.1-2.2,0.4-4.4,1.5-6.4c1.1-2,2.5-3.8,4.1-5.4c1.8-1.7,3.7-3.3,5.7-4.8l6.3-4.5
		c2.1-1.5,4.2-3,6.3-4.5c1.9-1.5,3.7-3.1,5.4-4.8c1.5-1.6,2.8-3.4,3.8-5.3c1.8-3.7,1.9-8.1,0.3-11.9c-0.8-1.6-1.9-3.1-3.3-4.2
		c-1.4-1.2-3.1-2-4.9-2.6c-2-0.6-4.1-0.9-6.2-0.9c-2.6-0.1-5.1,0.4-7.5,1.3c-2,0.8-3.7,2-5.1,3.6c-1.4,1.6-2.3,3.5-2.9,5.6
		c-0.6,2.3-0.9,4.7-0.9,7.1h-1.6c0.1-6.1,1.6-10.9,4.6-14.3s7.5-5,13.4-5.1c2.3,0,4.6,0.3,6.7,0.9c2,0.6,3.8,1.5,5.4,2.8
		c1.5,1.3,2.8,2.9,3.7,4.7c2.1,4.9,1.7,10.5-1.1,14.9c-1.7,2.6-3.8,5-6.2,7.1c-2.6,2.2-5.3,4.3-8.1,6.2c-2.9,1.9-5.6,3.9-8.2,5.8
		c-2.4,1.8-4.6,3.8-6.5,6c-1.7,1.8-2.7,4.2-3,6.7h36L1052.7,234.6z"/>
	<path class="st1" d="M1115.6,217c-0.6,3.3-1.8,6.4-3.5,9.3c-1.6,2.7-3.8,5-6.5,6.6c-6.3,3.3-13.9,3.3-20.2,0
		c-2.7-1.6-4.9-3.9-6.5-6.6c-1.7-2.9-2.9-6-3.5-9.3c-1.4-6.9-1.4-14,0-20.9c0.6-3.3,1.8-6.4,3.5-9.3c1.6-2.7,3.9-5,6.5-6.7
		c6.3-3.4,13.9-3.4,20.2,0c2.7,1.7,4.9,4,6.5,6.7c1.7,2.9,2.9,6,3.5,9.3C1117,203,1117,210.1,1115.6,217z M1114.1,197
		c-0.5-3.1-1.6-6.1-3.1-8.8c-1.5-2.6-3.5-4.8-6-6.4c-5.9-3.4-13.1-3.4-19,0c-2.5,1.6-4.5,3.9-6,6.4c-1.5,2.7-2.6,5.7-3.1,8.8
		c-1.2,6.3-1.2,12.8,0,19.1c0.5,3.1,1.6,6.1,3.1,8.8c1.5,2.6,3.5,4.8,6,6.4c5.9,3.4,13.1,3.4,19,0c2.5-1.6,4.5-3.9,6-6.4
		c1.5-2.7,2.6-5.7,3.1-8.8C1115.3,209.8,1115.3,203.3,1114.1,197z"/>
	<path class="st1" d="M1159.1,180.8c-1.8,2.4-4,4.5-6.6,6.1c-2.5,1.7-5.3,2.9-8.3,3.7V189c1.6-0.5,3.1-1.1,4.5-1.8
		c1.3-0.6,2.5-1.4,3.7-2.2c1.2-0.8,2.3-1.8,3.3-2.8c1.1-1,2.2-2.2,3.3-3.5h1.8v55.9h-1.6v-53.7H1159.1z"/>
	<path class="st1" d="M1236.2,208.5c2.6,2.8,4,6.6,3.8,10.4c0.1,2.6-0.5,5.2-1.6,7.5c-1.1,2-2.6,3.8-4.4,5.1c-1.9,1.4-4.1,2.4-6.4,3
		c-5.1,1.3-10.5,1.3-15.6,0c-2.3-0.6-4.5-1.6-6.4-3c-1.8-1.4-3.3-3.1-4.4-5.1c-1.1-2.3-1.7-4.9-1.6-7.5c-0.2-3.8,1.2-7.6,3.8-10.4
		c2.6-2.7,6-4.2,10.5-4.6v-0.2c-1.6-0.2-3.1-0.7-4.5-1.4c-1.3-0.6-2.6-1.5-3.7-2.6c-1-1-1.9-2.2-2.5-3.6c-0.6-1.4-0.9-2.9-0.9-4.4
		c-0.1-2.2,0.4-4.4,1.4-6.4c0.9-1.7,2.2-3.3,3.7-4.4c1.7-1.2,3.6-2,5.6-2.5c4.5-1,9.1-1,13.6,0c2,0.5,3.9,1.3,5.6,2.5
		c1.6,1.1,2.9,2.7,3.7,4.4c1,2,1.4,4.2,1.4,6.4c0,1.5-0.3,3-0.9,4.4c-0.6,1.3-1.4,2.6-2.5,3.6c-1.1,1-2.3,1.9-3.7,2.6
		c-1.4,0.7-2.9,1.1-4.5,1.4v0.2C1230.2,204.3,1233.7,205.9,1236.2,208.5z M1236.8,212.2c-1-1.8-2.4-3.3-4.2-4.4
		c-1.8-1.1-3.9-1.9-6-2.3c-4.6-0.9-9.4-0.9-14,0c-2.1,0.4-4.2,1.2-6,2.3c-1.7,1.1-3.1,2.6-4.2,4.4c-1.1,2.1-1.6,4.4-1.6,6.7
		c-0.1,2.4,0.5,4.7,1.5,6.9c1,1.8,2.4,3.4,4.1,4.6c1.8,1.2,3.9,2.1,6,2.6c4.6,1.1,9.5,1.1,14.1,0c2.1-0.5,4.2-1.4,6-2.6
		c1.7-1.2,3.1-2.8,4.1-4.6c1.1-2.1,1.6-4.5,1.5-6.9C1238.5,216.6,1237.9,214.3,1236.8,212.2z M1234.2,185.8
		c-0.9-1.5-2.1-2.9-3.6-3.8c-1.5-1-3.3-1.7-5.1-2.1c-3.9-0.8-7.9-0.8-11.8,0c-1.8,0.4-3.5,1.1-5,2.1c-1.5,1-2.7,2.3-3.6,3.8
		c-1,1.8-1.4,3.9-1.3,6c0,1.8,0.5,3.6,1.4,5.1c1,1.4,2.2,2.6,3.7,3.5c1.6,0.9,3.3,1.6,5.1,2c3.7,0.9,7.6,0.9,11.3,0
		c1.8-0.4,3.5-1.1,5.1-2c1.5-0.9,2.7-2.1,3.7-3.5c1-1.5,1.5-3.3,1.4-5.1C1235.7,189.7,1235.2,187.7,1234.2,185.8L1234.2,185.8z"/>
</g>
</svg>
