<svg xmlns="http://www.w3.org/2000/svg" xmlns:xlink="http://www.w3.org/1999/xlink" viewBox="0 0 1500 1000"><defs><linearGradient id="linear-gradient" x1="33.3" y1="-42.51" x2="1510.86" y2="1075.3" gradientUnits="userSpaceOnUse"><stop offset="0.02" stop-color="aqua"/><stop offset="0.03" stop-color="#00f8fa"/><stop offset="0.14" stop-color="#00c1d5"/><stop offset="0.25" stop-color="#0093b6"/><stop offset="0.35" stop-color="#006f9e"/><stop offset="0.45" stop-color="#00558c"/><stop offset="0.53" stop-color="#004582"/><stop offset="0.6" stop-color="#00407e"/><stop offset="0.63" stop-color="#003b77"/><stop offset="0.79" stop-color="#001e4e"/><stop offset="0.92" stop-color="#000d35"/><stop offset="1" stop-color="#00062c"/></linearGradient></defs><title>BCJ2019_TOP_OL</title><g id="レイヤー_2" data-name="レイヤー 2"><rect x="0.1" y="1.37" width="1499.85" height="996.68" style="fill:url(#linear-gradient)"/><path d="M898.38,132.78H885.25a4.43,4.43,0,0,1,.51-2.24,7.62,7.62,0,0,1,1.44-1.87,15.82,15.82,0,0,1,2-1.67l2.19-1.56c.75-.52,1.48-1,2.18-1.58a14.88,14.88,0,0,0,1.9-1.68,7.77,7.77,0,0,0,1.33-1.86,4.71,4.71,0,0,0,.5-2.14,4.76,4.76,0,0,0-.41-2,4.22,4.22,0,0,0-1.14-1.46,4.83,4.83,0,0,0-1.7-.89,7.44,7.44,0,0,0-2.17-.3,6.66,6.66,0,0,0-2.61.46,4.66,4.66,0,0,0-1.78,1.27,5.16,5.16,0,0,0-1,2,9.3,9.3,0,0,0-.32,2.48h-.57a7.35,7.35,0,0,1,1.59-5,5.93,5.93,0,0,1,4.69-1.77,8,8,0,0,1,2.35.33,5.46,5.46,0,0,1,1.9,1,4.8,4.8,0,0,1,1.27,1.64,5.12,5.12,0,0,1,.48,2.29,5.22,5.22,0,0,1-.87,2.93,11.78,11.78,0,0,1-2.16,2.46,26.08,26.08,0,0,1-2.83,2.17q-1.51,1-2.85,2a15,15,0,0,0-2.28,2.09,4.09,4.09,0,0,0-1.06,2.34h12.56Z" style="fill:#fff"/><path d="M918,126.67a9.82,9.82,0,0,1-1.22,3.24,6.75,6.75,0,0,1-2.26,2.31,6.75,6.75,0,0,1-9.32-2.31,9.82,9.82,0,0,1-1.22-3.24,18.58,18.58,0,0,1,0-7.28,9.82,9.82,0,0,1,1.22-3.24,6.87,6.87,0,0,1,2.28-2.33,7.41,7.41,0,0,1,7,0,7,7,0,0,1,2.26,2.33,9.82,9.82,0,0,1,1.22,3.24,18.58,18.58,0,0,1,0,7.28Zm-.53-7a9.83,9.83,0,0,0-1.09-3.07,6.69,6.69,0,0,0-2.08-2.25,6.73,6.73,0,0,0-6.62,0,6.59,6.59,0,0,0-2.08,2.25,9.83,9.83,0,0,0-1.09,3.07,17.49,17.49,0,0,0,0,6.66,9.77,9.77,0,0,0,1.09,3.06,6.53,6.53,0,0,0,2.08,2.26,6.73,6.73,0,0,0,6.62,0,6.63,6.63,0,0,0,2.08-2.26,9.77,9.77,0,0,0,1.09-3.06,17.49,17.49,0,0,0,0-6.66Z" style="fill:#fff"/><path d="M930.93,114a8.07,8.07,0,0,1-2.31,2.14,10.58,10.58,0,0,1-2.88,1.31v-.58a11.3,11.3,0,0,0,1.58-.63,10.22,10.22,0,0,0,1.29-.77,9.57,9.57,0,0,0,1.16-1c.37-.36.76-.77,1.16-1.23h.63v19.5H931V114Z" style="fill:#fff"/><path d="M944.77,130.36a5.13,5.13,0,0,0,1.39,1.33,4.93,4.93,0,0,0,1.62.67,7.06,7.06,0,0,0,1.57.19,6,6,0,0,0,2.53-.5,5.69,5.69,0,0,0,1.84-1.36,7.41,7.41,0,0,0,1.23-2,13.14,13.14,0,0,0,.75-2.35,17.65,17.65,0,0,0,.36-2.48c.05-.84.07-1.63.05-2.37h-.05a6,6,0,0,1-.81,1.92,6.36,6.36,0,0,1-1.42,1.56,6.52,6.52,0,0,1-1.9,1.05,6.79,6.79,0,0,1-4.72-.11,7,7,0,0,1-2.17-1.38,6.92,6.92,0,0,1-1.52-2.14,6.49,6.49,0,0,1-.57-2.74,6.63,6.63,0,0,1,.54-2.69,6.88,6.88,0,0,1,1.48-2.14,6.71,6.71,0,0,1,2.15-1.4,6.62,6.62,0,0,1,2.57-.51,6.38,6.38,0,0,1,1.88.28,7.16,7.16,0,0,1,1.59.7,7.42,7.42,0,0,1,1.28,1,7.17,7.17,0,0,1,.93,1.12,7.09,7.09,0,0,1,1.09,2.94,26.21,26.21,0,0,1,.23,3.54,20.53,20.53,0,0,1-.35,3.72,11,11,0,0,1-1.19,3.41,7.27,7.27,0,0,1-2.26,2.51,6.18,6.18,0,0,1-3.57,1,6.78,6.78,0,0,1-2.31-.38,5.67,5.67,0,0,1-1.82-1,5.48,5.48,0,0,1-1.27-1.56,5.89,5.89,0,0,1-.63-1.94h.58A5.75,5.75,0,0,0,944.77,130.36Zm10.6-13.1a6.58,6.58,0,0,0-1.32-2A6.37,6.37,0,0,0,952.1,114a6.17,6.17,0,0,0-4.82,0,6.25,6.25,0,0,0-1.95,1.31,6.58,6.58,0,0,0-1.32,2,6.17,6.17,0,0,0,0,4.82,6.33,6.33,0,0,0,1.32,2,6.11,6.11,0,0,0,1.95,1.32,6.17,6.17,0,0,0,4.82,0,6.22,6.22,0,0,0,1.95-1.32,6.33,6.33,0,0,0,1.32-2,6.17,6.17,0,0,0,0-4.82Z" style="fill:#fff"/><path d="M964.92,132.78V130h.57v2.81Z" style="fill:#fff"/><path d="M981.12,114a8.07,8.07,0,0,1-2.31,2.14,10.58,10.58,0,0,1-2.88,1.31v-.58a11.3,11.3,0,0,0,1.58-.63,10.22,10.22,0,0,0,1.29-.77,9.57,9.57,0,0,0,1.16-1c.37-.36.76-.77,1.16-1.23h.63v19.5h-.57V114Z" style="fill:#fff"/><path d="M1000.51,114a8.07,8.07,0,0,1-2.31,2.14,10.86,10.86,0,0,1-2.88,1.31v-.58a11.3,11.3,0,0,0,1.58-.63,10.22,10.22,0,0,0,1.29-.77,10.4,10.4,0,0,0,1.16-1c.37-.36.76-.77,1.16-1.23h.63v19.5h-.57V114Z" style="fill:#fff"/><path d="M1015.11,132.78V130h.57v2.81Z" style="fill:#fff"/><path d="M1031.31,114a8.07,8.07,0,0,1-2.31,2.14,10.58,10.58,0,0,1-2.88,1.31v-.58a11.3,11.3,0,0,0,1.58-.63,10.22,10.22,0,0,0,1.29-.77,9.57,9.57,0,0,0,1.16-1c.37-.36.76-.77,1.16-1.23h.63v19.5h-.57V114Z" style="fill:#fff"/><path d="M1044,113.28h12.45v.77a45.32,45.32,0,0,0-3.62,4.07,26.88,26.88,0,0,0-2.78,4.38,23.15,23.15,0,0,0-1.78,4.82,22.59,22.59,0,0,0-.63,5.46H1047a22.44,22.44,0,0,1,.59-5.45,23.27,23.27,0,0,1,1.77-4.92,28.14,28.14,0,0,1,2.79-4.46,41.43,41.43,0,0,1,3.6-4.1H1044Z" style="fill:#fff"/><path d="M1087.65,115.39a4.87,4.87,0,0,0-1.4-1.75,5.45,5.45,0,0,0-2.08-1,11.2,11.2,0,0,0-2.58-.29,12.22,12.22,0,0,0-2.21.21,6.62,6.62,0,0,0-2.08.76,4.71,4.71,0,0,0-1.53,1.45,4,4,0,0,0-.61,2.28,3.62,3.62,0,0,0,.62,2.21,4.69,4.69,0,0,0,1.6,1.35,9.38,9.38,0,0,0,2.26.8l2.58.6,2.71.72a8.66,8.66,0,0,1,2.22.92,4.39,4.39,0,0,1,1.51,1.52,5,5,0,0,1,.56,2.55,4.71,4.71,0,0,1-.64,2.5,5.38,5.38,0,0,1-1.66,1.7,7.19,7.19,0,0,1-2.32,1,11.49,11.49,0,0,1-2.61.3,12.21,12.21,0,0,1-3.23-.4,6.81,6.81,0,0,1-2.55-1.28,5.66,5.66,0,0,1-1.66-2.25A8,8,0,0,1,1074,126h.57a7.85,7.85,0,0,0,.55,3.12,5.2,5.2,0,0,0,1.53,2.07,6.11,6.11,0,0,0,2.35,1.17,11.76,11.76,0,0,0,3,.35,10.75,10.75,0,0,0,2.39-.27,6.69,6.69,0,0,0,2.14-.87,4.82,4.82,0,0,0,1.53-1.55,4.15,4.15,0,0,0,.59-2.27,4,4,0,0,0-.67-2.45,4.8,4.8,0,0,0-1.72-1.43,9.55,9.55,0,0,0-2.33-.81c-.85-.18-1.66-.36-2.45-.56s-1.64-.39-2.46-.6a9.09,9.09,0,0,1-2.23-.87,4.55,4.55,0,0,1-1.59-1.49,4.42,4.42,0,0,1-.6-2.43,4.76,4.76,0,0,1,.63-2.54,5,5,0,0,1,1.64-1.62,7.21,7.21,0,0,1,2.25-.86,12.28,12.28,0,0,1,2.48-.25,11.12,11.12,0,0,1,2.79.33,6.19,6.19,0,0,1,2.24,1.06,5.06,5.06,0,0,1,1.53,1.92,7.26,7.26,0,0,1,.66,2.91h-.57A6.4,6.4,0,0,0,1087.65,115.39Z" style="fill:#fff"/><path d="M1110.55,112.3v12.85q0,4.13-1.92,6.11a8.88,8.88,0,0,1-11.18,0q-1.92-2-1.92-6.11V112.3h.57v12.85a8.24,8.24,0,0,0,1.69,5.62q1.7,1.92,5.25,1.92t5.25-1.92a8.24,8.24,0,0,0,1.69-5.62V112.3Z" style="fill:#fff"/><path d="M1118,112.3l14,19.76h0V112.3h.58v20.48h-.86l-14-19.76h0v19.76h-.58V112.3Z" style="fill:#fff"/><path d="M1158.16,111.82h.57l-9.37,21.42h-.55Z" style="fill:#fff"/><path d="M1172.93,112.3h15.29v.58h-7.37v19.9h-.58v-19.9h-7.34Z" style="fill:#fff"/><path d="M1192.4,122.5a7.43,7.43,0,0,1,1.28-2.45,6.41,6.41,0,0,1,2.08-1.71,6.59,6.59,0,0,1,5.71,0,6.51,6.51,0,0,1,2.08,1.71,7.23,7.23,0,0,1,1.27,2.45,10.06,10.06,0,0,1,0,5.82,7.23,7.23,0,0,1-1.27,2.45,6.33,6.33,0,0,1-2.08,1.69,6.13,6.13,0,0,1-2.87.64,6,6,0,0,1-2.84-.64,6.23,6.23,0,0,1-2.08-1.69,7.43,7.43,0,0,1-1.28-2.45,10.06,10.06,0,0,1,0-5.82Zm.53,5.61a6.84,6.84,0,0,0,1.17,2.28,5.54,5.54,0,0,0,4.53,2.16,5.55,5.55,0,0,0,2.59-.59,5.71,5.71,0,0,0,1.91-1.57,6.82,6.82,0,0,0,1.16-2.28,9.28,9.28,0,0,0,.39-2.7,9.18,9.18,0,0,0-.39-2.67,6.82,6.82,0,0,0-1.16-2.28,5.89,5.89,0,0,0-1.91-1.59,5.44,5.44,0,0,0-2.59-.6,5.55,5.55,0,0,0-2.63.6,5.86,5.86,0,0,0-1.9,1.59,6.84,6.84,0,0,0-1.17,2.28,9.52,9.52,0,0,0-.38,2.67A9.63,9.63,0,0,0,1192.93,128.11Z" style="fill:#fff"/><path d="M1211.65,132.78h-.58V112.3h.58v14.2l10.18-8.46h.83l-6.77,5.62,7.26,9.12h-.77l-6.92-8.72-3.81,3.16Z" style="fill:#fff"/><path d="M1237.69,118l-6.8,17.72a3.27,3.27,0,0,1-.69,1.16,2.43,2.43,0,0,1-.89.62,3.57,3.57,0,0,1-1.07.25c-.39,0-.81,0-1.25,0v-.58c.5,0,.92,0,1.28,0a2.54,2.54,0,0,0,.92-.23,1.91,1.91,0,0,0,.68-.57,4.23,4.23,0,0,0,.56-1l1.06-2.72-6.13-14.6h.6l5.85,14,5.28-14Z" style="fill:#fff"/><path d="M1242,122.5a7.41,7.41,0,0,1,1.27-2.45,6.45,6.45,0,0,1,2.09-1.71,6.57,6.57,0,0,1,5.7,0,6.41,6.41,0,0,1,2.08,1.71,7.43,7.43,0,0,1,1.28,2.45,10.06,10.06,0,0,1,0,5.82,7.43,7.43,0,0,1-1.28,2.45,6.23,6.23,0,0,1-2.08,1.69,6.1,6.1,0,0,1-2.87.64,6,6,0,0,1-2.83-.64,6.26,6.26,0,0,1-2.09-1.69,7.41,7.41,0,0,1-1.27-2.45,10.06,10.06,0,0,1,0-5.82Zm.53,5.61a7,7,0,0,0,1.16,2.28,5.71,5.71,0,0,0,1.91,1.57,6.07,6.07,0,0,0,5.22,0,5.81,5.81,0,0,0,1.91-1.57,7,7,0,0,0,1.16-2.28,9.27,9.27,0,0,0,.38-2.7,9.17,9.17,0,0,0-.38-2.67,7,7,0,0,0-1.16-2.28,6,6,0,0,0-1.91-1.59,6,6,0,0,0-5.22,0,5.89,5.89,0,0,0-1.91,1.59,7,7,0,0,0-1.16,2.28,9.18,9.18,0,0,0-.39,2.67A9.28,9.28,0,0,0,1242.55,128.11Z" style="fill:#fff"/><path d="M381.09,533.24a1.63,1.63,0,0,0-.76.71,5.83,5.83,0,0,0-.45,1.08,5.22,5.22,0,0,0-.21,1.18c0,.41-.05.75-.05,1h.91v4.44h-2.2v-4.44a10.76,10.76,0,0,1,.13-1.71,6.19,6.19,0,0,1,.45-1.57,4.41,4.41,0,0,1,.86-1.29,3.66,3.66,0,0,1,1.32-.87Zm5.43,0a1.56,1.56,0,0,0-.75.71,5.24,5.24,0,0,0-.46,1.08,5.84,5.84,0,0,0-.21,1.18c0,.41-.05.75-.05,1H386v4.44h-2.2v-4.44a10.76,10.76,0,0,1,.13-1.71,6.63,6.63,0,0,1,.45-1.57,4.44,4.44,0,0,1,.87-1.29,3.54,3.54,0,0,1,1.31-.87Z" style="fill:#fff"/><path d="M394.58,533.45v-1.64h23.59v1.64H407.3V562.6h-1.89V533.45Z" style="fill:#fff"/><path d="M427.65,531.81v13.37h.09A7.28,7.28,0,0,1,429,543a8.13,8.13,0,0,1,1.85-1.66,8.28,8.28,0,0,1,2.31-1,9.49,9.49,0,0,1,2.54-.35,10.2,10.2,0,0,1,3.3.47,6.55,6.55,0,0,1,2.22,1.25,6,6,0,0,1,1.36,1.75,8,8,0,0,1,.71,2,11,11,0,0,1,.26,1.92c0,.62,0,1.16,0,1.62V562.6h-1.63v-14c0-.55-.05-1.24-.13-2.07a6.35,6.35,0,0,0-.76-2.4,5.59,5.59,0,0,0-1.89-2,6.52,6.52,0,0,0-3.52-.82,7.82,7.82,0,0,0-3.36.69,7.25,7.25,0,0,0-2.5,1.92,8.52,8.52,0,0,0-1.58,2.93,12.32,12.32,0,0,0-.54,3.73v12H426V531.81Z" style="fill:#fff"/><path d="M455,551.73V552a13.3,13.3,0,0,0,.52,3.71,9.53,9.53,0,0,0,1.54,3.11,7.28,7.28,0,0,0,2.55,2.11,7.76,7.76,0,0,0,3.57.77,7.63,7.63,0,0,0,5.27-1.74,9.13,9.13,0,0,0,2.68-4.85h1.64a10,10,0,0,1-3.17,5.95,9.63,9.63,0,0,1-6.45,2.07,9.75,9.75,0,0,1-4.29-.89,8.75,8.75,0,0,1-3.06-2.41A10.22,10.22,0,0,1,454,556.2a16.33,16.33,0,0,1-.6-4.51,15.66,15.66,0,0,1,.62-4.46,11.21,11.21,0,0,1,1.88-3.75,9.26,9.26,0,0,1,3.12-2.59,10.43,10.43,0,0,1,8.54-.11,8.79,8.79,0,0,1,3,2.35,10.55,10.55,0,0,1,1.83,3.45,14,14,0,0,1,.62,4.21,4.35,4.35,0,0,1,0,.49c0,.19,0,.34,0,.45Zm16.3-1.42a13.6,13.6,0,0,0-.6-3.43,8.58,8.58,0,0,0-1.54-2.84,7.6,7.6,0,0,0-2.46-2,7.23,7.23,0,0,0-3.31-.74,7.67,7.67,0,0,0-3.5.76,7.82,7.82,0,0,0-2.55,2,8.83,8.83,0,0,0-1.6,2.87,12.88,12.88,0,0,0-.69,3.36Z" style="fill:#fff"/><path d="M501.17,531.81h10.09a16.15,16.15,0,0,1,6.88,1.3,11.55,11.55,0,0,1,4.37,3.45,13.08,13.08,0,0,1,2.31,4.91,23.88,23.88,0,0,1,.67,5.69,21.38,21.38,0,0,1-.84,6.11,13.23,13.23,0,0,1-2.61,4.89,12.29,12.29,0,0,1-4.46,3.25,15.71,15.71,0,0,1-6.41,1.19h-10ZM511.35,561a14.57,14.57,0,0,0,4.33-.67,10.36,10.36,0,0,0,3.94-2.24,11.37,11.37,0,0,0,2.87-4.22,17.58,17.58,0,0,0,1.1-6.67,20.64,20.64,0,0,0-.62-5.39,13.55,13.55,0,0,0-1.64-3.77,8.53,8.53,0,0,0-2.33-2.41,11.17,11.17,0,0,0-2.72-1.36,12.83,12.83,0,0,0-2.8-.63,23.78,23.78,0,0,0-2.52-.15h-7.89V561Z" style="fill:#fff"/><path d="M550.37,558.2h-.09a6.88,6.88,0,0,1-1.12,1.88,8,8,0,0,1-1.79,1.57,8.84,8.84,0,0,1-2.39,1.08,10.46,10.46,0,0,1-2.94.39,8.64,8.64,0,0,1-5.47-1.53,5.66,5.66,0,0,1-1.94-4.72,5.5,5.5,0,0,1,2.74-5.11,8.19,8.19,0,0,1,2.63-1,26.92,26.92,0,0,1,2.78-.43l2.54-.21a15.86,15.86,0,0,0,2.78-.41,3.54,3.54,0,0,0,1.53-.78,2.19,2.19,0,0,0,.65-1.27,11.75,11.75,0,0,0,.13-1.94,4,4,0,0,0-.35-1.68,3.69,3.69,0,0,0-1.07-1.38,5.21,5.21,0,0,0-1.9-.95,10.12,10.12,0,0,0-2.85-.35,7.43,7.43,0,0,0-4.8,1.47,5.8,5.8,0,0,0-2,4.44h-1.64a7.29,7.29,0,0,1,2.35-5.5,9.37,9.37,0,0,1,6.19-1.83c2.67,0,4.62.53,5.84,1.57a5.19,5.19,0,0,1,1.84,4.12V558.5c0,.32,0,.64,0,1a2.81,2.81,0,0,0,.15.86,1.28,1.28,0,0,0,.43.63,1.35,1.35,0,0,0,.86.24,8.8,8.8,0,0,0,1.21-.13v1.38a5.41,5.41,0,0,1-1.34.17,4,4,0,0,1-1.57-.26,2,2,0,0,1-.89-.69,2.69,2.69,0,0,1-.41-1,7.19,7.19,0,0,1-.1-1.27Zm0-8.19a3.13,3.13,0,0,1-1.84,1,24.19,24.19,0,0,1-2.73.39l-2.76.26c-.81.08-1.61.21-2.42.36a7.11,7.11,0,0,0-2.17.8,4.54,4.54,0,0,0-1.58,1.53,4.76,4.76,0,0,0-.6,2.53,4.31,4.31,0,0,0,1.55,3.64,6.88,6.88,0,0,0,4.27,1.18,8.34,8.34,0,0,0,4.44-1,7.74,7.74,0,0,0,2.5-2.33,7,7,0,0,0,1.1-2.54,10.7,10.7,0,0,0,.24-1.66Z" style="fill:#fff"/><path d="M560.59,540.44h1.94l8.23,20.22,7.59-20.22h1.86L570.72,565c-.46,1.09-.89,2-1.27,2.83a4.79,4.79,0,0,1-1.32,1.74,4,4,0,0,1-2,.84,25.9,25.9,0,0,1-3.12.15v-1.42a10.48,10.48,0,0,0,2.76-.28,4.31,4.31,0,0,0,1.85-1.14,5.41,5.41,0,0,0,1-1.75c.35-.85.78-2,1.3-3.47Z" style="fill:#fff"/><path d="M612,560.7h.09l6-20.26h2.19l6.08,20.26h.09l6.21-20.26h1.81l-7.11,22.16h-2l-6.08-20.09h-.09l-6.12,20.09H611l-7-22.16h1.77Z" style="fill:#fff"/><path d="M644.49,531.81v13.37h.09a7.28,7.28,0,0,1,1.23-2.22,8.07,8.07,0,0,1,4.16-2.69,9.49,9.49,0,0,1,2.54-.35,10.2,10.2,0,0,1,3.3.47,6.55,6.55,0,0,1,2.22,1.25,6,6,0,0,1,1.36,1.75,8,8,0,0,1,.71,2,12.09,12.09,0,0,1,.26,1.92c0,.62,0,1.16,0,1.62V562.6h-1.64v-14a19.64,19.64,0,0,0-.13-2.07,6.17,6.17,0,0,0-.75-2.4,5.54,5.54,0,0,0-1.9-2,6.51,6.51,0,0,0-3.51-.82,7.76,7.76,0,0,0-3.36.69,7.16,7.16,0,0,0-2.5,1.92,8.52,8.52,0,0,0-1.58,2.93,12.32,12.32,0,0,0-.54,3.73v12h-1.64V531.81Z" style="fill:#fff"/><path d="M671.87,551.73V552a12.94,12.94,0,0,0,.52,3.71,9.53,9.53,0,0,0,1.54,3.11,7.19,7.19,0,0,0,2.55,2.11,7.74,7.74,0,0,0,3.56.77,7.64,7.64,0,0,0,5.28-1.74A9.13,9.13,0,0,0,688,555.1h1.64a10,10,0,0,1-3.17,5.95,9.63,9.63,0,0,1-6.45,2.07,9.75,9.75,0,0,1-4.29-.89,8.75,8.75,0,0,1-3.06-2.41,10.22,10.22,0,0,1-1.83-3.62,16,16,0,0,1-.61-4.51,15.66,15.66,0,0,1,.63-4.46,11.38,11.38,0,0,1,1.87-3.75,9.94,9.94,0,0,1,11.67-2.7,8.66,8.66,0,0,1,3,2.35,10.39,10.39,0,0,1,1.84,3.45,14,14,0,0,1,.62,4.21,4.35,4.35,0,0,1,0,.49c0,.19,0,.34,0,.45Zm16.3-1.42a13.6,13.6,0,0,0-.6-3.43A8.58,8.58,0,0,0,686,544a7.7,7.7,0,0,0-2.46-2,7.23,7.23,0,0,0-3.31-.74,7.64,7.64,0,0,0-3.5.76,7.82,7.82,0,0,0-2.55,2,8.65,8.65,0,0,0-1.6,2.87,12.88,12.88,0,0,0-.69,3.36Z" style="fill:#fff"/><path d="M701.32,545.35h.13a5.36,5.36,0,0,1,1.1-2,7.57,7.57,0,0,1,1.94-1.64,9.71,9.71,0,0,1,2.55-1.06,10.36,10.36,0,0,1,2.91-.32V542a7.63,7.63,0,0,0-3,.26,7.15,7.15,0,0,0-3.17,1.89,15.5,15.5,0,0,0-1.05,1.25,5.88,5.88,0,0,0-.76,1.34,8.12,8.12,0,0,0-.47,1.64,13.73,13.73,0,0,0-.22,2.15V562.6h-1.64V540.44h1.64Z" style="fill:#fff"/><path d="M718.31,551.73V552a12.94,12.94,0,0,0,.52,3.71,9.52,9.52,0,0,0,1.53,3.11,7.37,7.37,0,0,0,2.55,2.11,7.82,7.82,0,0,0,3.57.77,7.64,7.64,0,0,0,5.28-1.74,9.2,9.2,0,0,0,2.68-4.85h1.63a9.9,9.9,0,0,1-3.16,5.95,9.64,9.64,0,0,1-6.45,2.07,9.75,9.75,0,0,1-4.29-.89,8.75,8.75,0,0,1-3.06-2.41,10.22,10.22,0,0,1-1.83-3.62,16,16,0,0,1-.61-4.51,15.66,15.66,0,0,1,.63-4.46,11.19,11.19,0,0,1,1.87-3.75,9.94,9.94,0,0,1,11.67-2.7,8.66,8.66,0,0,1,3,2.35,10.39,10.39,0,0,1,1.84,3.45,14,14,0,0,1,.62,4.21c0,.14,0,.31,0,.49a4,4,0,0,0,0,.45Zm16.3-1.42a13.18,13.18,0,0,0-.61-3.43,8.38,8.38,0,0,0-1.53-2.84,7.64,7.64,0,0,0-2.47-2,7.16,7.16,0,0,0-3.3-.74,7.61,7.61,0,0,0-3.5.76,8,8,0,0,0-2.56,2A9,9,0,0,0,719,547a13.75,13.75,0,0,0-.69,3.36Z" style="fill:#fff"/><path d="M761.47,540.44h1.94l8.24,20.22,7.59-20.22h1.85L771.6,565c-.46,1.09-.88,2-1.27,2.83a4.89,4.89,0,0,1-1.31,1.74,4,4,0,0,1-2,.84,26,26,0,0,1-3.13.15v-1.42a10.48,10.48,0,0,0,2.76-.28,4.4,4.4,0,0,0,1.86-1.14,5.81,5.81,0,0,0,1-1.75c.34-.85.77-2,1.29-3.47Z" style="fill:#fff"/><path d="M788.29,551.52a14.41,14.41,0,0,1,.67-4.46,11.07,11.07,0,0,1,2-3.69,9.4,9.4,0,0,1,3.19-2.52,10.66,10.66,0,0,1,8.71,0,9.4,9.4,0,0,1,3.19,2.52,11.07,11.07,0,0,1,2,3.69,14.41,14.41,0,0,1,.67,4.46A14.63,14.63,0,0,1,808,556a10.88,10.88,0,0,1-2,3.69,9.47,9.47,0,0,1-3.19,2.5,10.66,10.66,0,0,1-8.71,0,9.47,9.47,0,0,1-3.19-2.5,10.88,10.88,0,0,1-2-3.69A14.63,14.63,0,0,1,788.29,551.52Zm1.64,0a13.06,13.06,0,0,0,.56,3.81,10.2,10.2,0,0,0,1.64,3.26,8,8,0,0,0,2.67,2.26,8.42,8.42,0,0,0,7.33,0,8,8,0,0,0,2.67-2.26,10.2,10.2,0,0,0,1.64-3.26,13.27,13.27,0,0,0,0-7.63,10.25,10.25,0,0,0-1.64-3.25,8,8,0,0,0-2.67-2.27,8.42,8.42,0,0,0-7.33,0,8,8,0,0,0-2.67,2.27,10.25,10.25,0,0,0-1.64,3.25A13.13,13.13,0,0,0,789.93,551.52Z" style="fill:#fff"/><path d="M836.06,562.6h-1.63v-4.74h-.09a7.28,7.28,0,0,1-1.23,2.22,8.37,8.37,0,0,1-1.85,1.66,8.28,8.28,0,0,1-2.31,1,9.49,9.49,0,0,1-2.54.35,9.91,9.91,0,0,1-3.3-.48,6.23,6.23,0,0,1-2.22-1.25,5.92,5.92,0,0,1-1.36-1.74,7.91,7.91,0,0,1-.71-2,11.06,11.06,0,0,1-.26-1.91c0-.62,0-1.16,0-1.62V540.44h1.64v14c0,.58.05,1.27.13,2.09a6.27,6.27,0,0,0,.76,2.37,5.47,5.47,0,0,0,1.87,2,6.51,6.51,0,0,0,3.54.81,7.86,7.86,0,0,0,3.34-.69,7.21,7.21,0,0,0,2.52-1.91,8.47,8.47,0,0,0,1.58-2.94,12.22,12.22,0,0,0,.54-3.73v-12h1.63Z" style="fill:#fff"/><path d="M883.23,540.44v21a14.9,14.9,0,0,1-.43,3.6,8,8,0,0,1-1.48,3.08,7.25,7.25,0,0,1-2.9,2.13,11.79,11.79,0,0,1-4.69.8,14,14,0,0,1-3.31-.37,7.83,7.83,0,0,1-2.71-1.16,6,6,0,0,1-1.88-2.11,7.6,7.6,0,0,1-.79-3.26h1.64a5.88,5.88,0,0,0,.73,2.5,5.36,5.36,0,0,0,1.57,1.71,7,7,0,0,0,2.18,1,10.76,10.76,0,0,0,2.59.3,9.27,9.27,0,0,0,3.81-.69,6.62,6.62,0,0,0,2.44-1.79,6.45,6.45,0,0,0,1.27-2.5,10.94,10.94,0,0,0,.37-2.83v-5.08h-.13a8.25,8.25,0,0,1-8,5,9.9,9.9,0,0,1-4.24-.84,8.23,8.23,0,0,1-3-2.33,10.24,10.24,0,0,1-1.76-3.47,15.18,15.18,0,0,1-.58-4.31,13.69,13.69,0,0,1,.63-4.18,10.19,10.19,0,0,1,1.83-3.47,8.68,8.68,0,0,1,3-2.38,9.71,9.71,0,0,1,9,.46,7.39,7.39,0,0,1,3.17,3.79h.09v-4.61Zm-9.7.9a7.22,7.22,0,0,0-3.51.82,7.53,7.53,0,0,0-2.46,2.16,9.65,9.65,0,0,0-1.47,3,12.33,12.33,0,0,0-.49,3.47,13.53,13.53,0,0,0,.49,3.69,8.94,8.94,0,0,0,1.51,3,7.33,7.33,0,0,0,5.93,2.8,7.63,7.63,0,0,0,3.54-.78,7.36,7.36,0,0,0,2.52-2.11,9.12,9.12,0,0,0,1.51-3,13.14,13.14,0,0,0,0-7.18,8.94,8.94,0,0,0-1.51-3,7.42,7.42,0,0,0-2.52-2.09A7.63,7.63,0,0,0,873.53,541.34Z" style="fill:#fff"/><path d="M894.75,551.73V552a12.94,12.94,0,0,0,.52,3.71,9.32,9.32,0,0,0,1.53,3.11,7.37,7.37,0,0,0,2.55,2.11,7.76,7.76,0,0,0,3.57.77,7.61,7.61,0,0,0,5.27-1.74,9.13,9.13,0,0,0,2.68-4.85h1.64a10,10,0,0,1-3.17,5.95,9.6,9.6,0,0,1-6.44,2.07,9.75,9.75,0,0,1-4.29-.89,8.7,8.7,0,0,1-3.07-2.41,10.22,10.22,0,0,1-1.83-3.62,16.33,16.33,0,0,1-.6-4.51,16,16,0,0,1,.62-4.46,11.21,11.21,0,0,1,1.88-3.75,9.26,9.26,0,0,1,3.12-2.59,10.43,10.43,0,0,1,8.54-.11,8.79,8.79,0,0,1,3,2.35,10.55,10.55,0,0,1,1.83,3.45,13.7,13.7,0,0,1,.63,4.21c0,.14,0,.31,0,.49s0,.34,0,.45ZM911,550.31a12.77,12.77,0,0,0-.6-3.43,8.74,8.74,0,0,0-1.53-2.84,7.64,7.64,0,0,0-2.47-2,7.23,7.23,0,0,0-3.31-.74,7.67,7.67,0,0,0-3.5.76,7.82,7.82,0,0,0-2.55,2,9,9,0,0,0-1.6,2.87,13.75,13.75,0,0,0-.69,3.36Z" style="fill:#fff"/><path d="M930.71,541.86h-4.83v15.48a6,6,0,0,0,.3,2.11,2.38,2.38,0,0,0,.93,1.19,3.21,3.21,0,0,0,1.51.49,14.62,14.62,0,0,0,2,0v1.42a15.13,15.13,0,0,1-2.43,0,4.85,4.85,0,0,1-2.09-.65,3.77,3.77,0,0,1-1.45-1.62,6,6,0,0,1-.45-3V541.86h-4.1v-1.42h4.1v-6.9h1.64v6.9h4.83Z" style="fill:#fff"/><path d="M965.93,541.86H961.1v15.48a5.73,5.73,0,0,0,.31,2.11,2.42,2.42,0,0,0,.92,1.19,3.25,3.25,0,0,0,1.51.49,14.76,14.76,0,0,0,2,0v1.42a15.25,15.25,0,0,1-2.44,0,4.89,4.89,0,0,1-2.09-.65,3.81,3.81,0,0,1-1.44-1.62,6.14,6.14,0,0,1-.46-3V541.86h-4.09v-1.42h4.09v-6.9h1.64v6.9h4.83Z" style="fill:#fff"/><path d="M974,551.52a14.41,14.41,0,0,1,.67-4.46,11.25,11.25,0,0,1,2-3.69,9.49,9.49,0,0,1,3.19-2.52,10.66,10.66,0,0,1,8.71,0,9.3,9.3,0,0,1,3.19,2.52,11.09,11.09,0,0,1,2,3.69,14.71,14.71,0,0,1,.66,4.46,14.94,14.94,0,0,1-.66,4.48,10.9,10.9,0,0,1-2,3.69,9.37,9.37,0,0,1-3.19,2.5,10.66,10.66,0,0,1-8.71,0,9.56,9.56,0,0,1-3.19-2.5,11.05,11.05,0,0,1-2-3.69A14.63,14.63,0,0,1,974,551.52Zm1.64,0a13.06,13.06,0,0,0,.56,3.81,10.41,10.41,0,0,0,1.64,3.26,8,8,0,0,0,2.67,2.26,8.42,8.42,0,0,0,7.33,0,7.92,7.92,0,0,0,2.68-2.26,10.41,10.41,0,0,0,1.64-3.26,13.27,13.27,0,0,0,0-7.63,10.47,10.47,0,0,0-1.64-3.25,8,8,0,0,0-2.68-2.27,8.42,8.42,0,0,0-7.33,0,8,8,0,0,0-2.67,2.27,10.47,10.47,0,0,0-1.64,3.25A13.13,13.13,0,0,0,975.59,551.52Z" style="fill:#fff"/><path d="M1030.35,541.86h-4.83v15.48a6,6,0,0,0,.3,2.11,2.38,2.38,0,0,0,.93,1.19,3.25,3.25,0,0,0,1.51.49,14.76,14.76,0,0,0,2,0v1.42a15.24,15.24,0,0,1-2.44,0,4.85,4.85,0,0,1-2.09-.65,3.83,3.83,0,0,1-1.45-1.62,6,6,0,0,1-.45-3V541.86h-4.09v-1.42h4.09v-6.9h1.64v6.9h4.83Z" style="fill:#fff"/><path d="M1054.11,558.2H1054a6.88,6.88,0,0,1-1.12,1.88,8,8,0,0,1-1.79,1.57,8.84,8.84,0,0,1-2.39,1.08,10.44,10.44,0,0,1-2.93.39,8.65,8.65,0,0,1-5.48-1.53,5.66,5.66,0,0,1-1.94-4.72,5.55,5.55,0,0,1,2.74-5.11,8.19,8.19,0,0,1,2.63-1,26.92,26.92,0,0,1,2.78-.43l2.54-.21a15.86,15.86,0,0,0,2.78-.41,3.64,3.64,0,0,0,1.54-.78,2.18,2.18,0,0,0,.64-1.27,11.75,11.75,0,0,0,.13-1.94,4,4,0,0,0-.34-1.68,3.72,3.72,0,0,0-1.08-1.38,5.21,5.21,0,0,0-1.9-.95,10.12,10.12,0,0,0-2.85-.35,7.43,7.43,0,0,0-4.8,1.47,5.84,5.84,0,0,0-2,4.44h-1.64a7.29,7.29,0,0,1,2.35-5.5,9.37,9.37,0,0,1,6.19-1.83c2.67,0,4.62.53,5.84,1.57a5.19,5.19,0,0,1,1.84,4.12V558.5c0,.32,0,.64,0,1a2.81,2.81,0,0,0,.15.86,1.28,1.28,0,0,0,.43.63,1.35,1.35,0,0,0,.86.24,8.8,8.8,0,0,0,1.21-.13v1.38a5.41,5.41,0,0,1-1.34.17,4,4,0,0,1-1.57-.26,2.1,2.1,0,0,1-.89-.69,2.69,2.69,0,0,1-.41-1,7.19,7.19,0,0,1-.1-1.27Zm0-8.19a3.1,3.1,0,0,1-1.83,1,24.39,24.39,0,0,1-2.74.39l-2.76.26c-.81.08-1.61.21-2.42.36a7.11,7.11,0,0,0-2.17.8,4.54,4.54,0,0,0-1.58,1.53,4.76,4.76,0,0,0-.6,2.53,4.31,4.31,0,0,0,1.55,3.64,6.9,6.9,0,0,0,4.27,1.18,8.34,8.34,0,0,0,4.44-1,7.74,7.74,0,0,0,2.5-2.33,7,7,0,0,0,1.1-2.54,10.7,10.7,0,0,0,.24-1.66Z" style="fill:#fff"/><path d="M1067.09,531.81h1.63v20.4l13.67-11.77h2.37l-9.7,8.28,10.4,13.88h-2.25L1073.77,550l-5,4.27v8.36h-1.63Z" style="fill:#fff"/><path d="M1093.6,551.73V552a13.3,13.3,0,0,0,.52,3.71,9.53,9.53,0,0,0,1.54,3.11,7.19,7.19,0,0,0,2.55,2.11,7.74,7.74,0,0,0,3.56.77,7.64,7.64,0,0,0,5.28-1.74,9.13,9.13,0,0,0,2.68-4.85h1.64a10,10,0,0,1-3.17,5.95,9.63,9.63,0,0,1-6.45,2.07,9.75,9.75,0,0,1-4.29-.89,8.75,8.75,0,0,1-3.06-2.41,10.22,10.22,0,0,1-1.83-3.62,16.33,16.33,0,0,1-.61-4.51,15.66,15.66,0,0,1,.63-4.46,11.21,11.21,0,0,1,1.88-3.75,9.26,9.26,0,0,1,3.12-2.59,10.43,10.43,0,0,1,8.54-.11,8.79,8.79,0,0,1,3,2.35,10.55,10.55,0,0,1,1.83,3.45,13.7,13.7,0,0,1,.62,4.21,4.35,4.35,0,0,1,0,.49c0,.19,0,.34,0,.45Zm16.3-1.42a13.6,13.6,0,0,0-.6-3.43,8.58,8.58,0,0,0-1.54-2.84,7.7,7.7,0,0,0-2.46-2,7.23,7.23,0,0,0-3.31-.74,7.67,7.67,0,0,0-3.5.76,7.82,7.82,0,0,0-2.55,2,8.83,8.83,0,0,0-1.6,2.87,12.88,12.88,0,0,0-.69,3.36Z" style="fill:#fff"/><path d="M421.21,626.07h-.09A6.88,6.88,0,0,1,420,628a7.82,7.82,0,0,1-1.79,1.57,8.84,8.84,0,0,1-2.39,1.08,10.44,10.44,0,0,1-2.93.39,8.72,8.72,0,0,1-5.48-1.53,5.67,5.67,0,0,1-1.94-4.73,5.84,5.84,0,0,1,.78-3.17,6,6,0,0,1,2-1.94,8.51,8.51,0,0,1,2.63-1,26.92,26.92,0,0,1,2.78-.43l2.54-.22a14.16,14.16,0,0,0,2.78-.41,3.43,3.43,0,0,0,1.53-.77,2.16,2.16,0,0,0,.65-1.27,11.75,11.75,0,0,0,.13-1.94,4.12,4.12,0,0,0-.34-1.69,3.89,3.89,0,0,0-1.08-1.38,5.36,5.36,0,0,0-1.9-.94,10,10,0,0,0-2.84-.35,7.44,7.44,0,0,0-4.81,1.47,5.8,5.8,0,0,0-2,4.44h-1.64a7.29,7.29,0,0,1,2.35-5.5,9.39,9.39,0,0,1,6.19-1.83q4,0,5.84,1.57a5.15,5.15,0,0,1,1.84,4.12v12.89c0,.32,0,.63,0,1a2.86,2.86,0,0,0,.15.86,1.21,1.21,0,0,0,1.29.87,8.8,8.8,0,0,0,1.21-.13v1.38a5.41,5.41,0,0,1-1.34.17,4,4,0,0,1-1.57-.26,2,2,0,0,1-.88-.69,2.45,2.45,0,0,1-.41-1,6.43,6.43,0,0,1-.11-1.28Zm0-8.19a3.1,3.1,0,0,1-1.83,1,24.39,24.39,0,0,1-2.74.39l-2.76.26c-.81.08-1.61.21-2.42.36a7.11,7.11,0,0,0-2.17.8,4.37,4.37,0,0,0-1.58,1.53,4.75,4.75,0,0,0-.6,2.52,4.32,4.32,0,0,0,1.55,3.65,6.9,6.9,0,0,0,4.27,1.18,8.34,8.34,0,0,0,4.44-1,7.74,7.74,0,0,0,2.5-2.33,7.11,7.11,0,0,0,1.1-2.54,10.86,10.86,0,0,0,.24-1.66Z" style="fill:#fff"/><path d="M452.9,623.1a6.87,6.87,0,0,0,.69,2.73,6.46,6.46,0,0,0,3.84,3.3,8.7,8.7,0,0,0,2.8.43,14.76,14.76,0,0,0,2.31-.19,8.09,8.09,0,0,0,2.28-.71,4.75,4.75,0,0,0,1.75-1.45,3.81,3.81,0,0,0,.69-2.35,3.49,3.49,0,0,0-1.12-2.8,8,8,0,0,0-2.83-1.47,29.9,29.9,0,0,0-3.66-.84,18.79,18.79,0,0,1-3.67-1,7.49,7.49,0,0,1-2.82-1.83,5.74,5.74,0,0,1-.39-6.21,5.41,5.41,0,0,1,1.88-1.74,8.3,8.3,0,0,1,2.56-.93,14.49,14.49,0,0,1,2.85-.28,12.82,12.82,0,0,1,3.23.39,6.89,6.89,0,0,1,2.61,1.25,5.87,5.87,0,0,1,1.72,2.2,7.5,7.5,0,0,1,.63,3.23h-1.64a6.17,6.17,0,0,0-.49-2.59,4.51,4.51,0,0,0-1.38-1.74,5.83,5.83,0,0,0-2.1-1,9.7,9.7,0,0,0-2.58-.33,11.72,11.72,0,0,0-2.27.22,6.26,6.26,0,0,0-2,.73,4.47,4.47,0,0,0-1.49,1.34,3.29,3.29,0,0,0-.58,2,3.41,3.41,0,0,0,.64,2.16A4.65,4.65,0,0,0,456,617a11.56,11.56,0,0,0,2.37.8l2.65.6c1.09.2,2.12.44,3.08.71a9,9,0,0,1,2.5,1.12,5.06,5.06,0,0,1,1.66,1.84,5.86,5.86,0,0,1,.61,2.84,5.11,5.11,0,0,1-.82,3,6.4,6.4,0,0,1-2.07,1.87,8.78,8.78,0,0,1-2.78,1,17.27,17.27,0,0,1-3,.28,11.86,11.86,0,0,1-3.51-.5,8,8,0,0,1-2.83-1.51,7.18,7.18,0,0,1-1.9-2.48,8.38,8.38,0,0,1-.73-3.4Z" style="fill:#fff"/><path d="M478.9,608.31h1.64v4.74h.08a7.05,7.05,0,0,1,1.23-2.22,8,8,0,0,1,1.86-1.66,8.12,8.12,0,0,1,2.3-1,9.61,9.61,0,0,1,2.55-.34,10.28,10.28,0,0,1,3.3.47,6.75,6.75,0,0,1,2.22,1.25,6.31,6.31,0,0,1,1.36,1.75,8.42,8.42,0,0,1,.71,2,12.09,12.09,0,0,1,.26,1.92c0,.62,0,1.16,0,1.62v13.71h-1.64v-14a19.64,19.64,0,0,0-.13-2.07,6.46,6.46,0,0,0-.75-2.4,5.54,5.54,0,0,0-1.9-2,6.43,6.43,0,0,0-3.52-.82,7.82,7.82,0,0,0-3.36.69,7.25,7.25,0,0,0-2.5,1.92,8.5,8.5,0,0,0-1.57,2.93,12.32,12.32,0,0,0-.54,3.73v12H478.9Z" style="fill:#fff"/><path d="M507.92,619.6v.26a12.94,12.94,0,0,0,.52,3.71,9.27,9.27,0,0,0,1.53,3.1,7.29,7.29,0,0,0,2.55,2.12,7.89,7.89,0,0,0,3.57.77,7.6,7.6,0,0,0,5.27-1.74A9.13,9.13,0,0,0,524,623h1.64a9.91,9.91,0,0,1-3.17,5.95,9.6,9.6,0,0,1-6.44,2.07,9.75,9.75,0,0,1-4.29-.89,8.79,8.79,0,0,1-3.07-2.41,10.56,10.56,0,0,1-1.83-3.62,16.33,16.33,0,0,1-.6-4.51,16,16,0,0,1,.62-4.46,11.2,11.2,0,0,1,1.88-3.75,9.3,9.3,0,0,1,3.13-2.59,10.41,10.41,0,0,1,8.53-.11,8.7,8.7,0,0,1,3,2.35,10.37,10.37,0,0,1,1.83,3.45,13.68,13.68,0,0,1,.63,4.2c0,.15,0,.31,0,.5s0,.34,0,.45Zm16.3-1.42a13.18,13.18,0,0,0-.61-3.43,8.46,8.46,0,0,0-1.53-2.84,7.66,7.66,0,0,0-2.47-2,7.33,7.33,0,0,0-3.31-.73,7.67,7.67,0,0,0-3.5.76,7.82,7.82,0,0,0-2.55,2,8.91,8.91,0,0,0-1.6,2.87,13.75,13.75,0,0,0-.69,3.36Z" style="fill:#fff"/><path d="M550.43,626.07h-.08a6.92,6.92,0,0,1-1.13,1.88,7.77,7.77,0,0,1-1.78,1.57,9.05,9.05,0,0,1-2.4,1.08,10.44,10.44,0,0,1-2.93.39,8.74,8.74,0,0,1-5.48-1.53,5.67,5.67,0,0,1-1.94-4.73,5.84,5.84,0,0,1,.78-3.17,6.05,6.05,0,0,1,2-1.94,8.51,8.51,0,0,1,2.63-1,26.92,26.92,0,0,1,2.78-.43l2.55-.22a14.28,14.28,0,0,0,2.78-.41,3.54,3.54,0,0,0,1.53-.77,2.28,2.28,0,0,0,.65-1.27,13.12,13.12,0,0,0,.12-1.94,4.12,4.12,0,0,0-.34-1.69,3.89,3.89,0,0,0-1.08-1.38,5.36,5.36,0,0,0-1.9-.94,10,10,0,0,0-2.84-.35,7.46,7.46,0,0,0-4.81,1.47,5.77,5.77,0,0,0-2,4.44h-1.64a7.25,7.25,0,0,1,2.35-5.5,9.34,9.34,0,0,1,6.18-1.83q4,0,5.85,1.57a5.17,5.17,0,0,1,1.83,4.12v12.89c0,.32,0,.63,0,1a3.67,3.67,0,0,0,.15.86,1.34,1.34,0,0,0,.43.63,1.39,1.39,0,0,0,.87.24,8.69,8.69,0,0,0,1.2-.13v1.38a5.33,5.33,0,0,1-1.33.17,4,4,0,0,1-1.58-.26,2.06,2.06,0,0,1-.88-.69,2.59,2.59,0,0,1-.41-1,7.27,7.27,0,0,1-.11-1.28Zm0-8.19a3.07,3.07,0,0,1-1.83,1,24.06,24.06,0,0,1-2.74.39l-2.76.26c-.8.08-1.61.21-2.41.36a7.17,7.17,0,0,0-2.18.8,4.34,4.34,0,0,0-1.57,1.53,4.66,4.66,0,0,0-.61,2.52,4.32,4.32,0,0,0,1.55,3.65,6.9,6.9,0,0,0,4.27,1.18,8.34,8.34,0,0,0,4.44-1,7.78,7.78,0,0,0,2.51-2.33,7.29,7.29,0,0,0,1.1-2.54,11.81,11.81,0,0,0,.23-1.66Z" style="fill:#fff"/><path d="M563.41,599.68h1.64v20.4l13.67-11.77h2.37l-9.7,8.27,10.39,13.89h-2.24l-9.45-12.64-5,4.27v8.37h-1.64Z" style="fill:#fff"/><path d="M609.33,613.39h.13a8.55,8.55,0,0,1,.86-1.81,7.57,7.57,0,0,1,1.6-1.83,8.56,8.56,0,0,1,2.39-1.4,8.67,8.67,0,0,1,3.21-.56,9.7,9.7,0,0,1,4.42,1,9,9,0,0,1,3.11,2.54,10.83,10.83,0,0,1,1.83,3.71,16.19,16.19,0,0,1,.6,4.44,17,17,0,0,1-.6,4.66,10.33,10.33,0,0,1-1.84,3.64,8.4,8.4,0,0,1-3.11,2.39,10.45,10.45,0,0,1-4.43.87,10,10,0,0,1-4.93-1.21,7,7,0,0,1-3.15-3.93h-.09V638.4h-1.59V608.31h1.59Zm8.17,16.17a8,8,0,0,0,3.74-.82,7.29,7.29,0,0,0,2.59-2.2,9.53,9.53,0,0,0,1.52-3.21,14.88,14.88,0,0,0,.49-3.9,14.67,14.67,0,0,0-.47-3.73,10.51,10.51,0,0,0-1.47-3.28,7.45,7.45,0,0,0-2.57-2.32,8.67,8.67,0,0,0-7.59,0,7.34,7.34,0,0,0-2.53,2.29,9.43,9.43,0,0,0-1.4,3.25,16.57,16.57,0,0,0-.44,3.82,18.4,18.4,0,0,0,.39,3.82,9.24,9.24,0,0,0,1.32,3.23,6.81,6.81,0,0,0,2.51,2.24A8.25,8.25,0,0,0,617.5,629.56Z" style="fill:#fff"/><path d="M638,619.6v.26a12.94,12.94,0,0,0,.52,3.71,9.66,9.66,0,0,0,1.53,3.1,7.23,7.23,0,0,0,2.56,2.12,7.87,7.87,0,0,0,3.56.77,7.64,7.64,0,0,0,5.28-1.74,9.2,9.2,0,0,0,2.68-4.85h1.64a10,10,0,0,1-3.17,5.95,9.64,9.64,0,0,1-6.45,2.07,9.75,9.75,0,0,1-4.29-.89,8.75,8.75,0,0,1-3.06-2.41,10.22,10.22,0,0,1-1.83-3.62,16,16,0,0,1-.61-4.51,15.66,15.66,0,0,1,.63-4.46,11,11,0,0,1,1.87-3.75,9.94,9.94,0,0,1,11.67-2.7,8.66,8.66,0,0,1,3,2.35,10.39,10.39,0,0,1,1.84,3.45,14,14,0,0,1,.62,4.2c0,.15,0,.31,0,.5a4,4,0,0,0,0,.45Zm16.3-1.42a13.18,13.18,0,0,0-.61-3.43,8.28,8.28,0,0,0-1.53-2.84,7.73,7.73,0,0,0-2.46-2,7.36,7.36,0,0,0-3.31-.73,7.64,7.64,0,0,0-3.5.76,8,8,0,0,0-2.56,2,8.71,8.71,0,0,0-1.59,2.87,13.31,13.31,0,0,0-.7,3.36Z" style="fill:#fff"/><path d="M666.38,619.6v.26a13.3,13.3,0,0,0,.51,3.71,9.48,9.48,0,0,0,1.54,3.1,7.29,7.29,0,0,0,2.55,2.12,7.89,7.89,0,0,0,3.57.77,7.61,7.61,0,0,0,5.27-1.74A9.13,9.13,0,0,0,682.5,623h1.64a10,10,0,0,1-3.17,5.95,9.6,9.6,0,0,1-6.44,2.07,9.83,9.83,0,0,1-4.3-.89,8.75,8.75,0,0,1-3.06-2.41,10.22,10.22,0,0,1-1.83-3.62,16.33,16.33,0,0,1-.6-4.51,16,16,0,0,1,.62-4.46,11,11,0,0,1,1.88-3.75,9.26,9.26,0,0,1,3.12-2.59,10.43,10.43,0,0,1,8.54-.11,8.79,8.79,0,0,1,3,2.35,10.55,10.55,0,0,1,1.83,3.45,13.68,13.68,0,0,1,.63,4.2,4.75,4.75,0,0,1,0,.5c0,.19,0,.34,0,.45Zm16.29-1.42a12.77,12.77,0,0,0-.6-3.43,8.64,8.64,0,0,0-1.53-2.84,7.66,7.66,0,0,0-2.47-2,7.36,7.36,0,0,0-3.31-.73,7.67,7.67,0,0,0-3.5.76,7.82,7.82,0,0,0-2.55,2,8.91,8.91,0,0,0-1.6,2.87,13.3,13.3,0,0,0-.69,3.36Z" style="fill:#fff"/><path d="M694.27,599.68h1.64v20.4l13.67-11.77H712l-9.7,8.27,10.39,13.89H710.4L701,617.83l-5.05,4.27v8.37h-1.64Z" style="fill:#fff"/><path d="M738.6,604.12v-4.44h1.64v4.44Zm0,26.35V608.31h1.64v22.16Z" style="fill:#fff"/><path d="M751.49,608.31h1.64v4.74h.08a7.05,7.05,0,0,1,1.23-2.22,8,8,0,0,1,1.86-1.66,8.12,8.12,0,0,1,2.3-1,9.61,9.61,0,0,1,2.55-.34,10.28,10.28,0,0,1,3.3.47,6.75,6.75,0,0,1,2.22,1.25,6.13,6.13,0,0,1,1.36,1.75,8.42,8.42,0,0,1,.71,2,12.09,12.09,0,0,1,.26,1.92c0,.62,0,1.16,0,1.62v13.71H767.4v-14a19.64,19.64,0,0,0-.13-2.07,6.46,6.46,0,0,0-.75-2.4,5.54,5.54,0,0,0-1.9-2,6.42,6.42,0,0,0-3.51-.82,7.83,7.83,0,0,0-3.37.69,7.25,7.25,0,0,0-2.5,1.92,8.5,8.5,0,0,0-1.57,2.93,12.32,12.32,0,0,0-.54,3.73v12h-1.64Z" style="fill:#fff"/><path d="M788.05,609.73h-4.83v15.48a5.77,5.77,0,0,0,.31,2.11,2.47,2.47,0,0,0,.92,1.19A3.25,3.25,0,0,0,786,629a16.5,16.5,0,0,0,2,0v1.42a15.25,15.25,0,0,1-2.44,0,4.89,4.89,0,0,1-2.09-.65,3.81,3.81,0,0,1-1.44-1.62,6.07,6.07,0,0,1-.45-3V609.73h-4.1v-1.42h4.1v-6.9h1.63v6.9h4.83Z" style="fill:#fff"/><path d="M796.07,619.39a14.52,14.52,0,0,1,.67-4.47,11.3,11.3,0,0,1,2-3.68,9.25,9.25,0,0,1,3.19-2.52,10.66,10.66,0,0,1,8.71,0,9.07,9.07,0,0,1,3.19,2.52,11.14,11.14,0,0,1,2,3.68,15.5,15.5,0,0,1,0,9,10.9,10.9,0,0,1-2,3.69,9.37,9.37,0,0,1-3.19,2.5,10.66,10.66,0,0,1-8.71,0,9.56,9.56,0,0,1-3.19-2.5,11.05,11.05,0,0,1-2-3.69A14.63,14.63,0,0,1,796.07,619.39Zm1.64,0a13.06,13.06,0,0,0,.56,3.81,10.31,10.31,0,0,0,1.64,3.26,8,8,0,0,0,2.67,2.26,8.42,8.42,0,0,0,7.33,0,7.92,7.92,0,0,0,2.68-2.26,10.5,10.5,0,0,0,1.63-3.26,13.05,13.05,0,0,0,0-7.63,10.34,10.34,0,0,0-1.63-3.25,8,8,0,0,0-2.68-2.27,8.42,8.42,0,0,0-7.33,0,8,8,0,0,0-2.67,2.27,10.15,10.15,0,0,0-1.64,3.25A13.13,13.13,0,0,0,797.71,619.39Z" style="fill:#fff"/><path d="M852.47,609.73h-4.83v15.48a6,6,0,0,0,.3,2.11,2.43,2.43,0,0,0,.93,1.19,3.25,3.25,0,0,0,1.51.49,16.5,16.5,0,0,0,2,0v1.42a15.24,15.24,0,0,1-2.44,0,4.85,4.85,0,0,1-2.09-.65,3.75,3.75,0,0,1-1.44-1.62,6.06,6.06,0,0,1-.46-3V609.73h-4.09v-1.42H846v-6.9h1.64v6.9h4.83Z" style="fill:#fff"/><path d="M863.16,599.68v13.37h.09a7.05,7.05,0,0,1,1.23-2.22,8.17,8.17,0,0,1,4.16-2.7,9.48,9.48,0,0,1,2.54-.34,10.2,10.2,0,0,1,3.3.47,6.55,6.55,0,0,1,2.22,1.25,6,6,0,0,1,1.36,1.75,8,8,0,0,1,.71,2,11,11,0,0,1,.26,1.92c0,.62,0,1.16,0,1.62v13.71h-1.63v-14c0-.55-.05-1.24-.13-2.07a6.3,6.3,0,0,0-.76-2.4,5.54,5.54,0,0,0-1.9-2,6.4,6.4,0,0,0-3.51-.82,7.79,7.79,0,0,0-3.36.69,7.25,7.25,0,0,0-2.5,1.92,8.52,8.52,0,0,0-1.58,2.93,12.32,12.32,0,0,0-.54,3.73v12h-1.64V599.68Z" style="fill:#fff"/><path d="M890.54,619.6v.26a12.94,12.94,0,0,0,.52,3.71,9.48,9.48,0,0,0,1.54,3.1,7.12,7.12,0,0,0,2.55,2.12,7.87,7.87,0,0,0,3.56.77,7.64,7.64,0,0,0,5.28-1.74,9.13,9.13,0,0,0,2.68-4.85h1.64a10,10,0,0,1-3.17,5.95,9.63,9.63,0,0,1-6.45,2.07,9.75,9.75,0,0,1-4.29-.89,8.75,8.75,0,0,1-3.06-2.41,10.22,10.22,0,0,1-1.83-3.62,16.33,16.33,0,0,1-.61-4.51,15.66,15.66,0,0,1,.63-4.46,11.19,11.19,0,0,1,1.87-3.75,9.94,9.94,0,0,1,11.67-2.7,8.66,8.66,0,0,1,3,2.35,10.39,10.39,0,0,1,1.84,3.45,14,14,0,0,1,.62,4.2,4.53,4.53,0,0,1,0,.5c0,.19,0,.34,0,.45Zm16.3-1.42a13.6,13.6,0,0,0-.6-3.43,8.48,8.48,0,0,0-1.54-2.84,7.73,7.73,0,0,0-2.46-2,7.36,7.36,0,0,0-3.31-.73,7.64,7.64,0,0,0-3.5.76,7.82,7.82,0,0,0-2.55,2,8.73,8.73,0,0,0-1.6,2.87,12.88,12.88,0,0,0-.69,3.36Z" style="fill:#fff"/><path d="M934,609.73v-1.42h4v-4.57a4.74,4.74,0,0,1,.39-2,3.68,3.68,0,0,1,1-1.36,4.74,4.74,0,0,1,1.56-.77,6.31,6.31,0,0,1,1.87-.26,11.83,11.83,0,0,1,1.94.21V601a11,11,0,0,0-1.94-.22,4,4,0,0,0-2.31.63,2.8,2.8,0,0,0-.92,2.47v4.45h4.61v1.42h-4.61v20.74h-1.64V609.73Z" style="fill:#fff"/><path d="M970.35,630.47h-1.64v-4.74h-.08A7.28,7.28,0,0,1,967.4,628a8.2,8.2,0,0,1-1.86,1.66,8.1,8.1,0,0,1-2.3,1,9.55,9.55,0,0,1-2.54.35,9.91,9.91,0,0,1-3.3-.48,6.23,6.23,0,0,1-2.22-1.25,6,6,0,0,1-1.36-1.75,7.84,7.84,0,0,1-.71-2,11,11,0,0,1-.26-1.92c0-.61-.05-1.15-.05-1.61V608.31h1.64v14c0,.57,0,1.27.13,2.09a6.27,6.27,0,0,0,.76,2.37,5.45,5.45,0,0,0,1.87,2,6.42,6.42,0,0,0,3.54.82,7.86,7.86,0,0,0,3.34-.69A7.23,7.23,0,0,0,966.6,627a8.43,8.43,0,0,0,1.58-2.93,12.27,12.27,0,0,0,.53-3.73v-12h1.64Z" style="fill:#fff"/><path d="M989.37,609.73h-4.83v15.48a6,6,0,0,0,.3,2.11,2.43,2.43,0,0,0,.93,1.19,3.21,3.21,0,0,0,1.51.49,16.5,16.5,0,0,0,2.05,0v1.42a15.24,15.24,0,0,1-2.44,0,4.85,4.85,0,0,1-2.09-.65,3.77,3.77,0,0,1-1.45-1.62,6.07,6.07,0,0,1-.45-3V609.73h-4.1v-1.42h4.1v-6.9h1.64v6.9h4.83Z" style="fill:#fff"/><path d="M1016,630.47h-1.64v-4.74h-.08A7.28,7.28,0,0,1,1013,628a8.2,8.2,0,0,1-1.86,1.66,8.1,8.1,0,0,1-2.3,1,9.56,9.56,0,0,1-2.55.35,10,10,0,0,1-3.3-.48,6.41,6.41,0,0,1-2.22-1.25,6.09,6.09,0,0,1-1.35-1.75,8.3,8.3,0,0,1-.72-2,12.09,12.09,0,0,1-.26-1.92c0-.61,0-1.15,0-1.61V608.31h1.64v14a19.52,19.52,0,0,0,.13,2.09,6.27,6.27,0,0,0,.76,2.37,5.45,5.45,0,0,0,1.87,2,6.39,6.39,0,0,0,3.54.82,7.86,7.86,0,0,0,3.34-.69,7.23,7.23,0,0,0,2.52-1.92,8.41,8.41,0,0,0,1.57-2.93,12.27,12.27,0,0,0,.54-3.73v-12H1016Z" style="fill:#fff"/><path d="M1028.47,613.22h.13a5.47,5.47,0,0,1,1.1-2,7.93,7.93,0,0,1,1.94-1.63,9.52,9.52,0,0,1,2.55-1.06,10.36,10.36,0,0,1,2.91-.32v1.63a8.06,8.06,0,0,0-3,.26A7.15,7.15,0,0,0,1031,612a13.87,13.87,0,0,0-1.06,1.25,6,6,0,0,0-.75,1.34,7.52,7.52,0,0,0-.48,1.64,15,15,0,0,0-.22,2.15v12.12h-1.63V608.31h1.63Z" style="fill:#fff"/><path d="M1045.46,619.6v.26a13.3,13.3,0,0,0,.52,3.71,9.48,9.48,0,0,0,1.54,3.1,7.12,7.12,0,0,0,2.55,2.12,7.87,7.87,0,0,0,3.56.77,7.64,7.64,0,0,0,5.28-1.74,9.13,9.13,0,0,0,2.68-4.85h1.64a10,10,0,0,1-3.17,5.95,9.63,9.63,0,0,1-6.45,2.07,9.75,9.75,0,0,1-4.29-.89,8.75,8.75,0,0,1-3.06-2.41,10.22,10.22,0,0,1-1.83-3.62,16.33,16.33,0,0,1-.6-4.51,15.66,15.66,0,0,1,.62-4.46,11,11,0,0,1,1.88-3.75,9.26,9.26,0,0,1,3.12-2.59,10.43,10.43,0,0,1,8.54-.11,8.79,8.79,0,0,1,3,2.35,10.55,10.55,0,0,1,1.83,3.45,14,14,0,0,1,.62,4.2,4.53,4.53,0,0,1,0,.5c0,.19,0,.34,0,.45Zm16.3-1.42a13.6,13.6,0,0,0-.6-3.43,8.48,8.48,0,0,0-1.54-2.84,7.63,7.63,0,0,0-2.46-2,7.36,7.36,0,0,0-3.31-.73,7.67,7.67,0,0,0-3.5.76,7.82,7.82,0,0,0-2.55,2,8.73,8.73,0,0,0-1.6,2.87,12.88,12.88,0,0,0-.69,3.36Z" style="fill:#fff"/><path d="M1076.25,604.12a10.76,10.76,0,0,1-.13,1.71,6.63,6.63,0,0,1-.45,1.57,4.44,4.44,0,0,1-.87,1.29,3.42,3.42,0,0,1-1.31.87v-1.43a1.56,1.56,0,0,0,.75-.71,5.24,5.24,0,0,0,.46-1.08,5.84,5.84,0,0,0,.21-1.18c0-.4,0-.75,0-1h-.91v-4.44h2.2Zm5.43,0a10.76,10.76,0,0,1-.13,1.71,5.81,5.81,0,0,1-.45,1.57,4.41,4.41,0,0,1-.86,1.29,3.54,3.54,0,0,1-1.32.87v-1.43a1.63,1.63,0,0,0,.76-.71,5.22,5.22,0,0,0,.45-1.08,5.85,5.85,0,0,0,.22-1.18c0-.4,0-.75,0-1h-.91v-4.44h2.2Z" style="fill:#fff"/><path d="M491.12,450.11h19.42v.73h-9.36v25.3h-.73v-25.3h-9.33Z" style="fill:#fff"/><path d="M519.22,450.11V462h.07a6.8,6.8,0,0,1,.82-2,6.58,6.58,0,0,1,1.42-1.61,6.46,6.46,0,0,1,2-1.07A7.67,7.67,0,0,1,526,457a7.87,7.87,0,0,1,2.67.43,6,6,0,0,1,2.12,1.3,5.74,5.74,0,0,1,1.38,2.11,7.9,7.9,0,0,1,.5,2.9v12.43H532V463.82a7.26,7.26,0,0,0-.48-2.79,5,5,0,0,0-1.29-1.89,5.1,5.1,0,0,0-1.9-1.1,7.34,7.34,0,0,0-2.27-.34,6.61,6.61,0,0,0-3,.63,6.3,6.3,0,0,0-2.13,1.72,7.46,7.46,0,0,0-1.29,2.49,10.2,10.2,0,0,0-.44,3v10.61h-.73v-26Z" style="fill:#fff"/><path d="M543.37,470.44a8.3,8.3,0,0,0,1.29,2.82,6.34,6.34,0,0,0,2.26,1.9,8.58,8.58,0,0,0,8.29-.86,7,7,0,0,0,2.43-4.65h.73a7.49,7.49,0,0,1-2.59,5.09,8.22,8.22,0,0,1-5.4,1.8,8.52,8.52,0,0,1-3.73-.69,6.55,6.55,0,0,1-2.53-2.06,8.91,8.91,0,0,1-1.46-3.14,15,15,0,0,1-.48-3.88,11.43,11.43,0,0,1,.7-4.15,9.7,9.7,0,0,1,1.82-3.08,7.59,7.59,0,0,1,5.68-2.57,8,8,0,0,1,3.78.84,7.44,7.44,0,0,1,2.59,2.22,9.29,9.29,0,0,1,1.45,3.17,13.07,13.07,0,0,1,.39,3.72H542.91A15.6,15.6,0,0,0,543.37,470.44Zm14-7.51a8,8,0,0,0-1.4-2.72,6.62,6.62,0,0,0-2.31-1.84,7.28,7.28,0,0,0-3.21-.67,7,7,0,0,0-2.86.58,6.81,6.81,0,0,0-2.34,1.69,9,9,0,0,0-1.62,2.68,11.64,11.64,0,0,0-.73,3.54h15A10.94,10.94,0,0,0,557.38,462.93Z" style="fill:#fff"/><path d="M599.3,462.22v.72H585.45v13.2h-.73v-26h16v.73H585.45v11.38Z" style="fill:#fff"/><path d="M622.34,476.14v-4.63h-.07a6.43,6.43,0,0,1-2.25,3.61,6.83,6.83,0,0,1-4.5,1.42,8.23,8.23,0,0,1-2.68-.42,5.65,5.65,0,0,1-2.11-1.27,5.8,5.8,0,0,1-1.39-2.12,8.08,8.08,0,0,1-.49-2.9V457.4h.73v12.32a7.39,7.39,0,0,0,.47,2.79,5.22,5.22,0,0,0,1.3,1.9,5.11,5.11,0,0,0,1.89,1.09,7.45,7.45,0,0,0,2.28.35,6.44,6.44,0,0,0,3-.64,6.21,6.21,0,0,0,2.14-1.71,7.51,7.51,0,0,0,1.29-2.5,10.15,10.15,0,0,0,.44-3V457.4h.73v18.74Z" style="fill:#fff"/><path d="M635.64,472.5a4.47,4.47,0,0,0,.24,1.64,2.16,2.16,0,0,0,.6.87,1.56,1.56,0,0,0,.8.35c.3,0,.59.05.88.05s.69,0,1,0a2,2,0,0,0,.62-.09V476l-.64.07a9.62,9.62,0,0,1-1.14,0,3.24,3.24,0,0,1-2.17-.75,3.42,3.42,0,0,1-.9-2.75V458.13h-3.42v-.73h3.42v-5.9h.73v5.9h4.23v.73h-4.23Z" style="fill:#fff"/><path d="M662.47,476.14v-4.63h-.07a6.47,6.47,0,0,1-2.24,3.61,6.87,6.87,0,0,1-4.5,1.42,8.14,8.14,0,0,1-2.68-.42,5.69,5.69,0,0,1-2.12-1.27,5.78,5.78,0,0,1-1.38-2.12,7.86,7.86,0,0,1-.5-2.9V457.4h.73v12.32a7.19,7.19,0,0,0,.48,2.79,5.2,5.2,0,0,0,1.29,1.9,5.08,5.08,0,0,0,1.9,1.09,7.36,7.36,0,0,0,2.28.35,6.47,6.47,0,0,0,3-.64,6.27,6.27,0,0,0,2.13-1.71A7.51,7.51,0,0,0,662,471a9.83,9.83,0,0,0,.44-3V457.4h.73v18.74Z" style="fill:#fff"/><path d="M673.77,476.14V457.4h.73V462h.07a7.12,7.12,0,0,1,.81-2,5.74,5.74,0,0,1,1.45-1.63,7.24,7.24,0,0,1,2.17-1.09,8.84,8.84,0,0,1,2.94-.36v.73a7,7,0,0,0-3.34.52,6.35,6.35,0,0,0-2.31,1.75,7.36,7.36,0,0,0-1.35,2.57,10.46,10.46,0,0,0-.44,3v10.61Z" style="fill:#fff"/><path d="M689.86,470.44a8.13,8.13,0,0,0,1.3,2.82,6.17,6.17,0,0,0,2.26,1.9,7.53,7.53,0,0,0,3.39.69,7.64,7.64,0,0,0,4.9-1.55,7,7,0,0,0,2.42-4.65h.73a7.48,7.48,0,0,1-2.58,5.09,8.22,8.22,0,0,1-5.4,1.8,8.56,8.56,0,0,1-3.74-.69,6.63,6.63,0,0,1-2.53-2.06,9.28,9.28,0,0,1-1.46-3.14,15.45,15.45,0,0,1-.47-3.88,11.65,11.65,0,0,1,.69-4.15,9.7,9.7,0,0,1,1.82-3.08,7.63,7.63,0,0,1,5.69-2.57,7.92,7.92,0,0,1,3.77.84,7.35,7.35,0,0,1,2.59,2.22,9.12,9.12,0,0,1,1.46,3.17,13.07,13.07,0,0,1,.38,3.72H689.41A15.06,15.06,0,0,0,689.86,470.44Zm14-7.51a8.16,8.16,0,0,0-1.4-2.72,6.65,6.65,0,0,0-2.32-1.84,7.22,7.22,0,0,0-3.21-.67,7,7,0,0,0-2.86.58,6.87,6.87,0,0,0-2.33,1.69,8.84,8.84,0,0,0-1.62,2.68,11.07,11.07,0,0,0-.73,3.54h14.94A10.94,10.94,0,0,0,703.88,462.93Z" style="fill:#fff"/><path d="M730.82,463.07a9.22,9.22,0,0,1,1.62-3.11,8.18,8.18,0,0,1,2.64-2.17,7.73,7.73,0,0,1,3.65-.82,7.65,7.65,0,0,1,3.61.82A8.18,8.18,0,0,1,745,460a9.4,9.4,0,0,1,1.62,3.11,12.72,12.72,0,0,1,0,7.4,9.45,9.45,0,0,1-1.62,3.12,7.71,7.71,0,0,1-6.29,3,7.9,7.9,0,0,1-3.61-.8,8,8,0,0,1-2.64-2.15,9.27,9.27,0,0,1-1.62-3.12,12.72,12.72,0,0,1,0-7.4Zm.67,7.13a8.74,8.74,0,0,0,1.48,2.9,7.36,7.36,0,0,0,2.42,2,7.12,7.12,0,0,0,3.34.75,7,7,0,0,0,3.3-.75,7.46,7.46,0,0,0,2.42-2,8.74,8.74,0,0,0,1.48-2.9,12.2,12.2,0,0,0,.49-3.43,12.08,12.08,0,0,0-.49-3.39,8.74,8.74,0,0,0-1.48-2.9,7.65,7.65,0,0,0-2.42-2,6.92,6.92,0,0,0-3.3-.76,7,7,0,0,0-3.34.76,7.54,7.54,0,0,0-2.42,2,8.74,8.74,0,0,0-1.48,2.9,11.73,11.73,0,0,0-.49,3.39A11.85,11.85,0,0,0,731.49,470.2Z" style="fill:#fff"/><path d="M754.73,457.4h3.17v-4.15a3.52,3.52,0,0,1,.35-1.75,2.35,2.35,0,0,1,.89-.93,3,3,0,0,1,1.2-.38,11,11,0,0,1,1.24-.08,5.75,5.75,0,0,1,.89.06l.68.09V451c-.34-.05-.65-.09-.91-.11s-.54,0-.8,0a3,3,0,0,0-2.28.64,3.11,3.11,0,0,0-.53,2v3.9h4v.73h-4v18h-.73v-18h-3.17Z" style="fill:#fff"/><path d="M798.32,450.11a9.74,9.74,0,0,1,2.86.41,6.53,6.53,0,0,1,2.34,1.22,5.55,5.55,0,0,1,1.56,2,6.57,6.57,0,0,1,.57,2.84,6,6,0,0,1-.42,2.23,6.12,6.12,0,0,1-1.15,1.86,5.72,5.72,0,0,1-1.73,1.29,5.54,5.54,0,0,1-2.2.56v.08a7.05,7.05,0,0,1,2.42.49,6.2,6.2,0,0,1,2,1.27,6.12,6.12,0,0,1,1.37,2,6.71,6.71,0,0,1,.51,2.68,7,7,0,0,1-.64,3.08,6,6,0,0,1-1.76,2.2,7.85,7.85,0,0,1-2.72,1.33,12.23,12.23,0,0,1-3.44.46H787.13v-26Zm0,12.11a8.88,8.88,0,0,0,2.5-.35,6.12,6.12,0,0,0,2.1-1.06,5.23,5.23,0,0,0,1.45-1.77,5.14,5.14,0,0,0,.55-2.44,6,6,0,0,0-.51-2.57,5,5,0,0,0-1.4-1.78,5.94,5.94,0,0,0-2.1-1.06,9.32,9.32,0,0,0-2.59-.35H787.86v11.38Zm-.11,13.19a11.18,11.18,0,0,0,3-.38,6.83,6.83,0,0,0,2.37-1.17,5.59,5.59,0,0,0,1.59-2,6.23,6.23,0,0,0,.58-2.79,5.83,5.83,0,0,0-.64-2.87,5.48,5.48,0,0,0-1.67-1.9,7,7,0,0,0-2.37-1.06,11.25,11.25,0,0,0-2.72-.33H787.86v12.47Z" style="fill:#fff"/><path d="M817,450.11v26h-.73v-26Z" style="fill:#fff"/><path d="M827.12,463.07a9.22,9.22,0,0,1,1.62-3.11,8.18,8.18,0,0,1,2.64-2.17A7.73,7.73,0,0,1,835,457a7.65,7.65,0,0,1,3.61.82,8.18,8.18,0,0,1,2.64,2.17,9.22,9.22,0,0,1,1.62,3.11,12.72,12.72,0,0,1,0,7.4,9.27,9.27,0,0,1-1.62,3.12,7.71,7.71,0,0,1-6.29,3,7.9,7.9,0,0,1-3.61-.8,8,8,0,0,1-2.64-2.15,9.27,9.27,0,0,1-1.62-3.12,12.72,12.72,0,0,1,0-7.4Zm.67,7.13a8.74,8.74,0,0,0,1.48,2.9,7.46,7.46,0,0,0,2.42,2,7.12,7.12,0,0,0,3.34.75,7,7,0,0,0,3.3-.75,7.36,7.36,0,0,0,2.42-2,8.74,8.74,0,0,0,1.48-2.9,11.85,11.85,0,0,0,.49-3.43,11.73,11.73,0,0,0-.49-3.39,8.74,8.74,0,0,0-1.48-2.9,7.54,7.54,0,0,0-2.42-2,6.92,6.92,0,0,0-3.3-.76,7,7,0,0,0-3.34.76,7.65,7.65,0,0,0-2.42,2,8.74,8.74,0,0,0-1.48,2.9,11.73,11.73,0,0,0-.49,3.39A11.85,11.85,0,0,0,827.79,470.2Z" style="fill:#fff"/><path d="M867.36,472.59a6.73,6.73,0,0,1-1.62,2.13,7.38,7.38,0,0,1-2.33,1.35,8.89,8.89,0,0,1-2.94.47,8,8,0,0,1-3.55-.75,7.55,7.55,0,0,1-2.61-2,8.86,8.86,0,0,1-1.6-3,11.6,11.6,0,0,1-.55-3.63,14.09,14.09,0,0,1,.53-3.88,9.63,9.63,0,0,1,1.6-3.24,7.71,7.71,0,0,1,2.74-2.24,8.47,8.47,0,0,1,3.88-.84,7.81,7.81,0,0,1,2.51.4,6.76,6.76,0,0,1,2.15,1.16,6.38,6.38,0,0,1,1.59,1.92,7.18,7.18,0,0,1,.82,2.64h-.73a6.74,6.74,0,0,0-.8-2.39A6.08,6.08,0,0,0,865,459a5.69,5.69,0,0,0-1.9-1,8.43,8.43,0,0,0-6,.53,7,7,0,0,0-2.48,2.23,9.4,9.4,0,0,0-1.35,3.06,13.81,13.81,0,0,0-.42,3.33,10.76,10.76,0,0,0,.49,3.28,8.58,8.58,0,0,0,1.44,2.77,6.86,6.86,0,0,0,2.37,1.92,7.3,7.3,0,0,0,3.28.71,7.82,7.82,0,0,0,2.59-.42,6.61,6.61,0,0,0,2.13-1.22,6.46,6.46,0,0,0,1.51-1.92,6.53,6.53,0,0,0,.7-2.53h.72A7.93,7.93,0,0,1,867.36,472.59Z" style="fill:#fff"/><path d="M878.55,476.14h-.73v-26h.73v18.05l12.94-10.76h1.06l-8.6,7.15,9.22,11.59h-1l-8.78-11.08-4.85,4Z" style="fill:#fff"/><path d="M914.89,472.59a6.73,6.73,0,0,1-1.62,2.13,7.38,7.38,0,0,1-2.33,1.35,8.89,8.89,0,0,1-2.94.47,8.05,8.05,0,0,1-3.55-.75,7.65,7.65,0,0,1-2.61-2,8.86,8.86,0,0,1-1.6-3,11.6,11.6,0,0,1-.55-3.63,14.09,14.09,0,0,1,.53-3.88,9.63,9.63,0,0,1,1.6-3.24,7.71,7.71,0,0,1,2.74-2.24,8.47,8.47,0,0,1,3.88-.84,7.91,7.91,0,0,1,2.52.4,7,7,0,0,1,2.15,1.16,6.35,6.35,0,0,1,1.58,1.92,7,7,0,0,1,.82,2.64h-.73a6.74,6.74,0,0,0-.8-2.39,6.08,6.08,0,0,0-1.42-1.67,5.69,5.69,0,0,0-1.9-1,8.43,8.43,0,0,0-6,.53,7,7,0,0,0-2.48,2.23,9.4,9.4,0,0,0-1.35,3.06,13.81,13.81,0,0,0-.42,3.33,10.76,10.76,0,0,0,.49,3.28,8.58,8.58,0,0,0,1.44,2.77,6.86,6.86,0,0,0,2.37,1.92,7.3,7.3,0,0,0,3.28.71,7.77,7.77,0,0,0,2.59-.42,6.61,6.61,0,0,0,2.13-1.22,6.33,6.33,0,0,0,2.21-4.45h.73A8.15,8.15,0,0,1,914.89,472.59Z" style="fill:#fff"/><path d="M926.08,450.11V462h.08a6.54,6.54,0,0,1,.82-2,6.38,6.38,0,0,1,1.42-1.61,6.29,6.29,0,0,1,2-1.07,7.71,7.71,0,0,1,2.52-.38,8,8,0,0,1,2.68.43,6,6,0,0,1,2.11,1.3,5.76,5.76,0,0,1,1.39,2.11,7.91,7.91,0,0,1,.49,2.9v12.43h-.73V463.82a7.47,7.47,0,0,0-.47-2.79,5.18,5.18,0,0,0-1.3-1.89,5.06,5.06,0,0,0-1.89-1.1,7.45,7.45,0,0,0-2.28-.34,6.57,6.57,0,0,0-2.95.63,6.33,6.33,0,0,0-2.14,1.72,7.46,7.46,0,0,0-1.29,2.49,10.2,10.2,0,0,0-.44,3v10.61h-.73v-26Z" style="fill:#fff"/><path d="M950.65,460.74a5.63,5.63,0,0,1,1.37-2,6.31,6.31,0,0,1,2.18-1.31,9,9,0,0,1,3-.47,10.52,10.52,0,0,1,2.35.25,5,5,0,0,1,1.95.9,4.58,4.58,0,0,1,1.35,1.65,6.1,6.1,0,0,1,.55,2.56v11.91a1.27,1.27,0,0,0,.21.81,1.09,1.09,0,0,0,.59.34,2.79,2.79,0,0,0,.78.08c.28,0,.54,0,.78-.06v.73h-1.09a2.6,2.6,0,0,1-1.4-.38,1.59,1.59,0,0,1-.6-1.44v-2.44h-.08a5.56,5.56,0,0,1-.93,1.74,6.78,6.78,0,0,1-1.6,1.5,8.34,8.34,0,0,1-2.21,1,9.2,9.2,0,0,1-2.69.38,7.52,7.52,0,0,1-4.56-1.26,4.36,4.36,0,0,1-1.71-3.77,6,6,0,0,1,.56-2.81,4.48,4.48,0,0,1,1.48-1.65,5.73,5.73,0,0,1,2.08-.84,16.71,16.71,0,0,1,2.33-.31l3.32-.2a10.21,10.21,0,0,0,2.27-.37,2.45,2.45,0,0,0,1.32-.84,2.65,2.65,0,0,0,.42-1.62,10.79,10.79,0,0,0-.15-1.75,3.8,3.8,0,0,0-.71-1.67,4.13,4.13,0,0,0-1.66-1.26,7.27,7.27,0,0,0-3-.49,6.72,6.72,0,0,0-4.59,1.44,5.64,5.64,0,0,0-1.83,4.06h-.73A7.42,7.42,0,0,1,950.65,460.74Zm12,4.39a2.32,2.32,0,0,1-1.13.79,8.84,8.84,0,0,1-1.75.41,19,19,0,0,1-2.13.19c-.76,0-1.51.06-2.24.11a18.22,18.22,0,0,0-2.13.27,4.93,4.93,0,0,0-1.84.73,3.72,3.72,0,0,0-1.28,1.46,5.27,5.27,0,0,0-.47,2.42,4.87,4.87,0,0,0,.27,1.59,3.32,3.32,0,0,0,.93,1.38,5.2,5.2,0,0,0,1.69,1,7.66,7.66,0,0,0,2.57.38,8.12,8.12,0,0,0,3.25-.62,7.31,7.31,0,0,0,2.39-1.62,6.59,6.59,0,0,0,1.45-2.32,7.56,7.56,0,0,0,.5-2.7v-3.46Z" style="fill:#fff"/><path d="M974.23,453.8v-3.69H975v3.69Zm0,22.34V457.4H975v18.74Z" style="fill:#fff"/><path d="M986.26,457.4V462h.07a6.8,6.8,0,0,1,.82-2,6.42,6.42,0,0,1,1.43-1.61,6.29,6.29,0,0,1,2-1.07,7.71,7.71,0,0,1,2.52-.38,8,8,0,0,1,2.68.43,6,6,0,0,1,2.11,1.3,5.76,5.76,0,0,1,1.39,2.11,8.12,8.12,0,0,1,.49,2.9v12.43H999V463.82a7.26,7.26,0,0,0-.48-2.79,5.07,5.07,0,0,0-3.18-3,7.45,7.45,0,0,0-2.28-.34,6.64,6.64,0,0,0-3,.63,6.3,6.3,0,0,0-2.13,1.72,7.46,7.46,0,0,0-1.29,2.49,10.2,10.2,0,0,0-.44,3v10.61h-.73V457.4Z" style="fill:#fff"/><path d="M275.6,177.25a22.34,22.34,0,0,1,6.45.91,15.1,15.1,0,0,1,5.26,2.75,12.92,12.92,0,0,1,3.53,4.56,15,15,0,0,1,1.27,6.41,13.69,13.69,0,0,1-3.53,9.2,12.82,12.82,0,0,1-8.87,4.19v.17a15.68,15.68,0,0,1,5.46,1.11,13.78,13.78,0,0,1,4.52,2.87,13.62,13.62,0,0,1,3.08,4.52,15.1,15.1,0,0,1,1.15,6,15.85,15.85,0,0,1-1.44,6.94,13.58,13.58,0,0,1-4,5,17.86,17.86,0,0,1-6.12,3,27.87,27.87,0,0,1-7.77,1H250.37V177.25Zm0,27.28a20,20,0,0,0,5.63-.78,13.91,13.91,0,0,0,4.72-2.38,12,12,0,0,0,3.29-4,11.79,11.79,0,0,0,1.23-5.5,13.32,13.32,0,0,0-1.15-5.79,11.24,11.24,0,0,0-3.16-4,13.51,13.51,0,0,0-4.73-2.38,21,21,0,0,0-5.83-.78H252v25.63Zm-.25,29.75a24.63,24.63,0,0,0,6.7-.87,15.32,15.32,0,0,0,5.34-2.62,12.64,12.64,0,0,0,3.57-4.44,14,14,0,0,0,1.32-6.29,13.39,13.39,0,0,0-1.44-6.49,12.48,12.48,0,0,0-3.78-4.27,15.61,15.61,0,0,0-5.34-2.38,25.13,25.13,0,0,0-6.12-.74H252v28.1Z" style="fill:#fff"/><path d="M319.31,177.25v58.67h-1.64V177.25Z" style="fill:#fff"/><path d="M343.79,206.46a21.34,21.34,0,0,1,3.66-7,18.41,18.41,0,0,1,6-4.89,19,19,0,0,1,16.35,0,18.38,18.38,0,0,1,5.95,4.89,21.16,21.16,0,0,1,3.66,7,28.89,28.89,0,0,1,0,16.68,21.11,21.11,0,0,1-3.66,7,17.34,17.34,0,0,1-14.17,6.65,17.64,17.64,0,0,1-8.13-1.8,18,18,0,0,1-6-4.85,21.29,21.29,0,0,1-3.66-7,28.89,28.89,0,0,1,0-16.68Zm1.52,16.07a19.67,19.67,0,0,0,3.33,6.53,16.44,16.44,0,0,0,5.47,4.52,17.47,17.47,0,0,0,14.95,0,16.5,16.5,0,0,0,5.46-4.52,19.67,19.67,0,0,0,3.33-6.53A26.76,26.76,0,0,0,379,214.8a26.44,26.44,0,0,0-1.11-7.64,19.67,19.67,0,0,0-3.33-6.53,17,17,0,0,0-5.46-4.56,17,17,0,0,0-14.95,0,16.92,16.92,0,0,0-5.47,4.56,19.67,19.67,0,0,0-3.33,6.53,26.44,26.44,0,0,0-1.1,7.64A26.75,26.75,0,0,0,345.31,222.53Z" style="fill:#fff"/><path d="M436.15,227.91a15.39,15.39,0,0,1-3.66,4.81,16.41,16.41,0,0,1-5.26,3,19.63,19.63,0,0,1-6.61,1.06,18.24,18.24,0,0,1-8-1.68,17.2,17.2,0,0,1-5.88-4.56,19.94,19.94,0,0,1-3.61-6.7,26.18,26.18,0,0,1-1.24-8.17,31.3,31.3,0,0,1,1.2-8.75,21.61,21.61,0,0,1,3.61-7.32,17.83,17.83,0,0,1,6.16-5,19.18,19.18,0,0,1,8.75-1.89,17.54,17.54,0,0,1,5.67.91,15.26,15.26,0,0,1,4.85,2.62,14.62,14.62,0,0,1,3.58,4.32,16.22,16.22,0,0,1,1.84,6H435.9a15.36,15.36,0,0,0-1.81-5.39,13.56,13.56,0,0,0-3.2-3.78,13,13,0,0,0-4.27-2.26,16.94,16.94,0,0,0-5-.74,17.31,17.31,0,0,0-8.5,1.94,15.85,15.85,0,0,0-5.59,5,21.29,21.29,0,0,0-3,6.9,31.23,31.23,0,0,0-.94,7.52,24.49,24.49,0,0,0,1.11,7.39,19.43,19.43,0,0,0,3.24,6.25,15.65,15.65,0,0,0,5.34,4.31,16.31,16.31,0,0,0,7.4,1.6,17.6,17.6,0,0,0,5.83-.94,14.5,14.5,0,0,0,8.22-7.07,14.58,14.58,0,0,0,1.56-5.71h1.64A18.1,18.1,0,0,1,436.15,227.91Z" style="fill:#fff"/><path d="M463,235.92h-1.65V177.25H463v40.68l29.16-24.24h2.39l-19.39,16.1L496,235.92h-2.21l-19.81-25L463,220Z" style="fill:#fff"/><path d="M561.37,222.73a25.87,25.87,0,0,1-5.3,7.69,23.58,23.58,0,0,1-7.69,5,26.43,26.43,0,0,1-10,1.81A25.33,25.33,0,0,1,527.64,235a24.83,24.83,0,0,1-8.38-6.25,29,29,0,0,1-5.47-9.53,36.08,36.08,0,0,1-2-12.12,41.25,41.25,0,0,1,1.52-10.89,30.78,30.78,0,0,1,4.81-10.06,25.62,25.62,0,0,1,8.54-7.4,26.3,26.3,0,0,1,12.74-2.87,24.94,24.94,0,0,1,10.19,1.93,23.83,23.83,0,0,1,7.27,4.85,20.88,20.88,0,0,1,4.39,6.2,16,16,0,0,1,1.57,6H561.2a15.74,15.74,0,0,0-1.89-6.29,19.39,19.39,0,0,0-4.48-5.54,22.72,22.72,0,0,0-6.73-4,26.33,26.33,0,0,0-20.87,1.4,24.68,24.68,0,0,0-8,7.31,30,30,0,0,0-4.4,9.57,38.83,38.83,0,0,0-1.36,9.78,35.17,35.17,0,0,0,1.65,10.76A27.25,27.25,0,0,0,520,227a24.23,24.23,0,0,0,7.84,6.33,22.8,22.8,0,0,0,10.56,2.38,24.6,24.6,0,0,0,9.45-1.72,21.9,21.9,0,0,0,7.23-4.77A23.93,23.93,0,0,0,560,222a32.43,32.43,0,0,0,2.55-9h1.64A35,35,0,0,1,561.37,222.73Z" style="fill:#fff"/><path d="M588.65,177.25v26.87h.16a14.9,14.9,0,0,1,1.85-4.52,14.3,14.3,0,0,1,7.68-6,19,19,0,0,1,11.71.13,13.23,13.23,0,0,1,4.76,2.91,13.08,13.08,0,0,1,3.13,4.77,17.84,17.84,0,0,1,1.11,6.53v28H617.4V208.15a16.35,16.35,0,0,0-1.07-6.29,11.73,11.73,0,0,0-2.91-4.27,11.54,11.54,0,0,0-4.27-2.46,16.7,16.7,0,0,0-5.14-.79,14.76,14.76,0,0,0-6.65,1.44,14.14,14.14,0,0,0-4.81,3.86,17,17,0,0,0-2.92,5.63,22.75,22.75,0,0,0-1,6.74v23.91H587V177.25Z" style="fill:#fff"/><path d="M645.67,201.21a12.69,12.69,0,0,1,3.08-4.48,14.17,14.17,0,0,1,4.93-3,20,20,0,0,1,6.86-1.07,23.27,23.27,0,0,1,5.3.58,11.37,11.37,0,0,1,4.4,2,10.6,10.6,0,0,1,3,3.74,13.71,13.71,0,0,1,1.23,5.75v26.87a2.76,2.76,0,0,0,.49,1.81,2.52,2.52,0,0,0,1.32.78,6.24,6.24,0,0,0,1.76.16q.95,0,1.77-.12v1.64h-2.47a5.8,5.8,0,0,1-3.16-.86c-.9-.58-1.35-1.66-1.35-3.25v-5.5h-.17a13.29,13.29,0,0,1-2.09,3.94,15.43,15.43,0,0,1-3.62,3.37,18.23,18.23,0,0,1-5,2.34,20.35,20.35,0,0,1-6.08.86q-6.41,0-10.27-2.83t-3.86-8.5a13.45,13.45,0,0,1,1.27-6.33,10,10,0,0,1,3.33-3.74,13.32,13.32,0,0,1,4.68-1.89,37.92,37.92,0,0,1,5.26-.7q4.35-.24,7.48-.45a23.31,23.31,0,0,0,5.13-.82,5.57,5.57,0,0,0,3-1.89,6.07,6.07,0,0,0,1-3.66,26.07,26.07,0,0,0-.33-3.94,8.58,8.58,0,0,0-1.61-3.78,9.22,9.22,0,0,0-3.73-2.84,16.54,16.54,0,0,0-6.66-1.11q-6.66,0-10.35,3.25t-4.11,9.16h-1.64A16.64,16.64,0,0,1,645.67,201.21Zm27,9.9a5.18,5.18,0,0,1-2.55,1.76,20.89,20.89,0,0,1-3.94.95,43,43,0,0,1-4.81.41c-1.72.05-3.41.14-5,.25a39.5,39.5,0,0,0-4.81.61,11.46,11.46,0,0,0-4.15,1.64,8.46,8.46,0,0,0-2.87,3.29,12,12,0,0,0-1.07,5.47,10.57,10.57,0,0,0,.62,3.57,7.49,7.49,0,0,0,2.09,3.12A11.29,11.29,0,0,0,650,234.4a16.75,16.75,0,0,0,5.79.86,18.2,18.2,0,0,0,7.32-1.39,16.52,16.52,0,0,0,5.38-3.66,15.16,15.16,0,0,0,3.29-5.22,17.17,17.17,0,0,0,1.11-6.08v-7.8Z" style="fill:#fff"/><path d="M700.47,185.55v-8.3h1.65v8.3Zm0,50.37V193.69h1.65v42.23Z" style="fill:#fff"/><path d="M729.23,193.69v10.43h.16a15.16,15.16,0,0,1,1.85-4.52,14.29,14.29,0,0,1,3.21-3.61,14.49,14.49,0,0,1,4.47-2.43,19,19,0,0,1,11.71.13,12.82,12.82,0,0,1,7.89,7.68,17.84,17.84,0,0,1,1.11,6.53v28H758V208.15a16.54,16.54,0,0,0-1.07-6.29,11.75,11.75,0,0,0-2.92-4.27,11.54,11.54,0,0,0-4.27-2.46,16.7,16.7,0,0,0-5.14-.79,14.76,14.76,0,0,0-6.65,1.44,14.24,14.24,0,0,0-4.81,3.86,17,17,0,0,0-2.92,5.63,23.08,23.08,0,0,0-1,6.74v23.91h-1.65V193.69Z" style="fill:#fff"/><path d="M813.78,177.25v43.39a24.51,24.51,0,0,1-.87,6.74,13.67,13.67,0,0,1-2.75,5.25,12.1,12.1,0,0,1-5,3.41,20.77,20.77,0,0,1-7.52,1.2,19.07,19.07,0,0,1-7.15-1.2,12.63,12.63,0,0,1-4.84-3.32,13.24,13.24,0,0,1-2.76-5.06,22.51,22.51,0,0,1-.86-6.37v-3.53h1.64v3.53q0,7.25,3.54,10.81t10.43,3.57a21.14,21.14,0,0,0,6.21-.82,10.47,10.47,0,0,0,4.51-2.71,11.92,11.92,0,0,0,2.8-5,27,27,0,0,0,.94-7.72V177.25Z" style="fill:#fff"/><path d="M840.73,201.21a12.56,12.56,0,0,1,3.08-4.48,14.17,14.17,0,0,1,4.93-3,20,20,0,0,1,6.86-1.07,23.27,23.27,0,0,1,5.3.58,11.26,11.26,0,0,1,4.39,2,10.49,10.49,0,0,1,3,3.74,13.55,13.55,0,0,1,1.24,5.75v26.87a2.76,2.76,0,0,0,.49,1.81,2.52,2.52,0,0,0,1.32.78,6.24,6.24,0,0,0,1.76.16q.95,0,1.77-.12v1.64h-2.47a5.8,5.8,0,0,1-3.16-.86,3.57,3.57,0,0,1-1.36-3.25v-5.5h-.16a13.1,13.1,0,0,1-2.1,3.94,15.18,15.18,0,0,1-3.61,3.37,18.23,18.23,0,0,1-5,2.34,20.4,20.4,0,0,1-6.08.86q-6.42,0-10.27-2.83t-3.86-8.5a13.45,13.45,0,0,1,1.27-6.33,10,10,0,0,1,3.33-3.74,13.24,13.24,0,0,1,4.68-1.89,37.72,37.72,0,0,1,5.26-.7q4.35-.24,7.47-.45a23.31,23.31,0,0,0,5.14-.82,5.57,5.57,0,0,0,3-1.89,6.07,6.07,0,0,0,.94-3.66,24.83,24.83,0,0,0-.33-3.94,8.44,8.44,0,0,0-1.6-3.78,9.19,9.19,0,0,0-3.74-2.84,16.45,16.45,0,0,0-6.65-1.11q-6.66,0-10.35,3.25t-4.11,9.16h-1.65A16.65,16.65,0,0,1,840.73,201.21Zm27,9.9a5.18,5.18,0,0,1-2.55,1.76,20.89,20.89,0,0,1-3.94.95,43,43,0,0,1-4.81.41c-1.72.05-3.41.14-5.05.25a39.25,39.25,0,0,0-4.81.61,11.46,11.46,0,0,0-4.15,1.64,8.46,8.46,0,0,0-2.87,3.29,12,12,0,0,0-1.07,5.47,10.8,10.8,0,0,0,.61,3.57,7.61,7.61,0,0,0,2.1,3.12A11.29,11.29,0,0,0,845,234.4a16.75,16.75,0,0,0,5.79.86,18.2,18.2,0,0,0,7.32-1.39,16.52,16.52,0,0,0,5.38-3.66,15.14,15.14,0,0,0,3.28-5.22,17.17,17.17,0,0,0,1.11-6.08v-7.8Z" style="fill:#fff"/><path d="M897.17,193.69v10.43h.17a15.6,15.6,0,0,1,1.8-4.52,14.89,14.89,0,0,1,3.05-3.61,14,14,0,0,1,4-2.43,12.58,12.58,0,0,1,4.64-.86,12.1,12.1,0,0,1,8.26,2.51,12.74,12.74,0,0,1,4.4,7.35h.16a13.05,13.05,0,0,1,4.85-7.15A13.89,13.89,0,0,1,937,192.7a15.71,15.71,0,0,1,6.41,1.15,10.57,10.57,0,0,1,4.11,3.17,12.33,12.33,0,0,1,2.22,4.84,27.79,27.79,0,0,1,.66,6.29v27.77h-1.65V208.15a28.18,28.18,0,0,0-.53-5.67,11,11,0,0,0-1.89-4.36,8.85,8.85,0,0,0-3.62-2.79,14.27,14.27,0,0,0-5.71-1,12.42,12.42,0,0,0-9.69,4.44,14.48,14.48,0,0,0-2.63,4.73,17.47,17.47,0,0,0-.91,5.62v26.79h-1.64V208.81a33.05,33.05,0,0,0-.45-5.59,12.61,12.61,0,0,0-1.68-4.6,8.66,8.66,0,0,0-3.46-3.12,12.4,12.4,0,0,0-5.75-1.16,11.43,11.43,0,0,0-5.67,1.44,13.69,13.69,0,0,0-4.31,3.86,18.28,18.28,0,0,0-2.71,5.63,23.76,23.76,0,0,0-1,6.74v23.91h-1.64V193.69Z" style="fill:#fff"/><path d="M1052.79,235.92h-37.63a12.66,12.66,0,0,1,1.48-6.41,22.71,22.71,0,0,1,4.11-5.38,47.9,47.9,0,0,1,5.71-4.77l6.29-4.47q3.2-2.22,6.24-4.52a45,45,0,0,0,5.42-4.81,22.27,22.27,0,0,0,3.82-5.34,14.17,14.17,0,0,0,.25-11.91,12,12,0,0,0-3.24-4.19,13.88,13.88,0,0,0-4.89-2.55,21.09,21.09,0,0,0-6.21-.86,19.12,19.12,0,0,0-7.47,1.31,13.29,13.29,0,0,0-5.1,3.66,14.65,14.65,0,0,0-2.87,5.58,26.21,26.21,0,0,0-.91,7.11h-1.64q.08-9.19,4.56-14.25t13.43-5.06a23.16,23.16,0,0,1,6.74.95,15.47,15.47,0,0,1,5.42,2.83,13.57,13.57,0,0,1,3.66,4.69,15.9,15.9,0,0,1-1.11,14.95,34.55,34.55,0,0,1-6.2,7.07,77.54,77.54,0,0,1-8.1,6.2q-4.35,2.91-8.17,5.83a45.15,45.15,0,0,0-6.53,6,11.53,11.53,0,0,0-3,6.7h36Z" style="fill:#fff"/><path d="M1115.69,218.42a28.64,28.64,0,0,1-3.49,9.28,19.48,19.48,0,0,1-6.49,6.62,21.59,21.59,0,0,1-20.17,0,19.33,19.33,0,0,1-6.53-6.62,28.65,28.65,0,0,1-3.5-9.28,53.89,53.89,0,0,1,0-20.87,28.8,28.8,0,0,1,3.5-9.29,19.77,19.77,0,0,1,6.53-6.65,21.22,21.22,0,0,1,20.17,0,19.94,19.94,0,0,1,6.49,6.65,28.78,28.78,0,0,1,3.49,9.29,53.37,53.37,0,0,1,0,20.87Zm-1.52-20a28.33,28.33,0,0,0-3.12-8.79,18.71,18.71,0,0,0-6-6.45,19.26,19.26,0,0,0-19,0,18.59,18.59,0,0,0-5.95,6.45,28.35,28.35,0,0,0-3.13,8.79,51,51,0,0,0,0,19.07,28.35,28.35,0,0,0,3.13,8.79,18.59,18.59,0,0,0,5.95,6.45,19.26,19.26,0,0,0,19,0,18.71,18.71,0,0,0,6-6.45,28.33,28.33,0,0,0,3.12-8.79,50.41,50.41,0,0,0,0-19.07Z" style="fill:#fff"/><path d="M1159.2,182.18a23.69,23.69,0,0,1-6.62,6.13,30.25,30.25,0,0,1-8.25,3.73V190.4a33,33,0,0,0,4.52-1.81,27.08,27.08,0,0,0,3.69-2.21,29.77,29.77,0,0,0,3.33-2.8q1.61-1.56,3.33-3.53H1161v55.87h-1.65V182.18Z" style="fill:#fff"/><path d="M1205.42,229a14.5,14.5,0,0,0,4,3.82,14.71,14.71,0,0,0,4.64,1.93,20.69,20.69,0,0,0,4.48.53,17.14,17.14,0,0,0,7.27-1.43,15.77,15.77,0,0,0,5.26-3.91,20.73,20.73,0,0,0,3.54-5.67,38.82,38.82,0,0,0,2.13-6.73,49.33,49.33,0,0,0,1-7.11c.16-2.38.22-4.64.16-6.78h-.16a16.87,16.87,0,0,1-2.3,5.5,18.64,18.64,0,0,1-9.53,7.48,19.29,19.29,0,0,1-6.41,1.07,18.84,18.84,0,0,1-7.11-1.4,19.38,19.38,0,0,1-10.56-10.06,18.67,18.67,0,0,1-1.64-7.85,18.89,18.89,0,0,1,1.56-7.72,19.15,19.15,0,0,1,4.23-6.12,19.39,19.39,0,0,1,6.16-4,19.12,19.12,0,0,1,7.36-1.44,18,18,0,0,1,5.38.78,20.54,20.54,0,0,1,4.56,2,19.48,19.48,0,0,1,9.45,14.42,73.41,73.41,0,0,1,.66,10.14,58.62,58.62,0,0,1-1,10.64,32,32,0,0,1-3.41,9.78,20.78,20.78,0,0,1-6.49,7.19,17.67,17.67,0,0,1-10.23,2.79,19.63,19.63,0,0,1-6.61-1.06,16.66,16.66,0,0,1-5.22-3,15.43,15.43,0,0,1-3.62-4.48,16.23,16.23,0,0,1-1.8-5.55h1.64A16.37,16.37,0,0,0,1205.42,229Zm30.36-37.51a17.79,17.79,0,0,0-9.37-9.37,17.82,17.82,0,0,0-13.8,0,17.79,17.79,0,0,0-9.37,9.37,17.7,17.7,0,0,0,0,13.8,17.79,17.79,0,0,0,9.37,9.37,17.7,17.7,0,0,0,13.8,0,17.79,17.79,0,0,0,9.37-9.37,17.82,17.82,0,0,0,0-13.8Z" style="fill:#fff"/><path d="M248.76,113.56H262v.5h-6.41v17.29h-.5V114.06h-6.37Z" style="fill:#fff"/><path d="M267.47,116.08v-2.52H268v2.52Zm0,15.27V118.54H268v12.81Z" style="fill:#fff"/><path d="M285,128.92a4.6,4.6,0,0,1-1.11,1.46,5,5,0,0,1-1.59.92,5.89,5.89,0,0,1-2,.32,5.56,5.56,0,0,1-2.43-.51,5.27,5.27,0,0,1-1.78-1.38,6.12,6.12,0,0,1-1.1-2,8,8,0,0,1-.37-2.48,9.58,9.58,0,0,1,.36-2.65,6.6,6.6,0,0,1,1.1-2.22,5.3,5.3,0,0,1,1.87-1.53,5.81,5.81,0,0,1,2.65-.57,5.48,5.48,0,0,1,1.72.27,4.56,4.56,0,0,1,1.47.8,4.44,4.44,0,0,1,1.08,1.3,4.93,4.93,0,0,1,.56,1.81h-.5a4.81,4.81,0,0,0-.54-1.63,4.07,4.07,0,0,0-1-1.15,4,4,0,0,0-1.29-.68,5.08,5.08,0,0,0-1.52-.23,5.29,5.29,0,0,0-2.58.59,4.87,4.87,0,0,0-1.69,1.52,6.26,6.26,0,0,0-.92,2.09,9,9,0,0,0-.29,2.28,7.24,7.24,0,0,0,.34,2.24,5.81,5.81,0,0,0,1,1.9,4.71,4.71,0,0,0,1.62,1.3,4.86,4.86,0,0,0,2.24.49,5.39,5.39,0,0,0,1.77-.29,4.34,4.34,0,0,0,2.49-2.14A4.34,4.34,0,0,0,285,127h.5A5.39,5.39,0,0,1,285,128.92Z" style="fill:#fff"/><path d="M292.63,131.35h-.5V113.56h.5v12.33l8.84-7.35h.72l-5.88,4.89,6.31,7.92h-.68l-6-7.57-3.31,2.74Z" style="fill:#fff"/><path d="M307.74,127.45a5.6,5.6,0,0,0,.88,1.93,4.19,4.19,0,0,0,1.55,1.3,5.86,5.86,0,0,0,5.66-.59,4.78,4.78,0,0,0,1.66-3.17h.5a5.15,5.15,0,0,1-1.77,3.47,5.63,5.63,0,0,1-3.69,1.23,5.7,5.7,0,0,1-2.55-.47,4.43,4.43,0,0,1-1.73-1.41,6.22,6.22,0,0,1-1-2.14,10.24,10.24,0,0,1-.32-2.65,7.83,7.83,0,0,1,.47-2.84,6.56,6.56,0,0,1,1.25-2.11,5.21,5.21,0,0,1,1.79-1.31,5.3,5.3,0,0,1,2.09-.44,5.46,5.46,0,0,1,2.58.57,5.12,5.12,0,0,1,1.77,1.52,6.26,6.26,0,0,1,1,2.17,9.25,9.25,0,0,1,.26,2.54H307.42A10.09,10.09,0,0,0,307.74,127.45Zm9.57-5.13a5.46,5.46,0,0,0-.95-1.86,4.54,4.54,0,0,0-1.59-1.25,5.15,5.15,0,0,0-4.14-.07,4.66,4.66,0,0,0-1.6,1.16,6.17,6.17,0,0,0-1.11,1.83,7.82,7.82,0,0,0-.5,2.42h10.22A7.43,7.43,0,0,0,317.31,122.32Z" style="fill:#fff"/><path d="M326,128.86a3,3,0,0,0,.17,1.12,1.36,1.36,0,0,0,.41.6,1,1,0,0,0,.55.23,3.81,3.81,0,0,0,.59,0h.68a1.64,1.64,0,0,0,.42-.06v.49l-.44,0a6.59,6.59,0,0,1-.78,0,2.22,2.22,0,0,1-1.48-.51,2.36,2.36,0,0,1-.61-1.88V119h-2.35v-.5h2.35v-4H326v4h2.89v.5H326Z" style="fill:#fff"/><path d="M362.41,118.54l-4.09,12.81h-.65l-4-12.31h-.05l-4,12.31h-.7l-4-12.81h.47l3.81,12.31h.05l4-12.31H354L358,130.85h0l3.89-12.31Z" style="fill:#fff"/><path d="M368.06,116.08v-2.52h.5v2.52Zm0,15.27V118.54h.5v12.81Z" style="fill:#fff"/><path d="M376.28,113.56v17.79h-.5V113.56Z" style="fill:#fff"/><path d="M384,113.56v17.79h-.49V113.56Z" style="fill:#fff"/><path d="M403.19,122.13a5,5,0,0,1,5.13-3.88,4.93,4.93,0,0,1,2.34.54,5.27,5.27,0,0,1,1.71,1.47,6.93,6.93,0,0,1,1,2.15,9.55,9.55,0,0,1,0,5.23,6.32,6.32,0,0,1-1.08,2.1,5.25,5.25,0,0,1-1.72,1.39,5.59,5.59,0,0,1-5.58-.58,5.36,5.36,0,0,1-1.83-2.79h-.05v3.59h-.5V113.56h.5v8.57Zm.3,5.21a6.1,6.1,0,0,0,1,2,4.87,4.87,0,0,0,1.64,1.34,4.71,4.71,0,0,0,2.19.5,4.58,4.58,0,0,0,2.18-.5,4.29,4.29,0,0,0,1.54-1.36,6,6,0,0,0,.92-2,8.53,8.53,0,0,0,.32-2.34,8.92,8.92,0,0,0-.29-2.23,6.52,6.52,0,0,0-.88-2,4.86,4.86,0,0,0-1.54-1.45,4.32,4.32,0,0,0-2.25-.56,4.77,4.77,0,0,0-3.76,1.61,6.74,6.74,0,0,0-1.42,4.62A7.73,7.73,0,0,0,403.49,127.34Z" style="fill:#fff"/><path d="M420.56,127.45a5.62,5.62,0,0,0,.89,1.93,4.24,4.24,0,0,0,1.54,1.3,5.88,5.88,0,0,0,5.67-.59,4.78,4.78,0,0,0,1.66-3.17h.49a5.07,5.07,0,0,1-1.77,3.47,5.58,5.58,0,0,1-3.68,1.23,5.75,5.75,0,0,1-2.56-.47,4.5,4.5,0,0,1-1.73-1.41,6,6,0,0,1-1-2.14,10.23,10.23,0,0,1-.33-2.65,7.83,7.83,0,0,1,.48-2.84,6.72,6.72,0,0,1,1.24-2.11,5.21,5.21,0,0,1,3.89-1.75,5.49,5.49,0,0,1,2.58.57,5.12,5.12,0,0,1,1.77,1.52,6.43,6.43,0,0,1,1,2.17,8.54,8.54,0,0,1,.26,2.54H420.25A10.64,10.64,0,0,0,420.56,127.45Zm9.58-5.13a5.3,5.3,0,0,0-1-1.86,4.41,4.41,0,0,0-1.58-1.25,5.17,5.17,0,0,0-4.15-.07,4.63,4.63,0,0,0-1.59,1.16,6,6,0,0,0-1.11,1.83,7.82,7.82,0,0,0-.5,2.42h10.21A7.42,7.42,0,0,0,430.14,122.32Z" style="fill:#fff"/><path d="M448.55,122.42a6.35,6.35,0,0,1,1.11-2.13,5.44,5.44,0,0,1,1.81-1.48,5.2,5.2,0,0,1,2.49-.56,5.13,5.13,0,0,1,2.46.56,5.44,5.44,0,0,1,1.81,1.48,6.35,6.35,0,0,1,1.11,2.13,8.83,8.83,0,0,1,0,5.06,6.55,6.55,0,0,1-1.11,2.13,5.53,5.53,0,0,1-1.81,1.47,5.44,5.44,0,0,1-2.49.54,5.37,5.37,0,0,1-2.46-.54,5.53,5.53,0,0,1-1.81-1.47,6.55,6.55,0,0,1-1.11-2.13,8.83,8.83,0,0,1,0-5.06Zm.46,4.87a6,6,0,0,0,1,2,5,5,0,0,0,1.66,1.37,5.28,5.28,0,0,0,4.53,0,5,5,0,0,0,1.66-1.37,6,6,0,0,0,1-2,8.27,8.27,0,0,0,.33-2.34,8.18,8.18,0,0,0-.33-2.32,6,6,0,0,0-1-2,5.18,5.18,0,0,0-1.66-1.38,5.1,5.1,0,0,0-4.53,0,5.18,5.18,0,0,0-1.66,1.38,6,6,0,0,0-1,2,8.18,8.18,0,0,0-.33,2.32A8.27,8.27,0,0,0,449,127.29Z" style="fill:#fff"/><path d="M466.76,118.54v3.17h.05a4.76,4.76,0,0,1,.56-1.37,4.26,4.26,0,0,1,2.33-1.83,5.22,5.22,0,0,1,1.72-.26,5.62,5.62,0,0,1,1.83.29,4.06,4.06,0,0,1,1.45.89,4,4,0,0,1,.94,1.44,5.34,5.34,0,0,1,.34,2v8.5h-.5v-8.42a5.16,5.16,0,0,0-.32-1.91,3.54,3.54,0,0,0-.89-1.29A3.48,3.48,0,0,0,473,119a5,5,0,0,0-1.56-.24,4.48,4.48,0,0,0-2,.44,4.26,4.26,0,0,0-1.45,1.17,5,5,0,0,0-.89,1.71,6.9,6.9,0,0,0-.3,2v7.25h-.5V118.54Z" style="fill:#fff"/><path d="M502.66,120.69a2.85,2.85,0,0,0-.85-1.11,3.6,3.6,0,0,0-1.3-.64,6.81,6.81,0,0,0-1.69-.2,4.9,4.9,0,0,0-2.11.37,3.12,3.12,0,0,0-1.15.82,2.09,2.09,0,0,0-.47.91,3.09,3.09,0,0,0-.1.62,2.44,2.44,0,0,0,.38,1.46,2.49,2.49,0,0,0,1,.78,10.88,10.88,0,0,0,1.46.47l1.83.48,1.48.41a5.28,5.28,0,0,1,1.32.58,3.08,3.08,0,0,1,.95,1,2.78,2.78,0,0,1,.36,1.5,3.14,3.14,0,0,1-.41,1.64,3.54,3.54,0,0,1-1.08,1.1,4.72,4.72,0,0,1-1.49.61,7.88,7.88,0,0,1-1.66.18,5.78,5.78,0,0,1-3.87-1.12A4.4,4.4,0,0,1,494,127h.5a3.89,3.89,0,0,0,1.21,3.18,5.28,5.28,0,0,0,3.47,1,6.55,6.55,0,0,0,1.44-.16,4.45,4.45,0,0,0,1.33-.52,3.15,3.15,0,0,0,1-.94,2.42,2.42,0,0,0,.39-1.39,2.21,2.21,0,0,0-.39-1.37,3,3,0,0,0-1-.86,5.59,5.59,0,0,0-1.41-.54l-1.62-.4c-.61-.15-1.16-.29-1.62-.42a8.22,8.22,0,0,1-1.25-.45,2.48,2.48,0,0,1-1.17-1,3.23,3.23,0,0,1-.37-1.67,3,3,0,0,1,.22-1.1,2.73,2.73,0,0,1,.75-1,4,4,0,0,1,1.35-.78,6.15,6.15,0,0,1,2-.29,5.36,5.36,0,0,1,3.39,1,3.7,3.7,0,0,1,1.25,3.11H503A4,4,0,0,0,502.66,120.69Z" style="fill:#fff"/><path d="M511,120.82a3.87,3.87,0,0,1,.94-1.35,4.19,4.19,0,0,1,1.49-.9,5.94,5.94,0,0,1,2.08-.32,7,7,0,0,1,1.61.17,3.53,3.53,0,0,1,1.33.61,3.21,3.21,0,0,1,.92,1.13,4.23,4.23,0,0,1,.38,1.75v8.14a.82.82,0,0,0,.15.55.69.69,0,0,0,.39.24,1.91,1.91,0,0,0,.54,0l.54,0v.5h-.75a1.77,1.77,0,0,1-1-.26,1.09,1.09,0,0,1-.41-1v-1.66h-.05a4.18,4.18,0,0,1-.64,1.19,4.64,4.64,0,0,1-1.09,1,5.53,5.53,0,0,1-1.51.71,6,6,0,0,1-1.84.26,5.11,5.11,0,0,1-3.12-.86,3,3,0,0,1-1.17-2.57,4,4,0,0,1,.39-1.92,3,3,0,0,1,1-1.14,4,4,0,0,1,1.42-.57,10.83,10.83,0,0,1,1.59-.21l2.27-.14A6.5,6.5,0,0,0,518,124a1.64,1.64,0,0,0,.9-.57,1.86,1.86,0,0,0,.29-1.11,8.31,8.31,0,0,0-.1-1.19,2.61,2.61,0,0,0-.49-1.15,2.74,2.74,0,0,0-1.13-.86,5.07,5.07,0,0,0-2-.34,4.6,4.6,0,0,0-3.14,1,3.84,3.84,0,0,0-1.24,2.78h-.5A5.26,5.26,0,0,1,511,120.82Zm8.2,3a1.59,1.59,0,0,1-.77.53,6.21,6.21,0,0,1-1.2.29,12.68,12.68,0,0,1-1.46.12c-.52,0-1,0-1.53.08a11.65,11.65,0,0,0-1.46.18,3.7,3.7,0,0,0-1.26.5,2.66,2.66,0,0,0-.87,1,3.71,3.71,0,0,0-.32,1.66,3.15,3.15,0,0,0,.19,1.08,2.27,2.27,0,0,0,.63.95,3.69,3.69,0,0,0,1.16.67,5.23,5.23,0,0,0,1.76.26,5.48,5.48,0,0,0,2.21-.42,5,5,0,0,0,1.63-1.11,4.61,4.61,0,0,0,1-1.58,5.13,5.13,0,0,0,.34-1.85v-2.36Z" style="fill:#fff"/><path d="M527.6,113.56v17.79h-.5V113.56Z" style="fill:#fff"/><path d="M534.88,127.45a5.62,5.62,0,0,0,.89,1.93,4.24,4.24,0,0,0,1.54,1.3,5.88,5.88,0,0,0,5.67-.59,4.78,4.78,0,0,0,1.66-3.17h.5a5.15,5.15,0,0,1-1.77,3.47,6.51,6.51,0,0,1-6.24.76,4.46,4.46,0,0,1-1.74-1.41,6.2,6.2,0,0,1-1-2.14,10.23,10.23,0,0,1-.33-2.65,7.83,7.83,0,0,1,.48-2.84,6.72,6.72,0,0,1,1.24-2.11,5.35,5.35,0,0,1,1.8-1.31,5.26,5.26,0,0,1,2.09-.44,5.46,5.46,0,0,1,2.58.57,5.12,5.12,0,0,1,1.77,1.52,6.25,6.25,0,0,1,1,2.17,8.88,8.88,0,0,1,.27,2.54H534.57A10.64,10.64,0,0,0,534.88,127.45Zm9.58-5.13a5.3,5.3,0,0,0-1-1.86,4.41,4.41,0,0,0-1.58-1.25,5.17,5.17,0,0,0-4.15-.07,4.72,4.72,0,0,0-1.59,1.16,6,6,0,0,0-1.11,1.83,7.82,7.82,0,0,0-.5,2.42h10.22A7.43,7.43,0,0,0,544.46,122.32Z" style="fill:#fff"/><path d="M571.22,120.69a2.85,2.85,0,0,0-.85-1.11,3.57,3.57,0,0,0-1.31-.64,6.67,6.67,0,0,0-1.68-.2,5,5,0,0,0-2.12.37,3.16,3.16,0,0,0-1.14.82,2.09,2.09,0,0,0-.47.91,3.35,3.35,0,0,0-.11.62,2.37,2.37,0,0,0,.39,1.46,2.43,2.43,0,0,0,1,.78,10.73,10.73,0,0,0,1.45.47l1.83.48,1.49.41a5.28,5.28,0,0,1,1.32.58,3,3,0,0,1,.94,1,2.77,2.77,0,0,1,.37,1.5,3.05,3.05,0,0,1-.42,1.64,3.41,3.41,0,0,1-1.07,1.1,4.82,4.82,0,0,1-1.49.61,7.88,7.88,0,0,1-1.66.18,5.78,5.78,0,0,1-3.87-1.12,4.37,4.37,0,0,1-1.31-3.54h.5a3.89,3.89,0,0,0,1.21,3.18,5.28,5.28,0,0,0,3.47,1,6.46,6.46,0,0,0,1.43-.16,4.51,4.51,0,0,0,1.34-.52,3.38,3.38,0,0,0,1-.94,2.42,2.42,0,0,0,.39-1.39,2.21,2.21,0,0,0-.39-1.37,3,3,0,0,0-1-.86,5.37,5.37,0,0,0-1.4-.54l-1.62-.4q-.93-.23-1.62-.42a8.22,8.22,0,0,1-1.25-.45,2.48,2.48,0,0,1-1.17-1,3.23,3.23,0,0,1-.37-1.67,3,3,0,0,1,.22-1.1,2.73,2.73,0,0,1,.75-1,4,4,0,0,1,1.34-.78,6.21,6.21,0,0,1,2-.29,5.36,5.36,0,0,1,3.39,1,3.7,3.7,0,0,1,1.25,3.11h-.5A4,4,0,0,0,571.22,120.69Z" style="fill:#fff"/><path d="M578.89,122.42a6.35,6.35,0,0,1,1.11-2.13,5.44,5.44,0,0,1,1.81-1.48,5.2,5.2,0,0,1,2.49-.56,5.13,5.13,0,0,1,2.46.56,5.44,5.44,0,0,1,1.81,1.48,6.35,6.35,0,0,1,1.11,2.13,8.83,8.83,0,0,1,0,5.06,6.55,6.55,0,0,1-1.11,2.13,5.53,5.53,0,0,1-1.81,1.47,5.44,5.44,0,0,1-2.49.54,5.37,5.37,0,0,1-2.46-.54,5.53,5.53,0,0,1-1.81-1.47,6.55,6.55,0,0,1-1.11-2.13,8.83,8.83,0,0,1,0-5.06Zm.46,4.87a6,6,0,0,0,1,2,5,5,0,0,0,1.66,1.37,5.28,5.28,0,0,0,4.53,0,5,5,0,0,0,1.66-1.37,6,6,0,0,0,1-2,8.27,8.27,0,0,0,.33-2.34,8.18,8.18,0,0,0-.33-2.32,6,6,0,0,0-1-2,5.18,5.18,0,0,0-1.66-1.38,5.1,5.1,0,0,0-4.53,0,5.18,5.18,0,0,0-1.66,1.38,6,6,0,0,0-1,2A8.18,8.18,0,0,0,579,125,8.27,8.27,0,0,0,579.35,127.29Z" style="fill:#fff"/><path d="M596.3,122.42a6.35,6.35,0,0,1,1.11-2.13,5.54,5.54,0,0,1,1.81-1.48,5.77,5.77,0,0,1,5,0,5.5,5.5,0,0,1,1.8,1.48,6.35,6.35,0,0,1,1.11,2.13,8.61,8.61,0,0,1,0,5.06,6.55,6.55,0,0,1-1.11,2.13,5.6,5.6,0,0,1-1.8,1.47,5.5,5.5,0,0,1-2.49.54,5.41,5.41,0,0,1-2.47-.54,5.64,5.64,0,0,1-1.81-1.47,6.55,6.55,0,0,1-1.11-2.13,8.83,8.83,0,0,1,0-5.06Zm.47,4.87a5.8,5.8,0,0,0,1,2,5,5,0,0,0,1.65,1.37,4.91,4.91,0,0,0,2.28.51,4.85,4.85,0,0,0,2.26-.51,5.09,5.09,0,0,0,1.65-1.37,5.8,5.8,0,0,0,1-2A7.93,7.93,0,0,0,607,125a7.85,7.85,0,0,0-.34-2.32,5.8,5.8,0,0,0-1-2,5.25,5.25,0,0,0-1.65-1.38,4.74,4.74,0,0,0-2.26-.53,4.8,4.8,0,0,0-2.28.53,5.14,5.14,0,0,0-1.65,1.38,5.8,5.8,0,0,0-1,2,7.85,7.85,0,0,0-.34,2.32A7.93,7.93,0,0,0,596.77,127.29Z" style="fill:#fff"/><path d="M614.52,118.54v3.17h.05a4.42,4.42,0,0,1,1.53-2.47,4.33,4.33,0,0,1,1.36-.73,5.12,5.12,0,0,1,1.71-.26,5.68,5.68,0,0,1,1.84.29,4.1,4.1,0,0,1,1.44.89,4,4,0,0,1,.95,1.44,5.55,5.55,0,0,1,.33,2v8.5h-.49v-8.42a5,5,0,0,0-.33-1.91,3.52,3.52,0,0,0-.88-1.29,3.6,3.6,0,0,0-1.3-.75,5,5,0,0,0-1.56-.24,4.44,4.44,0,0,0-2,.44,4.3,4.3,0,0,0-1.46,1.17,5.15,5.15,0,0,0-.89,1.71,7.24,7.24,0,0,0-.29,2v7.25H614V118.54Z" style="fill:#fff"/><path d="M632.8,131.35v-2.44h.5v2.44Z" style="fill:#fff"/></g></svg>