<svg xmlns="http://www.w3.org/2000/svg" xmlns:xlink="http://www.w3.org/1999/xlink" viewBox="0 0 1500 996.63"><defs><style>.cls-1{fill:url(#linear-gradient);}.cls-2{fill:#fff;}.cls-3{fill:none;stroke:#231815;stroke-miterlimit:10;stroke-width:0.5px;}</style><linearGradient id="linear-gradient" x1="33.2" y1="-43.88" x2="1510.76" y2="1073.93" gradientUnits="userSpaceOnUse"><stop offset="0.02" stop-color="aqua"/><stop offset="0.03" stop-color="#00f8fa"/><stop offset="0.14" stop-color="#00c1d5"/><stop offset="0.25" stop-color="#0093b6"/><stop offset="0.35" stop-color="#006f9e"/><stop offset="0.45" stop-color="#00558c"/><stop offset="0.53" stop-color="#004582"/><stop offset="0.6" stop-color="#00407e"/><stop offset="0.63" stop-color="#003b77"/><stop offset="0.79" stop-color="#001e4e"/><stop offset="0.92" stop-color="#000d35"/><stop offset="1" stop-color="#00062c"/></linearGradient></defs><title>BCJ_web_PC 4_EN_OL</title><g id="レイヤー_2" data-name="レイヤー 2"><rect class="cls-1" width="1499.85" height="996.68"/><path class="cls-2" d="M727.39,131.41H714.25a4.31,4.31,0,0,1,.52-2.24,7.87,7.87,0,0,1,1.43-1.88,16.51,16.51,0,0,1,2-1.66l2.2-1.57c.74-.51,1.47-1,2.18-1.57a16.47,16.47,0,0,0,1.89-1.68,7.82,7.82,0,0,0,1.33-1.87,4.87,4.87,0,0,0,.09-4.15,4.35,4.35,0,0,0-1.13-1.47,5.14,5.14,0,0,0-1.71-.89,7.42,7.42,0,0,0-2.16-.3,6.77,6.77,0,0,0-2.61.46,4.61,4.61,0,0,0-1.78,1.28,5,5,0,0,0-1,1.95,9.2,9.2,0,0,0-.31,2.48h-.58a7.35,7.35,0,0,1,1.6-5,6,6,0,0,1,4.69-1.76,8.09,8.09,0,0,1,2.35.33,5.5,5.5,0,0,1,1.89,1,4.91,4.91,0,0,1,1.28,1.63,5.58,5.58,0,0,1-.39,5.22,11.88,11.88,0,0,1-2.17,2.47,26.89,26.89,0,0,1-2.82,2.16q-1.53,1-2.85,2a16.81,16.81,0,0,0-2.29,2.09,4.09,4.09,0,0,0-1.06,2.34h12.57Z"/><path class="cls-2" d="M747,125.3a10,10,0,0,1-1.21,3.24,7,7,0,0,1-2.27,2.31,7.56,7.56,0,0,1-7,0,6.81,6.81,0,0,1-2.28-2.31A10.22,10.22,0,0,1,733,125.3a18.63,18.63,0,0,1,0-7.29,10.22,10.22,0,0,1,1.22-3.24,6.84,6.84,0,0,1,2.28-2.32,7.41,7.41,0,0,1,7,0,7,7,0,0,1,2.27,2.32A10,10,0,0,1,747,118a18.63,18.63,0,0,1,0,7.29Zm-.53-7a9.83,9.83,0,0,0-1.09-3.07,6.39,6.39,0,0,0-2.07-2.25,6.68,6.68,0,0,0-6.63,0,6.51,6.51,0,0,0-2.08,2.25,10.08,10.08,0,0,0-1.09,3.07,18,18,0,0,0,0,6.65,10.08,10.08,0,0,0,1.09,3.07,6.51,6.51,0,0,0,2.08,2.25,6.68,6.68,0,0,0,6.63,0,6.39,6.39,0,0,0,2.07-2.25,9.83,9.83,0,0,0,1.09-3.07,17.43,17.43,0,0,0,0-6.65Z"/><path class="cls-2" d="M759.94,112.65a8.65,8.65,0,0,1-2.31,2.14,10.82,10.82,0,0,1-2.88,1.3v-.57a11.14,11.14,0,0,0,1.57-.63,9.21,9.21,0,0,0,1.29-.78,9.55,9.55,0,0,0,1.17-1c.37-.37.76-.78,1.16-1.24h.63v19.51H760V112.65Z"/><path class="cls-2" d="M784.56,122.33a5,5,0,0,1,1.33,3.63,5.58,5.58,0,0,1-.57,2.61,5.23,5.23,0,0,1-1.54,1.79,6.46,6.46,0,0,1-2.25,1,11.42,11.42,0,0,1-5.45,0,6.46,6.46,0,0,1-2.25-1,5.2,5.2,0,0,1-1.53-1.79,5.59,5.59,0,0,1-.58-2.61,5,5,0,0,1,1.34-3.63,5.61,5.61,0,0,1,3.65-1.62v-.06a5.22,5.22,0,0,1-1.56-.47,5.13,5.13,0,0,1-1.28-.89A3.93,3.93,0,0,1,773,118a3.8,3.8,0,0,1-.31-1.55,5,5,0,0,1,.47-2.25,4.22,4.22,0,0,1,1.31-1.53,5.44,5.44,0,0,1,1.95-.88,10.62,10.62,0,0,1,4.76,0,5.6,5.6,0,0,1,1.95.88,4.19,4.19,0,0,1,1.3,1.53,4.86,4.86,0,0,1,.48,2.25,3.8,3.8,0,0,1-.32,1.55,3.93,3.93,0,0,1-.86,1.25,5,5,0,0,1-1.28.89,5.05,5.05,0,0,1-1.56.47v.06A5.62,5.62,0,0,1,784.56,122.33Zm.21,1.27a4.31,4.31,0,0,0-1.45-1.52,6.14,6.14,0,0,0-2.07-.81,12,12,0,0,0-4.88,0,6.19,6.19,0,0,0-2.08.81,4.49,4.49,0,0,0-1.45,1.52,4.73,4.73,0,0,0-.54,2.36,4.93,4.93,0,0,0,.53,2.39,4.56,4.56,0,0,0,1.43,1.62,6.14,6.14,0,0,0,2.08.92,10.62,10.62,0,0,0,4.93,0,6.05,6.05,0,0,0,2.08-.92,4.59,4.59,0,0,0,1.44-1.62,5.05,5.05,0,0,0,.53-2.39A4.63,4.63,0,0,0,784.77,123.6Zm-.9-9.2a3.72,3.72,0,0,0-1.25-1.33,5,5,0,0,0-1.76-.72,9.66,9.66,0,0,0-4.1,0,5.16,5.16,0,0,0-1.77.72,3.69,3.69,0,0,0-1.24,1.33,4.12,4.12,0,0,0-.48,2.09,3.19,3.19,0,0,0,.5,1.79,4.06,4.06,0,0,0,1.3,1.24,6.06,6.06,0,0,0,1.77.7,8.51,8.51,0,0,0,3.93,0,6.24,6.24,0,0,0,1.78-.7,3.92,3.92,0,0,0,1.29-1.24,3.11,3.11,0,0,0,.5-1.79A4.12,4.12,0,0,0,783.87,114.4Z"/><path class="cls-2" d="M793.92,131.41V128.6h.58v2.81Z"/><path class="cls-2" d="M810.13,112.65a8.65,8.65,0,0,1-2.31,2.14,10.82,10.82,0,0,1-2.88,1.3v-.57a11.14,11.14,0,0,0,1.57-.63,9.21,9.21,0,0,0,1.29-.78,9.47,9.47,0,0,0,1.16-1c.38-.37.76-.78,1.17-1.24h.63v19.51h-.58V112.65Z"/><path class="cls-2" d="M836,125.3a10.22,10.22,0,0,1-1.22,3.24,6.87,6.87,0,0,1-2.27,2.31,6.56,6.56,0,0,1-3.52.87,6.63,6.63,0,0,1-3.52-.87,7,7,0,0,1-2.28-2.31A10,10,0,0,1,822,125.3a18.63,18.63,0,0,1,0-7.29,10,10,0,0,1,1.21-3.24,7,7,0,0,1,2.28-2.32,6.55,6.55,0,0,1,3.52-.89,6.47,6.47,0,0,1,3.52.89,6.9,6.9,0,0,1,2.27,2.32A10.22,10.22,0,0,1,836,118a18.63,18.63,0,0,1,0,7.29Zm-.53-7a9.83,9.83,0,0,0-1.09-3.07,6.51,6.51,0,0,0-2.08-2.25,6.67,6.67,0,0,0-6.62,0,6.32,6.32,0,0,0-2.08,2.25,9.83,9.83,0,0,0-1.09,3.07,17.43,17.43,0,0,0,0,6.65,9.83,9.83,0,0,0,1.09,3.07,6.32,6.32,0,0,0,2.08,2.25,6.67,6.67,0,0,0,6.62,0,6.51,6.51,0,0,0,2.08-2.25,9.83,9.83,0,0,0,1.09-3.07,18,18,0,0,0,0-6.65Z"/><path class="cls-2" d="M844.11,131.41V128.6h.58v2.81Z"/><path class="cls-2" d="M866.54,131.41H853.4a4.41,4.41,0,0,1,.52-2.24,7.87,7.87,0,0,1,1.43-1.88,16.63,16.63,0,0,1,2-1.66l2.19-1.57c.75-.51,1.47-1,2.18-1.57a15.66,15.66,0,0,0,1.89-1.68,7.86,7.86,0,0,0,1.34-1.87,4.7,4.7,0,0,0,.5-2.13,4.58,4.58,0,0,0-.42-2,4.11,4.11,0,0,0-1.13-1.47,5.14,5.14,0,0,0-1.71-.89,7.42,7.42,0,0,0-2.16-.3,6.81,6.81,0,0,0-2.61.46,4.61,4.61,0,0,0-1.78,1.28,5,5,0,0,0-1,1.95,9.19,9.19,0,0,0-.32,2.48h-.57a7.4,7.4,0,0,1,1.59-5,6,6,0,0,1,4.69-1.76,8.09,8.09,0,0,1,2.35.33,5.32,5.32,0,0,1,1.89,1,4.79,4.79,0,0,1,1.28,1.63,5.3,5.3,0,0,1,.47,2.3,5.18,5.18,0,0,1-.86,2.92A11.82,11.82,0,0,1,863,122.2a26,26,0,0,1-2.83,2.16q-1.51,1-2.85,2a16.13,16.13,0,0,0-2.28,2.09,4,4,0,0,0-1.06,2.34h12.56Z"/><path class="cls-2" d="M879.7,112.65a8.36,8.36,0,0,1-2.31,2.14,10.54,10.54,0,0,1-2.88,1.3v-.57a11.3,11.3,0,0,0,1.58-.63,9.21,9.21,0,0,0,1.29-.78,9.47,9.47,0,0,0,1.16-1c.37-.37.76-.78,1.16-1.24h.63v19.51h-.57V112.65Z"/><path class="cls-2" d="M916.66,114a5,5,0,0,0-1.41-1.75,5.32,5.32,0,0,0-2.08-1,11.14,11.14,0,0,0-2.58-.29,12.35,12.35,0,0,0-2.21.22,6.46,6.46,0,0,0-2.08.76,4.61,4.61,0,0,0-1.53,1.45,4,4,0,0,0-.6,2.28,3.64,3.64,0,0,0,.61,2.21,4.61,4.61,0,0,0,1.61,1.34,9,9,0,0,0,2.25.81l2.58.6,2.71.72a8.66,8.66,0,0,1,2.22.91,4.31,4.31,0,0,1,1.51,1.52,5.09,5.09,0,0,1,.56,2.56,4.7,4.7,0,0,1-.63,2.49,5.42,5.42,0,0,1-1.66,1.71,7.22,7.22,0,0,1-2.33,1,11.49,11.49,0,0,1-2.61.3,12.14,12.14,0,0,1-3.22-.4,6.77,6.77,0,0,1-2.56-1.27,5.91,5.91,0,0,1-1.66-2.25,8.18,8.18,0,0,1-.56-3.33h.57a8,8,0,0,0,.55,3.11,5.3,5.3,0,0,0,1.53,2.08A6.14,6.14,0,0,0,908,131a11.61,11.61,0,0,0,3,.36,10.84,10.84,0,0,0,2.4-.27,6.74,6.74,0,0,0,2.13-.88,4.85,4.85,0,0,0,1.54-1.55,4.2,4.2,0,0,0,.59-2.26,4,4,0,0,0-.68-2.45,4.83,4.83,0,0,0-1.72-1.44,9.61,9.61,0,0,0-2.32-.8c-.85-.18-1.67-.37-2.45-.56s-1.65-.39-2.47-.6a8.79,8.79,0,0,1-2.22-.88,4.46,4.46,0,0,1-1.59-1.49,4.32,4.32,0,0,1-.61-2.42,4.74,4.74,0,0,1,.63-2.54,4.8,4.8,0,0,1,1.64-1.62,7.16,7.16,0,0,1,2.25-.86,12.37,12.37,0,0,1,2.48-.26,11.2,11.2,0,0,1,2.8.33,6.14,6.14,0,0,1,2.23,1.06,5.24,5.24,0,0,1,1.54,1.92,7.7,7.7,0,0,1,.66,2.91h-.58A6.44,6.44,0,0,0,916.66,114Z"/><path class="cls-2" d="M939.56,110.93v12.85q0,4.13-1.92,6.11a8.93,8.93,0,0,1-11.19,0q-1.92-2-1.92-6.11V110.93h.57v12.85a8.31,8.31,0,0,0,1.69,5.62q1.69,1.92,5.25,1.92t5.25-1.92a8.26,8.26,0,0,0,1.69-5.62V110.93Z"/><path class="cls-2" d="M947,110.93l14,19.76H961V110.93h.57v20.48h-.86l-14-19.76h-.06v19.76h-.57V110.93Z"/><path class="cls-2" d="M987.16,110.44h.58l-9.38,21.42h-.55Z"/><path class="cls-2" d="M1003.94,131.41V110.93h8.38a7.14,7.14,0,0,1,4.7,1.27,5.15,5.15,0,0,1,1.55,4,4.91,4.91,0,0,1-1.09,3.42,5.84,5.84,0,0,1-3.3,1.85v.06a6,6,0,0,1,2.09.62,3.16,3.16,0,0,1,1.24,1.16,4.56,4.56,0,0,1,.57,1.69,14.76,14.76,0,0,1,.14,2.21q0,.44,0,1.08c0,.43,0,.85.09,1.27s.09.8.14,1.15a2.08,2.08,0,0,0,.23.72h-.63a3.91,3.91,0,0,1-.23-.85c-.06-.35-.1-.73-.13-1.13s-.05-.81-.05-1.22,0-.78,0-1.11a11.74,11.74,0,0,0-.19-2.25,3.4,3.4,0,0,0-.76-1.66,3.55,3.55,0,0,0-1.63-1,9.09,9.09,0,0,0-2.84-.36h-7.71v9.61Zm8.23-10.19a8.34,8.34,0,0,0,2.2-.28,5.27,5.27,0,0,0,1.85-.92,4.81,4.81,0,0,0,1.29-1.59,5.12,5.12,0,0,0,.49-2.31,4.55,4.55,0,0,0-1.32-3.4,6,6,0,0,0-4.22-1.22h-7.94v9.72Z"/><path class="cls-2" d="M1024.59,121.12a7.44,7.44,0,0,1,1.28-2.45A6.28,6.28,0,0,1,1028,117a6.57,6.57,0,0,1,5.7,0,6.28,6.28,0,0,1,2.08,1.7,7.44,7.44,0,0,1,1.28,2.45,10.1,10.1,0,0,1,0,5.83,7.44,7.44,0,0,1-1.28,2.45,6.31,6.31,0,0,1-9.86,0,7.44,7.44,0,0,1-1.28-2.45,10.1,10.1,0,0,1,0-5.83Zm.53,5.61a7,7,0,0,0,1.16,2.28,5.84,5.84,0,0,0,1.91,1.58,6.07,6.07,0,0,0,5.22,0,5.74,5.74,0,0,0,1.91-1.58,7,7,0,0,0,1.16-2.28,9.4,9.4,0,0,0,0-5.36,7,7,0,0,0-1.16-2.28,5.89,5.89,0,0,0-1.91-1.59,5.89,5.89,0,0,0-5.22,0,6,6,0,0,0-1.91,1.59,7,7,0,0,0-1.16,2.28,9.4,9.4,0,0,0,0,5.36Z"/><path class="cls-2" d="M1043.26,136.45V116.66h.58v4.13h.05a6.65,6.65,0,0,1,.83-1.79,6.52,6.52,0,0,1,1.3-1.42,5.49,5.49,0,0,1,1.7-.93,6.39,6.39,0,0,1,2.08-.33,5.91,5.91,0,0,1,2.63.57,5.78,5.78,0,0,1,2,1.61,7.31,7.31,0,0,1,1.25,2.44,10.31,10.31,0,0,1,.43,3.07,10.62,10.62,0,0,1-.41,2.95,7.8,7.8,0,0,1-1.21,2.47,5.75,5.75,0,0,1-2,1.67,5.66,5.66,0,0,1-2.7.62,5.73,5.73,0,0,1-5.91-4.44h-.05v9.17Zm9.14-5.92a5.59,5.59,0,0,0,1.76-1.66,7.37,7.37,0,0,0,1-2.3,10.16,10.16,0,0,0,.33-2.56,9.91,9.91,0,0,0-.36-2.71,7.3,7.3,0,0,0-1.06-2.27,5,5,0,0,0-1.78-1.56,5.28,5.28,0,0,0-2.51-.58,5.47,5.47,0,0,0-4.4,2.13,6.81,6.81,0,0,0-1.16,2.26,9.06,9.06,0,0,0-.4,2.73,7.8,7.8,0,0,0,1.63,5.32,5.5,5.5,0,0,0,4.33,1.85A5,5,0,0,0,1052.4,130.53Z"/><path class="cls-2" d="M1062.1,136.45V116.66h.58v4.13h0a6.67,6.67,0,0,1,.84-1.79,6.24,6.24,0,0,1,1.29-1.42,5.49,5.49,0,0,1,1.7-.93,6.39,6.39,0,0,1,2.08-.33,5.64,5.64,0,0,1,4.61,2.18,7.3,7.3,0,0,1,1.24,2.44,10.31,10.31,0,0,1,.43,3.07,10.62,10.62,0,0,1-.41,2.95,7.8,7.8,0,0,1-1.21,2.47,5.75,5.75,0,0,1-2,1.67,5.63,5.63,0,0,1-2.7.62,5.73,5.73,0,0,1-5.91-4.44h0v9.17Zm9.14-5.92a5.48,5.48,0,0,0,1.76-1.66,7.37,7.37,0,0,0,1-2.3,10.16,10.16,0,0,0,.33-2.56,9.91,9.91,0,0,0-.36-2.71,7.3,7.3,0,0,0-1.06-2.27,5,5,0,0,0-1.78-1.56,5.26,5.26,0,0,0-2.51-.58,5.47,5.47,0,0,0-2.52.58,5.55,5.55,0,0,0-1.88,1.55,7,7,0,0,0-1.16,2.26,9.06,9.06,0,0,0-.4,2.73,7.8,7.8,0,0,0,1.63,5.32,5.52,5.52,0,0,0,4.33,1.85A5,5,0,0,0,1071.24,130.53Z"/><path class="cls-2" d="M1080.6,121.12a7.44,7.44,0,0,1,1.28-2.45A6.28,6.28,0,0,1,1084,117a6.57,6.57,0,0,1,5.7,0,6.28,6.28,0,0,1,2.08,1.7,7.44,7.44,0,0,1,1.28,2.45,10.1,10.1,0,0,1,0,5.83,7.44,7.44,0,0,1-1.28,2.45,6.31,6.31,0,0,1-9.86,0,7.44,7.44,0,0,1-1.28-2.45,10.1,10.1,0,0,1,0-5.83Zm.53,5.61a7,7,0,0,0,1.16,2.28,5.84,5.84,0,0,0,1.91,1.58,5.65,5.65,0,0,0,2.62.59,5.57,5.57,0,0,0,2.6-.59,5.74,5.74,0,0,0,1.91-1.58,7,7,0,0,0,1.16-2.28,9.4,9.4,0,0,0,0-5.36,7,7,0,0,0-1.16-2.28,5.89,5.89,0,0,0-1.91-1.59,5.34,5.34,0,0,0-2.6-.61,5.42,5.42,0,0,0-2.62.61,6,6,0,0,0-1.91,1.59,7,7,0,0,0-1.16,2.28,9.4,9.4,0,0,0,0,5.36Z"/><path class="cls-2" d="M1099.85,116.66v3.65h.05a5.26,5.26,0,0,1,.65-1.58,4.79,4.79,0,0,1,1.12-1.26,4.9,4.9,0,0,1,1.56-.85,6.14,6.14,0,0,1,2-.3,6.48,6.48,0,0,1,2.11.34,4.5,4.5,0,0,1,2.75,2.69,6.19,6.19,0,0,1,.39,2.28v9.78h-.58v-9.7a5.7,5.7,0,0,0-.37-2.19,4.11,4.11,0,0,0-1-1.49,4,4,0,0,0-1.49-.86,5.55,5.55,0,0,0-1.79-.28,5,5,0,0,0-2.32.51,4.92,4.92,0,0,0-1.68,1.34,6,6,0,0,0-1,2,7.9,7.9,0,0,0-.34,2.35v8.35h-.58V116.66Z"/><path class="cls-2" d="M1128.21,126.47a4.55,4.55,0,0,1-.82,1.75,5.87,5.87,0,0,1-1.37,1.31,6.21,6.21,0,0,1-1.73.8,6.66,6.66,0,0,1-1.87.27,6,6,0,0,1-2.7-.57,5.53,5.53,0,0,1-1.91-1.54,6.63,6.63,0,0,1-1.14-2.25,9.26,9.26,0,0,1-.39-2.69,9.38,9.38,0,0,1,.4-2.8,6.7,6.7,0,0,1,1.21-2.29,5.72,5.72,0,0,1,2-1.57,6.24,6.24,0,0,1,2.74-.57,5.88,5.88,0,0,1,2,.33,6,6,0,0,1,1.65.9,6.07,6.07,0,0,1,1.23,1.35,5.66,5.66,0,0,1,.73,1.69h.06v-3.93h.57v14.26a5.64,5.64,0,0,1-1.61,4.46,6.65,6.65,0,0,1-4.53,1.42,8.61,8.61,0,0,1-2.12-.26,5.28,5.28,0,0,1-1.78-.82,4.16,4.16,0,0,1-1.23-1.43,4.79,4.79,0,0,1-.49-2.14h.58a4,4,0,0,0,.44,1.87,3.83,3.83,0,0,0,1.1,1.26,4.76,4.76,0,0,0,1.6.71,7.21,7.21,0,0,0,1.87.23,6.1,6.1,0,0,0,4.15-1.27,5.13,5.13,0,0,0,1.45-4v-4.45Zm-.33-5.39a6.8,6.8,0,0,0-1.06-2.14,5.4,5.4,0,0,0-1.76-1.49,5.2,5.2,0,0,0-2.44-.56,5.63,5.63,0,0,0-2.51.53,5.35,5.35,0,0,0-1.81,1.45,6.14,6.14,0,0,0-1.09,2.13,8.83,8.83,0,0,0-.36,2.55,8.64,8.64,0,0,0,.36,2.55,6,6,0,0,0,1.06,2.05,5.12,5.12,0,0,0,1.74,1.38,5.44,5.44,0,0,0,2.38.5,5.76,5.76,0,0,0,2.52-.52,5.05,5.05,0,0,0,1.82-1.39,6.11,6.11,0,0,0,1.12-2.06,8,8,0,0,0,.39-2.51A8.58,8.58,0,0,0,1127.88,121.08Z"/><path class="cls-2" d="M1135.38,113.83v-2.9h.57v2.9Zm0,17.58V116.66h.57v14.75Z"/><path class="cls-2" d="M1145.25,131.41a6.68,6.68,0,0,1-.28,2.09,2.52,2.52,0,0,1-1,1.29v-.57a2.07,2.07,0,0,0,.53-1,7.64,7.64,0,0,0,.16-1.79V128.6h.58Z"/><path class="cls-2" d="M1163.34,110.93h15.29v.57h-7.37v19.91h-.58V111.5h-7.34Z"/><path class="cls-2" d="M1182.82,121.12a7.42,7.42,0,0,1,1.27-2.45,6.48,6.48,0,0,1,2.08-1.7,6.1,6.1,0,0,1,2.87-.65,6,6,0,0,1,2.84.65,6.48,6.48,0,0,1,2.08,1.7,7.42,7.42,0,0,1,1.27,2.45,9.88,9.88,0,0,1,0,5.83,7.42,7.42,0,0,1-1.27,2.45,6.33,6.33,0,0,1-2.08,1.69,6.22,6.22,0,0,1-2.87.63,6.15,6.15,0,0,1-2.84-.63,6.33,6.33,0,0,1-2.08-1.69,7.42,7.42,0,0,1-1.27-2.45,10.1,10.1,0,0,1,0-5.83Zm.53,5.61a6.64,6.64,0,0,0,1.16,2.28,5.55,5.55,0,0,0,4.53,2.17,5.55,5.55,0,0,0,2.59-.59,5.64,5.64,0,0,0,1.91-1.58,6.64,6.64,0,0,0,1.16-2.28,9.4,9.4,0,0,0,0-5.36,6.64,6.64,0,0,0-1.16-2.28,5.79,5.79,0,0,0-1.91-1.59,5.87,5.87,0,0,0-5.21,0,5.79,5.79,0,0,0-1.91,1.59,6.64,6.64,0,0,0-1.16,2.28,9.4,9.4,0,0,0,0,5.36Z"/><path class="cls-2" d="M1202.06,131.41h-.57V110.93h.57v14.19l10.18-8.46h.83l-6.77,5.63,7.26,9.12h-.77l-6.92-8.72-3.81,3.15Z"/><path class="cls-2" d="M1228.1,116.66l-6.8,17.73a3.52,3.52,0,0,1-.68,1.16,2.76,2.76,0,0,1-.89.62,3.71,3.71,0,0,1-1.08.24c-.39,0-.81,0-1.25,0v-.57c.5,0,.93,0,1.28,0a2.76,2.76,0,0,0,.92-.23,2.08,2.08,0,0,0,.69-.58,4,4,0,0,0,.55-1l1.07-2.73-6.14-14.6h.6l5.85,14,5.28-14Z"/><path class="cls-2" d="M1232.43,121.12a7.44,7.44,0,0,1,1.28-2.45,6.28,6.28,0,0,1,2.08-1.7,6.1,6.1,0,0,1,2.87-.65,6,6,0,0,1,2.83.65,6.28,6.28,0,0,1,2.08,1.7,7.44,7.44,0,0,1,1.28,2.45,10.1,10.1,0,0,1,0,5.83,7.44,7.44,0,0,1-1.28,2.45,6.31,6.31,0,0,1-9.86,0,7.44,7.44,0,0,1-1.28-2.45,10.1,10.1,0,0,1,0-5.83Zm.53,5.61a7,7,0,0,0,1.16,2.28,5.84,5.84,0,0,0,1.91,1.58,5.66,5.66,0,0,0,2.63.59,5.55,5.55,0,0,0,2.59-.59,5.74,5.74,0,0,0,1.91-1.58,7,7,0,0,0,1.16-2.28,9.4,9.4,0,0,0,0-5.36,7,7,0,0,0-1.16-2.28,5.89,5.89,0,0,0-1.91-1.59,5.33,5.33,0,0,0-2.59-.61,5.43,5.43,0,0,0-2.63.61,6,6,0,0,0-1.91,1.59,7,7,0,0,0-1.16,2.28,9.64,9.64,0,0,0,0,5.36Z"/><path class="cls-2" d="M381,531.86a1.68,1.68,0,0,0-.76.71,4.72,4.72,0,0,0-.45,1.08,5.42,5.42,0,0,0-.22,1.19c0,.4,0,.75,0,1h.9v4.44h-2.19v-4.44a10.72,10.72,0,0,1,.13-1.7,5.7,5.7,0,0,1,.45-1.57,4.39,4.39,0,0,1,.86-1.3,3.64,3.64,0,0,1,1.32-.86Zm5.43,0a1.68,1.68,0,0,0-.76.71,5.83,5.83,0,0,0-.45,1.08,5.4,5.4,0,0,0-.21,1.19c0,.4-.05.75-.05,1h.91v4.44h-2.2v-4.44a10.72,10.72,0,0,1,.13-1.7,6.07,6.07,0,0,1,.45-1.57,4.6,4.6,0,0,1,.86-1.3,3.64,3.64,0,0,1,1.32-.86Z"/><path class="cls-2" d="M394.48,532.08v-1.64h23.59v1.64H407.2v29.15h-1.9V532.08Z"/><path class="cls-2" d="M427.55,530.44v13.37h.09a7.05,7.05,0,0,1,1.23-2.22,8.17,8.17,0,0,1,4.16-2.7,9.48,9.48,0,0,1,2.54-.34,10,10,0,0,1,3.3.47,6.39,6.39,0,0,1,2.22,1.25,6,6,0,0,1,1.36,1.75,7.84,7.84,0,0,1,.71,2,12.09,12.09,0,0,1,.26,1.92c0,.62,0,1.15,0,1.61v13.72h-1.64v-14a20,20,0,0,0-.13-2.07,6.12,6.12,0,0,0-.75-2.39,5.46,5.46,0,0,0-1.9-2,6.42,6.42,0,0,0-3.51-.82,7.76,7.76,0,0,0-3.36.69,7.25,7.25,0,0,0-2.5,1.92,8.43,8.43,0,0,0-1.58,2.93,12.32,12.32,0,0,0-.54,3.73v12h-1.64V530.44Z"/><path class="cls-2" d="M454.93,550.36v.26a13,13,0,0,0,.52,3.71,9.66,9.66,0,0,0,1.53,3.1,7.21,7.21,0,0,0,2.56,2.11,7.75,7.75,0,0,0,3.56.78,7.6,7.6,0,0,0,5.28-1.75,9.16,9.16,0,0,0,2.68-4.85h1.64a9.93,9.93,0,0,1-3.17,5.95,9.64,9.64,0,0,1-6.45,2.07,9.75,9.75,0,0,1-4.29-.88,8.66,8.66,0,0,1-3.06-2.42,10.13,10.13,0,0,1-1.83-3.62,16.53,16.53,0,0,1,0-9,11.19,11.19,0,0,1,1.87-3.75,10,10,0,0,1,11.67-2.69,8.55,8.55,0,0,1,3,2.35,10.39,10.39,0,0,1,1.84,3.45,14,14,0,0,1,.62,4.2c0,.15,0,.31,0,.5s0,.34,0,.45Zm16.3-1.42a13.6,13.6,0,0,0-.6-3.43,8.53,8.53,0,0,0-1.54-2.85,7.7,7.7,0,0,0-2.46-2,7.23,7.23,0,0,0-3.31-.73,7.77,7.77,0,0,0-3.5.75,8,8,0,0,0-2.55,2,8.6,8.6,0,0,0-1.6,2.86,13.48,13.48,0,0,0-.7,3.37Z"/><path class="cls-2" d="M501.07,530.44h10.09a16.07,16.07,0,0,1,6.87,1.29,11.7,11.7,0,0,1,4.38,3.45,13.28,13.28,0,0,1,2.31,4.92,24.41,24.41,0,0,1,.67,5.69,21.31,21.31,0,0,1-.84,6.1,13.53,13.53,0,0,1-2.61,4.89,12.27,12.27,0,0,1-4.47,3.26,15.79,15.79,0,0,1-6.4,1.19h-10Zm10.17,29.15a14.91,14.91,0,0,0,4.34-.67,10.57,10.57,0,0,0,3.94-2.24,11.33,11.33,0,0,0,2.87-4.23,17.56,17.56,0,0,0,1.1-6.66,20.09,20.09,0,0,0-.63-5.39,13.26,13.26,0,0,0-1.63-3.77,8.71,8.71,0,0,0-2.33-2.42,11.73,11.73,0,0,0-2.72-1.36,13.41,13.41,0,0,0-2.8-.62,24.08,24.08,0,0,0-2.52-.15H503v27.51Z"/><path class="cls-2" d="M550.26,556.83h-.08a6.83,6.83,0,0,1-1.12,1.87,8.08,8.08,0,0,1-1.79,1.58,8.91,8.91,0,0,1-2.4,1.08,10.77,10.77,0,0,1-2.93.38,8.64,8.64,0,0,1-5.47-1.53,5.62,5.62,0,0,1-1.94-4.72,5.52,5.52,0,0,1,2.73-5.11,8.51,8.51,0,0,1,2.63-1,24.62,24.62,0,0,1,2.79-.43l2.54-.22a14.28,14.28,0,0,0,2.78-.41,3.43,3.43,0,0,0,1.53-.77,2.22,2.22,0,0,0,.65-1.28,12.76,12.76,0,0,0,.13-1.94,4.11,4.11,0,0,0-.35-1.68,3.8,3.8,0,0,0-1.08-1.38,5.32,5.32,0,0,0-1.89-1,10.21,10.21,0,0,0-2.85-.34,7.53,7.53,0,0,0-4.81,1.46,5.8,5.8,0,0,0-2,4.45h-1.64a7.27,7.27,0,0,1,2.35-5.5,9.35,9.35,0,0,1,6.19-1.83q4,0,5.84,1.57a5.17,5.17,0,0,1,1.83,4.12v12.89c0,.32,0,.63,0,1a3.28,3.28,0,0,0,.16.86,1.28,1.28,0,0,0,.43.63,1.4,1.4,0,0,0,.86.23,7.45,7.45,0,0,0,1.21-.13v1.38a5,5,0,0,1-1.34.18,3.94,3.94,0,0,1-1.57-.26,2.19,2.19,0,0,1-.89-.69,2.58,2.58,0,0,1-.41-1,7.07,7.07,0,0,1-.11-1.27Zm0-8.19a3.18,3.18,0,0,1-1.83,1,24.06,24.06,0,0,1-2.74.39l-2.76.25c-.8.09-1.61.21-2.41.37a6.91,6.91,0,0,0-2.18.8,4.42,4.42,0,0,0-1.57,1.53,4.75,4.75,0,0,0-.61,2.52,4.27,4.27,0,0,0,1.56,3.64,6.8,6.8,0,0,0,4.27,1.19,8.49,8.49,0,0,0,4.44-1,8,8,0,0,0,2.5-2.33,7.33,7.33,0,0,0,1.1-2.55,11.44,11.44,0,0,0,.23-1.66Z"/><path class="cls-2" d="M560.48,539.06h1.94l8.24,20.23,7.59-20.23h1.85l-9.48,24.54c-.46,1.09-.89,2-1.28,2.82a4.8,4.8,0,0,1-1.31,1.75,4,4,0,0,1-2,.84,25.9,25.9,0,0,1-3.12.15v-1.42a10.89,10.89,0,0,0,2.75-.28,4.27,4.27,0,0,0,1.86-1.15,5.53,5.53,0,0,0,1-1.74c.35-.85.78-2,1.29-3.47Z"/><path class="cls-2" d="M611.88,559.33H612l6-20.27h2.2l6.08,20.27h.09l6.21-20.27h1.81l-7.12,22.17h-2l-6.08-20.1h-.09L613,561.23h-2.07l-7-22.17h1.77Z"/><path class="cls-2" d="M644.39,530.44v13.37h.09a6.68,6.68,0,0,1,1.23-2.22,7.92,7.92,0,0,1,1.85-1.66,8.06,8.06,0,0,1,2.31-1,9.48,9.48,0,0,1,2.54-.34,10,10,0,0,1,3.3.47,6.58,6.58,0,0,1,2.22,1.25,6.13,6.13,0,0,1,1.36,1.75,8.26,8.26,0,0,1,.71,2,12.09,12.09,0,0,1,.26,1.92c0,.62,0,1.15,0,1.61v13.72h-1.64v-14a20,20,0,0,0-.13-2.07,6.29,6.29,0,0,0-.75-2.39,5.46,5.46,0,0,0-1.9-2,6.42,6.42,0,0,0-3.51-.82,7.83,7.83,0,0,0-3.37.69,7.35,7.35,0,0,0-2.5,1.92,8.41,8.41,0,0,0-1.57,2.93,12.32,12.32,0,0,0-.54,3.73v12h-1.64V530.44Z"/><path class="cls-2" d="M671.77,550.36v.26a13,13,0,0,0,.52,3.71,9.46,9.46,0,0,0,1.53,3.1,7.26,7.26,0,0,0,2.55,2.11,7.82,7.82,0,0,0,3.57.78,7.55,7.55,0,0,0,5.27-1.75,9.11,9.11,0,0,0,2.69-4.85h1.63a9.87,9.87,0,0,1-3.16,5.95,9.64,9.64,0,0,1-6.45,2.07,9.75,9.75,0,0,1-4.29-.88,8.66,8.66,0,0,1-3.06-2.42,10.32,10.32,0,0,1-1.84-3.62,16.21,16.21,0,0,1-.6-4.5,15.73,15.73,0,0,1,.63-4.47,11.19,11.19,0,0,1,1.87-3.75,10,10,0,0,1,11.67-2.69,8.55,8.55,0,0,1,3,2.35,10.19,10.19,0,0,1,1.83,3.45,13.68,13.68,0,0,1,.63,4.2c0,.15,0,.31,0,.5a4,4,0,0,0,0,.45Zm16.3-1.42a13.18,13.18,0,0,0-.61-3.43,8.33,8.33,0,0,0-1.53-2.85,7.64,7.64,0,0,0-2.47-2,7.16,7.16,0,0,0-3.3-.73,7.82,7.82,0,0,0-3.51.75,8.21,8.21,0,0,0-2.55,2,9,9,0,0,0-1.6,2.86,13.93,13.93,0,0,0-.69,3.37Z"/><path class="cls-2" d="M701.22,544h.13a5.4,5.4,0,0,1,1.1-2,7.78,7.78,0,0,1,1.94-1.64,9.43,9.43,0,0,1,2.54-1,10.45,10.45,0,0,1,2.91-.33v1.64a7.8,7.8,0,0,0-3,.26,7.18,7.18,0,0,0-3.17,1.9c-.4.43-.75.85-1.06,1.25a6,6,0,0,0-.75,1.34,8.71,8.71,0,0,0-.48,1.63,15.49,15.49,0,0,0-.21,2.16v12.12h-1.64V539.06h1.64Z"/><path class="cls-2" d="M718.21,550.36v.26a13,13,0,0,0,.52,3.71,9.27,9.27,0,0,0,1.53,3.1,7.26,7.26,0,0,0,2.55,2.11,7.76,7.76,0,0,0,3.57.78,7.55,7.55,0,0,0,5.27-1.75,9.1,9.1,0,0,0,2.68-4.85H736a9.88,9.88,0,0,1-3.17,5.95,9.6,9.6,0,0,1-6.44,2.07,9.75,9.75,0,0,1-4.29-.88,8.49,8.49,0,0,1-3.06-2.42,10.32,10.32,0,0,1-1.84-3.62,16.79,16.79,0,0,1,0-9,11.4,11.4,0,0,1,1.88-3.75,9.27,9.27,0,0,1,3.13-2.58,9.45,9.45,0,0,1,4.42-1,9.27,9.27,0,0,1,4.11.86,8.58,8.58,0,0,1,3,2.35,10.37,10.37,0,0,1,1.83,3.45,13.68,13.68,0,0,1,.63,4.2c0,.15,0,.31,0,.5a4.37,4.37,0,0,0,0,.45Zm16.3-1.42a13.18,13.18,0,0,0-.61-3.43,8.51,8.51,0,0,0-1.53-2.85,7.64,7.64,0,0,0-2.47-2,7.2,7.2,0,0,0-3.31-.73,7.8,7.8,0,0,0-3.5.75,8,8,0,0,0-2.55,2,9,9,0,0,0-1.6,2.86,13.93,13.93,0,0,0-.69,3.37Z"/><path class="cls-2" d="M761.37,539.06h1.94l8.23,20.23,7.59-20.23H781L771.5,563.6c-.46,1.09-.88,2-1.27,2.82a4.92,4.92,0,0,1-1.32,1.75,4,4,0,0,1-2,.84,26.2,26.2,0,0,1-3.13.15v-1.42a10.92,10.92,0,0,0,2.76-.28,4.24,4.24,0,0,0,1.85-1.15,5.51,5.51,0,0,0,1-1.74c.34-.85.77-2,1.29-3.47Z"/><path class="cls-2" d="M788.19,550.14a14.46,14.46,0,0,1,.67-4.46,10.94,10.94,0,0,1,2-3.68,9.21,9.21,0,0,1,3.19-2.53,10.77,10.77,0,0,1,8.71,0,9.3,9.3,0,0,1,3.19,2.53,11.3,11.3,0,0,1,2,3.68,14.46,14.46,0,0,1,.67,4.46,14.65,14.65,0,0,1-.67,4.49,11.05,11.05,0,0,1-2,3.69,9.59,9.59,0,0,1-3.19,2.5,10.77,10.77,0,0,1-8.71,0,9.49,9.49,0,0,1-3.19-2.5,10.71,10.71,0,0,1-2-3.69A14.65,14.65,0,0,1,788.19,550.14Zm1.64,0a12.75,12.75,0,0,0,.56,3.82,10.5,10.5,0,0,0,1.63,3.26,8,8,0,0,0,2.68,2.26,8.42,8.42,0,0,0,7.33,0,8.1,8.1,0,0,0,2.67-2.26,10.31,10.31,0,0,0,1.64-3.26,13.27,13.27,0,0,0,0-7.63,10.31,10.31,0,0,0-1.64-3.26,8,8,0,0,0-2.67-2.26,8.42,8.42,0,0,0-7.33,0,7.92,7.92,0,0,0-2.68,2.26,10.5,10.5,0,0,0-1.63,3.26A12.73,12.73,0,0,0,789.83,550.14Z"/><path class="cls-2" d="M836,561.23h-1.64v-4.75h-.08A7.05,7.05,0,0,1,833,558.7a8,8,0,0,1-1.86,1.66,8.12,8.12,0,0,1-2.3,1,9.55,9.55,0,0,1-2.55.34,10.28,10.28,0,0,1-3.3-.47,6.58,6.58,0,0,1-2.22-1.25,6.09,6.09,0,0,1-1.35-1.75,7.88,7.88,0,0,1-.72-2,11,11,0,0,1-.25-1.92c0-.62-.05-1.16-.05-1.62V539.06h1.64v14a19.52,19.52,0,0,0,.13,2.09,6.43,6.43,0,0,0,.75,2.37,5.56,5.56,0,0,0,1.88,2,6.39,6.39,0,0,0,3.54.82,7.86,7.86,0,0,0,3.34-.69,7.23,7.23,0,0,0,2.52-1.92,8.41,8.41,0,0,0,1.57-2.93,12.32,12.32,0,0,0,.54-3.73v-12H836Z"/><path class="cls-2" d="M883.13,539.06v21a14.79,14.79,0,0,1-.43,3.6,8,8,0,0,1-1.48,3.08,7.21,7.21,0,0,1-2.91,2.14,11.91,11.91,0,0,1-4.69.8,14.59,14.59,0,0,1-3.31-.37,8,8,0,0,1-2.71-1.16,6,6,0,0,1-1.87-2.12,7.41,7.41,0,0,1-.79-3.25h1.63a5.92,5.92,0,0,0,.74,2.5,5.12,5.12,0,0,0,1.57,1.7,6.52,6.52,0,0,0,2.18,1,10.7,10.7,0,0,0,2.59.3,9.27,9.27,0,0,0,3.81-.69,6.6,6.6,0,0,0,2.44-1.79,6.38,6.38,0,0,0,1.27-2.5,11.25,11.25,0,0,0,.37-2.82v-5.09h-.13a8.78,8.78,0,0,1-3.16,3.75,8.68,8.68,0,0,1-4.84,1.3,9.87,9.87,0,0,1-4.24-.84,8.23,8.23,0,0,1-3-2.33,10.06,10.06,0,0,1-1.76-3.47,15.25,15.25,0,0,1-.58-4.32,14,14,0,0,1,.62-4.18,10.39,10.39,0,0,1,1.84-3.47,8.83,8.83,0,0,1,3-2.37,9.76,9.76,0,0,1,9,.45,7.42,7.42,0,0,1,3.17,3.8h.09v-4.62Zm-9.7.91a7.11,7.11,0,0,0-3.51.82,7.2,7.2,0,0,0-2.46,2.15,9.86,9.86,0,0,0-1.47,3,12.43,12.43,0,0,0-.49,3.47,13.43,13.43,0,0,0,.49,3.69,8.76,8.76,0,0,0,1.51,3,7.42,7.42,0,0,0,2.5,2.05,7.53,7.53,0,0,0,3.43.75,7.76,7.76,0,0,0,3.54-.77,7.37,7.37,0,0,0,2.52-2.12,9.31,9.31,0,0,0,1.51-3,13.36,13.36,0,0,0,0-7.17,9,9,0,0,0-1.51-3,7.54,7.54,0,0,0-2.52-2.1A7.76,7.76,0,0,0,873.43,540Z"/><path class="cls-2" d="M894.64,550.36v.26a13.36,13.36,0,0,0,.52,3.71,9.48,9.48,0,0,0,1.54,3.1,7.09,7.09,0,0,0,2.55,2.11,7.75,7.75,0,0,0,3.56.78,7.6,7.6,0,0,0,5.28-1.75,9.1,9.1,0,0,0,2.68-4.85h1.64a9.93,9.93,0,0,1-3.17,5.95,9.63,9.63,0,0,1-6.45,2.07,9.75,9.75,0,0,1-4.29-.88,8.66,8.66,0,0,1-3.06-2.42,10.13,10.13,0,0,1-1.83-3.62,16.21,16.21,0,0,1-.6-4.5,15.73,15.73,0,0,1,.62-4.47,11.21,11.21,0,0,1,1.88-3.75,9.23,9.23,0,0,1,3.12-2.58,9.48,9.48,0,0,1,4.42-1,9.31,9.31,0,0,1,4.12.86,8.67,8.67,0,0,1,3,2.35,10.55,10.55,0,0,1,1.83,3.45,13.68,13.68,0,0,1,.62,4.2,4.53,4.53,0,0,1,0,.5c0,.18,0,.34,0,.45Zm16.3-1.42a13.6,13.6,0,0,0-.6-3.43,8.53,8.53,0,0,0-1.54-2.85,7.7,7.7,0,0,0-2.46-2A7.23,7.23,0,0,0,903,540a7.8,7.8,0,0,0-3.5.75,8,8,0,0,0-2.55,2,8.78,8.78,0,0,0-1.6,2.86,13,13,0,0,0-.69,3.37Z"/><path class="cls-2" d="M930.6,540.49h-4.83V556a5.77,5.77,0,0,0,.31,2.11,2.39,2.39,0,0,0,.92,1.18,3.26,3.26,0,0,0,1.51.5,14.9,14.9,0,0,0,2,0v1.43a15.25,15.25,0,0,1-2.44,0,4.88,4.88,0,0,1-2.09-.64,3.81,3.81,0,0,1-1.44-1.62,6.07,6.07,0,0,1-.45-3V540.49H920v-1.43h4.1v-6.9h1.63v6.9h4.83Z"/><path class="cls-2" d="M965.83,540.49H961V556a6,6,0,0,0,.3,2.11,2.36,2.36,0,0,0,.93,1.18,3.26,3.26,0,0,0,1.51.5,14.9,14.9,0,0,0,2,0v1.43a15.22,15.22,0,0,1-2.44,0,4.84,4.84,0,0,1-2.09-.64,3.75,3.75,0,0,1-1.44-1.62,6.06,6.06,0,0,1-.46-3V540.49h-4.09v-1.43h4.09v-6.9H961v6.9h4.83Z"/><path class="cls-2" d="M973.85,550.14a14.46,14.46,0,0,1,.67-4.46,11.12,11.12,0,0,1,2-3.68,9.3,9.3,0,0,1,3.19-2.53,10.77,10.77,0,0,1,8.71,0,9.21,9.21,0,0,1,3.19,2.53,11.12,11.12,0,0,1,2,3.68,14.46,14.46,0,0,1,.67,4.46,14.65,14.65,0,0,1-.67,4.49,10.88,10.88,0,0,1-2,3.69,9.49,9.49,0,0,1-3.19,2.5,10.77,10.77,0,0,1-8.71,0,9.59,9.59,0,0,1-3.19-2.5,10.88,10.88,0,0,1-2-3.69A14.65,14.65,0,0,1,973.85,550.14Zm1.64,0a13.08,13.08,0,0,0,.56,3.82,10.31,10.31,0,0,0,1.64,3.26,8.1,8.1,0,0,0,2.67,2.26,8.42,8.42,0,0,0,7.33,0,8,8,0,0,0,2.67-2.26A10.31,10.31,0,0,0,992,554a13.27,13.27,0,0,0,0-7.63,10.31,10.31,0,0,0-1.64-3.26,7.89,7.89,0,0,0-2.67-2.26,8.42,8.42,0,0,0-7.33,0,8,8,0,0,0-2.67,2.26,10.31,10.31,0,0,0-1.64,3.26A13.06,13.06,0,0,0,975.49,550.14Z"/><path class="cls-2" d="M1030.25,540.49h-4.83V556a6,6,0,0,0,.3,2.11,2.36,2.36,0,0,0,.93,1.18,3.22,3.22,0,0,0,1.51.5,14.79,14.79,0,0,0,2,0v1.43a15.11,15.11,0,0,1-2.43,0,4.84,4.84,0,0,1-2.09-.64,3.77,3.77,0,0,1-1.45-1.62,6.07,6.07,0,0,1-.45-3V540.49h-4.1v-1.43h4.1v-6.9h1.64v6.9h4.83Z"/><path class="cls-2" d="M1054,556.83h-.08a6.83,6.83,0,0,1-1.12,1.87,8.08,8.08,0,0,1-1.79,1.58,9,9,0,0,1-2.39,1.08,10.9,10.9,0,0,1-2.94.38,8.64,8.64,0,0,1-5.47-1.53,5.62,5.62,0,0,1-1.94-4.72,5.52,5.52,0,0,1,2.73-5.11,8.57,8.57,0,0,1,2.64-1,24.12,24.12,0,0,1,2.78-.43l2.54-.22a14.16,14.16,0,0,0,2.78-.41,3.43,3.43,0,0,0,1.53-.77,2.22,2.22,0,0,0,.65-1.28,12.76,12.76,0,0,0,.13-1.94,4.11,4.11,0,0,0-.35-1.68,3.8,3.8,0,0,0-1.08-1.38,5.32,5.32,0,0,0-1.89-1,10.21,10.21,0,0,0-2.85-.34,7.53,7.53,0,0,0-4.81,1.46,5.8,5.8,0,0,0-2,4.45h-1.64a7.27,7.27,0,0,1,2.35-5.5,9.37,9.37,0,0,1,6.19-1.83q4,0,5.84,1.57a5.17,5.17,0,0,1,1.83,4.12v12.89c0,.32,0,.63,0,1a2.92,2.92,0,0,0,.15.86,1.28,1.28,0,0,0,.43.63,1.42,1.42,0,0,0,.86.23,7.45,7.45,0,0,0,1.21-.13v1.38a5,5,0,0,1-1.34.18,3.94,3.94,0,0,1-1.57-.26,2.19,2.19,0,0,1-.89-.69,2.58,2.58,0,0,1-.41-1A7.07,7.07,0,0,1,1054,558Zm0-8.19a3.18,3.18,0,0,1-1.83,1,24.06,24.06,0,0,1-2.74.39l-2.76.25c-.8.09-1.61.21-2.41.37a7,7,0,0,0-2.18.8,4.42,4.42,0,0,0-1.57,1.53,4.75,4.75,0,0,0-.6,2.52,4.27,4.27,0,0,0,1.55,3.64,6.81,6.81,0,0,0,4.27,1.19,8.49,8.49,0,0,0,4.44-1,8,8,0,0,0,2.5-2.33,7.33,7.33,0,0,0,1.1-2.55,10.14,10.14,0,0,0,.23-1.66Z"/><path class="cls-2" d="M1067,530.44h1.64v20.39l13.67-11.77h2.37l-9.7,8.28,10.39,13.89h-2.24l-9.44-12.64-5.05,4.27v8.37H1067Z"/><path class="cls-2" d="M1093.5,550.36v.26a13,13,0,0,0,.52,3.71,9.66,9.66,0,0,0,1.53,3.1,7.21,7.21,0,0,0,2.56,2.11,7.75,7.75,0,0,0,3.56.78,7.6,7.6,0,0,0,5.28-1.75,9.16,9.16,0,0,0,2.68-4.85h1.64a9.93,9.93,0,0,1-3.17,5.95,9.64,9.64,0,0,1-6.45,2.07,9.75,9.75,0,0,1-4.29-.88,8.66,8.66,0,0,1-3.06-2.42,10.13,10.13,0,0,1-1.83-3.62,16.53,16.53,0,0,1,0-9,11.19,11.19,0,0,1,1.87-3.75,10,10,0,0,1,11.67-2.69,8.55,8.55,0,0,1,3,2.35,10.39,10.39,0,0,1,1.84,3.45,14,14,0,0,1,.62,4.2c0,.15,0,.31,0,.5a4,4,0,0,0,0,.45Zm16.3-1.42a13.18,13.18,0,0,0-.61-3.43,8.33,8.33,0,0,0-1.53-2.85,7.7,7.7,0,0,0-2.46-2,7.23,7.23,0,0,0-3.31-.73,7.77,7.77,0,0,0-3.5.75,8,8,0,0,0-2.55,2,8.6,8.6,0,0,0-1.6,2.86,13.48,13.48,0,0,0-.7,3.37Z"/><path class="cls-2" d="M421.11,624.7H421a6.83,6.83,0,0,1-1.12,1.87,8.08,8.08,0,0,1-1.79,1.58,9,9,0,0,1-2.39,1.07,10.51,10.51,0,0,1-2.94.39,8.64,8.64,0,0,1-5.47-1.53,5.62,5.62,0,0,1-1.94-4.72,5.93,5.93,0,0,1,.77-3.17,5.8,5.8,0,0,1,2-1.94,8.41,8.41,0,0,1,2.63-1,24.46,24.46,0,0,1,2.78-.43l2.54-.22a15,15,0,0,0,2.78-.41,3.54,3.54,0,0,0,1.53-.78,2.19,2.19,0,0,0,.65-1.27,11.67,11.67,0,0,0,.13-1.94,4.11,4.11,0,0,0-.35-1.68,3.8,3.8,0,0,0-1.07-1.38,5.37,5.37,0,0,0-1.9-1,10.21,10.21,0,0,0-2.85-.34,7.49,7.49,0,0,0-4.8,1.46,5.77,5.77,0,0,0-2,4.44h-1.64a7.26,7.26,0,0,1,2.35-5.49,9.31,9.31,0,0,1,6.19-1.84q4,0,5.84,1.58a5.17,5.17,0,0,1,1.83,4.12V625c0,.31,0,.63,0,1a2.92,2.92,0,0,0,.15.86,1.21,1.21,0,0,0,.43.62,1.35,1.35,0,0,0,.86.24,7.45,7.45,0,0,0,1.21-.13v1.38a5,5,0,0,1-1.34.17,4,4,0,0,1-1.57-.25,2.19,2.19,0,0,1-.89-.69,2.58,2.58,0,0,1-.41-1,7.19,7.19,0,0,1-.1-1.27Zm0-8.2a3.19,3.19,0,0,1-1.84,1,22.2,22.2,0,0,1-2.73.38l-2.76.26c-.81.09-1.61.21-2.42.37a7,7,0,0,0-2.18.8,4.42,4.42,0,0,0-1.57,1.53,4.7,4.7,0,0,0-.6,2.52,4.27,4.27,0,0,0,1.55,3.64,6.88,6.88,0,0,0,4.27,1.19,8.44,8.44,0,0,0,4.44-1,8.07,8.07,0,0,0,2.5-2.33,7.33,7.33,0,0,0,1.1-2.55,10.7,10.7,0,0,0,.24-1.66Z"/><path class="cls-2" d="M452.8,621.72a6.55,6.55,0,0,0,.69,2.74,6.48,6.48,0,0,0,3.83,3.3,9.09,9.09,0,0,0,2.81.43,14.71,14.71,0,0,0,2.3-.2,7.64,7.64,0,0,0,2.29-.71,4.71,4.71,0,0,0,1.75-1.44,3.9,3.9,0,0,0,.69-2.35,3.45,3.45,0,0,0-1.13-2.8,7.54,7.54,0,0,0-2.82-1.47,27.3,27.3,0,0,0-3.66-.84,19.53,19.53,0,0,1-3.67-1,7.34,7.34,0,0,1-2.82-1.83,4.86,4.86,0,0,1-1.13-3.47,4.8,4.8,0,0,1,.74-2.74,5.4,5.4,0,0,1,1.87-1.75,8.62,8.62,0,0,1,2.57-.93,15.27,15.27,0,0,1,2.84-.28,13,13,0,0,1,3.24.39,7.19,7.19,0,0,1,2.61,1.25,6,6,0,0,1,1.72,2.2,7.55,7.55,0,0,1,.63,3.24h-1.64a6.17,6.17,0,0,0-.5-2.59,4.53,4.53,0,0,0-1.38-1.75,6.13,6.13,0,0,0-2.09-1,9.78,9.78,0,0,0-2.59-.32,12.51,12.51,0,0,0-2.26.21,6.66,6.66,0,0,0-2.05.74,4.52,4.52,0,0,0-1.48,1.33,3.77,3.77,0,0,0,.06,4.14,4.61,4.61,0,0,0,1.7,1.32,11.86,11.86,0,0,0,2.38.79L461,617c1.09.2,2.12.44,3.08.71a8.7,8.7,0,0,1,2.5,1.12,5.12,5.12,0,0,1,1.66,1.83,6,6,0,0,1,.6,2.85,5,5,0,0,1-.82,3,6.13,6.13,0,0,1-2.07,1.88,8.92,8.92,0,0,1-2.78,1,16.32,16.32,0,0,1-3,.28,12,12,0,0,1-3.52-.49,8.06,8.06,0,0,1-2.82-1.51,7.25,7.25,0,0,1-1.9-2.48,8.43,8.43,0,0,1-.73-3.41Z"/><path class="cls-2" d="M478.8,606.93h1.64v4.74h.08a7.28,7.28,0,0,1,1.23-2.22,8.37,8.37,0,0,1,1.85-1.66,8.28,8.28,0,0,1,2.31-1,9.51,9.51,0,0,1,2.55-.35,9.89,9.89,0,0,1,3.29.48,6.23,6.23,0,0,1,2.22,1.25,6.05,6.05,0,0,1,1.36,1.74,8.06,8.06,0,0,1,.71,2,11,11,0,0,1,.26,1.92c0,.61.05,1.15.05,1.61v13.71h-1.64v-14c0-.55,0-1.23-.13-2.07a6.31,6.31,0,0,0-.76-2.39,5.43,5.43,0,0,0-1.89-2,6.43,6.43,0,0,0-3.52-.82,7.82,7.82,0,0,0-3.36.69,7.25,7.25,0,0,0-2.5,1.92,8.34,8.34,0,0,0-1.58,2.93,12.27,12.27,0,0,0-.53,3.73v12H478.8Z"/><path class="cls-2" d="M507.82,618.23v.26a13.35,13.35,0,0,0,.51,3.71,9.58,9.58,0,0,0,1.54,3.1,7.37,7.37,0,0,0,2.55,2.11,7.76,7.76,0,0,0,3.57.78,7.57,7.57,0,0,0,5.27-1.75,9.1,9.1,0,0,0,2.68-4.85h1.64a9.93,9.93,0,0,1-3.17,5.95,9.61,9.61,0,0,1-6.45,2.07,9.81,9.81,0,0,1-4.29-.88,8.78,8.78,0,0,1-3.06-2.42,10.13,10.13,0,0,1-1.83-3.62,16.21,16.21,0,0,1-.6-4.5,15.73,15.73,0,0,1,.62-4.47,11.21,11.21,0,0,1,1.88-3.75,9.26,9.26,0,0,1,3.12-2.59,9.6,9.6,0,0,1,4.42-1,9.28,9.28,0,0,1,4.12.87,8.56,8.56,0,0,1,3,2.35,10.55,10.55,0,0,1,1.83,3.45,13.63,13.63,0,0,1,.63,4.2,4.9,4.9,0,0,1,0,.5c0,.18,0,.33,0,.45Zm16.29-1.42a13.17,13.17,0,0,0-.6-3.43,8.53,8.53,0,0,0-1.54-2.85,7.49,7.49,0,0,0-2.46-2,7.23,7.23,0,0,0-3.31-.73,7.8,7.8,0,0,0-3.5.75,8,8,0,0,0-2.55,2,8.83,8.83,0,0,0-1.6,2.87,13.37,13.37,0,0,0-.69,3.37Z"/><path class="cls-2" d="M550.33,624.7h-.09a6.83,6.83,0,0,1-1.12,1.87,7.86,7.86,0,0,1-1.79,1.58,8.83,8.83,0,0,1-2.39,1.07,10.44,10.44,0,0,1-2.93.39,8.67,8.67,0,0,1-5.48-1.53,5.65,5.65,0,0,1-1.94-4.72,5.84,5.84,0,0,1,.78-3.17,5.77,5.77,0,0,1,2-1.94,8.51,8.51,0,0,1,2.63-1,24.46,24.46,0,0,1,2.78-.43l2.54-.22a15.23,15.23,0,0,0,2.79-.41,3.66,3.66,0,0,0,1.53-.78,2.18,2.18,0,0,0,.64-1.27,11.67,11.67,0,0,0,.13-1.94,4.1,4.1,0,0,0-.34-1.68,3.72,3.72,0,0,0-1.08-1.38,5.37,5.37,0,0,0-1.9-1,10.08,10.08,0,0,0-2.84-.34,7.5,7.5,0,0,0-4.81,1.46,5.84,5.84,0,0,0-2,4.44h-1.63a7.19,7.19,0,0,1,2.35-5.49,9.29,9.29,0,0,1,6.18-1.84c2.68,0,4.62.53,5.85,1.58a5.17,5.17,0,0,1,1.83,4.12V625c0,.31,0,.63,0,1a2.92,2.92,0,0,0,.15.86,1.27,1.27,0,0,0,.43.62,1.35,1.35,0,0,0,.86.24,7.45,7.45,0,0,0,1.21-.13v1.38a5,5,0,0,1-1.34.17,4,4,0,0,1-1.57-.25,2.16,2.16,0,0,1-.88-.69,2.58,2.58,0,0,1-.41-1,6.32,6.32,0,0,1-.11-1.27Zm0-8.2a3.13,3.13,0,0,1-1.83,1,22.38,22.38,0,0,1-2.74.38l-2.76.26c-.81.09-1.61.21-2.42.37a6.86,6.86,0,0,0-2.17.8,4.45,4.45,0,0,0-1.58,1.53,4.7,4.7,0,0,0-.6,2.52,4.3,4.3,0,0,0,1.55,3.64,6.9,6.9,0,0,0,4.27,1.19,8.44,8.44,0,0,0,4.44-1,8,8,0,0,0,2.5-2.33,7.15,7.15,0,0,0,1.1-2.55,10.7,10.7,0,0,0,.24-1.66Z"/><path class="cls-2" d="M563.31,598.31H565V618.7l13.66-11.77H581l-9.71,8.28,10.4,13.88h-2.25L570,616.46l-5,4.27v8.36h-1.64Z"/><path class="cls-2" d="M609.23,612h.13a8.32,8.32,0,0,1,.86-1.81,7.36,7.36,0,0,1,1.6-1.83,8.42,8.42,0,0,1,5.6-2,9.7,9.7,0,0,1,4.42,1,8.89,8.89,0,0,1,3.1,2.55,11.07,11.07,0,0,1,1.84,3.7,16.21,16.21,0,0,1,.6,4.45,17,17,0,0,1-.6,4.65,10.37,10.37,0,0,1-1.84,3.65,8.51,8.51,0,0,1-3.11,2.39,10.64,10.64,0,0,1-4.43.86,9.87,9.87,0,0,1-4.93-1.21,7.07,7.07,0,0,1-3.16-3.92h-.08V637h-1.6v-30.1h1.6Zm8.17,16.17a8,8,0,0,0,3.74-.82,7.48,7.48,0,0,0,2.59-2.2,9.73,9.73,0,0,0,1.52-3.21,14.88,14.88,0,0,0,.49-3.9,15.07,15.07,0,0,0-.47-3.73,10.31,10.31,0,0,0-1.47-3.28,8.19,8.19,0,0,0-10.16-2.35,7.31,7.31,0,0,0-2.53,2.28,9.69,9.69,0,0,0-1.41,3.26,16.45,16.45,0,0,0-.43,3.82,18.23,18.23,0,0,0,.39,3.81,9.37,9.37,0,0,0,1.32,3.24,6.73,6.73,0,0,0,2.51,2.24A8.23,8.23,0,0,0,617.4,628.19Z"/><path class="cls-2" d="M637.86,618.23v.26a13,13,0,0,0,.52,3.71,9.37,9.37,0,0,0,1.53,3.1,7.37,7.37,0,0,0,2.55,2.11,7.79,7.79,0,0,0,3.57.78,7.55,7.55,0,0,0,5.27-1.75,9.1,9.1,0,0,0,2.68-4.85h1.64a9.88,9.88,0,0,1-3.17,5.95,9.6,9.6,0,0,1-6.44,2.07,9.75,9.75,0,0,1-4.29-.88,8.78,8.78,0,0,1-3.06-2.42,10.32,10.32,0,0,1-1.84-3.62,16.21,16.21,0,0,1-.6-4.5,15.73,15.73,0,0,1,.63-4.47,11.19,11.19,0,0,1,1.87-3.75,9.3,9.3,0,0,1,3.13-2.59,9.57,9.57,0,0,1,4.42-1,9.27,9.27,0,0,1,4.11.87,8.38,8.38,0,0,1,3,2.35,10.19,10.19,0,0,1,1.83,3.45,13.63,13.63,0,0,1,.63,4.2c0,.14,0,.31,0,.5a3.87,3.87,0,0,0,0,.45Zm16.3-1.42a13.18,13.18,0,0,0-.61-3.43,8.51,8.51,0,0,0-1.53-2.85,7.64,7.64,0,0,0-2.47-2,7.19,7.19,0,0,0-3.3-.73,7.82,7.82,0,0,0-3.51.75,8,8,0,0,0-2.55,2,9,9,0,0,0-1.6,2.87,13.83,13.83,0,0,0-.69,3.37Z"/><path class="cls-2" d="M666.27,618.23v.26a13.36,13.36,0,0,0,.52,3.71,9.58,9.58,0,0,0,1.54,3.1,7.19,7.19,0,0,0,2.55,2.11,7.75,7.75,0,0,0,3.56.78,7.6,7.6,0,0,0,5.28-1.75,9.1,9.1,0,0,0,2.68-4.85H684a9.93,9.93,0,0,1-3.17,5.95,9.63,9.63,0,0,1-6.45,2.07,9.75,9.75,0,0,1-4.29-.88,8.78,8.78,0,0,1-3.06-2.42,10.13,10.13,0,0,1-1.83-3.62,16.21,16.21,0,0,1-.61-4.5,15.73,15.73,0,0,1,.63-4.47,11.21,11.21,0,0,1,1.88-3.75,9.26,9.26,0,0,1,3.12-2.59,9.57,9.57,0,0,1,4.42-1,9.31,9.31,0,0,1,4.12.87,8.56,8.56,0,0,1,3,2.35,10.55,10.55,0,0,1,1.83,3.45,13.94,13.94,0,0,1,.62,4.2,4.62,4.62,0,0,1,0,.5c0,.18,0,.33,0,.45Zm16.3-1.42a13.6,13.6,0,0,0-.6-3.43,8.53,8.53,0,0,0-1.54-2.85,7.7,7.7,0,0,0-2.46-2,7.23,7.23,0,0,0-3.31-.73,7.77,7.77,0,0,0-3.5.75,8,8,0,0,0-2.55,2,8.83,8.83,0,0,0-1.6,2.87,13,13,0,0,0-.69,3.37Z"/><path class="cls-2" d="M694.17,598.31h1.64V618.7l13.67-11.77h2.37l-9.7,8.28,10.39,13.88H710.3l-9.45-12.63-5,4.27v8.36h-1.64Z"/><path class="cls-2" d="M738.5,602.75v-4.44h1.63v4.44Zm0,26.34V606.93h1.63v22.16Z"/><path class="cls-2" d="M751.39,606.93H753v4.74h.08a7.28,7.28,0,0,1,1.23-2.22,8.37,8.37,0,0,1,1.85-1.66,8.28,8.28,0,0,1,2.31-1,9.51,9.51,0,0,1,2.55-.35,9.89,9.89,0,0,1,3.29.48,6.23,6.23,0,0,1,2.22,1.25,6.05,6.05,0,0,1,1.36,1.74,8.06,8.06,0,0,1,.71,2,11,11,0,0,1,.26,1.92c0,.61.05,1.15.05,1.61v13.71H767.3v-14c0-.55,0-1.23-.13-2.07a6.31,6.31,0,0,0-.76-2.39,5.43,5.43,0,0,0-1.89-2,6.43,6.43,0,0,0-3.52-.82,7.82,7.82,0,0,0-3.36.69,7.25,7.25,0,0,0-2.5,1.92,8.34,8.34,0,0,0-1.58,2.93,12.59,12.59,0,0,0-.53,3.73v12h-1.64Z"/><path class="cls-2" d="M788,608.35h-4.83v15.48a6.08,6.08,0,0,0,.3,2.12,2.4,2.4,0,0,0,.93,1.18,3.26,3.26,0,0,0,1.51.5,14.9,14.9,0,0,0,2,0v1.42a15.24,15.24,0,0,1-2.44,0,4.84,4.84,0,0,1-2.09-.64,3.75,3.75,0,0,1-1.44-1.62,6.08,6.08,0,0,1-.46-3V608.35h-4.09v-1.42h4.09V600h1.64v6.9H788Z"/><path class="cls-2" d="M796,618a14.41,14.41,0,0,1,.67-4.46,11.26,11.26,0,0,1,2-3.69,9.4,9.4,0,0,1,3.19-2.52,10.66,10.66,0,0,1,8.71,0,9.3,9.3,0,0,1,3.19,2.52,11.26,11.26,0,0,1,2,3.69,14.41,14.41,0,0,1,.67,4.46,14.7,14.7,0,0,1-.67,4.49,10.83,10.83,0,0,1-2,3.68,9.25,9.25,0,0,1-3.19,2.5,10.66,10.66,0,0,1-8.71,0,9.34,9.34,0,0,1-3.19-2.5,10.83,10.83,0,0,1-2-3.68A14.7,14.7,0,0,1,796,618Zm1.64,0a13.08,13.08,0,0,0,.56,3.82,10.15,10.15,0,0,0,1.64,3.25,8,8,0,0,0,2.67,2.27,8.42,8.42,0,0,0,7.33,0,7.91,7.91,0,0,0,2.67-2.27,10.15,10.15,0,0,0,1.64-3.25,13.27,13.27,0,0,0,0-7.63,10.31,10.31,0,0,0-1.64-3.26,7.89,7.89,0,0,0-2.67-2.26,8.42,8.42,0,0,0-7.33,0,8,8,0,0,0-2.67,2.26,10.31,10.31,0,0,0-1.64,3.26A13.06,13.06,0,0,0,797.61,618Z"/><path class="cls-2" d="M852.37,608.35h-4.83v15.48a6.08,6.08,0,0,0,.3,2.12,2.4,2.4,0,0,0,.93,1.18,3.22,3.22,0,0,0,1.51.5,14.79,14.79,0,0,0,2,0v1.42a15.13,15.13,0,0,1-2.43,0,4.84,4.84,0,0,1-2.09-.64,3.77,3.77,0,0,1-1.45-1.62,6.1,6.1,0,0,1-.45-3V608.35h-4.1v-1.42h4.1V600h1.64v6.9h4.83Z"/><path class="cls-2" d="M863.06,598.31v13.36h.09a6.88,6.88,0,0,1,1.23-2.22,8.15,8.15,0,0,1,1.85-1.66,8,8,0,0,1,2.31-1,9.49,9.49,0,0,1,2.54-.35,10,10,0,0,1,3.3.48,6.41,6.41,0,0,1,2.22,1.25,6.23,6.23,0,0,1,1.36,1.74,8.49,8.49,0,0,1,.71,2,12.09,12.09,0,0,1,.26,1.92c0,.61,0,1.15,0,1.61v13.71h-1.64v-14a19.8,19.8,0,0,0-.13-2.07,6.29,6.29,0,0,0-.75-2.39,5.46,5.46,0,0,0-1.9-2,6.42,6.42,0,0,0-3.51-.82,7.83,7.83,0,0,0-3.37.69,7.35,7.35,0,0,0-2.5,1.92,8.32,8.32,0,0,0-1.57,2.93,12.27,12.27,0,0,0-.54,3.73v12h-1.64V598.31Z"/><path class="cls-2" d="M890.44,618.23v.26a13,13,0,0,0,.52,3.71,9.56,9.56,0,0,0,1.53,3.1,7.37,7.37,0,0,0,2.55,2.11,7.82,7.82,0,0,0,3.57.78,7.6,7.6,0,0,0,5.28-1.75,9.16,9.16,0,0,0,2.68-4.85h1.63a9.87,9.87,0,0,1-3.16,5.95,9.64,9.64,0,0,1-6.45,2.07,9.75,9.75,0,0,1-4.29-.88,8.78,8.78,0,0,1-3.06-2.42,10.13,10.13,0,0,1-1.83-3.62,16.53,16.53,0,0,1,0-9A11.19,11.19,0,0,1,891.3,610a9.39,9.39,0,0,1,3.13-2.59,9.57,9.57,0,0,1,4.42-1,9.34,9.34,0,0,1,4.12.87,8.43,8.43,0,0,1,3,2.35,10.19,10.19,0,0,1,1.83,3.45,13.63,13.63,0,0,1,.63,4.2c0,.14,0,.31,0,.5a3.87,3.87,0,0,0,0,.45Zm16.3-1.42a13.18,13.18,0,0,0-.61-3.43,8.33,8.33,0,0,0-1.53-2.85,7.64,7.64,0,0,0-2.47-2,7.16,7.16,0,0,0-3.3-.73,7.74,7.74,0,0,0-3.5.75,8.11,8.11,0,0,0-2.56,2,8.81,8.81,0,0,0-1.59,2.87,13.39,13.39,0,0,0-.7,3.37Z"/><path class="cls-2" d="M933.86,608.35v-1.42h4v-4.57a4.85,4.85,0,0,1,.38-2,3.53,3.53,0,0,1,1.06-1.36,4.53,4.53,0,0,1,1.55-.78,6.78,6.78,0,0,1,1.88-.26,11.08,11.08,0,0,1,1.94.22v1.42a11.94,11.94,0,0,0-1.94-.21,4,4,0,0,0-2.31.62,2.8,2.8,0,0,0-.93,2.48v4.44h4.62v1.42h-4.62v20.74h-1.63V608.35Z"/><path class="cls-2" d="M970.25,629.09h-1.64v-4.74h-.08a7.28,7.28,0,0,1-1.23,2.22,8.28,8.28,0,0,1-4.16,2.7,9.61,9.61,0,0,1-2.55.34,10.28,10.28,0,0,1-3.3-.47,6.75,6.75,0,0,1-2.22-1.25,6.13,6.13,0,0,1-1.36-1.75,8.42,8.42,0,0,1-.71-2,12.09,12.09,0,0,1-.26-1.92c0-.62,0-1.16,0-1.62V606.93h1.64v14a19.54,19.54,0,0,0,.13,2.1,6.43,6.43,0,0,0,.75,2.37,5.65,5.65,0,0,0,1.88,2,6.39,6.39,0,0,0,3.54.82,7.86,7.86,0,0,0,3.34-.69,7.23,7.23,0,0,0,2.52-1.92,8.5,8.5,0,0,0,1.57-2.93,12.32,12.32,0,0,0,.54-3.73v-12h1.64Z"/><path class="cls-2" d="M989.27,608.35h-4.83v15.48a6.08,6.08,0,0,0,.3,2.12,2.4,2.4,0,0,0,.93,1.18,3.18,3.18,0,0,0,1.5.5,14.94,14.94,0,0,0,2.05,0v1.42a15.13,15.13,0,0,1-2.43,0,4.93,4.93,0,0,1-2.1-.64,3.81,3.81,0,0,1-1.44-1.62,6.1,6.1,0,0,1-.45-3V608.35h-4.1v-1.42h4.1V600h1.64v6.9h4.83Z"/><path class="cls-2" d="M1015.87,629.09h-1.64v-4.74h-.09a7.05,7.05,0,0,1-1.22,2.22,8.17,8.17,0,0,1-1.86,1.66,8.06,8.06,0,0,1-2.31,1,9.48,9.48,0,0,1-2.54.34,10.28,10.28,0,0,1-3.3-.47,6.75,6.75,0,0,1-2.22-1.25,6.13,6.13,0,0,1-1.36-1.75,8.42,8.42,0,0,1-.71-2,12.09,12.09,0,0,1-.26-1.92c0-.62,0-1.16,0-1.62V606.93H1000v14a19.54,19.54,0,0,0,.13,2.1,6.25,6.25,0,0,0,.75,2.37,5.56,5.56,0,0,0,1.88,2,6.38,6.38,0,0,0,3.53.82,7.9,7.9,0,0,0,3.35-.69,7.23,7.23,0,0,0,2.52-1.92,8.5,8.5,0,0,0,1.57-2.93,12.32,12.32,0,0,0,.54-3.73v-12h1.64Z"/><path class="cls-2" d="M1028.37,611.85h.13a5.4,5.4,0,0,1,1.1-2,7.78,7.78,0,0,1,1.94-1.64,9.37,9.37,0,0,1,2.55-1,10,10,0,0,1,2.91-.33v1.64a7.83,7.83,0,0,0-3,.26,7.23,7.23,0,0,0-3.17,1.9,13.94,13.94,0,0,0-1,1.25,6.21,6.21,0,0,0-.76,1.33,8.32,8.32,0,0,0-.47,1.64,13.87,13.87,0,0,0-.22,2.16v12.11h-1.64V606.93h1.64Z"/><path class="cls-2" d="M1045.36,618.23v.26a13,13,0,0,0,.52,3.71,9.77,9.77,0,0,0,1.53,3.1,7.31,7.31,0,0,0,2.56,2.11,7.75,7.75,0,0,0,3.56.78,7.6,7.6,0,0,0,5.28-1.75,9.16,9.16,0,0,0,2.68-4.85h1.64a9.93,9.93,0,0,1-3.17,5.95,9.64,9.64,0,0,1-6.45,2.07,9.75,9.75,0,0,1-4.29-.88,8.78,8.78,0,0,1-3.06-2.42,10.13,10.13,0,0,1-1.83-3.62,16.53,16.53,0,0,1,0-9,11.19,11.19,0,0,1,1.87-3.75,9.39,9.39,0,0,1,3.13-2.59,9.57,9.57,0,0,1,4.42-1,9.34,9.34,0,0,1,4.12.87,8.43,8.43,0,0,1,3,2.35,10.39,10.39,0,0,1,1.84,3.45,13.94,13.94,0,0,1,.62,4.2c0,.14,0,.31,0,.5a3.87,3.87,0,0,0,0,.45Zm16.3-1.42a13.18,13.18,0,0,0-.61-3.43,8.33,8.33,0,0,0-1.53-2.85,7.7,7.7,0,0,0-2.46-2,7.23,7.23,0,0,0-3.31-.73,7.74,7.74,0,0,0-3.5.75,8,8,0,0,0-2.55,2,8.65,8.65,0,0,0-1.6,2.87,13.39,13.39,0,0,0-.7,3.37Z"/><path class="cls-2" d="M1076.15,602.75a12,12,0,0,1-.13,1.7,6.28,6.28,0,0,1-.46,1.58,4.35,4.35,0,0,1-.86,1.29,3.69,3.69,0,0,1-1.31.86v-1.42a1.65,1.65,0,0,0,.75-.71,4.72,4.72,0,0,0,.45-1.08,5.32,5.32,0,0,0,.22-1.19c0-.4,0-.74,0-1h-.9v-4.44h2.2Zm5.43,0a10.72,10.72,0,0,1-.13,1.7A6.71,6.71,0,0,1,1081,606a4.77,4.77,0,0,1-.86,1.29,3.64,3.64,0,0,1-1.32.86v-1.42a1.56,1.56,0,0,0,.75-.71A5.24,5.24,0,0,0,1080,605a5.93,5.93,0,0,0,.21-1.19c0-.4,0-.74,0-1h-.91v-4.44h2.2Z"/><path class="cls-2" d="M491,448.74h19.43v.73h-9.37v25.3h-.73v-25.3H491Z"/><path class="cls-2" d="M519.12,448.74v11.92h.07a6.4,6.4,0,0,1,2.24-3.61,6.35,6.35,0,0,1,2-1.07,7.64,7.64,0,0,1,2.51-.39,7.89,7.89,0,0,1,2.68.44,5.87,5.87,0,0,1,2.12,1.29,6,6,0,0,1,1.38,2.12,7.87,7.87,0,0,1,.49,2.9v12.43h-.72V462.45a7.19,7.19,0,0,0-.48-2.79,5.2,5.2,0,0,0-1.29-1.9,5.08,5.08,0,0,0-1.9-1.09,7.4,7.4,0,0,0-2.28-.35A6.47,6.47,0,0,0,523,457a6.27,6.27,0,0,0-2.13,1.71,7.72,7.72,0,0,0-1.3,2.5,10.15,10.15,0,0,0-.43,3v10.61h-.73v-26Z"/><path class="cls-2" d="M543.27,469.06a8.44,8.44,0,0,0,1.29,2.83,6.13,6.13,0,0,0,2.26,1.89,8.58,8.58,0,0,0,8.29-.86,7,7,0,0,0,2.43-4.64h.73a7.47,7.47,0,0,1-2.59,5.08,8.18,8.18,0,0,1-5.4,1.81,8.34,8.34,0,0,1-3.73-.7,6.5,6.5,0,0,1-2.54-2.06,9,9,0,0,1-1.45-3.13,15.05,15.05,0,0,1-.48-3.88,11.71,11.71,0,0,1,.69-4.16,9.65,9.65,0,0,1,1.83-3.08,7.69,7.69,0,0,1,5.68-2.57,8,8,0,0,1,3.78.84,7.51,7.51,0,0,1,2.58,2.22,9.26,9.26,0,0,1,1.46,3.18,13,13,0,0,1,.38,3.71H542.81A14.91,14.91,0,0,0,543.27,469.06Zm14-7.51a7.93,7.93,0,0,0-1.4-2.71,6.56,6.56,0,0,0-2.32-1.84,7.64,7.64,0,0,0-6.07-.1,6.9,6.9,0,0,0-2.33,1.7,8.6,8.6,0,0,0-1.62,2.68,11.23,11.23,0,0,0-.73,3.53h14.94A11,11,0,0,0,557.28,461.55Z"/><path class="cls-2" d="M599.2,460.84v.73H585.35v13.2h-.73v-26h16v.73H585.35v11.37Z"/><path class="cls-2" d="M622.24,474.77v-4.63h-.08a6.44,6.44,0,0,1-2.24,3.61,6.89,6.89,0,0,1-4.5,1.42,8.19,8.19,0,0,1-2.68-.42,5.67,5.67,0,0,1-2.11-1.28,5.76,5.76,0,0,1-1.39-2.11,7.91,7.91,0,0,1-.49-2.9V456h.73v12.32a7.47,7.47,0,0,0,.47,2.79,5.18,5.18,0,0,0,1.3,1.89,5,5,0,0,0,1.89,1.1,7.45,7.45,0,0,0,2.28.34,6.57,6.57,0,0,0,3-.63,6.3,6.3,0,0,0,2.13-1.72,7.3,7.3,0,0,0,1.3-2.49,10.2,10.2,0,0,0,.44-3V456H623v18.74Z"/><path class="cls-2" d="M635.54,471.12a4.44,4.44,0,0,0,.24,1.64,2.2,2.2,0,0,0,.6.88,1.54,1.54,0,0,0,.8.34,6.4,6.4,0,0,0,.88.06l1,0a2,2,0,0,0,.62-.09v.73l-.64.07c-.21,0-.59,0-1.15,0a3.23,3.23,0,0,1-2.16-.75,3.45,3.45,0,0,1-.9-2.75V456.76h-3.42V456h3.42v-5.91h.73V456h4.23v.73h-4.23Z"/><path class="cls-2" d="M662.37,474.77v-4.63h-.07a6.46,6.46,0,0,1-2.25,3.61,6.89,6.89,0,0,1-4.5,1.42,8.23,8.23,0,0,1-2.68-.42,5.67,5.67,0,0,1-2.11-1.28,5.76,5.76,0,0,1-1.39-2.11,8.12,8.12,0,0,1-.49-2.9V456h.73v12.32a7.26,7.26,0,0,0,.48,2.79,5,5,0,0,0,1.29,1.89,5.14,5.14,0,0,0,1.89,1.1,7.45,7.45,0,0,0,2.28.34,6.64,6.64,0,0,0,3-.63,6.3,6.3,0,0,0,2.13-1.72,7.46,7.46,0,0,0,1.29-2.49,10.2,10.2,0,0,0,.44-3V456h.73v18.74Z"/><path class="cls-2" d="M673.67,474.77V456h.73v4.63h.07a7.35,7.35,0,0,1,.8-2,5.61,5.61,0,0,1,1.46-1.62A7,7,0,0,1,678.9,456a9.07,9.07,0,0,1,2.93-.37v.73a7.11,7.11,0,0,0-3.33.53,6.39,6.39,0,0,0-2.32,1.75,7.42,7.42,0,0,0-1.34,2.57,10.07,10.07,0,0,0-.44,3v10.61Z"/><path class="cls-2" d="M689.76,469.06a8.26,8.26,0,0,0,1.3,2.83,6.05,6.05,0,0,0,2.26,1.89,8.58,8.58,0,0,0,8.29-.86,7,7,0,0,0,2.42-4.64h.73a7.47,7.47,0,0,1-2.59,5.08,8.15,8.15,0,0,1-5.39,1.81,8.39,8.39,0,0,1-3.74-.7,6.54,6.54,0,0,1-2.53-2.06,9,9,0,0,1-1.46-3.13,15.06,15.06,0,0,1-.47-3.88,11.71,11.71,0,0,1,.69-4.16,9.81,9.81,0,0,1,1.82-3.08,7.57,7.57,0,0,1,2.63-1.91,7.46,7.46,0,0,1,3.06-.66,8,8,0,0,1,3.77.84,7.46,7.46,0,0,1,2.59,2.22,9.45,9.45,0,0,1,1.46,3.18,13,13,0,0,1,.38,3.71H689.31A14.92,14.92,0,0,0,689.76,469.06Zm14-7.51a8.12,8.12,0,0,0-1.41-2.71,6.62,6.62,0,0,0-2.31-1.84,7.64,7.64,0,0,0-6.07-.1,6.8,6.8,0,0,0-2.33,1.7,8.81,8.81,0,0,0-1.63,2.68,11.23,11.23,0,0,0-.72,3.53h14.94A11.32,11.32,0,0,0,703.78,461.55Z"/><path class="cls-2" d="M730.71,461.7a9.47,9.47,0,0,1,1.63-3.12,8.1,8.1,0,0,1,2.64-2.17,8.42,8.42,0,0,1,7.25,0,8.24,8.24,0,0,1,2.65,2.17,9.64,9.64,0,0,1,1.62,3.12,12.95,12.95,0,0,1,0,7.4,9.49,9.49,0,0,1-1.62,3.11,7.93,7.93,0,0,1-2.65,2.15,8,8,0,0,1-9.89-2.15,9.32,9.32,0,0,1-1.63-3.11,12.95,12.95,0,0,1,0-7.4Zm.68,7.12a8.82,8.82,0,0,0,1.47,2.9,7.4,7.4,0,0,0,2.43,2,7.8,7.8,0,0,0,6.63,0,7.4,7.4,0,0,0,2.43-2,8.63,8.63,0,0,0,1.47-2.9,11.84,11.84,0,0,0,0-6.81,8.63,8.63,0,0,0-1.47-2.9,7.55,7.55,0,0,0-2.43-2,7.52,7.52,0,0,0-6.63,0,7.55,7.55,0,0,0-2.43,2,8.82,8.82,0,0,0-1.47,2.9,12.08,12.08,0,0,0,0,6.81Z"/><path class="cls-2" d="M754.63,456h3.17v-4.16a3.67,3.67,0,0,1,.34-1.75,2.28,2.28,0,0,1,.9-.92,3,3,0,0,1,1.2-.39,10.91,10.91,0,0,1,1.24-.07,7.53,7.53,0,0,1,.89.05l.68.1v.72l-.92-.1a7,7,0,0,0-.8,0,3,3,0,0,0-2.28.64,3.15,3.15,0,0,0-.52,2V456h4v.73h-4v18h-.73v-18h-3.17Z"/><path class="cls-2" d="M798.22,448.74a9.79,9.79,0,0,1,2.86.4,6.73,6.73,0,0,1,2.33,1.22,5.78,5.78,0,0,1,1.57,2,6.62,6.62,0,0,1,.57,2.85,6.1,6.1,0,0,1-1.57,4.08,5.52,5.52,0,0,1-1.73,1.29,5.77,5.77,0,0,1-2.21.57v.07a7.35,7.35,0,0,1,2.43.49,6.23,6.23,0,0,1,2,1.28,6.12,6.12,0,0,1,1.37,2,6.66,6.66,0,0,1,.51,2.67,7,7,0,0,1-.64,3.08,5.91,5.91,0,0,1-1.77,2.21,8,8,0,0,1-2.71,1.33,12.62,12.62,0,0,1-3.45.46H787v-26Zm0,12.1a8.88,8.88,0,0,0,2.5-.34,6.34,6.34,0,0,0,2.09-1.06,5.24,5.24,0,0,0,1.46-1.77,5.16,5.16,0,0,0,.55-2.44,6,6,0,0,0-.51-2.57,5,5,0,0,0-1.41-1.79,6,6,0,0,0-2.09-1.05,9,9,0,0,0-2.59-.35H787.76v11.37Zm-.11,13.2a10.78,10.78,0,0,0,3-.39,6.73,6.73,0,0,0,2.37-1.16,5.59,5.59,0,0,0,1.59-2,6.23,6.23,0,0,0,.58-2.79,5.9,5.9,0,0,0-.64-2.88,5.36,5.36,0,0,0-1.67-1.89,7.08,7.08,0,0,0-2.37-1.06,11.31,11.31,0,0,0-2.72-.33H787.76V474Z"/><path class="cls-2" d="M816.88,448.74v26h-.73v-26Z"/><path class="cls-2" d="M827,461.7a9.27,9.27,0,0,1,1.62-3.12,8.2,8.2,0,0,1,2.64-2.17,7.86,7.86,0,0,1,3.65-.82,7.7,7.7,0,0,1,3.6.82,8.24,8.24,0,0,1,2.65,2.17,9.45,9.45,0,0,1,1.62,3.12,12.72,12.72,0,0,1,0,7.4,9.3,9.3,0,0,1-1.62,3.11,7.93,7.93,0,0,1-2.65,2.15,8.52,8.52,0,0,1-7.25,0,7.89,7.89,0,0,1-2.64-2.15A9.12,9.12,0,0,1,827,469.1a12.72,12.72,0,0,1,0-7.4Zm.67,7.12a8.65,8.65,0,0,0,1.48,2.9,7.26,7.26,0,0,0,2.42,2,7.12,7.12,0,0,0,3.34.74,7,7,0,0,0,3.29-.74,7.4,7.4,0,0,0,2.43-2,8.63,8.63,0,0,0,1.47-2.9,11.84,11.84,0,0,0,0-6.81,8.63,8.63,0,0,0-1.47-2.9,7.55,7.55,0,0,0-2.43-2,6.89,6.89,0,0,0-3.29-.77,7,7,0,0,0-3.34.77,7.41,7.41,0,0,0-2.42,2,8.65,8.65,0,0,0-1.48,2.9,12.08,12.08,0,0,0,0,6.81Z"/><path class="cls-2" d="M867.26,471.21a6.81,6.81,0,0,1-4,3.48,8.54,8.54,0,0,1-2.93.48,8.1,8.1,0,0,1-3.56-.75,7.64,7.64,0,0,1-2.6-2,8.88,8.88,0,0,1-1.61-3,11.89,11.89,0,0,1-.54-3.63,13.67,13.67,0,0,1,.53-3.88,9.59,9.59,0,0,1,1.6-3.25,8,8,0,0,1,2.73-2.24,8.51,8.51,0,0,1,3.89-.84,8.09,8.09,0,0,1,2.51.4,6.89,6.89,0,0,1,2.15,1.17,6.62,6.62,0,0,1,1.59,1.91,7.29,7.29,0,0,1,.82,2.65h-.73a7.08,7.08,0,0,0-.8-2.39,6,6,0,0,0-1.43-1.68,5.62,5.62,0,0,0-1.89-1,7.46,7.46,0,0,0-2.22-.33,7.74,7.74,0,0,0-3.78.86,7.11,7.11,0,0,0-2.48,2.22,9.38,9.38,0,0,0-1.34,3.06,13.89,13.89,0,0,0-.42,3.34,10.86,10.86,0,0,0,.49,3.28,8.69,8.69,0,0,0,1.44,2.77,6.83,6.83,0,0,0,2.37,1.91,7.16,7.16,0,0,0,3.28.71,7.86,7.86,0,0,0,2.59-.42,6.26,6.26,0,0,0,2.13-1.22,6.32,6.32,0,0,0,2.2-4.44H868A7.94,7.94,0,0,1,867.26,471.21Z"/><path class="cls-2" d="M878.45,474.77h-.73v-26h.73v18L891.39,456h1.06l-8.61,7.14,9.22,11.6h-1l-8.78-11.09-4.85,4Z"/><path class="cls-2" d="M914.79,471.21a6.76,6.76,0,0,1-1.62,2.13,7,7,0,0,1-2.34,1.35,8.54,8.54,0,0,1-2.93.48,8,8,0,0,1-3.55-.75,7.58,7.58,0,0,1-2.61-2,8.68,8.68,0,0,1-1.6-3,11.6,11.6,0,0,1-.55-3.63,14,14,0,0,1,.53-3.88,9.59,9.59,0,0,1,1.6-3.25,7.93,7.93,0,0,1,2.74-2.24,8.44,8.44,0,0,1,3.88-.84,8.09,8.09,0,0,1,2.51.4,6.89,6.89,0,0,1,2.15,1.17,6.62,6.62,0,0,1,1.59,1.91,7.29,7.29,0,0,1,.82,2.65h-.73a6.87,6.87,0,0,0-.8-2.39,6.15,6.15,0,0,0-1.42-1.68,5.67,5.67,0,0,0-1.9-1,7.41,7.41,0,0,0-2.22-.33,7.74,7.74,0,0,0-3.78.86,7.07,7.07,0,0,0-2.47,2.22,9.4,9.4,0,0,0-1.35,3.06,13.89,13.89,0,0,0-.42,3.34,10.86,10.86,0,0,0,.49,3.28,8.69,8.69,0,0,0,1.44,2.77,6.83,6.83,0,0,0,2.37,1.91,7.16,7.16,0,0,0,3.28.71,7.82,7.82,0,0,0,2.59-.42,6.26,6.26,0,0,0,2.13-1.22,6.42,6.42,0,0,0,1.51-1.91,6.58,6.58,0,0,0,.7-2.53h.72A7.94,7.94,0,0,1,914.79,471.21Z"/><path class="cls-2" d="M926,448.74v11.92h.07a6.86,6.86,0,0,1,.82-2,6.53,6.53,0,0,1,1.42-1.6,6.46,6.46,0,0,1,2-1.07,7.66,7.66,0,0,1,2.52-.39,8,8,0,0,1,2.68.44,5.67,5.67,0,0,1,3.49,3.41,7.86,7.86,0,0,1,.5,2.9v12.43h-.73V462.45a7.19,7.19,0,0,0-.48-2.79,5,5,0,0,0-3.19-3,7.34,7.34,0,0,0-2.27-.35,6.48,6.48,0,0,0-3,.64,6.27,6.27,0,0,0-2.13,1.71,7.51,7.51,0,0,0-1.29,2.5,10.15,10.15,0,0,0-.44,3v10.61h-.73v-26Z"/><path class="cls-2" d="M950.55,459.37a5.6,5.6,0,0,1,1.36-2,6.3,6.3,0,0,1,2.19-1.31,8.76,8.76,0,0,1,3-.48,10.58,10.58,0,0,1,2.35.26,5.12,5.12,0,0,1,2,.89,4.82,4.82,0,0,1,1.35,1.66,5.94,5.94,0,0,1,.54,2.55v11.92a1.25,1.25,0,0,0,.22.8,1.11,1.11,0,0,0,.58.35,2.91,2.91,0,0,0,.79.07l.78,0v.73h-1.09a2.55,2.55,0,0,1-1.41-.39,1.57,1.57,0,0,1-.6-1.44V470.5h-.07a5.6,5.6,0,0,1-.93,1.75,6.78,6.78,0,0,1-1.6,1.5,8.32,8.32,0,0,1-2.21,1,8.9,8.9,0,0,1-2.7.39,7.5,7.5,0,0,1-4.55-1.26,4.39,4.39,0,0,1-1.72-3.77,5.91,5.91,0,0,1,.57-2.81,4.51,4.51,0,0,1,1.48-1.66,5.86,5.86,0,0,1,2.07-.84,18.75,18.75,0,0,1,2.34-.31l3.31-.2a10.28,10.28,0,0,0,2.28-.36,2.42,2.42,0,0,0,1.31-.84,2.69,2.69,0,0,0,.42-1.62,12,12,0,0,0-.14-1.75,3.91,3.91,0,0,0-.71-1.68,4.13,4.13,0,0,0-1.66-1.26,7.48,7.48,0,0,0-3-.49,6.76,6.76,0,0,0-4.6,1.44,5.7,5.7,0,0,0-1.82,4.07H950A7.36,7.36,0,0,1,950.55,459.37Zm12,4.39a2.25,2.25,0,0,1-1.13.78,9.57,9.57,0,0,1-1.75.42,17.28,17.28,0,0,1-2.13.18c-.77,0-1.51.06-2.24.11a16.69,16.69,0,0,0-2.14.28,5.06,5.06,0,0,0-1.84.72,3.77,3.77,0,0,0-1.27,1.46,5.3,5.3,0,0,0-.48,2.43,4.58,4.58,0,0,0,.28,1.58,3.35,3.35,0,0,0,.93,1.39,4.92,4.92,0,0,0,1.69,1,7.37,7.37,0,0,0,2.57.38,8,8,0,0,0,3.25-.62,7.27,7.27,0,0,0,2.38-1.62,6.67,6.67,0,0,0,1.46-2.31,7.63,7.63,0,0,0,.49-2.7v-3.46Z"/><path class="cls-2" d="M974.13,452.42v-3.68h.73v3.68Zm0,22.35V456h.73v18.74Z"/><path class="cls-2" d="M986.16,456v4.63h.07a6.86,6.86,0,0,1,.82-2,6.53,6.53,0,0,1,1.42-1.6,6.35,6.35,0,0,1,2-1.07,7.66,7.66,0,0,1,2.52-.39,7.87,7.87,0,0,1,2.67.44,5.65,5.65,0,0,1,3.5,3.41,7.86,7.86,0,0,1,.5,2.9v12.43h-.73V462.45a7.19,7.19,0,0,0-.48-2.79,5,5,0,0,0-3.19-3,7.34,7.34,0,0,0-2.27-.35,6.48,6.48,0,0,0-3,.64,6.27,6.27,0,0,0-2.13,1.71,7.51,7.51,0,0,0-1.29,2.5,9.83,9.83,0,0,0-.44,3v10.61h-.73V456Z"/><path class="cls-2" d="M275.5,175.88a22.39,22.39,0,0,1,6.45.9,15.07,15.07,0,0,1,5.25,2.76,12.83,12.83,0,0,1,3.54,4.56,14.9,14.9,0,0,1,1.27,6.41,13.69,13.69,0,0,1-3.53,9.2,13,13,0,0,1-8.88,4.19v.16a16.21,16.21,0,0,1,5.47,1.11,14.08,14.08,0,0,1,4.52,2.88,13.77,13.77,0,0,1,3.08,4.52,15.23,15.23,0,0,1,1.15,6,15.85,15.85,0,0,1-1.44,6.94,13.69,13.69,0,0,1-4,5,18.18,18.18,0,0,1-6.13,3,28.17,28.17,0,0,1-7.76,1H250.27V175.88Zm0,27.28a19.93,19.93,0,0,0,5.62-.78,14.14,14.14,0,0,0,4.73-2.38,11.92,11.92,0,0,0,3.28-4,11.7,11.7,0,0,0,1.24-5.5,13.54,13.54,0,0,0-1.15-5.8,11.12,11.12,0,0,0-3.17-4,13.56,13.56,0,0,0-4.72-2.39,21,21,0,0,0-5.83-.78H251.91v25.64Zm-.25,29.74A24.63,24.63,0,0,0,282,232a15.17,15.17,0,0,0,5.34-2.63,12.75,12.75,0,0,0,3.57-4.44,14,14,0,0,0,1.31-6.28,13.45,13.45,0,0,0-1.43-6.49,12.42,12.42,0,0,0-3.78-4.28,15.8,15.8,0,0,0-5.34-2.38,25.63,25.63,0,0,0-6.12-.74H251.91v28.1Z"/><path class="cls-2" d="M319.21,175.88v58.67h-1.65V175.88Z"/><path class="cls-2" d="M343.69,205.09a21.11,21.11,0,0,1,3.66-7,18.48,18.48,0,0,1,5.95-4.88,17.42,17.42,0,0,1,8.22-1.85,17.23,17.23,0,0,1,8.14,1.85,18.48,18.48,0,0,1,5.95,4.88,21.11,21.11,0,0,1,3.66,7,28.89,28.89,0,0,1,0,16.68,21,21,0,0,1-3.66,7,17.38,17.38,0,0,1-14.17,6.66,17.58,17.58,0,0,1-8.14-1.81,17.89,17.89,0,0,1-5.95-4.85,21,21,0,0,1-3.66-7,28.89,28.89,0,0,1,0-16.68Zm1.52,16.06a19.63,19.63,0,0,0,3.33,6.54A16.47,16.47,0,0,0,354,232.2a16,16,0,0,0,7.52,1.69A15.84,15.84,0,0,0,369,232.2a16.47,16.47,0,0,0,5.46-4.51,19.63,19.63,0,0,0,3.33-6.54,26.69,26.69,0,0,0,1.11-7.72,26.39,26.39,0,0,0-1.11-7.64,19.58,19.58,0,0,0-3.33-6.53A17,17,0,0,0,369,194.7a15.62,15.62,0,0,0-7.44-1.73A15.8,15.8,0,0,0,354,194.7a17,17,0,0,0-5.46,4.56,19.58,19.58,0,0,0-3.33,6.53,26.39,26.39,0,0,0-1.11,7.64A26.69,26.69,0,0,0,345.21,221.15Z"/><path class="cls-2" d="M436.05,226.54a15.5,15.5,0,0,1-3.66,4.8,16.05,16.05,0,0,1-5.26,3,19.62,19.62,0,0,1-6.61,1.07,18.29,18.29,0,0,1-8-1.68,17.51,17.51,0,0,1-5.87-4.56,20.14,20.14,0,0,1-3.62-6.7,26.54,26.54,0,0,1-1.23-8.18,31.77,31.77,0,0,1,1.19-8.75,21.86,21.86,0,0,1,3.62-7.31,17.63,17.63,0,0,1,6.16-5.05,19.15,19.15,0,0,1,8.75-1.89,17.9,17.9,0,0,1,5.67.9,15.39,15.39,0,0,1,4.85,2.63,14.67,14.67,0,0,1,3.57,4.31,16.16,16.16,0,0,1,1.85,6H435.8a15.37,15.37,0,0,0-1.81-5.38,13.45,13.45,0,0,0-3.2-3.78,12.83,12.83,0,0,0-4.28-2.26,16.92,16.92,0,0,0-5-.74,17.31,17.31,0,0,0-8.5,1.93,16,16,0,0,0-5.59,5,21.22,21.22,0,0,0-3,6.91,31.15,31.15,0,0,0-.94,7.51,24.87,24.87,0,0,0,1.1,7.4,19.4,19.4,0,0,0,3.25,6.24,15.49,15.49,0,0,0,5.34,4.32,16.45,16.45,0,0,0,7.4,1.6,17.6,17.6,0,0,0,5.83-.95,14.53,14.53,0,0,0,8.22-7.06,14.8,14.8,0,0,0,1.56-5.71h1.64A18.15,18.15,0,0,1,436.05,226.54Z"/><path class="cls-2" d="M462.91,234.55h-1.64V175.88h1.64v40.67l29.17-24.24h2.38l-19.39,16.11,20.79,26.13h-2.22l-19.8-25-10.93,9Z"/><path class="cls-2" d="M561.26,221.36A25.76,25.76,0,0,1,556,229a23.12,23.12,0,0,1-7.68,5,26.28,26.28,0,0,1-10,1.81,25,25,0,0,1-19.11-8.5,29.2,29.2,0,0,1-5.46-9.53,36.08,36.08,0,0,1-2-12.12,40.84,40.84,0,0,1,1.52-10.89,30.63,30.63,0,0,1,4.81-10.07,25.49,25.49,0,0,1,8.54-7.39,26.19,26.19,0,0,1,12.74-2.88,25.05,25.05,0,0,1,10.18,1.93,23.94,23.94,0,0,1,7.28,4.85,21,21,0,0,1,4.39,6.21,15.81,15.81,0,0,1,1.56,6H561.1a15.7,15.7,0,0,0-1.89-6.28,19.46,19.46,0,0,0-4.48-5.55,22.63,22.63,0,0,0-6.74-4,23.54,23.54,0,0,0-8.66-1.52A23.81,23.81,0,0,0,527.12,179a25,25,0,0,0-8,7.32,30.16,30.16,0,0,0-4.39,9.57,38.38,38.38,0,0,0-1.36,9.78A35.52,35.52,0,0,0,515,216.47a27.71,27.71,0,0,0,4.85,9.12,24.27,24.27,0,0,0,7.85,6.33,22.75,22.75,0,0,0,10.56,2.38,24.67,24.67,0,0,0,9.45-1.73,21.88,21.88,0,0,0,7.23-4.76,24.36,24.36,0,0,0,4.93-7.23,32.27,32.27,0,0,0,2.54-9h1.65A35.17,35.17,0,0,1,561.26,221.36Z"/><path class="cls-2" d="M588.54,175.88v26.87h.17a14.79,14.79,0,0,1,1.85-4.52,14.11,14.11,0,0,1,3.2-3.62,14.52,14.52,0,0,1,4.48-2.42,17.48,17.48,0,0,1,5.67-.86,18,18,0,0,1,6,1,12.94,12.94,0,0,1,7.89,7.69,18,18,0,0,1,1.1,6.53v28H617.3V206.77a16.48,16.48,0,0,0-1.07-6.28,11.65,11.65,0,0,0-2.91-4.27,11.47,11.47,0,0,0-4.28-2.47,16.59,16.59,0,0,0-5.13-.78,14.7,14.7,0,0,0-6.66,1.44,14.1,14.1,0,0,0-4.8,3.86,16.93,16.93,0,0,0-2.92,5.63,22.66,22.66,0,0,0-1,6.74v23.91H586.9V175.88Z"/><path class="cls-2" d="M645.57,199.83a12.65,12.65,0,0,1,3.08-4.48,14.15,14.15,0,0,1,4.93-2.95,19.73,19.73,0,0,1,6.86-1.07,23.85,23.85,0,0,1,5.3.57,11.42,11.42,0,0,1,4.39,2,10.37,10.37,0,0,1,3,3.73,13.6,13.6,0,0,1,1.24,5.76v26.86a2.72,2.72,0,0,0,.49,1.81,2.4,2.4,0,0,0,1.31.78A6.34,6.34,0,0,0,678,233c.63,0,1.22-.07,1.77-.13v1.65h-2.47a5.72,5.72,0,0,1-3.16-.87c-.91-.57-1.36-1.65-1.36-3.24v-5.51h-.16a13.15,13.15,0,0,1-2.1,3.95,15.38,15.38,0,0,1-3.61,3.37,18.83,18.83,0,0,1-5,2.34,20.73,20.73,0,0,1-6.08.86q-6.42,0-10.27-2.83t-3.87-8.51a13.45,13.45,0,0,1,1.28-6.33,10.13,10.13,0,0,1,3.32-3.73,12.93,12.93,0,0,1,4.69-1.89,37.72,37.72,0,0,1,5.26-.7l7.47-.45a23.24,23.24,0,0,0,5.14-.83,5.57,5.57,0,0,0,3-1.89,6,6,0,0,0,.94-3.65,25,25,0,0,0-.33-3.95,8.61,8.61,0,0,0-1.6-3.78,9.17,9.17,0,0,0-3.74-2.83,16.45,16.45,0,0,0-6.65-1.11q-6.66,0-10.36,3.25t-4.1,9.16h-1.65A16.76,16.76,0,0,1,645.57,199.83Zm27,9.9a5.13,5.13,0,0,1-2.55,1.77,20.17,20.17,0,0,1-3.94.94,40.73,40.73,0,0,1-4.81.41c-1.73.06-3.41.14-5,.25a39.24,39.24,0,0,0-4.81.62,11.46,11.46,0,0,0-4.15,1.64,8.46,8.46,0,0,0-2.87,3.29,11.92,11.92,0,0,0-1.07,5.46,10.82,10.82,0,0,0,.61,3.58,7.64,7.64,0,0,0,2.1,3.12,11.52,11.52,0,0,0,3.82,2.22,17,17,0,0,0,5.79.86,18.12,18.12,0,0,0,7.31-1.4,16.7,16.7,0,0,0,5.39-3.65,15.14,15.14,0,0,0,3.28-5.22,17.17,17.17,0,0,0,1.11-6.08v-7.81Z"/><path class="cls-2" d="M700.37,184.18v-8.3H702v8.3Zm0,50.37V192.31H702v42.24Z"/><path class="cls-2" d="M729.13,192.31v10.44h.16a14.79,14.79,0,0,1,1.85-4.52,14.18,14.18,0,0,1,7.68-6,17.48,17.48,0,0,1,5.67-.86,18,18,0,0,1,6,1,13.38,13.38,0,0,1,4.77,2.92,13.19,13.19,0,0,1,3.12,4.77,17.8,17.8,0,0,1,1.11,6.53v28h-1.65V206.77a16.49,16.49,0,0,0-1.06-6.28,11.79,11.79,0,0,0-2.92-4.27,11.43,11.43,0,0,0-4.27-2.47,16.7,16.7,0,0,0-5.14-.78,14.63,14.63,0,0,0-6.65,1.44,14.24,14.24,0,0,0-4.81,3.86,16.93,16.93,0,0,0-2.92,5.63,22.66,22.66,0,0,0-1,6.74v23.91h-1.65V192.31Z"/><path class="cls-2" d="M813.67,175.88v43.38a24.42,24.42,0,0,1-.86,6.74,13.71,13.71,0,0,1-2.75,5.26,12.1,12.1,0,0,1-5,3.41,21,21,0,0,1-7.52,1.19,19.24,19.24,0,0,1-7.15-1.19,12.58,12.58,0,0,1-4.85-3.33,13.18,13.18,0,0,1-2.75-5.05,22.61,22.61,0,0,1-.86-6.37v-3.53h1.64v3.53q0,7.23,3.53,10.81t10.44,3.57a21.07,21.07,0,0,0,6.2-.82,10.55,10.55,0,0,0,4.52-2.71,12,12,0,0,0,2.8-5A27.35,27.35,0,0,0,812,218V175.88Z"/><path class="cls-2" d="M840.62,199.83a12.81,12.81,0,0,1,3.09-4.48,14.15,14.15,0,0,1,4.93-2.95,19.73,19.73,0,0,1,6.86-1.07,23.92,23.92,0,0,1,5.3.57,11.42,11.42,0,0,1,4.39,2,10.48,10.48,0,0,1,3,3.73,13.45,13.45,0,0,1,1.23,5.76v26.86a2.72,2.72,0,0,0,.5,1.81,2.37,2.37,0,0,0,1.31.78A6.34,6.34,0,0,0,873,233c.63,0,1.22-.07,1.76-.13v1.65h-2.46a5.7,5.7,0,0,1-3.16-.87c-.91-.57-1.36-1.65-1.36-3.24v-5.51h-.16a13.15,13.15,0,0,1-2.1,3.95,15.38,15.38,0,0,1-3.61,3.37,19,19,0,0,1-5,2.34,20.8,20.8,0,0,1-6.09.86q-6.4,0-10.27-2.83t-3.86-8.51a13.45,13.45,0,0,1,1.28-6.33,10,10,0,0,1,3.32-3.73,12.93,12.93,0,0,1,4.69-1.89,37.72,37.72,0,0,1,5.26-.7l7.47-.45a23.34,23.34,0,0,0,5.14-.83,5.57,5.57,0,0,0,3-1.89,6.09,6.09,0,0,0,.94-3.65,25,25,0,0,0-.33-3.95,8.61,8.61,0,0,0-1.6-3.78,9.24,9.24,0,0,0-3.74-2.83A16.45,16.45,0,0,0,855.5,193q-6.66,0-10.36,3.25T841,205.38h-1.64A17,17,0,0,1,840.62,199.83Zm27,9.9a5.13,5.13,0,0,1-2.55,1.77,20.35,20.35,0,0,1-3.94.94,40.92,40.92,0,0,1-4.81.41c-1.73.06-3.41.14-5.05.25a39.24,39.24,0,0,0-4.81.62,11.39,11.39,0,0,0-4.15,1.64,8.48,8.48,0,0,0-2.88,3.29,12.06,12.06,0,0,0-1.06,5.46,10.82,10.82,0,0,0,.61,3.58,7.64,7.64,0,0,0,2.1,3.12,11.52,11.52,0,0,0,3.82,2.22,17,17,0,0,0,5.79.86,18.12,18.12,0,0,0,7.31-1.4,16.55,16.55,0,0,0,5.38-3.65,15,15,0,0,0,3.29-5.22,17.17,17.17,0,0,0,1.11-6.08v-7.81Z"/><path class="cls-2" d="M897.07,192.31v10.44h.16a15.79,15.79,0,0,1,1.81-4.52,14.9,14.9,0,0,1,3-3.62,14.12,14.12,0,0,1,4-2.42,12.38,12.38,0,0,1,4.64-.86,12.09,12.09,0,0,1,8.26,2.5,12.67,12.67,0,0,1,4.39,7.36h.17a13,13,0,0,1,4.85-7.15,13.8,13.8,0,0,1,8.54-2.71,15.54,15.54,0,0,1,6.41,1.15,10.64,10.64,0,0,1,4.11,3.16,12.38,12.38,0,0,1,2.22,4.85,28.31,28.31,0,0,1,.65,6.28v27.78h-1.64V206.77a28.18,28.18,0,0,0-.53-5.67,11,11,0,0,0-1.89-4.35,8.83,8.83,0,0,0-3.62-2.79,14.3,14.3,0,0,0-5.71-1,12.34,12.34,0,0,0-9.69,4.44,14.44,14.44,0,0,0-2.63,4.72,17.26,17.26,0,0,0-.91,5.63v26.79h-1.64V207.43a33.23,33.23,0,0,0-.45-5.59,12.68,12.68,0,0,0-1.69-4.6,8.71,8.71,0,0,0-3.45-3.12,12.46,12.46,0,0,0-5.75-1.15,11.33,11.33,0,0,0-5.67,1.44,13.48,13.48,0,0,0-4.31,3.86A18,18,0,0,0,898,203.9a23.66,23.66,0,0,0-.95,6.74v23.91h-1.64V192.31Z"/><path class="cls-2" d="M1052.69,234.55h-37.63a12.54,12.54,0,0,1,1.48-6.41,22.71,22.71,0,0,1,4.11-5.38,47.12,47.12,0,0,1,5.71-4.77l6.28-4.48c2.14-1.48,4.22-3,6.25-4.52a44.86,44.86,0,0,0,5.42-4.8,22.55,22.55,0,0,0,3.82-5.34,14.19,14.19,0,0,0,.25-11.92,12,12,0,0,0-3.25-4.19,14.22,14.22,0,0,0-4.89-2.55,21.36,21.36,0,0,0-6.2-.86,19.17,19.17,0,0,0-7.48,1.32,13.13,13.13,0,0,0-5.09,3.65,14.71,14.71,0,0,0-2.88,5.59,26.51,26.51,0,0,0-.9,7.11h-1.64q.08-9.21,4.56-14.26t13.43-5.05a23.17,23.17,0,0,1,6.74.94,15.49,15.49,0,0,1,5.42,2.84,13.87,13.87,0,0,1,3.66,4.68,16,16,0,0,1-1.11,14.95,34.34,34.34,0,0,1-6.21,7.07,77.4,77.4,0,0,1-8.09,6.2q-4.35,2.92-8.17,5.84a44.65,44.65,0,0,0-6.54,6,11.62,11.62,0,0,0-3,6.69h36Z"/><path class="cls-2" d="M1115.59,217a28.93,28.93,0,0,1-3.49,9.29,19.55,19.55,0,0,1-6.49,6.61,21.52,21.52,0,0,1-20.17,0,19.33,19.33,0,0,1-6.54-6.61,28.93,28.93,0,0,1-3.49-9.29,53.37,53.37,0,0,1,0-20.87,29,29,0,0,1,3.49-9.28,19.74,19.74,0,0,1,6.54-6.66,21.29,21.29,0,0,1,20.17,0,20,20,0,0,1,6.49,6.66,29,29,0,0,1,3.49,9.28,53.37,53.37,0,0,1,0,20.87Zm-1.52-20a28.33,28.33,0,0,0-3.12-8.79,18.71,18.71,0,0,0-6-6.45,19.2,19.2,0,0,0-19,0,18.71,18.71,0,0,0-6,6.45,28.33,28.33,0,0,0-3.12,8.79,50.91,50.91,0,0,0,0,19.06,28.33,28.33,0,0,0,3.12,8.79,18.71,18.71,0,0,0,6,6.45,19.2,19.2,0,0,0,19,0,18.71,18.71,0,0,0,6-6.45,28.33,28.33,0,0,0,3.12-8.79,50.91,50.91,0,0,0,0-19.06Z"/><path class="cls-2" d="M1159.1,180.81a23.65,23.65,0,0,1-6.62,6.12,30.21,30.21,0,0,1-8.26,3.74V189a32,32,0,0,0,4.52-1.81,27.66,27.66,0,0,0,3.7-2.22,28.63,28.63,0,0,0,3.33-2.79q1.61-1.56,3.33-3.54h1.8v55.88h-1.64V180.81Z"/><path class="cls-2" d="M1236.21,208.54a14.38,14.38,0,0,1,3.82,10.39,15.92,15.92,0,0,1-1.64,7.48,14.82,14.82,0,0,1-4.4,5.14,18.73,18.73,0,0,1-6.45,3,32.87,32.87,0,0,1-15.61,0,18.56,18.56,0,0,1-6.45-3,14.82,14.82,0,0,1-4.4-5.14,15.92,15.92,0,0,1-1.64-7.48,14.38,14.38,0,0,1,3.82-10.39q3.83-4,10.48-4.64v-.17a14.55,14.55,0,0,1-4.48-1.35,14,14,0,0,1-3.66-2.55,11.16,11.16,0,0,1-2.46-3.57,10.79,10.79,0,0,1-.91-4.44,14.16,14.16,0,0,1,1.36-6.45,12.08,12.08,0,0,1,3.74-4.4,15.77,15.77,0,0,1,5.59-2.5,30.16,30.16,0,0,1,13.63,0,15.77,15.77,0,0,1,5.59,2.5,12.08,12.08,0,0,1,3.74,4.4,14.16,14.16,0,0,1,1.36,6.45,11,11,0,0,1-.91,4.44,11.16,11.16,0,0,1-2.46,3.57,14,14,0,0,1-3.66,2.55,14.55,14.55,0,0,1-4.48,1.35v.17Q1232.39,204.56,1236.21,208.54Zm.62,3.66a12.57,12.57,0,0,0-4.15-4.36,18,18,0,0,0-6-2.34,35.2,35.2,0,0,0-14,0,17.94,17.94,0,0,0-6,2.34,12.48,12.48,0,0,0-4.15,4.36,13.3,13.3,0,0,0-1.56,6.73,14.41,14.41,0,0,0,1.52,6.87,13.32,13.32,0,0,0,4.11,4.64,17.72,17.72,0,0,0,6,2.63,30.85,30.85,0,0,0,14.13,0,17.72,17.72,0,0,0,6-2.63,13.32,13.32,0,0,0,4.11-4.64,14.41,14.41,0,0,0,1.52-6.87A13.3,13.3,0,0,0,1236.83,212.2Zm-2.59-26.38a11,11,0,0,0-3.58-3.82,15,15,0,0,0-5.05-2.05,28.15,28.15,0,0,0-11.75,0,15,15,0,0,0-5,2.05,11,11,0,0,0-3.58,3.82,12.05,12.05,0,0,0-1.35,6,9.21,9.21,0,0,0,1.43,5.14,11.46,11.46,0,0,0,3.7,3.53,17.75,17.75,0,0,0,5.1,2,24.3,24.3,0,0,0,11.25,0,17.75,17.75,0,0,0,5.1-2,11.43,11.43,0,0,0,3.69-3.53,9.13,9.13,0,0,0,1.44-5.14A12.05,12.05,0,0,0,1234.24,185.82Z"/><path class="cls-2" d="M248.65,112.19h13.28v.5h-6.4V130H255V112.69h-6.38Z"/><path class="cls-2" d="M267.36,114.7v-2.51h.5v2.51Zm0,15.28V117.17h.5V130Z"/><path class="cls-2" d="M284.88,127.55a4.87,4.87,0,0,1-1.11,1.45,5,5,0,0,1-1.6.93,6,6,0,0,1-2,.32,5.5,5.5,0,0,1-2.43-.51,5.18,5.18,0,0,1-1.78-1.38,6.22,6.22,0,0,1-1.1-2,8,8,0,0,1-.37-2.48,9.66,9.66,0,0,1,.36-2.66A6.64,6.64,0,0,1,276,119a5.49,5.49,0,0,1,1.86-1.54,5.86,5.86,0,0,1,2.66-.57,5.21,5.21,0,0,1,1.72.28,4.75,4.75,0,0,1,1.47.79,4.48,4.48,0,0,1,1.08,1.31,4.87,4.87,0,0,1,.56,1.81h-.5a4.66,4.66,0,0,0-.55-1.64,4.13,4.13,0,0,0-1-1.14,3.82,3.82,0,0,0-1.29-.69,5.13,5.13,0,0,0-1.52-.22,5.24,5.24,0,0,0-2.58.58,5,5,0,0,0-1.7,1.52,6.52,6.52,0,0,0-.92,2.1,9.48,9.48,0,0,0-.28,2.28,7.59,7.59,0,0,0,.33,2.24,5.88,5.88,0,0,0,1,1.89,4.62,4.62,0,0,0,1.62,1.31,5,5,0,0,0,2.24.49,5.39,5.39,0,0,0,1.77-.29,4.53,4.53,0,0,0,2.49-2.14,4.57,4.57,0,0,0,.47-1.73h.5A5.67,5.67,0,0,1,284.88,127.55Z"/><path class="cls-2" d="M292.52,130H292V112.19h.49v12.33l8.85-7.35h.72l-5.88,4.88,6.3,7.93h-.67l-6-7.58-3.32,2.74Z"/><path class="cls-2" d="M307.63,126.08a5.62,5.62,0,0,0,.89,1.93,4.12,4.12,0,0,0,1.54,1.29,5.1,5.1,0,0,0,2.32.48,5.26,5.26,0,0,0,3.35-1.06,4.83,4.83,0,0,0,1.66-3.18h.5a5.18,5.18,0,0,1-1.77,3.48,6.51,6.51,0,0,1-6.24.76,4.64,4.64,0,0,1-1.74-1.41,6.29,6.29,0,0,1-1-2.14,10.31,10.31,0,0,1-.33-2.66,7.87,7.87,0,0,1,.48-2.84,6.56,6.56,0,0,1,1.24-2.1,5.21,5.21,0,0,1,1.8-1.31,5.11,5.11,0,0,1,2.09-.45,5.46,5.46,0,0,1,2.58.57,5.23,5.23,0,0,1,1.77,1.52,6.42,6.42,0,0,1,1,2.17,8.58,8.58,0,0,1,.26,2.54H307.32A10.65,10.65,0,0,0,307.63,126.08Zm9.58-5.14a5.34,5.34,0,0,0-1-1.85,4.55,4.55,0,0,0-1.58-1.26,4.9,4.9,0,0,0-2.19-.46,4.77,4.77,0,0,0-2,.4,4.59,4.59,0,0,0-1.59,1.16,5.74,5.74,0,0,0-1.11,1.83,7.75,7.75,0,0,0-.5,2.41h10.22A7.48,7.48,0,0,0,317.21,120.94Z"/><path class="cls-2" d="M325.88,127.48a3.2,3.2,0,0,0,.16,1.12,1.47,1.47,0,0,0,.41.6,1.08,1.08,0,0,0,.55.24c.2,0,.4,0,.6,0l.67,0a1.12,1.12,0,0,0,.43-.06v.5l-.44,0a6.59,6.59,0,0,1-.78,0,2.2,2.2,0,0,1-1.49-.52,2.38,2.38,0,0,1-.61-1.88v-9.91H323v-.5h2.34v-4h.5v4h2.89v.5h-2.89Z"/><path class="cls-2" d="M362.3,117.17,358.22,130h-.65l-4-12.31h-.05l-4,12.31h-.69l-4-12.81h.47l3.81,12.31h.05l4-12.31h.77l3.94,12.31h.05l3.89-12.31Z"/><path class="cls-2" d="M368,114.7v-2.51h.5v2.51ZM368,130V117.17h.5V130Z"/><path class="cls-2" d="M376.18,112.19V130h-.5V112.19Z"/><path class="cls-2" d="M383.9,112.19V130h-.5V112.19Z"/><path class="cls-2" d="M403.08,120.76a5,5,0,0,1,5.14-3.89,4.82,4.82,0,0,1,2.34.55,4.92,4.92,0,0,1,1.7,1.47,6.68,6.68,0,0,1,1.05,2.14,9.55,9.55,0,0,1,0,5.23,6.12,6.12,0,0,1-1.09,2.11,5,5,0,0,1-1.71,1.38,5.16,5.16,0,0,1-2.28.5,5.09,5.09,0,0,1-3.3-1.07,5.52,5.52,0,0,1-1.84-2.79H403V130h-.49V112.19H403v8.57Zm.3,5.2a6.22,6.22,0,0,0,1,2,4.84,4.84,0,0,0,1.63,1.35,4.78,4.78,0,0,0,2.2.5,4.61,4.61,0,0,0,2.18-.5,4.47,4.47,0,0,0,1.54-1.36,6.22,6.22,0,0,0,.92-2,8.64,8.64,0,0,0,.31-2.34,8.91,8.91,0,0,0-.28-2.23,6.21,6.21,0,0,0-.89-2,4.82,4.82,0,0,0-1.53-1.45,4.32,4.32,0,0,0-2.25-.56,4.79,4.79,0,0,0-3.77,1.61A6.79,6.79,0,0,0,403,123.6,7.93,7.93,0,0,0,403.38,126Z"/><path class="cls-2" d="M420.46,126.08a5.79,5.79,0,0,0,.88,1.93,4.15,4.15,0,0,0,1.55,1.29,5.07,5.07,0,0,0,2.32.48,5.26,5.26,0,0,0,3.35-1.06,4.82,4.82,0,0,0,1.65-3.18h.5a5.1,5.1,0,0,1-1.77,3.48,5.58,5.58,0,0,1-3.68,1.23,5.75,5.75,0,0,1-2.56-.47,4.69,4.69,0,0,1-1.73-1.41,6.31,6.31,0,0,1-1-2.14,10.77,10.77,0,0,1-.32-2.66,8.09,8.09,0,0,1,.47-2.84,6.58,6.58,0,0,1,1.25-2.1,5.09,5.09,0,0,1,1.79-1.31,5.15,5.15,0,0,1,2.1-.45,5.45,5.45,0,0,1,2.57.57A5,5,0,0,1,429.6,119a6.44,6.44,0,0,1,1,2.17,8.92,8.92,0,0,1,.26,2.54H420.15A10.65,10.65,0,0,0,420.46,126.08Zm9.58-5.14a5.71,5.71,0,0,0-1-1.85,4.55,4.55,0,0,0-1.58-1.26,4.9,4.9,0,0,0-2.19-.46,4.77,4.77,0,0,0-2,.4,4.41,4.41,0,0,0-1.59,1.16,5.74,5.74,0,0,0-1.11,1.83,7.48,7.48,0,0,0-.5,2.41h10.21A7.81,7.81,0,0,0,430,120.94Z"/><path class="cls-2" d="M448.45,121a6.55,6.55,0,0,1,1.11-2.13,5.76,5.76,0,0,1,1.8-1.48,5.39,5.39,0,0,1,2.5-.56,5.25,5.25,0,0,1,2.46.56,5.69,5.69,0,0,1,1.81,1.48,6.55,6.55,0,0,1,1.11,2.13,8.83,8.83,0,0,1,0,5.06,6.35,6.35,0,0,1-1.11,2.13,5.66,5.66,0,0,1-6.77,1.47,5.35,5.35,0,0,1-1.8-1.47,6.35,6.35,0,0,1-1.11-2.13,8.83,8.83,0,0,1,0-5.06Zm.46,4.87a5.8,5.8,0,0,0,1,2,5.05,5.05,0,0,0,1.66,1.38,5.28,5.28,0,0,0,4.53,0,5.05,5.05,0,0,0,1.66-1.38,6.17,6.17,0,0,0,1-2,8.36,8.36,0,0,0,0-4.65,6.17,6.17,0,0,0-1-2,5.08,5.08,0,0,0-1.66-1.39,5.19,5.19,0,0,0-4.53,0,5.08,5.08,0,0,0-1.66,1.39,5.8,5.8,0,0,0-1,2,8.12,8.12,0,0,0,0,4.65Z"/><path class="cls-2" d="M466.66,117.17v3.16h0a4.71,4.71,0,0,1,.56-1.37,4.38,4.38,0,0,1,2.33-1.83,5.77,5.77,0,0,1,3.55,0,3.91,3.91,0,0,1,1.44.88,4,4,0,0,1,1,1.45,5.27,5.27,0,0,1,.34,2V130h-.5v-8.43a5.1,5.1,0,0,0-.32-1.9,3.71,3.71,0,0,0-.89-1.3,3.33,3.33,0,0,0-1.29-.74,5,5,0,0,0-1.56-.24,4.45,4.45,0,0,0-2,.44,4.3,4.3,0,0,0-1.46,1.17,5.18,5.18,0,0,0-.88,1.7,6.92,6.92,0,0,0-.3,2V130h-.5V117.17Z"/><path class="cls-2" d="M502.56,119.31a2.85,2.85,0,0,0-.85-1.11,3.4,3.4,0,0,0-1.31-.63,6.67,6.67,0,0,0-1.68-.2,5.15,5.15,0,0,0-2.12.36,3.29,3.29,0,0,0-1.14.82,2.15,2.15,0,0,0-.47.91,3.2,3.2,0,0,0-.1.62,2.35,2.35,0,0,0,.38,1.46,2.53,2.53,0,0,0,1,.79,10.73,10.73,0,0,0,1.45.47l1.83.47,1.49.41a5.3,5.3,0,0,1,1.32.59,3,3,0,0,1,.94,1,2.76,2.76,0,0,1,.36,1.49,3.06,3.06,0,0,1-.41,1.65,3.38,3.38,0,0,1-1.07,1.09,4.59,4.59,0,0,1-1.49.61,7.29,7.29,0,0,1-1.66.19,5.78,5.78,0,0,1-3.87-1.12,4.4,4.4,0,0,1-1.31-3.54h.5a3.91,3.91,0,0,0,1.21,3.18,5.28,5.28,0,0,0,3.47,1,6.49,6.49,0,0,0,1.43-.17,4.25,4.25,0,0,0,1.34-.52,3.22,3.22,0,0,0,1-.93,2.45,2.45,0,0,0,.39-1.4,2.25,2.25,0,0,0-.39-1.37,3.11,3.11,0,0,0-1-.86,5.75,5.75,0,0,0-1.4-.53l-1.62-.4c-.62-.15-1.16-.29-1.62-.43a9.51,9.51,0,0,1-1.25-.44,2.5,2.5,0,0,1-1.17-1,3.21,3.21,0,0,1-.37-1.67,3,3,0,0,1,.22-1.09,2.84,2.84,0,0,1,.75-1,4.21,4.21,0,0,1,1.34-.77,5.93,5.93,0,0,1,2-.3,5.42,5.42,0,0,1,3.39,1,3.72,3.72,0,0,1,1.25,3.12h-.5A4.05,4.05,0,0,0,502.56,119.31Z"/><path class="cls-2" d="M510.88,119.45a3.88,3.88,0,0,1,.93-1.36,4.3,4.3,0,0,1,1.5-.89,5.93,5.93,0,0,1,2.08-.33,7,7,0,0,1,1.61.18,3.38,3.38,0,0,1,1.33.61,3.12,3.12,0,0,1,.92,1.13,4,4,0,0,1,.37,1.74v8.15a.84.84,0,0,0,.15.55.8.8,0,0,0,.4.23,1.6,1.6,0,0,0,.54,0c.19,0,.37,0,.53,0v.5h-.74a1.69,1.69,0,0,1-1-.27,1.05,1.05,0,0,1-.41-1v-1.67h0a4.23,4.23,0,0,1-.64,1.2,4.7,4.7,0,0,1-1.1,1,5.77,5.77,0,0,1-1.5.71,6.41,6.41,0,0,1-1.85.26,5.16,5.16,0,0,1-3.11-.86,3,3,0,0,1-1.17-2.58,4.17,4.17,0,0,1,.38-1.92,3.09,3.09,0,0,1,1-1.13,4,4,0,0,1,1.42-.57,12.55,12.55,0,0,1,1.6-.22l2.26-.13a7.16,7.16,0,0,0,1.56-.25,1.76,1.76,0,0,0,.9-.57,1.86,1.86,0,0,0,.29-1.11,8.56,8.56,0,0,0-.1-1.2,2.58,2.58,0,0,0-.49-1.14,2.81,2.81,0,0,0-1.13-.86,4.9,4.9,0,0,0-2-.34,4.63,4.63,0,0,0-3.14,1,3.92,3.92,0,0,0-1.25,2.78h-.49A4.9,4.9,0,0,1,510.88,119.45Zm8.2,3a1.65,1.65,0,0,1-.78.54,6.13,6.13,0,0,1-1.19.28,12.78,12.78,0,0,1-1.46.13l-1.53.07a13.53,13.53,0,0,0-1.46.19,3.51,3.51,0,0,0-1.26.5,2.63,2.63,0,0,0-.87,1,3.64,3.64,0,0,0-.32,1.66,3.31,3.31,0,0,0,.18,1.08,2.32,2.32,0,0,0,.64,1,3.25,3.25,0,0,0,1.16.67,5,5,0,0,0,1.75.27,5.56,5.56,0,0,0,2.22-.43,4.9,4.9,0,0,0,1.63-1.11,4.57,4.57,0,0,0,1-1.58,5.3,5.3,0,0,0,.34-1.84v-2.37Z"/><path class="cls-2" d="M527.5,112.19V130H527V112.19Z"/><path class="cls-2" d="M534.78,126.08a5.62,5.62,0,0,0,.89,1.93,4,4,0,0,0,1.54,1.29,5.07,5.07,0,0,0,2.32.48,5.26,5.26,0,0,0,3.35-1.06,4.78,4.78,0,0,0,1.65-3.18h.5a5.1,5.1,0,0,1-1.77,3.48,5.58,5.58,0,0,1-3.68,1.23,5.75,5.75,0,0,1-2.56-.47,4.69,4.69,0,0,1-1.73-1.41,6.11,6.11,0,0,1-1-2.14,10.31,10.31,0,0,1-.33-2.66,7.87,7.87,0,0,1,.48-2.84,6.56,6.56,0,0,1,1.24-2.1,5.23,5.23,0,0,1,3.89-1.76,5.52,5.52,0,0,1,2.58.57,5.1,5.1,0,0,1,1.76,1.52,6.44,6.44,0,0,1,1,2.17,8.58,8.58,0,0,1,.26,2.54H534.47A10.65,10.65,0,0,0,534.78,126.08Zm9.58-5.14a5.71,5.71,0,0,0-1-1.85,4.55,4.55,0,0,0-1.58-1.26,4.9,4.9,0,0,0-2.19-.46,4.77,4.77,0,0,0-2,.4,4.5,4.5,0,0,0-1.59,1.16,5.74,5.74,0,0,0-1.11,1.83,7.75,7.75,0,0,0-.5,2.41h10.21A7.47,7.47,0,0,0,544.36,120.94Z"/><path class="cls-2" d="M571.12,119.31a3,3,0,0,0-.85-1.11,3.47,3.47,0,0,0-1.31-.63,6.79,6.79,0,0,0-1.68-.2,5.12,5.12,0,0,0-2.12.36,3.29,3.29,0,0,0-1.14.82,2.3,2.3,0,0,0-.48.91,4.29,4.29,0,0,0-.1.62,2.35,2.35,0,0,0,.39,1.46,2.56,2.56,0,0,0,1,.79,11.36,11.36,0,0,0,1.46.47l1.83.47,1.48.41a5.3,5.3,0,0,1,1.32.59,3.08,3.08,0,0,1,.95,1,2.76,2.76,0,0,1,.36,1.49,3.06,3.06,0,0,1-.41,1.65,3.38,3.38,0,0,1-1.07,1.09,4.59,4.59,0,0,1-1.49.61,7.29,7.29,0,0,1-1.66.19,5.83,5.83,0,0,1-3.88-1.12,4.43,4.43,0,0,1-1.3-3.54h.49a3.94,3.94,0,0,0,1.21,3.18,5.33,5.33,0,0,0,3.48,1,6.56,6.56,0,0,0,1.43-.17,4.1,4.1,0,0,0,1.33-.52,3.14,3.14,0,0,0,1-.93,2.53,2.53,0,0,0,.38-1.4,2.31,2.31,0,0,0-.38-1.37,3.11,3.11,0,0,0-1-.86A6,6,0,0,0,569,124l-1.62-.4c-.61-.15-1.15-.29-1.62-.43a9.34,9.34,0,0,1-1.24-.44,2.5,2.5,0,0,1-1.17-1,3.2,3.2,0,0,1-.38-1.67,3,3,0,0,1,.23-1.09,2.84,2.84,0,0,1,.75-1,4.11,4.11,0,0,1,1.34-.77,5.93,5.93,0,0,1,2-.3,5.42,5.42,0,0,1,3.39,1,3.72,3.72,0,0,1,1.24,3.12h-.49A4.05,4.05,0,0,0,571.12,119.31Z"/><path class="cls-2" d="M578.79,121a6.55,6.55,0,0,1,1.11-2.13,5.76,5.76,0,0,1,1.8-1.48,5.37,5.37,0,0,1,2.49-.56,5.26,5.26,0,0,1,2.47.56,5.69,5.69,0,0,1,1.81,1.48,6.55,6.55,0,0,1,1.11,2.13,8.83,8.83,0,0,1,0,5.06,6.35,6.35,0,0,1-1.11,2.13,5.66,5.66,0,0,1-6.77,1.47,5.35,5.35,0,0,1-1.8-1.47,6.35,6.35,0,0,1-1.11-2.13,8.83,8.83,0,0,1,0-5.06Zm.46,4.87a5.8,5.8,0,0,0,1,2,5.05,5.05,0,0,0,1.66,1.38,5.28,5.28,0,0,0,4.53,0,5.05,5.05,0,0,0,1.66-1.38,6.17,6.17,0,0,0,1-2,8.36,8.36,0,0,0,0-4.65,6.17,6.17,0,0,0-1-2,5.08,5.08,0,0,0-1.66-1.39,5.19,5.19,0,0,0-4.53,0,5.08,5.08,0,0,0-1.66,1.39,5.8,5.8,0,0,0-1,2,8.12,8.12,0,0,0,0,4.65Z"/><path class="cls-2" d="M596.2,121a6.55,6.55,0,0,1,1.11-2.13,5.69,5.69,0,0,1,1.81-1.48,5.32,5.32,0,0,1,2.49-.56,5.25,5.25,0,0,1,2.46.56,5.69,5.69,0,0,1,1.81,1.48A6.55,6.55,0,0,1,607,121a8.83,8.83,0,0,1,0,5.06,6.35,6.35,0,0,1-1.11,2.13,5.49,5.49,0,0,1-8.57,0,6.35,6.35,0,0,1-1.11-2.13,8.83,8.83,0,0,1,0-5.06Zm.46,4.87a6,6,0,0,0,1,2,5.05,5.05,0,0,0,1.66,1.38,4.85,4.85,0,0,0,2.28.51,4.78,4.78,0,0,0,2.25-.51,5.05,5.05,0,0,0,1.66-1.38,6,6,0,0,0,1-2,8.12,8.12,0,0,0,0-4.65,6,6,0,0,0-1-2,5.08,5.08,0,0,0-1.66-1.39,4.67,4.67,0,0,0-2.25-.52,4.74,4.74,0,0,0-2.28.52,5.08,5.08,0,0,0-1.66,1.39,6,6,0,0,0-1,2,8.36,8.36,0,0,0,0,4.65Z"/><path class="cls-2" d="M614.41,117.17v3.16h.05A5,5,0,0,1,615,119a4.22,4.22,0,0,1,1-1.09,4.41,4.41,0,0,1,1.35-.74,5.49,5.49,0,0,1,1.72-.26,5.32,5.32,0,0,1,1.83.3,4,4,0,0,1,1.45.88,4.3,4.3,0,0,1,.95,1.45,5.48,5.48,0,0,1,.33,2V130h-.5v-8.43a5.1,5.1,0,0,0-.32-1.9,3.58,3.58,0,0,0-.89-1.3,3.33,3.33,0,0,0-1.29-.74,5,5,0,0,0-1.56-.24,4.48,4.48,0,0,0-2,.44A4.26,4.26,0,0,0,615.6,119a5.2,5.2,0,0,0-.89,1.7,6.92,6.92,0,0,0-.3,2V130h-.49V117.17Z"/><path class="cls-2" d="M632.7,130v-2.45h.5V130Z"/></g><g id="ガイド"><rect class="cls-3" x="-0.1" y="0.06" width="1500" height="11391.51"/></g></svg>