<svg xmlns="http://www.w3.org/2000/svg" viewBox="0 0 189.97877 41.55558"><defs><style>.cls-1{opacity:0.8;}.cls-2{fill:#fff;}.cls-3{fill:#61b4e3;}.cls-4{fill:#0079b8;}.cls-5{fill:#2d98d3;}.cls-6{fill:#fff000;}.cls-7{fill:#262626;}</style></defs><title>アセット 4</title><g id="レイヤー_2" data-name="レイヤー 2"><g id="レイヤー_2-2" data-name="レイヤー 2"><g class="cls-1"><path class="cls-2" d="M1.27707,11.9614l12.9561,6.3247a1.42119,1.42119,0,0,0,.8271,0l12.9561-6.3247L15.06027,5.6362a1.413,1.413,0,0,0-.8271,0Z"/></g><path class="cls-2" d="M.62087,12.7841v14.772a.741.741,0,0,0,.3505.5625l13.1612,6.4253V19.7719a.74225.74225,0,0,0-.3516-.563Z"/><path class="cls-2" d="M28.67257,12.7841l-13.1611,6.4248a.74359.74359,0,0,0-.3506.563v14.772l13.1602-6.4253a.73937.73937,0,0,0,.3515-.5625Z"/><path class="cls-2" d="M35.80638,2.8725a1.45589,1.45589,0,0,0-.60741.1196L31.238,4.9262c-.12691.062-.17181.1275-.17181.1553,0,.0298.0449.0952.17181.1567l3.961,1.9346a1.67883,1.67883,0,0,0,1.2158,0l3.9609-1.9346c.1368-.0659.1729-.1308.1729-.1567,0-.0244-.0361-.0889-.1729-.1553l-3.9609-1.9341A1.45139,1.45139,0,0,0,35.80638,2.8725Z"/><path class="cls-2" d="M30.86888,5.5576c-.1934,0-.21391.2109-.21391.3017v4.4541a1.1545,1.1545,0,0,0,.583.9341l3.961,1.9331a.436.436,0,0,0,.1885.0503h0a.17971.17971,0,0,0,.14551-.0625.37321.37321,0,0,0,.06829-.2397V8.475a1.15224,1.15224,0,0,0-.583-.9331l-3.9609-1.9336A.448.448,0,0,0,30.86888,5.5576Z"/><path class="cls-2" d="M40.74488,5.5576a.44784.44784,0,0,0-.1885.0507l-3.9609,1.9336a1.15431,1.15431,0,0,0-.583.9331v4.4537c0,.0918.0214.3022.2138.3022h0a.43249.43249,0,0,0,.1885-.0503l3.9609-1.9331a1.15449,1.15449,0,0,0,.583-.9341V5.8593C40.95867,5.7685,40.93817,5.5576,40.74488,5.5576Z"/><path class="cls-2" d="M45.80347,0a1.52434,1.52434,0,0,0-.6387.1259l-1.3545.6616c-.1318.065-.2109.1465-.2109.2178,0,.0718.0791.1538.2109.2178l1.3545.6616a1.74828,1.74828,0,0,0,1.2773,0l1.35451-.6616c.13189-.064.211-.146.211-.2178,0-.0713-.0791-.1528-.211-.2178L46.44207.1259A1.52379,1.52379,0,0,0,45.80347,0Z"/><path class="cls-2" d="M43.47237,1.4125c-.1777,0-.2832.1387-.2832.3702V3.3144a1.22812,1.22812,0,0,0,.6211.9941l1.3555.6622a.50708.50708,0,0,0,.2178.0576h0a.248.248,0,0,0,.1982-.0865.43505.43505,0,0,0,.085-.2841V3.1264a1.23239,1.23239,0,0,0-.6221-.9956l-1.3545-.6611A.49978.49978,0,0,0,43.47237,1.4125Z"/><path class="cls-2" d="M48.13547,1.4125a.49965.49965,0,0,0-.2187.0572l-1.35449.6611a1.23214,1.23214,0,0,0-.62211.9956V4.6577c0,.2319.1055.3706.2832.3706h0a.511.511,0,0,0,.2187-.0576l1.35451-.6622a1.2279,1.2279,0,0,0,.62109-.9941V1.7827C48.41767,1.5512,48.31228,1.4125,48.13547,1.4125Z"/><path class="cls-2" d="M28.42847,33.3818l-4.49219-2.1934.02639.0528c-.0801.0385-8.001,3.8989-8.58889,4.2055a1.64318,1.64318,0,0,1-.76561.2007,1.26136,1.26136,0,0,1-.7256-.2182l-8.6221-4.1949L.865,33.3818c-1.1533.5625-1.1533,1.4824,0,2.0459l11.68651,5.706a5.41371,5.41371,0,0,0,4.19039,0l11.6866-5.706C29.58078,34.8642,29.58078,33.9443,28.42847,33.3818Z"/><g class="cls-1"><path class="cls-3" d="M1.27707,11.9614l12.9561,6.3247a1.42119,1.42119,0,0,0,.8271,0l12.9561-6.3247L15.06027,5.6362a1.413,1.413,0,0,0-.8271,0Z"/></g><path class="cls-4" d="M.62087,12.7841v14.772a.741.741,0,0,0,.3505.5625l13.1612,6.4253V19.7719a.74225.74225,0,0,0-.3516-.563Z"/><path class="cls-4" d="M28.67257,12.7841l-13.1611,6.4248a.74359.74359,0,0,0-.3506.563v14.772l13.1602-6.4253a.73937.73937,0,0,0,.3515-.5625Z"/><path class="cls-3" d="M35.80638,2.8725a1.45589,1.45589,0,0,0-.60741.1196L31.238,4.9262c-.12691.062-.17181.1275-.17181.1553,0,.0298.0449.0952.17181.1567l3.961,1.9346a1.67883,1.67883,0,0,0,1.2158,0l3.9609-1.9346c.1368-.0659.1729-.1308.1729-.1567,0-.0244-.0361-.0889-.1729-.1553l-3.9609-1.9341A1.45139,1.45139,0,0,0,35.80638,2.8725Z"/><path class="cls-5" d="M30.86888,5.5576c-.1934,0-.21391.2109-.21391.3017v4.4541a1.1545,1.1545,0,0,0,.583.9341l3.961,1.9331a.436.436,0,0,0,.1885.0503h0a.17971.17971,0,0,0,.14551-.0625.37321.37321,0,0,0,.06829-.2397V8.475a1.15224,1.15224,0,0,0-.583-.9331l-3.9609-1.9336A.448.448,0,0,0,30.86888,5.5576Z"/><path class="cls-4" d="M40.74488,5.5576a.44784.44784,0,0,0-.1885.0507l-3.9609,1.9336a1.15431,1.15431,0,0,0-.583.9331v4.4537c0,.0918.0214.3022.2138.3022h0a.43249.43249,0,0,0,.1885-.0503l3.9609-1.9331a1.15449,1.15449,0,0,0,.583-.9341V5.8593C40.95867,5.7685,40.93817,5.5576,40.74488,5.5576Z"/><path class="cls-3" d="M45.80347,0a1.52434,1.52434,0,0,0-.6387.1259l-1.3545.6616c-.1318.065-.2109.1465-.2109.2178,0,.0718.0791.1538.2109.2178l1.3545.6616a1.74828,1.74828,0,0,0,1.2773,0l1.35451-.6616c.13189-.064.211-.146.211-.2178,0-.0713-.0791-.1528-.211-.2178L46.44207.1259A1.52379,1.52379,0,0,0,45.80347,0Z"/><path class="cls-5" d="M43.47237,1.4125c-.1777,0-.2832.1387-.2832.3702V3.3144a1.22812,1.22812,0,0,0,.6211.9941l1.3555.6622a.50708.50708,0,0,0,.2178.0576h0a.248.248,0,0,0,.1982-.0865.43505.43505,0,0,0,.085-.2841V3.1264a1.23239,1.23239,0,0,0-.6221-.9956l-1.3545-.6611A.49978.49978,0,0,0,43.47237,1.4125Z"/><path class="cls-4" d="M48.13547,1.4125a.49965.49965,0,0,0-.2187.0572l-1.35449.6611a1.23214,1.23214,0,0,0-.62211.9956V4.6577c0,.2319.1055.3706.2832.3706h0a.511.511,0,0,0,.2187-.0576l1.35451-.6622a1.2279,1.2279,0,0,0,.62109-.9941V1.7827C48.41767,1.5512,48.31228,1.4125,48.13547,1.4125Z"/><path class="cls-6" d="M28.42847,33.3818l-4.49219-2.1934.02639.0528c-.0801.0385-8.001,3.8989-8.58889,4.2055a1.64318,1.64318,0,0,1-.76561.2007,1.26136,1.26136,0,0,1-.7256-.2182l-8.6221-4.1949L.865,33.3818c-1.1533.5625-1.1533,1.4824,0,2.0459l11.68651,5.706a5.41371,5.41371,0,0,0,4.19039,0l11.6866-5.706C29.58078,34.8642,29.58078,33.9443,28.42847,33.3818Z"/><path class="cls-7" d="M53.012,17.6405a4.519,4.519,0,0,1,1.3091.1835,3.06508,3.06508,0,0,1,1.06731.5586,2.61518,2.61518,0,0,1,.71679.9256A3.03272,3.03272,0,0,1,56.364,20.609a2.73138,2.73138,0,0,1-.1919,1.0173,2.76811,2.76811,0,0,1-.52541.8505,2.612,2.612,0,0,1-1.80119.8506v.0333a3.23776,3.23776,0,0,1,1.1093.2252,2.81194,2.81194,0,0,1,.917.5836,2.77,2.77,0,0,1,.6255.9173,3.06774,3.06774,0,0,1,.2334,1.2257,3.21932,3.21932,0,0,1-.292,1.4093,2.769,2.769,0,0,1-.8086,1.0089,3.65507,3.65507,0,0,1-1.2426.6088,5.68,5.68,0,0,1-1.57569.2084H47.89187V17.6405Zm0,5.5368a4.04544,4.04544,0,0,0,1.14211-.1585,2.83166,2.83166,0,0,0,.9589-.4836,2.42,2.42,0,0,0,.667-.8088,2.39505,2.39505,0,0,0,.2505-1.1174,2.72653,2.72653,0,0,0-.23339-1.1757,2.28506,2.28506,0,0,0-.64211-.8172,2.74579,2.74579,0,0,0-.9589-.4836,4.26681,4.26681,0,0,0-1.1841-.1585h-4.7867v5.2033Zm-.0503,6.037a5.02558,5.02558,0,0,0,1.3594-.1751,3.09026,3.09026,0,0,0,1.0839-.5336,2.56483,2.56483,0,0,0,.7256-.9006,2.85751,2.85751,0,0,0,.26661-1.2758,2.71239,2.71239,0,0,0-.292-1.3174,2.51409,2.51409,0,0,0-.7671-.8673,3.206,3.206,0,0,0-1.08389-.4836,5.1679,5.1679,0,0,0-1.24221-.1501h-4.7867v5.7035Z"/><path class="cls-7" d="M61.884,17.6405V29.5479h-.33349V17.6405Z"/><path class="cls-7" d="M66.85377,23.5692a4.29147,4.29147,0,0,1,.74221-1.4259,3.744,3.744,0,0,1,1.20889-.9923,3.54513,3.54513,0,0,1,1.6675-.3752,3.50947,3.50947,0,0,1,1.6509.3752,3.75811,3.75811,0,0,1,1.2095.9923,4.31164,4.31164,0,0,1,.7422,1.4259,5.85547,5.85547,0,0,1,0,3.3854,4.30774,4.30774,0,0,1-.7422,1.4259,3.65687,3.65687,0,0,1-1.2095.9839,3.61341,3.61341,0,0,1-1.66749.367,3.57491,3.57491,0,0,1-1.65091-.367,3.6435,3.6435,0,0,1-1.20889-.9839,4.2876,4.2876,0,0,1-.74221-1.4259,5.84428,5.84428,0,0,1,0-3.3854Zm.3086,3.2603a3.98,3.98,0,0,0,.6753,1.3259,3.34649,3.34649,0,0,0,1.1088.9172,3.26512,3.26512,0,0,0,1.5259.3419,3.22965,3.22965,0,0,0,1.5093-.3419,3.34689,3.34689,0,0,0,1.10891-.9172,3.99029,3.99029,0,0,0,.67579-1.3259,5.43237,5.43237,0,0,0,.2251-1.5676,5.37541,5.37541,0,0,0-.2251-1.551,3.99076,3.99076,0,0,0-.67579-1.3258,3.4403,3.4403,0,0,0-1.10891-.9256,3.16833,3.16833,0,0,0-1.5093-.3502,3.20292,3.20292,0,0,0-1.5259.3502,3.4399,3.4399,0,0,0-1.1088.9256,3.98047,3.98047,0,0,0-.6753,1.3258,5.35864,5.35864,0,0,0-.22559,1.551A5.41547,5.41547,0,0,0,67.16237,26.8295Z"/><path class="cls-7" d="M85.59837,27.9219a3.09183,3.09183,0,0,1-.7422.9756,3.27521,3.27521,0,0,1-1.0674.6171,3.98086,3.98086,0,0,1-1.3423.2168,3.69905,3.69905,0,0,1-1.6259-.342,3.49406,3.49406,0,0,1-1.1924-.9255,4.05468,4.05468,0,0,1-.7339-1.3592,5.38087,5.38087,0,0,1-.25-1.6593,6.411,6.411,0,0,1,.2417-1.7762,4.41607,4.41607,0,0,1,.73391-1.4842,3.589,3.589,0,0,1,1.2505-1.0257,3.891,3.891,0,0,1,1.77629-.3835,3.61923,3.61923,0,0,1,1.1509.1834,3.13384,3.13384,0,0,1,.9839.5337,2.947,2.947,0,0,1,.7251.8756,3.28106,3.28106,0,0,1,.3755,1.209h-.3335a3.13338,3.13338,0,0,0-.36719-1.0923,2.73784,2.73784,0,0,0-.65041-.7672,2.60287,2.60287,0,0,0-.8672-.4586,3.41034,3.41034,0,0,0-1.0171-.1501,3.52172,3.52172,0,0,0-1.726.3919,3.24267,3.24267,0,0,0-1.1343,1.0173,4.30382,4.30382,0,0,0-.6167,1.4009,6.33909,6.33909,0,0,0-.1919,1.526,4.98557,4.98557,0,0,0,.2251,1.5009,3.92214,3.92214,0,0,0,.6587,1.2674,3.156,3.156,0,0,0,1.084.8756,3.31377,3.31377,0,0,0,1.5009.3252,3.57224,3.57224,0,0,0,1.1841-.1918,2.919,2.919,0,0,0,1.9844-2.5933h.3335A3.66522,3.66522,0,0,1,85.59837,27.9219Z"/><path class="cls-7" d="M91.052,29.5479h-.33351V17.6405H91.052v8.2551l5.91989-4.9197h.48391l-3.936,3.2687,4.21971,5.3033h-.45071l-4.019-5.0698L91.052,26.3125Z"/><path class="cls-7" d="M111.01387,26.8713a5.2283,5.2283,0,0,1-1.0757,1.5592,4.73774,4.73774,0,0,1-1.559,1.0174,5.35949,5.35949,0,0,1-2.03471.3668,5.12283,5.12283,0,0,1-2.1763-.4586,5.04734,5.04734,0,0,1-1.7012-1.2674,5.88931,5.88931,0,0,1-1.1088-1.9346,7.28751,7.28751,0,0,1-.4004-2.4598,8.32125,8.32125,0,0,1,.3086-2.2098,6.24678,6.24678,0,0,1,.9755-2.0429,5.17651,5.17651,0,0,1,1.7344-1.5009,5.31859,5.31859,0,0,1,2.585-.5837,5.06913,5.06913,0,0,1,2.0679.3919,4.83253,4.83253,0,0,1,1.476.9839,4.26619,4.26619,0,0,1,.8921,1.2591,3.24463,3.24463,0,0,1,.3169,1.2175h-.3335a3.22592,3.22592,0,0,0-.3838-1.2758,3.96235,3.96235,0,0,0-.9087-1.1257,4.62156,4.62156,0,0,0-1.3676-.8088,5.34592,5.34592,0,0,0-4.23589.2835,5.04626,5.04626,0,0,0-1.626,1.4842,6.10077,6.10077,0,0,0-.892,1.9429,7.83893,7.83893,0,0,0-.27541,1.9846,7.16428,7.16428,0,0,0,.33351,2.1846,5.57577,5.57577,0,0,0,.9838,1.8512,4.91783,4.91783,0,0,0,1.59279,1.2841,4.62262,4.62262,0,0,0,2.1431.4836,4.9988,4.9988,0,0,0,1.918-.3502,4.43538,4.43538,0,0,0,1.4672-.9672,4.90405,4.90405,0,0,0,1.0005-1.4676,6.5771,6.5771,0,0,0,.5171-1.8345h.33351A7.08372,7.08372,0,0,1,111.01387,26.8713Z"/><path class="cls-7" d="M116.551,17.6405v5.4534h.03319a3.03622,3.03622,0,0,1,.375-.9173,2.8965,2.8965,0,0,1,1.5596-1.2257,3.5661,3.5661,0,0,1,1.1504-.1751,3.614,3.614,0,0,1,1.2261.2001,2.69473,2.69473,0,0,1,.9673.592,2.66709,2.66709,0,0,1,.6337.9673,3.62481,3.62481,0,0,1,.2251,1.3258v5.6869h-.33349V23.9111a3.35367,3.35367,0,0,0-.2168-1.2759,2.37784,2.37784,0,0,0-.59221-.8672,2.33739,2.33739,0,0,0-.8672-.5003,3.38377,3.38377,0,0,0-1.0425-.1584,2.98475,2.98475,0,0,0-1.3506.2919,2.87229,2.87229,0,0,0-.9756.7838,3.44226,3.44226,0,0,0-.5923,1.1424,4.62841,4.62841,0,0,0-.19969,1.3675v4.853h-.33351V17.6405Z"/><path class="cls-7" d="M128.12428,22.5019a2.57676,2.57676,0,0,1,.625-.909,2.89606,2.89606,0,0,1,1.00089-.6003,4.05122,4.05122,0,0,1,1.39261-.2168,4.81519,4.81519,0,0,1,1.07569.1167,2.30984,2.30984,0,0,1,.8921.4086,2.14863,2.14863,0,0,1,.6172.7588,2.75558,2.75558,0,0,1,.25,1.1674v5.4534a.55486.55486,0,0,0,.1001.3669.49634.49634,0,0,0,.2666.1584,1.24294,1.24294,0,0,0,.3589.0334q.19111-.00825.35841-.0251v.3336h-.5005a1.17085,1.17085,0,0,1-.64211-.1751.72134.72134,0,0,1-.2749-.6588V27.5967h-.0332a2.67435,2.67435,0,0,1-.4253.8005,3.10288,3.10288,0,0,1-.7339.6837,3.76374,3.76374,0,0,1-1.0093.4754,4.16532,4.16532,0,0,1-1.2339.1751,3.444,3.444,0,0,1-2.08439-.5754,2.00173,2.00173,0,0,1-.7842-1.7261,2.72829,2.72829,0,0,1,.25879-1.2841,2.04066,2.04066,0,0,1,.6753-.7589,2.67349,2.67349,0,0,1,.9507-.3835,7.8263,7.8263,0,0,1,1.0673-.1417q.88335-.0501,1.5176-.0918a4.67321,4.67321,0,0,0,1.042-.1668,1.1286,1.1286,0,0,0,.6006-.3835,1.22919,1.22919,0,0,0,.1919-.7421,5.07928,5.07928,0,0,0-.0669-.8005,1.7378,1.7378,0,0,0-.3252-.7672,1.86844,1.86844,0,0,0-.75879-.5753,3.34533,3.34533,0,0,0-1.3506-.2252,3.08194,3.08194,0,0,0-2.10151.6587,2.59949,2.59949,0,0,0-.834,1.8595h-.33349A3.41831,3.41831,0,0,1,128.12428,22.5019Zm5.48679,2.0096a1.04183,1.04183,0,0,1-.5171.3585,4.20812,4.20812,0,0,1-.8008.1917,8.44819,8.44819,0,0,1-.9756.0835q-.52515.0168-1.0254.05a7.98755,7.98755,0,0,0-.97549.1251,2.30849,2.30849,0,0,0-.84231.3335,1.70426,1.70426,0,0,0-.5835.6671,2.43912,2.43912,0,0,0-.2173,1.109,2.18628,2.18628,0,0,0,.1255.7255,1.53617,1.53617,0,0,0,.4253.6337,2.31607,2.31607,0,0,0,.77541.4503,3.42616,3.42616,0,0,0,1.1757.1751,3.67727,3.67727,0,0,0,1.48389-.2835,3.3596,3.3596,0,0,0,1.0928-.7422,3.06271,3.06271,0,0,0,.667-1.0589,3.49165,3.49165,0,0,0,.2251-1.2342V24.5115Z"/><path class="cls-7" d="M139.24777,19.3249V17.6405h.3335v1.6844Zm0,10.223v-8.572h.3335v8.572Z"/><path class="cls-7" d="M145.08468,20.9759v2.118h.03319a3.03622,3.03622,0,0,1,.375-.9173,2.89648,2.89648,0,0,1,1.55961-1.2257,3.566,3.566,0,0,1,1.15039-.1751,3.614,3.614,0,0,1,1.2261.2001,2.6151,2.6151,0,0,1,1.601,1.5593,3.62481,3.62481,0,0,1,.2251,1.3258v5.6869h-.33349V23.9111a3.35367,3.35367,0,0,0-.2168-1.2759,2.37894,2.37894,0,0,0-.59221-.8672,2.33743,2.33743,0,0,0-.86719-.5003,3.38435,3.38435,0,0,0-1.04251-.1584,2.98475,2.98475,0,0,0-1.3506.2919,2.87143,2.87143,0,0,0-.9756.7838,3.44226,3.44226,0,0,0-.5923,1.1424,4.62841,4.62841,0,0,0-.19969,1.3675v4.853h-.33351v-8.572Z"/><path class="cls-7" d="M162.24488,17.6405V26.446a5.00182,5.00182,0,0,1-.17481,1.3675,2.80357,2.80357,0,0,1-.5586,1.0673,2.46149,2.46149,0,0,1-1.0093.6921,4.24881,4.24881,0,0,1-1.5259.2418,3.88688,3.88688,0,0,1-1.4507-.2418,2.5616,2.5616,0,0,1-.9838-.6754,2.66354,2.66354,0,0,1-.5591-1.0256,4.54247,4.54247,0,0,1-.17479-1.2925v-.7171h.33349v.7171a3.00042,3.00042,0,0,0,.71721,2.193,2.85073,2.85073,0,0,0,2.11769.7254,4.28863,4.28863,0,0,0,1.2593-.1667,2.1361,2.1361,0,0,0,.917-.5504,2.42923,2.42923,0,0,0,.56739-1.0172,5.50275,5.50275,0,0,0,.1914-1.5677V17.6405Z"/><path class="cls-7" d="M167.71508,22.5019a2.57676,2.57676,0,0,1,.625-.909,2.89741,2.89741,0,0,1,1.001-.6003,4.05048,4.05048,0,0,1,1.3925-.2168,4.81525,4.81525,0,0,1,1.07569.1167,2.30917,2.30917,0,0,1,.8921.4086,2.14756,2.14756,0,0,1,.6172.7588,2.75558,2.75558,0,0,1,.25,1.1674v5.4534a.55486.55486,0,0,0,.1001.3669.49634.49634,0,0,0,.2666.1584,1.24325,1.24325,0,0,0,.3589.0334c.12741-.0055.2471-.0138.35841-.0251v.3336h-.50051a1.17082,1.17082,0,0,1-.6421-.1751.72134.72134,0,0,1-.2749-.6588V27.5967h-.0332a2.66961,2.66961,0,0,1-.4253.8005,3.101,3.101,0,0,1-.7339.6837,3.7646,3.7646,0,0,1-1.00919.4754,4.16639,4.16639,0,0,1-1.23391.1751,3.44435,3.44435,0,0,1-2.08449-.5754,2.00173,2.00173,0,0,1-.7842-1.7261,2.72829,2.72829,0,0,1,.25879-1.2841,2.04238,2.04238,0,0,1,.6753-.7589,2.67349,2.67349,0,0,1,.9507-.3835,7.82545,7.82545,0,0,1,1.0674-.1417q.8832-.0501,1.5175-.0918a4.67321,4.67321,0,0,0,1.042-.1668,1.1286,1.1286,0,0,0,.6006-.3835,1.22919,1.22919,0,0,0,.1919-.7421,5.0674,5.0674,0,0,0-.0669-.8005,1.7378,1.7378,0,0,0-.3252-.7672,1.86779,1.86779,0,0,0-.7588-.5753,3.34524,3.34524,0,0,0-1.35059-.2252,3.08211,3.08211,0,0,0-2.10151.6587,2.59984,2.59984,0,0,0-.834,1.8595h-.3335A3.42109,3.42109,0,0,1,167.71508,22.5019Zm5.48679,2.0096a1.04183,1.04183,0,0,1-.5171.3585,4.20812,4.20812,0,0,1-.8008.1917,8.44853,8.44853,0,0,1-.97549.0835q-.52517.0168-1.02541.05a7.98961,7.98961,0,0,0-.9756.1251,2.30851,2.30851,0,0,0-.8423.3335,1.70505,1.70505,0,0,0-.5835.6671,2.43912,2.43912,0,0,0-.2173,1.109,2.18628,2.18628,0,0,0,.1255.7255,1.53617,1.53617,0,0,0,.4253.6337,2.31607,2.31607,0,0,0,.77541.4503,3.42631,3.42631,0,0,0,1.17579.1751,3.67676,3.67676,0,0,0,1.4838-.2835,3.3596,3.3596,0,0,0,1.0928-.7422,3.06124,3.06124,0,0,0,.667-1.0589,3.49165,3.49165,0,0,0,.2251-1.2342V24.5115Z"/><path class="cls-7" d="M179.17208,20.9759v2.118h.0332a3.17635,3.17635,0,0,1,.36669-.9173,3.01784,3.01784,0,0,1,.6172-.7337,2.81887,2.81887,0,0,1,.8091-.492,2.53061,2.53061,0,0,1,.9419-.1751,2.45708,2.45708,0,0,1,1.6763.5086,2.5801,2.5801,0,0,1,.8921,1.4926h.0332a2.64948,2.64948,0,0,1,.9838-1.4509,2.81007,2.81007,0,0,1,1.7349-.5503,3.16743,3.16743,0,0,1,1.30081.2335,2.157,2.157,0,0,1,.83349.642,2.51168,2.51168,0,0,1,.45071.9839,5.66449,5.66449,0,0,1,.13329,1.2759v5.6368h-.3335V23.9111a5.6616,5.6616,0,0,0-.1084-1.1507,2.21348,2.21348,0,0,0-.38379-.884,1.79576,1.79576,0,0,0-.73391-.567,2.90933,2.90933,0,0,0-1.1587-.2001,2.50928,2.50928,0,0,0-1.9683.9006,2.94752,2.94752,0,0,0-.5336.9589,3.5445,3.5445,0,0,0-.18319,1.1424v5.4367h-.33351V24.0445a6.71028,6.71028,0,0,0-.0917-1.1341,2.57527,2.57527,0,0,0-.3418-.9339,1.76391,1.76391,0,0,0-.7007-.6337,2.53612,2.53612,0,0,0-1.1675-.2335,2.29937,2.29937,0,0,0-1.1504.2919,2.74828,2.74828,0,0,0-.876.7838,3.70635,3.70635,0,0,0-.55029,1.1424,4.80925,4.80925,0,0,0-.1914,1.3675v4.853h-.33351v-8.572Z"/></g></g></svg>