<svg xmlns="http://www.w3.org/2000/svg" viewBox="0 0 189.85718 41.55558"><defs><style>.cls-1{opacity:0.8;}.cls-2{fill:#fff;}.cls-3{fill:#61b4e3;}.cls-4{fill:#0079b8;}.cls-5{fill:#2d98d3;}.cls-6{fill:#fff000;}</style></defs><title>アセット 1</title><g id="レイヤー_2" data-name="レイヤー 2"><g id="レイヤー_2-2" data-name="レイヤー 2"><g class="cls-1"><path class="cls-2" d="M1.27708,11.9614l12.9561,6.3247a1.42119,1.42119,0,0,0,.8271,0l12.9561-6.3247L15.06028,5.6362a1.413,1.413,0,0,0-.8271,0Z"/></g><path class="cls-2" d="M.62088,12.7841v14.772a.741.741,0,0,0,.3505.5625l13.1612,6.4253V19.7719a.74225.74225,0,0,0-.3516-.563Z"/><path class="cls-2" d="M28.67258,12.7841l-13.1611,6.4248a.74356.74356,0,0,0-.3506.563v14.772l13.1602-6.4253a.7394.7394,0,0,0,.3515-.5625Z"/><path class="cls-2" d="M35.80638,2.8725a1.45588,1.45588,0,0,0-.6074.1196L31.238,4.9262c-.1269.062-.1718.1275-.1718.1553,0,.0298.0449.0952.1718.1567l3.961,1.9346a1.67883,1.67883,0,0,0,1.2158,0l3.9609-1.9346c.1368-.0659.1729-.1308.1729-.1567,0-.0244-.0361-.0889-.1729-.1553l-3.9609-1.9341A1.4514,1.4514,0,0,0,35.80638,2.8725Z"/><path class="cls-2" d="M30.86888,5.5576c-.1934,0-.2139.2109-.2139.3017v4.4541a1.15449,1.15449,0,0,0,.583.9341l3.961,1.9331a.436.436,0,0,0,.1885.0503h0a.17968.17968,0,0,0,.1455-.0625.37315.37315,0,0,0,.0683-.2397V8.475a1.15225,1.15225,0,0,0-.583-.9331l-3.9609-1.9336A.44788.44788,0,0,0,30.86888,5.5576Z"/><path class="cls-2" d="M40.74488,5.5576a.44788.44788,0,0,0-.1885.0507l-3.9609,1.9336a1.15432,1.15432,0,0,0-.583.9331v4.4537c0,.0918.0214.3022.2138.3022h0a.43253.43253,0,0,0,.1885-.0503l3.9609-1.9331a1.15449,1.15449,0,0,0,.583-.9341V5.8593C40.95868,5.7685,40.93818,5.5576,40.74488,5.5576Z"/><path class="cls-2" d="M45.80348,0a1.52427,1.52427,0,0,0-.6387.1259l-1.3545.6616c-.1318.065-.2109.1465-.2109.2178,0,.0718.0791.1538.2109.2178l1.3545.6616a1.74828,1.74828,0,0,0,1.2773,0l1.3545-.6616c.1319-.064.211-.146.211-.2178,0-.0713-.0791-.1528-.211-.2178L46.44208.1259A1.52379,1.52379,0,0,0,45.80348,0Z"/><path class="cls-2" d="M43.47238,1.4125c-.1777,0-.2832.1387-.2832.3702V3.3144a1.22812,1.22812,0,0,0,.6211.9941l1.3555.6622a.50708.50708,0,0,0,.2178.0576h0a.248.248,0,0,0,.1982-.0865.43505.43505,0,0,0,.085-.2841V3.1264a1.23239,1.23239,0,0,0-.6221-.9956l-1.3545-.6611A.49981.49981,0,0,0,43.47238,1.4125Z"/><path class="cls-2" d="M48.13548,1.4125a.49962.49962,0,0,0-.2187.0572l-1.3545.6611a1.23216,1.23216,0,0,0-.6221.9956V4.6577c0,.2319.1055.3706.2832.3706h0a.511.511,0,0,0,.2187-.0576l1.3545-.6622a1.22789,1.22789,0,0,0,.6211-.9941V1.7827C48.41768,1.5512,48.31228,1.4125,48.13548,1.4125Z"/><path class="cls-2" d="M28.42848,33.3818l-4.4922-2.1934.0264.0528c-.0801.0385-8.001,3.8989-8.5889,4.2055a1.64314,1.64314,0,0,1-.7656.2007,1.26136,1.26136,0,0,1-.7256-.2182l-8.6221-4.1949L.865,33.3818c-1.1533.5625-1.1533,1.4824,0,2.0459l11.6865,5.706a5.41374,5.41374,0,0,0,4.1904,0l11.6866-5.706C29.58078,34.8642,29.58078,33.9443,28.42848,33.3818Z"/><g class="cls-1"><path class="cls-3" d="M1.27708,11.9614l12.9561,6.3247a1.42119,1.42119,0,0,0,.8271,0l12.9561-6.3247L15.06028,5.6362a1.413,1.413,0,0,0-.8271,0Z"/></g><path class="cls-4" d="M.62088,12.7841v14.772a.741.741,0,0,0,.3505.5625l13.1612,6.4253V19.7719a.74225.74225,0,0,0-.3516-.563Z"/><path class="cls-4" d="M28.67258,12.7841l-13.1611,6.4248a.74356.74356,0,0,0-.3506.563v14.772l13.1602-6.4253a.7394.7394,0,0,0,.3515-.5625Z"/><path class="cls-3" d="M35.80638,2.8725a1.45588,1.45588,0,0,0-.6074.1196L31.238,4.9262c-.1269.062-.1718.1275-.1718.1553,0,.0298.0449.0952.1718.1567l3.961,1.9346a1.67883,1.67883,0,0,0,1.2158,0l3.9609-1.9346c.1368-.0659.1729-.1308.1729-.1567,0-.0244-.0361-.0889-.1729-.1553l-3.9609-1.9341A1.4514,1.4514,0,0,0,35.80638,2.8725Z"/><path class="cls-5" d="M30.86888,5.5576c-.1934,0-.2139.2109-.2139.3017v4.4541a1.15449,1.15449,0,0,0,.583.9341l3.961,1.9331a.436.436,0,0,0,.1885.0503h0a.17968.17968,0,0,0,.1455-.0625.37315.37315,0,0,0,.0683-.2397V8.475a1.15225,1.15225,0,0,0-.583-.9331l-3.9609-1.9336A.44788.44788,0,0,0,30.86888,5.5576Z"/><path class="cls-4" d="M40.74488,5.5576a.44788.44788,0,0,0-.1885.0507l-3.9609,1.9336a1.15432,1.15432,0,0,0-.583.9331v4.4537c0,.0918.0214.3022.2138.3022h0a.43253.43253,0,0,0,.1885-.0503l3.9609-1.9331a1.15449,1.15449,0,0,0,.583-.9341V5.8593C40.95868,5.7685,40.93818,5.5576,40.74488,5.5576Z"/><path class="cls-3" d="M45.80348,0a1.52427,1.52427,0,0,0-.6387.1259l-1.3545.6616c-.1318.065-.2109.1465-.2109.2178,0,.0718.0791.1538.2109.2178l1.3545.6616a1.74828,1.74828,0,0,0,1.2773,0l1.3545-.6616c.1319-.064.211-.146.211-.2178,0-.0713-.0791-.1528-.211-.2178L46.44208.1259A1.52379,1.52379,0,0,0,45.80348,0Z"/><path class="cls-5" d="M43.47238,1.4125c-.1777,0-.2832.1387-.2832.3702V3.3144a1.22812,1.22812,0,0,0,.6211.9941l1.3555.6622a.50708.50708,0,0,0,.2178.0576h0a.248.248,0,0,0,.1982-.0865.43505.43505,0,0,0,.085-.2841V3.1264a1.23239,1.23239,0,0,0-.6221-.9956l-1.3545-.6611A.49981.49981,0,0,0,43.47238,1.4125Z"/><path class="cls-4" d="M48.13548,1.4125a.49962.49962,0,0,0-.2187.0572l-1.3545.6611a1.23216,1.23216,0,0,0-.6221.9956V4.6577c0,.2319.1055.3706.2832.3706h0a.511.511,0,0,0,.2187-.0576l1.3545-.6622a1.22789,1.22789,0,0,0,.6211-.9941V1.7827C48.41768,1.5512,48.31228,1.4125,48.13548,1.4125Z"/><path class="cls-6" d="M28.42848,33.3818l-4.4922-2.1934.0264.0528c-.0801.0385-8.001,3.8989-8.5889,4.2055a1.64314,1.64314,0,0,1-.7656.2007,1.26136,1.26136,0,0,1-.7256-.2182l-8.6221-4.1949L.865,33.3818c-1.1533.5625-1.1533,1.4824,0,2.0459l11.6865,5.706a5.41374,5.41374,0,0,0,4.1904,0l11.6866-5.706C29.58078,34.8642,29.58078,33.9443,28.42848,33.3818Z"/><path class="cls-2" d="M52.17458,15.2558a4.47421,4.47421,0,0,1,1.2959.1817,3.03529,3.03529,0,0,1,1.0556.5532,2.58212,2.58212,0,0,1,.71.9155,2.99863,2.99863,0,0,1,.2549,1.2871,2.71792,2.71792,0,0,1-.1885,1.0073,2.77055,2.77055,0,0,1-.5205.8413,2.5869,2.5869,0,0,1-1.7822.8418v.0332a3.16345,3.16345,0,0,1,1.0976.2227,2.78315,2.78315,0,0,1,.9072.5771,2.73338,2.73338,0,0,1,.6192.9083,3.04608,3.04608,0,0,1,.2305,1.2119,3.1737,3.1737,0,0,1-.2891,1.3945,2.71549,2.71549,0,0,1-.7998.998,3.6077,3.6077,0,0,1-1.2295.6036,5.61962,5.61962,0,0,1-1.5596.206h-4.8681V15.2558Zm0,5.4795a4.00165,4.00165,0,0,0,1.1308-.1572,2.801,2.801,0,0,0,.9483-.4785,2.40275,2.40275,0,0,0,.6601-.7998,2.36323,2.36323,0,0,0,.2481-1.1065,2.68939,2.68939,0,0,0-.2315-1.1636,2.24334,2.24334,0,0,0-.6357-.8076,2.67388,2.67388,0,0,0-.9483-.479,4.2216,4.2216,0,0,0-1.1718-.1572h-4.7364v5.1494Zm-.0498,5.9731a4.97379,4.97379,0,0,0,1.3457-.1728,3.06,3.06,0,0,0,1.0722-.5278,2.52476,2.52476,0,0,0,.7178-.8911,2.832,2.832,0,0,0,.2637-1.2623,2.693,2.693,0,0,0-.2881-1.3046,2.49668,2.49668,0,0,0-.7598-.858,3.14852,3.14852,0,0,0-1.0722-.478,5.144,5.144,0,0,0-1.2295-.1484h-4.7364v5.643Z"/><path class="cls-2" d="M60.62378,15.2558V27.039h-.3301V15.2558Z"/><path class="cls-2" d="M65.21168,21.1235a4.24855,4.24855,0,0,1,.7334-1.4126,3.71919,3.71919,0,0,1,1.1963-.981,3.51551,3.51551,0,0,1,1.6504-.3716,3.4715,3.4715,0,0,1,1.6337.3716,3.723,3.723,0,0,1,1.1973.981,4.2504,4.2504,0,0,1,.7334,1.4126,5.77692,5.77692,0,0,1,0,3.3496,4.243,4.243,0,0,1-.7334,1.4111,3.50166,3.50166,0,0,1-2.8476,1.3365,3.54958,3.54958,0,0,1-1.6338-.3633,3.60972,3.60972,0,0,1-1.1963-.9732,4.24117,4.24117,0,0,1-.7334-1.4111,5.77692,5.77692,0,0,1,0-3.3496Zm.3047,3.2261a3.94665,3.94665,0,0,0,.6689,1.312,3.31818,3.31818,0,0,0,1.0967.9072,3.23929,3.23929,0,0,0,1.5098.3379,3.195,3.195,0,0,0,1.4931-.3379,3.31538,3.31538,0,0,0,1.0987-.9072,3.96341,3.96341,0,0,0,.6679-1.312,5.37266,5.37266,0,0,0,.2227-1.5508,5.308,5.308,0,0,0-.2227-1.5352,3.94186,3.94186,0,0,0-.6679-1.3125,3.39969,3.39969,0,0,0-1.0987-.9155,3.11774,3.11774,0,0,0-1.4931-.3472,3.16074,3.16074,0,0,0-1.5098.3472,3.40284,3.40284,0,0,0-1.0967.9155,3.92528,3.92528,0,0,0-.6689,1.3125,5.308,5.308,0,0,0-.2227,1.5352A5.37266,5.37266,0,0,0,65.51638,24.3496Z"/><path class="cls-2" d="M83.43238,25.4301a3.07255,3.07255,0,0,1-.7354.9654,3.24522,3.24522,0,0,1-1.0556.6108,3.96033,3.96033,0,0,1-1.3291.2144,3.67412,3.67412,0,0,1-1.6094-.3379,3.4701,3.4701,0,0,1-1.1797-.9161,3.9901,3.9901,0,0,1-.7256-1.3461,5.30484,5.30484,0,0,1-.248-1.6421,6.34719,6.34719,0,0,1,.2392-1.7564,4.39643,4.39643,0,0,1,.7256-1.4697,3.54282,3.54282,0,0,1,1.2383-1.0142,3.846,3.846,0,0,1,1.7568-.3799,3.58048,3.58048,0,0,1,1.1397.1822,3.07123,3.07123,0,0,1,.9736.5278,2.92883,2.92883,0,0,1,.7178.8662,3.2451,3.2451,0,0,1,.3711,1.1963h-.3291a3.11364,3.11364,0,0,0-.3643-1.081,2.71248,2.71248,0,0,0-.6435-.7588,2.573,2.573,0,0,0-.8575-.4541,3.39327,3.39327,0,0,0-1.0078-.1485,3.49364,3.49364,0,0,0-1.708.3877,3.21748,3.21748,0,0,0-1.1221,1.0069,4.28244,4.28244,0,0,0-.6103,1.3862,6.30347,6.30347,0,0,0-.1895,1.5093,4.8989,4.8989,0,0,0,.2227,1.4858,3.88056,3.88056,0,0,0,.6523,1.2544,3.11885,3.11885,0,0,0,1.0723.8667,3.28159,3.28159,0,0,0,1.4854.3213,3.526,3.526,0,0,0,1.1718-.19,2.91575,2.91575,0,0,0,1.6504-1.4189,2.89533,2.89533,0,0,0,.3125-1.147h.3311A3.63976,3.63976,0,0,1,83.43238,25.4301Z"/><path class="cls-2" d="M88.49678,27.039h-.3291V15.2558h.3291v8.169l5.8594-4.8682h.4785l-3.8945,3.2349L95.115,27.039h-.4463l-3.9756-5.0166-2.1963,1.8145Z"/><path class="cls-2" d="M104.95088,25.4301a3.071,3.071,0,0,1-.7343.9654,3.25614,3.25614,0,0,1-1.0557.6108,3.9575,3.9575,0,0,1-1.3301.2144,3.66964,3.66964,0,0,1-1.6084-.3379,3.46147,3.46147,0,0,1-1.1797-.9161,3.9901,3.9901,0,0,1-.7256-1.3461,5.2753,5.2753,0,0,1-.248-1.6421,6.3472,6.3472,0,0,1,.2393-1.7564,4.37564,4.37564,0,0,1,.7255-1.4697,3.54372,3.54372,0,0,1,1.2383-1.0142,3.84638,3.84638,0,0,1,1.7569-.3799,3.58031,3.58031,0,0,1,1.1396.1822,3.06782,3.06782,0,0,1,.9727.5278,2.94519,2.94519,0,0,1,.7187.8662,3.24444,3.24444,0,0,1,.3701,1.1963h-.3291a3.1336,3.1336,0,0,0-.3623-1.081,2.73053,2.73053,0,0,0-.6445-.7588,2.57725,2.57725,0,0,0-.8584-.4541,3.38712,3.38712,0,0,0-1.0068-.1485,3.49337,3.49337,0,0,0-1.708.3877A3.2,3.2,0,0,0,99.199,20.083a4.28,4.28,0,0,0-.6113,1.3862,6.30347,6.30347,0,0,0-.1895,1.5093,4.92694,4.92694,0,0,0,.2227,1.4858,3.88056,3.88056,0,0,0,.6523,1.2544,3.1305,3.1305,0,0,0,1.0732.8667,3.27786,3.27786,0,0,0,1.4844.3213,3.52832,3.52832,0,0,0,1.1729-.19,2.88319,2.88319,0,0,0,1.9629-2.5659h.33A3.61439,3.61439,0,0,1,104.95088,25.4301Z"/><path class="cls-2" d="M110.01728,15.2558v5.3965h.0323a3.01606,3.01606,0,0,1,.372-.9082,2.877,2.877,0,0,1,1.542-1.2124,3.52824,3.52824,0,0,1,1.1387-.1734,3.57367,3.57367,0,0,1,1.2139.1983,2.58767,2.58767,0,0,1,1.584,1.543,3.56613,3.56613,0,0,1,.2226,1.312V27.039h-.3291V21.4604a3.31918,3.31918,0,0,0-.2158-1.2622,2.336,2.336,0,0,0-.586-.8574,2.29749,2.29749,0,0,0-.8574-.4951,3.34743,3.34743,0,0,0-1.0322-.1573,2.95577,2.95577,0,0,0-1.3359.2891,2.85,2.85,0,0,0-.9659.7749,3.4043,3.4043,0,0,0-.5859,1.1313,4.58089,4.58089,0,0,0-.1973,1.3536V27.039h-.331V15.2558Z"/><path class="cls-2" d="M121.13938,20.0664a2.55614,2.55614,0,0,1,.6192-.899,2.86782,2.86782,0,0,1,.9902-.5942,4.01835,4.01835,0,0,1,1.3779-.2149,4.769,4.769,0,0,1,1.0645.1158,2.28623,2.28623,0,0,1,.8828.4038,2.12461,2.12461,0,0,1,.6103.7514,2.7258,2.7258,0,0,1,.2481,1.1553v5.396a.54921.54921,0,0,0,.0996.3633.48852.48852,0,0,0,.2637.1567,1.18949,1.18949,0,0,0,.3545.0327c.1269-.0043.2441-.0131.3544-.0249v.3306h-.4951a1.16013,1.16013,0,0,1-.6347-.1728.71392.71392,0,0,1-.2725-.6524V25.1083h-.0332a2.62518,2.62518,0,0,1-.4209.792,3.06382,3.06382,0,0,1-.7256.6763,3.72468,3.72468,0,0,1-.999.4707,4.1165,4.1165,0,0,1-1.2217.1734,3.40555,3.40555,0,0,1-2.0625-.5694,1.98349,1.98349,0,0,1-.7754-1.708,2.681,2.681,0,0,1,.2569-1.2705,2.01048,2.01048,0,0,1,.6669-.751,2.64258,2.64258,0,0,1,.9415-.3799,7.68086,7.68086,0,0,1,1.0556-.1401q.8745-.0498,1.502-.0903a4.68183,4.68183,0,0,0,1.0312-.1656,1.12206,1.12206,0,0,0,.5938-.3793,1.22077,1.22077,0,0,0,.1904-.7344,5.04411,5.04411,0,0,0-.0664-.7925,1.71678,1.71678,0,0,0-.3213-.7583,1.84932,1.84932,0,0,0-.751-.5703,3.32019,3.32019,0,0,0-1.3369-.2227,3.04564,3.04564,0,0,0-2.0791.6524,2.56858,2.56858,0,0,0-.8252,1.8398h-.331A3.44061,3.44061,0,0,1,121.13938,20.0664Zm5.4297,1.9882a1.02645,1.02645,0,0,1-.5117.355,4.14889,4.14889,0,0,1-.792.1904,8.61928,8.61928,0,0,1-.9658.0826q-.51855.016-1.0147.0498a7.71417,7.71417,0,0,0-.9648.123,2.28782,2.28782,0,0,0-.834.3301,1.691,1.691,0,0,0-.5781.6602,2.42832,2.42832,0,0,0-.2139,1.0976,2.18235,2.18235,0,0,0,.124.7183,1.51958,1.51958,0,0,0,.4209.6264,2.28081,2.28081,0,0,0,.7676.4453,3.39,3.39,0,0,0,1.1631.1734,3.63813,3.63813,0,0,0,1.4687-.2808,3.33419,3.33419,0,0,0,1.0811-.7334,3.0309,3.0309,0,0,0,.6592-1.0488,3.42788,3.42788,0,0,0,.2236-1.2207V22.0546Z"/><path class="cls-2" d="M131.81708,16.9228v-1.667h.3311v1.667Zm0,10.1162V18.5566h.3311V27.039Z"/><path class="cls-2" d="M137.26248,18.5566v2.0957h.0332a3.0376,3.0376,0,0,1,.3711-.9082,2.90327,2.90327,0,0,1,.6445-.7251,2.86925,2.86925,0,0,1,.8994-.4873,3.52391,3.52391,0,0,1,1.1387-.1734,3.56782,3.56782,0,0,1,1.2129.1983,2.592,2.592,0,0,1,1.5849,1.543,3.60587,3.60587,0,0,1,.2227,1.312V27.039h-.3311V21.4604a3.323,3.323,0,0,0-.2138-1.2622,2.36031,2.36031,0,0,0-.586-.8574,2.30935,2.30935,0,0,0-.8584-.4951,3.35032,3.35032,0,0,0-1.0312-.1573,2.96445,2.96445,0,0,0-1.3379.2891,2.86567,2.86567,0,0,0-.9649.7749,3.421,3.421,0,0,0-.5859,1.1313,4.58121,4.58121,0,0,0-.1982,1.3536V27.039h-.3301V18.5566Z"/><path class="cls-2" d="M161.47238,15.2558v8.7139a4.96083,4.96083,0,0,1-.1728,1.353,2.7789,2.7789,0,0,1-.5537,1.0562,2.43526,2.43526,0,0,1-.9981.6855,4.23193,4.23193,0,0,1-1.5098.2393,3.8659,3.8659,0,0,1-1.4355-.2393,2.54377,2.54377,0,0,1-.9746-.6689,2.634,2.634,0,0,1-.5518-1.0152,4.467,4.467,0,0,1-.1738-1.2788v-.7099h.3301v.7099a2.97162,2.97162,0,0,0,.709,2.1699,2.821,2.821,0,0,0,2.0966.7178,4.2297,4.2297,0,0,0,1.2452-.1645,2.1098,2.1098,0,0,0,.9091-.545,2.41368,2.41368,0,0,0,.5596-1.0063,5.40879,5.40879,0,0,0,.1904-1.5513V15.2558Z"/><path class="cls-2" d="M165.59838,27.039h-.3643l4.7696-11.7832h.4297l4.6533,11.7832h-.3633l-1.5508-3.8779h-6.0068Zm4.6367-11.4531h-.0332l-2.9043,7.2451h5.7422Z"/><path class="cls-2" d="M189.85718,15.2558V27.039h-.3301V15.6679h-.0332l-5,11.3711h-.3643l-5-11.3711h-.0332V27.039h-.3291V15.2558h.544l4.9834,11.3545h.0332l4.9844-11.3545Z"/></g></g></svg>