<svg xmlns="http://www.w3.org/2000/svg" viewBox="0 0 189.85717 41.55558"><defs><style>.cls-1{opacity:0.8;}.cls-2{fill:#fff;}.cls-3{fill:#61b4e3;}.cls-4{fill:#0079b8;}.cls-5{fill:#2d98d3;}.cls-6{fill:#fff000;}.cls-7{fill:#262626;}</style></defs><title>アセット 2</title><g id="レイヤー_2" data-name="レイヤー 2"><g id="レイヤー_2-2" data-name="レイヤー 2"><g class="cls-1"><path class="cls-2" d="M1.27707,11.9614l12.9561,6.3247a1.42119,1.42119,0,0,0,.8271,0l12.9561-6.3247L15.06027,5.6362a1.413,1.413,0,0,0-.8271,0Z"/></g><path class="cls-2" d="M.62087,12.7841v14.772a.741.741,0,0,0,.3505.5625l13.1612,6.4253V19.7719a.74225.74225,0,0,0-.3516-.563Z"/><path class="cls-2" d="M28.67257,12.7841l-13.1611,6.4248a.74359.74359,0,0,0-.3506.563v14.772l13.1602-6.4253a.73937.73937,0,0,0,.3515-.5625Z"/><path class="cls-2" d="M35.80638,2.8725a1.45589,1.45589,0,0,0-.60741.1196L31.238,4.9262c-.12691.062-.17181.1275-.17181.1553,0,.0298.0449.0952.17181.1567l3.961,1.9346a1.67883,1.67883,0,0,0,1.2158,0l3.9609-1.9346c.1368-.0659.1729-.1308.1729-.1567,0-.0244-.0361-.0889-.1729-.1553l-3.9609-1.9341A1.45139,1.45139,0,0,0,35.80638,2.8725Z"/><path class="cls-2" d="M30.86888,5.5576c-.1934,0-.21391.2109-.21391.3017v4.4541a1.1545,1.1545,0,0,0,.583.9341l3.961,1.9331a.436.436,0,0,0,.1885.0503h0a.17971.17971,0,0,0,.14551-.0625.37321.37321,0,0,0,.06829-.2397V8.475a1.15224,1.15224,0,0,0-.583-.9331l-3.9609-1.9336A.448.448,0,0,0,30.86888,5.5576Z"/><path class="cls-2" d="M40.74488,5.5576a.44784.44784,0,0,0-.1885.0507l-3.9609,1.9336a1.15431,1.15431,0,0,0-.583.9331v4.4537c0,.0918.0214.3022.2138.3022h0a.43249.43249,0,0,0,.1885-.0503l3.9609-1.9331a1.15449,1.15449,0,0,0,.583-.9341V5.8593C40.95867,5.7685,40.93817,5.5576,40.74488,5.5576Z"/><path class="cls-2" d="M45.80347,0a1.52434,1.52434,0,0,0-.6387.1259l-1.3545.6616c-.1318.065-.2109.1465-.2109.2178,0,.0718.0791.1538.2109.2178l1.3545.6616a1.74828,1.74828,0,0,0,1.2773,0l1.35451-.6616c.13189-.064.211-.146.211-.2178,0-.0713-.0791-.1528-.211-.2178L46.44207.1259A1.52379,1.52379,0,0,0,45.80347,0Z"/><path class="cls-2" d="M43.47237,1.4125c-.1777,0-.2832.1387-.2832.3702V3.3144a1.22812,1.22812,0,0,0,.6211.9941l1.3555.6622a.50708.50708,0,0,0,.2178.0576h0a.248.248,0,0,0,.1982-.0865.43505.43505,0,0,0,.085-.2841V3.1264a1.23239,1.23239,0,0,0-.6221-.9956l-1.3545-.6611A.49978.49978,0,0,0,43.47237,1.4125Z"/><path class="cls-2" d="M48.13547,1.4125a.49965.49965,0,0,0-.2187.0572l-1.35449.6611a1.23214,1.23214,0,0,0-.62211.9956V4.6577c0,.2319.1055.3706.2832.3706h0a.511.511,0,0,0,.2187-.0576l1.35451-.6622a1.2279,1.2279,0,0,0,.62109-.9941V1.7827C48.41767,1.5512,48.31228,1.4125,48.13547,1.4125Z"/><path class="cls-2" d="M28.42847,33.3818l-4.49219-2.1934.02639.0528c-.0801.0385-8.001,3.8989-8.58889,4.2055a1.64318,1.64318,0,0,1-.76561.2007,1.26136,1.26136,0,0,1-.7256-.2182l-8.6221-4.1949L.865,33.3818c-1.1533.5625-1.1533,1.4824,0,2.0459l11.68651,5.706a5.41371,5.41371,0,0,0,4.19039,0l11.6866-5.706C29.58078,34.8642,29.58078,33.9443,28.42847,33.3818Z"/><g class="cls-1"><path class="cls-3" d="M1.27707,11.9614l12.9561,6.3247a1.42119,1.42119,0,0,0,.8271,0l12.9561-6.3247L15.06027,5.6362a1.413,1.413,0,0,0-.8271,0Z"/></g><path class="cls-4" d="M.62087,12.7841v14.772a.741.741,0,0,0,.3505.5625l13.1612,6.4253V19.7719a.74225.74225,0,0,0-.3516-.563Z"/><path class="cls-4" d="M28.67257,12.7841l-13.1611,6.4248a.74359.74359,0,0,0-.3506.563v14.772l13.1602-6.4253a.73937.73937,0,0,0,.3515-.5625Z"/><path class="cls-3" d="M35.80638,2.8725a1.45589,1.45589,0,0,0-.60741.1196L31.238,4.9262c-.12691.062-.17181.1275-.17181.1553,0,.0298.0449.0952.17181.1567l3.961,1.9346a1.67883,1.67883,0,0,0,1.2158,0l3.9609-1.9346c.1368-.0659.1729-.1308.1729-.1567,0-.0244-.0361-.0889-.1729-.1553l-3.9609-1.9341A1.45139,1.45139,0,0,0,35.80638,2.8725Z"/><path class="cls-5" d="M30.86888,5.5576c-.1934,0-.21391.2109-.21391.3017v4.4541a1.1545,1.1545,0,0,0,.583.9341l3.961,1.9331a.436.436,0,0,0,.1885.0503h0a.17971.17971,0,0,0,.14551-.0625.37321.37321,0,0,0,.06829-.2397V8.475a1.15224,1.15224,0,0,0-.583-.9331l-3.9609-1.9336A.448.448,0,0,0,30.86888,5.5576Z"/><path class="cls-4" d="M40.74488,5.5576a.44784.44784,0,0,0-.1885.0507l-3.9609,1.9336a1.15431,1.15431,0,0,0-.583.9331v4.4537c0,.0918.0214.3022.2138.3022h0a.43249.43249,0,0,0,.1885-.0503l3.9609-1.9331a1.15449,1.15449,0,0,0,.583-.9341V5.8593C40.95867,5.7685,40.93817,5.5576,40.74488,5.5576Z"/><path class="cls-3" d="M45.80347,0a1.52434,1.52434,0,0,0-.6387.1259l-1.3545.6616c-.1318.065-.2109.1465-.2109.2178,0,.0718.0791.1538.2109.2178l1.3545.6616a1.74828,1.74828,0,0,0,1.2773,0l1.35451-.6616c.13189-.064.211-.146.211-.2178,0-.0713-.0791-.1528-.211-.2178L46.44207.1259A1.52379,1.52379,0,0,0,45.80347,0Z"/><path class="cls-5" d="M43.47237,1.4125c-.1777,0-.2832.1387-.2832.3702V3.3144a1.22812,1.22812,0,0,0,.6211.9941l1.3555.6622a.50708.50708,0,0,0,.2178.0576h0a.248.248,0,0,0,.1982-.0865.43505.43505,0,0,0,.085-.2841V3.1264a1.23239,1.23239,0,0,0-.6221-.9956l-1.3545-.6611A.49978.49978,0,0,0,43.47237,1.4125Z"/><path class="cls-4" d="M48.13547,1.4125a.49965.49965,0,0,0-.2187.0572l-1.35449.6611a1.23214,1.23214,0,0,0-.62211.9956V4.6577c0,.2319.1055.3706.2832.3706h0a.511.511,0,0,0,.2187-.0576l1.35451-.6622a1.2279,1.2279,0,0,0,.62109-.9941V1.7827C48.41767,1.5512,48.31228,1.4125,48.13547,1.4125Z"/><path class="cls-6" d="M28.42847,33.3818l-4.49219-2.1934.02639.0528c-.0801.0385-8.001,3.8989-8.58889,4.2055a1.64318,1.64318,0,0,1-.76561.2007,1.26136,1.26136,0,0,1-.7256-.2182l-8.6221-4.1949L.865,33.3818c-1.1533.5625-1.1533,1.4824,0,2.0459l11.68651,5.706a5.41371,5.41371,0,0,0,4.19039,0l11.6866-5.706C29.58078,34.8642,29.58078,33.9443,28.42847,33.3818Z"/><path class="cls-7" d="M52.17457,15.2558a4.47433,4.47433,0,0,1,1.29591.1817,3.03533,3.03533,0,0,1,1.05559.5532,2.58212,2.58212,0,0,1,.71.9155,2.99863,2.99863,0,0,1,.2549,1.2871,2.71811,2.71811,0,0,1-.18849,1.0073,2.77077,2.77077,0,0,1-.52051.8413,2.5869,2.5869,0,0,1-1.78219.8418v.0332a3.16339,3.16339,0,0,1,1.09759.2227,2.78315,2.78315,0,0,1,.9072.5771,2.7334,2.7334,0,0,1,.61921.9083,3.04625,3.04625,0,0,1,.23049,1.2119,3.1737,3.1737,0,0,1-.2891,1.3945,2.71538,2.71538,0,0,1-.7998.998,3.6077,3.6077,0,0,1-1.2295.6036,5.61957,5.61957,0,0,1-1.5596.206h-4.8681V15.2558Zm0,5.4795a4.00165,4.00165,0,0,0,1.1308-.1572,2.801,2.801,0,0,0,.9483-.4785,2.40251,2.40251,0,0,0,.6601-.7998,2.36311,2.36311,0,0,0,.2481-1.1065,2.68924,2.68924,0,0,0-.2315-1.1636,2.24334,2.24334,0,0,0-.6357-.8076,2.6738,2.6738,0,0,0-.9483-.479,4.2216,4.2216,0,0,0-1.1718-.1572h-4.7364v5.1494Zm-.04979,5.9731a4.97379,4.97379,0,0,0,1.3457-.1728,3.06,3.06,0,0,0,1.07219-.5278,2.52454,2.52454,0,0,0,.7178-.8911,2.83189,2.83189,0,0,0,.2637-1.2623,2.693,2.693,0,0,0-.2881-1.3046,2.49668,2.49668,0,0,0-.7598-.858,3.14847,3.14847,0,0,0-1.07219-.478,5.1441,5.1441,0,0,0-1.22951-.1484h-4.7364v5.643Z"/><path class="cls-7" d="M60.62378,15.2558V27.039h-.33011V15.2558Z"/><path class="cls-7" d="M65.21167,21.1235a4.24855,4.24855,0,0,1,.7334-1.4126,3.71919,3.71919,0,0,1,1.1963-.981,3.51551,3.51551,0,0,1,1.6504-.3716,3.47154,3.47154,0,0,1,1.63371.3716,3.723,3.723,0,0,1,1.19729.981,4.2504,4.2504,0,0,1,.7334,1.4126,5.77692,5.77692,0,0,1,0,3.3496,4.243,4.243,0,0,1-.7334,1.4111,3.50163,3.50163,0,0,1-2.8476,1.3365,3.54958,3.54958,0,0,1-1.6338-.3633,3.60972,3.60972,0,0,1-1.1963-.9732,4.24117,4.24117,0,0,1-.7334-1.4111,5.77692,5.77692,0,0,1,0-3.3496Zm.3047,3.2261a3.94665,3.94665,0,0,0,.6689,1.312,3.31818,3.31818,0,0,0,1.0967.9072,3.23935,3.23935,0,0,0,1.5098.3379,3.195,3.195,0,0,0,1.4931-.3379,3.31528,3.31528,0,0,0,1.0987-.9072,3.96343,3.96343,0,0,0,.66791-1.312,5.373,5.373,0,0,0,.22269-1.5508,5.30835,5.30835,0,0,0-.22269-1.5352,3.94188,3.94188,0,0,0-.66791-1.3125,3.39959,3.39959,0,0,0-1.0987-.9155,3.11774,3.11774,0,0,0-1.4931-.3472,3.16079,3.16079,0,0,0-1.5098.3472,3.40284,3.40284,0,0,0-1.0967.9155,3.92528,3.92528,0,0,0-.6689,1.3125,5.308,5.308,0,0,0-.2227,1.5352A5.37266,5.37266,0,0,0,65.51637,24.3496Z"/><path class="cls-7" d="M83.43238,25.4301a3.07243,3.07243,0,0,1-.73541.9654,3.24522,3.24522,0,0,1-1.0556.6108,3.96028,3.96028,0,0,1-1.32909.2144,3.67414,3.67414,0,0,1-1.60941-.3379,3.47,3.47,0,0,1-1.17969-.9161,3.98994,3.98994,0,0,1-.72561-1.3461,5.30484,5.30484,0,0,1-.248-1.6421,6.34719,6.34719,0,0,1,.2392-1.7564,4.39643,4.39643,0,0,1,.7256-1.4697,3.54282,3.54282,0,0,1,1.2383-1.0142,3.846,3.846,0,0,1,1.7568-.3799,3.58048,3.58048,0,0,1,1.1397.1822,3.07123,3.07123,0,0,1,.9736.5278,2.92886,2.92886,0,0,1,.71781.8662,3.24509,3.24509,0,0,1,.37109,1.1963h-.3291a3.11384,3.11384,0,0,0-.36429-1.081,2.71281,2.71281,0,0,0-.6435-.7588,2.57317,2.57317,0,0,0-.8575-.4541,3.39339,3.39339,0,0,0-1.00781-.1485,3.49357,3.49357,0,0,0-1.708.3877,3.2176,3.2176,0,0,0-1.12211,1.0069,4.28244,4.28244,0,0,0-.6103,1.3862,6.30347,6.30347,0,0,0-.1895,1.5093,4.8989,4.8989,0,0,0,.2227,1.4858,3.88056,3.88056,0,0,0,.6523,1.2544,3.11894,3.11894,0,0,0,1.0723.8667,3.2816,3.2816,0,0,0,1.48541.3213,3.5261,3.5261,0,0,0,1.1718-.19,2.91577,2.91577,0,0,0,1.65039-1.4189,2.89533,2.89533,0,0,0,.3125-1.147h.33111A3.63976,3.63976,0,0,1,83.43238,25.4301Z"/><path class="cls-7" d="M88.49677,27.039h-.3291V15.2558h.3291v8.169l5.8594-4.8682h.47851l-3.89451,3.2349L95.115,27.039h-.4463l-3.9756-5.0166-2.1963,1.8145Z"/><path class="cls-7" d="M104.95088,25.4301a3.071,3.071,0,0,1-.7343.9654,3.25619,3.25619,0,0,1-1.05571.6108,3.95748,3.95748,0,0,1-1.33009.2144,3.66966,3.66966,0,0,1-1.60841-.3379,3.46147,3.46147,0,0,1-1.1797-.9161,3.9901,3.9901,0,0,1-.7256-1.3461,5.2753,5.2753,0,0,1-.248-1.6421,6.3472,6.3472,0,0,1,.2393-1.7564,4.37583,4.37583,0,0,1,.7255-1.4697,3.54367,3.54367,0,0,1,1.23831-1.0142,3.84635,3.84635,0,0,1,1.7569-.3799,3.58025,3.58025,0,0,1,1.13959.1822,3.06782,3.06782,0,0,1,.9727.5278,2.945,2.945,0,0,1,.7187.8662,3.24407,3.24407,0,0,1,.3701,1.1963h-.3291a3.13339,3.13339,0,0,0-.3623-1.081,2.73037,2.73037,0,0,0-.6445-.7588,2.57725,2.57725,0,0,0-.8584-.4541,3.38705,3.38705,0,0,0-1.00679-.1485,3.49338,3.49338,0,0,0-1.708.3877A3.2,3.2,0,0,0,99.199,20.083a4.28,4.28,0,0,0-.6113,1.3862,6.30345,6.30345,0,0,0-.18949,1.5093,4.92694,4.92694,0,0,0,.22269,1.4858,3.88039,3.88039,0,0,0,.65231,1.2544,3.13037,3.13037,0,0,0,1.07319.8667,3.27787,3.27787,0,0,0,1.48441.3213,3.52826,3.52826,0,0,0,1.17289-.19,2.88318,2.88318,0,0,0,1.96291-2.5659h.33A3.61481,3.61481,0,0,1,104.95088,25.4301Z"/><path class="cls-7" d="M110.01728,15.2558v5.3965h.03229a3.01582,3.01582,0,0,1,.372-.9082,2.87692,2.87692,0,0,1,1.542-1.2124,3.52824,3.52824,0,0,1,1.1387-.1734,3.57367,3.57367,0,0,1,1.2139.1983,2.5876,2.5876,0,0,1,1.584,1.543,3.56613,3.56613,0,0,1,.2226,1.312V27.039h-.3291V21.4604a3.319,3.319,0,0,0-.2158-1.2622,2.336,2.336,0,0,0-.586-.8574,2.29741,2.29741,0,0,0-.8574-.4951,3.34738,3.34738,0,0,0-1.0322-.1573,2.95577,2.95577,0,0,0-1.3359.2891,2.84986,2.84986,0,0,0-.96589.7749,3.40413,3.40413,0,0,0-.58591,1.1313,4.58088,4.58088,0,0,0-.19729,1.3536V27.039h-.331V15.2558Z"/><path class="cls-7" d="M121.13937,20.0664a2.55641,2.55641,0,0,1,.6192-.899,2.86786,2.86786,0,0,1,.99021-.5942,4.01825,4.01825,0,0,1,1.37789-.2149,4.769,4.769,0,0,1,1.0645.1158,2.28623,2.28623,0,0,1,.8828.4038,2.12461,2.12461,0,0,1,.6103.7514,2.72594,2.72594,0,0,1,.24811,1.1553v5.396a.54927.54927,0,0,0,.09959.3633.48852.48852,0,0,0,.2637.1567,1.18949,1.18949,0,0,0,.3545.0327c.1269-.0043.2441-.0131.3544-.0249v.3306h-.4951a1.16012,1.16012,0,0,1-.63469-.1728.7139.7139,0,0,1-.27251-.6524V25.1083h-.0332a2.62514,2.62514,0,0,1-.42089.792,3.06387,3.06387,0,0,1-.72561.6763,3.72468,3.72468,0,0,1-.999.4707,4.11645,4.11645,0,0,1-1.2217.1734,3.40555,3.40555,0,0,1-2.0625-.5694,1.98349,1.98349,0,0,1-.77539-1.708,2.681,2.681,0,0,1,.25689-1.2705,2.01056,2.01056,0,0,1,.6669-.751,2.64258,2.64258,0,0,1,.9415-.3799,7.68106,7.68106,0,0,1,1.0556-.1401q.8745-.0498,1.502-.0903a4.68172,4.68172,0,0,0,1.0312-.1656,1.12206,1.12206,0,0,0,.5938-.3793,1.22077,1.22077,0,0,0,.1904-.7344,5.04291,5.04291,0,0,0-.0664-.7925,1.71678,1.71678,0,0,0-.3213-.7583,1.84932,1.84932,0,0,0-.751-.5703,3.32019,3.32019,0,0,0-1.3369-.2227,3.04564,3.04564,0,0,0-2.0791.6524,2.56862,2.56862,0,0,0-.8252,1.8398h-.331A3.44061,3.44061,0,0,1,121.13937,20.0664Zm5.4297,1.9882a1.02647,1.02647,0,0,1-.51169.355,4.14882,4.14882,0,0,1-.792.1904,8.61928,8.61928,0,0,1-.9658.0826q-.51855.016-1.0147.0498a7.71441,7.71441,0,0,0-.9648.123,2.28782,2.28782,0,0,0-.834.3301,1.69106,1.69106,0,0,0-.57809.6602,2.42818,2.42818,0,0,0-.21391,1.0976,2.18235,2.18235,0,0,0,.124.7183,1.51951,1.51951,0,0,0,.42091.6264,2.28076,2.28076,0,0,0,.76759.4453,3.39,3.39,0,0,0,1.1631.1734,3.63821,3.63821,0,0,0,1.46871-.2808,3.33415,3.33415,0,0,0,1.08109-.7334,3.0309,3.0309,0,0,0,.6592-1.0488,3.42766,3.42766,0,0,0,.2236-1.2207V22.0546Z"/><path class="cls-7" d="M131.81707,16.9228v-1.667h.33111v1.667Zm0,10.1162V18.5566h.33111V27.039Z"/><path class="cls-7" d="M137.26247,18.5566v2.0957h.0332a3.0376,3.0376,0,0,1,.3711-.9082,2.90331,2.90331,0,0,1,.64451-.7251,2.86914,2.86914,0,0,1,.8994-.4873,3.52385,3.52385,0,0,1,1.13869-.1734,3.56792,3.56792,0,0,1,1.21291.1983,2.5921,2.5921,0,0,1,1.5849,1.543,3.60608,3.60608,0,0,1,.2227,1.312V27.039h-.33111V21.4604a3.323,3.323,0,0,0-.2138-1.2622,2.36029,2.36029,0,0,0-.586-.8574,2.30939,2.30939,0,0,0-.85841-.4951,3.35032,3.35032,0,0,0-1.0312-.1573,2.96448,2.96448,0,0,0-1.3379.2891,2.86553,2.86553,0,0,0-.96489.7749,3.42065,3.42065,0,0,0-.5859,1.1313,4.58089,4.58089,0,0,0-.19821,1.3536V27.039h-.33009V18.5566Z"/><path class="cls-7" d="M161.47237,15.2558v8.7139a4.96083,4.96083,0,0,1-.1728,1.353,2.77877,2.77877,0,0,1-.5537,1.0562,2.43526,2.43526,0,0,1-.9981.6855,4.23187,4.23187,0,0,1-1.50979.2393,3.86587,3.86587,0,0,1-1.4355-.2393,2.54381,2.54381,0,0,1-.97461-.6689,2.634,2.634,0,0,1-.5518-1.0152,4.467,4.467,0,0,1-.1738-1.2788v-.7099h.33011v.7099a2.97161,2.97161,0,0,0,.709,2.1699,2.821,2.821,0,0,0,2.09661.7178,4.22963,4.22963,0,0,0,1.24519-.1645,2.10983,2.10983,0,0,0,.90911-.545,2.41356,2.41356,0,0,0,.55959-1.0063,5.40876,5.40876,0,0,0,.19041-1.5513V15.2558Z"/><path class="cls-7" d="M165.59837,27.039h-.36429l4.76959-11.7832h.4297l4.6533,11.7832h-.3633l-1.5508-3.8779h-6.0068Zm4.6367-11.4531h-.0332l-2.9043,7.2451h5.7422Z"/><path class="cls-7" d="M189.85717,15.2558V27.039h-.3301V15.6679h-.03319l-5,11.3711h-.36431l-5-11.3711h-.0332V27.039h-.32909V15.2558h.544l4.98339,11.3545h.0332l4.98441-11.3545Z"/></g></g></svg>