<svg xmlns="http://www.w3.org/2000/svg" viewBox="0 0 189.59157 41.55558"><defs><style>.cls-1{opacity:0.8;}.cls-2{fill:#fff;}.cls-3{fill:#61b4e3;}.cls-4{fill:#0079b8;}.cls-5{fill:#2d98d3;}.cls-6{fill:#fff000;}</style></defs><title>アセット 3</title><g id="レイヤー_2" data-name="レイヤー 2"><g id="レイヤー_2-2" data-name="レイヤー 2"><g class="cls-1"><path class="cls-2" d="M1.27707,11.9614l12.9561,6.3247a1.42119,1.42119,0,0,0,.8271,0l12.95611-6.3247L15.06027,5.6362a1.413,1.413,0,0,0-.8271,0Z"/></g><path class="cls-2" d="M.62087,12.7841v14.772a.741.741,0,0,0,.35051.5625l13.16119,6.4253V19.7719a.74225.74225,0,0,0-.3516-.563Z"/><path class="cls-2" d="M28.67257,12.7841l-13.1611,6.4248a.74359.74359,0,0,0-.3506.563v14.772l13.1602-6.4253a.73937.73937,0,0,0,.3515-.5625Z"/><path class="cls-2" d="M35.80638,2.8725a1.45589,1.45589,0,0,0-.60741.1196L31.238,4.9262c-.12691.062-.17181.1275-.17181.1553,0,.0298.0449.0952.17181.1567l3.961,1.9346a1.67883,1.67883,0,0,0,1.2158,0l3.9609-1.9346c.1368-.0659.1729-.1308.1729-.1567,0-.0244-.0361-.0889-.1729-.1553l-3.9609-1.9341A1.45139,1.45139,0,0,0,35.80638,2.8725Z"/><path class="cls-2" d="M30.86888,5.5576c-.1934,0-.21391.2109-.21391.3017v4.4541a1.15448,1.15448,0,0,0,.583.9341l3.961,1.9331a.436.436,0,0,0,.1885.0503h0a.17971.17971,0,0,0,.14551-.0625.37321.37321,0,0,0,.06829-.2397V8.475a1.15222,1.15222,0,0,0-.583-.9331l-3.9609-1.9336A.44784.44784,0,0,0,30.86888,5.5576Z"/><path class="cls-2" d="M40.74487,5.5576a.44784.44784,0,0,0-.18849.0507l-3.9609,1.9336a1.15431,1.15431,0,0,0-.583.9331v4.4537c0,.0918.02141.3022.2138.3022h0a.43249.43249,0,0,0,.1885-.0503l3.9609-1.9331a1.15449,1.15449,0,0,0,.583-.9341V5.8593C40.95867,5.7685,40.93817,5.5576,40.74487,5.5576Z"/><path class="cls-2" d="M45.80347,0a1.52434,1.52434,0,0,0-.6387.1259l-1.3545.6616c-.1318.065-.2109.1465-.2109.2178,0,.0718.0791.1538.2109.2178l1.3545.6616a1.74828,1.74828,0,0,0,1.2773,0l1.3545-.6616c.1319-.064.211-.146.211-.2178,0-.0713-.0791-.1528-.211-.2178L46.44207.1259A1.52376,1.52376,0,0,0,45.80347,0Z"/><path class="cls-2" d="M43.47237,1.4125c-.17769,0-.2832.1387-.2832.3702V3.3144a1.22812,1.22812,0,0,0,.6211.9941l1.3555.6622a.50708.50708,0,0,0,.2178.0576h0a.248.248,0,0,0,.1982-.0865.43505.43505,0,0,0,.085-.2841V3.1264a1.2324,1.2324,0,0,0-.62209-.9956l-1.35451-.6611A.49978.49978,0,0,0,43.47237,1.4125Z"/><path class="cls-2" d="M48.13548,1.4125a.49969.49969,0,0,0-.21871.0572l-1.35449.6611a1.23214,1.23214,0,0,0-.62211.9956V4.6577c0,.2319.1055.3706.2832.3706h0a.511.511,0,0,0,.2187-.0576l1.3545-.6622a1.22789,1.22789,0,0,0,.6211-.9941V1.7827C48.41767,1.5512,48.31228,1.4125,48.13548,1.4125Z"/><path class="cls-2" d="M28.42847,33.3818l-4.49219-2.1934.02639.0528c-.0801.0385-8.001,3.8989-8.58889,4.2055a1.64318,1.64318,0,0,1-.76561.2007,1.26136,1.26136,0,0,1-.7256-.2182L5.26048,31.2343.865,33.3818c-1.1533.5625-1.1533,1.4824,0,2.0459l11.68651,5.706a5.41371,5.41371,0,0,0,4.19039,0l11.6866-5.706C29.58077,34.8642,29.58077,33.9443,28.42847,33.3818Z"/><g class="cls-1"><path class="cls-3" d="M1.27707,11.9614l12.9561,6.3247a1.42119,1.42119,0,0,0,.8271,0l12.95611-6.3247L15.06027,5.6362a1.413,1.413,0,0,0-.8271,0Z"/></g><path class="cls-4" d="M.62087,12.7841v14.772a.741.741,0,0,0,.35051.5625l13.16119,6.4253V19.7719a.74225.74225,0,0,0-.3516-.563Z"/><path class="cls-4" d="M28.67257,12.7841l-13.1611,6.4248a.74359.74359,0,0,0-.3506.563v14.772l13.1602-6.4253a.73937.73937,0,0,0,.3515-.5625Z"/><path class="cls-3" d="M35.80638,2.8725a1.45589,1.45589,0,0,0-.60741.1196L31.238,4.9262c-.12691.062-.17181.1275-.17181.1553,0,.0298.0449.0952.17181.1567l3.961,1.9346a1.67883,1.67883,0,0,0,1.2158,0l3.9609-1.9346c.1368-.0659.1729-.1308.1729-.1567,0-.0244-.0361-.0889-.1729-.1553l-3.9609-1.9341A1.45139,1.45139,0,0,0,35.80638,2.8725Z"/><path class="cls-5" d="M30.86888,5.5576c-.1934,0-.21391.2109-.21391.3017v4.4541a1.15448,1.15448,0,0,0,.583.9341l3.961,1.9331a.436.436,0,0,0,.1885.0503h0a.17971.17971,0,0,0,.14551-.0625.37321.37321,0,0,0,.06829-.2397V8.475a1.15222,1.15222,0,0,0-.583-.9331l-3.9609-1.9336A.44784.44784,0,0,0,30.86888,5.5576Z"/><path class="cls-4" d="M40.74487,5.5576a.44784.44784,0,0,0-.18849.0507l-3.9609,1.9336a1.15431,1.15431,0,0,0-.583.9331v4.4537c0,.0918.02141.3022.2138.3022h0a.43249.43249,0,0,0,.1885-.0503l3.9609-1.9331a1.15449,1.15449,0,0,0,.583-.9341V5.8593C40.95867,5.7685,40.93817,5.5576,40.74487,5.5576Z"/><path class="cls-3" d="M45.80347,0a1.52434,1.52434,0,0,0-.6387.1259l-1.3545.6616c-.1318.065-.2109.1465-.2109.2178,0,.0718.0791.1538.2109.2178l1.3545.6616a1.74828,1.74828,0,0,0,1.2773,0l1.3545-.6616c.1319-.064.211-.146.211-.2178,0-.0713-.0791-.1528-.211-.2178L46.44207.1259A1.52376,1.52376,0,0,0,45.80347,0Z"/><path class="cls-5" d="M43.47237,1.4125c-.17769,0-.2832.1387-.2832.3702V3.3144a1.22812,1.22812,0,0,0,.6211.9941l1.3555.6622a.50708.50708,0,0,0,.2178.0576h0a.248.248,0,0,0,.1982-.0865.43505.43505,0,0,0,.085-.2841V3.1264a1.2324,1.2324,0,0,0-.62209-.9956l-1.35451-.6611A.49978.49978,0,0,0,43.47237,1.4125Z"/><path class="cls-4" d="M48.13548,1.4125a.49969.49969,0,0,0-.21871.0572l-1.35449.6611a1.23214,1.23214,0,0,0-.62211.9956V4.6577c0,.2319.1055.3706.2832.3706h0a.511.511,0,0,0,.2187-.0576l1.3545-.6622a1.22789,1.22789,0,0,0,.6211-.9941V1.7827C48.41767,1.5512,48.31228,1.4125,48.13548,1.4125Z"/><path class="cls-6" d="M28.42847,33.3818l-4.49219-2.1934.02639.0528c-.0801.0385-8.001,3.8989-8.58889,4.2055a1.64318,1.64318,0,0,1-.76561.2007,1.26136,1.26136,0,0,1-.7256-.2182L5.26048,31.2343.865,33.3818c-1.1533.5625-1.1533,1.4824,0,2.0459l11.68651,5.706a5.41371,5.41371,0,0,0,4.19039,0l11.6866-5.706C29.58077,34.8642,29.58077,33.9443,28.42847,33.3818Z"/><path class="cls-2" d="M52.62478,15.6406a4.51775,4.51775,0,0,1,1.309.1835,3.06454,3.06454,0,0,1,1.0674.5586,2.61509,2.61509,0,0,1,.7168.9256,3.03287,3.03287,0,0,1,.25881,1.3008,2.73243,2.73243,0,0,1-.19191,1.0173,2.76976,2.76976,0,0,1-.5254.8506,2.61244,2.61244,0,0,1-1.8012.8505v.0333a3.243,3.243,0,0,1,1.10931.2252,2.81055,2.81055,0,0,1,.917.5837,2.76968,2.76968,0,0,1,.6255.9172,3.06789,3.06789,0,0,1,.2334,1.2258,3.22042,3.22042,0,0,1-.292,1.4092,2.7683,2.7683,0,0,1-.80861,1.0089,3.65107,3.65107,0,0,1-1.24269.6088,5.679,5.679,0,0,1-1.5756.2084h-4.92V15.6406Zm0,5.5368a4.04888,4.04888,0,0,0,1.14209-.1584,2.83348,2.83348,0,0,0,.9589-.4837,2.419,2.419,0,0,0,.667-.8088,2.39477,2.39477,0,0,0,.2505-1.1174,2.727,2.727,0,0,0-.2334-1.1757,2.285,2.285,0,0,0-.6421-.8172,2.74532,2.74532,0,0,0-.959-.4836,4.26553,4.26553,0,0,0-1.184-.1584H47.83807v5.2032Zm-.05031,6.0371a5.02435,5.02435,0,0,0,1.3593-.1752,3.08828,3.08828,0,0,0,1.084-.5336,2.56408,2.56408,0,0,0,.72561-.9006A2.85887,2.85887,0,0,0,56.01,24.3293a2.71379,2.71379,0,0,0-.292-1.3174,2.5159,2.5159,0,0,0-.7671-.8673,3.20551,3.20551,0,0,0-1.084-.4836,5.17134,5.17134,0,0,0-1.24209-.1501H47.83807v5.7036Z"/><path class="cls-2" d="M61.49677,15.6406V27.548h-.3335V15.6406Z"/><path class="cls-2" d="M66.46657,21.5693a4.29425,4.29425,0,0,1,.7421-1.4259,3.74562,3.74562,0,0,1,1.209-.9923,3.54514,3.54514,0,0,1,1.66751-.3752,3.50946,3.50946,0,0,1,1.65089.3752,3.75811,3.75811,0,0,1,1.2095.9923,4.311,4.311,0,0,1,.74211,1.4259,5.85581,5.85581,0,0,1,0,3.3855,4.30655,4.30655,0,0,1-.74211,1.4258,3.65564,3.65564,0,0,1-1.2095.9839,3.61343,3.61343,0,0,1-1.6675.367,3.5749,3.5749,0,0,1-1.6509-.367,3.64377,3.64377,0,0,1-1.209-.9839,4.28988,4.28988,0,0,1-.7421-1.4258,5.84462,5.84462,0,0,1,0-3.3855Zm.3086,3.2603a3.98167,3.98167,0,0,0,.6752,1.3259,3.34655,3.34655,0,0,0,1.1089.9172,3.26513,3.26513,0,0,0,1.52591.3419,3.22963,3.22963,0,0,0,1.50929-.3419,3.34558,3.34558,0,0,0,1.10891-.9172,3.9905,3.9905,0,0,0,.6758-1.3259,5.43221,5.43221,0,0,0,.22509-1.5676,5.37575,5.37575,0,0,0-.22509-1.551,3.991,3.991,0,0,0-.6758-1.3258,3.44146,3.44146,0,0,0-1.10891-.9256,3.16832,3.16832,0,0,0-1.50929-.3502,3.20294,3.20294,0,0,0-1.52591.3502,3.44248,3.44248,0,0,0-1.1089.9256,3.98213,3.98213,0,0,0-.6752,1.3258,5.359,5.359,0,0,0-.22559,1.551A5.41532,5.41532,0,0,0,66.77517,24.8296Z"/><path class="cls-2" d="M85.21117,25.922a3.09168,3.09168,0,0,1-.7422.9756,3.27353,3.27353,0,0,1-1.0674.6171,3.98086,3.98086,0,0,1-1.3423.2168,3.699,3.699,0,0,1-1.6259-.3419,3.49545,3.49545,0,0,1-1.1924-.9256,4.0545,4.0545,0,0,1-.7339-1.3592,5.38117,5.38117,0,0,1-.25-1.6593,6.40937,6.40937,0,0,1,.24171-1.7761,4.41449,4.41449,0,0,1,.73389-1.4843,3.58773,3.58773,0,0,1,1.2505-1.0256,3.89116,3.89116,0,0,1,1.7763-.3836,3.61927,3.61927,0,0,1,1.1509.1834,3.13384,3.13384,0,0,1,.9839.5337,2.94843,2.94843,0,0,1,.72511.8756,3.28184,3.28184,0,0,1,.37549,1.209h-.3335a3.13389,3.13389,0,0,0-.3672-1.0923,2.73765,2.73765,0,0,0-.6504-.7672,2.60565,2.60565,0,0,0-.8672-.4586,3.4136,3.4136,0,0,0-1.0171-.1501,3.52166,3.52166,0,0,0-1.726.3919,3.24191,3.24191,0,0,0-1.13431,1.0174,4.30214,4.30214,0,0,0-.6167,1.4008,6.33407,6.33407,0,0,0-.19189,1.526,4.98556,4.98556,0,0,0,.22509,1.5009,3.92131,3.92131,0,0,0,.6587,1.2674,3.15607,3.15607,0,0,0,1.084.8756,3.31344,3.31344,0,0,0,1.5009.3252,3.56981,3.56981,0,0,0,1.18411-.1918,2.919,2.919,0,0,0,1.98439-2.5932h.33351A3.66568,3.66568,0,0,1,85.21117,25.922Z"/><path class="cls-2" d="M90.66477,27.548h-.3335V15.6406h.3335v8.2551l5.91991-4.9197h.48389l-3.936,3.2687,4.2197,5.3033h-.4507l-4.019-5.0698-2.2178,1.8345Z"/><path class="cls-2" d="M110.62667,24.8714a5.22591,5.22591,0,0,1-1.07569,1.5592,4.73837,4.73837,0,0,1-1.55911,1.0174,5.35658,5.35658,0,0,1-2.0346.3669,5.12256,5.12256,0,0,1-2.1763-.4587,5.046,5.046,0,0,1-1.70119-1.2674,5.88794,5.88794,0,0,1-1.1088-1.9346,7.28685,7.28685,0,0,1-.40041-2.4598,8.32014,8.32014,0,0,1,.30861-2.2097,6.24463,6.24463,0,0,1,.97549-2.0429,5.17557,5.17557,0,0,1,1.7344-1.501,5.3186,5.3186,0,0,1,2.585-.5837,5.06821,5.06821,0,0,1,2.0678.3919,4.832,4.832,0,0,1,1.4761.984,4.2647,4.2647,0,0,1,.8921,1.259,3.2451,3.2451,0,0,1,.3169,1.2175h-.3335a3.2259,3.2259,0,0,0-.38379-1.2758,3.96407,3.96407,0,0,0-.9087-1.1257,4.62388,4.62388,0,0,0-1.36761-.8088,5.3471,5.3471,0,0,0-4.2359.2835,5.04622,5.04622,0,0,0-1.626,1.4842,6.10419,6.10419,0,0,0-.8921,1.9429,7.84412,7.84412,0,0,0-.2753,1.9846,7.16539,7.16539,0,0,0,.33351,2.1847,5.57462,5.57462,0,0,0,.9838,1.8511,4.91783,4.91783,0,0,0,1.59279,1.2841,4.62113,4.62113,0,0,0,2.1431.4837,4.99616,4.99616,0,0,0,1.91791-.3503,4.43422,4.43422,0,0,0,1.46729-.9672,4.90279,4.90279,0,0,0,1.0005-1.4676,6.5811,6.5811,0,0,0,.5171-1.8344h.3335A7.087,7.087,0,0,1,110.62667,24.8714Z"/><path class="cls-2" d="M116.16377,15.6406V21.094h.0332a3.03622,3.03622,0,0,1,.375-.9173,2.8964,2.8964,0,0,1,1.5596-1.2257,3.56879,3.56879,0,0,1,1.1504-.1751,3.614,3.614,0,0,1,1.2261.2001,2.6151,2.6151,0,0,1,1.601,1.5593,3.62518,3.62518,0,0,1,.2251,1.3258V27.548h-.3335V21.9112a3.35314,3.35314,0,0,0-.21679-1.2758,2.37747,2.37747,0,0,0-.5922-.8672,2.33462,2.33462,0,0,0-.86721-.5003,3.38127,3.38127,0,0,0-1.0425-.1585,2.98464,2.98464,0,0,0-1.35059.2919,2.87127,2.87127,0,0,0-.97561.7838,3.443,3.443,0,0,0-.59229,1.1424,4.62809,4.62809,0,0,0-.19971,1.3675v4.853h-.3335V15.6406Z"/><path class="cls-2" d="M127.73708,20.502a2.57535,2.57535,0,0,1,.625-.9089,2.89468,2.89468,0,0,1,1.0009-.6004,4.05112,4.05112,0,0,1,1.3926-.2168,4.8159,4.8159,0,0,1,1.07569.1167,2.31276,2.31276,0,0,1,.8921.4086,2.14876,2.14876,0,0,1,.61721.7588,2.756,2.756,0,0,1,.25,1.1674v5.4534a.55492.55492,0,0,0,.10009.3669.49713.49713,0,0,0,.2666.1585,1.24645,1.24645,0,0,0,.3589.0333q.1911-.00825.35841-.025v.3335h-.50051a1.16977,1.16977,0,0,1-.6421-.1751.72126.72126,0,0,1-.2749-.6587V25.5968h-.0332a2.67316,2.67316,0,0,1-.4253.8005,3.10083,3.10083,0,0,1-.7339.6837,3.7607,3.7607,0,0,1-1.0093.4754,4.16532,4.16532,0,0,1-1.2339.1751,3.44333,3.44333,0,0,1-2.08439-.5754,2.00174,2.00174,0,0,1-.78421-1.7261,2.72828,2.72828,0,0,1,.2588-1.2841,2.03957,2.03957,0,0,1,.6753-.7588,2.67539,2.67539,0,0,1,.9507-.3836,7.82609,7.82609,0,0,1,1.0673-.1417q.88336-.0501,1.5176-.0917a4.68584,4.68584,0,0,0,1.042-.1668,1.12925,1.12925,0,0,0,.6006-.3836,1.22878,1.22878,0,0,0,.1919-.7421,5.08025,5.08025,0,0,0-.0669-.8005,1.73705,1.73705,0,0,0-.3252-.7671,1.86857,1.86857,0,0,0-.7588-.5754,3.34524,3.34524,0,0,0-1.35059-.2252,3.08128,3.08128,0,0,0-2.10151.6588,2.59908,2.59908,0,0,0-.834,1.8595h-.3335A3.41664,3.41664,0,0,1,127.73708,20.502Zm5.48679,2.0096a1.04183,1.04183,0,0,1-.5171.3585,4.21544,4.21544,0,0,1-.8008.1918,8.4716,8.4716,0,0,1-.9756.0834q-.52515.0168-1.0254.05a7.98961,7.98961,0,0,0-.9756.1251,2.30872,2.30872,0,0,0-.8422.3335,1.70434,1.70434,0,0,0-.5835.6671,2.43794,2.43794,0,0,0-.2173,1.109,2.18628,2.18628,0,0,0,.1255.7255,1.53553,1.53553,0,0,0,.4253.6337,2.316,2.316,0,0,0,.77541.4503,3.42571,3.42571,0,0,0,1.17569.1751,3.67737,3.67737,0,0,0,1.48391-.2835,3.35944,3.35944,0,0,0,1.09279-.7421,3.064,3.064,0,0,0,.667-1.059,3.49129,3.49129,0,0,0,.2251-1.2341V22.5116Z"/><path class="cls-2" d="M138.86057,17.325V15.6406h.3335V17.325Zm0,10.223V18.976h.3335v8.572Z"/><path class="cls-2" d="M144.69747,18.976v2.118h.0332a3.03622,3.03622,0,0,1,.375-.9173,2.8964,2.8964,0,0,1,1.5596-1.2257,3.56879,3.56879,0,0,1,1.1504-.1751,3.614,3.614,0,0,1,1.2261.2001,2.6151,2.6151,0,0,1,1.601,1.5593,3.62518,3.62518,0,0,1,.2251,1.3258V27.548h-.33349V21.9112a3.35313,3.35313,0,0,0-.2168-1.2758,2.37636,2.37636,0,0,0-.59231-.8672,2.33418,2.33418,0,0,0-.8671-.5003,3.38127,3.38127,0,0,0-1.0425-.1585,2.98435,2.98435,0,0,0-1.35059.2919,2.87127,2.87127,0,0,0-.97561.7838,3.443,3.443,0,0,0-.59229,1.1424,4.62809,4.62809,0,0,0-.19971,1.3675v4.853H144.364V18.976Z"/><path class="cls-2" d="M161.85768,15.6406v8.8055a5.00182,5.00182,0,0,1-.17481,1.3675,2.80624,2.80624,0,0,1-.55859,1.0674,2.46134,2.46134,0,0,1-1.00931.692,4.24649,4.24649,0,0,1-1.5259.2419,3.88476,3.88476,0,0,1-1.4507-.2419,2.56056,2.56056,0,0,1-.9839-.6754,2.6638,2.6638,0,0,1-.559-1.0256,4.5416,4.5416,0,0,1-.17481-1.2925v-.7171h.33351v.7171a3.00026,3.00026,0,0,0,.7172,2.193,2.85075,2.85075,0,0,0,2.11769.7255,4.28893,4.28893,0,0,0,1.2593-.1668,2.13686,2.13686,0,0,0,.917-.5503,2.42881,2.42881,0,0,0,.5674-1.0173,5.50191,5.50191,0,0,0,.1914-1.5677V15.6406Z"/><path class="cls-2" d="M167.32787,20.502a2.57574,2.57574,0,0,1,.625-.9089,2.89434,2.89434,0,0,1,1.001-.6004,4.05012,4.05012,0,0,1,1.3925-.2168,4.81525,4.81525,0,0,1,1.07569.1167,2.31208,2.31208,0,0,1,.8921.4086,2.14769,2.14769,0,0,1,.61721.7588,2.75589,2.75589,0,0,1,.25,1.1674v5.4534a.55486.55486,0,0,0,.10009.3669.49713.49713,0,0,0,.2666.1585,1.24682,1.24682,0,0,0,.3589.0333c.12741-.0055.2471-.0138.3584-.025v.3335h-.5005a1.17,1.17,0,0,1-.6421-.1751.72126.72126,0,0,1-.2749-.6587V25.5968h-.0332a2.67316,2.67316,0,0,1-.4253.8005,3.0989,3.0989,0,0,1-.7339.6837,3.7607,3.7607,0,0,1-1.0093.4754,4.16516,4.16516,0,0,1-1.2338.1751,3.44352,3.44352,0,0,1-2.0845-.5754,2.00175,2.00175,0,0,1-.7842-1.7261,2.72828,2.72828,0,0,1,.2588-1.2841,2.04129,2.04129,0,0,1,.6753-.7588,2.67539,2.67539,0,0,1,.9507-.3836,7.82545,7.82545,0,0,1,1.0674-.1417q.88321-.0501,1.5175-.0917a4.68474,4.68474,0,0,0,1.042-.1668,1.12929,1.12929,0,0,0,.6006-.3836,1.22878,1.22878,0,0,0,.1919-.7421,5.08025,5.08025,0,0,0-.0669-.8005,1.73705,1.73705,0,0,0-.3252-.7671,1.86789,1.86789,0,0,0-.7588-.5754,3.34524,3.34524,0,0,0-1.35059-.2252,3.08164,3.08164,0,0,0-2.10151.6588,2.59947,2.59947,0,0,0-.834,1.8595h-.3335A3.42192,3.42192,0,0,1,167.32787,20.502Zm5.4868,2.0096a1.04183,1.04183,0,0,1-.5171.3585,4.21544,4.21544,0,0,1-.8008.1918,8.4716,8.4716,0,0,1-.9756.0834q-.52514.0168-1.0253.05a7.98961,7.98961,0,0,0-.9756.1251,2.30851,2.30851,0,0,0-.8423.3335,1.70513,1.70513,0,0,0-.5835.6671,2.43912,2.43912,0,0,0-.2173,1.109,2.186,2.186,0,0,0,.1255.7255,1.53553,1.53553,0,0,0,.4253.6337,2.316,2.316,0,0,0,.77541.4503,3.42634,3.42634,0,0,0,1.1758.1751,3.6772,3.6772,0,0,0,1.4838-.2835,3.35944,3.35944,0,0,0,1.09279-.7421,3.064,3.064,0,0,0,.667-1.059,3.49129,3.49129,0,0,0,.2251-1.2341V22.5116Z"/><path class="cls-2" d="M178.78487,18.976v2.118h.03321a3.17607,3.17607,0,0,1,.36669-.9173,3.01972,3.01972,0,0,1,.6172-.7337,2.81887,2.81887,0,0,1,.8091-.492,2.53262,2.53262,0,0,1,.9419-.1751,2.45759,2.45759,0,0,1,1.6763.5086,2.58,2.58,0,0,1,.892,1.4926h.0332a2.65052,2.65052,0,0,1,.9839-1.4509,2.81007,2.81007,0,0,1,1.7349-.5503,3.16742,3.16742,0,0,1,1.3008.2335,2.157,2.157,0,0,1,.8335.642,2.51117,2.51117,0,0,1,.4507.984,5.663,5.663,0,0,1,.1333,1.2758V27.548h-.3335V21.9112a5.6623,5.6623,0,0,0-.1084-1.1507,2.213,2.213,0,0,0-.38379-.8839,1.79408,1.79408,0,0,0-.73391-.567,2.90745,2.90745,0,0,0-1.1587-.2002,2.50928,2.50928,0,0,0-1.9683.9006,2.9508,2.9508,0,0,0-.5337.9589,3.5479,3.5479,0,0,0-.1831,1.1424V27.548h-.3335V22.0446a6.69866,6.69866,0,0,0-.0918-1.134,2.57178,2.57178,0,0,0-.34179-.9339,1.76331,1.76331,0,0,0-.7006-.6338,2.53748,2.53748,0,0,0-1.16751-.2335,2.29931,2.29931,0,0,0-1.15039.2919,2.74821,2.74821,0,0,0-.876.7838,3.70543,3.70543,0,0,0-.5503,1.1424,4.8096,4.8096,0,0,0-.1914,1.3675v4.853h-.3335V18.976Z"/></g></g></svg>