<svg xmlns="http://www.w3.org/2000/svg" viewBox="0 0 165.00247 141.62147"><defs><style>.cls-1{opacity:0.8;}.cls-2{fill:#fff;}.cls-3{fill:#61b4e3;}.cls-4{fill:#0079b8;}.cls-5{fill:#2d98d3;}.cls-6{fill:#fff000;}</style></defs><title>アセット 1</title><g id="レイヤー_2" data-name="レイヤー 2"><g id="レイヤー_2-2" data-name="レイヤー 2"><g class="cls-1"><path class="cls-2" d="M4.35008,40.7637,48.50247,62.3198a4.84289,4.84289,0,0,0,2.8203,0l44.1523-21.5561L51.32377,19.2095a4.82639,4.82639,0,0,0-2.8203,0Z"/></g><path class="cls-2" d="M2.11377,43.5679V93.9097a2.52643,2.52643,0,0,0,1.19631,1.9179l44.85159,21.8985V67.3838a2.52564,2.52564,0,0,0-1.1983-1.918Z"/><path class="cls-2" d="M97.71337,43.5688,52.85988,65.4658a2.52708,2.52708,0,0,0-1.19631,1.918v50.3423l44.8516-21.8985a2.52317,2.52317,0,0,0,1.1982-1.9179Z"/><path class="cls-2" d="M122.02488,9.7915a4.92289,4.92289,0,0,0-2.07121.4087l-13.4981,6.5894c-.4316.2114-.5879.4345-.5879.5322,0,.0991.1563.3222.5879.5332l13.4981,6.5898a5.7045,5.7045,0,0,0,4.1445,0l13.498-6.5898c.4649-.2271.5879-.4483.5869-.5332,0-.085-.122-.3047-.5869-.5322l-13.498-6.5894A4.92633,4.92633,0,0,0,122.02488,9.7915Z"/><path class="cls-2" d="M105.19777,18.9419c-.6582,0-.7305.7202-.7305,1.0283V35.1494a3.93335,3.93335,0,0,0,1.9883,3.1826l13.4981,6.5899a1.49407,1.49407,0,0,0,.6416.1704h0a.61547.61547,0,0,0,.496-.211,1.28261,1.28261,0,0,0,.2334-.8173V28.8853a3.93127,3.93127,0,0,0-1.9863-3.1817l-13.498-6.5893A1.51427,1.51427,0,0,0,105.19777,18.9419Z"/><path class="cls-2" d="M138.854,18.9419a1.50663,1.50663,0,0,0-.6425.1724l-13.4981,6.5888a3.93675,3.93675,0,0,0-1.9873,3.1822V44.064c0,.31.0713,1.0283.7295,1.0283h0a1.49838,1.49838,0,0,0,.6426-.1704l13.498-6.5899a3.93576,3.93576,0,0,0,1.9864-3.1826V19.9702C139.58257,19.6621,139.51217,18.9419,138.854,18.9419Z"/><path class="cls-2" d="M156.09227,0a5.1728,5.1728,0,0,0-2.1748.4321l-4.6152,2.2544c-.4512.2198-.7197.4986-.7197.7422,0,.2446.2685.523.7187.7417l4.6162,2.2539a5.954,5.954,0,0,0,4.3506,0l4.6162-2.2539c.4502-.2187.7197-.4971.7197-.7417,0-.2436-.2695-.5224-.7197-.7422L158.26807.4321A5.18093,5.18093,0,0,0,156.09227,0Z"/><path class="cls-2" d="M148.147,4.8149c-.6035,0-.9648.4727-.9648,1.2627v5.2178a4.18893,4.18893,0,0,0,2.1191,3.3911l4.6172,2.2544a1.70941,1.70941,0,0,0,.7441.1958h0a.84254.84254,0,0,0,.6739-.2944,1.47739,1.47739,0,0,0,.289-.9668V10.6567a4.19351,4.19351,0,0,0-2.1191-3.3935l-4.6152-2.2529A1.7058,1.7058,0,0,0,148.147,4.8149Z"/><path class="cls-2" d="M164.03957,4.8149a1.71983,1.71983,0,0,0-.7461.1954l-4.6152,2.2529a4.19465,4.19465,0,0,0-2.1182,3.3935v5.2188c0,.7886.3584,1.2612.9619,1.2612h0a1.70993,1.70993,0,0,0,.7451-.1958l4.6172-2.2544a4.19007,4.19007,0,0,0,2.1182-3.3911V6.0776C165.00247,5.2876,164.64307,4.8149,164.03957,4.8149Z"/><path class="cls-2" d="M96.88137,113.7632l-15.3086-7.4751.0859.1807c-.2715.1318-27.2617,13.2875-29.2675,14.3334a5.62478,5.62478,0,0,1-2.6094.6827,4.31032,4.31032,0,0,1-2.4727-.7432l-29.38079-14.293-14.9825,7.3145c-3.92771,1.918-3.92771,5.0547,0,6.9722L42.772,140.1826a18.43775,18.43775,0,0,0,14.2813,0l39.8281-19.4472C100.80907,118.8179,100.80907,115.6812,96.88137,113.7632Z"/><g class="cls-1"><path class="cls-3" d="M4.35008,40.7637,48.50247,62.3198a4.84289,4.84289,0,0,0,2.8203,0l44.1523-21.5561L51.32377,19.2095a4.82639,4.82639,0,0,0-2.8203,0Z"/></g><path class="cls-4" d="M2.11377,43.5679V93.9097a2.52643,2.52643,0,0,0,1.19631,1.9179l44.85159,21.8985V67.3838a2.52564,2.52564,0,0,0-1.1983-1.918Z"/><path class="cls-4" d="M97.71337,43.5688,52.85988,65.4658a2.52708,2.52708,0,0,0-1.19631,1.918v50.3423l44.8516-21.8985a2.52317,2.52317,0,0,0,1.1982-1.9179Z"/><path class="cls-3" d="M122.02488,9.7915a4.92289,4.92289,0,0,0-2.07121.4087l-13.4981,6.5894c-.4316.2114-.5879.4345-.5879.5322,0,.0991.1563.3222.5879.5332l13.4981,6.5898a5.7045,5.7045,0,0,0,4.1445,0l13.498-6.5898c.4649-.2271.5879-.4483.5869-.5332,0-.085-.122-.3047-.5869-.5322l-13.498-6.5894A4.92633,4.92633,0,0,0,122.02488,9.7915Z"/><path class="cls-5" d="M105.19777,18.9419c-.6582,0-.7305.7202-.7305,1.0283V35.1494a3.93335,3.93335,0,0,0,1.9883,3.1826l13.4981,6.5899a1.49407,1.49407,0,0,0,.6416.1704h0a.61547.61547,0,0,0,.496-.211,1.28261,1.28261,0,0,0,.2334-.8173V28.8853a3.93127,3.93127,0,0,0-1.9863-3.1817l-13.498-6.5893A1.51427,1.51427,0,0,0,105.19777,18.9419Z"/><path class="cls-4" d="M138.854,18.9419a1.50663,1.50663,0,0,0-.6425.1724l-13.4981,6.5888a3.93675,3.93675,0,0,0-1.9873,3.1822V44.064c0,.31.0713,1.0283.7295,1.0283h0a1.49838,1.49838,0,0,0,.6426-.1704l13.498-6.5899a3.93576,3.93576,0,0,0,1.9864-3.1826V19.9702C139.58257,19.6621,139.51217,18.9419,138.854,18.9419Z"/><path class="cls-3" d="M156.09227,0a5.1728,5.1728,0,0,0-2.1748.4321l-4.6152,2.2544c-.4512.2198-.7197.4986-.7197.7422,0,.2446.2685.523.7187.7417l4.6162,2.2539a5.954,5.954,0,0,0,4.3506,0l4.6162-2.2539c.4502-.2187.7197-.4971.7197-.7417,0-.2436-.2695-.5224-.7197-.7422L158.26807.4321A5.18093,5.18093,0,0,0,156.09227,0Z"/><path class="cls-5" d="M148.147,4.8149c-.6035,0-.9648.4727-.9648,1.2627v5.2178a4.18893,4.18893,0,0,0,2.1191,3.3911l4.6172,2.2544a1.70941,1.70941,0,0,0,.7441.1958h0a.84254.84254,0,0,0,.6739-.2944,1.47739,1.47739,0,0,0,.289-.9668V10.6567a4.19351,4.19351,0,0,0-2.1191-3.3935l-4.6152-2.2529A1.7058,1.7058,0,0,0,148.147,4.8149Z"/><path class="cls-4" d="M164.03957,4.8149a1.71983,1.71983,0,0,0-.7461.1954l-4.6152,2.2529a4.19465,4.19465,0,0,0-2.1182,3.3935v5.2188c0,.7886.3584,1.2612.9619,1.2612h0a1.70993,1.70993,0,0,0,.7451-.1958l4.6172-2.2544a4.19007,4.19007,0,0,0,2.1182-3.3911V6.0776C165.00247,5.2876,164.64307,4.8149,164.03957,4.8149Z"/><path class="cls-6" d="M96.88137,113.7632l-15.3086-7.4751.0859.1807c-.2715.1318-27.2617,13.2875-29.2675,14.3334a5.62478,5.62478,0,0,1-2.6094.6827,4.31032,4.31032,0,0,1-2.4727-.7432l-29.38079-14.293-14.9825,7.3145c-3.92771,1.918-3.92771,5.0547,0,6.9722L42.772,140.1826a18.43775,18.43775,0,0,0,14.2813,0l39.8281-19.4472C100.80907,118.8179,100.80907,115.6812,96.88137,113.7632Z"/></g></g></svg>