<?xml version="1.0" encoding="utf-8"?>
<!-- Generator: Adobe Illustrator 22.1.0, SVG Export Plug-In . SVG Version: 6.00 Build 0)  -->
<svg version="1.1" id="レイヤー_1" xmlns="http://www.w3.org/2000/svg" xmlns:xlink="http://www.w3.org/1999/xlink" x="0px"
	 y="0px" viewBox="0 0 25 21.4" style="enable-background:new 0 0 25 21.4;" xml:space="preserve">
<title>アセット 2</title>
<g id="レイヤー_2_1_">
	<g id="レイヤー_2-2">
		<path d="M0,18.2c0,0,6.4,3.2,9.4-2.4c-0.4,0.1-0.8,0.1-1.2,0c-0.3-0.2-0.6-0.5-0.8-0.8c0,0,1.1-1.1,0.5-1.5c0,0-2.9,0.7-3.5-1
			l1.4-1.5c-0.4,0.3-0.8,0.4-1.3,0.3c0,0-2-0.8-2-2.1l1.4-0.5c0,0-2.9-1.1-2.6-2.6c0,0-0.1-1.2,9.5,2.1c0,0,0.1-5.5,2.5-7.3
			c0,0,0.5,0.1,0.6,0.3c0,0,0.2-0.9,0.6-1.1c0,0,0.7,0.4,0.4,0.8c0,0,0.8-1,1.4-0.7c0,0,0.1,0.6-1.1,1.8c0,0,3.8-0.8,6.4,3.9
			c1.1,0.1,2.3-0.4,3.1-1.2c0,0,0.3,0.7-1.8,2.4c0,0,0.3,0.3,2.2-0.5c0,0,0.4,1.5-2.8,2.3c0,0-0.7,8.4-6.9,11.2
			C7.8,23.2,1.3,20.7,0,18.2z"/>
	</g>
</g>
</svg>
