<svg xmlns="http://www.w3.org/2000/svg" viewBox="0 0 25.01743 21.43368"><defs><style>.cls-1{fill:#fff;fill-rule:evenodd;}</style></defs><title>アセット 2</title><g id="レイヤー_2" data-name="レイヤー 2"><g id="レイヤー_2-2" data-name="レイヤー 2"><path class="cls-1" d="M0,18.2007s6.4161,3.1885,9.4043-2.4038a2.24236,2.24236,0,0,1-1.2324-.0464,2.0725,2.0725,0,0,1-.8203-.8237s1.1055-1.0596.4785-1.4805c0,0-2.8789.6865-3.4883-1l1.3985-1.5229a1.66611,1.66611,0,0,1-1.3145.3369s-2.0136-.7769-2.0136-2.1079l1.3789-.5132S.875,7.5303,1.2149,6.0083c0,0-.0625-1.2163,9.4785,2.0708,0,0,.1094-5.4795,2.4668-7.291,0,0,.4941.0967.5527.3218,0,0,.168-.9067.64461-1.1099,0,0,.73429.3711.42379.7735,0,0,.8281-.9522,1.4121-.731,0,0,.11911.6245-1.13089,1.7642,0,0,3.81449-.7696,6.43169,3.9052a3.99086,3.99086,0,0,0,3.0586-1.2202s.3203.7085-1.7852,2.3736c0,0,.3145.3008,2.2364-.4893,0,0,.371,1.4863-2.7872,2.2954,0,0-.6562,8.4072-6.8515,11.1514C7.836,23.1582,1.2872,20.6626,0,18.2007Z"/></g></g></svg>