<svg xmlns="http://www.w3.org/2000/svg" xmlns:xlink="http://www.w3.org/1999/xlink" viewBox="0 0 114 114"><defs><style>.cls-1,.cls-3{fill:none;}.cls-2{clip-path:url(#clip-path);}.cls-3{stroke:#231815;stroke-miterlimit:10;stroke-width:0.5px;}</style><clipPath id="clip-path"><rect class="cls-1" x="33.5" y="134.32" width="400" height="400"/></clipPath></defs><title>BCJ_web_PC 4_EN_OL</title><g id="レイヤー_2" data-name="レイヤー 2"><g class="cls-2"><image width="400" height="400" transform="translate(-0.26 100.9) scale(1.17)" xlink:href="BlockChainJAM/WEBデザイン/pics/oishi.jpg"/></g><path d="M87,30.78a9.86,9.86,0,1,1-9.85-9.85A9.85,9.85,0,0,1,87,30.78Z"/><path d="M82,87.43a9.85,9.85,0,1,1-9.85-9.85A9.86,9.86,0,0,1,82,87.43Z"/><path d="M42.62,50.49a9.85,9.85,0,1,1-9.85-9.86A9.85,9.85,0,0,1,42.62,50.49Z"/><rect x="28.32" y="39.6" width="50.78" height="2.07" transform="translate(-11.56 24.01) rotate(-22.82)"/><rect x="50.82" y="51.63" width="2.07" height="38.36" transform="matrix(0.67, -0.74, 0.74, 0.67, -35.4, 61.36)"/></g><g id="ガイド"><rect class="cls-3" x="-215.5" y="-4415.07" width="1500" height="11391.51"/></g></svg>