<svg xmlns="http://www.w3.org/2000/svg" viewBox="0 0 114 114"><defs><style>.cls-1{fill:none;stroke:#231815;stroke-miterlimit:10;stroke-width:0.5px;}</style></defs><title>BCJ_web_PC 4_EN_OL</title><g id="レイヤー_2" data-name="レイヤー 2"><path d="M57.75,42.43l-2.11,8.45c2.39.59,9.75,3,11-1.76C67.83,44.14,60.14,43,57.75,42.43Z"/><path d="M54.58,55.14l-2.32,9.32c2.86.71,11.71,3.55,13-1.7C66.64,57.28,57.45,55.86,54.58,55.14Z"/><path d="M67.27,17.29A38.55,38.55,0,1,0,95.35,64,38.54,38.54,0,0,0,67.27,17.29ZM74.94,49.2c-.55,3.76-2.63,5.57-5.4,6.21,3.8,2,5.73,5,3.89,10.26-2.28,6.53-7.71,7.08-14.92,5.71l-1.75,7-4.24-1.05,1.73-6.93c-1.09-.27-2.21-.56-3.37-.87l-1.73,7-4.23-1,1.75-7-3-.78-5.51-1.37,2.1-4.84s3.12.82,3.08.76a1.53,1.53,0,0,0,1.93-1L48,50.1l.45.11c-.17-.07-.32-.11-.44-.15l2-7.91a2.25,2.25,0,0,0-2-2.46c.07,0-3.07-.77-3.07-.77l1.12-4.52,5.84,1.46v0c.88.22,1.78.43,2.7.64l1.74-7,4.23,1.05-1.7,6.81,3.39.8L64,31.46l4.23,1.06-1.74,6.95C71.81,41.31,75.71,44.07,74.94,49.2Z"/></g><g id="ガイド"><rect class="cls-1" x="-233.5" y="-7828.9" width="1500" height="11391.51"/></g></svg>