<svg id="レイヤー_1" data-name="レイヤー 1" xmlns="http://www.w3.org/2000/svg" viewBox="0 0 355.84 361.25"><title>blockchaingameinfo</title><rect x="33.32" y="27.33" width="294.95" height="294.95" style="fill:#fff"/><rect x="33.32" y="266.24" width="294.95" height="56.04" style="fill:#82a4b5"/><path d="M56.22,291.43c-1,0-2,0-2.92.11-.21,0-.28-.05-.31-.28s-.07-.78-.09-1.08a31.26,31.26,0,0,0,3.33.14h6.16a1.67,1.67,0,0,0,.87-.15.43.43,0,0,1,.45,0,4.5,4.5,0,0,1,.78.72.36.36,0,0,1,0,.53,1.73,1.73,0,0,0-.39.59,18.29,18.29,0,0,1-3.4,5.7,18.89,18.89,0,0,1-5.16,4.19.43.43,0,0,1-.59,0,2.87,2.87,0,0,0-.91-.59A16.63,16.63,0,0,0,59.6,297a16.22,16.22,0,0,0,3.27-5.57ZM64,288a.14.14,0,0,1,.21,0,8.63,8.63,0,0,1,2,2.11.13.13,0,0,1,0,.19l-.51.41c-.09.07-.17.06-.22,0a7.55,7.55,0,0,0-2-2.22Zm1.47-1.14c.07-.06.12-.07.19,0a10.08,10.08,0,0,1,2,2c0,.09,0,.14-.06.21l-.47.42c-.06.07-.13.07-.2,0a8.41,8.41,0,0,0-2-2.17Z" style="fill:#fff"/><path d="M71.36,299.27v1.18c0,.21,0,.25-.24.26s-.57,0-.82,0-.24,0-.24-.22c0-1.1.07-2.24.07-3.72v-3.42c0-.93,0-1.85,0-2.78,0-.16.05-.2.18-.2.89,0,1.83,0,2.8,0h3.83c1,0,2.17,0,3.07,0,.17,0,.21.06.21.25,0,.88,0,1.8,0,2.74v3.5c0,1.33.06,2.53.09,3.42,0,.19,0,.24-.22.24h-.91c-.15,0-.17,0-.17-.22v-1Zm7.58-7.75h-7.6v6.64h7.6Z" style="fill:#fff"/><path d="M86.82,293.08c.14-.06.21,0,.31.09a10,10,0,0,1,1.43,2.43c.07.18.07.21-.09.32a3.59,3.59,0,0,1-.66.31c-.16.07-.23,0-.28-.14A10.81,10.81,0,0,0,86,293.5Zm9.28,0a.25.25,0,0,1,0,.42,2.43,2.43,0,0,0-.51.83,21,21,0,0,1-2.55,4.49,14.27,14.27,0,0,1-3.51,3.3.29.29,0,0,1-.38,0,2.27,2.27,0,0,0-.91-.44,14.16,14.16,0,0,0,3.89-3.46A16.89,16.89,0,0,0,94.52,294a6.12,6.12,0,0,0,.29-1.43A4.82,4.82,0,0,1,96.1,293.1Zm-5.87-.81c.12-.06.2,0,.29.1a10.5,10.5,0,0,1,1.3,2.42c.06.13,0,.2-.12.27a5,5,0,0,1-.69.33c-.12.06-.18,0-.25-.15a9.94,9.94,0,0,0-1.33-2.57A6.47,6.47,0,0,1,90.23,292.29Z" style="fill:#fff"/><path d="M110.43,290.72c.52,0,.68-.05.87-.19s.26,0,.45.07a5.08,5.08,0,0,1,.69.57c.21.21.18.39,0,.53a1.74,1.74,0,0,0-.45.6,23.26,23.26,0,0,1-3.36,5.42,21.57,21.57,0,0,1-5.42,4.51.29.29,0,0,1-.38-.06,2.54,2.54,0,0,0-1-.5,19.85,19.85,0,0,0,9-9.92l-5,.14a25.25,25.25,0,0,1-3.44,3.71.37.37,0,0,1-.54,0,2.31,2.31,0,0,0-.89-.37,18.47,18.47,0,0,0,4.54-5,5.18,5.18,0,0,0,.87-2.17,4.4,4.4,0,0,1,1.3.6.26.26,0,0,1,0,.46,1.89,1.89,0,0,0-.52.59c-.26.41-.45.74-.69,1.09Z" style="fill:#fff"/><path d="M122.81,293.85c0-.45,0-1.11,0-1.55a5.37,5.37,0,0,0-.19-1.33,10.29,10.29,0,0,1,1.44.22c.21.05.24.17.16.35a1.26,1.26,0,0,0-.12.48c0,.23,0,.46,0,.7,0,.45,0,.73,0,1.13h2.31c1.07,0,2.31,0,3.28-.09.17,0,.19,0,.19.21a4.94,4.94,0,0,1,0,.77c0,.2,0,.24-.21.24-1.09,0-2.15-.05-3.3-.05H124a10.18,10.18,0,0,1-.78,3.68,8.09,8.09,0,0,1-2.8,3.36.29.29,0,0,1-.4,0,2.81,2.81,0,0,0-1.06-.46,7,7,0,0,0,3.09-3.28,8.06,8.06,0,0,0,.71-3.3h-3.21c-.92,0-1.94,0-2.9.1-.19,0-.24-.07-.28-.29s-.09-.65-.1-1c1.21.08,2.29.1,3.33.1ZM127.5,289a.59.59,0,0,1,.21.34c0,.12-.12.21-.4.25s-.69.19-1,.27a36.9,36.9,0,0,1-3.63.89,39,39,0,0,1-4.52.64.28.28,0,0,1-.31-.22,2.43,2.43,0,0,0-.61-.75,37.08,37.08,0,0,0,5.06-.66,20.75,20.75,0,0,0,3.11-.85,3.21,3.21,0,0,0,1.16-.63A6.43,6.43,0,0,1,127.5,289Z" style="fill:#fff"/><path d="M139.54,299.81h2.24c.87,0,1.65,0,2.52-.05.14,0,.17.05.19.21v.66c0,.19-.05.24-.21.24l-2.49,0h-5.64c-.84,0-1.53,0-2.24.06-.14,0-.2,0-.21-.22a5.93,5.93,0,0,1,0-.94c.88.05,1.59.07,2.5.07h2.24V295h-1.22c-.68,0-1.3,0-2,0-.14,0-.21-.06-.23-.23s0-.57-.07-.92c.8,0,1.55.09,2.3.09h3.51c.82,0,1.51,0,2.34-.06.16,0,.19.06.19.21a3.86,3.86,0,0,1,0,.68c0,.17-.05.21-.22.21-.78,0-1.55,0-2.31,0h-1.11Z" style="fill:#fff"/><path d="M151.22,295.85a14.36,14.36,0,0,0-2.34.17.28.28,0,0,1-.3-.24,9.55,9.55,0,0,1-.17-1.32,31.68,31.68,0,0,0,3.84.15h5.33c1.2,0,2.49,0,3.81-.05.21,0,.26,0,.26.21a6.76,6.76,0,0,1,0,.9c0,.2-.05.23-.26.21-1.3,0-2.59,0-3.75,0Z" style="fill:#fff"/><path d="M165.94,289.92a.21.21,0,0,1,.31,0,16.07,16.07,0,0,1,3.13,2.31.22.22,0,0,1,.05.33,7,7,0,0,1-.59.75c-.11.12-.16.14-.28,0a18.63,18.63,0,0,0-3.3-2.57C165.48,290.44,165.74,290.13,165.94,289.92Zm1.56,9.21a29.27,29.27,0,0,0,5-3.23,26.89,26.89,0,0,0,4.69-4.67,5.33,5.33,0,0,0,.3,1.14.49.49,0,0,1-.12.61,33.1,33.1,0,0,1-4.23,4,36.15,36.15,0,0,1-5.21,3.39,6.18,6.18,0,0,0-1,.67.29.29,0,0,1-.47,0,7.57,7.57,0,0,1-.85-1.18A9.94,9.94,0,0,0,167.5,299.13Z" style="fill:#fff"/><path d="M189,292.93a12.29,12.29,0,0,1-1.37,5.59,10.77,10.77,0,0,1-3.39,3.62.37.37,0,0,1-.47,0,3.27,3.27,0,0,0-1.08-.41,10,10,0,0,0,3.79-3.72,10.68,10.68,0,0,0,1.23-5.11h-4.25a19.62,19.62,0,0,1-2.58,3.16.26.26,0,0,1-.36.05,2.68,2.68,0,0,0-.92-.36,17.8,17.8,0,0,0,4-5.53,6.58,6.58,0,0,0,.69-2.22,5.14,5.14,0,0,1,1.34.54c.21.12.14.29,0,.45a2.16,2.16,0,0,0-.55.82c-.33.71-.67,1.42-1,2h6.24c1.06,0,2,0,3.1-.07.19,0,.24,0,.24.21v.82c0,.14-.05.21-.23.21-.9-.05-2-.07-3-.07Zm2.05-4.76c.09-.05.12-.05.19,0a8.23,8.23,0,0,1,2,2.1.12.12,0,0,1,0,.19l-.51.42a.13.13,0,0,1-.22,0,7.55,7.55,0,0,0-2-2.22Zm1.46-1.15c.07,0,.12-.07.19,0a10.08,10.08,0,0,1,2,2c0,.08,0,.13-.05.21l-.47.41c-.07.07-.14.07-.21,0a8.28,8.28,0,0,0-2-2.18Z" style="fill:#fff"/><path d="M199.16,295.85a14.36,14.36,0,0,0-2.34.17.28.28,0,0,1-.3-.24,9.55,9.55,0,0,1-.17-1.32,31.59,31.59,0,0,0,3.84.15h5.33c1.2,0,2.48,0,3.81-.05.2,0,.26,0,.26.21a6.76,6.76,0,0,1,0,.9c0,.2-.06.23-.26.21-1.31,0-2.59,0-3.76,0Z" style="fill:#fff"/><path d="M219.54,289c.15.1.17.29,0,.52a3.4,3.4,0,0,0-.63,1.27c-.85,2.53-2,5.7-3.25,8.44,2.35-.19,5.11-.43,7.41-.78a18.84,18.84,0,0,0-2.11-3c.28-.16.56-.35.82-.49s.24,0,.35.09a25.52,25.52,0,0,1,3.37,5.37.24.24,0,0,1-.09.35l-.76.41c-.14.07-.23,0-.32-.15-.22-.49-.47-1-.73-1.48-2.73.42-5.47.71-8.55,1a5.59,5.59,0,0,0-1.77.33c-.24.16-.45.18-.55-.07a9.81,9.81,0,0,1-.42-1.44,12.93,12.93,0,0,0,2.05,0c1.25-3,2.52-6.37,3.11-8.29a10.43,10.43,0,0,0,.54-2.67A5.92,5.92,0,0,1,219.54,289Z" style="fill:#fff"/><path d="M236.45,298.7c0,1,0,2,.05,3.14,0,.16,0,.21-.17.21a8.51,8.51,0,0,1-1,0c-.13,0-.17-.05-.17-.21,0-1,.07-2.08.07-3.09v-5.14a33.66,33.66,0,0,1-5.46,3.92.29.29,0,0,1-.4-.07,3,3,0,0,0-.87-.55,31.92,31.92,0,0,0,5.41-3.67,29.62,29.62,0,0,0,3.37-3.35,5.49,5.49,0,0,0,1.2-2,5.54,5.54,0,0,1,1.2.79.28.28,0,0,1-.07.48,4.29,4.29,0,0,0-1,.92,29.12,29.12,0,0,1-2.18,2.4Z" style="fill:#fff"/><path d="M245.83,289.92a.21.21,0,0,1,.31,0,16.07,16.07,0,0,1,3.13,2.31c.12.12.14.19,0,.33a7,7,0,0,1-.59.75c-.1.12-.15.14-.28,0a18.27,18.27,0,0,0-3.3-2.57C245.38,290.44,245.64,290.13,245.83,289.92Zm1.56,9.21a29.75,29.75,0,0,0,5-3.23,27.6,27.6,0,0,0,4.69-4.67,5.38,5.38,0,0,0,.29,1.14c.11.23.09.37-.12.61a32.35,32.35,0,0,1-4.22,4,37.29,37.29,0,0,1-5.21,3.39,6.18,6.18,0,0,0-1,.67.29.29,0,0,1-.47,0,7,7,0,0,1-.85-1.18A9.58,9.58,0,0,0,247.39,299.13Z" style="fill:#fff"/><path d="M264.5,291.23c-1,0-2,0-2.92.1-.21,0-.28-.05-.31-.28s-.07-.78-.09-1.07c1.08.1,2.05.13,3.34.13h6.15a1.65,1.65,0,0,0,.87-.15.41.41,0,0,1,.45,0,3.82,3.82,0,0,1,.78.71.37.37,0,0,1,0,.54,1.43,1.43,0,0,0-.38.59,19,19,0,0,1-8.57,9.88.43.43,0,0,1-.59,0,3.12,3.12,0,0,0-.9-.59,16.73,16.73,0,0,0,5.61-4.29,16.43,16.43,0,0,0,3.27-5.56Z" style="fill:#fff"/><path d="M283.29,295.92a14.92,14.92,0,0,1-2.17,2.45,16.55,16.55,0,0,1-2.78,2c-.17.08-.26.1-.38,0a1.75,1.75,0,0,0-.75-.52,15.77,15.77,0,0,0,3.2-2.16,13.17,13.17,0,0,0,2.15-2.36h-2.69c-.69,0-1.32,0-2.05.11-.14,0-.19,0-.21-.21a9.06,9.06,0,0,1-.08-.91c1,.07,1.53.07,2.32.07h3.32l-.06-1.14a6.64,6.64,0,0,0-.25-1.74,9.4,9.4,0,0,1,1.29.15.2.2,0,0,1,.12.34c-.1.17-.16.45-.1,1.33l.07,1h1.51c.85,0,1.65,0,2.45-.06.15,0,.21,0,.21.18v.68c0,.15-.07.19-.21.19-.79,0-1.52,0-2.44,0H284.3l.23,5c.05,1-.14,1.32-.59,1.55a5.31,5.31,0,0,1-1.74.38c-.21,0-.28-.05-.33-.17a1.88,1.88,0,0,0-.61-.85,7.36,7.36,0,0,0,1.79-.16c.37-.11.44-.23.42-.76Z" style="fill:#fff"/><path d="M299.86,291.64c0,.12,0,.14-.14.14s-.43,0-1.56,0h-.11a11.37,11.37,0,0,0,1.8,3.77,2.12,2.12,0,0,0-.44.66c-.05.12-.1.19-.15.19s-.09-.07-.16-.19a15.14,15.14,0,0,1-1.2-3.32c0,5.28.17,9.66.17,9.92s0,.12-.12.12h-.83c-.12,0-.14,0-.14-.12s.14-4.6.17-9.68a18.73,18.73,0,0,1-2,5.51c-.07.12-.12.19-.18.19s-.1-.05-.13-.17a1.75,1.75,0,0,0-.45-.68,19,19,0,0,0,2.55-6.2h-.38c-1.17,0-1.5,0-1.59,0s-.13,0-.13-.14V291c0-.14,0-.16.13-.16s.42,0,1.59,0h.52v-1.49a9.14,9.14,0,0,0-.14-2.07,7.68,7.68,0,0,1,1.09.11q.21,0,.21.15a.67.67,0,0,1-.1.31,5.17,5.17,0,0,0-.09,1.48v1.51h.14c1.13,0,1.46,0,1.56,0s.14,0,.14.16Zm5.32,3.86a11.69,11.69,0,0,0,1.48,2.52,13.26,13.26,0,0,0,1.39-1.3,2.53,2.53,0,0,0,.42-.61,6.53,6.53,0,0,1,.71.55c.1.09.14.16.14.23s-.06.16-.18.19a1.2,1.2,0,0,0-.52.37c-.37.36-.82.76-1.41,1.23a12.8,12.8,0,0,0,3.25,2.42,2,2,0,0,0-.55.59c-.09.15-.14.2-.21.2a.51.51,0,0,1-.25-.12,11.11,11.11,0,0,1-4.48-5.11c0,1.83.07,3.53.07,4.54,0,.66-.1,1-.45,1.23s-.66.28-1.76.3c-.34,0-.38,0-.45-.35a2.07,2.07,0,0,0-.31-.73,9,9,0,0,0,1.15.07c.69,0,.81-.12.81-.68v-2c-1.14.74-2.36,1.44-3.44,2a2.64,2.64,0,0,0-.62.38c-.06.07-.12.14-.19.14s-.11-.05-.16-.15c-.14-.25-.29-.58-.45-.93a5,5,0,0,0,1-.36A33.35,33.35,0,0,0,304,298V295.5h-1.61c-1.72,0-2.31,0-2.4,0s-.12,0-.12-.14v-.68c0-.12,0-.14.12-.14s.68,0,2.4,0H304v-1.56h-1c-1.58,0-2.1,0-2.19,0s-.14,0-.14-.13v-.65c0-.12,0-.14.14-.14s.61,0,2.19,0h1v-1.5H302.8c-1.67,0-2.22,0-2.33,0s-.14,0-.14-.12v-.68c0-.12,0-.14.14-.14s.66,0,2.33,0h2.59a19.1,19.1,0,0,0,.94-1.78,3.27,3.27,0,0,0,.22-.73,8.06,8.06,0,0,1,.91.26c.12,0,.21.11.21.19s-.09.16-.18.23a.86.86,0,0,0-.24.33c-.21.42-.56,1-.87,1.5H307c1.65,0,2.21,0,2.3,0s.15,0,.15.14v.68c0,.1,0,.12-.15.12s-.65,0-2.3,0H305v1.5h1.46c1.58,0,2.08,0,2.17,0s.14,0,.14.14V293c0,.12,0,.13-.14.13s-.59,0-2.17,0H305v1.56h2.41c1.72,0,2.3,0,2.4,0s.14,0,.14.14v.68c0,.12,0,.14-.14.14s-.68,0-2.4,0Zm-4.47.64c.16-.14.2-.15.28-.07a9,9,0,0,1,1.53,1.55c.09.09.09.12,0,.26l-.37.35c-.19.19-.22.17-.29.07a8.3,8.3,0,0,0-1.46-1.62c-.11-.08-.09-.1.07-.26Zm1.41-8.65c.16-.07.19-.07.28,0a8.15,8.15,0,0,1,1,1.52c0,.08,0,.12-.11.21l-.5.27c-.21.12-.25.12-.3,0a5.8,5.8,0,0,0-1-1.56c-.09-.09-.09-.12.12-.22Z" style="fill:#fff"/><path d="M87.88,188.49V164.84a5.6,5.6,0,0,1-2.5-1.44L64.9,175.22a5.66,5.66,0,0,1,0,2.89l20.47,11.82A5.69,5.69,0,0,1,87.88,188.49Z" style="fill:#2ea9ff"/><path d="M64.9,143.73l20.47,11.82a5.69,5.69,0,0,1,2.51-1.44V130.46A5.62,5.62,0,0,1,85.37,129L64.9,140.83A5.59,5.59,0,0,1,64.9,143.73Z" style="fill:#ff6d45"/><path d="M113.72,175.22,93.24,163.4a5.6,5.6,0,0,1-2.5,1.44v23.65a5.6,5.6,0,0,1,2.5,1.44l20.48-11.82A5.55,5.55,0,0,1,113.72,175.22Z" style="fill:#a7ff73"/><path d="M63.47,172.74,84,160.92a5.27,5.27,0,0,1-.2-1.44A5.34,5.34,0,0,1,84,158L63.47,146.21A5.58,5.58,0,0,1,61,147.65h0v23.63A5.64,5.64,0,0,1,63.47,172.74Z" style="fill:#2ea9ff"/><path d="M115.15,146.21,94.67,158a5.34,5.34,0,0,1,.2,1.45,5.27,5.27,0,0,1-.2,1.44l20.48,11.82a5.59,5.59,0,0,1,2.5-1.44V147.66A5.52,5.52,0,0,1,115.15,146.21Z" style="fill:#a7ff73"/><path d="M90.74,130.46v23.65a5.6,5.6,0,0,1,2.5,1.44l20.48-11.82a5.62,5.62,0,0,1,0-2.88h0L93.25,129A5.6,5.6,0,0,1,90.74,130.46Z" style="fill:#ff6d45"/><path d="M92,125a2.69,2.69,0,0,0-5.38,0s0,.07,0,.11A2.69,2.69,0,0,0,88,127.47a2.6,2.6,0,0,0,1.27.32A2.68,2.68,0,0,0,92,125.1S92,125,92,125Z" style="fill:#fff"/><path d="M90.57,191.47a2.7,2.7,0,0,0-4,2.38.31.31,0,0,0,0,.1A2.69,2.69,0,0,0,92,194v-.1A2.71,2.71,0,0,0,90.57,191.47Z" style="fill:#fff"/><path d="M62.14,141.59A2.65,2.65,0,0,0,60.89,140l-.1,0a2.66,2.66,0,0,0-1.25-.31,2.69,2.69,0,0,0-1.44,5l.09.06a2.65,2.65,0,0,0,2,.27,2.53,2.53,0,0,0,.73-.32,2.65,2.65,0,0,0,.91-.94,2.69,2.69,0,0,0,.27-2Z" style="fill:#fff"/><path d="M120.52,174.39l-.09-.06a2.68,2.68,0,0,0-2.78.06,2.51,2.51,0,0,0-.9.93,2.58,2.58,0,0,0-.36,1.25,2.7,2.7,0,0,0,1.34,2.43l.09.05a2.69,2.69,0,0,0,2.7-4.66Z" style="fill:#fff"/><path d="M61.87,175.31a2.62,2.62,0,0,0-.91-.93,2.67,2.67,0,0,0-2.77,0l-.09,0A2.69,2.69,0,0,0,56.93,176a2.7,2.7,0,0,0,1.91,3.3,2.69,2.69,0,0,0,1.95-.22l.09-.05a2.72,2.72,0,0,0,1.35-2.43A2.76,2.76,0,0,0,61.87,175.31Z" style="fill:#fff"/><path d="M121.42,140.94a2.7,2.7,0,0,0-3.59-1l-.09,0a2.7,2.7,0,0,0-1.35,2.43,2.64,2.64,0,0,0,.36,1.26,2.7,2.7,0,0,0,3.68,1l.09-.05A2.7,2.7,0,0,0,121.42,140.94Z" style="fill:#fff"/><path d="M92,159.38a2.7,2.7,0,0,0-1.26-2.19l-.17-.1a2.64,2.64,0,0,0-1.26-.31,2.71,2.71,0,0,0-1.27.31l-.16.1a2.69,2.69,0,0,0-1.26,2.19s0,.06,0,.1,0,.06,0,.1a2.7,2.7,0,0,0,1.26,2.18l.17.1a2.64,2.64,0,0,0,1.26.31,2.7,2.7,0,0,0,1.26-.31l.17-.1A2.7,2.7,0,0,0,92,159.57s0-.06,0-.09S92,159.41,92,159.38Z" style="fill:#fff"/><path d="M121.86,171.85a5.74,5.74,0,0,0-1.34-.55V147.66a5.37,5.37,0,0,0,1.34-.56,5.56,5.56,0,1,0-5.56-9.63,5.89,5.89,0,0,0-1.15.89L94.67,126.54a5.33,5.33,0,0,0,.2-1.44,5.56,5.56,0,0,0-11.12,0,5.25,5.25,0,0,0,.2,1.43L63.46,138.36a5.29,5.29,0,0,0-1.14-.89,5.56,5.56,0,1,0-5.56,9.63,6.24,6.24,0,0,0,1.34.56V171.3a5.34,5.34,0,0,0-1.34.55,5.56,5.56,0,0,0-2,7.59,5.56,5.56,0,0,0,7.59,2,5.42,5.42,0,0,0,1.15-.89L84,192.41a5.33,5.33,0,0,0-.2,1.44,5.56,5.56,0,0,0,11.12,0,5.75,5.75,0,0,0-.2-1.44l20.48-11.82a5.56,5.56,0,1,0,6.71-8.74ZM117.74,140l.09,0a2.7,2.7,0,0,1,2.69,4.67l-.09.05a2.7,2.7,0,0,1-3.68-1,2.64,2.64,0,0,1-.36-1.26A2.7,2.7,0,0,1,117.74,140ZM93.25,129l20.47,11.82h0a5.62,5.62,0,0,0,0,2.88L93.24,155.55a5.6,5.6,0,0,0-2.5-1.44V130.46A5.6,5.6,0,0,0,93.25,129Zm-2.68,32.84a2.7,2.7,0,0,1-1.26.31,2.64,2.64,0,0,1-1.26-.31l-.17-.1a2.7,2.7,0,0,1-1.26-2.18s0-.07,0-.1,0-.07,0-.1a2.69,2.69,0,0,1,1.26-2.19l.16-.1a2.71,2.71,0,0,1,1.27-.31,2.64,2.64,0,0,1,1.26.31l.17.1A2.7,2.7,0,0,1,92,159.38s0,.06,0,.1,0,.06,0,.09a2.7,2.7,0,0,1-1.26,2.19ZM86.62,125A2.69,2.69,0,0,1,92,125s0,.07,0,.11a2.68,2.68,0,0,1-2.7,2.69,2.6,2.6,0,0,1-1.27-.32,2.69,2.69,0,0,1-1.43-2.37S86.62,125,86.62,125ZM64.9,140.83,85.37,129a5.62,5.62,0,0,0,2.51,1.45v23.65a5.69,5.69,0,0,0-2.51,1.44L64.9,143.73A5.59,5.59,0,0,0,64.9,140.83Zm-8,2.15a2.7,2.7,0,0,1,2.61-3.39,2.66,2.66,0,0,1,1.25.31l.1,0a2.65,2.65,0,0,1,1.25,1.64,2.69,2.69,0,0,1-.27,2,2.65,2.65,0,0,1-.91.94,2.53,2.53,0,0,1-.73.32,2.65,2.65,0,0,1-2-.27l-.09-.06A2.67,2.67,0,0,1,56.93,143Zm4,36-.09.05a2.69,2.69,0,0,1-3.59-1,2.65,2.65,0,0,1-.27-2,2.69,2.69,0,0,1,1.17-1.59l.09,0a2.67,2.67,0,0,1,2.77,0,2.62,2.62,0,0,1,.91.93,2.76,2.76,0,0,1,.36,1.26A2.72,2.72,0,0,1,60.88,179Zm.08-7.71V147.66h0a5.58,5.58,0,0,0,2.49-1.44L84,158a5.34,5.34,0,0,0-.2,1.45,5.27,5.27,0,0,0,.2,1.44L63.47,172.74A5.64,5.64,0,0,0,61,171.29Zm24.41,18.64L64.9,178.11a5.66,5.66,0,0,0,0-2.89L85.38,163.4a5.6,5.6,0,0,0,2.5,1.44v23.65A5.69,5.69,0,0,0,85.37,189.93ZM92,194a2.69,2.69,0,0,1-5.38,0,.31.31,0,0,1,0-.1,2.7,2.7,0,1,1,5.39,0Zm21.72-15.84L93.24,189.93a5.6,5.6,0,0,0-2.5-1.44V164.84a5.6,5.6,0,0,0,2.5-1.44l20.48,11.82A5.55,5.55,0,0,0,113.72,178.11Zm1.43-5.37L94.67,160.92a5.27,5.27,0,0,0,.2-1.44,5.34,5.34,0,0,0-.2-1.45l20.48-11.82a5.52,5.52,0,0,0,2.5,1.45V171.3A5.59,5.59,0,0,0,115.15,172.74Zm6.27,5.28a2.71,2.71,0,0,1-3.6,1l-.09-.05a2.7,2.7,0,0,1-1.34-2.43,2.58,2.58,0,0,1,.36-1.25,2.51,2.51,0,0,1,.9-.93,2.68,2.68,0,0,1,2.78-.06l.09.06A2.7,2.7,0,0,1,121.42,178Z"/><path d="M166,157.93h-3V133.08h3Z"/><path d="M204.23,156.81a18.58,18.58,0,0,1-2.85,1.12,9.89,9.89,0,0,1-2.86.4,10.62,10.62,0,0,1-3.55-.57,7.12,7.12,0,0,1-2.76-1.71,7.79,7.79,0,0,1-1.81-2.91,12.13,12.13,0,0,1-.64-4.1,9.45,9.45,0,0,1,2.41-6.87,8.42,8.42,0,0,1,6.35-2.49,10.63,10.63,0,0,1,3,.43,16.49,16.49,0,0,1,2.7,1v3.34h-.16a11.35,11.35,0,0,0-2.83-1.64,7.68,7.68,0,0,0-2.85-.58,5,5,0,0,0-4,1.72,9.27,9.27,0,0,0,0,10,5,5,0,0,0,4.07,1.74,7.52,7.52,0,0,0,1.85-.24,8.37,8.37,0,0,0,1.69-.62,14.24,14.24,0,0,0,1.23-.72,10,10,0,0,0,.91-.64h.16Z"/><path d="M224.28,157.93h-4l-7.16-7.81L211.21,152v6h-3V133.08h3V149l8.67-8.93h3.79l-8.29,8.24Z"/><path d="M240.63,156.81a18.58,18.58,0,0,1-2.85,1.12,10,10,0,0,1-2.87.4,10.56,10.56,0,0,1-3.54-.57,7.23,7.23,0,0,1-2.77-1.71,7.9,7.9,0,0,1-1.8-2.91,11.89,11.89,0,0,1-.64-4.1,9.45,9.45,0,0,1,2.41-6.87,8.4,8.4,0,0,1,6.34-2.49,10.53,10.53,0,0,1,3,.43,16.26,16.26,0,0,1,2.71,1v3.34h-.16a11.35,11.35,0,0,0-2.83-1.64,7.68,7.68,0,0,0-2.85-.58,5,5,0,0,0-4,1.72,9.3,9.3,0,0,0,0,10,5,5,0,0,0,4.07,1.74,7.52,7.52,0,0,0,1.85-.24,8.37,8.37,0,0,0,1.69-.62,14.24,14.24,0,0,0,1.23-.72c.38-.25.69-.46.91-.64h.16Z"/><path d="M259.4,157.93h-3V147.77a16.72,16.72,0,0,0-.14-2.3,4.11,4.11,0,0,0-.53-1.69,2.4,2.4,0,0,0-1.15-1,5.07,5.07,0,0,0-1.94-.32,6.35,6.35,0,0,0-2.58.6,13.41,13.41,0,0,0-2.57,1.55v13.32h-3V133.08h3v9a12.65,12.65,0,0,1,2.91-1.82,7.74,7.74,0,0,1,3.08-.65,5.53,5.53,0,0,1,4.41,1.74,7.41,7.41,0,0,1,1.52,5Z"/><path d="M287.31,137.11h-3.38V134h3.38Zm-.19,20.82h-3V140.09h3Z"/><path d="M307.61,157.93h-3V147.77a18.45,18.45,0,0,0-.14-2.3,4.43,4.43,0,0,0-.53-1.69,2.45,2.45,0,0,0-1.15-1,5.09,5.09,0,0,0-2-.32,6.27,6.27,0,0,0-2.57.6,13.41,13.41,0,0,0-2.57,1.55v13.32h-3V140.09h3v2a12.44,12.44,0,0,1,2.91-1.82,7.71,7.71,0,0,1,3.08-.65,5.56,5.56,0,0,1,4.41,1.74,7.41,7.41,0,0,1,1.51,5Z"/><path d="M154,147a5.37,5.37,0,0,0-1.86-.52,25,25,0,0,0-2.66-.12h-8.18v8.85h7.4a22.45,22.45,0,0,0,3.4-.21,5.49,5.49,0,0,0,2.17-.79,4,4,0,0,0,1.31-1.42,4.45,4.45,0,0,0,.42-2.07,5.2,5.2,0,0,0-.43-2.28A3.53,3.53,0,0,0,154,147Z" style="fill:#a7ff73"/><path d="M151,143.57a4.59,4.59,0,0,0,1.63-.64,2.62,2.62,0,0,0,1.06-1.23,4.71,4.71,0,0,0,.31-1.8,3.31,3.31,0,0,0-.29-1.45,2.18,2.18,0,0,0-.92-1,4.52,4.52,0,0,0-1.83-.54c-.71-.07-1.59-.1-2.65-.1h-7v6.87h7.3A14.82,14.82,0,0,0,151,143.57Z" style="fill:#2ea9ff"/><path d="M154.11,144.4v-.12a6.28,6.28,0,0,0,2.3-1.91,4.84,4.84,0,0,0,.86-2.88,5.29,5.29,0,0,0-.59-2.58,4.49,4.49,0,0,0-1.9-1.77,8.18,8.18,0,0,0-2.48-.8,28.57,28.57,0,0,0-3.89-.19H138.15v23.78h11.64a15.47,15.47,0,0,0,4.09-.45,8,8,0,0,0,2.94-1.5,6.3,6.3,0,0,0,1.81-2.23,7.1,7.1,0,0,0,.67-3.13,6.11,6.11,0,0,0-1.39-4.1A6.61,6.61,0,0,0,154.11,144.4Zm-12.8-7.55h7c1.06,0,1.94,0,2.65.1a4.52,4.52,0,0,1,1.83.54,2.18,2.18,0,0,1,.92,1,3.31,3.31,0,0,1,.29,1.45,4.71,4.71,0,0,1-.31,1.8,2.62,2.62,0,0,1-1.06,1.23,4.59,4.59,0,0,1-1.63.64,14.82,14.82,0,0,1-2.37.15h-7.3Zm14.28,16a4,4,0,0,1-1.31,1.42,5.49,5.49,0,0,1-2.17.79,22.45,22.45,0,0,1-3.4.21h-7.4v-8.85h8.18a25,25,0,0,1,2.66.12A5.37,5.37,0,0,1,154,147a3.53,3.53,0,0,1,1.57,1.44,5.2,5.2,0,0,1,.43,2.28A4.45,4.45,0,0,1,155.59,152.81Z"/><path d="M178.17,142.18a4.59,4.59,0,0,0-3.79,1.69,10.38,10.38,0,0,0,0,10.24,5,5,0,0,0,7.55,0,8.06,8.06,0,0,0,1.37-5.1,8.15,8.15,0,0,0-1.36-5.15A4.59,4.59,0,0,0,178.17,142.18Z" style="fill:#ff6d45"/><path d="M178.17,139.6a7.59,7.59,0,0,0-6,2.53,11.74,11.74,0,0,0,0,13.77,8.38,8.38,0,0,0,12,0,11.74,11.74,0,0,0,0-13.77A7.59,7.59,0,0,0,178.17,139.6Zm3.76,14.52a5,5,0,0,1-7.55,0,10.38,10.38,0,0,1,0-10.24,5.07,5.07,0,0,1,7.56,0A8.15,8.15,0,0,1,183.3,149,8.06,8.06,0,0,1,181.93,154.12Z"/><path d="M269.51,149.28a4.78,4.78,0,0,0-2.1,1.14,3.31,3.31,0,0,0,.13,4.44,4.39,4.39,0,0,0,2.83.77,6.71,6.71,0,0,0,2.89-.61,13.59,13.59,0,0,0,2.43-1.48v-5l-3.24.24A16.12,16.12,0,0,0,269.51,149.28Z" style="fill:#a7ff73"/><path d="M276.61,141a6.35,6.35,0,0,0-2.42-1.06,15,15,0,0,0-3.28-.31,19.37,19.37,0,0,0-3.27.29c-1.11.19-2,.37-2.54.53v3.05h.16a19.94,19.94,0,0,1,3-.91,13.25,13.25,0,0,1,2.64-.31,12.34,12.34,0,0,1,1.86.13,4.5,4.5,0,0,1,1.54.49,2.63,2.63,0,0,1,1,1.06,3.55,3.55,0,0,1,.36,1.69v.47c-1.75.08-3.38.21-4.91.38a13.4,13.4,0,0,0-3.91,1,5.88,5.88,0,0,0-2.48,2,5.68,5.68,0,0,0-.87,3.29,5.39,5.39,0,0,0,1.67,4.07,5.75,5.75,0,0,0,4.09,1.6,9.6,9.6,0,0,0,2.29-.25,8.84,8.84,0,0,0,1.72-.62,7.62,7.62,0,0,0,1.32-.77l1.08-.76v1.9h3v-12.1a7.1,7.1,0,0,0-.52-2.9A4.77,4.77,0,0,0,276.61,141Zm-.92,12.51a13.59,13.59,0,0,1-2.43,1.48,6.71,6.71,0,0,1-2.89.61,4.39,4.39,0,0,1-2.83-.77,3.31,3.31,0,0,1-.13-4.44,4.78,4.78,0,0,1,2.1-1.14,16.12,16.12,0,0,1,2.94-.47l3.24-.24Z"/><path d="M159.35,183.62a30.73,30.73,0,0,1-4.26,1.55,15.88,15.88,0,0,1-4.46.67,16.15,16.15,0,0,1-5.1-.77,10.44,10.44,0,0,1-3.94-2.3,10.16,10.16,0,0,1-2.54-3.87,15,15,0,0,1-.9-5.44q0-5.7,3.33-9t9.15-3.3a18.12,18.12,0,0,1,4.14.49,22.64,22.64,0,0,1,4.58,1.65v3.76h0c-.33-.26-1.12-.6-1.75-1a12.83,12.83,0,0,0-1.85-1,13.67,13.67,0,0,0-5.67-1.15,8.12,8.12,0,0,0-6.31,2.56,11.66,11.66,0,0,0,.1,14.12,8.67,8.67,0,0,0,6.61,2.57,15.13,15.13,0,0,0,3.06-.31,14,14,0,0,0,2.68-.78v-5.83h-6.38v-2.78h9.51Z"/><path d="M212.15,185.37h-3V175.22c0-.77,0-1.51-.11-2.22a4.52,4.52,0,0,0-.44-1.71,2.35,2.35,0,0,0-1-1,4.53,4.53,0,0,0-2-.35,5.66,5.66,0,0,0-2.53.63,16,16,0,0,0-2.52,1.6c0,.25.06.53.08.86s0,.65,0,1v11.41h-3V175.22c0-.79,0-1.54-.1-2.25a4.83,4.83,0,0,0-.44-1.7,2.4,2.4,0,0,0-1.06-1,4.55,4.55,0,0,0-2-.34,5.52,5.52,0,0,0-2.47.61,15.08,15.08,0,0,0-2.46,1.54v13.32h-3V167.53h3v2a13.14,13.14,0,0,1,2.8-1.83,7,7,0,0,1,3-.65,5.9,5.9,0,0,1,3.09.77,4.68,4.68,0,0,1,1.89,2.12,15,15,0,0,1,3.32-2.21,7.74,7.74,0,0,1,3.21-.68,5.17,5.17,0,0,1,4.34,1.78,7.91,7.91,0,0,1,1.4,5Z"/><path d="M232.86,176.77H219.72a7.58,7.58,0,0,0,.49,2.86,5.3,5.3,0,0,0,3.33,3.16,8,8,0,0,0,2.52.38,9.83,9.83,0,0,0,3.66-.73,8.88,8.88,0,0,0,2.63-1.43h.16v3.28a25.78,25.78,0,0,1-3.1,1.07,12.43,12.43,0,0,1-3.32.43,9.57,9.57,0,0,1-6.93-2.4,9.07,9.07,0,0,1-2.49-6.83,9.78,9.78,0,0,1,2.39-6.95,8.17,8.17,0,0,1,6.28-2.57,7.22,7.22,0,0,1,5.57,2.11,8.49,8.49,0,0,1,2,6Zm-2.92-2.3a5.31,5.31,0,0,0-1.19-3.66,4.58,4.58,0,0,0-3.57-1.29,5.19,5.19,0,0,0-3.84,1.42,5.52,5.52,0,0,0-1.62,3.53Z"/><path d="M170.43,176.72a4.74,4.74,0,0,0-2.09,1.14,3.29,3.29,0,0,0,.13,4.44,4.3,4.3,0,0,0,2.82.77,6.68,6.68,0,0,0,2.89-.61,12.42,12.42,0,0,0,2.43-1.48v-5c-.91,0-2,.13-3.23.23A17.18,17.18,0,0,0,170.43,176.72Z" style="fill:#2ea9ff"/><path d="M177.54,168.48a6.43,6.43,0,0,0-2.42-1.07,15.75,15.75,0,0,0-3.28-.31,19.4,19.4,0,0,0-3.28.29c-1.11.19-1.95.37-2.54.53V171h.16a19.09,19.09,0,0,1,3-.9,12.61,12.61,0,0,1,2.64-.32,14.08,14.08,0,0,1,1.87.13,4.24,4.24,0,0,1,1.53.5,2.54,2.54,0,0,1,1,1.05,3.55,3.55,0,0,1,.36,1.69v.47c-1.74.08-3.38.21-4.9.38a13.31,13.31,0,0,0-3.91,1,5.7,5.7,0,0,0-2.49,2,5.63,5.63,0,0,0-.87,3.28,5.36,5.36,0,0,0,1.68,4.07,5.69,5.69,0,0,0,4.09,1.6,9.09,9.09,0,0,0,2.28-.25,9,9,0,0,0,1.73-.61,7.39,7.39,0,0,0,1.31-.78l1.08-.76v1.9h3v-12.1a7,7,0,0,0-.53-2.89A4.68,4.68,0,0,0,177.54,168.48Zm-.93,12.5a12.42,12.42,0,0,1-2.43,1.48,6.68,6.68,0,0,1-2.89.61,4.3,4.3,0,0,1-2.82-.77,3.29,3.29,0,0,1-.13-4.44,4.74,4.74,0,0,1,2.09-1.14,17.18,17.18,0,0,1,2.95-.47c1.24-.1,2.32-.18,3.23-.23Z"/><path d="M250.08,164.55h-3.39v-3.12h3.39Zm-.19,20.82h-3V167.53h3Z"/><path d="M272.19,185.37h-3V175.22a16.87,16.87,0,0,0-.14-2.31,4.26,4.26,0,0,0-.53-1.69,2.38,2.38,0,0,0-1.15-1,4.89,4.89,0,0,0-1.95-.33,6.17,6.17,0,0,0-2.57.61,13.36,13.36,0,0,0-2.57,1.54v13.32h-3V167.53h3v2a12.37,12.37,0,0,1,2.91-1.83,7.74,7.74,0,0,1,3.08-.65,5.53,5.53,0,0,1,4.41,1.74,7.42,7.42,0,0,1,1.52,5Z"/><path d="M289,163.43h-.16c-.33-.1-.76-.19-1.3-.3a7.7,7.7,0,0,0-1.4-.15,3.88,3.88,0,0,0-2.8.86,4.24,4.24,0,0,0-.87,3.09v.6h5.41v2.53H282.6v15.31h-3V170.06h-2v-2.53h2v-.59a7,7,0,0,1,1.58-4.88,6,6,0,0,1,4.57-1.7,16.3,16.3,0,0,1,1.81.1c.54.06,1,.14,1.48.22Z"/><path d="M299.39,169.63a4.6,4.6,0,0,0-3.8,1.68,10.35,10.35,0,0,0,0,10.24,5,5,0,0,0,7.55,0,10.39,10.39,0,0,0,0-10.26A4.58,4.58,0,0,0,299.39,169.63Z" style="fill:#ff6d45"/><path d="M299.39,167a7.61,7.61,0,0,0-6,2.53,11.8,11.8,0,0,0,0,13.78,8.41,8.41,0,0,0,12,0,11.76,11.76,0,0,0,0-13.78A7.59,7.59,0,0,0,299.39,167Zm3.76,14.53a5,5,0,0,1-7.55,0,10.35,10.35,0,0,1,0-10.24,5.1,5.1,0,0,1,7.57,0,10.39,10.39,0,0,1,0,10.26Z"/></svg>