<svg id="レイヤー_1" data-name="レイヤー 1" xmlns="http://www.w3.org/2000/svg" xmlns:xlink="http://www.w3.org/1999/xlink" viewBox="0 0 355.84 361.25"><defs><linearGradient id="ブルー" x1="67.74" y1="155.11" x2="156.58" y2="155.11" gradientTransform="translate(-2.04) scale(1.01 1)" gradientUnits="userSpaceOnUse"><stop offset="0" stop-color="#44b3e0"/><stop offset="0.5" stop-color="#2096d5"/><stop offset="1" stop-color="#1384c7"/></linearGradient><radialGradient id="シアン_円形_" cx="189.9" cy="31.69" r="38.95" gradientTransform="matrix(0.94, -0.54, 0.52, 0.91, -84.32, 230.13)" gradientUnits="userSpaceOnUse"><stop offset="0" stop-color="#fff"/><stop offset="0.09" stop-color="#d7ecf6"/><stop offset="0.21" stop-color="#a7d5ec"/><stop offset="0.34" stop-color="#7cc2e3"/><stop offset="0.46" stop-color="#5ab2db"/><stop offset="0.59" stop-color="#3fa5d5"/><stop offset="0.72" stop-color="#2c9cd1"/><stop offset="0.86" stop-color="#2197cf"/><stop offset="1" stop-color="#1d95ce"/></radialGradient><radialGradient id="シアン_円形_2" cx="108.77" cy="144.9" r="36.18" gradientTransform="translate(2.6 1.47) scale(0.99 0.99)" xlink:href="#シアン_円形_"/><radialGradient id="シアン_円形_3" cx="1035.84" cy="182.96" r="36.18" gradientTransform="translate(1129.68 349.01) rotate(180) scale(0.98 1)" xlink:href="#シアン_円形_"/></defs><title>blocckchainmedia</title><rect x="33.16" y="31.3" width="294.95" height="294.95" style="fill:#fff"/><polygon points="133.21 116.46 88.5 116.46 66.14 155.11 88.5 193.75 133.21 193.75 155.57 155.11 133.21 116.46" style="opacity:0.7000000000000001;fill:url(#ブルー)"/><polygon points="110.75 111.3 72.24 133.53 72.25 178.01 110.77 200.25 149.27 178.02 149.26 133.55 110.75 111.3" style="opacity:0.47000000000000003;fill:url(#シアン_円形_)"/><polygon points="110.78 111.77 72.29 178.07 149.26 178.07 110.78 111.77" style="opacity:0.47000000000000003;fill:url(#シアン_円形_2)"/><polygon points="110.73 200.27 148.79 133.62 72.66 133.62 110.73 200.27" style="opacity:0.47000000000000003;fill:url(#シアン_円形_3)"/><path d="M149.81,178.3h-78l.27-.45,38.75-67Zm-77-.6h76l-38-65.62Z" style="fill:#fff"/><path d="M110.79,200.56,72.2,133.23h77.19ZM73.24,133.84l37.55,65.51,37.56-65.51Z" style="fill:#fff"/><path d="M133.21,193.94H88.37l0-.06L66,155.14l0,0,22.38-38.74h44.84l0,.06,22.39,38.73,0,.06Zm-44.71-.23h44.58l22.29-38.57-22.29-38.57H88.5L66.22,155.14Z" style="fill:#fff"/><path d="M110.79,185.89l-.05,0L85.9,171.53V142.81l.06,0,24.83-14.33.06,0,24.84,14.32v28.72l-.06,0ZM86.13,171.4l24.66,14.23,24.67-14.23V142.94l-24.67-14.23L86.13,142.94Z" style="fill:#fff"/><rect x="96.53" y="171.31" width="28.66" height="0.23" transform="translate(-60.8 281.91) rotate(-89.88)" style="fill:#fff"/><rect x="98.36" y="135.67" width="0.23" height="28.64" transform="translate(-80.61 160.99) rotate(-60.23)" style="fill:#fff"/><rect x="108.86" y="150.02" width="28.5" height="0.23" transform="translate(-58.51 81.5) rotate(-29.95)" style="fill:#fff"/><path d="M170,144.3a3.61,3.61,0,0,1,1.06.52,2.9,2.9,0,0,1,.81.86,4,4,0,0,1,.52,1.23,6.66,6.66,0,0,1,.18,1.63v.93c0,3-1.5,4.49-4.5,4.49H158V135.44h9.61q4.5,0,4.5,4.51v.33a5.72,5.72,0,0,1-.5,2.56A3.13,3.13,0,0,1,170,144.3ZM160.57,138v5.27h7.12a1.81,1.81,0,0,0,1.37-.53,2.23,2.23,0,0,0,.42-1.49v-1.21a2.18,2.18,0,0,0-.46-1.55,2,2,0,0,0-1.51-.49Zm0,7.85v5.48H168a2,2,0,0,0,1.51-.49,2.18,2.18,0,0,0,.46-1.54v-1.43a2.15,2.15,0,0,0-.46-1.54,2,2,0,0,0-1.51-.48Z" style="fill:#231815"/><path d="M178.85,134.91V154h-2.53V134.91Z" style="fill:#231815"/><path d="M195,151.42a2.54,2.54,0,0,1-.2,1,2.5,2.5,0,0,1-.54.81,2.57,2.57,0,0,1-.8.54,2.37,2.37,0,0,1-1,.2h-6.83a2.32,2.32,0,0,1-1-.2,2.48,2.48,0,0,1-1.35-1.35,2.37,2.37,0,0,1-.2-1v-8.67a2.37,2.37,0,0,1,.2-1,2.48,2.48,0,0,1,1.35-1.35,2.32,2.32,0,0,1,1-.2h6.83a2.37,2.37,0,0,1,1,.2,2.57,2.57,0,0,1,.8.54,2.5,2.5,0,0,1,.54.81,2.54,2.54,0,0,1,.2,1Zm-9.36-8.67v8.67h6.83v-8.67Z" style="fill:#231815"/><path d="M201.75,142.75v8.67h6.56v-2.33h2.55v2.33a2.54,2.54,0,0,1-.2,1,2.7,2.7,0,0,1-.55.81,2.36,2.36,0,0,1-.8.54,2.38,2.38,0,0,1-1,.2h-6.56a2.36,2.36,0,0,1-1-.2,2.48,2.48,0,0,1-1.35-1.35,2.54,2.54,0,0,1-.2-1v-8.67a2.54,2.54,0,0,1,.2-1,2.48,2.48,0,0,1,1.35-1.35,2.36,2.36,0,0,1,1-.2h6.56a2.38,2.38,0,0,1,1,.2,2.36,2.36,0,0,1,.8.54,2.7,2.7,0,0,1,.55.81,2.54,2.54,0,0,1,.2,1v2.33h-2.55v-2.33Z" style="fill:#231815"/><path d="M224.19,154l-6.56-5.87V154h-2.54V134.91h2.54v10.72l6-5.42h3.58l-7.39,6.64,7.92,7.11Z" style="fill:#231815"/><path d="M232.14,142.75v8.67h6.57v-2.33h2.54v2.33a2.54,2.54,0,0,1-.2,1,2.48,2.48,0,0,1-1.35,1.35,2.37,2.37,0,0,1-1,.2h-6.57a2.52,2.52,0,0,1-1.78-.74,2.7,2.7,0,0,1-.55-.81,2.54,2.54,0,0,1-.2-1v-8.67a2.54,2.54,0,0,1,.2-1,2.7,2.7,0,0,1,.55-.81,2.52,2.52,0,0,1,1.78-.74h6.57a2.37,2.37,0,0,1,1,.2,2.48,2.48,0,0,1,1.35,1.35,2.54,2.54,0,0,1,.2,1v2.33h-2.54v-2.33Z" style="fill:#231815"/><path d="M257.66,154h-2.55V142.75H248V154h-2.53V134.91H248v7.73a2.7,2.7,0,0,1,.23-.95,2.5,2.5,0,0,1,2.31-1.48h4.55a2.38,2.38,0,0,1,1,.2,2.36,2.36,0,0,1,.8.54,2.7,2.7,0,0,1,.55.81,2.54,2.54,0,0,1,.2,1Z" style="fill:#231815"/><path d="M261.89,148a2.5,2.5,0,0,1,.2-1,2.7,2.7,0,0,1,.55-.81,2.47,2.47,0,0,1,1.79-.75H271v-2.66h-8.31v-2.54H271a2.37,2.37,0,0,1,1,.2,2.48,2.48,0,0,1,1.35,1.35,2.37,2.37,0,0,1,.2,1V154H271v-2.32a2.34,2.34,0,0,1-.26.9,2.83,2.83,0,0,1-.56.75,2.64,2.64,0,0,1-.78.49,2.48,2.48,0,0,1-.93.18h-4a2.52,2.52,0,0,1-1.79-.74,2.7,2.7,0,0,1-.55-.81,2.54,2.54,0,0,1-.2-1Zm2.54,3.46H271V148h-6.56Z" style="fill:#231815"/><path d="M277.77,134.91h2.8v2.65h-2.8Zm2.67,5.3V154H277.9V140.21Z" style="fill:#231815"/><path d="M297,154h-2.55V142.75h-7.09V154h-2.53V140.21h2.53v2.43a2.7,2.7,0,0,1,.23-.95,2.56,2.56,0,0,1,.55-.78,2.69,2.69,0,0,1,.8-.52,2.58,2.58,0,0,1,1-.18h4.54a2.38,2.38,0,0,1,1,.2,2.36,2.36,0,0,1,.8.54,2.7,2.7,0,0,1,.55.81,2.54,2.54,0,0,1,.2,1Z" style="fill:#231815"/><path d="M199.35,174.81l-6.91-13.58v13.58H189.8V156.28h2.89l7.05,13.95,7.07-13.95h2.88v18.53h-2.64V161.23l-6.91,13.58Z" style="fill:#231815"/><path d="M225.84,169.23h-9.11v3h9.11v2.55h-9.11a2.49,2.49,0,0,1-1-.2,2.7,2.7,0,0,1-.81-.55,2.36,2.36,0,0,1-.54-.8,2.38,2.38,0,0,1-.2-1v-8.67a2.37,2.37,0,0,1,.2-1,2.54,2.54,0,0,1,2.33-1.55h6.56a2.59,2.59,0,0,1,1,.2,2.46,2.46,0,0,1,.8.54,2.7,2.7,0,0,1,.55.81,2.54,2.54,0,0,1,.2,1Zm-9.11-5.64v3.09h6.56v-3.09Z" style="fill:#231815"/><path d="M230.07,163.59a2.54,2.54,0,0,1,.2-1,2.87,2.87,0,0,1,.54-.81,2.5,2.5,0,0,1,.81-.54,2.53,2.53,0,0,1,1-.2h7.1v-5.3h2.54v19.06H239.7v-2.33a2.64,2.64,0,0,1-.26.91,3,3,0,0,1-.56.74,2.59,2.59,0,0,1-.79.5,2.41,2.41,0,0,1-.93.18H232.6a2.53,2.53,0,0,1-1-.2,2.57,2.57,0,0,1-1.35-1.35,2.55,2.55,0,0,1-.2-1Zm2.53,8.67h7.1v-8.67h-7.1Z" style="fill:#231815"/><path d="M246.48,155.75h2.8v2.65h-2.8Zm2.67,5.3v13.76h-2.54V161.05Z" style="fill:#231815"/><path d="M253.52,168.8a2.37,2.37,0,0,1,.2-1,2.73,2.73,0,0,1,.54-.81,2.5,2.5,0,0,1,.81-.54,2.32,2.32,0,0,1,1-.2h6.56v-2.67H254.3v-2.54h8.31a2.59,2.59,0,0,1,1,.2,2.46,2.46,0,0,1,.8.54,2.7,2.7,0,0,1,.55.81,2.54,2.54,0,0,1,.2,1v11.22h-2.55v-2.33a2.44,2.44,0,0,1-.26.91,2.54,2.54,0,0,1-.56.74,2.67,2.67,0,0,1-.78.5,2.41,2.41,0,0,1-.93.18h-4a2.49,2.49,0,0,1-1-.2,2.7,2.7,0,0,1-.81-.55,2.36,2.36,0,0,1-.54-.8,2.38,2.38,0,0,1-.2-1Zm2.53,3.46h6.56V168.8h-6.56Z" style="fill:#231815"/><rect x="33.16" y="270.21" width="294.95" height="56.04" style="fill:#80a0b0"/><path d="M75.44,290.85c4.23,0,5.86,1.58,5.86,4.33,0,2.08-1.48,3.54-3.83,3.87v.2c2.8.36,4.38,1.93,4.38,4.3,0,3.09-2.25,4.93-6.08,4.93H69.6V290.85Zm-3.81,7.51h3.18c2.88,0,4.38-1.17,4.38-3s-1-2.8-4-2.8H71.63Zm0,8.45h3.88c2.87,0,4.19-1.2,4.19-3.35S78.05,300,75,300H71.63Z" style="fill:#fff"/><path d="M87.47,308.48H85.53V290.54h1.94Z" style="fill:#fff"/><path d="M101.61,302.36c0,3.95-2.15,6.43-5.26,6.43s-5.25-2.44-5.25-6.36S93.26,296,96.37,296,101.61,298.41,101.61,302.36Zm-8.52,0c0,3.16,1.22,4.91,3.26,4.91s3.27-1.73,3.27-4.91-1.22-4.88-3.25-4.88S93.09,299.25,93.09,302.38Z" style="fill:#fff"/><path d="M112.49,300.11c-.36-1.77-1.36-2.61-2.72-2.61-2,0-3.31,1.72-3.31,4.86s1.27,4.9,3.31,4.9c1.6,0,2.51-.88,2.87-2.68l1.84.58a4.58,4.58,0,0,1-4.74,3.61c-3.23,0-5.26-2.39-5.26-6.36s2.1-6.44,5.26-6.44a4.51,4.51,0,0,1,4.67,3.64Z" style="fill:#fff"/><path d="M123,300.9l4.5,7.58h-2.2l-3.61-6.29-2.16,2.3v4h-1.91V290.54h1.91v11.82l5.39-6.1h2.27Z" style="fill:#fff"/><path d="M137.61,300.11c-.36-1.77-1.36-2.61-2.72-2.61-2,0-3.31,1.72-3.31,4.86s1.27,4.9,3.31,4.9c1.6,0,2.51-.88,2.87-2.68l1.84.58a4.58,4.58,0,0,1-4.74,3.61c-3.23,0-5.26-2.39-5.26-6.36s2.1-6.44,5.26-6.44a4.51,4.51,0,0,1,4.67,3.64Z" style="fill:#fff"/><path d="M144.72,298.43a5.57,5.57,0,0,1,4.21-2.46,3.24,3.24,0,0,1,3.4,3.52v9h-2v-8.3c0-1.75-.74-2.49-2.06-2.49-1.15,0-2.46.89-3.56,2.42v8.37h-1.94V290.54h1.94Z" style="fill:#fff"/><path d="M156.32,299.17c.67-2.12,2.42-3.2,4.86-3.2,2.94,0,4.42,1.29,4.42,4.07v4.47a30.2,30.2,0,0,0,.24,4h-1.77a14.4,14.4,0,0,1-.26-1.93,4.9,4.9,0,0,1-4.19,2.22,3.41,3.41,0,0,1-3.76-3.57c0-2.08,1.2-3.51,4-4a33.75,33.75,0,0,1,3.83-.38v-.64c0-2-.74-2.73-2.58-2.73a2.9,2.9,0,0,0-3,2.32Zm7.39,3a18.21,18.21,0,0,0-3.39.39c-1.8.38-2.56,1.22-2.56,2.58a2.09,2.09,0,0,0,2.34,2.2,4.33,4.33,0,0,0,3.61-2.42Z" style="fill:#fff"/><path d="M172.08,293.91h-2.39v-2.37h2.39Zm-.21,14.57h-2V296.26h2Z" style="fill:#fff"/><path d="M178.14,298.48a5.65,5.65,0,0,1,4.28-2.49,3.21,3.21,0,0,1,3.4,3.5v9h-2v-8.3c0-1.75-.74-2.49-2.06-2.49-1.14,0-2.46.86-3.56,2.42v8.37h-1.94V296.26h1.87Z" style="fill:#fff"/><path d="M214.24,308.48h-2V298.12c0-2,0-3.66,0-5.57h-.4c-.51,1.86-.94,3.44-1.56,5.43L207,308.48h-2.65L201.11,298c-.6-1.89-1-3.52-1.61-5.45h-.4c0,1.91,0,3.59,0,5.6v10.33h-1.86V290.85h3.49l3.16,10.38c.52,1.75,1,3.57,1.6,5.39h.41c.62-1.85,1.07-3.47,1.65-5.34l3.21-10.43h3.44Z" style="fill:#fff"/><path d="M220.07,302.64c0,3,1.42,4.67,3.59,4.67a2.92,2.92,0,0,0,3.11-2.49l1.8.6a4.73,4.73,0,0,1-4.93,3.35c-3.3,0-5.46-2.39-5.46-6.36s2.25-6.44,5.29-6.44,5.17,2.32,5.17,6.24v.43Zm6.68-1.38c-.19-2.47-1.39-3.81-3.25-3.81s-3.21,1.49-3.38,3.81Z" style="fill:#fff"/><path d="M241.68,308.48h-1.89v-1.79a4,4,0,0,1-3.57,2.1c-2.68,0-4.76-2.39-4.76-6.43s2.06-6.39,4.72-6.39a4.18,4.18,0,0,1,3.56,2.08v-7.51h1.94Zm-1.94-8.54c-.79-1.6-1.89-2.34-3.11-2.34-1.79,0-3.18,1.6-3.18,4.78s1.46,4.81,3.28,4.81c1.19,0,2.2-.74,3-2.27Z" style="fill:#fff"/><path d="M248.21,293.91h-2.4v-2.37h2.4ZM248,308.48h-2V296.26h2Z" style="fill:#fff"/><path d="M252.06,299.17c.67-2.12,2.42-3.2,4.86-3.2,2.94,0,4.42,1.29,4.42,4.07v4.47a30.2,30.2,0,0,0,.24,4h-1.77a14.4,14.4,0,0,1-.26-1.93,4.9,4.9,0,0,1-4.19,2.22,3.41,3.41,0,0,1-3.76-3.57c0-2.08,1.2-3.51,4-4a33.51,33.51,0,0,1,3.83-.38v-.64c0-2-.74-2.73-2.58-2.73a2.9,2.9,0,0,0-3,2.32Zm7.39,3a18.21,18.21,0,0,0-3.39.39c-1.8.38-2.56,1.22-2.56,2.58a2.09,2.09,0,0,0,2.34,2.2,4.33,4.33,0,0,0,3.61-2.42Z" style="fill:#fff"/><path d="M278.71,295.11c0,.17,0,.19-.19.19s-.6-.05-2.15-.05h-.15a15.52,15.52,0,0,0,2.47,5.19,3.27,3.27,0,0,0-.6.91c-.07.17-.15.27-.22.27s-.12-.1-.21-.27a21.18,21.18,0,0,1-1.65-4.57c0,7.28.24,13.31.24,13.67,0,.14,0,.16-.17.16h-1.15c-.17,0-.19,0-.19-.16,0-.36.19-6.35.24-13.33a26,26,0,0,1-2.8,7.58c-.1.17-.17.27-.24.27s-.14-.08-.19-.24a2.39,2.39,0,0,0-.63-.94,25.6,25.6,0,0,0,3.52-8.54h-.52c-1.61,0-2.06.05-2.18.05s-.19,0-.19-.19v-.94c0-.19,0-.21.19-.21s.57.05,2.18.05h.71V292a12.36,12.36,0,0,0-.19-2.85,11.47,11.47,0,0,1,1.51.15c.19,0,.29.09.29.21a.83.83,0,0,1-.15.43,7.39,7.39,0,0,0-.12,2V294h.2c1.55,0,2-.05,2.15-.05s.19,0,.19.21Zm7.32,5.31a16.52,16.52,0,0,0,2,3.47,16.36,16.36,0,0,0,1.91-1.8,2.78,2.78,0,0,0,.57-.83,7.1,7.1,0,0,1,1,.76.43.43,0,0,1,.19.31c0,.12-.07.22-.24.27a1.62,1.62,0,0,0-.72.5,22.41,22.41,0,0,1-1.94,1.7,17.06,17.06,0,0,0,4.48,3.32,3.19,3.19,0,0,0-.77.82c-.12.21-.19.28-.29.28a.65.65,0,0,1-.33-.16,15.29,15.29,0,0,1-6.17-7c0,2.52.09,4.86.09,6.25,0,.91-.14,1.36-.62,1.7s-.91.38-2.42.4c-.48,0-.52,0-.62-.48a3,3,0,0,0-.43-1,12.19,12.19,0,0,0,1.58.1c1,0,1.12-.17,1.12-.94V305.3c-1.58,1-3.25,2-4.74,2.78a3.51,3.51,0,0,0-.86.52.37.37,0,0,1-.26.19q-.1,0-.21-.21c-.2-.34-.41-.79-.63-1.27a7.3,7.3,0,0,0,1.39-.5,43.45,43.45,0,0,0,5.31-2.9v-3.49h-2.22c-2.37,0-3.18.05-3.3.05s-.17,0-.17-.19v-.94c0-.17,0-.19.17-.19s.93.05,3.3.05h2.22v-2.15h-1.36c-2.18,0-2.9,0-3,0s-.19,0-.19-.19V296c0-.17,0-.19.19-.19s.84,0,3,0h1.36v-2.05h-1.69c-2.3,0-3.07,0-3.21,0s-.19,0-.19-.16v-.94c0-.17,0-.19.19-.19s.91.05,3.21.05h3.56a24,24,0,0,0,1.29-2.44,4.1,4.1,0,0,0,.31-1,10.79,10.79,0,0,1,1.25.36c.17.05.28.15.28.26s-.11.22-.23.32a1.07,1.07,0,0,0-.34.45c-.29.58-.77,1.39-1.2,2.06h.79c2.28,0,3-.05,3.16-.05s.22,0,.22.19v.94c0,.14,0,.16-.22.16s-.88,0-3.16,0h-2.68v2.05h2c2.18,0,2.87,0,3,0s.19,0,.19.19v.88c0,.17,0,.19-.19.19s-.81,0-3,0h-2v2.15h3.33c2.37,0,3.16-.05,3.3-.05s.19,0,.19.19v.94c0,.16,0,.19-.19.19s-.93-.05-3.3-.05Zm-6.15.88c.22-.19.27-.21.39-.09a11.8,11.8,0,0,1,2.1,2.13c.12.12.12.17-.07.36l-.5.48c-.27.26-.31.24-.41.09a10.84,10.84,0,0,0-2-2.22c-.14-.12-.12-.15.1-.36Zm1.94-11.91c.22-.1.26-.1.38.05a10.66,10.66,0,0,1,1.42,2.08c0,.12,0,.17-.15.29l-.69.38c-.29.16-.34.16-.41,0A8,8,0,0,0,281,290c-.12-.12-.12-.17.17-.31Z" style="fill:#fff"/></svg>