<svg id="レイヤー_1" data-name="レイヤー 1" xmlns="http://www.w3.org/2000/svg" xmlns:xlink="http://www.w3.org/1999/xlink" viewBox="0 0 355.84 361.25"><defs><linearGradient id="名称未設定グラデーション_175" x1="111.02" y1="147.96" x2="261.65" y2="147.96" gradientUnits="userSpaceOnUse"><stop offset="0" stop-color="#bc276a"/><stop offset="1" stop-color="#743a8a"/></linearGradient><linearGradient id="名称未設定グラデーション_175-2" x1="111.02" y1="147.96" x2="261.64" y2="147.96" xlink:href="#名称未設定グラデーション_175"/></defs><title>coinchoice</title><rect x="33.88" y="35.7" width="294.95" height="294.95" style="fill:#fff"/><path d="M212.72,148a50.55,50.55,0,0,0-6.23-24.37,24.79,24.79,0,0,0-17.42,12.6,29.64,29.64,0,1,1-27.2-17.88c.57,0,1.13,0,1.7.08A56.26,56.26,0,0,1,181,100.86a50.85,50.85,0,1,0-19.15,98h0A50.91,50.91,0,0,0,212.72,148Z" style="fill:url(#名称未設定グラデーション_175)"/><path d="M261.64,148h0a50.85,50.85,0,1,0-95.47,24.37,24.85,24.85,0,0,0,17.45-12.54,29.64,29.64,0,1,1,27.17,17.83c-.57,0-1.13-.06-1.7-.09a56,56,0,0,1-17.45,17.53,50.44,50.44,0,0,0,19.15,3.76h0A50.9,50.9,0,0,0,261.64,148Z" style="fill:url(#名称未設定グラデーション_175-2)"/><polygon points="196.93 226.53 196.94 226.53 196.93 226.53 196.93 226.53" style="fill:#c298ba"/><polygon points="196.93 226.53 196.94 226.53 196.93 226.53 196.93 226.53" style="fill:#c298ba"/><path d="M147.18,231.42a5.73,5.73,0,1,1,5.74-5.73A5.74,5.74,0,0,1,147.18,231.42Zm0-8.84a3.12,3.12,0,1,0,3.12,3.11A3.11,3.11,0,0,0,147.18,222.58Z" style="fill:#717071"/><path d="M212.61,231.42a5.73,5.73,0,1,1,5.73-5.73A5.74,5.74,0,0,1,212.61,231.42Zm0-8.84a3.12,3.12,0,1,0,3.11,3.11A3.12,3.12,0,0,0,212.61,222.58Z" style="fill:#717071"/><path d="M132.28,231.42A8.07,8.07,0,1,1,139.64,220l-2.59,1.19a5.22,5.22,0,1,0,0,4.33l2.59,1.19A8.11,8.11,0,0,1,132.28,231.42Z" style="fill:#717071"/><path d="M187,231.42A8.07,8.07,0,1,1,194.36,220l-2.59,1.19a5.22,5.22,0,1,0,0,4.33l2.59,1.19A8.11,8.11,0,0,1,187,231.42Z" style="fill:#717071"/><path d="M230.56,231.47a5.74,5.74,0,1,1,5.23-8.12l-2.38,1.09a3.13,3.13,0,0,0-6,1.3,3.12,3.12,0,0,0,3.13,3.11,3.16,3.16,0,0,0,2.85-1.82l2.38,1.09A5.79,5.79,0,0,1,230.56,231.47Z" style="fill:#717071"/><path d="M242.69,231.47a5.74,5.74,0,1,1,5.23-8.12l.55,1.2-7.86,3.51a3.14,3.14,0,0,0,4.93-1l2.38,1.09A5.76,5.76,0,0,1,242.69,231.47Zm0-8.85a3.13,3.13,0,0,0-3.13,3l5.16-2.3A3.15,3.15,0,0,0,242.69,222.62Z" style="fill:#717071"/><path d="M157.91,218.14a1.69,1.69,0,1,1-1.69-1.69A1.69,1.69,0,0,1,157.91,218.14Z" style="fill:#717071"/><rect x="154.91" y="220.86" width="2.62" height="10.47" style="fill:#717071"/><path d="M223.34,218.14a1.69,1.69,0,1,1-1.69-1.69A1.69,1.69,0,0,1,223.34,218.14Z" style="fill:#717071"/><rect x="220.34" y="220.86" width="2.62" height="10.47" style="fill:#717071"/><path d="M169.19,231.33h-2.61V225.2c0-.83-.81-1.43-1.91-1.43-.89,0-1.9.76-1.9,1.43h-2.62c0-2.32,2.39-4,4.52-4,2.58,0,4.52,1.74,4.52,4Z" style="fill:#717071"/><rect x="160.15" y="220.86" width="2.62" height="10.47" style="fill:#717071"/><path d="M205.36,231.33h-2.62V225.2c0-.83-.8-1.43-1.91-1.43-.89,0-1.9.76-1.9,1.43h-2.62c0-2.32,2.39-4,4.52-4,2.58,0,4.53,1.74,4.53,4Z" style="fill:#717071"/><rect x="196.31" y="216.1" width="2.62" height="15.23" style="fill:#717071"/><rect x="33.88" y="274.61" width="294.95" height="56.04" style="fill:#80a0b0"/><path d="M112.94,300.54c-.6-2.59-2.09-3.88-4.29-3.88-3,0-5.19,2.56-5.19,7.42s2.22,7.42,5.19,7.42c2.35,0,3.85-1.18,4.48-3.95l2,.67c-1,3.49-3.25,5-6.48,5-4.24,0-7.37-3.33-7.37-9.12s3.16-9.16,7.37-9.16A6.19,6.19,0,0,1,115,300Z" style="fill:#fff"/><path d="M128.06,306.76c0,3.95-2.16,6.43-5.27,6.43s-5.24-2.44-5.24-6.36,2.15-6.44,5.26-6.44S128.06,302.81,128.06,306.76Zm-8.52,0c0,3.16,1.22,4.91,3.25,4.91s3.28-1.72,3.28-4.91-1.22-4.88-3.26-4.88S119.54,303.65,119.54,306.78Z" style="fill:#fff"/><path d="M133.87,298.31h-2.4v-2.37h2.4Zm-.22,14.57h-2V300.66h2Z" style="fill:#fff"/><path d="M139.92,302.88a5.66,5.66,0,0,1,4.28-2.49,3.21,3.21,0,0,1,3.4,3.5v9h-2v-8.3c0-1.75-.74-2.49-2.05-2.49-1.15,0-2.47.86-3.57,2.42v8.37h-1.94V300.66h1.87Z" style="fill:#fff"/><path d="M169.71,300.54c-.6-2.59-2.09-3.88-4.29-3.88-3,0-5.19,2.56-5.19,7.42s2.22,7.42,5.19,7.42c2.35,0,3.85-1.18,4.48-3.95l2,.67c-1,3.49-3.25,5-6.48,5-4.24,0-7.37-3.33-7.37-9.12s3.16-9.16,7.37-9.16a6.19,6.19,0,0,1,6.36,5.05Z" style="fill:#fff"/><path d="M177,302.83a5.61,5.61,0,0,1,4.22-2.46,3.23,3.23,0,0,1,3.39,3.52v9h-2v-8.3c0-1.75-.74-2.49-2.06-2.49-1.15,0-2.46.89-3.57,2.42v8.37h-1.93V294.94H177Z" style="fill:#fff"/><path d="M198.7,306.76c0,3.95-2.15,6.43-5.26,6.43s-5.24-2.44-5.24-6.36,2.15-6.44,5.26-6.44S198.7,302.81,198.7,306.76Zm-8.52,0c0,3.16,1.22,4.91,3.26,4.91s3.27-1.72,3.27-4.91-1.22-4.88-3.25-4.88S190.18,303.65,190.18,306.78Z" style="fill:#fff"/><path d="M204.51,298.31h-2.39v-2.37h2.39Zm-.21,14.57h-2V300.66h2Z" style="fill:#fff"/><path d="M216,304.51c-.36-1.77-1.37-2.61-2.73-2.61-2,0-3.3,1.72-3.3,4.86s1.27,4.9,3.3,4.9c1.6,0,2.51-.88,2.87-2.68l1.85.58a4.59,4.59,0,0,1-4.74,3.61c-3.23,0-5.27-2.39-5.27-6.36s2.11-6.44,5.27-6.44a4.5,4.5,0,0,1,4.66,3.64Z" style="fill:#fff"/><path d="M222.24,307c0,3,1.41,4.67,3.59,4.67a2.93,2.93,0,0,0,3.11-2.49l1.79.6a4.73,4.73,0,0,1-4.92,3.35c-3.31,0-5.46-2.39-5.46-6.36s2.25-6.44,5.29-6.44,5.17,2.32,5.17,6.24V307Zm6.67-1.38c-.19-2.47-1.38-3.81-3.25-3.81s-3.21,1.49-3.37,3.81Z" style="fill:#fff"/><path d="M247.45,299.51c0,.17,0,.19-.19.19s-.59-.05-2.15-.05H245a15.5,15.5,0,0,0,2.46,5.19,3.51,3.51,0,0,0-.6.91c-.07.17-.14.27-.21.27s-.12-.1-.22-.27a21.18,21.18,0,0,1-1.65-4.57c0,7.28.24,13.31.24,13.67,0,.14,0,.16-.17.16h-1.15c-.16,0-.19,0-.19-.16,0-.36.19-6.35.24-13.33a25.69,25.69,0,0,1-2.8,7.58c-.09.17-.16.27-.24.27s-.14-.08-.19-.24a2.27,2.27,0,0,0-.62-.94,25.72,25.72,0,0,0,3.52-8.54h-.53c-1.6,0-2.06.05-2.18.05s-.19,0-.19-.19v-.94c0-.19,0-.21.19-.21s.58.05,2.18.05h.72v-2.06a13,13,0,0,0-.19-2.85,11.48,11.48,0,0,1,1.5.15c.2,0,.29.09.29.21a.91.91,0,0,1-.14.43,7,7,0,0,0-.12,2v2.08h.19c1.56,0,2-.05,2.15-.05s.19,0,.19.21Zm7.33,5.31a16.07,16.07,0,0,0,2,3.47,15.6,15.6,0,0,0,1.91-1.8,3,3,0,0,0,.58-.83,7,7,0,0,1,1,.76.43.43,0,0,1,.19.31c0,.12-.07.22-.24.27a1.67,1.67,0,0,0-.72.5,23.67,23.67,0,0,1-1.93,1.7,17.42,17.42,0,0,0,4.47,3.33,3,3,0,0,0-.77.81c-.11.21-.19.28-.28.28a.67.67,0,0,1-.34-.16,15.29,15.29,0,0,1-6.17-7c0,2.52.09,4.86.09,6.25,0,.91-.14,1.36-.62,1.7s-.91.38-2.41.4c-.48,0-.53,0-.63-.47a2.94,2.94,0,0,0-.43-1,12.42,12.42,0,0,0,1.58.1c1,0,1.13-.17,1.13-.94V309.7c-1.58,1-3.26,2-4.74,2.78a3.12,3.12,0,0,0-.86.52.39.39,0,0,1-.26.19c-.08,0-.15-.07-.22-.21-.19-.34-.41-.79-.62-1.27a7.84,7.84,0,0,0,1.39-.5,44.2,44.2,0,0,0,5.31-2.9v-3.49H251c-2.37,0-3.18.05-3.3.05s-.17,0-.17-.19v-.94c0-.16,0-.19.17-.19s.93.05,3.3.05h2.23v-2.15h-1.37c-2.17,0-2.89,0-3,0s-.19,0-.19-.19v-.88c0-.17,0-.19.19-.19s.84,0,3,0h1.37v-2h-1.7c-2.3,0-3.06,0-3.21,0s-.19,0-.19-.16v-.94c0-.16,0-.19.19-.19s.91,0,3.21,0h3.56a24.07,24.07,0,0,0,1.3-2.44,4.57,4.57,0,0,0,.31-1,11.22,11.22,0,0,1,1.24.36c.17.05.29.15.29.27s-.12.21-.24.31a1.06,1.06,0,0,0-.33.45c-.29.58-.77,1.39-1.2,2.06h.79c2.27,0,3,0,3.16,0s.21,0,.21.19v.94c0,.14,0,.16-.21.16s-.89,0-3.16,0h-2.68v2h2c2.17,0,2.87,0,3,0s.19,0,.19.19v.88c0,.17,0,.19-.19.19s-.82,0-3,0h-2v2.15h3.32c2.37,0,3.16-.05,3.31-.05s.19,0,.19.19v.94c0,.16,0,.19-.19.19s-.94-.05-3.31-.05Zm-6.15.89c.21-.2.26-.22.38-.1a12.17,12.17,0,0,1,2.11,2.13c.12.12.12.17-.08.36l-.5.48c-.26.26-.31.24-.41.09a10.56,10.56,0,0,0-2-2.22c-.14-.12-.12-.15.1-.36Zm1.93-11.92c.22-.1.27-.1.39,0a11.06,11.06,0,0,1,1.41,2.08c0,.12,0,.17-.14.29l-.7.38c-.28.17-.33.17-.4,0a8.37,8.37,0,0,0-1.34-2.16c-.12-.12-.12-.17.16-.31Z" style="fill:#fff"/></svg>