<svg id="レイヤー_1" data-name="レイヤー 1" xmlns="http://www.w3.org/2000/svg" viewBox="0 0 355.84 361.25"><title>cryptoyimes</title><rect x="33.32" y="27.33" width="294.95" height="294.95" style="fill:#fff"/><rect x="33.32" y="266.24" width="294.95" height="56.04" style="fill:#82a4b5"/><path d="M105.31,292.17c-.6-2.59-2.08-3.88-4.28-3.88-3,0-5.2,2.56-5.2,7.42s2.23,7.42,5.2,7.42c2.34,0,3.85-1.17,4.47-3.95l2,.67c-1,3.49-3.26,5-6.49,5-4.23,0-7.37-3.32-7.37-9.12s3.16-9.16,7.37-9.16a6.19,6.19,0,0,1,6.37,5.05Z" style="fill:#fff"/><path d="M116.38,293.92c-1.5,0-3,1.19-3.75,3.59v7h-1.94V292.29h1.87v3.11c.9-2.35,2.36-3.38,4-3.38Z" style="fill:#fff"/><path d="M123.78,305.09c-1,2.75-2.35,3.76-4.53,3.76a7.48,7.48,0,0,1-1.17-.1l-.12-1.6a6.92,6.92,0,0,0,1.27.14c1.32,0,2.2-.69,2.78-2.44l.19-.57-4.24-12H120l2.16,6.94c.31,1,.55,1.94.83,3h.24c.29-1,.55-2,.86-3l2.11-6.89h2Z" style="fill:#fff"/><path d="M133,294.2a4.32,4.32,0,0,1,3.61-2.18c2.71,0,4.72,2.28,4.72,6.35s-2.16,6.43-4.84,6.43a3.66,3.66,0,0,1-3.42-2.13v6.18h-1.94V292.29H133Zm.07,6.75c.82,1.56,1.8,2.27,3,2.27,1.82,0,3.25-1.62,3.25-4.81s-1.34-4.81-3.11-4.81c-1.22,0-2.34.75-3.16,2.35Z" style="fill:#fff"/><path d="M147.46,292.29h2.92v1.51h-2.92v7.53c0,1.37.6,2,1.7,2a6.76,6.76,0,0,0,1.53-.14l-.09,1.5a12.2,12.2,0,0,1-1.9.12c-2,0-3.15-1-3.15-3.11V293.8h-2v-1.51h2v-3.81l1.91-.43Z" style="fill:#fff"/><path d="M163.11,298.39c0,3.95-2.16,6.44-5.27,6.44s-5.24-2.44-5.24-6.37,2.16-6.44,5.27-6.44S163.11,294.44,163.11,298.39Zm-8.52,0c0,3.16,1.22,4.91,3.25,4.91s3.28-1.72,3.28-4.91-1.22-4.88-3.25-4.88S154.59,295.28,154.59,298.41Z" style="fill:#fff"/><path d="M185.4,288.65h-5.52v15.87h-2.11V288.65h-5.48v-1.77H185.4Z" style="fill:#fff"/><path d="M190.71,289.94h-2.39v-2.37h2.39Zm-.21,14.58h-2V292.29h2Z" style="fill:#fff"/><path d="M196.77,294.51c1.12-1.57,2.39-2.49,4-2.49a2.92,2.92,0,0,1,3.07,2.47,5.09,5.09,0,0,1,4.06-2.47,3.16,3.16,0,0,1,3.28,3.5v9h-2v-8.31c0-1.72-.74-2.49-2-2.49a4.2,4.2,0,0,0-3.25,2.42v8.38H202v-8.31c0-1.77-.72-2.49-1.91-2.49a4.27,4.27,0,0,0-3.3,2.42v8.38H194.9V292.29h1.87Z" style="fill:#fff"/><path d="M216.62,298.68c0,3,1.42,4.66,3.59,4.66a2.93,2.93,0,0,0,3.11-2.49l1.8.6a4.72,4.72,0,0,1-4.93,3.35c-3.3,0-5.46-2.39-5.46-6.36S217,292,220,292s5.17,2.32,5.17,6.25v.43Zm6.68-1.39c-.19-2.46-1.39-3.81-3.25-3.81s-3.21,1.49-3.38,3.81Z" style="fill:#fff"/><path d="M235.16,295.54a2.6,2.6,0,0,0-2.65-2.1c-1.58,0-2.49.71-2.49,1.74s.53,1.66,2.51,2.13l1,.24c2.8.67,3.83,1.61,3.83,3.62s-1.53,3.63-4.71,3.63c-2.39,0-4.12-.95-4.86-3l1.89-.67a3,3,0,0,0,3,2.2c2,0,2.77-.94,2.77-2,0-1.29-.45-1.7-2.68-2.28l-1-.21c-2.75-.7-3.59-1.65-3.59-3.54s1.44-3.33,4.33-3.33A4.34,4.34,0,0,1,237,295Z" style="fill:#fff"/><path d="M254,291.14c0,.17,0,.19-.19.19s-.6-.05-2.16-.05h-.14a15.57,15.57,0,0,0,2.47,5.2,3.13,3.13,0,0,0-.6.91c-.07.16-.15.26-.22.26s-.12-.1-.21-.26a21.38,21.38,0,0,1-1.65-4.57c0,7.27.23,13.3.23,13.66,0,.14,0,.17-.16.17h-1.15c-.17,0-.19,0-.19-.17,0-.36.19-6.34.24-13.33a26.15,26.15,0,0,1-2.8,7.58c-.1.17-.17.27-.24.27s-.15-.07-.19-.24a2.35,2.35,0,0,0-.63-.93,25.87,25.87,0,0,0,3.52-8.55h-.53c-1.6,0-2.05.05-2.17.05s-.19,0-.19-.19v-.93c0-.19,0-.22.19-.22s.57.05,2.17.05h.72V288a12.41,12.41,0,0,0-.19-2.85,13.48,13.48,0,0,1,1.51.15c.19,0,.29.09.29.21a.92.92,0,0,1-.15.43,7.44,7.44,0,0,0-.12,2V290h.19c1.56,0,2-.05,2.16-.05s.19,0,.19.22Zm7.32,5.31a16.93,16.93,0,0,0,2,3.47,17.29,17.29,0,0,0,1.92-1.79,3,3,0,0,0,.57-.84,6.44,6.44,0,0,1,1,.77.39.39,0,0,1,.2.31c0,.12-.08.21-.24.26a1.62,1.62,0,0,0-.72.5,24,24,0,0,1-1.94,1.7,17.08,17.08,0,0,0,4.48,3.33,3.14,3.14,0,0,0-.77.81c-.12.22-.19.29-.29.29a.66.66,0,0,1-.33-.17,15.3,15.3,0,0,1-6.18-7c.05,2.51.1,4.85.1,6.24,0,.91-.14,1.37-.62,1.7s-.91.38-2.42.41c-.48,0-.53,0-.62-.48a2.94,2.94,0,0,0-.43-1,12.19,12.19,0,0,0,1.58.1c1,0,1.12-.17,1.12-.93v-2.76c-1.58,1-3.25,2-4.74,2.78a3.23,3.23,0,0,0-.86.53c-.07.09-.16.19-.26.19s-.14-.08-.22-.22c-.19-.33-.4-.79-.62-1.27a6.68,6.68,0,0,0,1.39-.5,45.45,45.45,0,0,0,5.31-2.89v-3.5h-2.22c-2.37,0-3.19.05-3.31.05s-.16,0-.16-.19v-.93c0-.17,0-.2.16-.2s.94.05,3.31.05h2.22v-2.15h-1.36c-2.18,0-2.9.05-3,.05s-.19,0-.19-.19v-.89c0-.17,0-.19.19-.19s.84.05,3,.05h1.36v-2.06H258c-2.29,0-3.06,0-3.2,0s-.2,0-.2-.17v-.93c0-.17,0-.2.2-.2s.91,0,3.2,0h3.57a24,24,0,0,0,1.29-2.44,4.49,4.49,0,0,0,.31-1,9.12,9.12,0,0,1,1.25.35c.16.05.28.15.28.27s-.12.21-.24.31a1.12,1.12,0,0,0-.33.45c-.29.58-.77,1.39-1.2,2.06h.79c2.28,0,3,0,3.16,0s.22,0,.22.2v.93c0,.14,0,.17-.22.17s-.88,0-3.16,0h-2.68v2.06h2c2.18,0,2.87-.05,3-.05s.19,0,.19.19v.89c0,.16,0,.19-.19.19s-.81-.05-3-.05h-2v2.15h3.33c2.37,0,3.16-.05,3.3-.05s.19,0,.19.2v.93c0,.17,0,.19-.19.19s-.93-.05-3.3-.05Zm-6.15.89c.22-.19.27-.22.38-.1a12.17,12.17,0,0,1,2.11,2.13c.12.12.12.17-.07.36l-.5.48c-.27.26-.32.24-.41.09a11.13,11.13,0,0,0-2-2.22c-.15-.12-.12-.14.09-.36Zm1.94-11.92c.22-.1.26-.1.38.05a11.23,11.23,0,0,1,1.41,2.08c.05.12.05.17-.14.29l-.69.38c-.29.17-.34.17-.41,0a8.11,8.11,0,0,0-1.34-2.16c-.12-.12-.12-.16.17-.31Z" style="fill:#fff"/><path d="M128.3,147.07a2.12,2.12,0,0,1,.15.84l-.17,4.05a.75.75,0,0,1-.94.75,40.22,40.22,0,0,0-6.85-1c-4.24,0-7.34,1.27-9.33,3.79a11.28,11.28,0,0,0-2.24,8.92,9.9,9.9,0,0,0,3.33,6.37,10.09,10.09,0,0,0,6.86,2.38,19.1,19.1,0,0,0,9.77-3.14c.36-.21.72-.31.9-.1a1,1,0,0,1,.19.45l0,5.29a1.44,1.44,0,0,1-.85,1.28s-6.16,2.25-9.78,2.25a17.22,17.22,0,0,1-11.62-4.14A16.89,16.89,0,0,1,102,164.26q-1.17-8.16,3.8-13.37t14-5.2a34.65,34.65,0,0,1,7.9,1A.91.91,0,0,1,128.3,147.07Z"/><path d="M138,166.31a3.46,3.46,0,0,1,.89-1.55,2.49,2.49,0,0,1,1.93-1.14c.82,0,2.06-.23,4,4.17l1.25-8.31c-.63-1.09-3-1.17-4.37-1.07s-2.49,1.1-3.78,3.13v-1.78a1,1,0,0,0-.92-1h-3.41a.94.94,0,0,0-.92,1v16.56a1,1,0,0,0,.92,1h3.46a1,1,0,0,0,.92-1Z"/><path d="M158.56,158.8a.64.64,0,0,1,.62.91L152,181.89a1.38,1.38,0,0,1-1.21.91h-3.7a.64.64,0,0,1-.62-.91l1.83-5.48a2.73,2.73,0,0,0-.12-1.76l-7.2-15c-.22-.48,0-.86.51-.86h3.44a1.6,1.6,0,0,1,1.31.86l4.2,9.06c.22.48.52.45.67-.05l2.65-9a1.33,1.33,0,0,1,1.19-.91Z"/><path d="M167.23,155.24a1,1,0,0,1,.92,1v1.66a.78.78,0,0,0,.91.82,18.37,18.37,0,0,1,2.32-.18,8.59,8.59,0,0,1,5.93,2.21,9.35,9.35,0,0,1,2.95,5.83,9.48,9.48,0,0,1-2.15,7.86,9.26,9.26,0,0,1-7.41,3.23,11.21,11.21,0,0,1-2.55-.35v4.56a1,1,0,0,1-.92,1h-3.37a.94.94,0,0,1-.92-1V166.63c0-.52-.29-.65-.65-.28a14.58,14.58,0,0,0-1.79,2.32q-.54,1-1,1c-.2,0-.32-.12-.35-.36a7.34,7.34,0,0,1,.76-3,12.47,12.47,0,0,1,3-4.26V156.2a1,1,0,0,1,.92-1Zm.92,7.57v9a1.34,1.34,0,0,0,.88,1.22,3.57,3.57,0,0,0,.88.09,4.49,4.49,0,0,0,4-1.9,6.46,6.46,0,0,0,.88-4.6c-.38-2.74-1.93-4.1-4.64-4.1A8.94,8.94,0,0,0,168.15,162.81Z"/><path d="M188.68,154.9a.9.9,0,0,1,.88,1l-.1,2a.88.88,0,0,0,.87,1h2a.9.9,0,0,1,.89,1l-.07,2.15a1,1,0,0,1-1,1h-2a1,1,0,0,0-1,1l-.13,4.07c0,.52,0,1.39,0,1.91,0,0,0,0,.06.47.22,1.63.86,2.44,1.91,2.44a4.66,4.66,0,0,0,2.23-.75c.14-.07.39-.16.52-.08a.71.71,0,0,1,.24.46l.44,3.16a1.29,1.29,0,0,1-.73,1.3,11.88,11.88,0,0,1-3.51.82,5.84,5.84,0,0,1-4.28-1.7,7.42,7.42,0,0,1-2.09-4.4,9,9,0,0,1-.07-1.63l.22-6.07a.9.9,0,0,0-.88-1h-1.74a.92.92,0,0,1-.9-1l0-2.15a1,1,0,0,1,1-1h1.74a1,1,0,0,0,.94-1l.05-2a1,1,0,0,1,.94-1Z"/><path d="M204.19,158.5a9.88,9.88,0,0,1,6.66,2.41,9.74,9.74,0,0,1,3.32,6.28,9.15,9.15,0,0,1-1.88,7.42,8.24,8.24,0,0,1-6.73,3,9.89,9.89,0,0,1-6.71-2.58,10.05,10.05,0,0,1-3.45-6.31,8.72,8.72,0,0,1,2-7.21A8.49,8.49,0,0,1,204.19,158.5Zm.79,14.66a3.22,3.22,0,0,0,3-1.91,6.86,6.86,0,0,0,.69-4.22,5,5,0,0,0-1.37-2.94,3.77,3.77,0,0,0-2.73-1.12,3.16,3.16,0,0,0-3.05,2,7.11,7.11,0,0,0-.64,4.11,4.73,4.73,0,0,0,1.48,3A3.78,3.78,0,0,0,205,173.16Z"/><path d="M239.31,145.69a.54.54,0,0,1,.53.54v4.41a.54.54,0,0,1-.52.55h-6.74a.54.54,0,0,0-.53.54v26.1a.53.53,0,0,1-.52.54h-5.61a.53.53,0,0,1-.52-.54v-26.1a.54.54,0,0,0-.53-.54h-8a.54.54,0,0,1-.52-.55l0-4.41a.54.54,0,0,1,.53-.54Z"/><path d="M247,158.8a.94.94,0,0,1,.92,1v16.56a1,1,0,0,1-.92,1h-3.43a1,1,0,0,1-.92-1V159.76a1,1,0,0,1,.92-1Z"/><path d="M242.49,153.67a2.45,2.45,0,0,1,.52-2,2.22,2.22,0,0,1,1.81-.84,3,3,0,0,1,2.06.84,3.22,3.22,0,0,1,1.07,2,2.5,2.5,0,0,1-.52,2,2.24,2.24,0,0,1-1.83.83,2.93,2.93,0,0,1-2-.83A3.2,3.2,0,0,1,242.49,153.67Z"/><path d="M254.62,158.8a.94.94,0,0,1,.92,1v1.46a5.82,5.82,0,0,0,.73-.55s2.69-2.17,4.53-2.17a4.86,4.86,0,0,1,4.95,3.38c1.93-2.25,3.93-3.38,6-3.38a5.51,5.51,0,0,1,4,1.58,7.08,7.08,0,0,1,2,4.26,10.93,10.93,0,0,1,.12,1.47v10.51a1,1,0,0,1-.93,1h-3.4a1,1,0,0,1-.92-1v-8.7c0-.52,0-1.39,0-1.91,0,0,0-.1-.06-.56-.23-1.72-.86-2.58-1.87-2.58-1.25,0-2.56,1-3.91,2.9v10.85a1,1,0,0,1-.92,1h-3.41a1,1,0,0,1-.92-1v-8.64c0-.53,0-1.39-.09-1.92l-.09-.73q-.33-2.46-2-2.46t-3.78,2.88v10.87a1,1,0,0,1-.92,1h-3.44a1,1,0,0,1-.92-1V159.76a.94.94,0,0,1,.92-1Z"/><path d="M296.47,168.64a1.56,1.56,0,0,1-.67.19H286a.74.74,0,0,0-.73.94,5.77,5.77,0,0,0,1.23,2.52,4.48,4.48,0,0,0,3.27,1.29,14.35,14.35,0,0,0,5.07-1.35c.39-.16.57-.24,1,0s.19.71.19.71l-.16,2.37a1.48,1.48,0,0,1-.94,1.23,23.23,23.23,0,0,1-5.09,1,9.74,9.74,0,0,1-6.75-2.44,10.27,10.27,0,0,1-3.28-6.53,9,9,0,0,1,1.83-7.19,7.79,7.79,0,0,1,6.38-3,8.29,8.29,0,0,1,5.8,2.14,8.9,8.9,0,0,1,2.82,5.63,11.59,11.59,0,0,1,.1,1.78A.71.71,0,0,1,296.47,168.64Zm-11-3.08a1.22,1.22,0,0,0,.44.09h4.55c.51,0,.92-.2.92-.45l0-.22a3.14,3.14,0,0,0-1-2,2.81,2.81,0,0,0-2-.74c-1.54,0-2.48.85-3,2.74C285.33,165.19,285.25,165.44,285.44,165.56Z"/><path d="M309.79,160.27a2.38,2.38,0,0,1,.12.76l.1,2.53c0,.53-.35.8-.82.59a20.09,20.09,0,0,0-2.15-.76,9.82,9.82,0,0,0-2.33-.42q-1.15,0-1,.81c.07.55.88,1.35,2.42,2.44a14.35,14.35,0,0,1,3.51,3.12,5.63,5.63,0,0,1,1,2.5,4.6,4.6,0,0,1-1.3,4.12,6.15,6.15,0,0,1-4.55,1.63,13.41,13.41,0,0,1-5.43-1.24,1.3,1.3,0,0,1-.72-.52,3.46,3.46,0,0,1-.13-1.07l.08-2a.67.67,0,0,1,.92-.67,23.15,23.15,0,0,0,4.13,1c1.15,0,1.69-.33,1.59-1s-1-1.46-2.65-2.67a16.35,16.35,0,0,1-3.36-2.9,4.44,4.44,0,0,1-.95-2.07,4.86,4.86,0,0,1,1.28-4.3,6.05,6.05,0,0,1,4.54-1.67,11.5,11.5,0,0,1,4.93,1.22A1.7,1.7,0,0,1,309.79,160.27Z"/><path d="M86.05,155a1.88,1.88,0,0,1,1.83,1.92v21.83a1.88,1.88,0,0,1-1.83,1.92H79.17a1.89,1.89,0,0,1-1.84-1.92V156.93A1.89,1.89,0,0,1,79.17,155Z"/><path d="M68.84,163.28a1.79,1.79,0,0,0,1.13.2l6.33,0a1,1,0,0,0,.7-.39,2,2,0,0,0,.32-1.08V150.65c0-3.59-6.43-5-11.67-5-10.28,0-14.48,5.07-14.74,18.59s10,16.87,20.69,16.85H86.31a2.34,2.34,0,0,0,1.23-.37c.42-.31.4-1.21.4-1.21V172.4a2.48,2.48,0,0,0-.32-1.24,1.57,1.57,0,0,0-1.27-.57l-22.1,1.68s-2-.11-2.6-.74c-1.23-1.22-2.29-7.47-2.34-10.63-.06-3.31.27-3.93,5.12-3.9,5.09,0,4.41,1.18,4.41,2.56C68.84,160.43,68.47,163,68.84,163.28Z" style="fill:#fed600"/><path d="M94.92,154.77a1.89,1.89,0,0,1-1.84,1.92H72.14a1.89,1.89,0,0,1-1.84-1.92v-7.16a1.89,1.89,0,0,1,1.84-1.92H93.08a1.89,1.89,0,0,1,1.84,1.92Z"/></svg>