<svg id="レイヤー_1" data-name="レイヤー 1" xmlns="http://www.w3.org/2000/svg" viewBox="0 0 355.84 361.25"><title>lcnem</title><rect x="17.6" y="16.02" width="323.57" height="323.57" style="fill:#fff"/><rect x="17.6" y="278.11" width="323.57" height="61.48" style="fill:#80a0b0"/><path d="M95.28,318.16h9.58v1.94H93V300.76h2.28Z" style="fill:#fff"/><path d="M120.32,306.56c-.65-2.84-2.28-4.25-4.7-4.25-3.28,0-5.69,2.81-5.69,8.13s2.44,8.14,5.69,8.14c2.58,0,4.23-1.29,4.91-4.33l2.18.73c-1.1,3.84-3.57,5.49-7.11,5.49-4.65,0-8.09-3.65-8.09-10s3.47-10.05,8.09-10.05a6.79,6.79,0,0,1,7,5.53Z" style="fill:#fff"/><path d="M140.72,320.1H137.8l-6.06-11.7c-1.08-2.1-1.76-3.6-2.76-5.65h-.39c0,2.18.1,4.07.1,6.22V320.1h-2.12V300.76h3.54l5.54,10.84c1.13,2.18,1.81,3.86,2.73,5.8h.42c-.08-2.07-.21-4.07-.21-6.35V300.76h2.13Z" style="fill:#fff"/><path d="M158.4,302.67h-9.89v6.2H156v1.91h-7.48v7.41h10.08v1.91H146.22V300.76H158.4Z" style="fill:#fff"/><path d="M181.05,320.1h-2.17V308.74c0-2.21.05-4,.05-6.12h-.45c-.55,2.05-1,3.78-1.71,6l-3.64,11.52h-2.92l-3.57-11.49c-.65-2.08-1.13-3.86-1.76-6h-.44c0,2.1.05,3.94.05,6.14V320.1h-2.05V300.76h3.83l3.47,11.39c.58,1.92,1.16,3.91,1.76,5.9h.44c.69-2,1.19-3.8,1.82-5.85l3.51-11.44h3.78Z" style="fill:#fff"/><path d="M188.63,320.1l-1.52,3.55h-1.18l1.37-3.55h-1.53v-2.78h2.86Z" style="fill:#fff"/><path d="M203.12,320.1h-2.28V300.76h2.28Z" style="fill:#fff"/><path d="M222.78,320.1h-2.91l-6.07-11.7c-1.07-2.1-1.76-3.6-2.75-5.65h-.4c0,2.18.11,4.07.11,6.22V320.1h-2.13V300.76h3.55l5.54,10.84c1.12,2.18,1.81,3.86,2.72,5.8h.42c-.07-2.07-.2-4.07-.2-6.35V300.76h2.12Z" style="fill:#fff"/><path d="M240,306.56c-.66-2.84-2.28-4.25-4.7-4.25-3.28,0-5.69,2.81-5.69,8.13s2.44,8.14,5.69,8.14c2.57,0,4.23-1.29,4.91-4.33l2.18.73c-1.1,3.84-3.57,5.49-7.11,5.49-4.65,0-8.09-3.65-8.09-10s3.47-10.05,8.09-10.05a6.8,6.8,0,0,1,7,5.53Z" style="fill:#fff"/><path d="M260.2,305.43c0,.18,0,.21-.2.21s-.66-.05-2.37-.05h-.16a17.26,17.26,0,0,0,2.71,5.69,3.94,3.94,0,0,0-.66,1c-.08.18-.15.29-.23.29s-.14-.11-.24-.29a23.42,23.42,0,0,1-1.81-5c0,8,.26,14.59.26,15,0,.15,0,.18-.18.18h-1.26c-.19,0-.21,0-.21-.18,0-.4.21-7,.26-14.63A28.26,28.26,0,0,1,253,316c-.11.18-.18.28-.26.28s-.16-.07-.21-.26a2.45,2.45,0,0,0-.69-1,28.37,28.37,0,0,0,3.86-9.37h-.58c-1.75,0-2.25.05-2.38.05s-.21,0-.21-.21v-1c0-.21,0-.24.21-.24s.63.05,2.38.05H256V302a13.31,13.31,0,0,0-.21-3.12,13.76,13.76,0,0,1,1.66.16c.21,0,.31.1.31.23a1,1,0,0,1-.16.48,8.06,8.06,0,0,0-.13,2.23v2.28h.21c1.71,0,2.21-.05,2.37-.05s.2,0,.2.24Zm8,5.83a17.84,17.84,0,0,0,2.23,3.8,17.91,17.91,0,0,0,2.1-2,3.2,3.2,0,0,0,.63-.91,7,7,0,0,1,1.07.84c.16.13.21.23.21.34s-.07.23-.26.29a1.72,1.72,0,0,0-.78.55,27.39,27.39,0,0,1-2.13,1.86,18.52,18.52,0,0,0,4.91,3.65,3.4,3.4,0,0,0-.84.89c-.13.24-.21.32-.32.32s-.18-.06-.36-.19a16.73,16.73,0,0,1-6.78-7.71c.06,2.75.11,5.32.11,6.85,0,1-.16,1.49-.68,1.86s-1,.42-2.66.45c-.52,0-.57,0-.68-.53a3.19,3.19,0,0,0-.47-1.1,12.82,12.82,0,0,0,1.73.1c1.05,0,1.23-.18,1.23-1v-3c-1.73,1.13-3.56,2.18-5.19,3.05a3.29,3.29,0,0,0-.95.58c-.08.1-.18.2-.29.2s-.15-.08-.23-.23c-.21-.37-.45-.87-.69-1.39a8.85,8.85,0,0,0,1.53-.55,50.93,50.93,0,0,0,5.82-3.18v-3.83h-2.44c-2.6,0-3.49.05-3.62.05s-.18,0-.18-.21v-1c0-.19,0-.21.18-.21s1,.05,3.62.05h2.44v-2.36H265c-2.39,0-3.18.05-3.31.05s-.21,0-.21-.21v-1c0-.19,0-.21.21-.21s.92,0,3.31,0h1.49V304h-1.86c-2.52,0-3.36.05-3.52.05s-.21,0-.21-.18v-1c0-.19,0-.21.21-.21s1,.05,3.52.05h3.91A25.67,25.67,0,0,0,270,300a4.86,4.86,0,0,0,.34-1.1,11,11,0,0,1,1.37.39c.18.06.31.16.31.29s-.13.24-.26.34a1.31,1.31,0,0,0-.37.5c-.31.63-.84,1.52-1.31,2.26h.86c2.5,0,3.34-.05,3.47-.05s.24,0,.24.21v1c0,.16,0,.18-.24.18s-1-.05-3.47-.05H268v2.26h2.2c2.39,0,3.15,0,3.28,0s.21,0,.21.21v1c0,.18,0,.21-.21.21s-.89-.05-3.28-.05H268v2.36h3.64c2.6,0,3.47-.05,3.63-.05s.21,0,.21.21v1c0,.18,0,.21-.21.21s-1-.05-3.63-.05Zm-6.75,1c.24-.21.29-.24.42-.11a13.15,13.15,0,0,1,2.31,2.34c.13.13.13.18-.08.39l-.55.53c-.29.29-.34.26-.45.1a12.1,12.1,0,0,0-2.2-2.44c-.16-.13-.13-.16.11-.39Zm2.13-13.07c.23-.11.29-.11.42,0a13.12,13.12,0,0,1,1.55,2.28c.05.13.05.19-.16.32l-.76.42c-.32.18-.37.18-.45,0a9,9,0,0,0-1.47-2.36c-.13-.13-.13-.19.19-.34Z" style="fill:#fff"/><path d="M217.75,227.18a77.31,77.31,0,0,1-63.05,0,73.92,73.92,0,0,1-6.7-3.41,77.48,77.48,0,0,1-22.18-19q-2.35-3-4.42-6.15A77.15,77.15,0,0,1,144.46,91.92a76.37,76.37,0,0,1,15-7.49c1.82,0,3.61.17,5.38.37,1.32.15,2.63.35,3.93.57A62.54,62.54,0,0,1,183,89.73c1,.42,1.91.87,2.85,1.34-1.89,0-3.75.1-5.59.26a65.2,65.2,0,0,0-25.88,8,63.75,63.75,0,0,0-6.51,4.12,65.72,65.72,0,0,0-1.38,105.7q2.5,1.9,5.2,3.57a65.62,65.62,0,0,0,33.24,9.78h2.57a79.78,79.78,0,0,0,27.28,4.77C215.78,227.23,216.77,227.21,217.75,227.18Z" style="fill:#0c6bb0"/><path d="M263.35,156.77A76.67,76.67,0,0,1,251,198.58,62.55,62.55,0,0,1,226,209.11a65.74,65.74,0,0,0-1.38-105.7A80.39,80.39,0,0,0,207.64,84.8c-1-.84-2.12-1.65-3.21-2.44l-1.16-.83c.86.19,1.71.4,2.56.63A73.08,73.08,0,0,1,213,84.43,77.13,77.13,0,0,1,263.35,156.77Z" style="fill:#0c6bb0"/><path d="M234.79,147.25a77,77,0,0,1-31.07,61.87,62,62,0,0,1-14.28-4.36,65.7,65.7,0,0,0,7.94-109.85q-2.5-1.91-5.2-3.58c-.9-.55-1.81-1.09-2.74-1.6h0c-1.05-.59-2.12-1.14-3.21-1.67a65.59,65.59,0,0,0-14.27-5c-1.3-.28-2.61-.53-3.93-.74-.46-.08-.93-.14-1.4-.2a63.58,63.58,0,0,0-7.68-.6h-1.28A65.7,65.7,0,0,0,119.31,200.6a80.36,80.36,0,0,0,21.3,21.88A77.14,77.14,0,1,1,182.3,74.14c1.32.45,2.63.93,3.92,1.45,1,.39,2,.81,3,1.25q3.44,1.55,6.69,3.4c1.58.9,3.12,1.86,4.62,2.86,1.09.73,2.16,1.49,3.22,2.27a77.48,77.48,0,0,1,14.34,13.92q2.35,3,4.42,6.14A76.79,76.79,0,0,1,234.79,147.25Z" style="fill:#2b2f89"/><path d="M291.92,147.25a77.15,77.15,0,0,1-60.09,75.23,74.83,74.83,0,0,1-7.38,1.29,77.57,77.57,0,0,1-29.26-1.91q-2.56-.66-5-1.5c-.73-.25-1.45-.5-2.16-.77s-1.18-.44-1.77-.68A76.84,76.84,0,0,1,172,211.39c-1.09-.73-2.17-1.49-3.22-2.27A77.17,77.17,0,0,1,150,105.43a62.6,62.6,0,0,1,25.09-10.52A65.72,65.72,0,0,0,183,204.76c1.05.59,2.12,1.15,3.21,1.67a65.33,65.33,0,0,0,14.28,5c1.3.29,2.61.53,3.93.74a65.46,65.46,0,0,0,10,.82h.37c2,0,4-.09,6-.27a65.29,65.29,0,0,0,25.88-8,62,62,0,0,0,6.5-4.13,65.7,65.7,0,0,0-38.34-119h-1.28a79.5,79.5,0,0,0-16.71-4.08c-2.16-1.21-4.38-2.33-6.65-3.34a77.19,77.19,0,0,1,101.77,73.11Z" style="fill:#32a2d3"/></svg>